G04 #@! TF.GenerationSoftware,KiCad,Pcbnew,7.0.1*
G04 #@! TF.CreationDate,2023-03-22T01:49:52-05:00*
G04 #@! TF.ProjectId,V0_Display,56305f44-6973-4706-9c61-792e6b696361,rev?*
G04 #@! TF.SameCoordinates,Original*
G04 #@! TF.FileFunction,Copper,L1,Top*
G04 #@! TF.FilePolarity,Positive*
%FSLAX46Y46*%
G04 Gerber Fmt 4.6, Leading zero omitted, Abs format (unit mm)*
G04 Created by KiCad (PCBNEW 7.0.1) date 2023-03-22 01:49:52*
%MOMM*%
%LPD*%
G01*
G04 APERTURE LIST*
G04 Aperture macros list*
%AMRoundRect*
0 Rectangle with rounded corners*
0 $1 Rounding radius*
0 $2 $3 $4 $5 $6 $7 $8 $9 X,Y pos of 4 corners*
0 Add a 4 corners polygon primitive as box body*
4,1,4,$2,$3,$4,$5,$6,$7,$8,$9,$2,$3,0*
0 Add four circle primitives for the rounded corners*
1,1,$1+$1,$2,$3*
1,1,$1+$1,$4,$5*
1,1,$1+$1,$6,$7*
1,1,$1+$1,$8,$9*
0 Add four rect primitives between the rounded corners*
20,1,$1+$1,$2,$3,$4,$5,0*
20,1,$1+$1,$4,$5,$6,$7,0*
20,1,$1+$1,$6,$7,$8,$9,0*
20,1,$1+$1,$8,$9,$2,$3,0*%
G04 Aperture macros list end*
G04 #@! TA.AperFunction,SMDPad,CuDef*
%ADD10R,1.500000X1.000000*%
G04 #@! TD*
G04 #@! TA.AperFunction,ComponentPad*
%ADD11C,2.000000*%
G04 #@! TD*
G04 #@! TA.AperFunction,ComponentPad*
%ADD12O,2.500000X4.000000*%
G04 #@! TD*
G04 #@! TA.AperFunction,ComponentPad*
%ADD13C,1.524000*%
G04 #@! TD*
G04 #@! TA.AperFunction,SMDPad,CuDef*
%ADD14RoundRect,0.200000X-0.275000X0.200000X-0.275000X-0.200000X0.275000X-0.200000X0.275000X0.200000X0*%
G04 #@! TD*
G04 #@! TA.AperFunction,SMDPad,CuDef*
%ADD15RoundRect,0.225000X-0.250000X0.225000X-0.250000X-0.225000X0.250000X-0.225000X0.250000X0.225000X0*%
G04 #@! TD*
G04 #@! TA.AperFunction,SMDPad,CuDef*
%ADD16RoundRect,0.225000X0.250000X-0.225000X0.250000X0.225000X-0.250000X0.225000X-0.250000X-0.225000X0*%
G04 #@! TD*
G04 #@! TA.AperFunction,SMDPad,CuDef*
%ADD17RoundRect,0.200000X-0.200000X-0.275000X0.200000X-0.275000X0.200000X0.275000X-0.200000X0.275000X0*%
G04 #@! TD*
G04 #@! TA.AperFunction,ComponentPad*
%ADD18R,1.700000X1.700000*%
G04 #@! TD*
G04 #@! TA.AperFunction,ComponentPad*
%ADD19O,1.700000X1.700000*%
G04 #@! TD*
G04 #@! TA.AperFunction,ComponentPad*
%ADD20O,1.800000X1.000000*%
G04 #@! TD*
G04 #@! TA.AperFunction,ComponentPad*
%ADD21O,2.100000X1.000000*%
G04 #@! TD*
G04 #@! TA.AperFunction,ViaPad*
%ADD22C,0.600000*%
G04 #@! TD*
G04 #@! TA.AperFunction,ViaPad*
%ADD23C,0.800000*%
G04 #@! TD*
G04 #@! TA.AperFunction,Conductor*
%ADD24C,0.500000*%
G04 #@! TD*
G04 #@! TA.AperFunction,Conductor*
%ADD25C,0.250000*%
G04 #@! TD*
G04 #@! TA.AperFunction,Conductor*
%ADD26C,0.200000*%
G04 #@! TD*
G04 APERTURE END LIST*
D10*
X157470000Y-60550000D03*
X157470000Y-63750000D03*
X162370000Y-63750000D03*
X162370000Y-60550000D03*
D11*
X156670000Y-69900000D03*
X163170000Y-69900000D03*
X156670000Y-74400000D03*
X163170000Y-74400000D03*
X141920000Y-74650000D03*
X146920000Y-74650000D03*
X144420000Y-74650000D03*
D12*
X139340000Y-67150000D03*
X149500000Y-67150000D03*
D11*
X141920000Y-60150000D03*
X146920000Y-60150000D03*
D13*
X109660000Y-52850000D03*
X112200000Y-52850000D03*
X114740000Y-52850000D03*
X117280000Y-52850000D03*
D14*
X109420000Y-65725000D03*
X109420000Y-67375000D03*
D15*
X110944000Y-65775000D03*
X110944000Y-67325000D03*
X108220000Y-62075000D03*
X108220000Y-63625000D03*
D16*
X106620000Y-60600000D03*
X106620000Y-59050000D03*
X109820000Y-60600000D03*
X109820000Y-59050000D03*
D17*
X107595000Y-57050000D03*
X109245000Y-57050000D03*
D15*
X109844000Y-62075000D03*
X109844000Y-63625000D03*
X106620000Y-62075000D03*
X106620000Y-63625000D03*
D16*
X108220000Y-60600000D03*
X108220000Y-59050000D03*
D18*
X110954000Y-70198000D03*
D19*
X113494000Y-70198000D03*
X116034000Y-70198000D03*
D18*
X105304000Y-68928000D03*
D19*
X102764000Y-68928000D03*
X100224000Y-68928000D03*
D18*
X153115000Y-60445000D03*
D19*
X150575000Y-60445000D03*
D18*
X96414000Y-70706000D03*
D19*
X96414000Y-68166000D03*
X96414000Y-65626000D03*
X96414000Y-63086000D03*
D20*
X87719000Y-71470000D03*
D21*
X91919000Y-71470000D03*
D20*
X87719000Y-62830000D03*
D21*
X91919000Y-62830000D03*
D22*
X107520000Y-76850000D03*
D23*
X114620000Y-59050000D03*
X104920000Y-74550000D03*
X93920000Y-63350000D03*
X113394000Y-60254000D03*
D22*
X106620000Y-57999502D03*
D23*
X112220000Y-61450000D03*
X112120000Y-59050000D03*
D22*
X121020000Y-61525000D03*
X121020000Y-58050000D03*
D23*
X106109000Y-73496000D03*
X114620000Y-61450000D03*
X124820000Y-52350000D03*
D22*
X152292000Y-57322000D03*
X155220000Y-56450000D03*
X97220000Y-60550000D03*
D23*
X157470000Y-62250000D03*
D22*
X116220000Y-54850000D03*
X113940000Y-66642000D03*
X119007682Y-61061295D03*
X118408182Y-61853000D03*
X93820000Y-68650000D03*
X94520000Y-72050000D03*
X102950000Y-56250000D03*
X102950000Y-53120000D03*
X110816000Y-60854000D03*
D23*
X104920000Y-64150000D03*
D22*
X110771353Y-62049429D03*
X118320000Y-60653500D03*
X108918584Y-68478584D03*
X109720000Y-64750000D03*
X152292000Y-52578000D03*
X106020000Y-57050000D03*
X94520000Y-61650000D03*
X93471999Y-65398001D03*
D23*
X139820000Y-70850000D03*
D22*
X117120000Y-64450000D03*
X115413246Y-65556754D03*
X116320000Y-65049500D03*
X117461500Y-63691500D03*
X150520000Y-54900000D03*
X126420000Y-59750000D03*
D24*
X92721999Y-69101500D02*
X92721999Y-64548001D01*
D25*
X162370000Y-63750000D02*
X162370000Y-63350000D01*
D24*
X92721999Y-64548001D02*
X93920000Y-63350000D01*
X94018000Y-70397501D02*
X92721999Y-69101500D01*
D25*
X162370000Y-63750000D02*
X162370000Y-63255000D01*
D26*
X97564000Y-69556000D02*
X96414000Y-70706000D01*
X97564000Y-60894000D02*
X97564000Y-69556000D01*
D25*
X155220000Y-58392000D02*
X157378000Y-60550000D01*
X155220000Y-56450000D02*
X155220000Y-58392000D01*
D24*
X157470000Y-62250000D02*
X157470000Y-60550000D01*
D26*
X97220000Y-60550000D02*
X97564000Y-60894000D01*
X116220000Y-54850000D02*
X116220000Y-54330000D01*
X116220000Y-54330000D02*
X114740000Y-52850000D01*
X113940000Y-66130000D02*
X117617000Y-62453000D01*
X113940000Y-66642000D02*
X113940000Y-66130000D01*
X119007682Y-62102029D02*
X119007682Y-61061295D01*
X118656711Y-62453000D02*
X119007682Y-62102029D01*
X117617000Y-62453000D02*
X118656711Y-62453000D01*
X117651314Y-61853000D02*
X110954000Y-68550314D01*
X118408182Y-61853000D02*
X117651314Y-61853000D01*
X110954000Y-68550314D02*
X110954000Y-70198000D01*
X94520000Y-72050000D02*
X94718000Y-71852000D01*
X93820000Y-69209551D02*
X93820000Y-68650000D01*
X94718000Y-70107551D02*
X93820000Y-69209551D01*
X94718000Y-71852000D02*
X94718000Y-70107551D01*
D25*
X109700000Y-55350000D02*
X112200000Y-52850000D01*
X102950000Y-56250000D02*
X103850000Y-55350000D01*
X103850000Y-55350000D02*
X109700000Y-55350000D01*
X102950000Y-53120000D02*
X103220000Y-52850000D01*
X103220000Y-52850000D02*
X109660000Y-52850000D01*
D26*
X116705785Y-62150000D02*
X118202285Y-60653500D01*
D25*
X110745782Y-62075000D02*
X110771353Y-62049429D01*
X104920000Y-64150000D02*
X104920000Y-63775000D01*
X104920000Y-62300000D02*
X106620000Y-60600000D01*
D26*
X110871924Y-62150000D02*
X116705785Y-62150000D01*
D25*
X106620000Y-60600000D02*
X110562000Y-60600000D01*
X110562000Y-60600000D02*
X110816000Y-60854000D01*
X104920000Y-64150000D02*
X104920000Y-62300000D01*
X104920000Y-63775000D02*
X106620000Y-62075000D01*
D26*
X109420000Y-67375000D02*
X109420000Y-67977168D01*
D25*
X109844000Y-62075000D02*
X110745782Y-62075000D01*
D26*
X110771353Y-62049429D02*
X110871924Y-62150000D01*
X109420000Y-67977168D02*
X108918584Y-68478584D01*
D25*
X109844000Y-62075000D02*
X106620000Y-62075000D01*
D26*
X118202285Y-60653500D02*
X118320000Y-60653500D01*
X109420000Y-65050000D02*
X109420000Y-65725000D01*
X109720000Y-64750000D02*
X109420000Y-65050000D01*
X110944000Y-65775000D02*
X109470000Y-65775000D01*
D25*
X156420000Y-63750000D02*
X157470000Y-63750000D01*
X153115000Y-60445000D02*
X156420000Y-63750000D01*
X152292000Y-52622000D02*
X160220000Y-60550000D01*
X160220000Y-60550000D02*
X162370000Y-60550000D01*
X152292000Y-52578000D02*
X152292000Y-52622000D01*
X107595000Y-57050000D02*
X106020000Y-57050000D01*
D26*
X94620000Y-61750000D02*
X94520000Y-61650000D01*
X94620000Y-63660050D02*
X94620000Y-61750000D01*
X93471999Y-64808051D02*
X94620000Y-63660050D01*
X93471999Y-65398001D02*
X93471999Y-64808051D01*
D24*
X163170000Y-69900000D02*
X156670000Y-69900000D01*
X139820000Y-70850000D02*
X155720000Y-70850000D01*
X155720000Y-70850000D02*
X156670000Y-69900000D01*
D25*
X131570000Y-64450000D02*
X135870000Y-60150000D01*
X135870000Y-60150000D02*
X141920000Y-60150000D01*
X117120000Y-64450000D02*
X131570000Y-64450000D01*
X145595000Y-75975000D02*
X146920000Y-74650000D01*
X115606492Y-65750000D02*
X131146167Y-65750000D01*
X115413246Y-65556754D02*
X115606492Y-65750000D01*
X141371167Y-75975000D02*
X145595000Y-75975000D01*
X131146167Y-65750000D02*
X141371167Y-75975000D01*
X116345500Y-65075000D02*
X131107563Y-65075000D01*
X131107563Y-65075000D02*
X140682563Y-74650000D01*
X116320000Y-65049500D02*
X116345500Y-65075000D01*
X140682563Y-74650000D02*
X141920000Y-74650000D01*
X117503000Y-63650000D02*
X131733604Y-63650000D01*
X117461500Y-63691500D02*
X117503000Y-63650000D01*
X140483604Y-54900000D02*
X150520000Y-54900000D01*
X131733604Y-63650000D02*
X140483604Y-54900000D01*
D26*
X123720000Y-57050000D02*
X109245000Y-57050000D01*
X126420000Y-59750000D02*
X123720000Y-57050000D01*
G04 #@! TA.AperFunction,Conductor*
G36*
X164857000Y-49916881D02*
G01*
X164903119Y-49963000D01*
X164920000Y-50026000D01*
X164920000Y-69702358D01*
X164903935Y-69763924D01*
X164859835Y-69809791D01*
X164798947Y-69828261D01*
X164736797Y-69814625D01*
X164689235Y-69772360D01*
X164668388Y-69712244D01*
X164664535Y-69663288D01*
X164638397Y-69554417D01*
X164609105Y-69432406D01*
X164518240Y-69213037D01*
X164517864Y-69212424D01*
X164394176Y-69010584D01*
X164239969Y-68830030D01*
X164059415Y-68675823D01*
X163856966Y-68551761D01*
X163637594Y-68460895D01*
X163406711Y-68405464D01*
X163170000Y-68386835D01*
X162933288Y-68405464D01*
X162702405Y-68460895D01*
X162483033Y-68551761D01*
X162280584Y-68675823D01*
X162100030Y-68830030D01*
X161945823Y-69010584D01*
X161902467Y-69081335D01*
X161856601Y-69125435D01*
X161795035Y-69141500D01*
X158044965Y-69141500D01*
X157983399Y-69125435D01*
X157937533Y-69081335D01*
X157894176Y-69010584D01*
X157739969Y-68830030D01*
X157559415Y-68675823D01*
X157356966Y-68551761D01*
X157137594Y-68460895D01*
X156906711Y-68405464D01*
X156670000Y-68386835D01*
X156433288Y-68405464D01*
X156202405Y-68460895D01*
X155983033Y-68551761D01*
X155780584Y-68675823D01*
X155600030Y-68830030D01*
X155445823Y-69010584D01*
X155321761Y-69213033D01*
X155230895Y-69432405D01*
X155175464Y-69663288D01*
X155156835Y-69900000D01*
X155161212Y-69955614D01*
X155147867Y-70022703D01*
X155101435Y-70072933D01*
X155035600Y-70091500D01*
X140362586Y-70091500D01*
X140323649Y-70085333D01*
X140288529Y-70067438D01*
X140276752Y-70058882D01*
X140102288Y-69981206D01*
X139915487Y-69941500D01*
X139724513Y-69941500D01*
X139599978Y-69967970D01*
X139537711Y-69981206D01*
X139363246Y-70058883D01*
X139208747Y-70171133D01*
X139080958Y-70313057D01*
X138985472Y-70478443D01*
X138926458Y-70660070D01*
X138906496Y-70850000D01*
X138926458Y-71039929D01*
X138985472Y-71221556D01*
X139080958Y-71386942D01*
X139104569Y-71413165D01*
X139208747Y-71528866D01*
X139363248Y-71641118D01*
X139537712Y-71718794D01*
X139724513Y-71758500D01*
X139915485Y-71758500D01*
X139915487Y-71758500D01*
X140102288Y-71718794D01*
X140276752Y-71641118D01*
X140288529Y-71632561D01*
X140323649Y-71614667D01*
X140362586Y-71608500D01*
X155655559Y-71608500D01*
X155673820Y-71609830D01*
X155697789Y-71613341D01*
X155744253Y-71609275D01*
X155747647Y-71608979D01*
X155758628Y-71608500D01*
X155764177Y-71608500D01*
X155764180Y-71608500D01*
X155795301Y-71604861D01*
X155798889Y-71604495D01*
X155874426Y-71597887D01*
X155874430Y-71597885D01*
X155875751Y-71597770D01*
X155894856Y-71593535D01*
X155896106Y-71593079D01*
X155896113Y-71593079D01*
X155967400Y-71567132D01*
X155970769Y-71565961D01*
X156042738Y-71542114D01*
X156042739Y-71542112D01*
X156044007Y-71541693D01*
X156061613Y-71533169D01*
X156062725Y-71532437D01*
X156062732Y-71532435D01*
X156126138Y-71490730D01*
X156129161Y-71488806D01*
X156193651Y-71449030D01*
X156193652Y-71449028D01*
X156194788Y-71448328D01*
X156209959Y-71435970D01*
X156210872Y-71435002D01*
X156210874Y-71435001D01*
X156231476Y-71413164D01*
X156232985Y-71411565D01*
X156288673Y-71377271D01*
X156354048Y-71375511D01*
X156433289Y-71394535D01*
X156670000Y-71413165D01*
X156906711Y-71394535D01*
X157137594Y-71339105D01*
X157356963Y-71248240D01*
X157559416Y-71124176D01*
X157739969Y-70969969D01*
X157894176Y-70789416D01*
X157937531Y-70718665D01*
X157983399Y-70674565D01*
X158044965Y-70658500D01*
X161795035Y-70658500D01*
X161856601Y-70674565D01*
X161902467Y-70718665D01*
X161945823Y-70789415D01*
X162100030Y-70969969D01*
X162280584Y-71124176D01*
X162483033Y-71248238D01*
X162483035Y-71248238D01*
X162483037Y-71248240D01*
X162702406Y-71339105D01*
X162861379Y-71377271D01*
X162933288Y-71394535D01*
X162950558Y-71395894D01*
X163170000Y-71413165D01*
X163406711Y-71394535D01*
X163637594Y-71339105D01*
X163856963Y-71248240D01*
X164059416Y-71124176D01*
X164239969Y-70969969D01*
X164394176Y-70789416D01*
X164518240Y-70586963D01*
X164609105Y-70367594D01*
X164664535Y-70136711D01*
X164668387Y-70087756D01*
X164689235Y-70027640D01*
X164736797Y-69985375D01*
X164798947Y-69971739D01*
X164859835Y-69990209D01*
X164903935Y-70036076D01*
X164920000Y-70097642D01*
X164920000Y-74208729D01*
X164903934Y-74270295D01*
X164859835Y-74316162D01*
X164798947Y-74334632D01*
X164736797Y-74320996D01*
X164689235Y-74278731D01*
X164668388Y-74218615D01*
X164664039Y-74163366D01*
X164608627Y-73932559D01*
X164517791Y-73713261D01*
X164403102Y-73526107D01*
X164403101Y-73526107D01*
X163529210Y-74400000D01*
X163529210Y-74400001D01*
X164403101Y-75273892D01*
X164403102Y-75273891D01*
X164517791Y-75086738D01*
X164608627Y-74867440D01*
X164664039Y-74636633D01*
X164668388Y-74581385D01*
X164689235Y-74521269D01*
X164736797Y-74479004D01*
X164798947Y-74465368D01*
X164859835Y-74483838D01*
X164903934Y-74529705D01*
X164920000Y-74591271D01*
X164920000Y-84274000D01*
X164903119Y-84337000D01*
X164857000Y-84383119D01*
X164794000Y-84400000D01*
X85550000Y-84400000D01*
X85487000Y-84383119D01*
X85440881Y-84337000D01*
X85424000Y-84274000D01*
X85424000Y-80717766D01*
X87315787Y-80717766D01*
X87345413Y-80987015D01*
X87345414Y-80987018D01*
X87413928Y-81249088D01*
X87519870Y-81498390D01*
X87660982Y-81729610D01*
X87834255Y-81937820D01*
X87834256Y-81937821D01*
X87834258Y-81937823D01*
X88035993Y-82118578D01*
X88035995Y-82118579D01*
X88035998Y-82118582D01*
X88261910Y-82268044D01*
X88394104Y-82330014D01*
X88507171Y-82383018D01*
X88507173Y-82383018D01*
X88507176Y-82383020D01*
X88766569Y-82461060D01*
X88766572Y-82461060D01*
X88766574Y-82461061D01*
X89034558Y-82500500D01*
X89034561Y-82500500D01*
X89237630Y-82500500D01*
X89237631Y-82500500D01*
X89440156Y-82485677D01*
X89704553Y-82426780D01*
X89957558Y-82330014D01*
X90193777Y-82197441D01*
X90408177Y-82031888D01*
X90596186Y-81836881D01*
X90753799Y-81616579D01*
X90877656Y-81375675D01*
X90965118Y-81119305D01*
X91014319Y-80852933D01*
X91019259Y-80717766D01*
X159315787Y-80717766D01*
X159345413Y-80987015D01*
X159345414Y-80987018D01*
X159413928Y-81249088D01*
X159519870Y-81498390D01*
X159660982Y-81729610D01*
X159834255Y-81937820D01*
X159834256Y-81937821D01*
X159834258Y-81937823D01*
X160035993Y-82118578D01*
X160035995Y-82118579D01*
X160035998Y-82118582D01*
X160261910Y-82268044D01*
X160394104Y-82330014D01*
X160507171Y-82383018D01*
X160507173Y-82383018D01*
X160507176Y-82383020D01*
X160766569Y-82461060D01*
X160766572Y-82461060D01*
X160766574Y-82461061D01*
X161034558Y-82500500D01*
X161034561Y-82500500D01*
X161237630Y-82500500D01*
X161237631Y-82500500D01*
X161440156Y-82485677D01*
X161704553Y-82426780D01*
X161957558Y-82330014D01*
X162193777Y-82197441D01*
X162408177Y-82031888D01*
X162596186Y-81836881D01*
X162753799Y-81616579D01*
X162877656Y-81375675D01*
X162965118Y-81119305D01*
X163014319Y-80852933D01*
X163024212Y-80582235D01*
X162994586Y-80312982D01*
X162926072Y-80050912D01*
X162820130Y-79801610D01*
X162679018Y-79570390D01*
X162505745Y-79362180D01*
X162400759Y-79268112D01*
X162304006Y-79181421D01*
X162304003Y-79181419D01*
X162304002Y-79181418D01*
X162078090Y-79031956D01*
X162078086Y-79031954D01*
X161832828Y-78916981D01*
X161573425Y-78838938D01*
X161305442Y-78799500D01*
X161305439Y-78799500D01*
X161102369Y-78799500D01*
X161068614Y-78801970D01*
X160899839Y-78814323D01*
X160635449Y-78873219D01*
X160382441Y-78969985D01*
X160146225Y-79102557D01*
X159931820Y-79268114D01*
X159743815Y-79463117D01*
X159586200Y-79683422D01*
X159462342Y-79924328D01*
X159374882Y-80180693D01*
X159325681Y-80447065D01*
X159315787Y-80717766D01*
X91019259Y-80717766D01*
X91024212Y-80582235D01*
X90994586Y-80312982D01*
X90926072Y-80050912D01*
X90820130Y-79801610D01*
X90679018Y-79570390D01*
X90505745Y-79362180D01*
X90400759Y-79268112D01*
X90304006Y-79181421D01*
X90304003Y-79181419D01*
X90304002Y-79181418D01*
X90078090Y-79031956D01*
X90078086Y-79031954D01*
X89832828Y-78916981D01*
X89573425Y-78838938D01*
X89305442Y-78799500D01*
X89305439Y-78799500D01*
X89102369Y-78799500D01*
X89068614Y-78801970D01*
X88899839Y-78814323D01*
X88635449Y-78873219D01*
X88382441Y-78969985D01*
X88146225Y-79102557D01*
X87931820Y-79268114D01*
X87743815Y-79463117D01*
X87586200Y-79683422D01*
X87462342Y-79924328D01*
X87374882Y-80180693D01*
X87325681Y-80447065D01*
X87315787Y-80717766D01*
X85424000Y-80717766D01*
X85424000Y-71470000D01*
X86305619Y-71470000D01*
X86325091Y-71667701D01*
X86382758Y-71857802D01*
X86476406Y-72033007D01*
X86602431Y-72186568D01*
X86755992Y-72312593D01*
X86755996Y-72312595D01*
X86931196Y-72406241D01*
X87026247Y-72435074D01*
X87121298Y-72463908D01*
X87269450Y-72478500D01*
X87269453Y-72478500D01*
X88168547Y-72478500D01*
X88168550Y-72478500D01*
X88316701Y-72463908D01*
X88316701Y-72463907D01*
X88506804Y-72406241D01*
X88682004Y-72312595D01*
X88682005Y-72312593D01*
X88682007Y-72312593D01*
X88835568Y-72186568D01*
X88961593Y-72033007D01*
X88973272Y-72011157D01*
X89055241Y-71857804D01*
X89112908Y-71667701D01*
X89132380Y-71470000D01*
X90355619Y-71470000D01*
X90375091Y-71667701D01*
X90432758Y-71857802D01*
X90526406Y-72033007D01*
X90652431Y-72186568D01*
X90805992Y-72312593D01*
X90805996Y-72312595D01*
X90981196Y-72406241D01*
X91076247Y-72435074D01*
X91171298Y-72463908D01*
X91319450Y-72478500D01*
X91319453Y-72478500D01*
X92518547Y-72478500D01*
X92518550Y-72478500D01*
X92666701Y-72463908D01*
X92666701Y-72463907D01*
X92856804Y-72406241D01*
X93032004Y-72312595D01*
X93032005Y-72312593D01*
X93032007Y-72312593D01*
X93185568Y-72186568D01*
X93311593Y-72033007D01*
X93323272Y-72011157D01*
X93405241Y-71857804D01*
X93462908Y-71667701D01*
X93482380Y-71470000D01*
X93465066Y-71294205D01*
X93462908Y-71272298D01*
X93417975Y-71124176D01*
X93405241Y-71082196D01*
X93311595Y-70906996D01*
X93311593Y-70906992D01*
X93185568Y-70753431D01*
X93032007Y-70627406D01*
X92856802Y-70533758D01*
X92666701Y-70476091D01*
X92518550Y-70461500D01*
X92518547Y-70461500D01*
X92035898Y-70461500D01*
X91976502Y-70446622D01*
X91931133Y-70405502D01*
X91910505Y-70347850D01*
X91919489Y-70287282D01*
X91943676Y-70228889D01*
X91959687Y-70190236D01*
X91979466Y-70040000D01*
X91959687Y-69889764D01*
X91901698Y-69749767D01*
X91809451Y-69629549D01*
X91710638Y-69553727D01*
X91689232Y-69537301D01*
X91549235Y-69479312D01*
X91436720Y-69464500D01*
X91361280Y-69464500D01*
X91248764Y-69479312D01*
X91108767Y-69537301D01*
X90988549Y-69629549D01*
X90896301Y-69749767D01*
X90838312Y-69889764D01*
X90818534Y-70039999D01*
X90838312Y-70190235D01*
X90896301Y-70330232D01*
X90896302Y-70330233D01*
X90941336Y-70388922D01*
X90964311Y-70438017D01*
X90964533Y-70492224D01*
X90941960Y-70541508D01*
X90900769Y-70576747D01*
X90805993Y-70627406D01*
X90652431Y-70753431D01*
X90526406Y-70906992D01*
X90432758Y-71082197D01*
X90375091Y-71272298D01*
X90355619Y-71470000D01*
X89132380Y-71470000D01*
X89115066Y-71294205D01*
X89112908Y-71272298D01*
X89067975Y-71124176D01*
X89055241Y-71082196D01*
X88961595Y-70906996D01*
X88961593Y-70906992D01*
X88835568Y-70753431D01*
X88682007Y-70627406D01*
X88506802Y-70533758D01*
X88316701Y-70476091D01*
X88168550Y-70461500D01*
X88168547Y-70461500D01*
X87269453Y-70461500D01*
X87269450Y-70461500D01*
X87121298Y-70476091D01*
X86931197Y-70533758D01*
X86755992Y-70627406D01*
X86602431Y-70753431D01*
X86476406Y-70906992D01*
X86382758Y-71082197D01*
X86325091Y-71272298D01*
X86305619Y-71470000D01*
X85424000Y-71470000D01*
X85424000Y-65398000D01*
X92658383Y-65398000D01*
X92678782Y-65579050D01*
X92738955Y-65751015D01*
X92835888Y-65905283D01*
X92964716Y-66034111D01*
X93118984Y-66131044D01*
X93274073Y-66185312D01*
X93290952Y-66191218D01*
X93471999Y-66211617D01*
X93653046Y-66191218D01*
X93825014Y-66131044D01*
X93979280Y-66034112D01*
X94108110Y-65905282D01*
X94205042Y-65751016D01*
X94265216Y-65579048D01*
X94285615Y-65398001D01*
X94265216Y-65216954D01*
X94205042Y-65044986D01*
X94205040Y-65044983D01*
X94202824Y-65038649D01*
X94198912Y-64968997D01*
X94232656Y-64907941D01*
X95016235Y-64124362D01*
X95028619Y-64113502D01*
X95028788Y-64113372D01*
X95053987Y-64094037D01*
X95067948Y-64075841D01*
X95067952Y-64075838D01*
X95161623Y-63953766D01*
X95163973Y-63955569D01*
X95184128Y-63928671D01*
X95241032Y-63902815D01*
X95303361Y-63907486D01*
X95355775Y-63941535D01*
X95491096Y-64088533D01*
X95668702Y-64226769D01*
X95702207Y-64244902D01*
X95750478Y-64291218D01*
X95768237Y-64355715D01*
X95750478Y-64420212D01*
X95702207Y-64466528D01*
X95668423Y-64484811D01*
X95490762Y-64623091D01*
X95338278Y-64788731D01*
X95215139Y-64977209D01*
X95124702Y-65183388D01*
X95070355Y-65398001D01*
X95069436Y-65401632D01*
X95050844Y-65626000D01*
X95069436Y-65850368D01*
X95069436Y-65850371D01*
X95069437Y-65850372D01*
X95124702Y-66068611D01*
X95215139Y-66274790D01*
X95338278Y-66463268D01*
X95490762Y-66628908D01*
X95566880Y-66688153D01*
X95668424Y-66767189D01*
X95701682Y-66785187D01*
X95749951Y-66831500D01*
X95767711Y-66895997D01*
X95749953Y-66960494D01*
X95701683Y-67006811D01*
X95668423Y-67024810D01*
X95490762Y-67163091D01*
X95338278Y-67328731D01*
X95215139Y-67517209D01*
X95124702Y-67723388D01*
X95073624Y-67925094D01*
X95069436Y-67941632D01*
X95050844Y-68166000D01*
X95069436Y-68390368D01*
X95069436Y-68390371D01*
X95069437Y-68390372D01*
X95124702Y-68608611D01*
X95215139Y-68814790D01*
X95338278Y-69003268D01*
X95481475Y-69158820D01*
X95510712Y-69212424D01*
X95511315Y-69273480D01*
X95483141Y-69327650D01*
X95432808Y-69362213D01*
X95416221Y-69368400D01*
X95317793Y-69405111D01*
X95200737Y-69492739D01*
X95186414Y-69511872D01*
X95129578Y-69554417D01*
X95058763Y-69559480D01*
X94996453Y-69525455D01*
X94588540Y-69117542D01*
X94554794Y-69056485D01*
X94558706Y-68986832D01*
X94613216Y-68831049D01*
X94613217Y-68831047D01*
X94633616Y-68650000D01*
X94613217Y-68468953D01*
X94553043Y-68296985D01*
X94514301Y-68235328D01*
X94456110Y-68142717D01*
X94327282Y-68013889D01*
X94173014Y-67916956D01*
X94001049Y-67856783D01*
X93820000Y-67836384D01*
X93638950Y-67856783D01*
X93466985Y-67916956D01*
X93312717Y-68013889D01*
X93183889Y-68142717D01*
X93086956Y-68296985D01*
X93026783Y-68468950D01*
X93006384Y-68649999D01*
X93026783Y-68831049D01*
X93086955Y-69003011D01*
X93086956Y-69003013D01*
X93086957Y-69003015D01*
X93163879Y-69125435D01*
X93188829Y-69165143D01*
X93207063Y-69215729D01*
X93210422Y-69241245D01*
X93210423Y-69241257D01*
X93222044Y-69329524D01*
X93222044Y-69329526D01*
X93227161Y-69368400D01*
X93288476Y-69516429D01*
X93361521Y-69611623D01*
X93361524Y-69611625D01*
X93386010Y-69643535D01*
X93386011Y-69643536D01*
X93386013Y-69643538D01*
X93405512Y-69658500D01*
X93411379Y-69663002D01*
X93423769Y-69673869D01*
X94072595Y-70322695D01*
X94099909Y-70363572D01*
X94109500Y-70411790D01*
X94109500Y-71283440D01*
X94093778Y-71344389D01*
X94050538Y-71390125D01*
X94016901Y-71411261D01*
X94012714Y-71413892D01*
X93883889Y-71542717D01*
X93786956Y-71696985D01*
X93726783Y-71868950D01*
X93706384Y-72050000D01*
X93726783Y-72231049D01*
X93786956Y-72403014D01*
X93883889Y-72557282D01*
X94012717Y-72686110D01*
X94012719Y-72686111D01*
X94166985Y-72783043D01*
X94338953Y-72843217D01*
X94520000Y-72863616D01*
X94701047Y-72843217D01*
X94873015Y-72783043D01*
X95027281Y-72686111D01*
X95156111Y-72557281D01*
X95253043Y-72403015D01*
X95313217Y-72231047D01*
X95320141Y-72169587D01*
X95343841Y-72109050D01*
X95394570Y-72068383D01*
X95458813Y-72058420D01*
X95515362Y-72064500D01*
X97312638Y-72064500D01*
X97373201Y-72057989D01*
X97510204Y-72006889D01*
X97627261Y-71919261D01*
X97714889Y-71802204D01*
X97765989Y-71665201D01*
X97772500Y-71604638D01*
X97772500Y-70260240D01*
X97782091Y-70212022D01*
X97809404Y-70171145D01*
X97921666Y-70058882D01*
X97960239Y-70020308D01*
X97972624Y-70009448D01*
X97997987Y-69989987D01*
X98011948Y-69971791D01*
X98011952Y-69971788D01*
X98043323Y-69930906D01*
X98095524Y-69862876D01*
X98156838Y-69714851D01*
X98177751Y-69556000D01*
X98173577Y-69524301D01*
X98172500Y-69507856D01*
X98172500Y-68928000D01*
X98860844Y-68928000D01*
X98879436Y-69152368D01*
X98879436Y-69152371D01*
X98879437Y-69152372D01*
X98934702Y-69370611D01*
X99025139Y-69576790D01*
X99068746Y-69643535D01*
X99148278Y-69765268D01*
X99260525Y-69887200D01*
X99300762Y-69930908D01*
X99478421Y-70069187D01*
X99478424Y-70069189D01*
X99676426Y-70176342D01*
X99889365Y-70249444D01*
X100111431Y-70286500D01*
X100336566Y-70286500D01*
X100336569Y-70286500D01*
X100558635Y-70249444D01*
X100771574Y-70176342D01*
X100969576Y-70069189D01*
X101147240Y-69930906D01*
X101299722Y-69765268D01*
X101388518Y-69629354D01*
X101434031Y-69587458D01*
X101494000Y-69572272D01*
X101553969Y-69587458D01*
X101599481Y-69629354D01*
X101688278Y-69765268D01*
X101800525Y-69887200D01*
X101840762Y-69930908D01*
X102018421Y-70069187D01*
X102018424Y-70069189D01*
X102216426Y-70176342D01*
X102429365Y-70249444D01*
X102651431Y-70286500D01*
X102876566Y-70286500D01*
X102876569Y-70286500D01*
X103098635Y-70249444D01*
X103311574Y-70176342D01*
X103509576Y-70069189D01*
X103687240Y-69930906D01*
X103748246Y-69864635D01*
X103801716Y-69830238D01*
X103865177Y-69826327D01*
X103922469Y-69853903D01*
X103959000Y-69905942D01*
X104003109Y-70024203D01*
X104090738Y-70141261D01*
X104207794Y-70228888D01*
X104207795Y-70228888D01*
X104207796Y-70228889D01*
X104344799Y-70279989D01*
X104405362Y-70286500D01*
X106202638Y-70286500D01*
X106263201Y-70279989D01*
X106400204Y-70228889D01*
X106517261Y-70141261D01*
X106604889Y-70024204D01*
X106655989Y-69887201D01*
X106662500Y-69826638D01*
X106662500Y-68029362D01*
X106655989Y-67968799D01*
X106604889Y-67831796D01*
X106604888Y-67831794D01*
X106517261Y-67714738D01*
X106400205Y-67627111D01*
X106331702Y-67601560D01*
X106263201Y-67576011D01*
X106202638Y-67569500D01*
X104405362Y-67569500D01*
X104344799Y-67576011D01*
X104207794Y-67627111D01*
X104090738Y-67714738D01*
X104003109Y-67831796D01*
X103959000Y-67950057D01*
X103922469Y-68002096D01*
X103865178Y-68029672D01*
X103801716Y-68025762D01*
X103748245Y-67991362D01*
X103687240Y-67925094D01*
X103687239Y-67925093D01*
X103687237Y-67925091D01*
X103509578Y-67786812D01*
X103311573Y-67679657D01*
X103158510Y-67627111D01*
X103098635Y-67606556D01*
X102876569Y-67569500D01*
X102651431Y-67569500D01*
X102429365Y-67606556D01*
X102429362Y-67606556D01*
X102429362Y-67606557D01*
X102216426Y-67679657D01*
X102018421Y-67786812D01*
X101840762Y-67925091D01*
X101688278Y-68090731D01*
X101599483Y-68226643D01*
X101553969Y-68268541D01*
X101494000Y-68283727D01*
X101434031Y-68268541D01*
X101388517Y-68226643D01*
X101380486Y-68214350D01*
X101299722Y-68090732D01*
X101147240Y-67925094D01*
X101147239Y-67925093D01*
X101147237Y-67925091D01*
X100969578Y-67786812D01*
X100771573Y-67679657D01*
X100618510Y-67627111D01*
X100558635Y-67606556D01*
X100336569Y-67569500D01*
X100111431Y-67569500D01*
X99889365Y-67606556D01*
X99889362Y-67606556D01*
X99889362Y-67606557D01*
X99676426Y-67679657D01*
X99478421Y-67786812D01*
X99300762Y-67925091D01*
X99148278Y-68090731D01*
X99025139Y-68279209D01*
X98934702Y-68485388D01*
X98886797Y-68674564D01*
X98879436Y-68703632D01*
X98860844Y-68928000D01*
X98172500Y-68928000D01*
X98172500Y-64150000D01*
X104006496Y-64150000D01*
X104014498Y-64226131D01*
X104026458Y-64339929D01*
X104085472Y-64521556D01*
X104180958Y-64686942D01*
X104254097Y-64768171D01*
X104308747Y-64828866D01*
X104463248Y-64941118D01*
X104637712Y-65018794D01*
X104824513Y-65058500D01*
X105015485Y-65058500D01*
X105015487Y-65058500D01*
X105202288Y-65018794D01*
X105376752Y-64941118D01*
X105531253Y-64828866D01*
X105659040Y-64686944D01*
X105754527Y-64521556D01*
X105756406Y-64515770D01*
X105785475Y-64467312D01*
X105832800Y-64436431D01*
X105888863Y-64429340D01*
X105942387Y-64447465D01*
X106058115Y-64518847D01*
X106220760Y-64572743D01*
X106321161Y-64583000D01*
X106366000Y-64583000D01*
X106366000Y-63879000D01*
X106874000Y-63879000D01*
X106874000Y-64583000D01*
X106918839Y-64583000D01*
X107019239Y-64572743D01*
X107181885Y-64518847D01*
X107327726Y-64428891D01*
X107330901Y-64425717D01*
X107387387Y-64393103D01*
X107452613Y-64393103D01*
X107509099Y-64425717D01*
X107512273Y-64428891D01*
X107658114Y-64518847D01*
X107820760Y-64572743D01*
X107921161Y-64583000D01*
X107966000Y-64583000D01*
X107966000Y-63879000D01*
X106874000Y-63879000D01*
X106366000Y-63879000D01*
X106366000Y-63497000D01*
X106382881Y-63434000D01*
X106429000Y-63387881D01*
X106492000Y-63371000D01*
X110827000Y-63371000D01*
X110827000Y-63351161D01*
X110816743Y-63250760D01*
X110762847Y-63088115D01*
X110737903Y-63047674D01*
X110719301Y-62987807D01*
X110731850Y-62926386D01*
X110772446Y-62878615D01*
X110831032Y-62856320D01*
X110952400Y-62842646D01*
X111124368Y-62782472D01*
X111131784Y-62777812D01*
X111198818Y-62758500D01*
X115581075Y-62758500D01*
X115638278Y-62772233D01*
X115683011Y-62810439D01*
X115705524Y-62864789D01*
X115700908Y-62923436D01*
X115670170Y-62973595D01*
X111972780Y-66670982D01*
X111925052Y-66700903D01*
X111869055Y-66707035D01*
X111815983Y-66688153D01*
X111776442Y-66648031D01*
X111772886Y-66642266D01*
X111770067Y-66639447D01*
X111737455Y-66582960D01*
X111737457Y-66517735D01*
X111770070Y-66461254D01*
X111773285Y-66458040D01*
X111863302Y-66312101D01*
X111917236Y-66149336D01*
X111927500Y-66048872D01*
X111927500Y-65501128D01*
X111917236Y-65400664D01*
X111863302Y-65237899D01*
X111773285Y-65091960D01*
X111773283Y-65091958D01*
X111773282Y-65091956D01*
X111652043Y-64970717D01*
X111652040Y-64970715D01*
X111506101Y-64880698D01*
X111343336Y-64826764D01*
X111242872Y-64816500D01*
X110653709Y-64816500D01*
X110594833Y-64801899D01*
X110549603Y-64761478D01*
X110528501Y-64704607D01*
X110513217Y-64568953D01*
X110513041Y-64568452D01*
X110512924Y-64566358D01*
X110511627Y-64554845D01*
X110512273Y-64554772D01*
X110509130Y-64498801D01*
X110542876Y-64437742D01*
X110672890Y-64307728D01*
X110762847Y-64161885D01*
X110816743Y-63999239D01*
X110827000Y-63898839D01*
X110827000Y-63879000D01*
X108474000Y-63879000D01*
X108474000Y-64583000D01*
X108518839Y-64583000D01*
X108619237Y-64572743D01*
X108751382Y-64528954D01*
X108813669Y-64524611D01*
X108870394Y-64550705D01*
X108907626Y-64600828D01*
X108916223Y-64662672D01*
X108914294Y-64679785D01*
X108889055Y-64742368D01*
X108888475Y-64743122D01*
X108844043Y-64850391D01*
X108823199Y-64884291D01*
X108792821Y-64909999D01*
X108779036Y-64918333D01*
X108704841Y-64963186D01*
X108583185Y-65084842D01*
X108494173Y-65232087D01*
X108442986Y-65396351D01*
X108436500Y-65467735D01*
X108436500Y-65982264D01*
X108442986Y-66053648D01*
X108472804Y-66149336D01*
X108494173Y-66217913D01*
X108551112Y-66312101D01*
X108583185Y-66365157D01*
X108678933Y-66460905D01*
X108711545Y-66517389D01*
X108711545Y-66582611D01*
X108678933Y-66639095D01*
X108583185Y-66734842D01*
X108494173Y-66882087D01*
X108442986Y-67046351D01*
X108436500Y-67117735D01*
X108436500Y-67632264D01*
X108442986Y-67703646D01*
X108442987Y-67703649D01*
X108445781Y-67712615D01*
X108447825Y-67780253D01*
X108414581Y-67839194D01*
X108282473Y-67971301D01*
X108185540Y-68125569D01*
X108125367Y-68297534D01*
X108104968Y-68478584D01*
X108125367Y-68659633D01*
X108185540Y-68831598D01*
X108282473Y-68985866D01*
X108411301Y-69114694D01*
X108453963Y-69141500D01*
X108565569Y-69211627D01*
X108737537Y-69271801D01*
X108918584Y-69292200D01*
X109099631Y-69271801D01*
X109271599Y-69211627D01*
X109398378Y-69131965D01*
X109408981Y-69125304D01*
X109475856Y-69105991D01*
X109542781Y-69125133D01*
X109589329Y-69176888D01*
X109601294Y-69245459D01*
X109595500Y-69299362D01*
X109595500Y-71096638D01*
X109602011Y-71157201D01*
X109618312Y-71200906D01*
X109653111Y-71294205D01*
X109740738Y-71411261D01*
X109857794Y-71498888D01*
X109857795Y-71498888D01*
X109857796Y-71498889D01*
X109994799Y-71549989D01*
X110055362Y-71556500D01*
X111852638Y-71556500D01*
X111913201Y-71549989D01*
X112050204Y-71498889D01*
X112167261Y-71411261D01*
X112254889Y-71294204D01*
X112298999Y-71175941D01*
X112335530Y-71123903D01*
X112392821Y-71096327D01*
X112456282Y-71100237D01*
X112509753Y-71134636D01*
X112547780Y-71175943D01*
X112570762Y-71200908D01*
X112748316Y-71339105D01*
X112748424Y-71339189D01*
X112946426Y-71446342D01*
X113159365Y-71519444D01*
X113381431Y-71556500D01*
X113606566Y-71556500D01*
X113606569Y-71556500D01*
X113828635Y-71519444D01*
X114041574Y-71446342D01*
X114239576Y-71339189D01*
X114417240Y-71200906D01*
X114569722Y-71035268D01*
X114658518Y-70899354D01*
X114704031Y-70857458D01*
X114764000Y-70842272D01*
X114823969Y-70857458D01*
X114869481Y-70899354D01*
X114958278Y-71035268D01*
X115070525Y-71157200D01*
X115110762Y-71200908D01*
X115288316Y-71339105D01*
X115288424Y-71339189D01*
X115486426Y-71446342D01*
X115699365Y-71519444D01*
X115921431Y-71556500D01*
X116146566Y-71556500D01*
X116146569Y-71556500D01*
X116368635Y-71519444D01*
X116581574Y-71446342D01*
X116779576Y-71339189D01*
X116957240Y-71200906D01*
X117109722Y-71035268D01*
X117232860Y-70846791D01*
X117323296Y-70640616D01*
X117378564Y-70422368D01*
X117397156Y-70198000D01*
X117378564Y-69973632D01*
X117323296Y-69755384D01*
X117232860Y-69549209D01*
X117109722Y-69360732D01*
X116957240Y-69195094D01*
X116957239Y-69195093D01*
X116957237Y-69195091D01*
X116779578Y-69056812D01*
X116581573Y-68949657D01*
X116417618Y-68893372D01*
X116368635Y-68876556D01*
X116146569Y-68839500D01*
X115921431Y-68839500D01*
X115699365Y-68876556D01*
X115699362Y-68876556D01*
X115699362Y-68876557D01*
X115486426Y-68949657D01*
X115288421Y-69056812D01*
X115110762Y-69195091D01*
X114958278Y-69360731D01*
X114869483Y-69496643D01*
X114823969Y-69538541D01*
X114764000Y-69553727D01*
X114704031Y-69538541D01*
X114658517Y-69496643D01*
X114613131Y-69427174D01*
X114569722Y-69360732D01*
X114417240Y-69195094D01*
X114417239Y-69195093D01*
X114417237Y-69195091D01*
X114239578Y-69056812D01*
X114041573Y-68949657D01*
X113877618Y-68893372D01*
X113828635Y-68876556D01*
X113606569Y-68839500D01*
X113381431Y-68839500D01*
X113159365Y-68876556D01*
X113159362Y-68876556D01*
X113159362Y-68876557D01*
X112946426Y-68949657D01*
X112748421Y-69056812D01*
X112570758Y-69195094D01*
X112509754Y-69261362D01*
X112456282Y-69295762D01*
X112392820Y-69299672D01*
X112335530Y-69272096D01*
X112298998Y-69220056D01*
X112296379Y-69213033D01*
X112254889Y-69101796D01*
X112253124Y-69099438D01*
X112167261Y-68984738D01*
X112050205Y-68897111D01*
X111981702Y-68871561D01*
X111913201Y-68846011D01*
X111852638Y-68839500D01*
X111829553Y-68839500D01*
X111772350Y-68825767D01*
X111727617Y-68787561D01*
X111705104Y-68733211D01*
X111709720Y-68674564D01*
X111740455Y-68624407D01*
X113170642Y-67194219D01*
X113227123Y-67161610D01*
X113292345Y-67161610D01*
X113348829Y-67194222D01*
X113432717Y-67278110D01*
X113586985Y-67375043D01*
X113758953Y-67435217D01*
X113940000Y-67455616D01*
X114121047Y-67435217D01*
X114293015Y-67375043D01*
X114447281Y-67278111D01*
X114576111Y-67149281D01*
X114673043Y-66995015D01*
X114733217Y-66823047D01*
X114753616Y-66642000D01*
X114733217Y-66460953D01*
X114691030Y-66340391D01*
X114687119Y-66270739D01*
X114720863Y-66209684D01*
X114732730Y-66197817D01*
X114789212Y-66165207D01*
X114854434Y-66165207D01*
X114892695Y-66187298D01*
X114893944Y-66185312D01*
X115036349Y-66274791D01*
X115060231Y-66289797D01*
X115232199Y-66349971D01*
X115413246Y-66370370D01*
X115431632Y-66368298D01*
X115465435Y-66369055D01*
X115467285Y-66369347D01*
X115472011Y-66370096D01*
X115483617Y-66372498D01*
X115526462Y-66383500D01*
X115546716Y-66383500D01*
X115566426Y-66385051D01*
X115586434Y-66388220D01*
X115586434Y-66388219D01*
X115586435Y-66388220D01*
X115630453Y-66384058D01*
X115642311Y-66383500D01*
X130831573Y-66383500D01*
X130879791Y-66393091D01*
X130920668Y-66420405D01*
X140863918Y-76363655D01*
X140877002Y-76379985D01*
X140928833Y-76428657D01*
X140931676Y-76431413D01*
X140951397Y-76451134D01*
X140954585Y-76453607D01*
X140963611Y-76461316D01*
X140983022Y-76479543D01*
X140995846Y-76491586D01*
X141013599Y-76501346D01*
X141030122Y-76512200D01*
X141046124Y-76524612D01*
X141046127Y-76524614D01*
X141086706Y-76542174D01*
X141097355Y-76547391D01*
X141136102Y-76568693D01*
X141136104Y-76568693D01*
X141136107Y-76568695D01*
X141155741Y-76573736D01*
X141174426Y-76580134D01*
X141193022Y-76588181D01*
X141236697Y-76595098D01*
X141248292Y-76597498D01*
X141291137Y-76608500D01*
X141311391Y-76608500D01*
X141331101Y-76610051D01*
X141351109Y-76613220D01*
X141351109Y-76613219D01*
X141351110Y-76613220D01*
X141395128Y-76609058D01*
X141406986Y-76608500D01*
X145511147Y-76608500D01*
X145531935Y-76610795D01*
X145534907Y-76610701D01*
X145534909Y-76610702D01*
X145602985Y-76608562D01*
X145606945Y-76608500D01*
X145634852Y-76608500D01*
X145634856Y-76608500D01*
X145638865Y-76607993D01*
X145650699Y-76607061D01*
X145694889Y-76605673D01*
X145714338Y-76600021D01*
X145733698Y-76596012D01*
X145753797Y-76593474D01*
X145794915Y-76577193D01*
X145806117Y-76573357D01*
X145848593Y-76561018D01*
X145866039Y-76550699D01*
X145883780Y-76542009D01*
X145902617Y-76534552D01*
X145938392Y-76508558D01*
X145948303Y-76502048D01*
X145986362Y-76479542D01*
X146000691Y-76465212D01*
X146015719Y-76452377D01*
X146032107Y-76440472D01*
X146060303Y-76406386D01*
X146068272Y-76397630D01*
X146341541Y-76124361D01*
X146396433Y-76092189D01*
X146460045Y-76090939D01*
X146624937Y-76130526D01*
X146683288Y-76144535D01*
X146701918Y-76146001D01*
X146920000Y-76163165D01*
X147156711Y-76144535D01*
X147387594Y-76089105D01*
X147606963Y-75998240D01*
X147809416Y-75874176D01*
X147989969Y-75719969D01*
X148064161Y-75633102D01*
X155796107Y-75633102D01*
X155983261Y-75747791D01*
X156202559Y-75838627D01*
X156433366Y-75894039D01*
X156670000Y-75912662D01*
X156906633Y-75894039D01*
X157137440Y-75838627D01*
X157356738Y-75747791D01*
X157543891Y-75633102D01*
X162296107Y-75633102D01*
X162483261Y-75747791D01*
X162702559Y-75838627D01*
X162933366Y-75894039D01*
X163170000Y-75912662D01*
X163406633Y-75894039D01*
X163637440Y-75838627D01*
X163856738Y-75747791D01*
X164043891Y-75633102D01*
X164043892Y-75633101D01*
X163170001Y-74759210D01*
X163170000Y-74759210D01*
X162296107Y-75633101D01*
X162296107Y-75633102D01*
X157543891Y-75633102D01*
X157543892Y-75633101D01*
X156670001Y-74759210D01*
X156670000Y-74759210D01*
X155796107Y-75633101D01*
X155796107Y-75633102D01*
X148064161Y-75633102D01*
X148144176Y-75539416D01*
X148268240Y-75336963D01*
X148359105Y-75117594D01*
X148414535Y-74886711D01*
X148433165Y-74650000D01*
X148414535Y-74413289D01*
X148411344Y-74399999D01*
X155157337Y-74399999D01*
X155175960Y-74636633D01*
X155231372Y-74867440D01*
X155322208Y-75086738D01*
X155436896Y-75273891D01*
X155436897Y-75273891D01*
X156310789Y-74400001D01*
X157029210Y-74400001D01*
X157903101Y-75273892D01*
X157903102Y-75273891D01*
X158017791Y-75086738D01*
X158108627Y-74867440D01*
X158164039Y-74636633D01*
X158182662Y-74399999D01*
X161657337Y-74399999D01*
X161675960Y-74636633D01*
X161731372Y-74867440D01*
X161822208Y-75086738D01*
X161936896Y-75273891D01*
X161936897Y-75273891D01*
X162810790Y-74400000D01*
X162810790Y-74399999D01*
X161936898Y-73526107D01*
X161936896Y-73526107D01*
X161822207Y-73713264D01*
X161731372Y-73932559D01*
X161675960Y-74163366D01*
X161657337Y-74399999D01*
X158182662Y-74399999D01*
X158164039Y-74163366D01*
X158108627Y-73932559D01*
X158017791Y-73713261D01*
X157903102Y-73526107D01*
X157903101Y-73526107D01*
X157029210Y-74400000D01*
X157029210Y-74400001D01*
X156310789Y-74400001D01*
X156310790Y-74400000D01*
X156310790Y-74399999D01*
X155436898Y-73526107D01*
X155436896Y-73526107D01*
X155322207Y-73713264D01*
X155231372Y-73932559D01*
X155175960Y-74163366D01*
X155157337Y-74399999D01*
X148411344Y-74399999D01*
X148391217Y-74316162D01*
X148359105Y-74182406D01*
X148268240Y-73963037D01*
X148144176Y-73760584D01*
X148103761Y-73713264D01*
X147989969Y-73580030D01*
X147809415Y-73425823D01*
X147606966Y-73301761D01*
X147387594Y-73210895D01*
X147204336Y-73166898D01*
X155796107Y-73166898D01*
X156669999Y-74040790D01*
X156670000Y-74040790D01*
X157543890Y-73166898D01*
X162296107Y-73166898D01*
X163169999Y-74040790D01*
X163170000Y-74040790D01*
X164043891Y-73166897D01*
X164043891Y-73166896D01*
X163856738Y-73052208D01*
X163637440Y-72961372D01*
X163406633Y-72905960D01*
X163169999Y-72887337D01*
X162933366Y-72905960D01*
X162702559Y-72961372D01*
X162483264Y-73052207D01*
X162296107Y-73166896D01*
X162296107Y-73166898D01*
X157543890Y-73166898D01*
X157543891Y-73166897D01*
X157543891Y-73166896D01*
X157356738Y-73052208D01*
X157137440Y-72961372D01*
X156906633Y-72905960D01*
X156669999Y-72887337D01*
X156433366Y-72905960D01*
X156202559Y-72961372D01*
X155983264Y-73052207D01*
X155796107Y-73166896D01*
X155796107Y-73166898D01*
X147204336Y-73166898D01*
X147156711Y-73155464D01*
X146920000Y-73136835D01*
X146683288Y-73155464D01*
X146452405Y-73210895D01*
X146233033Y-73301761D01*
X146030584Y-73425823D01*
X145850033Y-73580028D01*
X145723599Y-73728062D01*
X145673712Y-73763564D01*
X145664456Y-73764751D01*
X144509094Y-74920114D01*
X144452610Y-74952726D01*
X144387388Y-74952726D01*
X144330904Y-74920114D01*
X143175542Y-73764752D01*
X143166286Y-73763564D01*
X143116399Y-73728061D01*
X142989969Y-73580030D01*
X142809415Y-73425823D01*
X142794851Y-73416898D01*
X143546107Y-73416898D01*
X144419999Y-74290790D01*
X144420000Y-74290790D01*
X145293891Y-73416897D01*
X145293891Y-73416896D01*
X145106738Y-73302208D01*
X144887440Y-73211372D01*
X144656633Y-73155960D01*
X144419999Y-73137337D01*
X144183366Y-73155960D01*
X143952559Y-73211372D01*
X143733264Y-73302207D01*
X143546107Y-73416896D01*
X143546107Y-73416898D01*
X142794851Y-73416898D01*
X142606966Y-73301761D01*
X142387594Y-73210895D01*
X142156711Y-73155464D01*
X141920000Y-73136835D01*
X141683288Y-73155464D01*
X141452405Y-73210895D01*
X141233033Y-73301761D01*
X141030584Y-73425823D01*
X140850033Y-73580028D01*
X140781227Y-73660590D01*
X140724352Y-73698592D01*
X140656002Y-73701278D01*
X140596321Y-73667854D01*
X134894268Y-67965800D01*
X137581500Y-67965800D01*
X137583416Y-67991362D01*
X137596265Y-68162827D01*
X137654913Y-68419781D01*
X137721796Y-68590194D01*
X137751204Y-68665124D01*
X137882985Y-68893376D01*
X138047314Y-69099438D01*
X138240519Y-69278706D01*
X138240521Y-69278707D01*
X138240523Y-69278709D01*
X138315055Y-69329524D01*
X138458284Y-69427176D01*
X138535788Y-69464500D01*
X138695745Y-69541532D01*
X138751913Y-69558857D01*
X138947600Y-69619218D01*
X139208219Y-69658500D01*
X139471779Y-69658500D01*
X139471781Y-69658500D01*
X139732400Y-69619218D01*
X139984254Y-69541532D01*
X140221715Y-69427176D01*
X140439481Y-69278706D01*
X140632686Y-69099438D01*
X140797015Y-68893376D01*
X140928796Y-68665124D01*
X141025087Y-68419780D01*
X141083735Y-68162826D01*
X141098500Y-67965800D01*
X147741500Y-67965800D01*
X147743416Y-67991362D01*
X147756265Y-68162827D01*
X147814913Y-68419781D01*
X147881796Y-68590194D01*
X147911204Y-68665124D01*
X148042985Y-68893376D01*
X148207314Y-69099438D01*
X148400519Y-69278706D01*
X148400521Y-69278707D01*
X148400523Y-69278709D01*
X148475055Y-69329524D01*
X148618284Y-69427176D01*
X148695788Y-69464500D01*
X148855745Y-69541532D01*
X148911913Y-69558857D01*
X149107600Y-69619218D01*
X149368219Y-69658500D01*
X149631779Y-69658500D01*
X149631781Y-69658500D01*
X149892400Y-69619218D01*
X150144254Y-69541532D01*
X150381715Y-69427176D01*
X150599481Y-69278706D01*
X150792686Y-69099438D01*
X150957015Y-68893376D01*
X151088796Y-68665124D01*
X151185087Y-68419780D01*
X151243735Y-68162826D01*
X151258500Y-67965800D01*
X151258500Y-66334200D01*
X151243735Y-66137174D01*
X151185087Y-65880220D01*
X151088796Y-65634876D01*
X150957015Y-65406624D01*
X150792686Y-65200562D01*
X150599481Y-65021294D01*
X150599477Y-65021291D01*
X150599476Y-65021290D01*
X150381716Y-64872824D01*
X150144254Y-64758467D01*
X149956146Y-64700445D01*
X149892400Y-64680782D01*
X149631781Y-64641500D01*
X149368219Y-64641500D01*
X149107600Y-64680782D01*
X149107596Y-64680783D01*
X149107597Y-64680783D01*
X148855748Y-64758467D01*
X148618282Y-64872825D01*
X148400522Y-65021291D01*
X148332027Y-65084845D01*
X148225828Y-65183384D01*
X148207313Y-65200563D01*
X148177539Y-65237899D01*
X148049863Y-65398000D01*
X148042983Y-65406627D01*
X147911204Y-65634875D01*
X147814913Y-65880218D01*
X147756265Y-66137172D01*
X147754164Y-66165207D01*
X147741500Y-66334200D01*
X147741500Y-67965800D01*
X141098500Y-67965800D01*
X141098500Y-66334200D01*
X141083735Y-66137174D01*
X141025087Y-65880220D01*
X140928796Y-65634876D01*
X140797015Y-65406624D01*
X140632686Y-65200562D01*
X140439481Y-65021294D01*
X140439477Y-65021291D01*
X140439476Y-65021290D01*
X140221716Y-64872824D01*
X139984254Y-64758467D01*
X139796146Y-64700445D01*
X139732400Y-64680782D01*
X139471781Y-64641500D01*
X139208219Y-64641500D01*
X138947600Y-64680782D01*
X138947596Y-64680783D01*
X138947597Y-64680783D01*
X138695748Y-64758467D01*
X138458282Y-64872825D01*
X138240522Y-65021291D01*
X138172027Y-65084845D01*
X138065828Y-65183384D01*
X138047313Y-65200563D01*
X138017539Y-65237899D01*
X137889863Y-65398000D01*
X137882983Y-65406627D01*
X137751204Y-65634875D01*
X137654913Y-65880218D01*
X137596265Y-66137172D01*
X137594164Y-66165207D01*
X137581500Y-66334200D01*
X137581500Y-67965800D01*
X134894268Y-67965800D01*
X132014306Y-65085838D01*
X131982779Y-65033162D01*
X131979886Y-64971840D01*
X132006314Y-64916430D01*
X132007105Y-64915472D01*
X132007107Y-64915472D01*
X132035303Y-64881386D01*
X132043272Y-64872630D01*
X136095498Y-60820405D01*
X136136376Y-60793091D01*
X136184594Y-60783500D01*
X140468434Y-60783500D01*
X140530000Y-60799565D01*
X140575866Y-60843665D01*
X140695823Y-61039415D01*
X140850030Y-61219969D01*
X141030584Y-61374176D01*
X141233033Y-61498238D01*
X141233035Y-61498238D01*
X141233037Y-61498240D01*
X141452406Y-61589105D01*
X141627857Y-61631227D01*
X141683288Y-61644535D01*
X141700558Y-61645894D01*
X141920000Y-61663165D01*
X142156711Y-61644535D01*
X142387594Y-61589105D01*
X142606963Y-61498240D01*
X142794850Y-61383102D01*
X146046107Y-61383102D01*
X146233261Y-61497791D01*
X146452559Y-61588627D01*
X146683366Y-61644039D01*
X146920000Y-61662662D01*
X147156633Y-61644039D01*
X147387440Y-61588627D01*
X147606738Y-61497791D01*
X147793891Y-61383102D01*
X147793892Y-61383101D01*
X146920001Y-60509210D01*
X146920000Y-60509210D01*
X146046107Y-61383101D01*
X146046107Y-61383102D01*
X142794850Y-61383102D01*
X142809416Y-61374176D01*
X142989969Y-61219969D01*
X143144176Y-61039416D01*
X143268240Y-60836963D01*
X143359105Y-60617594D01*
X143414535Y-60386711D01*
X143433165Y-60150000D01*
X145407337Y-60150000D01*
X145425960Y-60386633D01*
X145481372Y-60617440D01*
X145572208Y-60836738D01*
X145686896Y-61023891D01*
X145686897Y-61023891D01*
X146560789Y-60150001D01*
X147279210Y-60150001D01*
X148153101Y-61023892D01*
X148153102Y-61023891D01*
X148267791Y-60836738D01*
X148324844Y-60699000D01*
X149238455Y-60699000D01*
X149286177Y-60887451D01*
X149376580Y-61093548D01*
X149499678Y-61281962D01*
X149652096Y-61447533D01*
X149829697Y-61585766D01*
X150027631Y-61692883D01*
X150240485Y-61765955D01*
X150321000Y-61779391D01*
X150829000Y-61779391D01*
X150909514Y-61765955D01*
X151122368Y-61692883D01*
X151320302Y-61585766D01*
X151497899Y-61447536D01*
X151559047Y-61381112D01*
X151612519Y-61346712D01*
X151675981Y-61342801D01*
X151733273Y-61370377D01*
X151769805Y-61422416D01*
X151814111Y-61541206D01*
X151901738Y-61658261D01*
X152018794Y-61745888D01*
X152018795Y-61745888D01*
X152018796Y-61745889D01*
X152155799Y-61796989D01*
X152216362Y-61803500D01*
X153525406Y-61803500D01*
X153573624Y-61813091D01*
X153614500Y-61840404D01*
X154776862Y-63002767D01*
X155912754Y-64138659D01*
X155925833Y-64154983D01*
X155977649Y-64203641D01*
X155980460Y-64206365D01*
X156000230Y-64226135D01*
X156003443Y-64228627D01*
X156012433Y-64236306D01*
X156044679Y-64266586D01*
X156062426Y-64276342D01*
X156078950Y-64287196D01*
X156094959Y-64299614D01*
X156135542Y-64317175D01*
X156146198Y-64322396D01*
X156178263Y-64340024D01*
X156212904Y-64368062D01*
X156235617Y-64406404D01*
X156244004Y-64428891D01*
X156269111Y-64496205D01*
X156356738Y-64613261D01*
X156473794Y-64700888D01*
X156473795Y-64700888D01*
X156473796Y-64700889D01*
X156610799Y-64751989D01*
X156671362Y-64758500D01*
X158268638Y-64758500D01*
X158329201Y-64751989D01*
X158466204Y-64700889D01*
X158583261Y-64613261D01*
X158670889Y-64496204D01*
X158721989Y-64359201D01*
X158728500Y-64298638D01*
X158728500Y-64004000D01*
X161112000Y-64004000D01*
X161112000Y-64298589D01*
X161118505Y-64359093D01*
X161169554Y-64495962D01*
X161257095Y-64612904D01*
X161374037Y-64700445D01*
X161510906Y-64751494D01*
X161571411Y-64758000D01*
X162116000Y-64758000D01*
X162116000Y-64004000D01*
X162624000Y-64004000D01*
X162624000Y-64758000D01*
X163168589Y-64758000D01*
X163229093Y-64751494D01*
X163365962Y-64700445D01*
X163482904Y-64612904D01*
X163570445Y-64495962D01*
X163621494Y-64359093D01*
X163628000Y-64298589D01*
X163628000Y-64004000D01*
X162624000Y-64004000D01*
X162116000Y-64004000D01*
X161112000Y-64004000D01*
X158728500Y-64004000D01*
X158728500Y-63496000D01*
X161112000Y-63496000D01*
X162116000Y-63496000D01*
X162116000Y-62742000D01*
X162624000Y-62742000D01*
X162624000Y-63496000D01*
X163628000Y-63496000D01*
X163628000Y-63201411D01*
X163621494Y-63140906D01*
X163570445Y-63004037D01*
X163482904Y-62887095D01*
X163365962Y-62799554D01*
X163229093Y-62748505D01*
X163168589Y-62742000D01*
X162624000Y-62742000D01*
X162116000Y-62742000D01*
X161571411Y-62742000D01*
X161510906Y-62748505D01*
X161374037Y-62799554D01*
X161257095Y-62887095D01*
X161169554Y-63004037D01*
X161118505Y-63140906D01*
X161112000Y-63201411D01*
X161112000Y-63496000D01*
X158728500Y-63496000D01*
X158728500Y-63201362D01*
X158721989Y-63140799D01*
X158670889Y-63003796D01*
X158658920Y-62987807D01*
X158583261Y-62886738D01*
X158466205Y-62799111D01*
X158383651Y-62768320D01*
X158331677Y-62731866D01*
X158304075Y-62674698D01*
X158307850Y-62611328D01*
X158322466Y-62566345D01*
X158363542Y-62439928D01*
X158383504Y-62250000D01*
X158363542Y-62060072D01*
X158304527Y-61878444D01*
X158280075Y-61836092D01*
X158245381Y-61776000D01*
X158228500Y-61713000D01*
X158228500Y-61675995D01*
X158243201Y-61616931D01*
X158283873Y-61571650D01*
X158315344Y-61560123D01*
X158314373Y-61557519D01*
X158329198Y-61551989D01*
X158329201Y-61551989D01*
X158466204Y-61500889D01*
X158583261Y-61413261D01*
X158670889Y-61296204D01*
X158721989Y-61159201D01*
X158728500Y-61098638D01*
X158728500Y-60258595D01*
X158742233Y-60201392D01*
X158780439Y-60156659D01*
X158834789Y-60134146D01*
X158893436Y-60138762D01*
X158943595Y-60169500D01*
X159712754Y-60938659D01*
X159725833Y-60954983D01*
X159777649Y-61003641D01*
X159780460Y-61006365D01*
X159800230Y-61026135D01*
X159803443Y-61028627D01*
X159812433Y-61036306D01*
X159844679Y-61066586D01*
X159862426Y-61076342D01*
X159878950Y-61087196D01*
X159894959Y-61099614D01*
X159935542Y-61117175D01*
X159946193Y-61122393D01*
X159984940Y-61143695D01*
X160004560Y-61148732D01*
X160023267Y-61155137D01*
X160029880Y-61157998D01*
X160041854Y-61163181D01*
X160052505Y-61164867D01*
X160085530Y-61170098D01*
X160097125Y-61172498D01*
X160139970Y-61183500D01*
X160160224Y-61183500D01*
X160179934Y-61185051D01*
X160199942Y-61188220D01*
X160199942Y-61188219D01*
X160199943Y-61188220D01*
X160243961Y-61184058D01*
X160255819Y-61183500D01*
X161039591Y-61183500D01*
X161089191Y-61193673D01*
X161130782Y-61222550D01*
X161157647Y-61265468D01*
X161169111Y-61296205D01*
X161256738Y-61413261D01*
X161373794Y-61500888D01*
X161373795Y-61500888D01*
X161373796Y-61500889D01*
X161510799Y-61551989D01*
X161571362Y-61558500D01*
X163168638Y-61558500D01*
X163229201Y-61551989D01*
X163366204Y-61500889D01*
X163483261Y-61413261D01*
X163570889Y-61296204D01*
X163621989Y-61159201D01*
X163628500Y-61098638D01*
X163628500Y-60001362D01*
X163621989Y-59940799D01*
X163570889Y-59803796D01*
X163570888Y-59803794D01*
X163483261Y-59686738D01*
X163366205Y-59599111D01*
X163285340Y-59568950D01*
X163229201Y-59548011D01*
X163168638Y-59541500D01*
X161571362Y-59541500D01*
X161510799Y-59548011D01*
X161373794Y-59599111D01*
X161256738Y-59686738D01*
X161169111Y-59803794D01*
X161157647Y-59834532D01*
X161130782Y-59877450D01*
X161089191Y-59906327D01*
X161039591Y-59916500D01*
X160534594Y-59916500D01*
X160486376Y-59906909D01*
X160445499Y-59879595D01*
X156283671Y-55717766D01*
X159315787Y-55717766D01*
X159345413Y-55987015D01*
X159366834Y-56068950D01*
X159413928Y-56249088D01*
X159488788Y-56425248D01*
X159502349Y-56457161D01*
X159519870Y-56498390D01*
X159660982Y-56729610D01*
X159834255Y-56937820D01*
X159834256Y-56937821D01*
X159834258Y-56937823D01*
X160035993Y-57118578D01*
X160035995Y-57118579D01*
X160035998Y-57118582D01*
X160261910Y-57268044D01*
X160318346Y-57294500D01*
X160507171Y-57383018D01*
X160507173Y-57383018D01*
X160507176Y-57383020D01*
X160766569Y-57461060D01*
X160766572Y-57461060D01*
X160766574Y-57461061D01*
X161034558Y-57500500D01*
X161034561Y-57500500D01*
X161237630Y-57500500D01*
X161237631Y-57500500D01*
X161440156Y-57485677D01*
X161704553Y-57426780D01*
X161957558Y-57330014D01*
X162193777Y-57197441D01*
X162408177Y-57031888D01*
X162596186Y-56836881D01*
X162753799Y-56616579D01*
X162877656Y-56375675D01*
X162965118Y-56119305D01*
X163014319Y-55852933D01*
X163024212Y-55582235D01*
X163022910Y-55570405D01*
X162994586Y-55312984D01*
X162994586Y-55312982D01*
X162926072Y-55050912D01*
X162820130Y-54801610D01*
X162679018Y-54570390D01*
X162505745Y-54362180D01*
X162505741Y-54362176D01*
X162304006Y-54181421D01*
X162304003Y-54181419D01*
X162304002Y-54181418D01*
X162078090Y-54031956D01*
X162059250Y-54023124D01*
X161832828Y-53916981D01*
X161573425Y-53838938D01*
X161305442Y-53799500D01*
X161305439Y-53799500D01*
X161102369Y-53799500D01*
X161068614Y-53801970D01*
X160899839Y-53814323D01*
X160635449Y-53873219D01*
X160382441Y-53969985D01*
X160146225Y-54102557D01*
X159931820Y-54268114D01*
X159743815Y-54463117D01*
X159586200Y-54683422D01*
X159462342Y-54924328D01*
X159374882Y-55180693D01*
X159325681Y-55447065D01*
X159315787Y-55717766D01*
X156283671Y-55717766D01*
X153131930Y-52566025D01*
X153107503Y-52531599D01*
X153095818Y-52491040D01*
X153085217Y-52396953D01*
X153025043Y-52224985D01*
X152928111Y-52070719D01*
X152928110Y-52070717D01*
X152799282Y-51941889D01*
X152645014Y-51844956D01*
X152473049Y-51784783D01*
X152352349Y-51771183D01*
X152292000Y-51764384D01*
X152291999Y-51764384D01*
X152110950Y-51784783D01*
X151938985Y-51844956D01*
X151784717Y-51941889D01*
X151655889Y-52070717D01*
X151558956Y-52224985D01*
X151498783Y-52396950D01*
X151478384Y-52577999D01*
X151498783Y-52759049D01*
X151558956Y-52931014D01*
X151655889Y-53085282D01*
X151784717Y-53214110D01*
X151938985Y-53311043D01*
X152124353Y-53375906D01*
X152124332Y-53375964D01*
X152146425Y-53382329D01*
X152180851Y-53406756D01*
X154564130Y-55790035D01*
X154593964Y-55837515D01*
X154600243Y-55893237D01*
X154581723Y-55946165D01*
X154486956Y-56096986D01*
X154426783Y-56268950D01*
X154406384Y-56450000D01*
X154426783Y-56631049D01*
X154486956Y-56803014D01*
X154567187Y-56930700D01*
X154586500Y-56997736D01*
X154586500Y-58308147D01*
X154584204Y-58328935D01*
X154586438Y-58399986D01*
X154586500Y-58403945D01*
X154586500Y-58431857D01*
X154587007Y-58435873D01*
X154587937Y-58447696D01*
X154589326Y-58491892D01*
X154594977Y-58511341D01*
X154598986Y-58530696D01*
X154601525Y-58550794D01*
X154617801Y-58591903D01*
X154621644Y-58603130D01*
X154633980Y-58645590D01*
X154644294Y-58663030D01*
X154652987Y-58680774D01*
X154660448Y-58699617D01*
X154660449Y-58699619D01*
X154686431Y-58735380D01*
X154692948Y-58745301D01*
X154715458Y-58783363D01*
X154729778Y-58797683D01*
X154742618Y-58812716D01*
X154754526Y-58829105D01*
X154788598Y-58857292D01*
X154797378Y-58865282D01*
X156174595Y-60242500D01*
X156201909Y-60283377D01*
X156211500Y-60331595D01*
X156211500Y-61098638D01*
X156218011Y-61159201D01*
X156222075Y-61170096D01*
X156269111Y-61296205D01*
X156356738Y-61413261D01*
X156473794Y-61500888D01*
X156473795Y-61500888D01*
X156473796Y-61500889D01*
X156610799Y-61551989D01*
X156610801Y-61551989D01*
X156625627Y-61557519D01*
X156624655Y-61560123D01*
X156656127Y-61571650D01*
X156696799Y-61616931D01*
X156711500Y-61675995D01*
X156711500Y-61713000D01*
X156694619Y-61776000D01*
X156635472Y-61878444D01*
X156576458Y-62060070D01*
X156556496Y-62249999D01*
X156576458Y-62439930D01*
X156632149Y-62611328D01*
X156635924Y-62674699D01*
X156608321Y-62731866D01*
X156556348Y-62768320D01*
X156470434Y-62800364D01*
X156399619Y-62805428D01*
X156337307Y-62771403D01*
X155426377Y-61860473D01*
X154510405Y-60944500D01*
X154483091Y-60903623D01*
X154473500Y-60855405D01*
X154473500Y-59546362D01*
X154473499Y-59546361D01*
X154466989Y-59485799D01*
X154415889Y-59348796D01*
X154415888Y-59348794D01*
X154328261Y-59231738D01*
X154211205Y-59144111D01*
X154142702Y-59118561D01*
X154074201Y-59093011D01*
X154013638Y-59086500D01*
X152216362Y-59086500D01*
X152155799Y-59093011D01*
X152018794Y-59144111D01*
X151901738Y-59231738D01*
X151814109Y-59348796D01*
X151769804Y-59467583D01*
X151733273Y-59519622D01*
X151675982Y-59547198D01*
X151612520Y-59543288D01*
X151559048Y-59508887D01*
X151497903Y-59442466D01*
X151320302Y-59304233D01*
X151122368Y-59197116D01*
X150909514Y-59124044D01*
X150829000Y-59110609D01*
X150829000Y-61779391D01*
X150321000Y-61779391D01*
X150321000Y-60699000D01*
X149238455Y-60699000D01*
X148324844Y-60699000D01*
X148358627Y-60617440D01*
X148414039Y-60386633D01*
X148429435Y-60190999D01*
X149238455Y-60190999D01*
X149238456Y-60191000D01*
X150321000Y-60191000D01*
X150321000Y-59110609D01*
X150240485Y-59124044D01*
X150027631Y-59197116D01*
X149829697Y-59304233D01*
X149652096Y-59442466D01*
X149499678Y-59608037D01*
X149376580Y-59796451D01*
X149286177Y-60002548D01*
X149238455Y-60190999D01*
X148429435Y-60190999D01*
X148432662Y-60150000D01*
X148414039Y-59913366D01*
X148358627Y-59682559D01*
X148267791Y-59463261D01*
X148153102Y-59276107D01*
X148153101Y-59276107D01*
X147279210Y-60150000D01*
X147279210Y-60150001D01*
X146560789Y-60150001D01*
X146560790Y-60150000D01*
X146560790Y-60149999D01*
X145686898Y-59276107D01*
X145686896Y-59276107D01*
X145572207Y-59463264D01*
X145481372Y-59682559D01*
X145425960Y-59913366D01*
X145407337Y-60150000D01*
X143433165Y-60150000D01*
X143414535Y-59913289D01*
X143413003Y-59906909D01*
X143391408Y-59816957D01*
X143359105Y-59682406D01*
X143268240Y-59463037D01*
X143251188Y-59435211D01*
X143144176Y-59260584D01*
X142989969Y-59080030D01*
X142809415Y-58925823D01*
X142794851Y-58916898D01*
X146046107Y-58916898D01*
X146919999Y-59790790D01*
X146920000Y-59790790D01*
X147793891Y-58916897D01*
X147793891Y-58916896D01*
X147606738Y-58802208D01*
X147387440Y-58711372D01*
X147156633Y-58655960D01*
X146920000Y-58637337D01*
X146683366Y-58655960D01*
X146452559Y-58711372D01*
X146233264Y-58802207D01*
X146046107Y-58916896D01*
X146046107Y-58916898D01*
X142794851Y-58916898D01*
X142606966Y-58801761D01*
X142387594Y-58710895D01*
X142156711Y-58655464D01*
X141920000Y-58636835D01*
X141683288Y-58655464D01*
X141452405Y-58710895D01*
X141233033Y-58801761D01*
X141030584Y-58925823D01*
X140850030Y-59080030D01*
X140695823Y-59260584D01*
X140575866Y-59456335D01*
X140530000Y-59500435D01*
X140468434Y-59516500D01*
X137067198Y-59516500D01*
X137009995Y-59502767D01*
X136965262Y-59464561D01*
X136942749Y-59410211D01*
X136947365Y-59351564D01*
X136978103Y-59301405D01*
X140709103Y-55570405D01*
X140749980Y-55543091D01*
X140798198Y-55533500D01*
X149972264Y-55533500D01*
X150039300Y-55552813D01*
X150166985Y-55633043D01*
X150338953Y-55693217D01*
X150520000Y-55713616D01*
X150701047Y-55693217D01*
X150873015Y-55633043D01*
X151027281Y-55536111D01*
X151156111Y-55407281D01*
X151253043Y-55253015D01*
X151313217Y-55081047D01*
X151333616Y-54900000D01*
X151313217Y-54718953D01*
X151312861Y-54717937D01*
X151253043Y-54546985D01*
X151156110Y-54392717D01*
X151027282Y-54263889D01*
X150873014Y-54166956D01*
X150701049Y-54106783D01*
X150580349Y-54093183D01*
X150520000Y-54086384D01*
X150519999Y-54086384D01*
X150338950Y-54106783D01*
X150166985Y-54166956D01*
X150039300Y-54247187D01*
X149972264Y-54266500D01*
X140567458Y-54266500D01*
X140546668Y-54264204D01*
X140475606Y-54266438D01*
X140471648Y-54266500D01*
X140443746Y-54266500D01*
X140439738Y-54267006D01*
X140427917Y-54267936D01*
X140383713Y-54269325D01*
X140364257Y-54274978D01*
X140344905Y-54278986D01*
X140324804Y-54281526D01*
X140283698Y-54297800D01*
X140272474Y-54301643D01*
X140230009Y-54313981D01*
X140212564Y-54324297D01*
X140194821Y-54332989D01*
X140175988Y-54340446D01*
X140140220Y-54366433D01*
X140130301Y-54372949D01*
X140092240Y-54395458D01*
X140077915Y-54409783D01*
X140062888Y-54422617D01*
X140046498Y-54434525D01*
X140018305Y-54468604D01*
X140010317Y-54477381D01*
X131508104Y-62979595D01*
X131467227Y-63006909D01*
X131419009Y-63016500D01*
X119257951Y-63016500D01*
X119200748Y-63002767D01*
X119156015Y-62964561D01*
X119133502Y-62910211D01*
X119138118Y-62851564D01*
X119168855Y-62801405D01*
X119238393Y-62731866D01*
X119403920Y-62566337D01*
X119416307Y-62555476D01*
X119441669Y-62536016D01*
X119497224Y-62463616D01*
X119539206Y-62408905D01*
X119600520Y-62260880D01*
X119607743Y-62206015D01*
X119616182Y-62141914D01*
X119617260Y-62133726D01*
X119617260Y-62133719D01*
X119621432Y-62102029D01*
X119617259Y-62070336D01*
X119616182Y-62053893D01*
X119616182Y-61648378D01*
X119625773Y-61600160D01*
X119638074Y-61581749D01*
X119636240Y-61580597D01*
X119706392Y-61468950D01*
X119740725Y-61414310D01*
X119800899Y-61242342D01*
X119821298Y-61061295D01*
X119800899Y-60880248D01*
X119791714Y-60854000D01*
X119740725Y-60708280D01*
X119643792Y-60554012D01*
X119514964Y-60425184D01*
X119360696Y-60328251D01*
X119188731Y-60268078D01*
X119112047Y-60259437D01*
X119081084Y-60255948D01*
X119028157Y-60237428D01*
X118988508Y-60197779D01*
X118956111Y-60146219D01*
X118956108Y-60146216D01*
X118956107Y-60146214D01*
X118827282Y-60017389D01*
X118673014Y-59920456D01*
X118501049Y-59860283D01*
X118320000Y-59839884D01*
X118138950Y-59860283D01*
X117966985Y-59920456D01*
X117812717Y-60017389D01*
X117683889Y-60146217D01*
X117586957Y-60300484D01*
X117538434Y-60439155D01*
X117508600Y-60486634D01*
X116490638Y-61504597D01*
X116449764Y-61531909D01*
X116401546Y-61541500D01*
X111566852Y-61541500D01*
X111502835Y-61524025D01*
X111456574Y-61476449D01*
X111440902Y-61411966D01*
X111460165Y-61348464D01*
X111526844Y-61242344D01*
X111549043Y-61207015D01*
X111609217Y-61035047D01*
X111629616Y-60854000D01*
X111609217Y-60672953D01*
X111549043Y-60500985D01*
X111452111Y-60346719D01*
X111452110Y-60346717D01*
X111323282Y-60217889D01*
X111169014Y-60120956D01*
X110997049Y-60060783D01*
X110899475Y-60049789D01*
X110863547Y-60040219D01*
X110846456Y-60032824D01*
X110835804Y-60027605D01*
X110797061Y-60006305D01*
X110788460Y-60004096D01*
X110777437Y-60001266D01*
X110758731Y-59994862D01*
X110725535Y-59980496D01*
X110725668Y-59980187D01*
X110694213Y-59967901D01*
X110656824Y-59929183D01*
X110649285Y-59916960D01*
X110646068Y-59913743D01*
X110613456Y-59857260D01*
X110613456Y-59792034D01*
X110646070Y-59735548D01*
X110648891Y-59732726D01*
X110738847Y-59586885D01*
X110792743Y-59424239D01*
X110803000Y-59323839D01*
X110803000Y-59304000D01*
X105637000Y-59304000D01*
X105637000Y-59323839D01*
X105647256Y-59424239D01*
X105701152Y-59586885D01*
X105791111Y-59732731D01*
X105793932Y-59735552D01*
X105826544Y-59792036D01*
X105826544Y-59857258D01*
X105793932Y-59913742D01*
X105790717Y-59916956D01*
X105759294Y-59967901D01*
X105700698Y-60062899D01*
X105646764Y-60225664D01*
X105641274Y-60279405D01*
X105636500Y-60326132D01*
X105636500Y-60635405D01*
X105626909Y-60683623D01*
X105599595Y-60724501D01*
X104531333Y-61792760D01*
X104515016Y-61805832D01*
X104466370Y-61857635D01*
X104463620Y-61860473D01*
X104443868Y-61880226D01*
X104443864Y-61880230D01*
X104443865Y-61880230D01*
X104441379Y-61883433D01*
X104433687Y-61892439D01*
X104403413Y-61924678D01*
X104393652Y-61942434D01*
X104382801Y-61958952D01*
X104370385Y-61974959D01*
X104352824Y-62015539D01*
X104347604Y-62026195D01*
X104326304Y-62064940D01*
X104321267Y-62084559D01*
X104314864Y-62103261D01*
X104306818Y-62121855D01*
X104299901Y-62165524D01*
X104297495Y-62177144D01*
X104286500Y-62219970D01*
X104286500Y-62240224D01*
X104284949Y-62259934D01*
X104281779Y-62279942D01*
X104285941Y-62323961D01*
X104286500Y-62335819D01*
X104286500Y-63447475D01*
X104278131Y-63492629D01*
X104254136Y-63531786D01*
X104180958Y-63613057D01*
X104085472Y-63778443D01*
X104026458Y-63960070D01*
X104025439Y-63969764D01*
X104006496Y-64150000D01*
X98172500Y-64150000D01*
X98172500Y-60942136D01*
X98173578Y-60925690D01*
X98173710Y-60924681D01*
X98177750Y-60894000D01*
X98173578Y-60862310D01*
X98173578Y-60862303D01*
X98156838Y-60735150D01*
X98095524Y-60587125D01*
X98059294Y-60539909D01*
X98059294Y-60539908D01*
X98059293Y-60539907D01*
X98049186Y-60526735D01*
X98023941Y-60464139D01*
X98019552Y-60425184D01*
X98013217Y-60368953D01*
X97953043Y-60196985D01*
X97868791Y-60062899D01*
X97856110Y-60042717D01*
X97727282Y-59913889D01*
X97573014Y-59816956D01*
X97401049Y-59756783D01*
X97220000Y-59736384D01*
X97038950Y-59756783D01*
X96866985Y-59816956D01*
X96712717Y-59913889D01*
X96583889Y-60042717D01*
X96486956Y-60196985D01*
X96426783Y-60368950D01*
X96406384Y-60549999D01*
X96426783Y-60731049D01*
X96486956Y-60903014D01*
X96583889Y-61057282D01*
X96712717Y-61186110D01*
X96866985Y-61283043D01*
X96871115Y-61284488D01*
X96915202Y-61311052D01*
X96944987Y-61353031D01*
X96955500Y-61403417D01*
X96955500Y-61659628D01*
X96941529Y-61717294D01*
X96902716Y-61762173D01*
X96847666Y-61784312D01*
X96788588Y-61778801D01*
X96748515Y-61765044D01*
X96668000Y-61751609D01*
X96668000Y-63214000D01*
X96651119Y-63277000D01*
X96605000Y-63323119D01*
X96542000Y-63340000D01*
X96286000Y-63340000D01*
X96223000Y-63323119D01*
X96176881Y-63277000D01*
X96160000Y-63214000D01*
X96160000Y-61751609D01*
X96079485Y-61765044D01*
X95866631Y-61838116D01*
X95668697Y-61945233D01*
X95491098Y-62083464D01*
X95474718Y-62101258D01*
X95416826Y-62137016D01*
X95348783Y-62137457D01*
X95290433Y-62102453D01*
X95258792Y-62042212D01*
X95263089Y-61974304D01*
X95271203Y-61951117D01*
X95313217Y-61831047D01*
X95333616Y-61650000D01*
X95313217Y-61468953D01*
X95253043Y-61296985D01*
X95218710Y-61242344D01*
X95156110Y-61142717D01*
X95027282Y-61013889D01*
X94873014Y-60916956D01*
X94701049Y-60856783D01*
X94520000Y-60836384D01*
X94338950Y-60856783D01*
X94166985Y-60916956D01*
X94012717Y-61013889D01*
X93883889Y-61142717D01*
X93786956Y-61296985D01*
X93726783Y-61468950D01*
X93706384Y-61650000D01*
X93726783Y-61831049D01*
X93786956Y-62003014D01*
X93871432Y-62137457D01*
X93883889Y-62157281D01*
X93974597Y-62247989D01*
X94001909Y-62288864D01*
X94011500Y-62337082D01*
X94011500Y-63355810D01*
X94001909Y-63404028D01*
X93974595Y-63444906D01*
X93075762Y-64343737D01*
X93063375Y-64354601D01*
X93038011Y-64374064D01*
X93010972Y-64409302D01*
X93010949Y-64409330D01*
X92940475Y-64501173D01*
X92882143Y-64642000D01*
X92882142Y-64642002D01*
X92879160Y-64649201D01*
X92862421Y-64776354D01*
X92862421Y-64776361D01*
X92856690Y-64819892D01*
X92855620Y-64845287D01*
X92839211Y-64885430D01*
X92738955Y-65044987D01*
X92678782Y-65216951D01*
X92658383Y-65398000D01*
X85424000Y-65398000D01*
X85424000Y-62830000D01*
X86305619Y-62830000D01*
X86325091Y-63027701D01*
X86382758Y-63217802D01*
X86476406Y-63393007D01*
X86602431Y-63546568D01*
X86755992Y-63672593D01*
X86755996Y-63672595D01*
X86931196Y-63766241D01*
X87014273Y-63791442D01*
X87121298Y-63823908D01*
X87269450Y-63838500D01*
X87269453Y-63838500D01*
X88168547Y-63838500D01*
X88168550Y-63838500D01*
X88316701Y-63823908D01*
X88369894Y-63807772D01*
X88506804Y-63766241D01*
X88682004Y-63672595D01*
X88682005Y-63672593D01*
X88682007Y-63672593D01*
X88835568Y-63546568D01*
X88961593Y-63393007D01*
X88973356Y-63371000D01*
X89055241Y-63217804D01*
X89112908Y-63027701D01*
X89132380Y-62830000D01*
X90355619Y-62830000D01*
X90375091Y-63027701D01*
X90432758Y-63217802D01*
X90526406Y-63393007D01*
X90652431Y-63546568D01*
X90805994Y-63672594D01*
X90900767Y-63723251D01*
X90941958Y-63758489D01*
X90964532Y-63807772D01*
X90964311Y-63861978D01*
X90941335Y-63911076D01*
X90896302Y-63969764D01*
X90838312Y-64109764D01*
X90818534Y-64260000D01*
X90838312Y-64410235D01*
X90896301Y-64550232D01*
X90896302Y-64550233D01*
X90988549Y-64670451D01*
X91108767Y-64762698D01*
X91248764Y-64820687D01*
X91361280Y-64835500D01*
X91436720Y-64835500D01*
X91549236Y-64820687D01*
X91689233Y-64762698D01*
X91809451Y-64670451D01*
X91901698Y-64550233D01*
X91959687Y-64410236D01*
X91979466Y-64260000D01*
X91959687Y-64109764D01*
X91919489Y-64012718D01*
X91910505Y-63952150D01*
X91931133Y-63894498D01*
X91976502Y-63853378D01*
X92035898Y-63838500D01*
X92518550Y-63838500D01*
X92666701Y-63823908D01*
X92719894Y-63807772D01*
X92856804Y-63766241D01*
X93032004Y-63672595D01*
X93032005Y-63672593D01*
X93032007Y-63672593D01*
X93185568Y-63546568D01*
X93311593Y-63393007D01*
X93323356Y-63371000D01*
X93405241Y-63217804D01*
X93462908Y-63027701D01*
X93482380Y-62830000D01*
X93462908Y-62632299D01*
X93405241Y-62442196D01*
X93311595Y-62266996D01*
X93311593Y-62266992D01*
X93185568Y-62113431D01*
X93032007Y-61987406D01*
X92856802Y-61893758D01*
X92666701Y-61836091D01*
X92518550Y-61821500D01*
X92518547Y-61821500D01*
X91319453Y-61821500D01*
X91319450Y-61821500D01*
X91171298Y-61836091D01*
X90981197Y-61893758D01*
X90805992Y-61987406D01*
X90652431Y-62113431D01*
X90526406Y-62266992D01*
X90432758Y-62442197D01*
X90375091Y-62632298D01*
X90355619Y-62830000D01*
X89132380Y-62830000D01*
X89112908Y-62632299D01*
X89055241Y-62442196D01*
X88961595Y-62266996D01*
X88961593Y-62266992D01*
X88835568Y-62113431D01*
X88682007Y-61987406D01*
X88506802Y-61893758D01*
X88316701Y-61836091D01*
X88168550Y-61821500D01*
X88168547Y-61821500D01*
X87269453Y-61821500D01*
X87269450Y-61821500D01*
X87121298Y-61836091D01*
X86931197Y-61893758D01*
X86755992Y-61987406D01*
X86602431Y-62113431D01*
X86476406Y-62266992D01*
X86382758Y-62442197D01*
X86325091Y-62632298D01*
X86305619Y-62830000D01*
X85424000Y-62830000D01*
X85424000Y-58796000D01*
X105637000Y-58796000D01*
X106366000Y-58796000D01*
X106366000Y-58092000D01*
X106321161Y-58092000D01*
X106220760Y-58102256D01*
X106058114Y-58156152D01*
X105912268Y-58246111D01*
X105791111Y-58367268D01*
X105701152Y-58513114D01*
X105647256Y-58675760D01*
X105637000Y-58776161D01*
X105637000Y-58796000D01*
X85424000Y-58796000D01*
X85424000Y-55717766D01*
X87315787Y-55717766D01*
X87345413Y-55987015D01*
X87366834Y-56068950D01*
X87413928Y-56249088D01*
X87488788Y-56425248D01*
X87502349Y-56457161D01*
X87519870Y-56498390D01*
X87660982Y-56729610D01*
X87834255Y-56937820D01*
X87834256Y-56937821D01*
X87834258Y-56937823D01*
X88035993Y-57118578D01*
X88035995Y-57118579D01*
X88035998Y-57118582D01*
X88261910Y-57268044D01*
X88318346Y-57294500D01*
X88507171Y-57383018D01*
X88507173Y-57383018D01*
X88507176Y-57383020D01*
X88766569Y-57461060D01*
X88766572Y-57461060D01*
X88766574Y-57461061D01*
X89034558Y-57500500D01*
X89034561Y-57500500D01*
X89237630Y-57500500D01*
X89237631Y-57500500D01*
X89440156Y-57485677D01*
X89704553Y-57426780D01*
X89957558Y-57330014D01*
X90193777Y-57197441D01*
X90408177Y-57031888D01*
X90596186Y-56836881D01*
X90753799Y-56616579D01*
X90877656Y-56375675D01*
X90920531Y-56250000D01*
X102136384Y-56250000D01*
X102143024Y-56308933D01*
X102156783Y-56431049D01*
X102216956Y-56603014D01*
X102313889Y-56757282D01*
X102442717Y-56886110D01*
X102442719Y-56886111D01*
X102596985Y-56983043D01*
X102768953Y-57043217D01*
X102950000Y-57063616D01*
X103131047Y-57043217D01*
X103303015Y-56983043D01*
X103457281Y-56886111D01*
X103586111Y-56757281D01*
X103683043Y-56603015D01*
X103743217Y-56431047D01*
X103748231Y-56386543D01*
X103759916Y-56345986D01*
X103784340Y-56311562D01*
X104075499Y-56020404D01*
X104116377Y-55993091D01*
X104164595Y-55983500D01*
X106882804Y-55983500D01*
X106945363Y-56000128D01*
X106991412Y-56045622D01*
X107008795Y-56107976D01*
X106992925Y-56170732D01*
X106964011Y-56200713D01*
X106965663Y-56202365D01*
X106833184Y-56334843D01*
X106820585Y-56355685D01*
X106774655Y-56400248D01*
X106712757Y-56416500D01*
X106567736Y-56416500D01*
X106500700Y-56397187D01*
X106373014Y-56316956D01*
X106201049Y-56256783D01*
X106020000Y-56236384D01*
X105838950Y-56256783D01*
X105666985Y-56316956D01*
X105512717Y-56413889D01*
X105383889Y-56542717D01*
X105286956Y-56696985D01*
X105226783Y-56868950D01*
X105206384Y-57050000D01*
X105226783Y-57231049D01*
X105286956Y-57403014D01*
X105383889Y-57557282D01*
X105512717Y-57686110D01*
X105638516Y-57765155D01*
X105666985Y-57783043D01*
X105838953Y-57843217D01*
X106020000Y-57863616D01*
X106201047Y-57843217D01*
X106373015Y-57783043D01*
X106500699Y-57702813D01*
X106567736Y-57683500D01*
X106712757Y-57683500D01*
X106774655Y-57699752D01*
X106820585Y-57744315D01*
X106833184Y-57765156D01*
X106944933Y-57876905D01*
X106975671Y-57927064D01*
X106980287Y-57985711D01*
X106957774Y-58040061D01*
X106913041Y-58078267D01*
X106879736Y-58086262D01*
X106874000Y-58091999D01*
X106874000Y-58796000D01*
X110803000Y-58796000D01*
X110803000Y-58776161D01*
X110792743Y-58675760D01*
X110738847Y-58513114D01*
X110648888Y-58367268D01*
X110527731Y-58246111D01*
X110381885Y-58156152D01*
X110219239Y-58102256D01*
X110118839Y-58092000D01*
X109984162Y-58092000D01*
X109926959Y-58078267D01*
X109882226Y-58040061D01*
X109859713Y-57985711D01*
X109864329Y-57927064D01*
X109895067Y-57876905D01*
X110006815Y-57765156D01*
X110034528Y-57719315D01*
X110080458Y-57674752D01*
X110142356Y-57658500D01*
X123415761Y-57658500D01*
X123463979Y-57668091D01*
X123504856Y-57695405D01*
X125581166Y-59771715D01*
X125605593Y-59806140D01*
X125617279Y-59846701D01*
X125626783Y-59931049D01*
X125686956Y-60103014D01*
X125783889Y-60257282D01*
X125912717Y-60386110D01*
X126066985Y-60483043D01*
X126229493Y-60539907D01*
X126238953Y-60543217D01*
X126420000Y-60563616D01*
X126601047Y-60543217D01*
X126773015Y-60483043D01*
X126927281Y-60386111D01*
X127056111Y-60257281D01*
X127153043Y-60103015D01*
X127213217Y-59931047D01*
X127233616Y-59750000D01*
X127213217Y-59568953D01*
X127204236Y-59543288D01*
X127153043Y-59396985D01*
X127056110Y-59242717D01*
X126927282Y-59113889D01*
X126773014Y-59016956D01*
X126601049Y-58956783D01*
X126516701Y-58947279D01*
X126476140Y-58935593D01*
X126441715Y-58911166D01*
X124184315Y-56653766D01*
X124173448Y-56641375D01*
X124153986Y-56616011D01*
X124122074Y-56591524D01*
X124122074Y-56591525D01*
X124122072Y-56591523D01*
X124026876Y-56518476D01*
X124026875Y-56518475D01*
X123922204Y-56475119D01*
X123878851Y-56457162D01*
X123878850Y-56457161D01*
X123878848Y-56457161D01*
X123859468Y-56454608D01*
X123859456Y-56454608D01*
X123845469Y-56452766D01*
X123751703Y-56440422D01*
X123751691Y-56440422D01*
X123720000Y-56436250D01*
X123688307Y-56440422D01*
X123671864Y-56441500D01*
X110142356Y-56441500D01*
X110080458Y-56425248D01*
X110034528Y-56380685D01*
X110006815Y-56334843D01*
X109885156Y-56213184D01*
X109847561Y-56190457D01*
X109800513Y-56139899D01*
X109787184Y-56072135D01*
X109811577Y-56007524D01*
X109866361Y-55965478D01*
X109899909Y-55952195D01*
X109911117Y-55948357D01*
X109953593Y-55936018D01*
X109971039Y-55925699D01*
X109988780Y-55917009D01*
X110007617Y-55909552D01*
X110043392Y-55883558D01*
X110053303Y-55877048D01*
X110091362Y-55854542D01*
X110105691Y-55840212D01*
X110120719Y-55827377D01*
X110137107Y-55815472D01*
X110165303Y-55781386D01*
X110173272Y-55772630D01*
X111817780Y-54128123D01*
X111874263Y-54095513D01*
X111939484Y-54095513D01*
X111978537Y-54105978D01*
X112200000Y-54125353D01*
X112421463Y-54105978D01*
X112636196Y-54048440D01*
X112837677Y-53954488D01*
X113019781Y-53826977D01*
X113176977Y-53669781D01*
X113304488Y-53487677D01*
X113355806Y-53377624D01*
X113402300Y-53324609D01*
X113470000Y-53304876D01*
X113537700Y-53324609D01*
X113584193Y-53377624D01*
X113597778Y-53406756D01*
X113635512Y-53487678D01*
X113763025Y-53669784D01*
X113920215Y-53826974D01*
X114102321Y-53954487D01*
X114102322Y-53954487D01*
X114102323Y-53954488D01*
X114303804Y-54048440D01*
X114454739Y-54088883D01*
X114518532Y-54105977D01*
X114518533Y-54105977D01*
X114518537Y-54105978D01*
X114740000Y-54125353D01*
X114961463Y-54105978D01*
X115028399Y-54088041D01*
X115093619Y-54088041D01*
X115150104Y-54120653D01*
X115441207Y-54411756D01*
X115474953Y-54472813D01*
X115471042Y-54542465D01*
X115426783Y-54668952D01*
X115406384Y-54850000D01*
X115426783Y-55031049D01*
X115486956Y-55203014D01*
X115583889Y-55357282D01*
X115712717Y-55486110D01*
X115712719Y-55486111D01*
X115866985Y-55583043D01*
X116038953Y-55643217D01*
X116220000Y-55663616D01*
X116401047Y-55643217D01*
X116573015Y-55583043D01*
X116727281Y-55486111D01*
X116856111Y-55357281D01*
X116953043Y-55203015D01*
X117013217Y-55031047D01*
X117033616Y-54850000D01*
X117013217Y-54668953D01*
X116953043Y-54496985D01*
X116913797Y-54434525D01*
X116848558Y-54330698D01*
X116849081Y-54330369D01*
X116838622Y-54315773D01*
X116826706Y-54276491D01*
X116825763Y-54269325D01*
X116819573Y-54222309D01*
X116826571Y-54161481D01*
X116861418Y-54111133D01*
X116915884Y-54083156D01*
X116977107Y-54084159D01*
X117058532Y-54105977D01*
X117058533Y-54105977D01*
X117058537Y-54105978D01*
X117280000Y-54125353D01*
X117501463Y-54105978D01*
X117716196Y-54048440D01*
X117917677Y-53954488D01*
X118099781Y-53826977D01*
X118256977Y-53669781D01*
X118384488Y-53487677D01*
X118478440Y-53286196D01*
X118535978Y-53071463D01*
X118555353Y-52850000D01*
X118535978Y-52628537D01*
X118478440Y-52413804D01*
X118384488Y-52212324D01*
X118377443Y-52202263D01*
X118256974Y-52030215D01*
X118099784Y-51873025D01*
X117917678Y-51745512D01*
X117847117Y-51712609D01*
X117716196Y-51651560D01*
X117702709Y-51647946D01*
X117501467Y-51594022D01*
X117280000Y-51574647D01*
X117058532Y-51594022D01*
X116843807Y-51651559D01*
X116843806Y-51651559D01*
X116843804Y-51651560D01*
X116783442Y-51679707D01*
X116642322Y-51745512D01*
X116460215Y-51873025D01*
X116303025Y-52030215D01*
X116175512Y-52212322D01*
X116124195Y-52322374D01*
X116077700Y-52375391D01*
X116010000Y-52395124D01*
X115942300Y-52375391D01*
X115895805Y-52322374D01*
X115882937Y-52294779D01*
X115844488Y-52212324D01*
X115837443Y-52202263D01*
X115716974Y-52030215D01*
X115559784Y-51873025D01*
X115377678Y-51745512D01*
X115307117Y-51712609D01*
X115176196Y-51651560D01*
X115162709Y-51647946D01*
X114961467Y-51594022D01*
X114740000Y-51574647D01*
X114518532Y-51594022D01*
X114303807Y-51651559D01*
X114303806Y-51651559D01*
X114303804Y-51651560D01*
X114243442Y-51679707D01*
X114102322Y-51745512D01*
X113920215Y-51873025D01*
X113763025Y-52030215D01*
X113635512Y-52212322D01*
X113584195Y-52322374D01*
X113537700Y-52375391D01*
X113470000Y-52395124D01*
X113402300Y-52375391D01*
X113355805Y-52322374D01*
X113342937Y-52294779D01*
X113304488Y-52212324D01*
X113297443Y-52202263D01*
X113176974Y-52030215D01*
X113019784Y-51873025D01*
X112837678Y-51745512D01*
X112767117Y-51712609D01*
X112636196Y-51651560D01*
X112622709Y-51647946D01*
X112421467Y-51594022D01*
X112200000Y-51574647D01*
X111978532Y-51594022D01*
X111763807Y-51651559D01*
X111763806Y-51651559D01*
X111763804Y-51651560D01*
X111703442Y-51679707D01*
X111562322Y-51745512D01*
X111380215Y-51873025D01*
X111223025Y-52030215D01*
X111095512Y-52212322D01*
X111044195Y-52322374D01*
X110997700Y-52375391D01*
X110930000Y-52395124D01*
X110862300Y-52375391D01*
X110815805Y-52322374D01*
X110802937Y-52294779D01*
X110764488Y-52212324D01*
X110757443Y-52202263D01*
X110636974Y-52030215D01*
X110479784Y-51873025D01*
X110297678Y-51745512D01*
X110227117Y-51712609D01*
X110096196Y-51651560D01*
X110082709Y-51647946D01*
X109881467Y-51594022D01*
X109660000Y-51574647D01*
X109438532Y-51594022D01*
X109223807Y-51651559D01*
X109223806Y-51651559D01*
X109223804Y-51651560D01*
X109163442Y-51679707D01*
X109022322Y-51745512D01*
X108840215Y-51873025D01*
X108683025Y-52030215D01*
X108590209Y-52162771D01*
X108545176Y-52202263D01*
X108486996Y-52216500D01*
X103303854Y-52216500D01*
X103283064Y-52214204D01*
X103212002Y-52216438D01*
X103208044Y-52216500D01*
X103180142Y-52216500D01*
X103176134Y-52217006D01*
X103164313Y-52217936D01*
X103120109Y-52219325D01*
X103100653Y-52224978D01*
X103081301Y-52228986D01*
X103061200Y-52231526D01*
X103020094Y-52247800D01*
X103008870Y-52251643D01*
X102966405Y-52263981D01*
X102948960Y-52274297D01*
X102931217Y-52282989D01*
X102912384Y-52290446D01*
X102906421Y-52294779D01*
X102846473Y-52318048D01*
X102768950Y-52326783D01*
X102596985Y-52386956D01*
X102442717Y-52483889D01*
X102313889Y-52612717D01*
X102216956Y-52766985D01*
X102156783Y-52938950D01*
X102136384Y-53119999D01*
X102156783Y-53301049D01*
X102216956Y-53473014D01*
X102313889Y-53627282D01*
X102442717Y-53756110D01*
X102555501Y-53826977D01*
X102596985Y-53853043D01*
X102768953Y-53913217D01*
X102950000Y-53933616D01*
X103131047Y-53913217D01*
X103303015Y-53853043D01*
X103457281Y-53756111D01*
X103586111Y-53627281D01*
X103639405Y-53542463D01*
X103685143Y-53499222D01*
X103746092Y-53483500D01*
X108486996Y-53483500D01*
X108545176Y-53497737D01*
X108590208Y-53537228D01*
X108652511Y-53626206D01*
X108683025Y-53669784D01*
X108840215Y-53826974D01*
X109022321Y-53954487D01*
X109022322Y-53954487D01*
X109022323Y-53954488D01*
X109223804Y-54048440D01*
X109374739Y-54088883D01*
X109438532Y-54105977D01*
X109438533Y-54105977D01*
X109438537Y-54105978D01*
X109660000Y-54125353D01*
X109719235Y-54120170D01*
X109779445Y-54129707D01*
X109828133Y-54166396D01*
X109853898Y-54221649D01*
X109850707Y-54282530D01*
X109819308Y-54334786D01*
X109474497Y-54679597D01*
X109433623Y-54706909D01*
X109385405Y-54716500D01*
X103933853Y-54716500D01*
X103913064Y-54714204D01*
X103842014Y-54716438D01*
X103838055Y-54716500D01*
X103810139Y-54716500D01*
X103806123Y-54717007D01*
X103794303Y-54717937D01*
X103750110Y-54719326D01*
X103730657Y-54724978D01*
X103711303Y-54728986D01*
X103691204Y-54731525D01*
X103650096Y-54747801D01*
X103638870Y-54751644D01*
X103596408Y-54763981D01*
X103578964Y-54774297D01*
X103561215Y-54782991D01*
X103542384Y-54790446D01*
X103506625Y-54816427D01*
X103496706Y-54822943D01*
X103458636Y-54845457D01*
X103444309Y-54859785D01*
X103429279Y-54872622D01*
X103412894Y-54884526D01*
X103384711Y-54918593D01*
X103376723Y-54927370D01*
X102888437Y-55415656D01*
X102854012Y-55440083D01*
X102813451Y-55451769D01*
X102768950Y-55456783D01*
X102596985Y-55516956D01*
X102442717Y-55613889D01*
X102313889Y-55742717D01*
X102216956Y-55896985D01*
X102156783Y-56068950D01*
X102150561Y-56124173D01*
X102136384Y-56250000D01*
X90920531Y-56250000D01*
X90965118Y-56119305D01*
X91014319Y-55852933D01*
X91024212Y-55582235D01*
X91022910Y-55570405D01*
X90994586Y-55312984D01*
X90994586Y-55312982D01*
X90926072Y-55050912D01*
X90820130Y-54801610D01*
X90679018Y-54570390D01*
X90505745Y-54362180D01*
X90505741Y-54362176D01*
X90304006Y-54181421D01*
X90304003Y-54181419D01*
X90304002Y-54181418D01*
X90078090Y-54031956D01*
X90059250Y-54023124D01*
X89832828Y-53916981D01*
X89573425Y-53838938D01*
X89305442Y-53799500D01*
X89305439Y-53799500D01*
X89102369Y-53799500D01*
X89068614Y-53801970D01*
X88899839Y-53814323D01*
X88635449Y-53873219D01*
X88382441Y-53969985D01*
X88146225Y-54102557D01*
X87931820Y-54268114D01*
X87743815Y-54463117D01*
X87586200Y-54683422D01*
X87462342Y-54924328D01*
X87374882Y-55180693D01*
X87325681Y-55447065D01*
X87315787Y-55717766D01*
X85424000Y-55717766D01*
X85424000Y-50026000D01*
X85440881Y-49963000D01*
X85487000Y-49916881D01*
X85550000Y-49900000D01*
X164794000Y-49900000D01*
X164857000Y-49916881D01*
G37*
G04 #@! TD.AperFunction*
M02*
