G04 #@! TF.GenerationSoftware,KiCad,Pcbnew,(7.0.0)*
G04 #@! TF.CreationDate,2023-03-04T20:15:19-06:00*
G04 #@! TF.ProjectId,V0_Display,56305f44-6973-4706-9c61-792e6b696361,rev?*
G04 #@! TF.SameCoordinates,Original*
G04 #@! TF.FileFunction,Paste,Bot*
G04 #@! TF.FilePolarity,Positive*
%FSLAX46Y46*%
G04 Gerber Fmt 4.6, Leading zero omitted, Abs format (unit mm)*
G04 Created by KiCad (PCBNEW (7.0.0)) date 2023-03-04 20:15:19*
%MOMM*%
%LPD*%
G01*
G04 APERTURE LIST*
G04 Aperture macros list*
%AMRoundRect*
0 Rectangle with rounded corners*
0 $1 Rounding radius*
0 $2 $3 $4 $5 $6 $7 $8 $9 X,Y pos of 4 corners*
0 Add a 4 corners polygon primitive as box body*
4,1,4,$2,$3,$4,$5,$6,$7,$8,$9,$2,$3,0*
0 Add four circle primitives for the rounded corners*
1,1,$1+$1,$2,$3*
1,1,$1+$1,$4,$5*
1,1,$1+$1,$6,$7*
1,1,$1+$1,$8,$9*
0 Add four rect primitives between the rounded corners*
20,1,$1+$1,$2,$3,$4,$5,0*
20,1,$1+$1,$4,$5,$6,$7,0*
20,1,$1+$1,$6,$7,$8,$9,0*
20,1,$1+$1,$8,$9,$2,$3,0*%
G04 Aperture macros list end*
%ADD10RoundRect,0.150000X0.150000X-0.512500X0.150000X0.512500X-0.150000X0.512500X-0.150000X-0.512500X0*%
%ADD11R,1.240000X0.600000*%
%ADD12R,1.240000X0.300000*%
%ADD13R,1.600000X2.000000*%
%ADD14RoundRect,0.225000X-0.225000X-0.250000X0.225000X-0.250000X0.225000X0.250000X-0.225000X0.250000X0*%
%ADD15RoundRect,0.150000X-0.150000X0.512500X-0.150000X-0.512500X0.150000X-0.512500X0.150000X0.512500X0*%
%ADD16RoundRect,0.225000X-0.250000X0.225000X-0.250000X-0.225000X0.250000X-0.225000X0.250000X0.225000X0*%
%ADD17RoundRect,0.225000X0.225000X0.250000X-0.225000X0.250000X-0.225000X-0.250000X0.225000X-0.250000X0*%
%ADD18RoundRect,0.200000X-0.200000X-0.275000X0.200000X-0.275000X0.200000X0.275000X-0.200000X0.275000X0*%
%ADD19RoundRect,0.200000X-0.275000X0.200000X-0.275000X-0.200000X0.275000X-0.200000X0.275000X0.200000X0*%
%ADD20RoundRect,0.200000X0.200000X0.275000X-0.200000X0.275000X-0.200000X-0.275000X0.200000X-0.275000X0*%
%ADD21RoundRect,0.225000X0.104006X-0.319856X0.329006X0.069856X-0.104006X0.319856X-0.329006X-0.069856X0*%
%ADD22R,1.400000X1.200000*%
%ADD23R,0.300000X0.900000*%
%ADD24R,1.650000X0.250000*%
%ADD25RoundRect,0.249999X-0.395001X0.395001X-0.395001X-0.395001X0.395001X-0.395001X0.395001X0.395001X0*%
%ADD26RoundRect,0.050000X-0.050000X0.387500X-0.050000X-0.387500X0.050000X-0.387500X0.050000X0.387500X0*%
%ADD27RoundRect,0.050000X-0.387500X0.050000X-0.387500X-0.050000X0.387500X-0.050000X0.387500X0.050000X0*%
G04 APERTURE END LIST*
D10*
X154192000Y-56037500D03*
X153242000Y-56037500D03*
X152292000Y-56037500D03*
X152292000Y-53762500D03*
X154192000Y-53762500D03*
D11*
X92518999Y-70349999D03*
X92518999Y-69549999D03*
D12*
X92518999Y-68399999D03*
X92518999Y-67399999D03*
X92518999Y-66899999D03*
X92518999Y-65899999D03*
D11*
X92518999Y-64749999D03*
X92518999Y-63949999D03*
X92518999Y-63949999D03*
X92518999Y-64749999D03*
D12*
X92518999Y-65399999D03*
X92518999Y-66399999D03*
X92518999Y-67899999D03*
X92518999Y-68899999D03*
D11*
X92518999Y-69549999D03*
X92518999Y-70349999D03*
D13*
X126385999Y-61189999D03*
X126385999Y-52789999D03*
D14*
X99000000Y-80130000D03*
X100550000Y-80130000D03*
D15*
X98825000Y-75817500D03*
X99775000Y-75817500D03*
X100725000Y-75817500D03*
X100725000Y-78092500D03*
X98825000Y-78092500D03*
D14*
X99000000Y-73780000D03*
X100550000Y-73780000D03*
D16*
X129434000Y-54678000D03*
X129434000Y-56228000D03*
D17*
X105445000Y-59850000D03*
X103895000Y-59850000D03*
X121895000Y-60850000D03*
X120345000Y-60850000D03*
D18*
X94495000Y-60550000D03*
X96145000Y-60550000D03*
D14*
X120245000Y-55250000D03*
X121795000Y-55250000D03*
D19*
X129434000Y-57728000D03*
X129434000Y-59378000D03*
D20*
X96145000Y-73250000D03*
X94495000Y-73250000D03*
X105745000Y-62850000D03*
X104095000Y-62850000D03*
D21*
X106932500Y-64321170D03*
X107707500Y-62978830D03*
D22*
X119819999Y-57099999D03*
X122219999Y-57099999D03*
X122219999Y-58999999D03*
X119819999Y-58999999D03*
D18*
X113369000Y-67398000D03*
X115019000Y-67398000D03*
D23*
X106719999Y-57049999D03*
X107219999Y-57049999D03*
X107719999Y-57049999D03*
X108219999Y-57049999D03*
X108219999Y-59849999D03*
X107719999Y-59849999D03*
X107219999Y-59849999D03*
X106719999Y-59849999D03*
D24*
X107469999Y-58449999D03*
D18*
X104095000Y-61350000D03*
X105745000Y-61350000D03*
D25*
X114194000Y-59454000D03*
X112594000Y-59454000D03*
X114194000Y-61054000D03*
X112594000Y-61054000D03*
D26*
X110794000Y-56816500D03*
X111194000Y-56816500D03*
X111594000Y-56816500D03*
X111994000Y-56816500D03*
X112394000Y-56816500D03*
X112794000Y-56816500D03*
X113194000Y-56816500D03*
X113594000Y-56816500D03*
X113994000Y-56816500D03*
X114394000Y-56816500D03*
X114794000Y-56816500D03*
X115194000Y-56816500D03*
X115594000Y-56816500D03*
X115994000Y-56816500D03*
D27*
X116831500Y-57654000D03*
X116831500Y-58054000D03*
X116831500Y-58454000D03*
X116831500Y-58854000D03*
X116831500Y-59254000D03*
X116831500Y-59654000D03*
X116831500Y-60054000D03*
X116831500Y-60454000D03*
X116831500Y-60854000D03*
X116831500Y-61254000D03*
X116831500Y-61654000D03*
X116831500Y-62054000D03*
X116831500Y-62454000D03*
X116831500Y-62854000D03*
D26*
X115994000Y-63691500D03*
X115594000Y-63691500D03*
X115194000Y-63691500D03*
X114794000Y-63691500D03*
X114394000Y-63691500D03*
X113994000Y-63691500D03*
X113594000Y-63691500D03*
X113194000Y-63691500D03*
X112794000Y-63691500D03*
X112394000Y-63691500D03*
X111994000Y-63691500D03*
X111594000Y-63691500D03*
X111194000Y-63691500D03*
X110794000Y-63691500D03*
D27*
X109956500Y-62854000D03*
X109956500Y-62454000D03*
X109956500Y-62054000D03*
X109956500Y-61654000D03*
X109956500Y-61254000D03*
X109956500Y-60854000D03*
X109956500Y-60454000D03*
X109956500Y-60054000D03*
X109956500Y-59654000D03*
X109956500Y-59254000D03*
X109956500Y-58854000D03*
X109956500Y-58454000D03*
X109956500Y-58054000D03*
X109956500Y-57654000D03*
M02*
