%TF.GenerationSoftware,KiCad,Pcbnew,7.0.1*%
%TF.CreationDate,2023-03-22T01:49:55-05:00*%
%TF.ProjectId,V0_Display,56305f44-6973-4706-9c61-792e6b696361,rev?*%
%TF.SameCoordinates,Original*%
%TF.FileFunction,Drillmap*%
%TF.FilePolarity,Positive*%
%FSLAX45Y45*%
G04 Gerber Fmt 4.5, Leading zero omitted, Abs format (unit mm)*
G04 Created by KiCad (PCBNEW 7.0.1) date 2023-03-22 01:49:55*
%MOMM*%
%LPD*%
G01*
G04 APERTURE LIST*
%ADD10C,0.050000*%
%ADD11C,0.200000*%
%ADD12C,0.030000*%
%ADD13C,0.040000*%
%ADD14C,0.060000*%
%ADD15C,0.076200*%
%ADD16C,0.100000*%
%ADD17C,0.110000*%
G04 APERTURE END LIST*
D10*
X8517000Y-8465000D02*
X8517000Y-4965000D01*
X16517000Y-8465000D02*
X8517000Y-8465000D01*
X8517000Y-4965000D02*
X16517000Y-4965000D01*
X16517000Y-4965000D02*
X16517000Y-8465000D01*
D11*
D12*
X9332200Y-6524800D02*
X9362200Y-6554800D01*
X9362200Y-6524800D02*
X9332200Y-6554800D01*
X9367000Y-6850000D02*
X9397000Y-6880000D01*
X9397000Y-6850000D02*
X9367000Y-6880000D01*
X9437000Y-6150000D02*
X9467000Y-6180000D01*
X9467000Y-6150000D02*
X9437000Y-6180000D01*
X9437000Y-7190000D02*
X9467000Y-7220000D01*
X9467000Y-7190000D02*
X9437000Y-7220000D01*
X9707000Y-6040000D02*
X9737000Y-6070000D01*
X9737000Y-6040000D02*
X9707000Y-6070000D01*
X10280000Y-5297000D02*
X10310000Y-5327000D01*
X10310000Y-5297000D02*
X10280000Y-5327000D01*
X10280000Y-5610000D02*
X10310000Y-5640000D01*
X10310000Y-5610000D02*
X10280000Y-5640000D01*
X10587000Y-5690000D02*
X10617000Y-5720000D01*
X10617000Y-5690000D02*
X10587000Y-5720000D01*
X10647000Y-5784950D02*
X10677000Y-5814950D01*
X10677000Y-5784950D02*
X10647000Y-5814950D01*
X10737000Y-7670000D02*
X10767000Y-7700000D01*
X10767000Y-7670000D02*
X10737000Y-7700000D01*
X10876858Y-6832858D02*
X10906858Y-6862858D01*
X10906858Y-6832858D02*
X10876858Y-6862858D01*
X10957000Y-6460000D02*
X10987000Y-6490000D01*
X10987000Y-6460000D02*
X10957000Y-6490000D01*
X11062135Y-6189943D02*
X11092135Y-6219943D01*
X11092135Y-6189943D02*
X11062135Y-6219943D01*
X11066600Y-6070400D02*
X11096600Y-6100400D01*
X11096600Y-6070400D02*
X11066600Y-6100400D01*
X11379000Y-6649200D02*
X11409000Y-6679200D01*
X11409000Y-6649200D02*
X11379000Y-6679200D01*
X11526325Y-6540675D02*
X11556325Y-6570675D01*
X11556325Y-6540675D02*
X11526325Y-6570675D01*
X11607000Y-5470000D02*
X11637000Y-5500000D01*
X11637000Y-5470000D02*
X11607000Y-5500000D01*
X11617000Y-6489950D02*
X11647000Y-6519950D01*
X11647000Y-6489950D02*
X11617000Y-6519950D01*
X11697000Y-6430000D02*
X11727000Y-6460000D01*
X11727000Y-6430000D02*
X11697000Y-6460000D01*
X11731150Y-6354150D02*
X11761150Y-6384150D01*
X11761150Y-6354150D02*
X11731150Y-6384150D01*
X11817000Y-6050350D02*
X11847000Y-6080350D01*
X11847000Y-6050350D02*
X11817000Y-6080350D01*
X11825818Y-6170300D02*
X11855818Y-6200300D01*
X11855818Y-6170300D02*
X11825818Y-6200300D01*
X11885768Y-6091129D02*
X11915768Y-6121129D01*
X11915768Y-6091129D02*
X11885768Y-6121129D01*
X12087000Y-5790000D02*
X12117000Y-5820000D01*
X12117000Y-5790000D02*
X12087000Y-5820000D01*
X12087000Y-6137500D02*
X12117000Y-6167500D01*
X12117000Y-6137500D02*
X12087000Y-6167500D01*
X12627000Y-5960000D02*
X12657000Y-5990000D01*
X12657000Y-5960000D02*
X12627000Y-5990000D01*
X15037000Y-5475000D02*
X15067000Y-5505000D01*
X15067000Y-5475000D02*
X15037000Y-5505000D01*
X15214200Y-5242800D02*
X15244200Y-5272800D01*
X15244200Y-5242800D02*
X15214200Y-5272800D01*
X15214200Y-5717200D02*
X15244200Y-5747200D01*
X15244200Y-5717200D02*
X15214200Y-5747200D01*
X15507000Y-5630000D02*
X15537000Y-5660000D01*
X15537000Y-5630000D02*
X15507000Y-5660000D01*
D13*
X9412000Y-6335000D02*
G75*
G03*
X9412000Y-6335000I-20000J0D01*
G01*
X10512000Y-6415000D02*
G75*
G03*
X10512000Y-6415000I-20000J0D01*
G01*
X10512000Y-7455000D02*
G75*
G03*
X10512000Y-7455000I-20000J0D01*
G01*
X10630900Y-7349600D02*
G75*
G03*
X10630900Y-7349600I-20000J0D01*
G01*
X11232000Y-5905000D02*
G75*
G03*
X11232000Y-5905000I-20000J0D01*
G01*
X11242000Y-6145000D02*
G75*
G03*
X11242000Y-6145000I-20000J0D01*
G01*
X11359400Y-6025400D02*
G75*
G03*
X11359400Y-6025400I-20000J0D01*
G01*
X11482000Y-5905000D02*
G75*
G03*
X11482000Y-5905000I-20000J0D01*
G01*
X11482000Y-6145000D02*
G75*
G03*
X11482000Y-6145000I-20000J0D01*
G01*
X12502000Y-5235000D02*
G75*
G03*
X12502000Y-5235000I-20000J0D01*
G01*
X14002000Y-7085000D02*
G75*
G03*
X14002000Y-7085000I-20000J0D01*
G01*
X15767000Y-6225000D02*
G75*
G03*
X15767000Y-6225000I-20000J0D01*
G01*
D14*
X8771900Y-6253000D02*
X8771900Y-6313000D01*
X8741900Y-6283000D02*
X8801900Y-6283000D01*
D11*
X8731900Y-6313000D02*
X8811900Y-6313000D01*
X8811900Y-6313000D02*
G75*
G03*
X8811900Y-6253000I0J30000D01*
G01*
X8811900Y-6253000D02*
X8731900Y-6253000D01*
X8731900Y-6253000D02*
G75*
G03*
X8731900Y-6313000I0J-30000D01*
G01*
D14*
X8771900Y-7117000D02*
X8771900Y-7177000D01*
X8741900Y-7147000D02*
X8801900Y-7147000D01*
D11*
X8731900Y-7177000D02*
X8811900Y-7177000D01*
X8811900Y-7177000D02*
G75*
G03*
X8811900Y-7117000I0J30000D01*
G01*
X8811900Y-7117000D02*
X8731900Y-7117000D01*
X8731900Y-7117000D02*
G75*
G03*
X8731900Y-7177000I0J-30000D01*
G01*
D14*
X9191900Y-6253000D02*
X9191900Y-6313000D01*
X9161900Y-6283000D02*
X9221900Y-6283000D01*
D11*
X9136900Y-6313000D02*
X9246900Y-6313000D01*
X9246900Y-6313000D02*
G75*
G03*
X9246900Y-6253000I0J30000D01*
G01*
X9246900Y-6253000D02*
X9136900Y-6253000D01*
X9136900Y-6253000D02*
G75*
G03*
X9136900Y-6313000I0J-30000D01*
G01*
D14*
X9191900Y-7117000D02*
X9191900Y-7177000D01*
X9161900Y-7147000D02*
X9221900Y-7147000D01*
D11*
X9136900Y-7177000D02*
X9246900Y-7177000D01*
X9246900Y-7177000D02*
G75*
G03*
X9246900Y-7117000I0J30000D01*
G01*
X9246900Y-7117000D02*
X9136900Y-7117000D01*
X9136900Y-7117000D02*
G75*
G03*
X9136900Y-7177000I0J-30000D01*
G01*
D15*
X10992941Y-5311941D02*
X10992941Y-5258059D01*
X10939059Y-5258059D01*
X10939059Y-5311941D01*
X10992941Y-5311941D01*
X11246941Y-5311941D02*
X11246941Y-5258059D01*
X11193059Y-5258059D01*
X11193059Y-5311941D01*
X11246941Y-5311941D01*
X11500941Y-5311941D02*
X11500941Y-5258059D01*
X11447059Y-5258059D01*
X11447059Y-5311941D01*
X11500941Y-5311941D01*
X11754941Y-5311941D02*
X11754941Y-5258059D01*
X11701059Y-5258059D01*
X11701059Y-5311941D01*
X11754941Y-5311941D01*
D16*
X9641400Y-6358600D02*
X9691400Y-6308600D01*
X9641400Y-6258600D01*
X9591400Y-6308600D01*
X9641400Y-6358600D01*
X9641400Y-6612600D02*
X9691400Y-6562600D01*
X9641400Y-6512600D01*
X9591400Y-6562600D01*
X9641400Y-6612600D01*
X9641400Y-6866600D02*
X9691400Y-6816600D01*
X9641400Y-6766600D01*
X9591400Y-6816600D01*
X9641400Y-6866600D01*
X9641400Y-7120600D02*
X9691400Y-7070600D01*
X9641400Y-7020600D01*
X9591400Y-7070600D01*
X9641400Y-7120600D01*
X10022400Y-6942800D02*
X10072400Y-6892800D01*
X10022400Y-6842800D01*
X9972400Y-6892800D01*
X10022400Y-6942800D01*
X10276400Y-6942800D02*
X10326400Y-6892800D01*
X10276400Y-6842800D01*
X10226400Y-6892800D01*
X10276400Y-6942800D01*
X10530400Y-6942800D02*
X10580400Y-6892800D01*
X10530400Y-6842800D01*
X10480400Y-6892800D01*
X10530400Y-6942800D01*
X11095400Y-7069800D02*
X11145400Y-7019800D01*
X11095400Y-6969800D01*
X11045400Y-7019800D01*
X11095400Y-7069800D01*
X11349400Y-7069800D02*
X11399400Y-7019800D01*
X11349400Y-6969800D01*
X11299400Y-7019800D01*
X11349400Y-7069800D01*
X11603400Y-7069800D02*
X11653400Y-7019800D01*
X11603400Y-6969800D01*
X11553400Y-7019800D01*
X11603400Y-7069800D01*
X15057500Y-6094500D02*
X15107500Y-6044500D01*
X15057500Y-5994500D01*
X15007500Y-6044500D01*
X15057500Y-6094500D01*
X15311500Y-6094500D02*
X15361500Y-6044500D01*
X15311500Y-5994500D01*
X15261500Y-6044500D01*
X15311500Y-6094500D01*
D17*
X14137000Y-5960000D02*
X14247000Y-6070000D01*
X14247000Y-5960000D02*
X14137000Y-6070000D01*
X14247000Y-6015000D02*
G75*
G03*
X14247000Y-6015000I-55000J0D01*
G01*
X14137000Y-7410000D02*
X14247000Y-7520000D01*
X14247000Y-7410000D02*
X14137000Y-7520000D01*
X14247000Y-7465000D02*
G75*
G03*
X14247000Y-7465000I-55000J0D01*
G01*
X14387000Y-7410000D02*
X14497000Y-7520000D01*
X14497000Y-7410000D02*
X14387000Y-7520000D01*
X14497000Y-7465000D02*
G75*
G03*
X14497000Y-7465000I-55000J0D01*
G01*
X14637000Y-5960000D02*
X14747000Y-6070000D01*
X14747000Y-5960000D02*
X14637000Y-6070000D01*
X14747000Y-6015000D02*
G75*
G03*
X14747000Y-6015000I-55000J0D01*
G01*
X14637000Y-7410000D02*
X14747000Y-7520000D01*
X14747000Y-7410000D02*
X14637000Y-7520000D01*
X14747000Y-7465000D02*
G75*
G03*
X14747000Y-7465000I-55000J0D01*
G01*
X15612000Y-6935000D02*
X15722000Y-7045000D01*
X15722000Y-6935000D02*
X15612000Y-7045000D01*
X15722000Y-6990000D02*
G75*
G03*
X15722000Y-6990000I-55000J0D01*
G01*
X15612000Y-7385000D02*
X15722000Y-7495000D01*
X15722000Y-7385000D02*
X15612000Y-7495000D01*
X15722000Y-7440000D02*
G75*
G03*
X15722000Y-7440000I-55000J0D01*
G01*
X16262000Y-6935000D02*
X16372000Y-7045000D01*
X16372000Y-6935000D02*
X16262000Y-7045000D01*
X16372000Y-6990000D02*
G75*
G03*
X16372000Y-6990000I-55000J0D01*
G01*
X16262000Y-7385000D02*
X16372000Y-7495000D01*
X16372000Y-7385000D02*
X16262000Y-7495000D01*
X16372000Y-7440000D02*
G75*
G03*
X16372000Y-7440000I-55000J0D01*
G01*
D11*
X13834000Y-6615000D02*
X14034000Y-6815000D01*
X14034000Y-6615000D02*
X13834000Y-6815000D01*
X13934000Y-6615000D02*
X13934000Y-6815000D01*
X13834000Y-6715000D02*
X14034000Y-6715000D01*
X13834000Y-6665000D02*
X13834000Y-6765000D01*
X13834000Y-6765000D02*
G75*
G03*
X14034000Y-6765000I100000J0D01*
G01*
X14034000Y-6765000D02*
X14034000Y-6665000D01*
X14034000Y-6665000D02*
G75*
G03*
X13834000Y-6665000I-100000J0D01*
G01*
X14850000Y-6615000D02*
X15050000Y-6815000D01*
X15050000Y-6615000D02*
X14850000Y-6815000D01*
X14950000Y-6615000D02*
X14950000Y-6815000D01*
X14850000Y-6715000D02*
X15050000Y-6715000D01*
X15050000Y-6765000D02*
X15050000Y-6665000D01*
X15050000Y-6665000D02*
G75*
G03*
X14850000Y-6665000I-100000J0D01*
G01*
X14850000Y-6665000D02*
X14850000Y-6765000D01*
X14850000Y-6765000D02*
G75*
G03*
X15050000Y-6765000I100000J0D01*
G01*
X8762119Y-8780024D02*
X8762119Y-8580024D01*
X8762119Y-8580024D02*
X8809738Y-8580024D01*
X8809738Y-8580024D02*
X8838310Y-8589548D01*
X8838310Y-8589548D02*
X8857357Y-8608595D01*
X8857357Y-8608595D02*
X8866881Y-8627643D01*
X8866881Y-8627643D02*
X8876405Y-8665738D01*
X8876405Y-8665738D02*
X8876405Y-8694310D01*
X8876405Y-8694310D02*
X8866881Y-8732405D01*
X8866881Y-8732405D02*
X8857357Y-8751452D01*
X8857357Y-8751452D02*
X8838310Y-8770500D01*
X8838310Y-8770500D02*
X8809738Y-8780024D01*
X8809738Y-8780024D02*
X8762119Y-8780024D01*
X8962119Y-8780024D02*
X8962119Y-8646690D01*
X8962119Y-8684786D02*
X8971643Y-8665738D01*
X8971643Y-8665738D02*
X8981167Y-8656214D01*
X8981167Y-8656214D02*
X9000214Y-8646690D01*
X9000214Y-8646690D02*
X9019262Y-8646690D01*
X9085929Y-8780024D02*
X9085929Y-8646690D01*
X9085929Y-8580024D02*
X9076405Y-8589548D01*
X9076405Y-8589548D02*
X9085929Y-8599071D01*
X9085929Y-8599071D02*
X9095452Y-8589548D01*
X9095452Y-8589548D02*
X9085929Y-8580024D01*
X9085929Y-8580024D02*
X9085929Y-8599071D01*
X9209738Y-8780024D02*
X9190690Y-8770500D01*
X9190690Y-8770500D02*
X9181167Y-8751452D01*
X9181167Y-8751452D02*
X9181167Y-8580024D01*
X9314500Y-8780024D02*
X9295452Y-8770500D01*
X9295452Y-8770500D02*
X9285929Y-8751452D01*
X9285929Y-8751452D02*
X9285929Y-8580024D01*
X9543071Y-8780024D02*
X9543071Y-8580024D01*
X9543071Y-8580024D02*
X9609738Y-8722881D01*
X9609738Y-8722881D02*
X9676405Y-8580024D01*
X9676405Y-8580024D02*
X9676405Y-8780024D01*
X9857357Y-8780024D02*
X9857357Y-8675262D01*
X9857357Y-8675262D02*
X9847833Y-8656214D01*
X9847833Y-8656214D02*
X9828786Y-8646690D01*
X9828786Y-8646690D02*
X9790690Y-8646690D01*
X9790690Y-8646690D02*
X9771643Y-8656214D01*
X9857357Y-8770500D02*
X9838310Y-8780024D01*
X9838310Y-8780024D02*
X9790690Y-8780024D01*
X9790690Y-8780024D02*
X9771643Y-8770500D01*
X9771643Y-8770500D02*
X9762119Y-8751452D01*
X9762119Y-8751452D02*
X9762119Y-8732405D01*
X9762119Y-8732405D02*
X9771643Y-8713357D01*
X9771643Y-8713357D02*
X9790690Y-8703833D01*
X9790690Y-8703833D02*
X9838310Y-8703833D01*
X9838310Y-8703833D02*
X9857357Y-8694310D01*
X9952595Y-8646690D02*
X9952595Y-8846690D01*
X9952595Y-8656214D02*
X9971643Y-8646690D01*
X9971643Y-8646690D02*
X10009738Y-8646690D01*
X10009738Y-8646690D02*
X10028786Y-8656214D01*
X10028786Y-8656214D02*
X10038310Y-8665738D01*
X10038310Y-8665738D02*
X10047833Y-8684786D01*
X10047833Y-8684786D02*
X10047833Y-8741929D01*
X10047833Y-8741929D02*
X10038310Y-8760976D01*
X10038310Y-8760976D02*
X10028786Y-8770500D01*
X10028786Y-8770500D02*
X10009738Y-8780024D01*
X10009738Y-8780024D02*
X9971643Y-8780024D01*
X9971643Y-8780024D02*
X9952595Y-8770500D01*
X10133548Y-8760976D02*
X10143071Y-8770500D01*
X10143071Y-8770500D02*
X10133548Y-8780024D01*
X10133548Y-8780024D02*
X10124024Y-8770500D01*
X10124024Y-8770500D02*
X10133548Y-8760976D01*
X10133548Y-8760976D02*
X10133548Y-8780024D01*
X10133548Y-8656214D02*
X10143071Y-8665738D01*
X10143071Y-8665738D02*
X10133548Y-8675262D01*
X10133548Y-8675262D02*
X10124024Y-8665738D01*
X10124024Y-8665738D02*
X10133548Y-8656214D01*
X10133548Y-8656214D02*
X10133548Y-8675262D01*
D12*
X8484500Y-9092500D02*
X8514500Y-9122500D01*
X8514500Y-9092500D02*
X8484500Y-9122500D01*
D11*
X8800214Y-9000024D02*
X8819262Y-9000024D01*
X8819262Y-9000024D02*
X8838310Y-9009548D01*
X8838310Y-9009548D02*
X8847833Y-9019071D01*
X8847833Y-9019071D02*
X8857357Y-9038119D01*
X8857357Y-9038119D02*
X8866881Y-9076214D01*
X8866881Y-9076214D02*
X8866881Y-9123833D01*
X8866881Y-9123833D02*
X8857357Y-9161929D01*
X8857357Y-9161929D02*
X8847833Y-9180976D01*
X8847833Y-9180976D02*
X8838310Y-9190500D01*
X8838310Y-9190500D02*
X8819262Y-9200024D01*
X8819262Y-9200024D02*
X8800214Y-9200024D01*
X8800214Y-9200024D02*
X8781167Y-9190500D01*
X8781167Y-9190500D02*
X8771643Y-9180976D01*
X8771643Y-9180976D02*
X8762119Y-9161929D01*
X8762119Y-9161929D02*
X8752595Y-9123833D01*
X8752595Y-9123833D02*
X8752595Y-9076214D01*
X8752595Y-9076214D02*
X8762119Y-9038119D01*
X8762119Y-9038119D02*
X8771643Y-9019071D01*
X8771643Y-9019071D02*
X8781167Y-9009548D01*
X8781167Y-9009548D02*
X8800214Y-9000024D01*
X8952595Y-9180976D02*
X8962119Y-9190500D01*
X8962119Y-9190500D02*
X8952595Y-9200024D01*
X8952595Y-9200024D02*
X8943071Y-9190500D01*
X8943071Y-9190500D02*
X8952595Y-9180976D01*
X8952595Y-9180976D02*
X8952595Y-9200024D01*
X9028786Y-9000024D02*
X9152595Y-9000024D01*
X9152595Y-9000024D02*
X9085929Y-9076214D01*
X9085929Y-9076214D02*
X9114500Y-9076214D01*
X9114500Y-9076214D02*
X9133548Y-9085738D01*
X9133548Y-9085738D02*
X9143071Y-9095262D01*
X9143071Y-9095262D02*
X9152595Y-9114310D01*
X9152595Y-9114310D02*
X9152595Y-9161929D01*
X9152595Y-9161929D02*
X9143071Y-9180976D01*
X9143071Y-9180976D02*
X9133548Y-9190500D01*
X9133548Y-9190500D02*
X9114500Y-9200024D01*
X9114500Y-9200024D02*
X9057357Y-9200024D01*
X9057357Y-9200024D02*
X9038310Y-9190500D01*
X9038310Y-9190500D02*
X9028786Y-9180976D01*
X9276405Y-9000024D02*
X9295452Y-9000024D01*
X9295452Y-9000024D02*
X9314500Y-9009548D01*
X9314500Y-9009548D02*
X9324024Y-9019071D01*
X9324024Y-9019071D02*
X9333548Y-9038119D01*
X9333548Y-9038119D02*
X9343071Y-9076214D01*
X9343071Y-9076214D02*
X9343071Y-9123833D01*
X9343071Y-9123833D02*
X9333548Y-9161929D01*
X9333548Y-9161929D02*
X9324024Y-9180976D01*
X9324024Y-9180976D02*
X9314500Y-9190500D01*
X9314500Y-9190500D02*
X9295452Y-9200024D01*
X9295452Y-9200024D02*
X9276405Y-9200024D01*
X9276405Y-9200024D02*
X9257357Y-9190500D01*
X9257357Y-9190500D02*
X9247833Y-9180976D01*
X9247833Y-9180976D02*
X9238310Y-9161929D01*
X9238310Y-9161929D02*
X9228786Y-9123833D01*
X9228786Y-9123833D02*
X9228786Y-9076214D01*
X9228786Y-9076214D02*
X9238310Y-9038119D01*
X9238310Y-9038119D02*
X9247833Y-9019071D01*
X9247833Y-9019071D02*
X9257357Y-9009548D01*
X9257357Y-9009548D02*
X9276405Y-9000024D01*
X9466881Y-9000024D02*
X9485929Y-9000024D01*
X9485929Y-9000024D02*
X9504976Y-9009548D01*
X9504976Y-9009548D02*
X9514500Y-9019071D01*
X9514500Y-9019071D02*
X9524024Y-9038119D01*
X9524024Y-9038119D02*
X9533548Y-9076214D01*
X9533548Y-9076214D02*
X9533548Y-9123833D01*
X9533548Y-9123833D02*
X9524024Y-9161929D01*
X9524024Y-9161929D02*
X9514500Y-9180976D01*
X9514500Y-9180976D02*
X9504976Y-9190500D01*
X9504976Y-9190500D02*
X9485929Y-9200024D01*
X9485929Y-9200024D02*
X9466881Y-9200024D01*
X9466881Y-9200024D02*
X9447833Y-9190500D01*
X9447833Y-9190500D02*
X9438310Y-9180976D01*
X9438310Y-9180976D02*
X9428786Y-9161929D01*
X9428786Y-9161929D02*
X9419262Y-9123833D01*
X9419262Y-9123833D02*
X9419262Y-9076214D01*
X9419262Y-9076214D02*
X9428786Y-9038119D01*
X9428786Y-9038119D02*
X9438310Y-9019071D01*
X9438310Y-9019071D02*
X9447833Y-9009548D01*
X9447833Y-9009548D02*
X9466881Y-9000024D01*
X9619262Y-9200024D02*
X9619262Y-9066690D01*
X9619262Y-9085738D02*
X9628786Y-9076214D01*
X9628786Y-9076214D02*
X9647833Y-9066690D01*
X9647833Y-9066690D02*
X9676405Y-9066690D01*
X9676405Y-9066690D02*
X9695452Y-9076214D01*
X9695452Y-9076214D02*
X9704976Y-9095262D01*
X9704976Y-9095262D02*
X9704976Y-9200024D01*
X9704976Y-9095262D02*
X9714500Y-9076214D01*
X9714500Y-9076214D02*
X9733548Y-9066690D01*
X9733548Y-9066690D02*
X9762119Y-9066690D01*
X9762119Y-9066690D02*
X9781167Y-9076214D01*
X9781167Y-9076214D02*
X9790691Y-9095262D01*
X9790691Y-9095262D02*
X9790691Y-9200024D01*
X9885929Y-9200024D02*
X9885929Y-9066690D01*
X9885929Y-9085738D02*
X9895452Y-9076214D01*
X9895452Y-9076214D02*
X9914500Y-9066690D01*
X9914500Y-9066690D02*
X9943072Y-9066690D01*
X9943072Y-9066690D02*
X9962119Y-9076214D01*
X9962119Y-9076214D02*
X9971643Y-9095262D01*
X9971643Y-9095262D02*
X9971643Y-9200024D01*
X9971643Y-9095262D02*
X9981167Y-9076214D01*
X9981167Y-9076214D02*
X10000214Y-9066690D01*
X10000214Y-9066690D02*
X10028786Y-9066690D01*
X10028786Y-9066690D02*
X10047833Y-9076214D01*
X10047833Y-9076214D02*
X10057357Y-9095262D01*
X10057357Y-9095262D02*
X10057357Y-9200024D01*
X10447833Y-8990500D02*
X10276405Y-9247643D01*
X10704976Y-9000024D02*
X10724024Y-9000024D01*
X10724024Y-9000024D02*
X10743072Y-9009548D01*
X10743072Y-9009548D02*
X10752595Y-9019071D01*
X10752595Y-9019071D02*
X10762119Y-9038119D01*
X10762119Y-9038119D02*
X10771643Y-9076214D01*
X10771643Y-9076214D02*
X10771643Y-9123833D01*
X10771643Y-9123833D02*
X10762119Y-9161929D01*
X10762119Y-9161929D02*
X10752595Y-9180976D01*
X10752595Y-9180976D02*
X10743072Y-9190500D01*
X10743072Y-9190500D02*
X10724024Y-9200024D01*
X10724024Y-9200024D02*
X10704976Y-9200024D01*
X10704976Y-9200024D02*
X10685929Y-9190500D01*
X10685929Y-9190500D02*
X10676405Y-9180976D01*
X10676405Y-9180976D02*
X10666881Y-9161929D01*
X10666881Y-9161929D02*
X10657357Y-9123833D01*
X10657357Y-9123833D02*
X10657357Y-9076214D01*
X10657357Y-9076214D02*
X10666881Y-9038119D01*
X10666881Y-9038119D02*
X10676405Y-9019071D01*
X10676405Y-9019071D02*
X10685929Y-9009548D01*
X10685929Y-9009548D02*
X10704976Y-9000024D01*
X10857357Y-9180976D02*
X10866881Y-9190500D01*
X10866881Y-9190500D02*
X10857357Y-9200024D01*
X10857357Y-9200024D02*
X10847834Y-9190500D01*
X10847834Y-9190500D02*
X10857357Y-9180976D01*
X10857357Y-9180976D02*
X10857357Y-9200024D01*
X10990691Y-9000024D02*
X11009738Y-9000024D01*
X11009738Y-9000024D02*
X11028786Y-9009548D01*
X11028786Y-9009548D02*
X11038310Y-9019071D01*
X11038310Y-9019071D02*
X11047834Y-9038119D01*
X11047834Y-9038119D02*
X11057357Y-9076214D01*
X11057357Y-9076214D02*
X11057357Y-9123833D01*
X11057357Y-9123833D02*
X11047834Y-9161929D01*
X11047834Y-9161929D02*
X11038310Y-9180976D01*
X11038310Y-9180976D02*
X11028786Y-9190500D01*
X11028786Y-9190500D02*
X11009738Y-9200024D01*
X11009738Y-9200024D02*
X10990691Y-9200024D01*
X10990691Y-9200024D02*
X10971643Y-9190500D01*
X10971643Y-9190500D02*
X10962119Y-9180976D01*
X10962119Y-9180976D02*
X10952595Y-9161929D01*
X10952595Y-9161929D02*
X10943072Y-9123833D01*
X10943072Y-9123833D02*
X10943072Y-9076214D01*
X10943072Y-9076214D02*
X10952595Y-9038119D01*
X10952595Y-9038119D02*
X10962119Y-9019071D01*
X10962119Y-9019071D02*
X10971643Y-9009548D01*
X10971643Y-9009548D02*
X10990691Y-9000024D01*
X11247833Y-9200024D02*
X11133548Y-9200024D01*
X11190691Y-9200024D02*
X11190691Y-9000024D01*
X11190691Y-9000024D02*
X11171643Y-9028595D01*
X11171643Y-9028595D02*
X11152595Y-9047643D01*
X11152595Y-9047643D02*
X11133548Y-9057167D01*
X11438310Y-9200024D02*
X11324024Y-9200024D01*
X11381167Y-9200024D02*
X11381167Y-9000024D01*
X11381167Y-9000024D02*
X11362119Y-9028595D01*
X11362119Y-9028595D02*
X11343072Y-9047643D01*
X11343072Y-9047643D02*
X11324024Y-9057167D01*
X11552595Y-9085738D02*
X11533548Y-9076214D01*
X11533548Y-9076214D02*
X11524024Y-9066690D01*
X11524024Y-9066690D02*
X11514500Y-9047643D01*
X11514500Y-9047643D02*
X11514500Y-9038119D01*
X11514500Y-9038119D02*
X11524024Y-9019071D01*
X11524024Y-9019071D02*
X11533548Y-9009548D01*
X11533548Y-9009548D02*
X11552595Y-9000024D01*
X11552595Y-9000024D02*
X11590691Y-9000024D01*
X11590691Y-9000024D02*
X11609738Y-9009548D01*
X11609738Y-9009548D02*
X11619262Y-9019071D01*
X11619262Y-9019071D02*
X11628786Y-9038119D01*
X11628786Y-9038119D02*
X11628786Y-9047643D01*
X11628786Y-9047643D02*
X11619262Y-9066690D01*
X11619262Y-9066690D02*
X11609738Y-9076214D01*
X11609738Y-9076214D02*
X11590691Y-9085738D01*
X11590691Y-9085738D02*
X11552595Y-9085738D01*
X11552595Y-9085738D02*
X11533548Y-9095262D01*
X11533548Y-9095262D02*
X11524024Y-9104786D01*
X11524024Y-9104786D02*
X11514500Y-9123833D01*
X11514500Y-9123833D02*
X11514500Y-9161929D01*
X11514500Y-9161929D02*
X11524024Y-9180976D01*
X11524024Y-9180976D02*
X11533548Y-9190500D01*
X11533548Y-9190500D02*
X11552595Y-9200024D01*
X11552595Y-9200024D02*
X11590691Y-9200024D01*
X11590691Y-9200024D02*
X11609738Y-9190500D01*
X11609738Y-9190500D02*
X11619262Y-9180976D01*
X11619262Y-9180976D02*
X11628786Y-9161929D01*
X11628786Y-9161929D02*
X11628786Y-9123833D01*
X11628786Y-9123833D02*
X11619262Y-9104786D01*
X11619262Y-9104786D02*
X11609738Y-9095262D01*
X11609738Y-9095262D02*
X11590691Y-9085738D01*
X11704976Y-9000024D02*
X11704976Y-9038119D01*
X11781167Y-9000024D02*
X11781167Y-9038119D01*
X12076405Y-9276214D02*
X12066881Y-9266690D01*
X12066881Y-9266690D02*
X12047834Y-9238119D01*
X12047834Y-9238119D02*
X12038310Y-9219071D01*
X12038310Y-9219071D02*
X12028786Y-9190500D01*
X12028786Y-9190500D02*
X12019262Y-9142881D01*
X12019262Y-9142881D02*
X12019262Y-9104786D01*
X12019262Y-9104786D02*
X12028786Y-9057167D01*
X12028786Y-9057167D02*
X12038310Y-9028595D01*
X12038310Y-9028595D02*
X12047834Y-9009548D01*
X12047834Y-9009548D02*
X12066881Y-8980976D01*
X12066881Y-8980976D02*
X12076405Y-8971452D01*
X12133548Y-9000024D02*
X12257357Y-9000024D01*
X12257357Y-9000024D02*
X12190691Y-9076214D01*
X12190691Y-9076214D02*
X12219262Y-9076214D01*
X12219262Y-9076214D02*
X12238310Y-9085738D01*
X12238310Y-9085738D02*
X12247834Y-9095262D01*
X12247834Y-9095262D02*
X12257357Y-9114310D01*
X12257357Y-9114310D02*
X12257357Y-9161929D01*
X12257357Y-9161929D02*
X12247834Y-9180976D01*
X12247834Y-9180976D02*
X12238310Y-9190500D01*
X12238310Y-9190500D02*
X12219262Y-9200024D01*
X12219262Y-9200024D02*
X12162119Y-9200024D01*
X12162119Y-9200024D02*
X12143072Y-9190500D01*
X12143072Y-9190500D02*
X12133548Y-9180976D01*
X12381167Y-9000024D02*
X12400215Y-9000024D01*
X12400215Y-9000024D02*
X12419262Y-9009548D01*
X12419262Y-9009548D02*
X12428786Y-9019071D01*
X12428786Y-9019071D02*
X12438310Y-9038119D01*
X12438310Y-9038119D02*
X12447834Y-9076214D01*
X12447834Y-9076214D02*
X12447834Y-9123833D01*
X12447834Y-9123833D02*
X12438310Y-9161929D01*
X12438310Y-9161929D02*
X12428786Y-9180976D01*
X12428786Y-9180976D02*
X12419262Y-9190500D01*
X12419262Y-9190500D02*
X12400215Y-9200024D01*
X12400215Y-9200024D02*
X12381167Y-9200024D01*
X12381167Y-9200024D02*
X12362119Y-9190500D01*
X12362119Y-9190500D02*
X12352595Y-9180976D01*
X12352595Y-9180976D02*
X12343072Y-9161929D01*
X12343072Y-9161929D02*
X12333548Y-9123833D01*
X12333548Y-9123833D02*
X12333548Y-9076214D01*
X12333548Y-9076214D02*
X12343072Y-9038119D01*
X12343072Y-9038119D02*
X12352595Y-9019071D01*
X12352595Y-9019071D02*
X12362119Y-9009548D01*
X12362119Y-9009548D02*
X12381167Y-9000024D01*
X12685929Y-9200024D02*
X12685929Y-9000024D01*
X12771643Y-9200024D02*
X12771643Y-9095262D01*
X12771643Y-9095262D02*
X12762119Y-9076214D01*
X12762119Y-9076214D02*
X12743072Y-9066690D01*
X12743072Y-9066690D02*
X12714500Y-9066690D01*
X12714500Y-9066690D02*
X12695453Y-9076214D01*
X12695453Y-9076214D02*
X12685929Y-9085738D01*
X12895453Y-9200024D02*
X12876405Y-9190500D01*
X12876405Y-9190500D02*
X12866881Y-9180976D01*
X12866881Y-9180976D02*
X12857357Y-9161929D01*
X12857357Y-9161929D02*
X12857357Y-9104786D01*
X12857357Y-9104786D02*
X12866881Y-9085738D01*
X12866881Y-9085738D02*
X12876405Y-9076214D01*
X12876405Y-9076214D02*
X12895453Y-9066690D01*
X12895453Y-9066690D02*
X12924024Y-9066690D01*
X12924024Y-9066690D02*
X12943072Y-9076214D01*
X12943072Y-9076214D02*
X12952596Y-9085738D01*
X12952596Y-9085738D02*
X12962119Y-9104786D01*
X12962119Y-9104786D02*
X12962119Y-9161929D01*
X12962119Y-9161929D02*
X12952596Y-9180976D01*
X12952596Y-9180976D02*
X12943072Y-9190500D01*
X12943072Y-9190500D02*
X12924024Y-9200024D01*
X12924024Y-9200024D02*
X12895453Y-9200024D01*
X13076405Y-9200024D02*
X13057357Y-9190500D01*
X13057357Y-9190500D02*
X13047834Y-9171452D01*
X13047834Y-9171452D02*
X13047834Y-9000024D01*
X13228786Y-9190500D02*
X13209738Y-9200024D01*
X13209738Y-9200024D02*
X13171643Y-9200024D01*
X13171643Y-9200024D02*
X13152596Y-9190500D01*
X13152596Y-9190500D02*
X13143072Y-9171452D01*
X13143072Y-9171452D02*
X13143072Y-9095262D01*
X13143072Y-9095262D02*
X13152596Y-9076214D01*
X13152596Y-9076214D02*
X13171643Y-9066690D01*
X13171643Y-9066690D02*
X13209738Y-9066690D01*
X13209738Y-9066690D02*
X13228786Y-9076214D01*
X13228786Y-9076214D02*
X13238310Y-9095262D01*
X13238310Y-9095262D02*
X13238310Y-9114310D01*
X13238310Y-9114310D02*
X13143072Y-9133357D01*
X13314500Y-9190500D02*
X13333548Y-9200024D01*
X13333548Y-9200024D02*
X13371643Y-9200024D01*
X13371643Y-9200024D02*
X13390691Y-9190500D01*
X13390691Y-9190500D02*
X13400215Y-9171452D01*
X13400215Y-9171452D02*
X13400215Y-9161929D01*
X13400215Y-9161929D02*
X13390691Y-9142881D01*
X13390691Y-9142881D02*
X13371643Y-9133357D01*
X13371643Y-9133357D02*
X13343072Y-9133357D01*
X13343072Y-9133357D02*
X13324024Y-9123833D01*
X13324024Y-9123833D02*
X13314500Y-9104786D01*
X13314500Y-9104786D02*
X13314500Y-9095262D01*
X13314500Y-9095262D02*
X13324024Y-9076214D01*
X13324024Y-9076214D02*
X13343072Y-9066690D01*
X13343072Y-9066690D02*
X13371643Y-9066690D01*
X13371643Y-9066690D02*
X13390691Y-9076214D01*
X13466881Y-9276214D02*
X13476405Y-9266690D01*
X13476405Y-9266690D02*
X13495453Y-9238119D01*
X13495453Y-9238119D02*
X13504977Y-9219071D01*
X13504977Y-9219071D02*
X13514500Y-9190500D01*
X13514500Y-9190500D02*
X13524024Y-9142881D01*
X13524024Y-9142881D02*
X13524024Y-9104786D01*
X13524024Y-9104786D02*
X13514500Y-9057167D01*
X13514500Y-9057167D02*
X13504977Y-9028595D01*
X13504977Y-9028595D02*
X13495453Y-9009548D01*
X13495453Y-9009548D02*
X13476405Y-8980976D01*
X13476405Y-8980976D02*
X13466881Y-8971452D01*
D13*
X8514500Y-9371500D02*
G75*
G03*
X8514500Y-9371500I-20000J0D01*
G01*
D11*
X8800214Y-9264024D02*
X8819262Y-9264024D01*
X8819262Y-9264024D02*
X8838310Y-9273548D01*
X8838310Y-9273548D02*
X8847833Y-9283071D01*
X8847833Y-9283071D02*
X8857357Y-9302119D01*
X8857357Y-9302119D02*
X8866881Y-9340214D01*
X8866881Y-9340214D02*
X8866881Y-9387833D01*
X8866881Y-9387833D02*
X8857357Y-9425929D01*
X8857357Y-9425929D02*
X8847833Y-9444976D01*
X8847833Y-9444976D02*
X8838310Y-9454500D01*
X8838310Y-9454500D02*
X8819262Y-9464024D01*
X8819262Y-9464024D02*
X8800214Y-9464024D01*
X8800214Y-9464024D02*
X8781167Y-9454500D01*
X8781167Y-9454500D02*
X8771643Y-9444976D01*
X8771643Y-9444976D02*
X8762119Y-9425929D01*
X8762119Y-9425929D02*
X8752595Y-9387833D01*
X8752595Y-9387833D02*
X8752595Y-9340214D01*
X8752595Y-9340214D02*
X8762119Y-9302119D01*
X8762119Y-9302119D02*
X8771643Y-9283071D01*
X8771643Y-9283071D02*
X8781167Y-9273548D01*
X8781167Y-9273548D02*
X8800214Y-9264024D01*
X8952595Y-9444976D02*
X8962119Y-9454500D01*
X8962119Y-9454500D02*
X8952595Y-9464024D01*
X8952595Y-9464024D02*
X8943071Y-9454500D01*
X8943071Y-9454500D02*
X8952595Y-9444976D01*
X8952595Y-9444976D02*
X8952595Y-9464024D01*
X9133548Y-9330690D02*
X9133548Y-9464024D01*
X9085929Y-9254500D02*
X9038310Y-9397357D01*
X9038310Y-9397357D02*
X9162119Y-9397357D01*
X9276405Y-9264024D02*
X9295452Y-9264024D01*
X9295452Y-9264024D02*
X9314500Y-9273548D01*
X9314500Y-9273548D02*
X9324024Y-9283071D01*
X9324024Y-9283071D02*
X9333548Y-9302119D01*
X9333548Y-9302119D02*
X9343071Y-9340214D01*
X9343071Y-9340214D02*
X9343071Y-9387833D01*
X9343071Y-9387833D02*
X9333548Y-9425929D01*
X9333548Y-9425929D02*
X9324024Y-9444976D01*
X9324024Y-9444976D02*
X9314500Y-9454500D01*
X9314500Y-9454500D02*
X9295452Y-9464024D01*
X9295452Y-9464024D02*
X9276405Y-9464024D01*
X9276405Y-9464024D02*
X9257357Y-9454500D01*
X9257357Y-9454500D02*
X9247833Y-9444976D01*
X9247833Y-9444976D02*
X9238310Y-9425929D01*
X9238310Y-9425929D02*
X9228786Y-9387833D01*
X9228786Y-9387833D02*
X9228786Y-9340214D01*
X9228786Y-9340214D02*
X9238310Y-9302119D01*
X9238310Y-9302119D02*
X9247833Y-9283071D01*
X9247833Y-9283071D02*
X9257357Y-9273548D01*
X9257357Y-9273548D02*
X9276405Y-9264024D01*
X9466881Y-9264024D02*
X9485929Y-9264024D01*
X9485929Y-9264024D02*
X9504976Y-9273548D01*
X9504976Y-9273548D02*
X9514500Y-9283071D01*
X9514500Y-9283071D02*
X9524024Y-9302119D01*
X9524024Y-9302119D02*
X9533548Y-9340214D01*
X9533548Y-9340214D02*
X9533548Y-9387833D01*
X9533548Y-9387833D02*
X9524024Y-9425929D01*
X9524024Y-9425929D02*
X9514500Y-9444976D01*
X9514500Y-9444976D02*
X9504976Y-9454500D01*
X9504976Y-9454500D02*
X9485929Y-9464024D01*
X9485929Y-9464024D02*
X9466881Y-9464024D01*
X9466881Y-9464024D02*
X9447833Y-9454500D01*
X9447833Y-9454500D02*
X9438310Y-9444976D01*
X9438310Y-9444976D02*
X9428786Y-9425929D01*
X9428786Y-9425929D02*
X9419262Y-9387833D01*
X9419262Y-9387833D02*
X9419262Y-9340214D01*
X9419262Y-9340214D02*
X9428786Y-9302119D01*
X9428786Y-9302119D02*
X9438310Y-9283071D01*
X9438310Y-9283071D02*
X9447833Y-9273548D01*
X9447833Y-9273548D02*
X9466881Y-9264024D01*
X9619262Y-9464024D02*
X9619262Y-9330690D01*
X9619262Y-9349738D02*
X9628786Y-9340214D01*
X9628786Y-9340214D02*
X9647833Y-9330690D01*
X9647833Y-9330690D02*
X9676405Y-9330690D01*
X9676405Y-9330690D02*
X9695452Y-9340214D01*
X9695452Y-9340214D02*
X9704976Y-9359262D01*
X9704976Y-9359262D02*
X9704976Y-9464024D01*
X9704976Y-9359262D02*
X9714500Y-9340214D01*
X9714500Y-9340214D02*
X9733548Y-9330690D01*
X9733548Y-9330690D02*
X9762119Y-9330690D01*
X9762119Y-9330690D02*
X9781167Y-9340214D01*
X9781167Y-9340214D02*
X9790691Y-9359262D01*
X9790691Y-9359262D02*
X9790691Y-9464024D01*
X9885929Y-9464024D02*
X9885929Y-9330690D01*
X9885929Y-9349738D02*
X9895452Y-9340214D01*
X9895452Y-9340214D02*
X9914500Y-9330690D01*
X9914500Y-9330690D02*
X9943072Y-9330690D01*
X9943072Y-9330690D02*
X9962119Y-9340214D01*
X9962119Y-9340214D02*
X9971643Y-9359262D01*
X9971643Y-9359262D02*
X9971643Y-9464024D01*
X9971643Y-9359262D02*
X9981167Y-9340214D01*
X9981167Y-9340214D02*
X10000214Y-9330690D01*
X10000214Y-9330690D02*
X10028786Y-9330690D01*
X10028786Y-9330690D02*
X10047833Y-9340214D01*
X10047833Y-9340214D02*
X10057357Y-9359262D01*
X10057357Y-9359262D02*
X10057357Y-9464024D01*
X10447833Y-9254500D02*
X10276405Y-9511643D01*
X10704976Y-9264024D02*
X10724024Y-9264024D01*
X10724024Y-9264024D02*
X10743072Y-9273548D01*
X10743072Y-9273548D02*
X10752595Y-9283071D01*
X10752595Y-9283071D02*
X10762119Y-9302119D01*
X10762119Y-9302119D02*
X10771643Y-9340214D01*
X10771643Y-9340214D02*
X10771643Y-9387833D01*
X10771643Y-9387833D02*
X10762119Y-9425929D01*
X10762119Y-9425929D02*
X10752595Y-9444976D01*
X10752595Y-9444976D02*
X10743072Y-9454500D01*
X10743072Y-9454500D02*
X10724024Y-9464024D01*
X10724024Y-9464024D02*
X10704976Y-9464024D01*
X10704976Y-9464024D02*
X10685929Y-9454500D01*
X10685929Y-9454500D02*
X10676405Y-9444976D01*
X10676405Y-9444976D02*
X10666881Y-9425929D01*
X10666881Y-9425929D02*
X10657357Y-9387833D01*
X10657357Y-9387833D02*
X10657357Y-9340214D01*
X10657357Y-9340214D02*
X10666881Y-9302119D01*
X10666881Y-9302119D02*
X10676405Y-9283071D01*
X10676405Y-9283071D02*
X10685929Y-9273548D01*
X10685929Y-9273548D02*
X10704976Y-9264024D01*
X10857357Y-9444976D02*
X10866881Y-9454500D01*
X10866881Y-9454500D02*
X10857357Y-9464024D01*
X10857357Y-9464024D02*
X10847834Y-9454500D01*
X10847834Y-9454500D02*
X10857357Y-9444976D01*
X10857357Y-9444976D02*
X10857357Y-9464024D01*
X10990691Y-9264024D02*
X11009738Y-9264024D01*
X11009738Y-9264024D02*
X11028786Y-9273548D01*
X11028786Y-9273548D02*
X11038310Y-9283071D01*
X11038310Y-9283071D02*
X11047834Y-9302119D01*
X11047834Y-9302119D02*
X11057357Y-9340214D01*
X11057357Y-9340214D02*
X11057357Y-9387833D01*
X11057357Y-9387833D02*
X11047834Y-9425929D01*
X11047834Y-9425929D02*
X11038310Y-9444976D01*
X11038310Y-9444976D02*
X11028786Y-9454500D01*
X11028786Y-9454500D02*
X11009738Y-9464024D01*
X11009738Y-9464024D02*
X10990691Y-9464024D01*
X10990691Y-9464024D02*
X10971643Y-9454500D01*
X10971643Y-9454500D02*
X10962119Y-9444976D01*
X10962119Y-9444976D02*
X10952595Y-9425929D01*
X10952595Y-9425929D02*
X10943072Y-9387833D01*
X10943072Y-9387833D02*
X10943072Y-9340214D01*
X10943072Y-9340214D02*
X10952595Y-9302119D01*
X10952595Y-9302119D02*
X10962119Y-9283071D01*
X10962119Y-9283071D02*
X10971643Y-9273548D01*
X10971643Y-9273548D02*
X10990691Y-9264024D01*
X11247833Y-9464024D02*
X11133548Y-9464024D01*
X11190691Y-9464024D02*
X11190691Y-9264024D01*
X11190691Y-9264024D02*
X11171643Y-9292595D01*
X11171643Y-9292595D02*
X11152595Y-9311643D01*
X11152595Y-9311643D02*
X11133548Y-9321167D01*
X11428786Y-9264024D02*
X11333548Y-9264024D01*
X11333548Y-9264024D02*
X11324024Y-9359262D01*
X11324024Y-9359262D02*
X11333548Y-9349738D01*
X11333548Y-9349738D02*
X11352595Y-9340214D01*
X11352595Y-9340214D02*
X11400214Y-9340214D01*
X11400214Y-9340214D02*
X11419262Y-9349738D01*
X11419262Y-9349738D02*
X11428786Y-9359262D01*
X11428786Y-9359262D02*
X11438310Y-9378310D01*
X11438310Y-9378310D02*
X11438310Y-9425929D01*
X11438310Y-9425929D02*
X11428786Y-9444976D01*
X11428786Y-9444976D02*
X11419262Y-9454500D01*
X11419262Y-9454500D02*
X11400214Y-9464024D01*
X11400214Y-9464024D02*
X11352595Y-9464024D01*
X11352595Y-9464024D02*
X11333548Y-9454500D01*
X11333548Y-9454500D02*
X11324024Y-9444976D01*
X11504976Y-9264024D02*
X11638310Y-9264024D01*
X11638310Y-9264024D02*
X11552595Y-9464024D01*
X11704976Y-9264024D02*
X11704976Y-9302119D01*
X11781167Y-9264024D02*
X11781167Y-9302119D01*
X12076405Y-9540214D02*
X12066881Y-9530690D01*
X12066881Y-9530690D02*
X12047834Y-9502119D01*
X12047834Y-9502119D02*
X12038310Y-9483071D01*
X12038310Y-9483071D02*
X12028786Y-9454500D01*
X12028786Y-9454500D02*
X12019262Y-9406881D01*
X12019262Y-9406881D02*
X12019262Y-9368786D01*
X12019262Y-9368786D02*
X12028786Y-9321167D01*
X12028786Y-9321167D02*
X12038310Y-9292595D01*
X12038310Y-9292595D02*
X12047834Y-9273548D01*
X12047834Y-9273548D02*
X12066881Y-9244976D01*
X12066881Y-9244976D02*
X12076405Y-9235452D01*
X12257357Y-9464024D02*
X12143072Y-9464024D01*
X12200214Y-9464024D02*
X12200214Y-9264024D01*
X12200214Y-9264024D02*
X12181167Y-9292595D01*
X12181167Y-9292595D02*
X12162119Y-9311643D01*
X12162119Y-9311643D02*
X12143072Y-9321167D01*
X12333548Y-9283071D02*
X12343072Y-9273548D01*
X12343072Y-9273548D02*
X12362119Y-9264024D01*
X12362119Y-9264024D02*
X12409738Y-9264024D01*
X12409738Y-9264024D02*
X12428786Y-9273548D01*
X12428786Y-9273548D02*
X12438310Y-9283071D01*
X12438310Y-9283071D02*
X12447834Y-9302119D01*
X12447834Y-9302119D02*
X12447834Y-9321167D01*
X12447834Y-9321167D02*
X12438310Y-9349738D01*
X12438310Y-9349738D02*
X12324024Y-9464024D01*
X12324024Y-9464024D02*
X12447834Y-9464024D01*
X12685929Y-9464024D02*
X12685929Y-9264024D01*
X12771643Y-9464024D02*
X12771643Y-9359262D01*
X12771643Y-9359262D02*
X12762119Y-9340214D01*
X12762119Y-9340214D02*
X12743072Y-9330690D01*
X12743072Y-9330690D02*
X12714500Y-9330690D01*
X12714500Y-9330690D02*
X12695453Y-9340214D01*
X12695453Y-9340214D02*
X12685929Y-9349738D01*
X12895453Y-9464024D02*
X12876405Y-9454500D01*
X12876405Y-9454500D02*
X12866881Y-9444976D01*
X12866881Y-9444976D02*
X12857357Y-9425929D01*
X12857357Y-9425929D02*
X12857357Y-9368786D01*
X12857357Y-9368786D02*
X12866881Y-9349738D01*
X12866881Y-9349738D02*
X12876405Y-9340214D01*
X12876405Y-9340214D02*
X12895453Y-9330690D01*
X12895453Y-9330690D02*
X12924024Y-9330690D01*
X12924024Y-9330690D02*
X12943072Y-9340214D01*
X12943072Y-9340214D02*
X12952596Y-9349738D01*
X12952596Y-9349738D02*
X12962119Y-9368786D01*
X12962119Y-9368786D02*
X12962119Y-9425929D01*
X12962119Y-9425929D02*
X12952596Y-9444976D01*
X12952596Y-9444976D02*
X12943072Y-9454500D01*
X12943072Y-9454500D02*
X12924024Y-9464024D01*
X12924024Y-9464024D02*
X12895453Y-9464024D01*
X13076405Y-9464024D02*
X13057357Y-9454500D01*
X13057357Y-9454500D02*
X13047834Y-9435452D01*
X13047834Y-9435452D02*
X13047834Y-9264024D01*
X13228786Y-9454500D02*
X13209738Y-9464024D01*
X13209738Y-9464024D02*
X13171643Y-9464024D01*
X13171643Y-9464024D02*
X13152596Y-9454500D01*
X13152596Y-9454500D02*
X13143072Y-9435452D01*
X13143072Y-9435452D02*
X13143072Y-9359262D01*
X13143072Y-9359262D02*
X13152596Y-9340214D01*
X13152596Y-9340214D02*
X13171643Y-9330690D01*
X13171643Y-9330690D02*
X13209738Y-9330690D01*
X13209738Y-9330690D02*
X13228786Y-9340214D01*
X13228786Y-9340214D02*
X13238310Y-9359262D01*
X13238310Y-9359262D02*
X13238310Y-9378310D01*
X13238310Y-9378310D02*
X13143072Y-9397357D01*
X13314500Y-9454500D02*
X13333548Y-9464024D01*
X13333548Y-9464024D02*
X13371643Y-9464024D01*
X13371643Y-9464024D02*
X13390691Y-9454500D01*
X13390691Y-9454500D02*
X13400215Y-9435452D01*
X13400215Y-9435452D02*
X13400215Y-9425929D01*
X13400215Y-9425929D02*
X13390691Y-9406881D01*
X13390691Y-9406881D02*
X13371643Y-9397357D01*
X13371643Y-9397357D02*
X13343072Y-9397357D01*
X13343072Y-9397357D02*
X13324024Y-9387833D01*
X13324024Y-9387833D02*
X13314500Y-9368786D01*
X13314500Y-9368786D02*
X13314500Y-9359262D01*
X13314500Y-9359262D02*
X13324024Y-9340214D01*
X13324024Y-9340214D02*
X13343072Y-9330690D01*
X13343072Y-9330690D02*
X13371643Y-9330690D01*
X13371643Y-9330690D02*
X13390691Y-9340214D01*
X13466881Y-9540214D02*
X13476405Y-9530690D01*
X13476405Y-9530690D02*
X13495453Y-9502119D01*
X13495453Y-9502119D02*
X13504977Y-9483071D01*
X13504977Y-9483071D02*
X13514500Y-9454500D01*
X13514500Y-9454500D02*
X13524024Y-9406881D01*
X13524024Y-9406881D02*
X13524024Y-9368786D01*
X13524024Y-9368786D02*
X13514500Y-9321167D01*
X13514500Y-9321167D02*
X13504977Y-9292595D01*
X13504977Y-9292595D02*
X13495453Y-9273548D01*
X13495453Y-9273548D02*
X13476405Y-9244976D01*
X13476405Y-9244976D02*
X13466881Y-9235452D01*
D14*
X8484500Y-9605500D02*
X8484500Y-9665500D01*
X8454500Y-9635500D02*
X8514500Y-9635500D01*
D11*
X8800214Y-9528024D02*
X8819262Y-9528024D01*
X8819262Y-9528024D02*
X8838310Y-9537548D01*
X8838310Y-9537548D02*
X8847833Y-9547071D01*
X8847833Y-9547071D02*
X8857357Y-9566119D01*
X8857357Y-9566119D02*
X8866881Y-9604214D01*
X8866881Y-9604214D02*
X8866881Y-9651833D01*
X8866881Y-9651833D02*
X8857357Y-9689929D01*
X8857357Y-9689929D02*
X8847833Y-9708976D01*
X8847833Y-9708976D02*
X8838310Y-9718500D01*
X8838310Y-9718500D02*
X8819262Y-9728024D01*
X8819262Y-9728024D02*
X8800214Y-9728024D01*
X8800214Y-9728024D02*
X8781167Y-9718500D01*
X8781167Y-9718500D02*
X8771643Y-9708976D01*
X8771643Y-9708976D02*
X8762119Y-9689929D01*
X8762119Y-9689929D02*
X8752595Y-9651833D01*
X8752595Y-9651833D02*
X8752595Y-9604214D01*
X8752595Y-9604214D02*
X8762119Y-9566119D01*
X8762119Y-9566119D02*
X8771643Y-9547071D01*
X8771643Y-9547071D02*
X8781167Y-9537548D01*
X8781167Y-9537548D02*
X8800214Y-9528024D01*
X8952595Y-9708976D02*
X8962119Y-9718500D01*
X8962119Y-9718500D02*
X8952595Y-9728024D01*
X8952595Y-9728024D02*
X8943071Y-9718500D01*
X8943071Y-9718500D02*
X8952595Y-9708976D01*
X8952595Y-9708976D02*
X8952595Y-9728024D01*
X9133548Y-9528024D02*
X9095452Y-9528024D01*
X9095452Y-9528024D02*
X9076405Y-9537548D01*
X9076405Y-9537548D02*
X9066881Y-9547071D01*
X9066881Y-9547071D02*
X9047833Y-9575643D01*
X9047833Y-9575643D02*
X9038310Y-9613738D01*
X9038310Y-9613738D02*
X9038310Y-9689929D01*
X9038310Y-9689929D02*
X9047833Y-9708976D01*
X9047833Y-9708976D02*
X9057357Y-9718500D01*
X9057357Y-9718500D02*
X9076405Y-9728024D01*
X9076405Y-9728024D02*
X9114500Y-9728024D01*
X9114500Y-9728024D02*
X9133548Y-9718500D01*
X9133548Y-9718500D02*
X9143071Y-9708976D01*
X9143071Y-9708976D02*
X9152595Y-9689929D01*
X9152595Y-9689929D02*
X9152595Y-9642310D01*
X9152595Y-9642310D02*
X9143071Y-9623262D01*
X9143071Y-9623262D02*
X9133548Y-9613738D01*
X9133548Y-9613738D02*
X9114500Y-9604214D01*
X9114500Y-9604214D02*
X9076405Y-9604214D01*
X9076405Y-9604214D02*
X9057357Y-9613738D01*
X9057357Y-9613738D02*
X9047833Y-9623262D01*
X9047833Y-9623262D02*
X9038310Y-9642310D01*
X9276405Y-9528024D02*
X9295452Y-9528024D01*
X9295452Y-9528024D02*
X9314500Y-9537548D01*
X9314500Y-9537548D02*
X9324024Y-9547071D01*
X9324024Y-9547071D02*
X9333548Y-9566119D01*
X9333548Y-9566119D02*
X9343071Y-9604214D01*
X9343071Y-9604214D02*
X9343071Y-9651833D01*
X9343071Y-9651833D02*
X9333548Y-9689929D01*
X9333548Y-9689929D02*
X9324024Y-9708976D01*
X9324024Y-9708976D02*
X9314500Y-9718500D01*
X9314500Y-9718500D02*
X9295452Y-9728024D01*
X9295452Y-9728024D02*
X9276405Y-9728024D01*
X9276405Y-9728024D02*
X9257357Y-9718500D01*
X9257357Y-9718500D02*
X9247833Y-9708976D01*
X9247833Y-9708976D02*
X9238310Y-9689929D01*
X9238310Y-9689929D02*
X9228786Y-9651833D01*
X9228786Y-9651833D02*
X9228786Y-9604214D01*
X9228786Y-9604214D02*
X9238310Y-9566119D01*
X9238310Y-9566119D02*
X9247833Y-9547071D01*
X9247833Y-9547071D02*
X9257357Y-9537548D01*
X9257357Y-9537548D02*
X9276405Y-9528024D01*
X9466881Y-9528024D02*
X9485929Y-9528024D01*
X9485929Y-9528024D02*
X9504976Y-9537548D01*
X9504976Y-9537548D02*
X9514500Y-9547071D01*
X9514500Y-9547071D02*
X9524024Y-9566119D01*
X9524024Y-9566119D02*
X9533548Y-9604214D01*
X9533548Y-9604214D02*
X9533548Y-9651833D01*
X9533548Y-9651833D02*
X9524024Y-9689929D01*
X9524024Y-9689929D02*
X9514500Y-9708976D01*
X9514500Y-9708976D02*
X9504976Y-9718500D01*
X9504976Y-9718500D02*
X9485929Y-9728024D01*
X9485929Y-9728024D02*
X9466881Y-9728024D01*
X9466881Y-9728024D02*
X9447833Y-9718500D01*
X9447833Y-9718500D02*
X9438310Y-9708976D01*
X9438310Y-9708976D02*
X9428786Y-9689929D01*
X9428786Y-9689929D02*
X9419262Y-9651833D01*
X9419262Y-9651833D02*
X9419262Y-9604214D01*
X9419262Y-9604214D02*
X9428786Y-9566119D01*
X9428786Y-9566119D02*
X9438310Y-9547071D01*
X9438310Y-9547071D02*
X9447833Y-9537548D01*
X9447833Y-9537548D02*
X9466881Y-9528024D01*
X9619262Y-9728024D02*
X9619262Y-9594690D01*
X9619262Y-9613738D02*
X9628786Y-9604214D01*
X9628786Y-9604214D02*
X9647833Y-9594690D01*
X9647833Y-9594690D02*
X9676405Y-9594690D01*
X9676405Y-9594690D02*
X9695452Y-9604214D01*
X9695452Y-9604214D02*
X9704976Y-9623262D01*
X9704976Y-9623262D02*
X9704976Y-9728024D01*
X9704976Y-9623262D02*
X9714500Y-9604214D01*
X9714500Y-9604214D02*
X9733548Y-9594690D01*
X9733548Y-9594690D02*
X9762119Y-9594690D01*
X9762119Y-9594690D02*
X9781167Y-9604214D01*
X9781167Y-9604214D02*
X9790691Y-9623262D01*
X9790691Y-9623262D02*
X9790691Y-9728024D01*
X9885929Y-9728024D02*
X9885929Y-9594690D01*
X9885929Y-9613738D02*
X9895452Y-9604214D01*
X9895452Y-9604214D02*
X9914500Y-9594690D01*
X9914500Y-9594690D02*
X9943072Y-9594690D01*
X9943072Y-9594690D02*
X9962119Y-9604214D01*
X9962119Y-9604214D02*
X9971643Y-9623262D01*
X9971643Y-9623262D02*
X9971643Y-9728024D01*
X9971643Y-9623262D02*
X9981167Y-9604214D01*
X9981167Y-9604214D02*
X10000214Y-9594690D01*
X10000214Y-9594690D02*
X10028786Y-9594690D01*
X10028786Y-9594690D02*
X10047833Y-9604214D01*
X10047833Y-9604214D02*
X10057357Y-9623262D01*
X10057357Y-9623262D02*
X10057357Y-9728024D01*
X10447833Y-9518500D02*
X10276405Y-9775643D01*
X10704976Y-9528024D02*
X10724024Y-9528024D01*
X10724024Y-9528024D02*
X10743072Y-9537548D01*
X10743072Y-9537548D02*
X10752595Y-9547071D01*
X10752595Y-9547071D02*
X10762119Y-9566119D01*
X10762119Y-9566119D02*
X10771643Y-9604214D01*
X10771643Y-9604214D02*
X10771643Y-9651833D01*
X10771643Y-9651833D02*
X10762119Y-9689929D01*
X10762119Y-9689929D02*
X10752595Y-9708976D01*
X10752595Y-9708976D02*
X10743072Y-9718500D01*
X10743072Y-9718500D02*
X10724024Y-9728024D01*
X10724024Y-9728024D02*
X10704976Y-9728024D01*
X10704976Y-9728024D02*
X10685929Y-9718500D01*
X10685929Y-9718500D02*
X10676405Y-9708976D01*
X10676405Y-9708976D02*
X10666881Y-9689929D01*
X10666881Y-9689929D02*
X10657357Y-9651833D01*
X10657357Y-9651833D02*
X10657357Y-9604214D01*
X10657357Y-9604214D02*
X10666881Y-9566119D01*
X10666881Y-9566119D02*
X10676405Y-9547071D01*
X10676405Y-9547071D02*
X10685929Y-9537548D01*
X10685929Y-9537548D02*
X10704976Y-9528024D01*
X10857357Y-9708976D02*
X10866881Y-9718500D01*
X10866881Y-9718500D02*
X10857357Y-9728024D01*
X10857357Y-9728024D02*
X10847834Y-9718500D01*
X10847834Y-9718500D02*
X10857357Y-9708976D01*
X10857357Y-9708976D02*
X10857357Y-9728024D01*
X10990691Y-9528024D02*
X11009738Y-9528024D01*
X11009738Y-9528024D02*
X11028786Y-9537548D01*
X11028786Y-9537548D02*
X11038310Y-9547071D01*
X11038310Y-9547071D02*
X11047834Y-9566119D01*
X11047834Y-9566119D02*
X11057357Y-9604214D01*
X11057357Y-9604214D02*
X11057357Y-9651833D01*
X11057357Y-9651833D02*
X11047834Y-9689929D01*
X11047834Y-9689929D02*
X11038310Y-9708976D01*
X11038310Y-9708976D02*
X11028786Y-9718500D01*
X11028786Y-9718500D02*
X11009738Y-9728024D01*
X11009738Y-9728024D02*
X10990691Y-9728024D01*
X10990691Y-9728024D02*
X10971643Y-9718500D01*
X10971643Y-9718500D02*
X10962119Y-9708976D01*
X10962119Y-9708976D02*
X10952595Y-9689929D01*
X10952595Y-9689929D02*
X10943072Y-9651833D01*
X10943072Y-9651833D02*
X10943072Y-9604214D01*
X10943072Y-9604214D02*
X10952595Y-9566119D01*
X10952595Y-9566119D02*
X10962119Y-9547071D01*
X10962119Y-9547071D02*
X10971643Y-9537548D01*
X10971643Y-9537548D02*
X10990691Y-9528024D01*
X11133548Y-9547071D02*
X11143072Y-9537548D01*
X11143072Y-9537548D02*
X11162119Y-9528024D01*
X11162119Y-9528024D02*
X11209738Y-9528024D01*
X11209738Y-9528024D02*
X11228786Y-9537548D01*
X11228786Y-9537548D02*
X11238310Y-9547071D01*
X11238310Y-9547071D02*
X11247833Y-9566119D01*
X11247833Y-9566119D02*
X11247833Y-9585167D01*
X11247833Y-9585167D02*
X11238310Y-9613738D01*
X11238310Y-9613738D02*
X11124024Y-9728024D01*
X11124024Y-9728024D02*
X11247833Y-9728024D01*
X11314500Y-9528024D02*
X11438310Y-9528024D01*
X11438310Y-9528024D02*
X11371643Y-9604214D01*
X11371643Y-9604214D02*
X11400214Y-9604214D01*
X11400214Y-9604214D02*
X11419262Y-9613738D01*
X11419262Y-9613738D02*
X11428786Y-9623262D01*
X11428786Y-9623262D02*
X11438310Y-9642310D01*
X11438310Y-9642310D02*
X11438310Y-9689929D01*
X11438310Y-9689929D02*
X11428786Y-9708976D01*
X11428786Y-9708976D02*
X11419262Y-9718500D01*
X11419262Y-9718500D02*
X11400214Y-9728024D01*
X11400214Y-9728024D02*
X11343072Y-9728024D01*
X11343072Y-9728024D02*
X11324024Y-9718500D01*
X11324024Y-9718500D02*
X11314500Y-9708976D01*
X11609738Y-9528024D02*
X11571643Y-9528024D01*
X11571643Y-9528024D02*
X11552595Y-9537548D01*
X11552595Y-9537548D02*
X11543072Y-9547071D01*
X11543072Y-9547071D02*
X11524024Y-9575643D01*
X11524024Y-9575643D02*
X11514500Y-9613738D01*
X11514500Y-9613738D02*
X11514500Y-9689929D01*
X11514500Y-9689929D02*
X11524024Y-9708976D01*
X11524024Y-9708976D02*
X11533548Y-9718500D01*
X11533548Y-9718500D02*
X11552595Y-9728024D01*
X11552595Y-9728024D02*
X11590691Y-9728024D01*
X11590691Y-9728024D02*
X11609738Y-9718500D01*
X11609738Y-9718500D02*
X11619262Y-9708976D01*
X11619262Y-9708976D02*
X11628786Y-9689929D01*
X11628786Y-9689929D02*
X11628786Y-9642310D01*
X11628786Y-9642310D02*
X11619262Y-9623262D01*
X11619262Y-9623262D02*
X11609738Y-9613738D01*
X11609738Y-9613738D02*
X11590691Y-9604214D01*
X11590691Y-9604214D02*
X11552595Y-9604214D01*
X11552595Y-9604214D02*
X11533548Y-9613738D01*
X11533548Y-9613738D02*
X11524024Y-9623262D01*
X11524024Y-9623262D02*
X11514500Y-9642310D01*
X11704976Y-9528024D02*
X11704976Y-9566119D01*
X11781167Y-9528024D02*
X11781167Y-9566119D01*
X12076405Y-9804214D02*
X12066881Y-9794690D01*
X12066881Y-9794690D02*
X12047834Y-9766119D01*
X12047834Y-9766119D02*
X12038310Y-9747071D01*
X12038310Y-9747071D02*
X12028786Y-9718500D01*
X12028786Y-9718500D02*
X12019262Y-9670881D01*
X12019262Y-9670881D02*
X12019262Y-9632786D01*
X12019262Y-9632786D02*
X12028786Y-9585167D01*
X12028786Y-9585167D02*
X12038310Y-9556595D01*
X12038310Y-9556595D02*
X12047834Y-9537548D01*
X12047834Y-9537548D02*
X12066881Y-9508976D01*
X12066881Y-9508976D02*
X12076405Y-9499452D01*
X12190691Y-9528024D02*
X12209738Y-9528024D01*
X12209738Y-9528024D02*
X12228786Y-9537548D01*
X12228786Y-9537548D02*
X12238310Y-9547071D01*
X12238310Y-9547071D02*
X12247834Y-9566119D01*
X12247834Y-9566119D02*
X12257357Y-9604214D01*
X12257357Y-9604214D02*
X12257357Y-9651833D01*
X12257357Y-9651833D02*
X12247834Y-9689929D01*
X12247834Y-9689929D02*
X12238310Y-9708976D01*
X12238310Y-9708976D02*
X12228786Y-9718500D01*
X12228786Y-9718500D02*
X12209738Y-9728024D01*
X12209738Y-9728024D02*
X12190691Y-9728024D01*
X12190691Y-9728024D02*
X12171643Y-9718500D01*
X12171643Y-9718500D02*
X12162119Y-9708976D01*
X12162119Y-9708976D02*
X12152595Y-9689929D01*
X12152595Y-9689929D02*
X12143072Y-9651833D01*
X12143072Y-9651833D02*
X12143072Y-9604214D01*
X12143072Y-9604214D02*
X12152595Y-9566119D01*
X12152595Y-9566119D02*
X12162119Y-9547071D01*
X12162119Y-9547071D02*
X12171643Y-9537548D01*
X12171643Y-9537548D02*
X12190691Y-9528024D01*
X12495453Y-9728024D02*
X12495453Y-9528024D01*
X12581167Y-9728024D02*
X12581167Y-9623262D01*
X12581167Y-9623262D02*
X12571643Y-9604214D01*
X12571643Y-9604214D02*
X12552596Y-9594690D01*
X12552596Y-9594690D02*
X12524024Y-9594690D01*
X12524024Y-9594690D02*
X12504976Y-9604214D01*
X12504976Y-9604214D02*
X12495453Y-9613738D01*
X12704976Y-9728024D02*
X12685929Y-9718500D01*
X12685929Y-9718500D02*
X12676405Y-9708976D01*
X12676405Y-9708976D02*
X12666881Y-9689929D01*
X12666881Y-9689929D02*
X12666881Y-9632786D01*
X12666881Y-9632786D02*
X12676405Y-9613738D01*
X12676405Y-9613738D02*
X12685929Y-9604214D01*
X12685929Y-9604214D02*
X12704976Y-9594690D01*
X12704976Y-9594690D02*
X12733548Y-9594690D01*
X12733548Y-9594690D02*
X12752596Y-9604214D01*
X12752596Y-9604214D02*
X12762119Y-9613738D01*
X12762119Y-9613738D02*
X12771643Y-9632786D01*
X12771643Y-9632786D02*
X12771643Y-9689929D01*
X12771643Y-9689929D02*
X12762119Y-9708976D01*
X12762119Y-9708976D02*
X12752596Y-9718500D01*
X12752596Y-9718500D02*
X12733548Y-9728024D01*
X12733548Y-9728024D02*
X12704976Y-9728024D01*
X12885929Y-9728024D02*
X12866881Y-9718500D01*
X12866881Y-9718500D02*
X12857357Y-9699452D01*
X12857357Y-9699452D02*
X12857357Y-9528024D01*
X13038310Y-9718500D02*
X13019262Y-9728024D01*
X13019262Y-9728024D02*
X12981167Y-9728024D01*
X12981167Y-9728024D02*
X12962119Y-9718500D01*
X12962119Y-9718500D02*
X12952596Y-9699452D01*
X12952596Y-9699452D02*
X12952596Y-9623262D01*
X12952596Y-9623262D02*
X12962119Y-9604214D01*
X12962119Y-9604214D02*
X12981167Y-9594690D01*
X12981167Y-9594690D02*
X13019262Y-9594690D01*
X13019262Y-9594690D02*
X13038310Y-9604214D01*
X13038310Y-9604214D02*
X13047834Y-9623262D01*
X13047834Y-9623262D02*
X13047834Y-9642310D01*
X13047834Y-9642310D02*
X12952596Y-9661357D01*
X13124024Y-9718500D02*
X13143072Y-9728024D01*
X13143072Y-9728024D02*
X13181167Y-9728024D01*
X13181167Y-9728024D02*
X13200215Y-9718500D01*
X13200215Y-9718500D02*
X13209738Y-9699452D01*
X13209738Y-9699452D02*
X13209738Y-9689929D01*
X13209738Y-9689929D02*
X13200215Y-9670881D01*
X13200215Y-9670881D02*
X13181167Y-9661357D01*
X13181167Y-9661357D02*
X13152596Y-9661357D01*
X13152596Y-9661357D02*
X13133548Y-9651833D01*
X13133548Y-9651833D02*
X13124024Y-9632786D01*
X13124024Y-9632786D02*
X13124024Y-9623262D01*
X13124024Y-9623262D02*
X13133548Y-9604214D01*
X13133548Y-9604214D02*
X13152596Y-9594690D01*
X13152596Y-9594690D02*
X13181167Y-9594690D01*
X13181167Y-9594690D02*
X13200215Y-9604214D01*
X13447834Y-9651833D02*
X13600215Y-9651833D01*
X13524024Y-9728024D02*
X13524024Y-9575643D01*
X13933548Y-9594690D02*
X13933548Y-9728024D01*
X13885929Y-9518500D02*
X13838310Y-9661357D01*
X13838310Y-9661357D02*
X13962119Y-9661357D01*
X14181167Y-9718500D02*
X14200215Y-9728024D01*
X14200215Y-9728024D02*
X14238310Y-9728024D01*
X14238310Y-9728024D02*
X14257358Y-9718500D01*
X14257358Y-9718500D02*
X14266881Y-9699452D01*
X14266881Y-9699452D02*
X14266881Y-9689929D01*
X14266881Y-9689929D02*
X14257358Y-9670881D01*
X14257358Y-9670881D02*
X14238310Y-9661357D01*
X14238310Y-9661357D02*
X14209739Y-9661357D01*
X14209739Y-9661357D02*
X14190691Y-9651833D01*
X14190691Y-9651833D02*
X14181167Y-9632786D01*
X14181167Y-9632786D02*
X14181167Y-9623262D01*
X14181167Y-9623262D02*
X14190691Y-9604214D01*
X14190691Y-9604214D02*
X14209739Y-9594690D01*
X14209739Y-9594690D02*
X14238310Y-9594690D01*
X14238310Y-9594690D02*
X14257358Y-9604214D01*
X14381167Y-9728024D02*
X14362120Y-9718500D01*
X14362120Y-9718500D02*
X14352596Y-9699452D01*
X14352596Y-9699452D02*
X14352596Y-9528024D01*
X14485929Y-9728024D02*
X14466881Y-9718500D01*
X14466881Y-9718500D02*
X14457358Y-9708976D01*
X14457358Y-9708976D02*
X14447834Y-9689929D01*
X14447834Y-9689929D02*
X14447834Y-9632786D01*
X14447834Y-9632786D02*
X14457358Y-9613738D01*
X14457358Y-9613738D02*
X14466881Y-9604214D01*
X14466881Y-9604214D02*
X14485929Y-9594690D01*
X14485929Y-9594690D02*
X14514501Y-9594690D01*
X14514501Y-9594690D02*
X14533548Y-9604214D01*
X14533548Y-9604214D02*
X14543072Y-9613738D01*
X14543072Y-9613738D02*
X14552596Y-9632786D01*
X14552596Y-9632786D02*
X14552596Y-9689929D01*
X14552596Y-9689929D02*
X14543072Y-9708976D01*
X14543072Y-9708976D02*
X14533548Y-9718500D01*
X14533548Y-9718500D02*
X14514501Y-9728024D01*
X14514501Y-9728024D02*
X14485929Y-9728024D01*
X14609739Y-9594690D02*
X14685929Y-9594690D01*
X14638310Y-9528024D02*
X14638310Y-9699452D01*
X14638310Y-9699452D02*
X14647834Y-9718500D01*
X14647834Y-9718500D02*
X14666881Y-9728024D01*
X14666881Y-9728024D02*
X14685929Y-9728024D01*
X14743072Y-9718500D02*
X14762120Y-9728024D01*
X14762120Y-9728024D02*
X14800215Y-9728024D01*
X14800215Y-9728024D02*
X14819262Y-9718500D01*
X14819262Y-9718500D02*
X14828786Y-9699452D01*
X14828786Y-9699452D02*
X14828786Y-9689929D01*
X14828786Y-9689929D02*
X14819262Y-9670881D01*
X14819262Y-9670881D02*
X14800215Y-9661357D01*
X14800215Y-9661357D02*
X14771643Y-9661357D01*
X14771643Y-9661357D02*
X14752596Y-9651833D01*
X14752596Y-9651833D02*
X14743072Y-9632786D01*
X14743072Y-9632786D02*
X14743072Y-9623262D01*
X14743072Y-9623262D02*
X14752596Y-9604214D01*
X14752596Y-9604214D02*
X14771643Y-9594690D01*
X14771643Y-9594690D02*
X14800215Y-9594690D01*
X14800215Y-9594690D02*
X14819262Y-9604214D01*
X14895453Y-9804214D02*
X14904977Y-9794690D01*
X14904977Y-9794690D02*
X14924024Y-9766119D01*
X14924024Y-9766119D02*
X14933548Y-9747071D01*
X14933548Y-9747071D02*
X14943072Y-9718500D01*
X14943072Y-9718500D02*
X14952596Y-9670881D01*
X14952596Y-9670881D02*
X14952596Y-9632786D01*
X14952596Y-9632786D02*
X14943072Y-9585167D01*
X14943072Y-9585167D02*
X14933548Y-9556595D01*
X14933548Y-9556595D02*
X14924024Y-9537548D01*
X14924024Y-9537548D02*
X14904977Y-9508976D01*
X14904977Y-9508976D02*
X14895453Y-9499452D01*
D15*
X8503341Y-9926441D02*
X8503341Y-9872559D01*
X8449459Y-9872559D01*
X8449459Y-9926441D01*
X8503341Y-9926441D01*
D11*
X8800214Y-9792024D02*
X8819262Y-9792024D01*
X8819262Y-9792024D02*
X8838310Y-9801548D01*
X8838310Y-9801548D02*
X8847833Y-9811071D01*
X8847833Y-9811071D02*
X8857357Y-9830119D01*
X8857357Y-9830119D02*
X8866881Y-9868214D01*
X8866881Y-9868214D02*
X8866881Y-9915833D01*
X8866881Y-9915833D02*
X8857357Y-9953929D01*
X8857357Y-9953929D02*
X8847833Y-9972976D01*
X8847833Y-9972976D02*
X8838310Y-9982500D01*
X8838310Y-9982500D02*
X8819262Y-9992024D01*
X8819262Y-9992024D02*
X8800214Y-9992024D01*
X8800214Y-9992024D02*
X8781167Y-9982500D01*
X8781167Y-9982500D02*
X8771643Y-9972976D01*
X8771643Y-9972976D02*
X8762119Y-9953929D01*
X8762119Y-9953929D02*
X8752595Y-9915833D01*
X8752595Y-9915833D02*
X8752595Y-9868214D01*
X8752595Y-9868214D02*
X8762119Y-9830119D01*
X8762119Y-9830119D02*
X8771643Y-9811071D01*
X8771643Y-9811071D02*
X8781167Y-9801548D01*
X8781167Y-9801548D02*
X8800214Y-9792024D01*
X8952595Y-9972976D02*
X8962119Y-9982500D01*
X8962119Y-9982500D02*
X8952595Y-9992024D01*
X8952595Y-9992024D02*
X8943071Y-9982500D01*
X8943071Y-9982500D02*
X8952595Y-9972976D01*
X8952595Y-9972976D02*
X8952595Y-9992024D01*
X9028786Y-9792024D02*
X9162119Y-9792024D01*
X9162119Y-9792024D02*
X9076405Y-9992024D01*
X9324024Y-9792024D02*
X9285929Y-9792024D01*
X9285929Y-9792024D02*
X9266881Y-9801548D01*
X9266881Y-9801548D02*
X9257357Y-9811071D01*
X9257357Y-9811071D02*
X9238310Y-9839643D01*
X9238310Y-9839643D02*
X9228786Y-9877738D01*
X9228786Y-9877738D02*
X9228786Y-9953929D01*
X9228786Y-9953929D02*
X9238310Y-9972976D01*
X9238310Y-9972976D02*
X9247833Y-9982500D01*
X9247833Y-9982500D02*
X9266881Y-9992024D01*
X9266881Y-9992024D02*
X9304976Y-9992024D01*
X9304976Y-9992024D02*
X9324024Y-9982500D01*
X9324024Y-9982500D02*
X9333548Y-9972976D01*
X9333548Y-9972976D02*
X9343071Y-9953929D01*
X9343071Y-9953929D02*
X9343071Y-9906310D01*
X9343071Y-9906310D02*
X9333548Y-9887262D01*
X9333548Y-9887262D02*
X9324024Y-9877738D01*
X9324024Y-9877738D02*
X9304976Y-9868214D01*
X9304976Y-9868214D02*
X9266881Y-9868214D01*
X9266881Y-9868214D02*
X9247833Y-9877738D01*
X9247833Y-9877738D02*
X9238310Y-9887262D01*
X9238310Y-9887262D02*
X9228786Y-9906310D01*
X9419262Y-9811071D02*
X9428786Y-9801548D01*
X9428786Y-9801548D02*
X9447833Y-9792024D01*
X9447833Y-9792024D02*
X9495452Y-9792024D01*
X9495452Y-9792024D02*
X9514500Y-9801548D01*
X9514500Y-9801548D02*
X9524024Y-9811071D01*
X9524024Y-9811071D02*
X9533548Y-9830119D01*
X9533548Y-9830119D02*
X9533548Y-9849167D01*
X9533548Y-9849167D02*
X9524024Y-9877738D01*
X9524024Y-9877738D02*
X9409738Y-9992024D01*
X9409738Y-9992024D02*
X9533548Y-9992024D01*
X9619262Y-9992024D02*
X9619262Y-9858690D01*
X9619262Y-9877738D02*
X9628786Y-9868214D01*
X9628786Y-9868214D02*
X9647833Y-9858690D01*
X9647833Y-9858690D02*
X9676405Y-9858690D01*
X9676405Y-9858690D02*
X9695452Y-9868214D01*
X9695452Y-9868214D02*
X9704976Y-9887262D01*
X9704976Y-9887262D02*
X9704976Y-9992024D01*
X9704976Y-9887262D02*
X9714500Y-9868214D01*
X9714500Y-9868214D02*
X9733548Y-9858690D01*
X9733548Y-9858690D02*
X9762119Y-9858690D01*
X9762119Y-9858690D02*
X9781167Y-9868214D01*
X9781167Y-9868214D02*
X9790691Y-9887262D01*
X9790691Y-9887262D02*
X9790691Y-9992024D01*
X9885929Y-9992024D02*
X9885929Y-9858690D01*
X9885929Y-9877738D02*
X9895452Y-9868214D01*
X9895452Y-9868214D02*
X9914500Y-9858690D01*
X9914500Y-9858690D02*
X9943072Y-9858690D01*
X9943072Y-9858690D02*
X9962119Y-9868214D01*
X9962119Y-9868214D02*
X9971643Y-9887262D01*
X9971643Y-9887262D02*
X9971643Y-9992024D01*
X9971643Y-9887262D02*
X9981167Y-9868214D01*
X9981167Y-9868214D02*
X10000214Y-9858690D01*
X10000214Y-9858690D02*
X10028786Y-9858690D01*
X10028786Y-9858690D02*
X10047833Y-9868214D01*
X10047833Y-9868214D02*
X10057357Y-9887262D01*
X10057357Y-9887262D02*
X10057357Y-9992024D01*
X10447833Y-9782500D02*
X10276405Y-10039643D01*
X10704976Y-9792024D02*
X10724024Y-9792024D01*
X10724024Y-9792024D02*
X10743072Y-9801548D01*
X10743072Y-9801548D02*
X10752595Y-9811071D01*
X10752595Y-9811071D02*
X10762119Y-9830119D01*
X10762119Y-9830119D02*
X10771643Y-9868214D01*
X10771643Y-9868214D02*
X10771643Y-9915833D01*
X10771643Y-9915833D02*
X10762119Y-9953929D01*
X10762119Y-9953929D02*
X10752595Y-9972976D01*
X10752595Y-9972976D02*
X10743072Y-9982500D01*
X10743072Y-9982500D02*
X10724024Y-9992024D01*
X10724024Y-9992024D02*
X10704976Y-9992024D01*
X10704976Y-9992024D02*
X10685929Y-9982500D01*
X10685929Y-9982500D02*
X10676405Y-9972976D01*
X10676405Y-9972976D02*
X10666881Y-9953929D01*
X10666881Y-9953929D02*
X10657357Y-9915833D01*
X10657357Y-9915833D02*
X10657357Y-9868214D01*
X10657357Y-9868214D02*
X10666881Y-9830119D01*
X10666881Y-9830119D02*
X10676405Y-9811071D01*
X10676405Y-9811071D02*
X10685929Y-9801548D01*
X10685929Y-9801548D02*
X10704976Y-9792024D01*
X10857357Y-9972976D02*
X10866881Y-9982500D01*
X10866881Y-9982500D02*
X10857357Y-9992024D01*
X10857357Y-9992024D02*
X10847834Y-9982500D01*
X10847834Y-9982500D02*
X10857357Y-9972976D01*
X10857357Y-9972976D02*
X10857357Y-9992024D01*
X10990691Y-9792024D02*
X11009738Y-9792024D01*
X11009738Y-9792024D02*
X11028786Y-9801548D01*
X11028786Y-9801548D02*
X11038310Y-9811071D01*
X11038310Y-9811071D02*
X11047834Y-9830119D01*
X11047834Y-9830119D02*
X11057357Y-9868214D01*
X11057357Y-9868214D02*
X11057357Y-9915833D01*
X11057357Y-9915833D02*
X11047834Y-9953929D01*
X11047834Y-9953929D02*
X11038310Y-9972976D01*
X11038310Y-9972976D02*
X11028786Y-9982500D01*
X11028786Y-9982500D02*
X11009738Y-9992024D01*
X11009738Y-9992024D02*
X10990691Y-9992024D01*
X10990691Y-9992024D02*
X10971643Y-9982500D01*
X10971643Y-9982500D02*
X10962119Y-9972976D01*
X10962119Y-9972976D02*
X10952595Y-9953929D01*
X10952595Y-9953929D02*
X10943072Y-9915833D01*
X10943072Y-9915833D02*
X10943072Y-9868214D01*
X10943072Y-9868214D02*
X10952595Y-9830119D01*
X10952595Y-9830119D02*
X10962119Y-9811071D01*
X10962119Y-9811071D02*
X10971643Y-9801548D01*
X10971643Y-9801548D02*
X10990691Y-9792024D01*
X11124024Y-9792024D02*
X11247833Y-9792024D01*
X11247833Y-9792024D02*
X11181167Y-9868214D01*
X11181167Y-9868214D02*
X11209738Y-9868214D01*
X11209738Y-9868214D02*
X11228786Y-9877738D01*
X11228786Y-9877738D02*
X11238310Y-9887262D01*
X11238310Y-9887262D02*
X11247833Y-9906310D01*
X11247833Y-9906310D02*
X11247833Y-9953929D01*
X11247833Y-9953929D02*
X11238310Y-9972976D01*
X11238310Y-9972976D02*
X11228786Y-9982500D01*
X11228786Y-9982500D02*
X11209738Y-9992024D01*
X11209738Y-9992024D02*
X11152595Y-9992024D01*
X11152595Y-9992024D02*
X11133548Y-9982500D01*
X11133548Y-9982500D02*
X11124024Y-9972976D01*
X11371643Y-9792024D02*
X11390691Y-9792024D01*
X11390691Y-9792024D02*
X11409738Y-9801548D01*
X11409738Y-9801548D02*
X11419262Y-9811071D01*
X11419262Y-9811071D02*
X11428786Y-9830119D01*
X11428786Y-9830119D02*
X11438310Y-9868214D01*
X11438310Y-9868214D02*
X11438310Y-9915833D01*
X11438310Y-9915833D02*
X11428786Y-9953929D01*
X11428786Y-9953929D02*
X11419262Y-9972976D01*
X11419262Y-9972976D02*
X11409738Y-9982500D01*
X11409738Y-9982500D02*
X11390691Y-9992024D01*
X11390691Y-9992024D02*
X11371643Y-9992024D01*
X11371643Y-9992024D02*
X11352595Y-9982500D01*
X11352595Y-9982500D02*
X11343072Y-9972976D01*
X11343072Y-9972976D02*
X11333548Y-9953929D01*
X11333548Y-9953929D02*
X11324024Y-9915833D01*
X11324024Y-9915833D02*
X11324024Y-9868214D01*
X11324024Y-9868214D02*
X11333548Y-9830119D01*
X11333548Y-9830119D02*
X11343072Y-9811071D01*
X11343072Y-9811071D02*
X11352595Y-9801548D01*
X11352595Y-9801548D02*
X11371643Y-9792024D01*
X11562119Y-9792024D02*
X11581167Y-9792024D01*
X11581167Y-9792024D02*
X11600214Y-9801548D01*
X11600214Y-9801548D02*
X11609738Y-9811071D01*
X11609738Y-9811071D02*
X11619262Y-9830119D01*
X11619262Y-9830119D02*
X11628786Y-9868214D01*
X11628786Y-9868214D02*
X11628786Y-9915833D01*
X11628786Y-9915833D02*
X11619262Y-9953929D01*
X11619262Y-9953929D02*
X11609738Y-9972976D01*
X11609738Y-9972976D02*
X11600214Y-9982500D01*
X11600214Y-9982500D02*
X11581167Y-9992024D01*
X11581167Y-9992024D02*
X11562119Y-9992024D01*
X11562119Y-9992024D02*
X11543072Y-9982500D01*
X11543072Y-9982500D02*
X11533548Y-9972976D01*
X11533548Y-9972976D02*
X11524024Y-9953929D01*
X11524024Y-9953929D02*
X11514500Y-9915833D01*
X11514500Y-9915833D02*
X11514500Y-9868214D01*
X11514500Y-9868214D02*
X11524024Y-9830119D01*
X11524024Y-9830119D02*
X11533548Y-9811071D01*
X11533548Y-9811071D02*
X11543072Y-9801548D01*
X11543072Y-9801548D02*
X11562119Y-9792024D01*
X11704976Y-9792024D02*
X11704976Y-9830119D01*
X11781167Y-9792024D02*
X11781167Y-9830119D01*
X12076405Y-10068214D02*
X12066881Y-10058690D01*
X12066881Y-10058690D02*
X12047834Y-10030119D01*
X12047834Y-10030119D02*
X12038310Y-10011071D01*
X12038310Y-10011071D02*
X12028786Y-9982500D01*
X12028786Y-9982500D02*
X12019262Y-9934881D01*
X12019262Y-9934881D02*
X12019262Y-9896786D01*
X12019262Y-9896786D02*
X12028786Y-9849167D01*
X12028786Y-9849167D02*
X12038310Y-9820595D01*
X12038310Y-9820595D02*
X12047834Y-9801548D01*
X12047834Y-9801548D02*
X12066881Y-9772976D01*
X12066881Y-9772976D02*
X12076405Y-9763452D01*
X12238310Y-9858690D02*
X12238310Y-9992024D01*
X12190691Y-9782500D02*
X12143072Y-9925357D01*
X12143072Y-9925357D02*
X12266881Y-9925357D01*
X12495453Y-9992024D02*
X12495453Y-9792024D01*
X12581167Y-9992024D02*
X12581167Y-9887262D01*
X12581167Y-9887262D02*
X12571643Y-9868214D01*
X12571643Y-9868214D02*
X12552596Y-9858690D01*
X12552596Y-9858690D02*
X12524024Y-9858690D01*
X12524024Y-9858690D02*
X12504976Y-9868214D01*
X12504976Y-9868214D02*
X12495453Y-9877738D01*
X12704976Y-9992024D02*
X12685929Y-9982500D01*
X12685929Y-9982500D02*
X12676405Y-9972976D01*
X12676405Y-9972976D02*
X12666881Y-9953929D01*
X12666881Y-9953929D02*
X12666881Y-9896786D01*
X12666881Y-9896786D02*
X12676405Y-9877738D01*
X12676405Y-9877738D02*
X12685929Y-9868214D01*
X12685929Y-9868214D02*
X12704976Y-9858690D01*
X12704976Y-9858690D02*
X12733548Y-9858690D01*
X12733548Y-9858690D02*
X12752596Y-9868214D01*
X12752596Y-9868214D02*
X12762119Y-9877738D01*
X12762119Y-9877738D02*
X12771643Y-9896786D01*
X12771643Y-9896786D02*
X12771643Y-9953929D01*
X12771643Y-9953929D02*
X12762119Y-9972976D01*
X12762119Y-9972976D02*
X12752596Y-9982500D01*
X12752596Y-9982500D02*
X12733548Y-9992024D01*
X12733548Y-9992024D02*
X12704976Y-9992024D01*
X12885929Y-9992024D02*
X12866881Y-9982500D01*
X12866881Y-9982500D02*
X12857357Y-9963452D01*
X12857357Y-9963452D02*
X12857357Y-9792024D01*
X13038310Y-9982500D02*
X13019262Y-9992024D01*
X13019262Y-9992024D02*
X12981167Y-9992024D01*
X12981167Y-9992024D02*
X12962119Y-9982500D01*
X12962119Y-9982500D02*
X12952596Y-9963452D01*
X12952596Y-9963452D02*
X12952596Y-9887262D01*
X12952596Y-9887262D02*
X12962119Y-9868214D01*
X12962119Y-9868214D02*
X12981167Y-9858690D01*
X12981167Y-9858690D02*
X13019262Y-9858690D01*
X13019262Y-9858690D02*
X13038310Y-9868214D01*
X13038310Y-9868214D02*
X13047834Y-9887262D01*
X13047834Y-9887262D02*
X13047834Y-9906310D01*
X13047834Y-9906310D02*
X12952596Y-9925357D01*
X13124024Y-9982500D02*
X13143072Y-9992024D01*
X13143072Y-9992024D02*
X13181167Y-9992024D01*
X13181167Y-9992024D02*
X13200215Y-9982500D01*
X13200215Y-9982500D02*
X13209738Y-9963452D01*
X13209738Y-9963452D02*
X13209738Y-9953929D01*
X13209738Y-9953929D02*
X13200215Y-9934881D01*
X13200215Y-9934881D02*
X13181167Y-9925357D01*
X13181167Y-9925357D02*
X13152596Y-9925357D01*
X13152596Y-9925357D02*
X13133548Y-9915833D01*
X13133548Y-9915833D02*
X13124024Y-9896786D01*
X13124024Y-9896786D02*
X13124024Y-9887262D01*
X13124024Y-9887262D02*
X13133548Y-9868214D01*
X13133548Y-9868214D02*
X13152596Y-9858690D01*
X13152596Y-9858690D02*
X13181167Y-9858690D01*
X13181167Y-9858690D02*
X13200215Y-9868214D01*
X13276405Y-10068214D02*
X13285929Y-10058690D01*
X13285929Y-10058690D02*
X13304977Y-10030119D01*
X13304977Y-10030119D02*
X13314500Y-10011071D01*
X13314500Y-10011071D02*
X13324024Y-9982500D01*
X13324024Y-9982500D02*
X13333548Y-9934881D01*
X13333548Y-9934881D02*
X13333548Y-9896786D01*
X13333548Y-9896786D02*
X13324024Y-9849167D01*
X13324024Y-9849167D02*
X13314500Y-9820595D01*
X13314500Y-9820595D02*
X13304977Y-9801548D01*
X13304977Y-9801548D02*
X13285929Y-9772976D01*
X13285929Y-9772976D02*
X13276405Y-9763452D01*
D16*
X8464500Y-10213500D02*
X8514500Y-10163500D01*
X8464500Y-10113500D01*
X8414500Y-10163500D01*
X8464500Y-10213500D01*
D11*
X8866881Y-10256024D02*
X8752595Y-10256024D01*
X8809738Y-10256024D02*
X8809738Y-10056024D01*
X8809738Y-10056024D02*
X8790690Y-10084595D01*
X8790690Y-10084595D02*
X8771643Y-10103643D01*
X8771643Y-10103643D02*
X8752595Y-10113167D01*
X8952595Y-10236976D02*
X8962119Y-10246500D01*
X8962119Y-10246500D02*
X8952595Y-10256024D01*
X8952595Y-10256024D02*
X8943071Y-10246500D01*
X8943071Y-10246500D02*
X8952595Y-10236976D01*
X8952595Y-10236976D02*
X8952595Y-10256024D01*
X9085929Y-10056024D02*
X9104976Y-10056024D01*
X9104976Y-10056024D02*
X9124024Y-10065548D01*
X9124024Y-10065548D02*
X9133548Y-10075071D01*
X9133548Y-10075071D02*
X9143071Y-10094119D01*
X9143071Y-10094119D02*
X9152595Y-10132214D01*
X9152595Y-10132214D02*
X9152595Y-10179833D01*
X9152595Y-10179833D02*
X9143071Y-10217929D01*
X9143071Y-10217929D02*
X9133548Y-10236976D01*
X9133548Y-10236976D02*
X9124024Y-10246500D01*
X9124024Y-10246500D02*
X9104976Y-10256024D01*
X9104976Y-10256024D02*
X9085929Y-10256024D01*
X9085929Y-10256024D02*
X9066881Y-10246500D01*
X9066881Y-10246500D02*
X9057357Y-10236976D01*
X9057357Y-10236976D02*
X9047833Y-10217929D01*
X9047833Y-10217929D02*
X9038310Y-10179833D01*
X9038310Y-10179833D02*
X9038310Y-10132214D01*
X9038310Y-10132214D02*
X9047833Y-10094119D01*
X9047833Y-10094119D02*
X9057357Y-10075071D01*
X9057357Y-10075071D02*
X9066881Y-10065548D01*
X9066881Y-10065548D02*
X9085929Y-10056024D01*
X9276405Y-10056024D02*
X9295452Y-10056024D01*
X9295452Y-10056024D02*
X9314500Y-10065548D01*
X9314500Y-10065548D02*
X9324024Y-10075071D01*
X9324024Y-10075071D02*
X9333548Y-10094119D01*
X9333548Y-10094119D02*
X9343071Y-10132214D01*
X9343071Y-10132214D02*
X9343071Y-10179833D01*
X9343071Y-10179833D02*
X9333548Y-10217929D01*
X9333548Y-10217929D02*
X9324024Y-10236976D01*
X9324024Y-10236976D02*
X9314500Y-10246500D01*
X9314500Y-10246500D02*
X9295452Y-10256024D01*
X9295452Y-10256024D02*
X9276405Y-10256024D01*
X9276405Y-10256024D02*
X9257357Y-10246500D01*
X9257357Y-10246500D02*
X9247833Y-10236976D01*
X9247833Y-10236976D02*
X9238310Y-10217929D01*
X9238310Y-10217929D02*
X9228786Y-10179833D01*
X9228786Y-10179833D02*
X9228786Y-10132214D01*
X9228786Y-10132214D02*
X9238310Y-10094119D01*
X9238310Y-10094119D02*
X9247833Y-10075071D01*
X9247833Y-10075071D02*
X9257357Y-10065548D01*
X9257357Y-10065548D02*
X9276405Y-10056024D01*
X9466881Y-10056024D02*
X9485929Y-10056024D01*
X9485929Y-10056024D02*
X9504976Y-10065548D01*
X9504976Y-10065548D02*
X9514500Y-10075071D01*
X9514500Y-10075071D02*
X9524024Y-10094119D01*
X9524024Y-10094119D02*
X9533548Y-10132214D01*
X9533548Y-10132214D02*
X9533548Y-10179833D01*
X9533548Y-10179833D02*
X9524024Y-10217929D01*
X9524024Y-10217929D02*
X9514500Y-10236976D01*
X9514500Y-10236976D02*
X9504976Y-10246500D01*
X9504976Y-10246500D02*
X9485929Y-10256024D01*
X9485929Y-10256024D02*
X9466881Y-10256024D01*
X9466881Y-10256024D02*
X9447833Y-10246500D01*
X9447833Y-10246500D02*
X9438310Y-10236976D01*
X9438310Y-10236976D02*
X9428786Y-10217929D01*
X9428786Y-10217929D02*
X9419262Y-10179833D01*
X9419262Y-10179833D02*
X9419262Y-10132214D01*
X9419262Y-10132214D02*
X9428786Y-10094119D01*
X9428786Y-10094119D02*
X9438310Y-10075071D01*
X9438310Y-10075071D02*
X9447833Y-10065548D01*
X9447833Y-10065548D02*
X9466881Y-10056024D01*
X9619262Y-10256024D02*
X9619262Y-10122690D01*
X9619262Y-10141738D02*
X9628786Y-10132214D01*
X9628786Y-10132214D02*
X9647833Y-10122690D01*
X9647833Y-10122690D02*
X9676405Y-10122690D01*
X9676405Y-10122690D02*
X9695452Y-10132214D01*
X9695452Y-10132214D02*
X9704976Y-10151262D01*
X9704976Y-10151262D02*
X9704976Y-10256024D01*
X9704976Y-10151262D02*
X9714500Y-10132214D01*
X9714500Y-10132214D02*
X9733548Y-10122690D01*
X9733548Y-10122690D02*
X9762119Y-10122690D01*
X9762119Y-10122690D02*
X9781167Y-10132214D01*
X9781167Y-10132214D02*
X9790691Y-10151262D01*
X9790691Y-10151262D02*
X9790691Y-10256024D01*
X9885929Y-10256024D02*
X9885929Y-10122690D01*
X9885929Y-10141738D02*
X9895452Y-10132214D01*
X9895452Y-10132214D02*
X9914500Y-10122690D01*
X9914500Y-10122690D02*
X9943072Y-10122690D01*
X9943072Y-10122690D02*
X9962119Y-10132214D01*
X9962119Y-10132214D02*
X9971643Y-10151262D01*
X9971643Y-10151262D02*
X9971643Y-10256024D01*
X9971643Y-10151262D02*
X9981167Y-10132214D01*
X9981167Y-10132214D02*
X10000214Y-10122690D01*
X10000214Y-10122690D02*
X10028786Y-10122690D01*
X10028786Y-10122690D02*
X10047833Y-10132214D01*
X10047833Y-10132214D02*
X10057357Y-10151262D01*
X10057357Y-10151262D02*
X10057357Y-10256024D01*
X10447833Y-10046500D02*
X10276405Y-10303643D01*
X10704976Y-10056024D02*
X10724024Y-10056024D01*
X10724024Y-10056024D02*
X10743072Y-10065548D01*
X10743072Y-10065548D02*
X10752595Y-10075071D01*
X10752595Y-10075071D02*
X10762119Y-10094119D01*
X10762119Y-10094119D02*
X10771643Y-10132214D01*
X10771643Y-10132214D02*
X10771643Y-10179833D01*
X10771643Y-10179833D02*
X10762119Y-10217929D01*
X10762119Y-10217929D02*
X10752595Y-10236976D01*
X10752595Y-10236976D02*
X10743072Y-10246500D01*
X10743072Y-10246500D02*
X10724024Y-10256024D01*
X10724024Y-10256024D02*
X10704976Y-10256024D01*
X10704976Y-10256024D02*
X10685929Y-10246500D01*
X10685929Y-10246500D02*
X10676405Y-10236976D01*
X10676405Y-10236976D02*
X10666881Y-10217929D01*
X10666881Y-10217929D02*
X10657357Y-10179833D01*
X10657357Y-10179833D02*
X10657357Y-10132214D01*
X10657357Y-10132214D02*
X10666881Y-10094119D01*
X10666881Y-10094119D02*
X10676405Y-10075071D01*
X10676405Y-10075071D02*
X10685929Y-10065548D01*
X10685929Y-10065548D02*
X10704976Y-10056024D01*
X10857357Y-10236976D02*
X10866881Y-10246500D01*
X10866881Y-10246500D02*
X10857357Y-10256024D01*
X10857357Y-10256024D02*
X10847834Y-10246500D01*
X10847834Y-10246500D02*
X10857357Y-10236976D01*
X10857357Y-10236976D02*
X10857357Y-10256024D01*
X10990691Y-10056024D02*
X11009738Y-10056024D01*
X11009738Y-10056024D02*
X11028786Y-10065548D01*
X11028786Y-10065548D02*
X11038310Y-10075071D01*
X11038310Y-10075071D02*
X11047834Y-10094119D01*
X11047834Y-10094119D02*
X11057357Y-10132214D01*
X11057357Y-10132214D02*
X11057357Y-10179833D01*
X11057357Y-10179833D02*
X11047834Y-10217929D01*
X11047834Y-10217929D02*
X11038310Y-10236976D01*
X11038310Y-10236976D02*
X11028786Y-10246500D01*
X11028786Y-10246500D02*
X11009738Y-10256024D01*
X11009738Y-10256024D02*
X10990691Y-10256024D01*
X10990691Y-10256024D02*
X10971643Y-10246500D01*
X10971643Y-10246500D02*
X10962119Y-10236976D01*
X10962119Y-10236976D02*
X10952595Y-10217929D01*
X10952595Y-10217929D02*
X10943072Y-10179833D01*
X10943072Y-10179833D02*
X10943072Y-10132214D01*
X10943072Y-10132214D02*
X10952595Y-10094119D01*
X10952595Y-10094119D02*
X10962119Y-10075071D01*
X10962119Y-10075071D02*
X10971643Y-10065548D01*
X10971643Y-10065548D02*
X10990691Y-10056024D01*
X11124024Y-10056024D02*
X11247833Y-10056024D01*
X11247833Y-10056024D02*
X11181167Y-10132214D01*
X11181167Y-10132214D02*
X11209738Y-10132214D01*
X11209738Y-10132214D02*
X11228786Y-10141738D01*
X11228786Y-10141738D02*
X11238310Y-10151262D01*
X11238310Y-10151262D02*
X11247833Y-10170310D01*
X11247833Y-10170310D02*
X11247833Y-10217929D01*
X11247833Y-10217929D02*
X11238310Y-10236976D01*
X11238310Y-10236976D02*
X11228786Y-10246500D01*
X11228786Y-10246500D02*
X11209738Y-10256024D01*
X11209738Y-10256024D02*
X11152595Y-10256024D01*
X11152595Y-10256024D02*
X11133548Y-10246500D01*
X11133548Y-10246500D02*
X11124024Y-10236976D01*
X11343072Y-10256024D02*
X11381167Y-10256024D01*
X11381167Y-10256024D02*
X11400214Y-10246500D01*
X11400214Y-10246500D02*
X11409738Y-10236976D01*
X11409738Y-10236976D02*
X11428786Y-10208405D01*
X11428786Y-10208405D02*
X11438310Y-10170310D01*
X11438310Y-10170310D02*
X11438310Y-10094119D01*
X11438310Y-10094119D02*
X11428786Y-10075071D01*
X11428786Y-10075071D02*
X11419262Y-10065548D01*
X11419262Y-10065548D02*
X11400214Y-10056024D01*
X11400214Y-10056024D02*
X11362119Y-10056024D01*
X11362119Y-10056024D02*
X11343072Y-10065548D01*
X11343072Y-10065548D02*
X11333548Y-10075071D01*
X11333548Y-10075071D02*
X11324024Y-10094119D01*
X11324024Y-10094119D02*
X11324024Y-10141738D01*
X11324024Y-10141738D02*
X11333548Y-10160786D01*
X11333548Y-10160786D02*
X11343072Y-10170310D01*
X11343072Y-10170310D02*
X11362119Y-10179833D01*
X11362119Y-10179833D02*
X11400214Y-10179833D01*
X11400214Y-10179833D02*
X11419262Y-10170310D01*
X11419262Y-10170310D02*
X11428786Y-10160786D01*
X11428786Y-10160786D02*
X11438310Y-10141738D01*
X11609738Y-10122690D02*
X11609738Y-10256024D01*
X11562119Y-10046500D02*
X11514500Y-10189357D01*
X11514500Y-10189357D02*
X11638310Y-10189357D01*
X11704976Y-10056024D02*
X11704976Y-10094119D01*
X11781167Y-10056024D02*
X11781167Y-10094119D01*
X12076405Y-10332214D02*
X12066881Y-10322690D01*
X12066881Y-10322690D02*
X12047834Y-10294119D01*
X12047834Y-10294119D02*
X12038310Y-10275071D01*
X12038310Y-10275071D02*
X12028786Y-10246500D01*
X12028786Y-10246500D02*
X12019262Y-10198881D01*
X12019262Y-10198881D02*
X12019262Y-10160786D01*
X12019262Y-10160786D02*
X12028786Y-10113167D01*
X12028786Y-10113167D02*
X12038310Y-10084595D01*
X12038310Y-10084595D02*
X12047834Y-10065548D01*
X12047834Y-10065548D02*
X12066881Y-10036976D01*
X12066881Y-10036976D02*
X12076405Y-10027452D01*
X12257357Y-10256024D02*
X12143072Y-10256024D01*
X12200214Y-10256024D02*
X12200214Y-10056024D01*
X12200214Y-10056024D02*
X12181167Y-10084595D01*
X12181167Y-10084595D02*
X12162119Y-10103643D01*
X12162119Y-10103643D02*
X12143072Y-10113167D01*
X12333548Y-10075071D02*
X12343072Y-10065548D01*
X12343072Y-10065548D02*
X12362119Y-10056024D01*
X12362119Y-10056024D02*
X12409738Y-10056024D01*
X12409738Y-10056024D02*
X12428786Y-10065548D01*
X12428786Y-10065548D02*
X12438310Y-10075071D01*
X12438310Y-10075071D02*
X12447834Y-10094119D01*
X12447834Y-10094119D02*
X12447834Y-10113167D01*
X12447834Y-10113167D02*
X12438310Y-10141738D01*
X12438310Y-10141738D02*
X12324024Y-10256024D01*
X12324024Y-10256024D02*
X12447834Y-10256024D01*
X12685929Y-10256024D02*
X12685929Y-10056024D01*
X12771643Y-10256024D02*
X12771643Y-10151262D01*
X12771643Y-10151262D02*
X12762119Y-10132214D01*
X12762119Y-10132214D02*
X12743072Y-10122690D01*
X12743072Y-10122690D02*
X12714500Y-10122690D01*
X12714500Y-10122690D02*
X12695453Y-10132214D01*
X12695453Y-10132214D02*
X12685929Y-10141738D01*
X12895453Y-10256024D02*
X12876405Y-10246500D01*
X12876405Y-10246500D02*
X12866881Y-10236976D01*
X12866881Y-10236976D02*
X12857357Y-10217929D01*
X12857357Y-10217929D02*
X12857357Y-10160786D01*
X12857357Y-10160786D02*
X12866881Y-10141738D01*
X12866881Y-10141738D02*
X12876405Y-10132214D01*
X12876405Y-10132214D02*
X12895453Y-10122690D01*
X12895453Y-10122690D02*
X12924024Y-10122690D01*
X12924024Y-10122690D02*
X12943072Y-10132214D01*
X12943072Y-10132214D02*
X12952596Y-10141738D01*
X12952596Y-10141738D02*
X12962119Y-10160786D01*
X12962119Y-10160786D02*
X12962119Y-10217929D01*
X12962119Y-10217929D02*
X12952596Y-10236976D01*
X12952596Y-10236976D02*
X12943072Y-10246500D01*
X12943072Y-10246500D02*
X12924024Y-10256024D01*
X12924024Y-10256024D02*
X12895453Y-10256024D01*
X13076405Y-10256024D02*
X13057357Y-10246500D01*
X13057357Y-10246500D02*
X13047834Y-10227452D01*
X13047834Y-10227452D02*
X13047834Y-10056024D01*
X13228786Y-10246500D02*
X13209738Y-10256024D01*
X13209738Y-10256024D02*
X13171643Y-10256024D01*
X13171643Y-10256024D02*
X13152596Y-10246500D01*
X13152596Y-10246500D02*
X13143072Y-10227452D01*
X13143072Y-10227452D02*
X13143072Y-10151262D01*
X13143072Y-10151262D02*
X13152596Y-10132214D01*
X13152596Y-10132214D02*
X13171643Y-10122690D01*
X13171643Y-10122690D02*
X13209738Y-10122690D01*
X13209738Y-10122690D02*
X13228786Y-10132214D01*
X13228786Y-10132214D02*
X13238310Y-10151262D01*
X13238310Y-10151262D02*
X13238310Y-10170310D01*
X13238310Y-10170310D02*
X13143072Y-10189357D01*
X13314500Y-10246500D02*
X13333548Y-10256024D01*
X13333548Y-10256024D02*
X13371643Y-10256024D01*
X13371643Y-10256024D02*
X13390691Y-10246500D01*
X13390691Y-10246500D02*
X13400215Y-10227452D01*
X13400215Y-10227452D02*
X13400215Y-10217929D01*
X13400215Y-10217929D02*
X13390691Y-10198881D01*
X13390691Y-10198881D02*
X13371643Y-10189357D01*
X13371643Y-10189357D02*
X13343072Y-10189357D01*
X13343072Y-10189357D02*
X13324024Y-10179833D01*
X13324024Y-10179833D02*
X13314500Y-10160786D01*
X13314500Y-10160786D02*
X13314500Y-10151262D01*
X13314500Y-10151262D02*
X13324024Y-10132214D01*
X13324024Y-10132214D02*
X13343072Y-10122690D01*
X13343072Y-10122690D02*
X13371643Y-10122690D01*
X13371643Y-10122690D02*
X13390691Y-10132214D01*
X13466881Y-10332214D02*
X13476405Y-10322690D01*
X13476405Y-10322690D02*
X13495453Y-10294119D01*
X13495453Y-10294119D02*
X13504977Y-10275071D01*
X13504977Y-10275071D02*
X13514500Y-10246500D01*
X13514500Y-10246500D02*
X13524024Y-10198881D01*
X13524024Y-10198881D02*
X13524024Y-10160786D01*
X13524024Y-10160786D02*
X13514500Y-10113167D01*
X13514500Y-10113167D02*
X13504977Y-10084595D01*
X13504977Y-10084595D02*
X13495453Y-10065548D01*
X13495453Y-10065548D02*
X13476405Y-10036976D01*
X13476405Y-10036976D02*
X13466881Y-10027452D01*
D17*
X8404500Y-10372500D02*
X8514500Y-10482500D01*
X8514500Y-10372500D02*
X8404500Y-10482500D01*
X8514500Y-10427500D02*
G75*
G03*
X8514500Y-10427500I-55000J0D01*
G01*
D11*
X8866881Y-10520024D02*
X8752595Y-10520024D01*
X8809738Y-10520024D02*
X8809738Y-10320024D01*
X8809738Y-10320024D02*
X8790690Y-10348595D01*
X8790690Y-10348595D02*
X8771643Y-10367643D01*
X8771643Y-10367643D02*
X8752595Y-10377167D01*
X8952595Y-10500976D02*
X8962119Y-10510500D01*
X8962119Y-10510500D02*
X8952595Y-10520024D01*
X8952595Y-10520024D02*
X8943071Y-10510500D01*
X8943071Y-10510500D02*
X8952595Y-10500976D01*
X8952595Y-10500976D02*
X8952595Y-10520024D01*
X9152595Y-10520024D02*
X9038310Y-10520024D01*
X9095452Y-10520024D02*
X9095452Y-10320024D01*
X9095452Y-10320024D02*
X9076405Y-10348595D01*
X9076405Y-10348595D02*
X9057357Y-10367643D01*
X9057357Y-10367643D02*
X9038310Y-10377167D01*
X9276405Y-10320024D02*
X9295452Y-10320024D01*
X9295452Y-10320024D02*
X9314500Y-10329548D01*
X9314500Y-10329548D02*
X9324024Y-10339071D01*
X9324024Y-10339071D02*
X9333548Y-10358119D01*
X9333548Y-10358119D02*
X9343071Y-10396214D01*
X9343071Y-10396214D02*
X9343071Y-10443833D01*
X9343071Y-10443833D02*
X9333548Y-10481929D01*
X9333548Y-10481929D02*
X9324024Y-10500976D01*
X9324024Y-10500976D02*
X9314500Y-10510500D01*
X9314500Y-10510500D02*
X9295452Y-10520024D01*
X9295452Y-10520024D02*
X9276405Y-10520024D01*
X9276405Y-10520024D02*
X9257357Y-10510500D01*
X9257357Y-10510500D02*
X9247833Y-10500976D01*
X9247833Y-10500976D02*
X9238310Y-10481929D01*
X9238310Y-10481929D02*
X9228786Y-10443833D01*
X9228786Y-10443833D02*
X9228786Y-10396214D01*
X9228786Y-10396214D02*
X9238310Y-10358119D01*
X9238310Y-10358119D02*
X9247833Y-10339071D01*
X9247833Y-10339071D02*
X9257357Y-10329548D01*
X9257357Y-10329548D02*
X9276405Y-10320024D01*
X9466881Y-10320024D02*
X9485929Y-10320024D01*
X9485929Y-10320024D02*
X9504976Y-10329548D01*
X9504976Y-10329548D02*
X9514500Y-10339071D01*
X9514500Y-10339071D02*
X9524024Y-10358119D01*
X9524024Y-10358119D02*
X9533548Y-10396214D01*
X9533548Y-10396214D02*
X9533548Y-10443833D01*
X9533548Y-10443833D02*
X9524024Y-10481929D01*
X9524024Y-10481929D02*
X9514500Y-10500976D01*
X9514500Y-10500976D02*
X9504976Y-10510500D01*
X9504976Y-10510500D02*
X9485929Y-10520024D01*
X9485929Y-10520024D02*
X9466881Y-10520024D01*
X9466881Y-10520024D02*
X9447833Y-10510500D01*
X9447833Y-10510500D02*
X9438310Y-10500976D01*
X9438310Y-10500976D02*
X9428786Y-10481929D01*
X9428786Y-10481929D02*
X9419262Y-10443833D01*
X9419262Y-10443833D02*
X9419262Y-10396214D01*
X9419262Y-10396214D02*
X9428786Y-10358119D01*
X9428786Y-10358119D02*
X9438310Y-10339071D01*
X9438310Y-10339071D02*
X9447833Y-10329548D01*
X9447833Y-10329548D02*
X9466881Y-10320024D01*
X9619262Y-10520024D02*
X9619262Y-10386690D01*
X9619262Y-10405738D02*
X9628786Y-10396214D01*
X9628786Y-10396214D02*
X9647833Y-10386690D01*
X9647833Y-10386690D02*
X9676405Y-10386690D01*
X9676405Y-10386690D02*
X9695452Y-10396214D01*
X9695452Y-10396214D02*
X9704976Y-10415262D01*
X9704976Y-10415262D02*
X9704976Y-10520024D01*
X9704976Y-10415262D02*
X9714500Y-10396214D01*
X9714500Y-10396214D02*
X9733548Y-10386690D01*
X9733548Y-10386690D02*
X9762119Y-10386690D01*
X9762119Y-10386690D02*
X9781167Y-10396214D01*
X9781167Y-10396214D02*
X9790691Y-10415262D01*
X9790691Y-10415262D02*
X9790691Y-10520024D01*
X9885929Y-10520024D02*
X9885929Y-10386690D01*
X9885929Y-10405738D02*
X9895452Y-10396214D01*
X9895452Y-10396214D02*
X9914500Y-10386690D01*
X9914500Y-10386690D02*
X9943072Y-10386690D01*
X9943072Y-10386690D02*
X9962119Y-10396214D01*
X9962119Y-10396214D02*
X9971643Y-10415262D01*
X9971643Y-10415262D02*
X9971643Y-10520024D01*
X9971643Y-10415262D02*
X9981167Y-10396214D01*
X9981167Y-10396214D02*
X10000214Y-10386690D01*
X10000214Y-10386690D02*
X10028786Y-10386690D01*
X10028786Y-10386690D02*
X10047833Y-10396214D01*
X10047833Y-10396214D02*
X10057357Y-10415262D01*
X10057357Y-10415262D02*
X10057357Y-10520024D01*
X10447833Y-10310500D02*
X10276405Y-10567643D01*
X10704976Y-10320024D02*
X10724024Y-10320024D01*
X10724024Y-10320024D02*
X10743072Y-10329548D01*
X10743072Y-10329548D02*
X10752595Y-10339071D01*
X10752595Y-10339071D02*
X10762119Y-10358119D01*
X10762119Y-10358119D02*
X10771643Y-10396214D01*
X10771643Y-10396214D02*
X10771643Y-10443833D01*
X10771643Y-10443833D02*
X10762119Y-10481929D01*
X10762119Y-10481929D02*
X10752595Y-10500976D01*
X10752595Y-10500976D02*
X10743072Y-10510500D01*
X10743072Y-10510500D02*
X10724024Y-10520024D01*
X10724024Y-10520024D02*
X10704976Y-10520024D01*
X10704976Y-10520024D02*
X10685929Y-10510500D01*
X10685929Y-10510500D02*
X10676405Y-10500976D01*
X10676405Y-10500976D02*
X10666881Y-10481929D01*
X10666881Y-10481929D02*
X10657357Y-10443833D01*
X10657357Y-10443833D02*
X10657357Y-10396214D01*
X10657357Y-10396214D02*
X10666881Y-10358119D01*
X10666881Y-10358119D02*
X10676405Y-10339071D01*
X10676405Y-10339071D02*
X10685929Y-10329548D01*
X10685929Y-10329548D02*
X10704976Y-10320024D01*
X10857357Y-10500976D02*
X10866881Y-10510500D01*
X10866881Y-10510500D02*
X10857357Y-10520024D01*
X10857357Y-10520024D02*
X10847834Y-10510500D01*
X10847834Y-10510500D02*
X10857357Y-10500976D01*
X10857357Y-10500976D02*
X10857357Y-10520024D01*
X10990691Y-10320024D02*
X11009738Y-10320024D01*
X11009738Y-10320024D02*
X11028786Y-10329548D01*
X11028786Y-10329548D02*
X11038310Y-10339071D01*
X11038310Y-10339071D02*
X11047834Y-10358119D01*
X11047834Y-10358119D02*
X11057357Y-10396214D01*
X11057357Y-10396214D02*
X11057357Y-10443833D01*
X11057357Y-10443833D02*
X11047834Y-10481929D01*
X11047834Y-10481929D02*
X11038310Y-10500976D01*
X11038310Y-10500976D02*
X11028786Y-10510500D01*
X11028786Y-10510500D02*
X11009738Y-10520024D01*
X11009738Y-10520024D02*
X10990691Y-10520024D01*
X10990691Y-10520024D02*
X10971643Y-10510500D01*
X10971643Y-10510500D02*
X10962119Y-10500976D01*
X10962119Y-10500976D02*
X10952595Y-10481929D01*
X10952595Y-10481929D02*
X10943072Y-10443833D01*
X10943072Y-10443833D02*
X10943072Y-10396214D01*
X10943072Y-10396214D02*
X10952595Y-10358119D01*
X10952595Y-10358119D02*
X10962119Y-10339071D01*
X10962119Y-10339071D02*
X10971643Y-10329548D01*
X10971643Y-10329548D02*
X10990691Y-10320024D01*
X11228786Y-10386690D02*
X11228786Y-10520024D01*
X11181167Y-10310500D02*
X11133548Y-10453357D01*
X11133548Y-10453357D02*
X11257357Y-10453357D01*
X11314500Y-10320024D02*
X11438310Y-10320024D01*
X11438310Y-10320024D02*
X11371643Y-10396214D01*
X11371643Y-10396214D02*
X11400214Y-10396214D01*
X11400214Y-10396214D02*
X11419262Y-10405738D01*
X11419262Y-10405738D02*
X11428786Y-10415262D01*
X11428786Y-10415262D02*
X11438310Y-10434310D01*
X11438310Y-10434310D02*
X11438310Y-10481929D01*
X11438310Y-10481929D02*
X11428786Y-10500976D01*
X11428786Y-10500976D02*
X11419262Y-10510500D01*
X11419262Y-10510500D02*
X11400214Y-10520024D01*
X11400214Y-10520024D02*
X11343072Y-10520024D01*
X11343072Y-10520024D02*
X11324024Y-10510500D01*
X11324024Y-10510500D02*
X11314500Y-10500976D01*
X11504976Y-10320024D02*
X11628786Y-10320024D01*
X11628786Y-10320024D02*
X11562119Y-10396214D01*
X11562119Y-10396214D02*
X11590691Y-10396214D01*
X11590691Y-10396214D02*
X11609738Y-10405738D01*
X11609738Y-10405738D02*
X11619262Y-10415262D01*
X11619262Y-10415262D02*
X11628786Y-10434310D01*
X11628786Y-10434310D02*
X11628786Y-10481929D01*
X11628786Y-10481929D02*
X11619262Y-10500976D01*
X11619262Y-10500976D02*
X11609738Y-10510500D01*
X11609738Y-10510500D02*
X11590691Y-10520024D01*
X11590691Y-10520024D02*
X11533548Y-10520024D01*
X11533548Y-10520024D02*
X11514500Y-10510500D01*
X11514500Y-10510500D02*
X11504976Y-10500976D01*
X11704976Y-10320024D02*
X11704976Y-10358119D01*
X11781167Y-10320024D02*
X11781167Y-10358119D01*
X12076405Y-10596214D02*
X12066881Y-10586690D01*
X12066881Y-10586690D02*
X12047834Y-10558119D01*
X12047834Y-10558119D02*
X12038310Y-10539071D01*
X12038310Y-10539071D02*
X12028786Y-10510500D01*
X12028786Y-10510500D02*
X12019262Y-10462881D01*
X12019262Y-10462881D02*
X12019262Y-10424786D01*
X12019262Y-10424786D02*
X12028786Y-10377167D01*
X12028786Y-10377167D02*
X12038310Y-10348595D01*
X12038310Y-10348595D02*
X12047834Y-10329548D01*
X12047834Y-10329548D02*
X12066881Y-10300976D01*
X12066881Y-10300976D02*
X12076405Y-10291452D01*
X12162119Y-10520024D02*
X12200214Y-10520024D01*
X12200214Y-10520024D02*
X12219262Y-10510500D01*
X12219262Y-10510500D02*
X12228786Y-10500976D01*
X12228786Y-10500976D02*
X12247834Y-10472405D01*
X12247834Y-10472405D02*
X12257357Y-10434310D01*
X12257357Y-10434310D02*
X12257357Y-10358119D01*
X12257357Y-10358119D02*
X12247834Y-10339071D01*
X12247834Y-10339071D02*
X12238310Y-10329548D01*
X12238310Y-10329548D02*
X12219262Y-10320024D01*
X12219262Y-10320024D02*
X12181167Y-10320024D01*
X12181167Y-10320024D02*
X12162119Y-10329548D01*
X12162119Y-10329548D02*
X12152595Y-10339071D01*
X12152595Y-10339071D02*
X12143072Y-10358119D01*
X12143072Y-10358119D02*
X12143072Y-10405738D01*
X12143072Y-10405738D02*
X12152595Y-10424786D01*
X12152595Y-10424786D02*
X12162119Y-10434310D01*
X12162119Y-10434310D02*
X12181167Y-10443833D01*
X12181167Y-10443833D02*
X12219262Y-10443833D01*
X12219262Y-10443833D02*
X12238310Y-10434310D01*
X12238310Y-10434310D02*
X12247834Y-10424786D01*
X12247834Y-10424786D02*
X12257357Y-10405738D01*
X12495453Y-10520024D02*
X12495453Y-10320024D01*
X12581167Y-10520024D02*
X12581167Y-10415262D01*
X12581167Y-10415262D02*
X12571643Y-10396214D01*
X12571643Y-10396214D02*
X12552596Y-10386690D01*
X12552596Y-10386690D02*
X12524024Y-10386690D01*
X12524024Y-10386690D02*
X12504976Y-10396214D01*
X12504976Y-10396214D02*
X12495453Y-10405738D01*
X12704976Y-10520024D02*
X12685929Y-10510500D01*
X12685929Y-10510500D02*
X12676405Y-10500976D01*
X12676405Y-10500976D02*
X12666881Y-10481929D01*
X12666881Y-10481929D02*
X12666881Y-10424786D01*
X12666881Y-10424786D02*
X12676405Y-10405738D01*
X12676405Y-10405738D02*
X12685929Y-10396214D01*
X12685929Y-10396214D02*
X12704976Y-10386690D01*
X12704976Y-10386690D02*
X12733548Y-10386690D01*
X12733548Y-10386690D02*
X12752596Y-10396214D01*
X12752596Y-10396214D02*
X12762119Y-10405738D01*
X12762119Y-10405738D02*
X12771643Y-10424786D01*
X12771643Y-10424786D02*
X12771643Y-10481929D01*
X12771643Y-10481929D02*
X12762119Y-10500976D01*
X12762119Y-10500976D02*
X12752596Y-10510500D01*
X12752596Y-10510500D02*
X12733548Y-10520024D01*
X12733548Y-10520024D02*
X12704976Y-10520024D01*
X12885929Y-10520024D02*
X12866881Y-10510500D01*
X12866881Y-10510500D02*
X12857357Y-10491452D01*
X12857357Y-10491452D02*
X12857357Y-10320024D01*
X13038310Y-10510500D02*
X13019262Y-10520024D01*
X13019262Y-10520024D02*
X12981167Y-10520024D01*
X12981167Y-10520024D02*
X12962119Y-10510500D01*
X12962119Y-10510500D02*
X12952596Y-10491452D01*
X12952596Y-10491452D02*
X12952596Y-10415262D01*
X12952596Y-10415262D02*
X12962119Y-10396214D01*
X12962119Y-10396214D02*
X12981167Y-10386690D01*
X12981167Y-10386690D02*
X13019262Y-10386690D01*
X13019262Y-10386690D02*
X13038310Y-10396214D01*
X13038310Y-10396214D02*
X13047834Y-10415262D01*
X13047834Y-10415262D02*
X13047834Y-10434310D01*
X13047834Y-10434310D02*
X12952596Y-10453357D01*
X13124024Y-10510500D02*
X13143072Y-10520024D01*
X13143072Y-10520024D02*
X13181167Y-10520024D01*
X13181167Y-10520024D02*
X13200215Y-10510500D01*
X13200215Y-10510500D02*
X13209738Y-10491452D01*
X13209738Y-10491452D02*
X13209738Y-10481929D01*
X13209738Y-10481929D02*
X13200215Y-10462881D01*
X13200215Y-10462881D02*
X13181167Y-10453357D01*
X13181167Y-10453357D02*
X13152596Y-10453357D01*
X13152596Y-10453357D02*
X13133548Y-10443833D01*
X13133548Y-10443833D02*
X13124024Y-10424786D01*
X13124024Y-10424786D02*
X13124024Y-10415262D01*
X13124024Y-10415262D02*
X13133548Y-10396214D01*
X13133548Y-10396214D02*
X13152596Y-10386690D01*
X13152596Y-10386690D02*
X13181167Y-10386690D01*
X13181167Y-10386690D02*
X13200215Y-10396214D01*
X13276405Y-10596214D02*
X13285929Y-10586690D01*
X13285929Y-10586690D02*
X13304977Y-10558119D01*
X13304977Y-10558119D02*
X13314500Y-10539071D01*
X13314500Y-10539071D02*
X13324024Y-10510500D01*
X13324024Y-10510500D02*
X13333548Y-10462881D01*
X13333548Y-10462881D02*
X13333548Y-10424786D01*
X13333548Y-10424786D02*
X13324024Y-10377167D01*
X13324024Y-10377167D02*
X13314500Y-10348595D01*
X13314500Y-10348595D02*
X13304977Y-10329548D01*
X13304977Y-10329548D02*
X13285929Y-10300976D01*
X13285929Y-10300976D02*
X13276405Y-10291452D01*
X8314500Y-10591500D02*
X8514500Y-10791500D01*
X8514500Y-10591500D02*
X8314500Y-10791500D01*
X8414500Y-10591500D02*
X8414500Y-10791500D01*
X8314500Y-10691500D02*
X8514500Y-10691500D01*
X8752595Y-10603071D02*
X8762119Y-10593548D01*
X8762119Y-10593548D02*
X8781167Y-10584024D01*
X8781167Y-10584024D02*
X8828786Y-10584024D01*
X8828786Y-10584024D02*
X8847833Y-10593548D01*
X8847833Y-10593548D02*
X8857357Y-10603071D01*
X8857357Y-10603071D02*
X8866881Y-10622119D01*
X8866881Y-10622119D02*
X8866881Y-10641167D01*
X8866881Y-10641167D02*
X8857357Y-10669738D01*
X8857357Y-10669738D02*
X8743071Y-10784024D01*
X8743071Y-10784024D02*
X8866881Y-10784024D01*
X8952595Y-10764976D02*
X8962119Y-10774500D01*
X8962119Y-10774500D02*
X8952595Y-10784024D01*
X8952595Y-10784024D02*
X8943071Y-10774500D01*
X8943071Y-10774500D02*
X8952595Y-10764976D01*
X8952595Y-10764976D02*
X8952595Y-10784024D01*
X9085929Y-10584024D02*
X9104976Y-10584024D01*
X9104976Y-10584024D02*
X9124024Y-10593548D01*
X9124024Y-10593548D02*
X9133548Y-10603071D01*
X9133548Y-10603071D02*
X9143071Y-10622119D01*
X9143071Y-10622119D02*
X9152595Y-10660214D01*
X9152595Y-10660214D02*
X9152595Y-10707833D01*
X9152595Y-10707833D02*
X9143071Y-10745929D01*
X9143071Y-10745929D02*
X9133548Y-10764976D01*
X9133548Y-10764976D02*
X9124024Y-10774500D01*
X9124024Y-10774500D02*
X9104976Y-10784024D01*
X9104976Y-10784024D02*
X9085929Y-10784024D01*
X9085929Y-10784024D02*
X9066881Y-10774500D01*
X9066881Y-10774500D02*
X9057357Y-10764976D01*
X9057357Y-10764976D02*
X9047833Y-10745929D01*
X9047833Y-10745929D02*
X9038310Y-10707833D01*
X9038310Y-10707833D02*
X9038310Y-10660214D01*
X9038310Y-10660214D02*
X9047833Y-10622119D01*
X9047833Y-10622119D02*
X9057357Y-10603071D01*
X9057357Y-10603071D02*
X9066881Y-10593548D01*
X9066881Y-10593548D02*
X9085929Y-10584024D01*
X9276405Y-10584024D02*
X9295452Y-10584024D01*
X9295452Y-10584024D02*
X9314500Y-10593548D01*
X9314500Y-10593548D02*
X9324024Y-10603071D01*
X9324024Y-10603071D02*
X9333548Y-10622119D01*
X9333548Y-10622119D02*
X9343071Y-10660214D01*
X9343071Y-10660214D02*
X9343071Y-10707833D01*
X9343071Y-10707833D02*
X9333548Y-10745929D01*
X9333548Y-10745929D02*
X9324024Y-10764976D01*
X9324024Y-10764976D02*
X9314500Y-10774500D01*
X9314500Y-10774500D02*
X9295452Y-10784024D01*
X9295452Y-10784024D02*
X9276405Y-10784024D01*
X9276405Y-10784024D02*
X9257357Y-10774500D01*
X9257357Y-10774500D02*
X9247833Y-10764976D01*
X9247833Y-10764976D02*
X9238310Y-10745929D01*
X9238310Y-10745929D02*
X9228786Y-10707833D01*
X9228786Y-10707833D02*
X9228786Y-10660214D01*
X9228786Y-10660214D02*
X9238310Y-10622119D01*
X9238310Y-10622119D02*
X9247833Y-10603071D01*
X9247833Y-10603071D02*
X9257357Y-10593548D01*
X9257357Y-10593548D02*
X9276405Y-10584024D01*
X9466881Y-10584024D02*
X9485929Y-10584024D01*
X9485929Y-10584024D02*
X9504976Y-10593548D01*
X9504976Y-10593548D02*
X9514500Y-10603071D01*
X9514500Y-10603071D02*
X9524024Y-10622119D01*
X9524024Y-10622119D02*
X9533548Y-10660214D01*
X9533548Y-10660214D02*
X9533548Y-10707833D01*
X9533548Y-10707833D02*
X9524024Y-10745929D01*
X9524024Y-10745929D02*
X9514500Y-10764976D01*
X9514500Y-10764976D02*
X9504976Y-10774500D01*
X9504976Y-10774500D02*
X9485929Y-10784024D01*
X9485929Y-10784024D02*
X9466881Y-10784024D01*
X9466881Y-10784024D02*
X9447833Y-10774500D01*
X9447833Y-10774500D02*
X9438310Y-10764976D01*
X9438310Y-10764976D02*
X9428786Y-10745929D01*
X9428786Y-10745929D02*
X9419262Y-10707833D01*
X9419262Y-10707833D02*
X9419262Y-10660214D01*
X9419262Y-10660214D02*
X9428786Y-10622119D01*
X9428786Y-10622119D02*
X9438310Y-10603071D01*
X9438310Y-10603071D02*
X9447833Y-10593548D01*
X9447833Y-10593548D02*
X9466881Y-10584024D01*
X9619262Y-10784024D02*
X9619262Y-10650690D01*
X9619262Y-10669738D02*
X9628786Y-10660214D01*
X9628786Y-10660214D02*
X9647833Y-10650690D01*
X9647833Y-10650690D02*
X9676405Y-10650690D01*
X9676405Y-10650690D02*
X9695452Y-10660214D01*
X9695452Y-10660214D02*
X9704976Y-10679262D01*
X9704976Y-10679262D02*
X9704976Y-10784024D01*
X9704976Y-10679262D02*
X9714500Y-10660214D01*
X9714500Y-10660214D02*
X9733548Y-10650690D01*
X9733548Y-10650690D02*
X9762119Y-10650690D01*
X9762119Y-10650690D02*
X9781167Y-10660214D01*
X9781167Y-10660214D02*
X9790691Y-10679262D01*
X9790691Y-10679262D02*
X9790691Y-10784024D01*
X9885929Y-10784024D02*
X9885929Y-10650690D01*
X9885929Y-10669738D02*
X9895452Y-10660214D01*
X9895452Y-10660214D02*
X9914500Y-10650690D01*
X9914500Y-10650690D02*
X9943072Y-10650690D01*
X9943072Y-10650690D02*
X9962119Y-10660214D01*
X9962119Y-10660214D02*
X9971643Y-10679262D01*
X9971643Y-10679262D02*
X9971643Y-10784024D01*
X9971643Y-10679262D02*
X9981167Y-10660214D01*
X9981167Y-10660214D02*
X10000214Y-10650690D01*
X10000214Y-10650690D02*
X10028786Y-10650690D01*
X10028786Y-10650690D02*
X10047833Y-10660214D01*
X10047833Y-10660214D02*
X10057357Y-10679262D01*
X10057357Y-10679262D02*
X10057357Y-10784024D01*
X10447833Y-10574500D02*
X10276405Y-10831643D01*
X10704976Y-10584024D02*
X10724024Y-10584024D01*
X10724024Y-10584024D02*
X10743072Y-10593548D01*
X10743072Y-10593548D02*
X10752595Y-10603071D01*
X10752595Y-10603071D02*
X10762119Y-10622119D01*
X10762119Y-10622119D02*
X10771643Y-10660214D01*
X10771643Y-10660214D02*
X10771643Y-10707833D01*
X10771643Y-10707833D02*
X10762119Y-10745929D01*
X10762119Y-10745929D02*
X10752595Y-10764976D01*
X10752595Y-10764976D02*
X10743072Y-10774500D01*
X10743072Y-10774500D02*
X10724024Y-10784024D01*
X10724024Y-10784024D02*
X10704976Y-10784024D01*
X10704976Y-10784024D02*
X10685929Y-10774500D01*
X10685929Y-10774500D02*
X10676405Y-10764976D01*
X10676405Y-10764976D02*
X10666881Y-10745929D01*
X10666881Y-10745929D02*
X10657357Y-10707833D01*
X10657357Y-10707833D02*
X10657357Y-10660214D01*
X10657357Y-10660214D02*
X10666881Y-10622119D01*
X10666881Y-10622119D02*
X10676405Y-10603071D01*
X10676405Y-10603071D02*
X10685929Y-10593548D01*
X10685929Y-10593548D02*
X10704976Y-10584024D01*
X10857357Y-10764976D02*
X10866881Y-10774500D01*
X10866881Y-10774500D02*
X10857357Y-10784024D01*
X10857357Y-10784024D02*
X10847834Y-10774500D01*
X10847834Y-10774500D02*
X10857357Y-10764976D01*
X10857357Y-10764976D02*
X10857357Y-10784024D01*
X10990691Y-10584024D02*
X11009738Y-10584024D01*
X11009738Y-10584024D02*
X11028786Y-10593548D01*
X11028786Y-10593548D02*
X11038310Y-10603071D01*
X11038310Y-10603071D02*
X11047834Y-10622119D01*
X11047834Y-10622119D02*
X11057357Y-10660214D01*
X11057357Y-10660214D02*
X11057357Y-10707833D01*
X11057357Y-10707833D02*
X11047834Y-10745929D01*
X11047834Y-10745929D02*
X11038310Y-10764976D01*
X11038310Y-10764976D02*
X11028786Y-10774500D01*
X11028786Y-10774500D02*
X11009738Y-10784024D01*
X11009738Y-10784024D02*
X10990691Y-10784024D01*
X10990691Y-10784024D02*
X10971643Y-10774500D01*
X10971643Y-10774500D02*
X10962119Y-10764976D01*
X10962119Y-10764976D02*
X10952595Y-10745929D01*
X10952595Y-10745929D02*
X10943072Y-10707833D01*
X10943072Y-10707833D02*
X10943072Y-10660214D01*
X10943072Y-10660214D02*
X10952595Y-10622119D01*
X10952595Y-10622119D02*
X10962119Y-10603071D01*
X10962119Y-10603071D02*
X10971643Y-10593548D01*
X10971643Y-10593548D02*
X10990691Y-10584024D01*
X11124024Y-10584024D02*
X11257357Y-10584024D01*
X11257357Y-10584024D02*
X11171643Y-10784024D01*
X11362119Y-10669738D02*
X11343072Y-10660214D01*
X11343072Y-10660214D02*
X11333548Y-10650690D01*
X11333548Y-10650690D02*
X11324024Y-10631643D01*
X11324024Y-10631643D02*
X11324024Y-10622119D01*
X11324024Y-10622119D02*
X11333548Y-10603071D01*
X11333548Y-10603071D02*
X11343072Y-10593548D01*
X11343072Y-10593548D02*
X11362119Y-10584024D01*
X11362119Y-10584024D02*
X11400214Y-10584024D01*
X11400214Y-10584024D02*
X11419262Y-10593548D01*
X11419262Y-10593548D02*
X11428786Y-10603071D01*
X11428786Y-10603071D02*
X11438310Y-10622119D01*
X11438310Y-10622119D02*
X11438310Y-10631643D01*
X11438310Y-10631643D02*
X11428786Y-10650690D01*
X11428786Y-10650690D02*
X11419262Y-10660214D01*
X11419262Y-10660214D02*
X11400214Y-10669738D01*
X11400214Y-10669738D02*
X11362119Y-10669738D01*
X11362119Y-10669738D02*
X11343072Y-10679262D01*
X11343072Y-10679262D02*
X11333548Y-10688786D01*
X11333548Y-10688786D02*
X11324024Y-10707833D01*
X11324024Y-10707833D02*
X11324024Y-10745929D01*
X11324024Y-10745929D02*
X11333548Y-10764976D01*
X11333548Y-10764976D02*
X11343072Y-10774500D01*
X11343072Y-10774500D02*
X11362119Y-10784024D01*
X11362119Y-10784024D02*
X11400214Y-10784024D01*
X11400214Y-10784024D02*
X11419262Y-10774500D01*
X11419262Y-10774500D02*
X11428786Y-10764976D01*
X11428786Y-10764976D02*
X11438310Y-10745929D01*
X11438310Y-10745929D02*
X11438310Y-10707833D01*
X11438310Y-10707833D02*
X11428786Y-10688786D01*
X11428786Y-10688786D02*
X11419262Y-10679262D01*
X11419262Y-10679262D02*
X11400214Y-10669738D01*
X11504976Y-10584024D02*
X11638310Y-10584024D01*
X11638310Y-10584024D02*
X11552595Y-10784024D01*
X11704976Y-10584024D02*
X11704976Y-10622119D01*
X11781167Y-10584024D02*
X11781167Y-10622119D01*
X12076405Y-10860214D02*
X12066881Y-10850690D01*
X12066881Y-10850690D02*
X12047834Y-10822119D01*
X12047834Y-10822119D02*
X12038310Y-10803071D01*
X12038310Y-10803071D02*
X12028786Y-10774500D01*
X12028786Y-10774500D02*
X12019262Y-10726881D01*
X12019262Y-10726881D02*
X12019262Y-10688786D01*
X12019262Y-10688786D02*
X12028786Y-10641167D01*
X12028786Y-10641167D02*
X12038310Y-10612595D01*
X12038310Y-10612595D02*
X12047834Y-10593548D01*
X12047834Y-10593548D02*
X12066881Y-10564976D01*
X12066881Y-10564976D02*
X12076405Y-10555452D01*
X12190691Y-10584024D02*
X12209738Y-10584024D01*
X12209738Y-10584024D02*
X12228786Y-10593548D01*
X12228786Y-10593548D02*
X12238310Y-10603071D01*
X12238310Y-10603071D02*
X12247834Y-10622119D01*
X12247834Y-10622119D02*
X12257357Y-10660214D01*
X12257357Y-10660214D02*
X12257357Y-10707833D01*
X12257357Y-10707833D02*
X12247834Y-10745929D01*
X12247834Y-10745929D02*
X12238310Y-10764976D01*
X12238310Y-10764976D02*
X12228786Y-10774500D01*
X12228786Y-10774500D02*
X12209738Y-10784024D01*
X12209738Y-10784024D02*
X12190691Y-10784024D01*
X12190691Y-10784024D02*
X12171643Y-10774500D01*
X12171643Y-10774500D02*
X12162119Y-10764976D01*
X12162119Y-10764976D02*
X12152595Y-10745929D01*
X12152595Y-10745929D02*
X12143072Y-10707833D01*
X12143072Y-10707833D02*
X12143072Y-10660214D01*
X12143072Y-10660214D02*
X12152595Y-10622119D01*
X12152595Y-10622119D02*
X12162119Y-10603071D01*
X12162119Y-10603071D02*
X12171643Y-10593548D01*
X12171643Y-10593548D02*
X12190691Y-10584024D01*
X12495453Y-10784024D02*
X12495453Y-10584024D01*
X12581167Y-10784024D02*
X12581167Y-10679262D01*
X12581167Y-10679262D02*
X12571643Y-10660214D01*
X12571643Y-10660214D02*
X12552596Y-10650690D01*
X12552596Y-10650690D02*
X12524024Y-10650690D01*
X12524024Y-10650690D02*
X12504976Y-10660214D01*
X12504976Y-10660214D02*
X12495453Y-10669738D01*
X12704976Y-10784024D02*
X12685929Y-10774500D01*
X12685929Y-10774500D02*
X12676405Y-10764976D01*
X12676405Y-10764976D02*
X12666881Y-10745929D01*
X12666881Y-10745929D02*
X12666881Y-10688786D01*
X12666881Y-10688786D02*
X12676405Y-10669738D01*
X12676405Y-10669738D02*
X12685929Y-10660214D01*
X12685929Y-10660214D02*
X12704976Y-10650690D01*
X12704976Y-10650690D02*
X12733548Y-10650690D01*
X12733548Y-10650690D02*
X12752596Y-10660214D01*
X12752596Y-10660214D02*
X12762119Y-10669738D01*
X12762119Y-10669738D02*
X12771643Y-10688786D01*
X12771643Y-10688786D02*
X12771643Y-10745929D01*
X12771643Y-10745929D02*
X12762119Y-10764976D01*
X12762119Y-10764976D02*
X12752596Y-10774500D01*
X12752596Y-10774500D02*
X12733548Y-10784024D01*
X12733548Y-10784024D02*
X12704976Y-10784024D01*
X12885929Y-10784024D02*
X12866881Y-10774500D01*
X12866881Y-10774500D02*
X12857357Y-10755452D01*
X12857357Y-10755452D02*
X12857357Y-10584024D01*
X13038310Y-10774500D02*
X13019262Y-10784024D01*
X13019262Y-10784024D02*
X12981167Y-10784024D01*
X12981167Y-10784024D02*
X12962119Y-10774500D01*
X12962119Y-10774500D02*
X12952596Y-10755452D01*
X12952596Y-10755452D02*
X12952596Y-10679262D01*
X12952596Y-10679262D02*
X12962119Y-10660214D01*
X12962119Y-10660214D02*
X12981167Y-10650690D01*
X12981167Y-10650690D02*
X13019262Y-10650690D01*
X13019262Y-10650690D02*
X13038310Y-10660214D01*
X13038310Y-10660214D02*
X13047834Y-10679262D01*
X13047834Y-10679262D02*
X13047834Y-10698310D01*
X13047834Y-10698310D02*
X12952596Y-10717357D01*
X13124024Y-10774500D02*
X13143072Y-10784024D01*
X13143072Y-10784024D02*
X13181167Y-10784024D01*
X13181167Y-10784024D02*
X13200215Y-10774500D01*
X13200215Y-10774500D02*
X13209738Y-10755452D01*
X13209738Y-10755452D02*
X13209738Y-10745929D01*
X13209738Y-10745929D02*
X13200215Y-10726881D01*
X13200215Y-10726881D02*
X13181167Y-10717357D01*
X13181167Y-10717357D02*
X13152596Y-10717357D01*
X13152596Y-10717357D02*
X13133548Y-10707833D01*
X13133548Y-10707833D02*
X13124024Y-10688786D01*
X13124024Y-10688786D02*
X13124024Y-10679262D01*
X13124024Y-10679262D02*
X13133548Y-10660214D01*
X13133548Y-10660214D02*
X13152596Y-10650690D01*
X13152596Y-10650690D02*
X13181167Y-10650690D01*
X13181167Y-10650690D02*
X13200215Y-10660214D01*
X13447834Y-10707833D02*
X13600215Y-10707833D01*
X13524024Y-10784024D02*
X13524024Y-10631643D01*
X13838310Y-10603071D02*
X13847834Y-10593548D01*
X13847834Y-10593548D02*
X13866881Y-10584024D01*
X13866881Y-10584024D02*
X13914500Y-10584024D01*
X13914500Y-10584024D02*
X13933548Y-10593548D01*
X13933548Y-10593548D02*
X13943072Y-10603071D01*
X13943072Y-10603071D02*
X13952596Y-10622119D01*
X13952596Y-10622119D02*
X13952596Y-10641167D01*
X13952596Y-10641167D02*
X13943072Y-10669738D01*
X13943072Y-10669738D02*
X13828786Y-10784024D01*
X13828786Y-10784024D02*
X13952596Y-10784024D01*
X14181167Y-10774500D02*
X14200215Y-10784024D01*
X14200215Y-10784024D02*
X14238310Y-10784024D01*
X14238310Y-10784024D02*
X14257358Y-10774500D01*
X14257358Y-10774500D02*
X14266881Y-10755452D01*
X14266881Y-10755452D02*
X14266881Y-10745929D01*
X14266881Y-10745929D02*
X14257358Y-10726881D01*
X14257358Y-10726881D02*
X14238310Y-10717357D01*
X14238310Y-10717357D02*
X14209739Y-10717357D01*
X14209739Y-10717357D02*
X14190691Y-10707833D01*
X14190691Y-10707833D02*
X14181167Y-10688786D01*
X14181167Y-10688786D02*
X14181167Y-10679262D01*
X14181167Y-10679262D02*
X14190691Y-10660214D01*
X14190691Y-10660214D02*
X14209739Y-10650690D01*
X14209739Y-10650690D02*
X14238310Y-10650690D01*
X14238310Y-10650690D02*
X14257358Y-10660214D01*
X14381167Y-10784024D02*
X14362120Y-10774500D01*
X14362120Y-10774500D02*
X14352596Y-10755452D01*
X14352596Y-10755452D02*
X14352596Y-10584024D01*
X14485929Y-10784024D02*
X14466881Y-10774500D01*
X14466881Y-10774500D02*
X14457358Y-10764976D01*
X14457358Y-10764976D02*
X14447834Y-10745929D01*
X14447834Y-10745929D02*
X14447834Y-10688786D01*
X14447834Y-10688786D02*
X14457358Y-10669738D01*
X14457358Y-10669738D02*
X14466881Y-10660214D01*
X14466881Y-10660214D02*
X14485929Y-10650690D01*
X14485929Y-10650690D02*
X14514501Y-10650690D01*
X14514501Y-10650690D02*
X14533548Y-10660214D01*
X14533548Y-10660214D02*
X14543072Y-10669738D01*
X14543072Y-10669738D02*
X14552596Y-10688786D01*
X14552596Y-10688786D02*
X14552596Y-10745929D01*
X14552596Y-10745929D02*
X14543072Y-10764976D01*
X14543072Y-10764976D02*
X14533548Y-10774500D01*
X14533548Y-10774500D02*
X14514501Y-10784024D01*
X14514501Y-10784024D02*
X14485929Y-10784024D01*
X14609739Y-10650690D02*
X14685929Y-10650690D01*
X14638310Y-10584024D02*
X14638310Y-10755452D01*
X14638310Y-10755452D02*
X14647834Y-10774500D01*
X14647834Y-10774500D02*
X14666881Y-10784024D01*
X14666881Y-10784024D02*
X14685929Y-10784024D01*
X14743072Y-10774500D02*
X14762120Y-10784024D01*
X14762120Y-10784024D02*
X14800215Y-10784024D01*
X14800215Y-10784024D02*
X14819262Y-10774500D01*
X14819262Y-10774500D02*
X14828786Y-10755452D01*
X14828786Y-10755452D02*
X14828786Y-10745929D01*
X14828786Y-10745929D02*
X14819262Y-10726881D01*
X14819262Y-10726881D02*
X14800215Y-10717357D01*
X14800215Y-10717357D02*
X14771643Y-10717357D01*
X14771643Y-10717357D02*
X14752596Y-10707833D01*
X14752596Y-10707833D02*
X14743072Y-10688786D01*
X14743072Y-10688786D02*
X14743072Y-10679262D01*
X14743072Y-10679262D02*
X14752596Y-10660214D01*
X14752596Y-10660214D02*
X14771643Y-10650690D01*
X14771643Y-10650690D02*
X14800215Y-10650690D01*
X14800215Y-10650690D02*
X14819262Y-10660214D01*
X14895453Y-10860214D02*
X14904977Y-10850690D01*
X14904977Y-10850690D02*
X14924024Y-10822119D01*
X14924024Y-10822119D02*
X14933548Y-10803071D01*
X14933548Y-10803071D02*
X14943072Y-10774500D01*
X14943072Y-10774500D02*
X14952596Y-10726881D01*
X14952596Y-10726881D02*
X14952596Y-10688786D01*
X14952596Y-10688786D02*
X14943072Y-10641167D01*
X14943072Y-10641167D02*
X14933548Y-10612595D01*
X14933548Y-10612595D02*
X14924024Y-10593548D01*
X14924024Y-10593548D02*
X14904977Y-10564976D01*
X14904977Y-10564976D02*
X14895453Y-10555452D01*
M02*
