%TF.GenerationSoftware,KiCad,Pcbnew,(7.0.0)*%
%TF.CreationDate,2023-03-04T20:15:21-06:00*%
%TF.ProjectId,V0_Display,56305f44-6973-4706-9c61-792e6b696361,rev?*%
%TF.SameCoordinates,Original*%
%TF.FileFunction,Drillmap*%
%TF.FilePolarity,Positive*%
%FSLAX45Y45*%
G04 Gerber Fmt 4.5, Leading zero omitted, Abs format (unit mm)*
G04 Created by KiCad (PCBNEW (7.0.0)) date 2023-03-04 20:15:21*
%MOMM*%
%LPD*%
G01*
G04 APERTURE LIST*
%ADD10C,0.050000*%
%ADD11C,0.200000*%
%ADD12C,0.065000*%
%ADD13C,0.320000*%
G04 APERTURE END LIST*
D10*
X8517000Y-8465000D02*
X8517000Y-4965000D01*
X16517000Y-8465000D02*
X8517000Y-8465000D01*
X8517000Y-4965000D02*
X16517000Y-4965000D01*
X16517000Y-4965000D02*
X16517000Y-8465000D01*
D11*
D12*
X9107400Y-6393500D02*
X9172400Y-6458500D01*
X9172400Y-6393500D02*
X9107400Y-6458500D01*
X9107400Y-6971500D02*
X9172400Y-7036500D01*
X9172400Y-6971500D02*
X9107400Y-7036500D01*
D13*
X9077000Y-5565000D02*
G75*
G03*
X9077000Y-5565000I-160000J0D01*
G01*
X9077000Y-8065000D02*
G75*
G03*
X9077000Y-8065000I-160000J0D01*
G01*
X16277000Y-5565000D02*
G75*
G03*
X16277000Y-5565000I-160000J0D01*
G01*
X16277000Y-8065000D02*
G75*
G03*
X16277000Y-8065000I-160000J0D01*
G01*
D11*
X8762119Y-8760976D02*
X8762119Y-8560976D01*
X8762119Y-8560976D02*
X8809738Y-8560976D01*
X8809738Y-8560976D02*
X8838310Y-8570500D01*
X8838310Y-8570500D02*
X8857357Y-8589548D01*
X8857357Y-8589548D02*
X8866881Y-8608595D01*
X8866881Y-8608595D02*
X8876405Y-8646690D01*
X8876405Y-8646690D02*
X8876405Y-8675262D01*
X8876405Y-8675262D02*
X8866881Y-8713357D01*
X8866881Y-8713357D02*
X8857357Y-8732405D01*
X8857357Y-8732405D02*
X8838310Y-8751452D01*
X8838310Y-8751452D02*
X8809738Y-8760976D01*
X8809738Y-8760976D02*
X8762119Y-8760976D01*
X8962119Y-8760976D02*
X8962119Y-8627643D01*
X8962119Y-8665738D02*
X8971643Y-8646690D01*
X8971643Y-8646690D02*
X8981167Y-8637167D01*
X8981167Y-8637167D02*
X9000214Y-8627643D01*
X9000214Y-8627643D02*
X9019262Y-8627643D01*
X9085929Y-8760976D02*
X9085929Y-8627643D01*
X9085929Y-8560976D02*
X9076405Y-8570500D01*
X9076405Y-8570500D02*
X9085929Y-8580024D01*
X9085929Y-8580024D02*
X9095452Y-8570500D01*
X9095452Y-8570500D02*
X9085929Y-8560976D01*
X9085929Y-8560976D02*
X9085929Y-8580024D01*
X9209738Y-8760976D02*
X9190690Y-8751452D01*
X9190690Y-8751452D02*
X9181167Y-8732405D01*
X9181167Y-8732405D02*
X9181167Y-8560976D01*
X9314500Y-8760976D02*
X9295452Y-8751452D01*
X9295452Y-8751452D02*
X9285929Y-8732405D01*
X9285929Y-8732405D02*
X9285929Y-8560976D01*
X9510690Y-8760976D02*
X9510690Y-8560976D01*
X9510690Y-8560976D02*
X9577357Y-8703833D01*
X9577357Y-8703833D02*
X9644024Y-8560976D01*
X9644024Y-8560976D02*
X9644024Y-8760976D01*
X9824976Y-8760976D02*
X9824976Y-8656214D01*
X9824976Y-8656214D02*
X9815452Y-8637167D01*
X9815452Y-8637167D02*
X9796405Y-8627643D01*
X9796405Y-8627643D02*
X9758309Y-8627643D01*
X9758309Y-8627643D02*
X9739262Y-8637167D01*
X9824976Y-8751452D02*
X9805929Y-8760976D01*
X9805929Y-8760976D02*
X9758309Y-8760976D01*
X9758309Y-8760976D02*
X9739262Y-8751452D01*
X9739262Y-8751452D02*
X9729738Y-8732405D01*
X9729738Y-8732405D02*
X9729738Y-8713357D01*
X9729738Y-8713357D02*
X9739262Y-8694310D01*
X9739262Y-8694310D02*
X9758309Y-8684786D01*
X9758309Y-8684786D02*
X9805929Y-8684786D01*
X9805929Y-8684786D02*
X9824976Y-8675262D01*
X9920214Y-8627643D02*
X9920214Y-8827643D01*
X9920214Y-8637167D02*
X9939262Y-8627643D01*
X9939262Y-8627643D02*
X9977357Y-8627643D01*
X9977357Y-8627643D02*
X9996405Y-8637167D01*
X9996405Y-8637167D02*
X10005929Y-8646690D01*
X10005929Y-8646690D02*
X10015452Y-8665738D01*
X10015452Y-8665738D02*
X10015452Y-8722881D01*
X10015452Y-8722881D02*
X10005929Y-8741929D01*
X10005929Y-8741929D02*
X9996405Y-8751452D01*
X9996405Y-8751452D02*
X9977357Y-8760976D01*
X9977357Y-8760976D02*
X9939262Y-8760976D01*
X9939262Y-8760976D02*
X9920214Y-8751452D01*
X10101167Y-8741929D02*
X10110690Y-8751452D01*
X10110690Y-8751452D02*
X10101167Y-8760976D01*
X10101167Y-8760976D02*
X10091643Y-8751452D01*
X10091643Y-8751452D02*
X10101167Y-8741929D01*
X10101167Y-8741929D02*
X10101167Y-8760976D01*
X10101167Y-8637167D02*
X10110690Y-8646690D01*
X10110690Y-8646690D02*
X10101167Y-8656214D01*
X10101167Y-8656214D02*
X10091643Y-8646690D01*
X10091643Y-8646690D02*
X10101167Y-8637167D01*
X10101167Y-8637167D02*
X10101167Y-8656214D01*
D12*
X8449500Y-9075000D02*
X8514500Y-9140000D01*
X8514500Y-9075000D02*
X8449500Y-9140000D01*
D11*
X8800214Y-8980976D02*
X8819262Y-8980976D01*
X8819262Y-8980976D02*
X8838310Y-8990500D01*
X8838310Y-8990500D02*
X8847833Y-9000024D01*
X8847833Y-9000024D02*
X8857357Y-9019071D01*
X8857357Y-9019071D02*
X8866881Y-9057167D01*
X8866881Y-9057167D02*
X8866881Y-9104786D01*
X8866881Y-9104786D02*
X8857357Y-9142881D01*
X8857357Y-9142881D02*
X8847833Y-9161929D01*
X8847833Y-9161929D02*
X8838310Y-9171452D01*
X8838310Y-9171452D02*
X8819262Y-9180976D01*
X8819262Y-9180976D02*
X8800214Y-9180976D01*
X8800214Y-9180976D02*
X8781167Y-9171452D01*
X8781167Y-9171452D02*
X8771643Y-9161929D01*
X8771643Y-9161929D02*
X8762119Y-9142881D01*
X8762119Y-9142881D02*
X8752595Y-9104786D01*
X8752595Y-9104786D02*
X8752595Y-9057167D01*
X8752595Y-9057167D02*
X8762119Y-9019071D01*
X8762119Y-9019071D02*
X8771643Y-9000024D01*
X8771643Y-9000024D02*
X8781167Y-8990500D01*
X8781167Y-8990500D02*
X8800214Y-8980976D01*
X8952595Y-9161929D02*
X8962119Y-9171452D01*
X8962119Y-9171452D02*
X8952595Y-9180976D01*
X8952595Y-9180976D02*
X8943071Y-9171452D01*
X8943071Y-9171452D02*
X8952595Y-9161929D01*
X8952595Y-9161929D02*
X8952595Y-9180976D01*
X9133548Y-8980976D02*
X9095452Y-8980976D01*
X9095452Y-8980976D02*
X9076405Y-8990500D01*
X9076405Y-8990500D02*
X9066881Y-9000024D01*
X9066881Y-9000024D02*
X9047833Y-9028595D01*
X9047833Y-9028595D02*
X9038310Y-9066690D01*
X9038310Y-9066690D02*
X9038310Y-9142881D01*
X9038310Y-9142881D02*
X9047833Y-9161929D01*
X9047833Y-9161929D02*
X9057357Y-9171452D01*
X9057357Y-9171452D02*
X9076405Y-9180976D01*
X9076405Y-9180976D02*
X9114500Y-9180976D01*
X9114500Y-9180976D02*
X9133548Y-9171452D01*
X9133548Y-9171452D02*
X9143071Y-9161929D01*
X9143071Y-9161929D02*
X9152595Y-9142881D01*
X9152595Y-9142881D02*
X9152595Y-9095262D01*
X9152595Y-9095262D02*
X9143071Y-9076214D01*
X9143071Y-9076214D02*
X9133548Y-9066690D01*
X9133548Y-9066690D02*
X9114500Y-9057167D01*
X9114500Y-9057167D02*
X9076405Y-9057167D01*
X9076405Y-9057167D02*
X9057357Y-9066690D01*
X9057357Y-9066690D02*
X9047833Y-9076214D01*
X9047833Y-9076214D02*
X9038310Y-9095262D01*
X9333548Y-8980976D02*
X9238310Y-8980976D01*
X9238310Y-8980976D02*
X9228786Y-9076214D01*
X9228786Y-9076214D02*
X9238310Y-9066690D01*
X9238310Y-9066690D02*
X9257357Y-9057167D01*
X9257357Y-9057167D02*
X9304976Y-9057167D01*
X9304976Y-9057167D02*
X9324024Y-9066690D01*
X9324024Y-9066690D02*
X9333548Y-9076214D01*
X9333548Y-9076214D02*
X9343071Y-9095262D01*
X9343071Y-9095262D02*
X9343071Y-9142881D01*
X9343071Y-9142881D02*
X9333548Y-9161929D01*
X9333548Y-9161929D02*
X9324024Y-9171452D01*
X9324024Y-9171452D02*
X9304976Y-9180976D01*
X9304976Y-9180976D02*
X9257357Y-9180976D01*
X9257357Y-9180976D02*
X9238310Y-9171452D01*
X9238310Y-9171452D02*
X9228786Y-9161929D01*
X9466881Y-8980976D02*
X9485929Y-8980976D01*
X9485929Y-8980976D02*
X9504976Y-8990500D01*
X9504976Y-8990500D02*
X9514500Y-9000024D01*
X9514500Y-9000024D02*
X9524024Y-9019071D01*
X9524024Y-9019071D02*
X9533548Y-9057167D01*
X9533548Y-9057167D02*
X9533548Y-9104786D01*
X9533548Y-9104786D02*
X9524024Y-9142881D01*
X9524024Y-9142881D02*
X9514500Y-9161929D01*
X9514500Y-9161929D02*
X9504976Y-9171452D01*
X9504976Y-9171452D02*
X9485929Y-9180976D01*
X9485929Y-9180976D02*
X9466881Y-9180976D01*
X9466881Y-9180976D02*
X9447833Y-9171452D01*
X9447833Y-9171452D02*
X9438310Y-9161929D01*
X9438310Y-9161929D02*
X9428786Y-9142881D01*
X9428786Y-9142881D02*
X9419262Y-9104786D01*
X9419262Y-9104786D02*
X9419262Y-9057167D01*
X9419262Y-9057167D02*
X9428786Y-9019071D01*
X9428786Y-9019071D02*
X9438310Y-9000024D01*
X9438310Y-9000024D02*
X9447833Y-8990500D01*
X9447833Y-8990500D02*
X9466881Y-8980976D01*
X9619262Y-9180976D02*
X9619262Y-9047643D01*
X9619262Y-9066690D02*
X9628786Y-9057167D01*
X9628786Y-9057167D02*
X9647833Y-9047643D01*
X9647833Y-9047643D02*
X9676405Y-9047643D01*
X9676405Y-9047643D02*
X9695452Y-9057167D01*
X9695452Y-9057167D02*
X9704976Y-9076214D01*
X9704976Y-9076214D02*
X9704976Y-9180976D01*
X9704976Y-9076214D02*
X9714500Y-9057167D01*
X9714500Y-9057167D02*
X9733548Y-9047643D01*
X9733548Y-9047643D02*
X9762119Y-9047643D01*
X9762119Y-9047643D02*
X9781167Y-9057167D01*
X9781167Y-9057167D02*
X9790691Y-9076214D01*
X9790691Y-9076214D02*
X9790691Y-9180976D01*
X9885929Y-9180976D02*
X9885929Y-9047643D01*
X9885929Y-9066690D02*
X9895452Y-9057167D01*
X9895452Y-9057167D02*
X9914500Y-9047643D01*
X9914500Y-9047643D02*
X9943072Y-9047643D01*
X9943072Y-9047643D02*
X9962119Y-9057167D01*
X9962119Y-9057167D02*
X9971643Y-9076214D01*
X9971643Y-9076214D02*
X9971643Y-9180976D01*
X9971643Y-9076214D02*
X9981167Y-9057167D01*
X9981167Y-9057167D02*
X10000214Y-9047643D01*
X10000214Y-9047643D02*
X10028786Y-9047643D01*
X10028786Y-9047643D02*
X10047833Y-9057167D01*
X10047833Y-9057167D02*
X10057357Y-9076214D01*
X10057357Y-9076214D02*
X10057357Y-9180976D01*
X10415452Y-8971452D02*
X10244024Y-9228595D01*
X10640214Y-8980976D02*
X10659262Y-8980976D01*
X10659262Y-8980976D02*
X10678310Y-8990500D01*
X10678310Y-8990500D02*
X10687833Y-9000024D01*
X10687833Y-9000024D02*
X10697357Y-9019071D01*
X10697357Y-9019071D02*
X10706881Y-9057167D01*
X10706881Y-9057167D02*
X10706881Y-9104786D01*
X10706881Y-9104786D02*
X10697357Y-9142881D01*
X10697357Y-9142881D02*
X10687833Y-9161929D01*
X10687833Y-9161929D02*
X10678310Y-9171452D01*
X10678310Y-9171452D02*
X10659262Y-9180976D01*
X10659262Y-9180976D02*
X10640214Y-9180976D01*
X10640214Y-9180976D02*
X10621167Y-9171452D01*
X10621167Y-9171452D02*
X10611643Y-9161929D01*
X10611643Y-9161929D02*
X10602119Y-9142881D01*
X10602119Y-9142881D02*
X10592595Y-9104786D01*
X10592595Y-9104786D02*
X10592595Y-9057167D01*
X10592595Y-9057167D02*
X10602119Y-9019071D01*
X10602119Y-9019071D02*
X10611643Y-9000024D01*
X10611643Y-9000024D02*
X10621167Y-8990500D01*
X10621167Y-8990500D02*
X10640214Y-8980976D01*
X10792595Y-9161929D02*
X10802119Y-9171452D01*
X10802119Y-9171452D02*
X10792595Y-9180976D01*
X10792595Y-9180976D02*
X10783072Y-9171452D01*
X10783072Y-9171452D02*
X10792595Y-9161929D01*
X10792595Y-9161929D02*
X10792595Y-9180976D01*
X10925929Y-8980976D02*
X10944976Y-8980976D01*
X10944976Y-8980976D02*
X10964024Y-8990500D01*
X10964024Y-8990500D02*
X10973548Y-9000024D01*
X10973548Y-9000024D02*
X10983072Y-9019071D01*
X10983072Y-9019071D02*
X10992595Y-9057167D01*
X10992595Y-9057167D02*
X10992595Y-9104786D01*
X10992595Y-9104786D02*
X10983072Y-9142881D01*
X10983072Y-9142881D02*
X10973548Y-9161929D01*
X10973548Y-9161929D02*
X10964024Y-9171452D01*
X10964024Y-9171452D02*
X10944976Y-9180976D01*
X10944976Y-9180976D02*
X10925929Y-9180976D01*
X10925929Y-9180976D02*
X10906881Y-9171452D01*
X10906881Y-9171452D02*
X10897357Y-9161929D01*
X10897357Y-9161929D02*
X10887833Y-9142881D01*
X10887833Y-9142881D02*
X10878310Y-9104786D01*
X10878310Y-9104786D02*
X10878310Y-9057167D01*
X10878310Y-9057167D02*
X10887833Y-9019071D01*
X10887833Y-9019071D02*
X10897357Y-9000024D01*
X10897357Y-9000024D02*
X10906881Y-8990500D01*
X10906881Y-8990500D02*
X10925929Y-8980976D01*
X11068786Y-9000024D02*
X11078310Y-8990500D01*
X11078310Y-8990500D02*
X11097357Y-8980976D01*
X11097357Y-8980976D02*
X11144976Y-8980976D01*
X11144976Y-8980976D02*
X11164024Y-8990500D01*
X11164024Y-8990500D02*
X11173548Y-9000024D01*
X11173548Y-9000024D02*
X11183072Y-9019071D01*
X11183072Y-9019071D02*
X11183072Y-9038119D01*
X11183072Y-9038119D02*
X11173548Y-9066690D01*
X11173548Y-9066690D02*
X11059262Y-9180976D01*
X11059262Y-9180976D02*
X11183072Y-9180976D01*
X11364024Y-8980976D02*
X11268786Y-8980976D01*
X11268786Y-8980976D02*
X11259262Y-9076214D01*
X11259262Y-9076214D02*
X11268786Y-9066690D01*
X11268786Y-9066690D02*
X11287833Y-9057167D01*
X11287833Y-9057167D02*
X11335452Y-9057167D01*
X11335452Y-9057167D02*
X11354500Y-9066690D01*
X11354500Y-9066690D02*
X11364024Y-9076214D01*
X11364024Y-9076214D02*
X11373548Y-9095262D01*
X11373548Y-9095262D02*
X11373548Y-9142881D01*
X11373548Y-9142881D02*
X11364024Y-9161929D01*
X11364024Y-9161929D02*
X11354500Y-9171452D01*
X11354500Y-9171452D02*
X11335452Y-9180976D01*
X11335452Y-9180976D02*
X11287833Y-9180976D01*
X11287833Y-9180976D02*
X11268786Y-9171452D01*
X11268786Y-9171452D02*
X11259262Y-9161929D01*
X11544976Y-8980976D02*
X11506881Y-8980976D01*
X11506881Y-8980976D02*
X11487833Y-8990500D01*
X11487833Y-8990500D02*
X11478310Y-9000024D01*
X11478310Y-9000024D02*
X11459262Y-9028595D01*
X11459262Y-9028595D02*
X11449738Y-9066690D01*
X11449738Y-9066690D02*
X11449738Y-9142881D01*
X11449738Y-9142881D02*
X11459262Y-9161929D01*
X11459262Y-9161929D02*
X11468786Y-9171452D01*
X11468786Y-9171452D02*
X11487833Y-9180976D01*
X11487833Y-9180976D02*
X11525929Y-9180976D01*
X11525929Y-9180976D02*
X11544976Y-9171452D01*
X11544976Y-9171452D02*
X11554500Y-9161929D01*
X11554500Y-9161929D02*
X11564024Y-9142881D01*
X11564024Y-9142881D02*
X11564024Y-9095262D01*
X11564024Y-9095262D02*
X11554500Y-9076214D01*
X11554500Y-9076214D02*
X11544976Y-9066690D01*
X11544976Y-9066690D02*
X11525929Y-9057167D01*
X11525929Y-9057167D02*
X11487833Y-9057167D01*
X11487833Y-9057167D02*
X11468786Y-9066690D01*
X11468786Y-9066690D02*
X11459262Y-9076214D01*
X11459262Y-9076214D02*
X11449738Y-9095262D01*
X11640214Y-8980976D02*
X11640214Y-9019071D01*
X11716405Y-8980976D02*
X11716405Y-9019071D01*
X11979262Y-9257167D02*
X11969738Y-9247643D01*
X11969738Y-9247643D02*
X11950691Y-9219071D01*
X11950691Y-9219071D02*
X11941167Y-9200024D01*
X11941167Y-9200024D02*
X11931643Y-9171452D01*
X11931643Y-9171452D02*
X11922119Y-9123833D01*
X11922119Y-9123833D02*
X11922119Y-9085738D01*
X11922119Y-9085738D02*
X11931643Y-9038119D01*
X11931643Y-9038119D02*
X11941167Y-9009548D01*
X11941167Y-9009548D02*
X11950691Y-8990500D01*
X11950691Y-8990500D02*
X11969738Y-8961929D01*
X11969738Y-8961929D02*
X11979262Y-8952405D01*
X12045929Y-9000024D02*
X12055452Y-8990500D01*
X12055452Y-8990500D02*
X12074500Y-8980976D01*
X12074500Y-8980976D02*
X12122119Y-8980976D01*
X12122119Y-8980976D02*
X12141167Y-8990500D01*
X12141167Y-8990500D02*
X12150691Y-9000024D01*
X12150691Y-9000024D02*
X12160214Y-9019071D01*
X12160214Y-9019071D02*
X12160214Y-9038119D01*
X12160214Y-9038119D02*
X12150691Y-9066690D01*
X12150691Y-9066690D02*
X12036405Y-9180976D01*
X12036405Y-9180976D02*
X12160214Y-9180976D01*
X12365929Y-9180976D02*
X12365929Y-8980976D01*
X12451643Y-9180976D02*
X12451643Y-9076214D01*
X12451643Y-9076214D02*
X12442119Y-9057167D01*
X12442119Y-9057167D02*
X12423072Y-9047643D01*
X12423072Y-9047643D02*
X12394500Y-9047643D01*
X12394500Y-9047643D02*
X12375452Y-9057167D01*
X12375452Y-9057167D02*
X12365929Y-9066690D01*
X12575452Y-9180976D02*
X12556405Y-9171452D01*
X12556405Y-9171452D02*
X12546881Y-9161929D01*
X12546881Y-9161929D02*
X12537357Y-9142881D01*
X12537357Y-9142881D02*
X12537357Y-9085738D01*
X12537357Y-9085738D02*
X12546881Y-9066690D01*
X12546881Y-9066690D02*
X12556405Y-9057167D01*
X12556405Y-9057167D02*
X12575452Y-9047643D01*
X12575452Y-9047643D02*
X12604024Y-9047643D01*
X12604024Y-9047643D02*
X12623072Y-9057167D01*
X12623072Y-9057167D02*
X12632595Y-9066690D01*
X12632595Y-9066690D02*
X12642119Y-9085738D01*
X12642119Y-9085738D02*
X12642119Y-9142881D01*
X12642119Y-9142881D02*
X12632595Y-9161929D01*
X12632595Y-9161929D02*
X12623072Y-9171452D01*
X12623072Y-9171452D02*
X12604024Y-9180976D01*
X12604024Y-9180976D02*
X12575452Y-9180976D01*
X12756405Y-9180976D02*
X12737357Y-9171452D01*
X12737357Y-9171452D02*
X12727833Y-9152405D01*
X12727833Y-9152405D02*
X12727833Y-8980976D01*
X12908786Y-9171452D02*
X12889738Y-9180976D01*
X12889738Y-9180976D02*
X12851643Y-9180976D01*
X12851643Y-9180976D02*
X12832595Y-9171452D01*
X12832595Y-9171452D02*
X12823072Y-9152405D01*
X12823072Y-9152405D02*
X12823072Y-9076214D01*
X12823072Y-9076214D02*
X12832595Y-9057167D01*
X12832595Y-9057167D02*
X12851643Y-9047643D01*
X12851643Y-9047643D02*
X12889738Y-9047643D01*
X12889738Y-9047643D02*
X12908786Y-9057167D01*
X12908786Y-9057167D02*
X12918310Y-9076214D01*
X12918310Y-9076214D02*
X12918310Y-9095262D01*
X12918310Y-9095262D02*
X12823072Y-9114310D01*
X12994500Y-9171452D02*
X13013548Y-9180976D01*
X13013548Y-9180976D02*
X13051643Y-9180976D01*
X13051643Y-9180976D02*
X13070691Y-9171452D01*
X13070691Y-9171452D02*
X13080214Y-9152405D01*
X13080214Y-9152405D02*
X13080214Y-9142881D01*
X13080214Y-9142881D02*
X13070691Y-9123833D01*
X13070691Y-9123833D02*
X13051643Y-9114310D01*
X13051643Y-9114310D02*
X13023072Y-9114310D01*
X13023072Y-9114310D02*
X13004024Y-9104786D01*
X13004024Y-9104786D02*
X12994500Y-9085738D01*
X12994500Y-9085738D02*
X12994500Y-9076214D01*
X12994500Y-9076214D02*
X13004024Y-9057167D01*
X13004024Y-9057167D02*
X13023072Y-9047643D01*
X13023072Y-9047643D02*
X13051643Y-9047643D01*
X13051643Y-9047643D02*
X13070691Y-9057167D01*
X13146881Y-9257167D02*
X13156405Y-9247643D01*
X13156405Y-9247643D02*
X13175453Y-9219071D01*
X13175453Y-9219071D02*
X13184976Y-9200024D01*
X13184976Y-9200024D02*
X13194500Y-9171452D01*
X13194500Y-9171452D02*
X13204024Y-9123833D01*
X13204024Y-9123833D02*
X13204024Y-9085738D01*
X13204024Y-9085738D02*
X13194500Y-9038119D01*
X13194500Y-9038119D02*
X13184976Y-9009548D01*
X13184976Y-9009548D02*
X13175453Y-8990500D01*
X13175453Y-8990500D02*
X13156405Y-8961929D01*
X13156405Y-8961929D02*
X13146881Y-8952405D01*
X13476405Y-9257167D02*
X13466881Y-9247643D01*
X13466881Y-9247643D02*
X13447833Y-9219071D01*
X13447833Y-9219071D02*
X13438310Y-9200024D01*
X13438310Y-9200024D02*
X13428786Y-9171452D01*
X13428786Y-9171452D02*
X13419262Y-9123833D01*
X13419262Y-9123833D02*
X13419262Y-9085738D01*
X13419262Y-9085738D02*
X13428786Y-9038119D01*
X13428786Y-9038119D02*
X13438310Y-9009548D01*
X13438310Y-9009548D02*
X13447833Y-8990500D01*
X13447833Y-8990500D02*
X13466881Y-8961929D01*
X13466881Y-8961929D02*
X13476405Y-8952405D01*
X13552595Y-9047643D02*
X13552595Y-9180976D01*
X13552595Y-9066690D02*
X13562119Y-9057167D01*
X13562119Y-9057167D02*
X13581167Y-9047643D01*
X13581167Y-9047643D02*
X13609738Y-9047643D01*
X13609738Y-9047643D02*
X13628786Y-9057167D01*
X13628786Y-9057167D02*
X13638310Y-9076214D01*
X13638310Y-9076214D02*
X13638310Y-9180976D01*
X13762119Y-9180976D02*
X13743072Y-9171452D01*
X13743072Y-9171452D02*
X13733548Y-9161929D01*
X13733548Y-9161929D02*
X13724024Y-9142881D01*
X13724024Y-9142881D02*
X13724024Y-9085738D01*
X13724024Y-9085738D02*
X13733548Y-9066690D01*
X13733548Y-9066690D02*
X13743072Y-9057167D01*
X13743072Y-9057167D02*
X13762119Y-9047643D01*
X13762119Y-9047643D02*
X13790691Y-9047643D01*
X13790691Y-9047643D02*
X13809738Y-9057167D01*
X13809738Y-9057167D02*
X13819262Y-9066690D01*
X13819262Y-9066690D02*
X13828786Y-9085738D01*
X13828786Y-9085738D02*
X13828786Y-9142881D01*
X13828786Y-9142881D02*
X13819262Y-9161929D01*
X13819262Y-9161929D02*
X13809738Y-9171452D01*
X13809738Y-9171452D02*
X13790691Y-9180976D01*
X13790691Y-9180976D02*
X13762119Y-9180976D01*
X13885929Y-9047643D02*
X13962119Y-9047643D01*
X13914500Y-8980976D02*
X13914500Y-9152405D01*
X13914500Y-9152405D02*
X13924024Y-9171452D01*
X13924024Y-9171452D02*
X13943072Y-9180976D01*
X13943072Y-9180976D02*
X13962119Y-9180976D01*
X14148786Y-9047643D02*
X14148786Y-9247643D01*
X14148786Y-9057167D02*
X14167833Y-9047643D01*
X14167833Y-9047643D02*
X14205929Y-9047643D01*
X14205929Y-9047643D02*
X14224976Y-9057167D01*
X14224976Y-9057167D02*
X14234500Y-9066690D01*
X14234500Y-9066690D02*
X14244024Y-9085738D01*
X14244024Y-9085738D02*
X14244024Y-9142881D01*
X14244024Y-9142881D02*
X14234500Y-9161929D01*
X14234500Y-9161929D02*
X14224976Y-9171452D01*
X14224976Y-9171452D02*
X14205929Y-9180976D01*
X14205929Y-9180976D02*
X14167833Y-9180976D01*
X14167833Y-9180976D02*
X14148786Y-9171452D01*
X14358310Y-9180976D02*
X14339262Y-9171452D01*
X14339262Y-9171452D02*
X14329738Y-9152405D01*
X14329738Y-9152405D02*
X14329738Y-8980976D01*
X14520214Y-9180976D02*
X14520214Y-9076214D01*
X14520214Y-9076214D02*
X14510691Y-9057167D01*
X14510691Y-9057167D02*
X14491643Y-9047643D01*
X14491643Y-9047643D02*
X14453548Y-9047643D01*
X14453548Y-9047643D02*
X14434500Y-9057167D01*
X14520214Y-9171452D02*
X14501167Y-9180976D01*
X14501167Y-9180976D02*
X14453548Y-9180976D01*
X14453548Y-9180976D02*
X14434500Y-9171452D01*
X14434500Y-9171452D02*
X14424976Y-9152405D01*
X14424976Y-9152405D02*
X14424976Y-9133357D01*
X14424976Y-9133357D02*
X14434500Y-9114310D01*
X14434500Y-9114310D02*
X14453548Y-9104786D01*
X14453548Y-9104786D02*
X14501167Y-9104786D01*
X14501167Y-9104786D02*
X14520214Y-9095262D01*
X14586881Y-9047643D02*
X14663072Y-9047643D01*
X14615453Y-8980976D02*
X14615453Y-9152405D01*
X14615453Y-9152405D02*
X14624976Y-9171452D01*
X14624976Y-9171452D02*
X14644024Y-9180976D01*
X14644024Y-9180976D02*
X14663072Y-9180976D01*
X14805929Y-9171452D02*
X14786881Y-9180976D01*
X14786881Y-9180976D02*
X14748786Y-9180976D01*
X14748786Y-9180976D02*
X14729738Y-9171452D01*
X14729738Y-9171452D02*
X14720214Y-9152405D01*
X14720214Y-9152405D02*
X14720214Y-9076214D01*
X14720214Y-9076214D02*
X14729738Y-9057167D01*
X14729738Y-9057167D02*
X14748786Y-9047643D01*
X14748786Y-9047643D02*
X14786881Y-9047643D01*
X14786881Y-9047643D02*
X14805929Y-9057167D01*
X14805929Y-9057167D02*
X14815453Y-9076214D01*
X14815453Y-9076214D02*
X14815453Y-9095262D01*
X14815453Y-9095262D02*
X14720214Y-9114310D01*
X14986881Y-9180976D02*
X14986881Y-8980976D01*
X14986881Y-9171452D02*
X14967834Y-9180976D01*
X14967834Y-9180976D02*
X14929738Y-9180976D01*
X14929738Y-9180976D02*
X14910691Y-9171452D01*
X14910691Y-9171452D02*
X14901167Y-9161929D01*
X14901167Y-9161929D02*
X14891643Y-9142881D01*
X14891643Y-9142881D02*
X14891643Y-9085738D01*
X14891643Y-9085738D02*
X14901167Y-9066690D01*
X14901167Y-9066690D02*
X14910691Y-9057167D01*
X14910691Y-9057167D02*
X14929738Y-9047643D01*
X14929738Y-9047643D02*
X14967834Y-9047643D01*
X14967834Y-9047643D02*
X14986881Y-9057167D01*
X15063072Y-9257167D02*
X15072595Y-9247643D01*
X15072595Y-9247643D02*
X15091643Y-9219071D01*
X15091643Y-9219071D02*
X15101167Y-9200024D01*
X15101167Y-9200024D02*
X15110691Y-9171452D01*
X15110691Y-9171452D02*
X15120214Y-9123833D01*
X15120214Y-9123833D02*
X15120214Y-9085738D01*
X15120214Y-9085738D02*
X15110691Y-9038119D01*
X15110691Y-9038119D02*
X15101167Y-9009548D01*
X15101167Y-9009548D02*
X15091643Y-8990500D01*
X15091643Y-8990500D02*
X15072595Y-8961929D01*
X15072595Y-8961929D02*
X15063072Y-8952405D01*
X8514500Y-9371500D02*
G75*
G03*
X8514500Y-9371500I-100000J0D01*
G01*
X8743071Y-9244976D02*
X8866881Y-9244976D01*
X8866881Y-9244976D02*
X8800214Y-9321167D01*
X8800214Y-9321167D02*
X8828786Y-9321167D01*
X8828786Y-9321167D02*
X8847833Y-9330690D01*
X8847833Y-9330690D02*
X8857357Y-9340214D01*
X8857357Y-9340214D02*
X8866881Y-9359262D01*
X8866881Y-9359262D02*
X8866881Y-9406881D01*
X8866881Y-9406881D02*
X8857357Y-9425929D01*
X8857357Y-9425929D02*
X8847833Y-9435452D01*
X8847833Y-9435452D02*
X8828786Y-9444976D01*
X8828786Y-9444976D02*
X8771643Y-9444976D01*
X8771643Y-9444976D02*
X8752595Y-9435452D01*
X8752595Y-9435452D02*
X8743071Y-9425929D01*
X8952595Y-9425929D02*
X8962119Y-9435452D01*
X8962119Y-9435452D02*
X8952595Y-9444976D01*
X8952595Y-9444976D02*
X8943071Y-9435452D01*
X8943071Y-9435452D02*
X8952595Y-9425929D01*
X8952595Y-9425929D02*
X8952595Y-9444976D01*
X9038310Y-9264024D02*
X9047833Y-9254500D01*
X9047833Y-9254500D02*
X9066881Y-9244976D01*
X9066881Y-9244976D02*
X9114500Y-9244976D01*
X9114500Y-9244976D02*
X9133548Y-9254500D01*
X9133548Y-9254500D02*
X9143071Y-9264024D01*
X9143071Y-9264024D02*
X9152595Y-9283071D01*
X9152595Y-9283071D02*
X9152595Y-9302119D01*
X9152595Y-9302119D02*
X9143071Y-9330690D01*
X9143071Y-9330690D02*
X9028786Y-9444976D01*
X9028786Y-9444976D02*
X9152595Y-9444976D01*
X9276405Y-9244976D02*
X9295452Y-9244976D01*
X9295452Y-9244976D02*
X9314500Y-9254500D01*
X9314500Y-9254500D02*
X9324024Y-9264024D01*
X9324024Y-9264024D02*
X9333548Y-9283071D01*
X9333548Y-9283071D02*
X9343071Y-9321167D01*
X9343071Y-9321167D02*
X9343071Y-9368786D01*
X9343071Y-9368786D02*
X9333548Y-9406881D01*
X9333548Y-9406881D02*
X9324024Y-9425929D01*
X9324024Y-9425929D02*
X9314500Y-9435452D01*
X9314500Y-9435452D02*
X9295452Y-9444976D01*
X9295452Y-9444976D02*
X9276405Y-9444976D01*
X9276405Y-9444976D02*
X9257357Y-9435452D01*
X9257357Y-9435452D02*
X9247833Y-9425929D01*
X9247833Y-9425929D02*
X9238310Y-9406881D01*
X9238310Y-9406881D02*
X9228786Y-9368786D01*
X9228786Y-9368786D02*
X9228786Y-9321167D01*
X9228786Y-9321167D02*
X9238310Y-9283071D01*
X9238310Y-9283071D02*
X9247833Y-9264024D01*
X9247833Y-9264024D02*
X9257357Y-9254500D01*
X9257357Y-9254500D02*
X9276405Y-9244976D01*
X9466881Y-9244976D02*
X9485929Y-9244976D01*
X9485929Y-9244976D02*
X9504976Y-9254500D01*
X9504976Y-9254500D02*
X9514500Y-9264024D01*
X9514500Y-9264024D02*
X9524024Y-9283071D01*
X9524024Y-9283071D02*
X9533548Y-9321167D01*
X9533548Y-9321167D02*
X9533548Y-9368786D01*
X9533548Y-9368786D02*
X9524024Y-9406881D01*
X9524024Y-9406881D02*
X9514500Y-9425929D01*
X9514500Y-9425929D02*
X9504976Y-9435452D01*
X9504976Y-9435452D02*
X9485929Y-9444976D01*
X9485929Y-9444976D02*
X9466881Y-9444976D01*
X9466881Y-9444976D02*
X9447833Y-9435452D01*
X9447833Y-9435452D02*
X9438310Y-9425929D01*
X9438310Y-9425929D02*
X9428786Y-9406881D01*
X9428786Y-9406881D02*
X9419262Y-9368786D01*
X9419262Y-9368786D02*
X9419262Y-9321167D01*
X9419262Y-9321167D02*
X9428786Y-9283071D01*
X9428786Y-9283071D02*
X9438310Y-9264024D01*
X9438310Y-9264024D02*
X9447833Y-9254500D01*
X9447833Y-9254500D02*
X9466881Y-9244976D01*
X9619262Y-9444976D02*
X9619262Y-9311643D01*
X9619262Y-9330690D02*
X9628786Y-9321167D01*
X9628786Y-9321167D02*
X9647833Y-9311643D01*
X9647833Y-9311643D02*
X9676405Y-9311643D01*
X9676405Y-9311643D02*
X9695452Y-9321167D01*
X9695452Y-9321167D02*
X9704976Y-9340214D01*
X9704976Y-9340214D02*
X9704976Y-9444976D01*
X9704976Y-9340214D02*
X9714500Y-9321167D01*
X9714500Y-9321167D02*
X9733548Y-9311643D01*
X9733548Y-9311643D02*
X9762119Y-9311643D01*
X9762119Y-9311643D02*
X9781167Y-9321167D01*
X9781167Y-9321167D02*
X9790691Y-9340214D01*
X9790691Y-9340214D02*
X9790691Y-9444976D01*
X9885929Y-9444976D02*
X9885929Y-9311643D01*
X9885929Y-9330690D02*
X9895452Y-9321167D01*
X9895452Y-9321167D02*
X9914500Y-9311643D01*
X9914500Y-9311643D02*
X9943072Y-9311643D01*
X9943072Y-9311643D02*
X9962119Y-9321167D01*
X9962119Y-9321167D02*
X9971643Y-9340214D01*
X9971643Y-9340214D02*
X9971643Y-9444976D01*
X9971643Y-9340214D02*
X9981167Y-9321167D01*
X9981167Y-9321167D02*
X10000214Y-9311643D01*
X10000214Y-9311643D02*
X10028786Y-9311643D01*
X10028786Y-9311643D02*
X10047833Y-9321167D01*
X10047833Y-9321167D02*
X10057357Y-9340214D01*
X10057357Y-9340214D02*
X10057357Y-9444976D01*
X10415452Y-9235452D02*
X10244024Y-9492595D01*
X10640214Y-9244976D02*
X10659262Y-9244976D01*
X10659262Y-9244976D02*
X10678310Y-9254500D01*
X10678310Y-9254500D02*
X10687833Y-9264024D01*
X10687833Y-9264024D02*
X10697357Y-9283071D01*
X10697357Y-9283071D02*
X10706881Y-9321167D01*
X10706881Y-9321167D02*
X10706881Y-9368786D01*
X10706881Y-9368786D02*
X10697357Y-9406881D01*
X10697357Y-9406881D02*
X10687833Y-9425929D01*
X10687833Y-9425929D02*
X10678310Y-9435452D01*
X10678310Y-9435452D02*
X10659262Y-9444976D01*
X10659262Y-9444976D02*
X10640214Y-9444976D01*
X10640214Y-9444976D02*
X10621167Y-9435452D01*
X10621167Y-9435452D02*
X10611643Y-9425929D01*
X10611643Y-9425929D02*
X10602119Y-9406881D01*
X10602119Y-9406881D02*
X10592595Y-9368786D01*
X10592595Y-9368786D02*
X10592595Y-9321167D01*
X10592595Y-9321167D02*
X10602119Y-9283071D01*
X10602119Y-9283071D02*
X10611643Y-9264024D01*
X10611643Y-9264024D02*
X10621167Y-9254500D01*
X10621167Y-9254500D02*
X10640214Y-9244976D01*
X10792595Y-9425929D02*
X10802119Y-9435452D01*
X10802119Y-9435452D02*
X10792595Y-9444976D01*
X10792595Y-9444976D02*
X10783072Y-9435452D01*
X10783072Y-9435452D02*
X10792595Y-9425929D01*
X10792595Y-9425929D02*
X10792595Y-9444976D01*
X10992595Y-9444976D02*
X10878310Y-9444976D01*
X10935452Y-9444976D02*
X10935452Y-9244976D01*
X10935452Y-9244976D02*
X10916405Y-9273548D01*
X10916405Y-9273548D02*
X10897357Y-9292595D01*
X10897357Y-9292595D02*
X10878310Y-9302119D01*
X11068786Y-9264024D02*
X11078310Y-9254500D01*
X11078310Y-9254500D02*
X11097357Y-9244976D01*
X11097357Y-9244976D02*
X11144976Y-9244976D01*
X11144976Y-9244976D02*
X11164024Y-9254500D01*
X11164024Y-9254500D02*
X11173548Y-9264024D01*
X11173548Y-9264024D02*
X11183072Y-9283071D01*
X11183072Y-9283071D02*
X11183072Y-9302119D01*
X11183072Y-9302119D02*
X11173548Y-9330690D01*
X11173548Y-9330690D02*
X11059262Y-9444976D01*
X11059262Y-9444976D02*
X11183072Y-9444976D01*
X11354500Y-9244976D02*
X11316405Y-9244976D01*
X11316405Y-9244976D02*
X11297357Y-9254500D01*
X11297357Y-9254500D02*
X11287833Y-9264024D01*
X11287833Y-9264024D02*
X11268786Y-9292595D01*
X11268786Y-9292595D02*
X11259262Y-9330690D01*
X11259262Y-9330690D02*
X11259262Y-9406881D01*
X11259262Y-9406881D02*
X11268786Y-9425929D01*
X11268786Y-9425929D02*
X11278310Y-9435452D01*
X11278310Y-9435452D02*
X11297357Y-9444976D01*
X11297357Y-9444976D02*
X11335452Y-9444976D01*
X11335452Y-9444976D02*
X11354500Y-9435452D01*
X11354500Y-9435452D02*
X11364024Y-9425929D01*
X11364024Y-9425929D02*
X11373548Y-9406881D01*
X11373548Y-9406881D02*
X11373548Y-9359262D01*
X11373548Y-9359262D02*
X11364024Y-9340214D01*
X11364024Y-9340214D02*
X11354500Y-9330690D01*
X11354500Y-9330690D02*
X11335452Y-9321167D01*
X11335452Y-9321167D02*
X11297357Y-9321167D01*
X11297357Y-9321167D02*
X11278310Y-9330690D01*
X11278310Y-9330690D02*
X11268786Y-9340214D01*
X11268786Y-9340214D02*
X11259262Y-9359262D01*
X11497357Y-9244976D02*
X11516405Y-9244976D01*
X11516405Y-9244976D02*
X11535452Y-9254500D01*
X11535452Y-9254500D02*
X11544976Y-9264024D01*
X11544976Y-9264024D02*
X11554500Y-9283071D01*
X11554500Y-9283071D02*
X11564024Y-9321167D01*
X11564024Y-9321167D02*
X11564024Y-9368786D01*
X11564024Y-9368786D02*
X11554500Y-9406881D01*
X11554500Y-9406881D02*
X11544976Y-9425929D01*
X11544976Y-9425929D02*
X11535452Y-9435452D01*
X11535452Y-9435452D02*
X11516405Y-9444976D01*
X11516405Y-9444976D02*
X11497357Y-9444976D01*
X11497357Y-9444976D02*
X11478310Y-9435452D01*
X11478310Y-9435452D02*
X11468786Y-9425929D01*
X11468786Y-9425929D02*
X11459262Y-9406881D01*
X11459262Y-9406881D02*
X11449738Y-9368786D01*
X11449738Y-9368786D02*
X11449738Y-9321167D01*
X11449738Y-9321167D02*
X11459262Y-9283071D01*
X11459262Y-9283071D02*
X11468786Y-9264024D01*
X11468786Y-9264024D02*
X11478310Y-9254500D01*
X11478310Y-9254500D02*
X11497357Y-9244976D01*
X11640214Y-9244976D02*
X11640214Y-9283071D01*
X11716405Y-9244976D02*
X11716405Y-9283071D01*
X11979262Y-9521167D02*
X11969738Y-9511643D01*
X11969738Y-9511643D02*
X11950691Y-9483071D01*
X11950691Y-9483071D02*
X11941167Y-9464024D01*
X11941167Y-9464024D02*
X11931643Y-9435452D01*
X11931643Y-9435452D02*
X11922119Y-9387833D01*
X11922119Y-9387833D02*
X11922119Y-9349738D01*
X11922119Y-9349738D02*
X11931643Y-9302119D01*
X11931643Y-9302119D02*
X11941167Y-9273548D01*
X11941167Y-9273548D02*
X11950691Y-9254500D01*
X11950691Y-9254500D02*
X11969738Y-9225929D01*
X11969738Y-9225929D02*
X11979262Y-9216405D01*
X12141167Y-9311643D02*
X12141167Y-9444976D01*
X12093548Y-9235452D02*
X12045929Y-9378310D01*
X12045929Y-9378310D02*
X12169738Y-9378310D01*
X12365929Y-9444976D02*
X12365929Y-9244976D01*
X12451643Y-9444976D02*
X12451643Y-9340214D01*
X12451643Y-9340214D02*
X12442119Y-9321167D01*
X12442119Y-9321167D02*
X12423072Y-9311643D01*
X12423072Y-9311643D02*
X12394500Y-9311643D01*
X12394500Y-9311643D02*
X12375452Y-9321167D01*
X12375452Y-9321167D02*
X12365929Y-9330690D01*
X12575452Y-9444976D02*
X12556405Y-9435452D01*
X12556405Y-9435452D02*
X12546881Y-9425929D01*
X12546881Y-9425929D02*
X12537357Y-9406881D01*
X12537357Y-9406881D02*
X12537357Y-9349738D01*
X12537357Y-9349738D02*
X12546881Y-9330690D01*
X12546881Y-9330690D02*
X12556405Y-9321167D01*
X12556405Y-9321167D02*
X12575452Y-9311643D01*
X12575452Y-9311643D02*
X12604024Y-9311643D01*
X12604024Y-9311643D02*
X12623072Y-9321167D01*
X12623072Y-9321167D02*
X12632595Y-9330690D01*
X12632595Y-9330690D02*
X12642119Y-9349738D01*
X12642119Y-9349738D02*
X12642119Y-9406881D01*
X12642119Y-9406881D02*
X12632595Y-9425929D01*
X12632595Y-9425929D02*
X12623072Y-9435452D01*
X12623072Y-9435452D02*
X12604024Y-9444976D01*
X12604024Y-9444976D02*
X12575452Y-9444976D01*
X12756405Y-9444976D02*
X12737357Y-9435452D01*
X12737357Y-9435452D02*
X12727833Y-9416405D01*
X12727833Y-9416405D02*
X12727833Y-9244976D01*
X12908786Y-9435452D02*
X12889738Y-9444976D01*
X12889738Y-9444976D02*
X12851643Y-9444976D01*
X12851643Y-9444976D02*
X12832595Y-9435452D01*
X12832595Y-9435452D02*
X12823072Y-9416405D01*
X12823072Y-9416405D02*
X12823072Y-9340214D01*
X12823072Y-9340214D02*
X12832595Y-9321167D01*
X12832595Y-9321167D02*
X12851643Y-9311643D01*
X12851643Y-9311643D02*
X12889738Y-9311643D01*
X12889738Y-9311643D02*
X12908786Y-9321167D01*
X12908786Y-9321167D02*
X12918310Y-9340214D01*
X12918310Y-9340214D02*
X12918310Y-9359262D01*
X12918310Y-9359262D02*
X12823072Y-9378310D01*
X12994500Y-9435452D02*
X13013548Y-9444976D01*
X13013548Y-9444976D02*
X13051643Y-9444976D01*
X13051643Y-9444976D02*
X13070691Y-9435452D01*
X13070691Y-9435452D02*
X13080214Y-9416405D01*
X13080214Y-9416405D02*
X13080214Y-9406881D01*
X13080214Y-9406881D02*
X13070691Y-9387833D01*
X13070691Y-9387833D02*
X13051643Y-9378310D01*
X13051643Y-9378310D02*
X13023072Y-9378310D01*
X13023072Y-9378310D02*
X13004024Y-9368786D01*
X13004024Y-9368786D02*
X12994500Y-9349738D01*
X12994500Y-9349738D02*
X12994500Y-9340214D01*
X12994500Y-9340214D02*
X13004024Y-9321167D01*
X13004024Y-9321167D02*
X13023072Y-9311643D01*
X13023072Y-9311643D02*
X13051643Y-9311643D01*
X13051643Y-9311643D02*
X13070691Y-9321167D01*
X13146881Y-9521167D02*
X13156405Y-9511643D01*
X13156405Y-9511643D02*
X13175453Y-9483071D01*
X13175453Y-9483071D02*
X13184976Y-9464024D01*
X13184976Y-9464024D02*
X13194500Y-9435452D01*
X13194500Y-9435452D02*
X13204024Y-9387833D01*
X13204024Y-9387833D02*
X13204024Y-9349738D01*
X13204024Y-9349738D02*
X13194500Y-9302119D01*
X13194500Y-9302119D02*
X13184976Y-9273548D01*
X13184976Y-9273548D02*
X13175453Y-9254500D01*
X13175453Y-9254500D02*
X13156405Y-9225929D01*
X13156405Y-9225929D02*
X13146881Y-9216405D01*
X13476405Y-9521167D02*
X13466881Y-9511643D01*
X13466881Y-9511643D02*
X13447833Y-9483071D01*
X13447833Y-9483071D02*
X13438310Y-9464024D01*
X13438310Y-9464024D02*
X13428786Y-9435452D01*
X13428786Y-9435452D02*
X13419262Y-9387833D01*
X13419262Y-9387833D02*
X13419262Y-9349738D01*
X13419262Y-9349738D02*
X13428786Y-9302119D01*
X13428786Y-9302119D02*
X13438310Y-9273548D01*
X13438310Y-9273548D02*
X13447833Y-9254500D01*
X13447833Y-9254500D02*
X13466881Y-9225929D01*
X13466881Y-9225929D02*
X13476405Y-9216405D01*
X13552595Y-9311643D02*
X13552595Y-9444976D01*
X13552595Y-9330690D02*
X13562119Y-9321167D01*
X13562119Y-9321167D02*
X13581167Y-9311643D01*
X13581167Y-9311643D02*
X13609738Y-9311643D01*
X13609738Y-9311643D02*
X13628786Y-9321167D01*
X13628786Y-9321167D02*
X13638310Y-9340214D01*
X13638310Y-9340214D02*
X13638310Y-9444976D01*
X13762119Y-9444976D02*
X13743072Y-9435452D01*
X13743072Y-9435452D02*
X13733548Y-9425929D01*
X13733548Y-9425929D02*
X13724024Y-9406881D01*
X13724024Y-9406881D02*
X13724024Y-9349738D01*
X13724024Y-9349738D02*
X13733548Y-9330690D01*
X13733548Y-9330690D02*
X13743072Y-9321167D01*
X13743072Y-9321167D02*
X13762119Y-9311643D01*
X13762119Y-9311643D02*
X13790691Y-9311643D01*
X13790691Y-9311643D02*
X13809738Y-9321167D01*
X13809738Y-9321167D02*
X13819262Y-9330690D01*
X13819262Y-9330690D02*
X13828786Y-9349738D01*
X13828786Y-9349738D02*
X13828786Y-9406881D01*
X13828786Y-9406881D02*
X13819262Y-9425929D01*
X13819262Y-9425929D02*
X13809738Y-9435452D01*
X13809738Y-9435452D02*
X13790691Y-9444976D01*
X13790691Y-9444976D02*
X13762119Y-9444976D01*
X13885929Y-9311643D02*
X13962119Y-9311643D01*
X13914500Y-9244976D02*
X13914500Y-9416405D01*
X13914500Y-9416405D02*
X13924024Y-9435452D01*
X13924024Y-9435452D02*
X13943072Y-9444976D01*
X13943072Y-9444976D02*
X13962119Y-9444976D01*
X14148786Y-9311643D02*
X14148786Y-9511643D01*
X14148786Y-9321167D02*
X14167833Y-9311643D01*
X14167833Y-9311643D02*
X14205929Y-9311643D01*
X14205929Y-9311643D02*
X14224976Y-9321167D01*
X14224976Y-9321167D02*
X14234500Y-9330690D01*
X14234500Y-9330690D02*
X14244024Y-9349738D01*
X14244024Y-9349738D02*
X14244024Y-9406881D01*
X14244024Y-9406881D02*
X14234500Y-9425929D01*
X14234500Y-9425929D02*
X14224976Y-9435452D01*
X14224976Y-9435452D02*
X14205929Y-9444976D01*
X14205929Y-9444976D02*
X14167833Y-9444976D01*
X14167833Y-9444976D02*
X14148786Y-9435452D01*
X14358310Y-9444976D02*
X14339262Y-9435452D01*
X14339262Y-9435452D02*
X14329738Y-9416405D01*
X14329738Y-9416405D02*
X14329738Y-9244976D01*
X14520214Y-9444976D02*
X14520214Y-9340214D01*
X14520214Y-9340214D02*
X14510691Y-9321167D01*
X14510691Y-9321167D02*
X14491643Y-9311643D01*
X14491643Y-9311643D02*
X14453548Y-9311643D01*
X14453548Y-9311643D02*
X14434500Y-9321167D01*
X14520214Y-9435452D02*
X14501167Y-9444976D01*
X14501167Y-9444976D02*
X14453548Y-9444976D01*
X14453548Y-9444976D02*
X14434500Y-9435452D01*
X14434500Y-9435452D02*
X14424976Y-9416405D01*
X14424976Y-9416405D02*
X14424976Y-9397357D01*
X14424976Y-9397357D02*
X14434500Y-9378310D01*
X14434500Y-9378310D02*
X14453548Y-9368786D01*
X14453548Y-9368786D02*
X14501167Y-9368786D01*
X14501167Y-9368786D02*
X14520214Y-9359262D01*
X14586881Y-9311643D02*
X14663072Y-9311643D01*
X14615453Y-9244976D02*
X14615453Y-9416405D01*
X14615453Y-9416405D02*
X14624976Y-9435452D01*
X14624976Y-9435452D02*
X14644024Y-9444976D01*
X14644024Y-9444976D02*
X14663072Y-9444976D01*
X14805929Y-9435452D02*
X14786881Y-9444976D01*
X14786881Y-9444976D02*
X14748786Y-9444976D01*
X14748786Y-9444976D02*
X14729738Y-9435452D01*
X14729738Y-9435452D02*
X14720214Y-9416405D01*
X14720214Y-9416405D02*
X14720214Y-9340214D01*
X14720214Y-9340214D02*
X14729738Y-9321167D01*
X14729738Y-9321167D02*
X14748786Y-9311643D01*
X14748786Y-9311643D02*
X14786881Y-9311643D01*
X14786881Y-9311643D02*
X14805929Y-9321167D01*
X14805929Y-9321167D02*
X14815453Y-9340214D01*
X14815453Y-9340214D02*
X14815453Y-9359262D01*
X14815453Y-9359262D02*
X14720214Y-9378310D01*
X14986881Y-9444976D02*
X14986881Y-9244976D01*
X14986881Y-9435452D02*
X14967834Y-9444976D01*
X14967834Y-9444976D02*
X14929738Y-9444976D01*
X14929738Y-9444976D02*
X14910691Y-9435452D01*
X14910691Y-9435452D02*
X14901167Y-9425929D01*
X14901167Y-9425929D02*
X14891643Y-9406881D01*
X14891643Y-9406881D02*
X14891643Y-9349738D01*
X14891643Y-9349738D02*
X14901167Y-9330690D01*
X14901167Y-9330690D02*
X14910691Y-9321167D01*
X14910691Y-9321167D02*
X14929738Y-9311643D01*
X14929738Y-9311643D02*
X14967834Y-9311643D01*
X14967834Y-9311643D02*
X14986881Y-9321167D01*
X15063072Y-9521167D02*
X15072595Y-9511643D01*
X15072595Y-9511643D02*
X15091643Y-9483071D01*
X15091643Y-9483071D02*
X15101167Y-9464024D01*
X15101167Y-9464024D02*
X15110691Y-9435452D01*
X15110691Y-9435452D02*
X15120214Y-9387833D01*
X15120214Y-9387833D02*
X15120214Y-9349738D01*
X15120214Y-9349738D02*
X15110691Y-9302119D01*
X15110691Y-9302119D02*
X15101167Y-9273548D01*
X15101167Y-9273548D02*
X15091643Y-9254500D01*
X15091643Y-9254500D02*
X15072595Y-9225929D01*
X15072595Y-9225929D02*
X15063072Y-9216405D01*
M02*
