G04 #@! TF.GenerationSoftware,KiCad,Pcbnew,7.0.1*
G04 #@! TF.CreationDate,2023-03-22T01:49:52-05:00*
G04 #@! TF.ProjectId,V0_Display,56305f44-6973-4706-9c61-792e6b696361,rev?*
G04 #@! TF.SameCoordinates,Original*
G04 #@! TF.FileFunction,Legend,Bot*
G04 #@! TF.FilePolarity,Positive*
%FSLAX46Y46*%
G04 Gerber Fmt 4.6, Leading zero omitted, Abs format (unit mm)*
G04 Created by KiCad (PCBNEW 7.0.1) date 2023-03-22 01:49:52*
%MOMM*%
%LPD*%
G01*
G04 APERTURE LIST*
%ADD10C,0.120000*%
%ADD11C,0.100000*%
%ADD12C,0.150000*%
%ADD13C,0.125000*%
%ADD14C,0.200000*%
%ADD15C,0.127000*%
G04 APERTURE END LIST*
D10*
X164564113Y-55650000D02*
G75*
G03*
X164564113Y-55650000I-3394113J0D01*
G01*
X92564113Y-80650000D02*
G75*
G03*
X92564113Y-80650000I-3394113J0D01*
G01*
X92564113Y-55650000D02*
G75*
G03*
X92564113Y-55650000I-3394113J0D01*
G01*
X164564113Y-80650000D02*
G75*
G03*
X164564113Y-80650000I-3394113J0D01*
G01*
D11*
X118473571Y-51659250D02*
X118366429Y-51694964D01*
X118366429Y-51694964D02*
X118187857Y-51694964D01*
X118187857Y-51694964D02*
X118116429Y-51659250D01*
X118116429Y-51659250D02*
X118080714Y-51623535D01*
X118080714Y-51623535D02*
X118045000Y-51552107D01*
X118045000Y-51552107D02*
X118045000Y-51480678D01*
X118045000Y-51480678D02*
X118080714Y-51409250D01*
X118080714Y-51409250D02*
X118116429Y-51373535D01*
X118116429Y-51373535D02*
X118187857Y-51337821D01*
X118187857Y-51337821D02*
X118330714Y-51302107D01*
X118330714Y-51302107D02*
X118402143Y-51266392D01*
X118402143Y-51266392D02*
X118437857Y-51230678D01*
X118437857Y-51230678D02*
X118473571Y-51159250D01*
X118473571Y-51159250D02*
X118473571Y-51087821D01*
X118473571Y-51087821D02*
X118437857Y-51016392D01*
X118437857Y-51016392D02*
X118402143Y-50980678D01*
X118402143Y-50980678D02*
X118330714Y-50944964D01*
X118330714Y-50944964D02*
X118152143Y-50944964D01*
X118152143Y-50944964D02*
X118045000Y-50980678D01*
X117723571Y-51694964D02*
X117723571Y-50944964D01*
X117723571Y-50944964D02*
X117545000Y-50944964D01*
X117545000Y-50944964D02*
X117437857Y-50980678D01*
X117437857Y-50980678D02*
X117366428Y-51052107D01*
X117366428Y-51052107D02*
X117330714Y-51123535D01*
X117330714Y-51123535D02*
X117295000Y-51266392D01*
X117295000Y-51266392D02*
X117295000Y-51373535D01*
X117295000Y-51373535D02*
X117330714Y-51516392D01*
X117330714Y-51516392D02*
X117366428Y-51587821D01*
X117366428Y-51587821D02*
X117437857Y-51659250D01*
X117437857Y-51659250D02*
X117545000Y-51694964D01*
X117545000Y-51694964D02*
X117723571Y-51694964D01*
X117009285Y-51480678D02*
X116652143Y-51480678D01*
X117080714Y-51694964D02*
X116830714Y-50944964D01*
X116830714Y-50944964D02*
X116580714Y-51694964D01*
X115794999Y-51659250D02*
X115687857Y-51694964D01*
X115687857Y-51694964D02*
X115509285Y-51694964D01*
X115509285Y-51694964D02*
X115437857Y-51659250D01*
X115437857Y-51659250D02*
X115402142Y-51623535D01*
X115402142Y-51623535D02*
X115366428Y-51552107D01*
X115366428Y-51552107D02*
X115366428Y-51480678D01*
X115366428Y-51480678D02*
X115402142Y-51409250D01*
X115402142Y-51409250D02*
X115437857Y-51373535D01*
X115437857Y-51373535D02*
X115509285Y-51337821D01*
X115509285Y-51337821D02*
X115652142Y-51302107D01*
X115652142Y-51302107D02*
X115723571Y-51266392D01*
X115723571Y-51266392D02*
X115759285Y-51230678D01*
X115759285Y-51230678D02*
X115794999Y-51159250D01*
X115794999Y-51159250D02*
X115794999Y-51087821D01*
X115794999Y-51087821D02*
X115759285Y-51016392D01*
X115759285Y-51016392D02*
X115723571Y-50980678D01*
X115723571Y-50980678D02*
X115652142Y-50944964D01*
X115652142Y-50944964D02*
X115473571Y-50944964D01*
X115473571Y-50944964D02*
X115366428Y-50980678D01*
X114616428Y-51623535D02*
X114652142Y-51659250D01*
X114652142Y-51659250D02*
X114759285Y-51694964D01*
X114759285Y-51694964D02*
X114830713Y-51694964D01*
X114830713Y-51694964D02*
X114937856Y-51659250D01*
X114937856Y-51659250D02*
X115009285Y-51587821D01*
X115009285Y-51587821D02*
X115044999Y-51516392D01*
X115044999Y-51516392D02*
X115080713Y-51373535D01*
X115080713Y-51373535D02*
X115080713Y-51266392D01*
X115080713Y-51266392D02*
X115044999Y-51123535D01*
X115044999Y-51123535D02*
X115009285Y-51052107D01*
X115009285Y-51052107D02*
X114937856Y-50980678D01*
X114937856Y-50980678D02*
X114830713Y-50944964D01*
X114830713Y-50944964D02*
X114759285Y-50944964D01*
X114759285Y-50944964D02*
X114652142Y-50980678D01*
X114652142Y-50980678D02*
X114616428Y-51016392D01*
X113937856Y-51694964D02*
X114294999Y-51694964D01*
X114294999Y-51694964D02*
X114294999Y-50944964D01*
X113116427Y-51694964D02*
X113116427Y-50944964D01*
X113116427Y-50944964D02*
X112830713Y-50944964D01*
X112830713Y-50944964D02*
X112759284Y-50980678D01*
X112759284Y-50980678D02*
X112723570Y-51016392D01*
X112723570Y-51016392D02*
X112687856Y-51087821D01*
X112687856Y-51087821D02*
X112687856Y-51194964D01*
X112687856Y-51194964D02*
X112723570Y-51266392D01*
X112723570Y-51266392D02*
X112759284Y-51302107D01*
X112759284Y-51302107D02*
X112830713Y-51337821D01*
X112830713Y-51337821D02*
X113116427Y-51337821D01*
X112366427Y-51694964D02*
X112366427Y-51194964D01*
X112366427Y-50944964D02*
X112402141Y-50980678D01*
X112402141Y-50980678D02*
X112366427Y-51016392D01*
X112366427Y-51016392D02*
X112330713Y-50980678D01*
X112330713Y-50980678D02*
X112366427Y-50944964D01*
X112366427Y-50944964D02*
X112366427Y-51016392D01*
X112009284Y-51194964D02*
X112009284Y-51694964D01*
X112009284Y-51266392D02*
X111973570Y-51230678D01*
X111973570Y-51230678D02*
X111902141Y-51194964D01*
X111902141Y-51194964D02*
X111794998Y-51194964D01*
X111794998Y-51194964D02*
X111723570Y-51230678D01*
X111723570Y-51230678D02*
X111687856Y-51302107D01*
X111687856Y-51302107D02*
X111687856Y-51694964D01*
X111366427Y-51016392D02*
X111330713Y-50980678D01*
X111330713Y-50980678D02*
X111259285Y-50944964D01*
X111259285Y-50944964D02*
X111080713Y-50944964D01*
X111080713Y-50944964D02*
X111009285Y-50980678D01*
X111009285Y-50980678D02*
X110973570Y-51016392D01*
X110973570Y-51016392D02*
X110937856Y-51087821D01*
X110937856Y-51087821D02*
X110937856Y-51159250D01*
X110937856Y-51159250D02*
X110973570Y-51266392D01*
X110973570Y-51266392D02*
X111402142Y-51694964D01*
X111402142Y-51694964D02*
X110937856Y-51694964D01*
X110044998Y-51694964D02*
X110044998Y-50944964D01*
X110044998Y-50944964D02*
X109759284Y-50944964D01*
X109759284Y-50944964D02*
X109687855Y-50980678D01*
X109687855Y-50980678D02*
X109652141Y-51016392D01*
X109652141Y-51016392D02*
X109616427Y-51087821D01*
X109616427Y-51087821D02*
X109616427Y-51194964D01*
X109616427Y-51194964D02*
X109652141Y-51266392D01*
X109652141Y-51266392D02*
X109687855Y-51302107D01*
X109687855Y-51302107D02*
X109759284Y-51337821D01*
X109759284Y-51337821D02*
X110044998Y-51337821D01*
X109294998Y-51694964D02*
X109294998Y-51194964D01*
X109294998Y-50944964D02*
X109330712Y-50980678D01*
X109330712Y-50980678D02*
X109294998Y-51016392D01*
X109294998Y-51016392D02*
X109259284Y-50980678D01*
X109259284Y-50980678D02*
X109294998Y-50944964D01*
X109294998Y-50944964D02*
X109294998Y-51016392D01*
X108937855Y-51194964D02*
X108937855Y-51694964D01*
X108937855Y-51266392D02*
X108902141Y-51230678D01*
X108902141Y-51230678D02*
X108830712Y-51194964D01*
X108830712Y-51194964D02*
X108723569Y-51194964D01*
X108723569Y-51194964D02*
X108652141Y-51230678D01*
X108652141Y-51230678D02*
X108616427Y-51302107D01*
X108616427Y-51302107D02*
X108616427Y-51694964D01*
X107866427Y-51694964D02*
X108294998Y-51694964D01*
X108080713Y-51694964D02*
X108080713Y-50944964D01*
X108080713Y-50944964D02*
X108152141Y-51052107D01*
X108152141Y-51052107D02*
X108223570Y-51123535D01*
X108223570Y-51123535D02*
X108294998Y-51159250D01*
D12*
X93990190Y-62963142D02*
X93952095Y-62886952D01*
X93952095Y-62886952D02*
X93952095Y-62772666D01*
X93952095Y-62772666D02*
X93990190Y-62658380D01*
X93990190Y-62658380D02*
X94066380Y-62582190D01*
X94066380Y-62582190D02*
X94142571Y-62544095D01*
X94142571Y-62544095D02*
X94294952Y-62505999D01*
X94294952Y-62505999D02*
X94409238Y-62505999D01*
X94409238Y-62505999D02*
X94561619Y-62544095D01*
X94561619Y-62544095D02*
X94637809Y-62582190D01*
X94637809Y-62582190D02*
X94714000Y-62658380D01*
X94714000Y-62658380D02*
X94752095Y-62772666D01*
X94752095Y-62772666D02*
X94752095Y-62848857D01*
X94752095Y-62848857D02*
X94714000Y-62963142D01*
X94714000Y-62963142D02*
X94675904Y-63001238D01*
X94675904Y-63001238D02*
X94409238Y-63001238D01*
X94409238Y-63001238D02*
X94409238Y-62848857D01*
X94218761Y-63344095D02*
X94752095Y-63344095D01*
X94294952Y-63344095D02*
X94256857Y-63382190D01*
X94256857Y-63382190D02*
X94218761Y-63458380D01*
X94218761Y-63458380D02*
X94218761Y-63572666D01*
X94218761Y-63572666D02*
X94256857Y-63648857D01*
X94256857Y-63648857D02*
X94333047Y-63686952D01*
X94333047Y-63686952D02*
X94752095Y-63686952D01*
X94752095Y-64410762D02*
X93952095Y-64410762D01*
X94714000Y-64410762D02*
X94752095Y-64334571D01*
X94752095Y-64334571D02*
X94752095Y-64182190D01*
X94752095Y-64182190D02*
X94714000Y-64106000D01*
X94714000Y-64106000D02*
X94675904Y-64067905D01*
X94675904Y-64067905D02*
X94599714Y-64029809D01*
X94599714Y-64029809D02*
X94371142Y-64029809D01*
X94371142Y-64029809D02*
X94294952Y-64067905D01*
X94294952Y-64067905D02*
X94256857Y-64106000D01*
X94256857Y-64106000D02*
X94218761Y-64182190D01*
X94218761Y-64182190D02*
X94218761Y-64334571D01*
X94218761Y-64334571D02*
X94256857Y-64410762D01*
X94752095Y-65401239D02*
X93952095Y-65401239D01*
X93952095Y-65401239D02*
X93952095Y-65591715D01*
X93952095Y-65591715D02*
X93990190Y-65706001D01*
X93990190Y-65706001D02*
X94066380Y-65782191D01*
X94066380Y-65782191D02*
X94142571Y-65820286D01*
X94142571Y-65820286D02*
X94294952Y-65858382D01*
X94294952Y-65858382D02*
X94409238Y-65858382D01*
X94409238Y-65858382D02*
X94561619Y-65820286D01*
X94561619Y-65820286D02*
X94637809Y-65782191D01*
X94637809Y-65782191D02*
X94714000Y-65706001D01*
X94714000Y-65706001D02*
X94752095Y-65591715D01*
X94752095Y-65591715D02*
X94752095Y-65401239D01*
X94447333Y-66201239D02*
X94447333Y-66810763D01*
X94752095Y-66506001D02*
X94142571Y-66506001D01*
X94752095Y-67801239D02*
X93952095Y-67801239D01*
X93952095Y-67801239D02*
X93952095Y-67991715D01*
X93952095Y-67991715D02*
X93990190Y-68106001D01*
X93990190Y-68106001D02*
X94066380Y-68182191D01*
X94066380Y-68182191D02*
X94142571Y-68220286D01*
X94142571Y-68220286D02*
X94294952Y-68258382D01*
X94294952Y-68258382D02*
X94409238Y-68258382D01*
X94409238Y-68258382D02*
X94561619Y-68220286D01*
X94561619Y-68220286D02*
X94637809Y-68182191D01*
X94637809Y-68182191D02*
X94714000Y-68106001D01*
X94714000Y-68106001D02*
X94752095Y-67991715D01*
X94752095Y-67991715D02*
X94752095Y-67801239D01*
X94447333Y-68601239D02*
X94447333Y-69210763D01*
X93952095Y-70582191D02*
X93952095Y-70201239D01*
X93952095Y-70201239D02*
X94333047Y-70163143D01*
X94333047Y-70163143D02*
X94294952Y-70201239D01*
X94294952Y-70201239D02*
X94256857Y-70277429D01*
X94256857Y-70277429D02*
X94256857Y-70467905D01*
X94256857Y-70467905D02*
X94294952Y-70544096D01*
X94294952Y-70544096D02*
X94333047Y-70582191D01*
X94333047Y-70582191D02*
X94409238Y-70620286D01*
X94409238Y-70620286D02*
X94599714Y-70620286D01*
X94599714Y-70620286D02*
X94675904Y-70582191D01*
X94675904Y-70582191D02*
X94714000Y-70544096D01*
X94714000Y-70544096D02*
X94752095Y-70467905D01*
X94752095Y-70467905D02*
X94752095Y-70277429D01*
X94752095Y-70277429D02*
X94714000Y-70201239D01*
X94714000Y-70201239D02*
X94675904Y-70163143D01*
X93952095Y-70848858D02*
X94752095Y-71115525D01*
X94752095Y-71115525D02*
X93952095Y-71382191D01*
X100346190Y-56827857D02*
X100298571Y-56780238D01*
X100298571Y-56780238D02*
X100203333Y-56732619D01*
X100203333Y-56732619D02*
X99965238Y-56732619D01*
X99965238Y-56732619D02*
X99870000Y-56780238D01*
X99870000Y-56780238D02*
X99822381Y-56827857D01*
X99822381Y-56827857D02*
X99774762Y-56923095D01*
X99774762Y-56923095D02*
X99774762Y-57018333D01*
X99774762Y-57018333D02*
X99822381Y-57161190D01*
X99822381Y-57161190D02*
X100393809Y-57732619D01*
X100393809Y-57732619D02*
X99774762Y-57732619D01*
X99060476Y-58113571D02*
X99108095Y-58065952D01*
X99108095Y-58065952D02*
X99203333Y-57923095D01*
X99203333Y-57923095D02*
X99250952Y-57827857D01*
X99250952Y-57827857D02*
X99298571Y-57685000D01*
X99298571Y-57685000D02*
X99346190Y-57446904D01*
X99346190Y-57446904D02*
X99346190Y-57256428D01*
X99346190Y-57256428D02*
X99298571Y-57018333D01*
X99298571Y-57018333D02*
X99250952Y-56875476D01*
X99250952Y-56875476D02*
X99203333Y-56780238D01*
X99203333Y-56780238D02*
X99108095Y-56637380D01*
X99108095Y-56637380D02*
X99060476Y-56589761D01*
X98155714Y-56780238D02*
X98250952Y-56732619D01*
X98250952Y-56732619D02*
X98393809Y-56732619D01*
X98393809Y-56732619D02*
X98536666Y-56780238D01*
X98536666Y-56780238D02*
X98631904Y-56875476D01*
X98631904Y-56875476D02*
X98679523Y-56970714D01*
X98679523Y-56970714D02*
X98727142Y-57161190D01*
X98727142Y-57161190D02*
X98727142Y-57304047D01*
X98727142Y-57304047D02*
X98679523Y-57494523D01*
X98679523Y-57494523D02*
X98631904Y-57589761D01*
X98631904Y-57589761D02*
X98536666Y-57685000D01*
X98536666Y-57685000D02*
X98393809Y-57732619D01*
X98393809Y-57732619D02*
X98298571Y-57732619D01*
X98298571Y-57732619D02*
X98155714Y-57685000D01*
X98155714Y-57685000D02*
X98108095Y-57637380D01*
X98108095Y-57637380D02*
X98108095Y-57304047D01*
X98108095Y-57304047D02*
X98298571Y-57304047D01*
X97679523Y-57732619D02*
X97679523Y-56732619D01*
X97679523Y-56732619D02*
X97108095Y-57732619D01*
X97108095Y-57732619D02*
X97108095Y-56732619D01*
X96631904Y-57732619D02*
X96631904Y-56732619D01*
X96631904Y-56732619D02*
X96393809Y-56732619D01*
X96393809Y-56732619D02*
X96250952Y-56780238D01*
X96250952Y-56780238D02*
X96155714Y-56875476D01*
X96155714Y-56875476D02*
X96108095Y-56970714D01*
X96108095Y-56970714D02*
X96060476Y-57161190D01*
X96060476Y-57161190D02*
X96060476Y-57304047D01*
X96060476Y-57304047D02*
X96108095Y-57494523D01*
X96108095Y-57494523D02*
X96155714Y-57589761D01*
X96155714Y-57589761D02*
X96250952Y-57685000D01*
X96250952Y-57685000D02*
X96393809Y-57732619D01*
X96393809Y-57732619D02*
X96631904Y-57732619D01*
X95727142Y-58113571D02*
X95679523Y-58065952D01*
X95679523Y-58065952D02*
X95584285Y-57923095D01*
X95584285Y-57923095D02*
X95536666Y-57827857D01*
X95536666Y-57827857D02*
X95489047Y-57685000D01*
X95489047Y-57685000D02*
X95441428Y-57446904D01*
X95441428Y-57446904D02*
X95441428Y-57256428D01*
X95441428Y-57256428D02*
X95489047Y-57018333D01*
X95489047Y-57018333D02*
X95536666Y-56875476D01*
X95536666Y-56875476D02*
X95584285Y-56780238D01*
X95584285Y-56780238D02*
X95679523Y-56637380D01*
X95679523Y-56637380D02*
X95727142Y-56589761D01*
D13*
X108377142Y-54796964D02*
X108805713Y-54796964D01*
X108591428Y-54796964D02*
X108591428Y-54046964D01*
X108591428Y-54046964D02*
X108662856Y-54154107D01*
X108662856Y-54154107D02*
X108734285Y-54225535D01*
X108734285Y-54225535D02*
X108805713Y-54261250D01*
X107841427Y-55082678D02*
X107877142Y-55046964D01*
X107877142Y-55046964D02*
X107948570Y-54939821D01*
X107948570Y-54939821D02*
X107984285Y-54868392D01*
X107984285Y-54868392D02*
X108019999Y-54761250D01*
X108019999Y-54761250D02*
X108055713Y-54582678D01*
X108055713Y-54582678D02*
X108055713Y-54439821D01*
X108055713Y-54439821D02*
X108019999Y-54261250D01*
X108019999Y-54261250D02*
X107984285Y-54154107D01*
X107984285Y-54154107D02*
X107948570Y-54082678D01*
X107948570Y-54082678D02*
X107877142Y-53975535D01*
X107877142Y-53975535D02*
X107841427Y-53939821D01*
X107662856Y-54046964D02*
X107412856Y-54796964D01*
X107412856Y-54796964D02*
X107162856Y-54046964D01*
X106484285Y-54725535D02*
X106519999Y-54761250D01*
X106519999Y-54761250D02*
X106627142Y-54796964D01*
X106627142Y-54796964D02*
X106698570Y-54796964D01*
X106698570Y-54796964D02*
X106805713Y-54761250D01*
X106805713Y-54761250D02*
X106877142Y-54689821D01*
X106877142Y-54689821D02*
X106912856Y-54618392D01*
X106912856Y-54618392D02*
X106948570Y-54475535D01*
X106948570Y-54475535D02*
X106948570Y-54368392D01*
X106948570Y-54368392D02*
X106912856Y-54225535D01*
X106912856Y-54225535D02*
X106877142Y-54154107D01*
X106877142Y-54154107D02*
X106805713Y-54082678D01*
X106805713Y-54082678D02*
X106698570Y-54046964D01*
X106698570Y-54046964D02*
X106627142Y-54046964D01*
X106627142Y-54046964D02*
X106519999Y-54082678D01*
X106519999Y-54082678D02*
X106484285Y-54118392D01*
X105734285Y-54725535D02*
X105769999Y-54761250D01*
X105769999Y-54761250D02*
X105877142Y-54796964D01*
X105877142Y-54796964D02*
X105948570Y-54796964D01*
X105948570Y-54796964D02*
X106055713Y-54761250D01*
X106055713Y-54761250D02*
X106127142Y-54689821D01*
X106127142Y-54689821D02*
X106162856Y-54618392D01*
X106162856Y-54618392D02*
X106198570Y-54475535D01*
X106198570Y-54475535D02*
X106198570Y-54368392D01*
X106198570Y-54368392D02*
X106162856Y-54225535D01*
X106162856Y-54225535D02*
X106127142Y-54154107D01*
X106127142Y-54154107D02*
X106055713Y-54082678D01*
X106055713Y-54082678D02*
X105948570Y-54046964D01*
X105948570Y-54046964D02*
X105877142Y-54046964D01*
X105877142Y-54046964D02*
X105769999Y-54082678D01*
X105769999Y-54082678D02*
X105734285Y-54118392D01*
X105484285Y-55082678D02*
X105448570Y-55046964D01*
X105448570Y-55046964D02*
X105377142Y-54939821D01*
X105377142Y-54939821D02*
X105341428Y-54868392D01*
X105341428Y-54868392D02*
X105305713Y-54761250D01*
X105305713Y-54761250D02*
X105269999Y-54582678D01*
X105269999Y-54582678D02*
X105269999Y-54439821D01*
X105269999Y-54439821D02*
X105305713Y-54261250D01*
X105305713Y-54261250D02*
X105341428Y-54154107D01*
X105341428Y-54154107D02*
X105377142Y-54082678D01*
X105377142Y-54082678D02*
X105448570Y-53975535D01*
X105448570Y-53975535D02*
X105484285Y-53939821D01*
X109605713Y-55418392D02*
X109569999Y-55382678D01*
X109569999Y-55382678D02*
X109498571Y-55346964D01*
X109498571Y-55346964D02*
X109319999Y-55346964D01*
X109319999Y-55346964D02*
X109248571Y-55382678D01*
X109248571Y-55382678D02*
X109212856Y-55418392D01*
X109212856Y-55418392D02*
X109177142Y-55489821D01*
X109177142Y-55489821D02*
X109177142Y-55561250D01*
X109177142Y-55561250D02*
X109212856Y-55668392D01*
X109212856Y-55668392D02*
X109641428Y-56096964D01*
X109641428Y-56096964D02*
X109177142Y-56096964D01*
X108641427Y-56382678D02*
X108677142Y-56346964D01*
X108677142Y-56346964D02*
X108748570Y-56239821D01*
X108748570Y-56239821D02*
X108784285Y-56168392D01*
X108784285Y-56168392D02*
X108819999Y-56061250D01*
X108819999Y-56061250D02*
X108855713Y-55882678D01*
X108855713Y-55882678D02*
X108855713Y-55739821D01*
X108855713Y-55739821D02*
X108819999Y-55561250D01*
X108819999Y-55561250D02*
X108784285Y-55454107D01*
X108784285Y-55454107D02*
X108748570Y-55382678D01*
X108748570Y-55382678D02*
X108677142Y-55275535D01*
X108677142Y-55275535D02*
X108641427Y-55239821D01*
X108462856Y-55346964D02*
X108212856Y-56096964D01*
X108212856Y-56096964D02*
X107962856Y-55346964D01*
X107284285Y-56025535D02*
X107319999Y-56061250D01*
X107319999Y-56061250D02*
X107427142Y-56096964D01*
X107427142Y-56096964D02*
X107498570Y-56096964D01*
X107498570Y-56096964D02*
X107605713Y-56061250D01*
X107605713Y-56061250D02*
X107677142Y-55989821D01*
X107677142Y-55989821D02*
X107712856Y-55918392D01*
X107712856Y-55918392D02*
X107748570Y-55775535D01*
X107748570Y-55775535D02*
X107748570Y-55668392D01*
X107748570Y-55668392D02*
X107712856Y-55525535D01*
X107712856Y-55525535D02*
X107677142Y-55454107D01*
X107677142Y-55454107D02*
X107605713Y-55382678D01*
X107605713Y-55382678D02*
X107498570Y-55346964D01*
X107498570Y-55346964D02*
X107427142Y-55346964D01*
X107427142Y-55346964D02*
X107319999Y-55382678D01*
X107319999Y-55382678D02*
X107284285Y-55418392D01*
X106534285Y-56025535D02*
X106569999Y-56061250D01*
X106569999Y-56061250D02*
X106677142Y-56096964D01*
X106677142Y-56096964D02*
X106748570Y-56096964D01*
X106748570Y-56096964D02*
X106855713Y-56061250D01*
X106855713Y-56061250D02*
X106927142Y-55989821D01*
X106927142Y-55989821D02*
X106962856Y-55918392D01*
X106962856Y-55918392D02*
X106998570Y-55775535D01*
X106998570Y-55775535D02*
X106998570Y-55668392D01*
X106998570Y-55668392D02*
X106962856Y-55525535D01*
X106962856Y-55525535D02*
X106927142Y-55454107D01*
X106927142Y-55454107D02*
X106855713Y-55382678D01*
X106855713Y-55382678D02*
X106748570Y-55346964D01*
X106748570Y-55346964D02*
X106677142Y-55346964D01*
X106677142Y-55346964D02*
X106569999Y-55382678D01*
X106569999Y-55382678D02*
X106534285Y-55418392D01*
X106284285Y-56382678D02*
X106248570Y-56346964D01*
X106248570Y-56346964D02*
X106177142Y-56239821D01*
X106177142Y-56239821D02*
X106141428Y-56168392D01*
X106141428Y-56168392D02*
X106105713Y-56061250D01*
X106105713Y-56061250D02*
X106069999Y-55882678D01*
X106069999Y-55882678D02*
X106069999Y-55739821D01*
X106069999Y-55739821D02*
X106105713Y-55561250D01*
X106105713Y-55561250D02*
X106141428Y-55454107D01*
X106141428Y-55454107D02*
X106177142Y-55382678D01*
X106177142Y-55382678D02*
X106248570Y-55275535D01*
X106248570Y-55275535D02*
X106284285Y-55239821D01*
D12*
X154041428Y-62958214D02*
X154041428Y-62208214D01*
X154041428Y-62208214D02*
X153612857Y-62958214D01*
X153612857Y-62958214D02*
X153612857Y-62208214D01*
X152970000Y-62922500D02*
X153041428Y-62958214D01*
X153041428Y-62958214D02*
X153184286Y-62958214D01*
X153184286Y-62958214D02*
X153255714Y-62922500D01*
X153255714Y-62922500D02*
X153291428Y-62851071D01*
X153291428Y-62851071D02*
X153291428Y-62565357D01*
X153291428Y-62565357D02*
X153255714Y-62493928D01*
X153255714Y-62493928D02*
X153184286Y-62458214D01*
X153184286Y-62458214D02*
X153041428Y-62458214D01*
X153041428Y-62458214D02*
X152970000Y-62493928D01*
X152970000Y-62493928D02*
X152934286Y-62565357D01*
X152934286Y-62565357D02*
X152934286Y-62636785D01*
X152934286Y-62636785D02*
X153291428Y-62708214D01*
X152505714Y-62958214D02*
X152577143Y-62922500D01*
X152577143Y-62922500D02*
X152612857Y-62886785D01*
X152612857Y-62886785D02*
X152648571Y-62815357D01*
X152648571Y-62815357D02*
X152648571Y-62601071D01*
X152648571Y-62601071D02*
X152612857Y-62529642D01*
X152612857Y-62529642D02*
X152577143Y-62493928D01*
X152577143Y-62493928D02*
X152505714Y-62458214D01*
X152505714Y-62458214D02*
X152398571Y-62458214D01*
X152398571Y-62458214D02*
X152327143Y-62493928D01*
X152327143Y-62493928D02*
X152291429Y-62529642D01*
X152291429Y-62529642D02*
X152255714Y-62601071D01*
X152255714Y-62601071D02*
X152255714Y-62815357D01*
X152255714Y-62815357D02*
X152291429Y-62886785D01*
X152291429Y-62886785D02*
X152327143Y-62922500D01*
X152327143Y-62922500D02*
X152398571Y-62958214D01*
X152398571Y-62958214D02*
X152505714Y-62958214D01*
X151934286Y-62458214D02*
X151934286Y-63208214D01*
X151934286Y-62493928D02*
X151862858Y-62458214D01*
X151862858Y-62458214D02*
X151720000Y-62458214D01*
X151720000Y-62458214D02*
X151648572Y-62493928D01*
X151648572Y-62493928D02*
X151612858Y-62529642D01*
X151612858Y-62529642D02*
X151577143Y-62601071D01*
X151577143Y-62601071D02*
X151577143Y-62815357D01*
X151577143Y-62815357D02*
X151612858Y-62886785D01*
X151612858Y-62886785D02*
X151648572Y-62922500D01*
X151648572Y-62922500D02*
X151720000Y-62958214D01*
X151720000Y-62958214D02*
X151862858Y-62958214D01*
X151862858Y-62958214D02*
X151934286Y-62922500D01*
X151255715Y-62958214D02*
X151255715Y-62458214D01*
X151255715Y-62208214D02*
X151291429Y-62243928D01*
X151291429Y-62243928D02*
X151255715Y-62279642D01*
X151255715Y-62279642D02*
X151220001Y-62243928D01*
X151220001Y-62243928D02*
X151255715Y-62208214D01*
X151255715Y-62208214D02*
X151255715Y-62279642D01*
X150970001Y-62958214D02*
X150577144Y-62458214D01*
X150970001Y-62458214D02*
X150577144Y-62958214D01*
X150005715Y-62922500D02*
X150077143Y-62958214D01*
X150077143Y-62958214D02*
X150220001Y-62958214D01*
X150220001Y-62958214D02*
X150291429Y-62922500D01*
X150291429Y-62922500D02*
X150327143Y-62851071D01*
X150327143Y-62851071D02*
X150327143Y-62565357D01*
X150327143Y-62565357D02*
X150291429Y-62493928D01*
X150291429Y-62493928D02*
X150220001Y-62458214D01*
X150220001Y-62458214D02*
X150077143Y-62458214D01*
X150077143Y-62458214D02*
X150005715Y-62493928D01*
X150005715Y-62493928D02*
X149970001Y-62565357D01*
X149970001Y-62565357D02*
X149970001Y-62636785D01*
X149970001Y-62636785D02*
X150327143Y-62708214D01*
X149541429Y-62958214D02*
X149612858Y-62922500D01*
X149612858Y-62922500D02*
X149648572Y-62851071D01*
X149648572Y-62851071D02*
X149648572Y-62208214D01*
X127634285Y-63552739D02*
X127512857Y-63593215D01*
X127512857Y-63593215D02*
X127472380Y-63633691D01*
X127472380Y-63633691D02*
X127431904Y-63714643D01*
X127431904Y-63714643D02*
X127431904Y-63836072D01*
X127431904Y-63836072D02*
X127472380Y-63917024D01*
X127472380Y-63917024D02*
X127512857Y-63957501D01*
X127512857Y-63957501D02*
X127593809Y-63997977D01*
X127593809Y-63997977D02*
X127917619Y-63997977D01*
X127917619Y-63997977D02*
X127917619Y-63147977D01*
X127917619Y-63147977D02*
X127634285Y-63147977D01*
X127634285Y-63147977D02*
X127553333Y-63188453D01*
X127553333Y-63188453D02*
X127512857Y-63228929D01*
X127512857Y-63228929D02*
X127472380Y-63309881D01*
X127472380Y-63309881D02*
X127472380Y-63390834D01*
X127472380Y-63390834D02*
X127512857Y-63471786D01*
X127512857Y-63471786D02*
X127553333Y-63512262D01*
X127553333Y-63512262D02*
X127634285Y-63552739D01*
X127634285Y-63552739D02*
X127917619Y-63552739D01*
X126905714Y-63147977D02*
X126743809Y-63147977D01*
X126743809Y-63147977D02*
X126662857Y-63188453D01*
X126662857Y-63188453D02*
X126581904Y-63269405D01*
X126581904Y-63269405D02*
X126541428Y-63431310D01*
X126541428Y-63431310D02*
X126541428Y-63714643D01*
X126541428Y-63714643D02*
X126581904Y-63876548D01*
X126581904Y-63876548D02*
X126662857Y-63957501D01*
X126662857Y-63957501D02*
X126743809Y-63997977D01*
X126743809Y-63997977D02*
X126905714Y-63997977D01*
X126905714Y-63997977D02*
X126986666Y-63957501D01*
X126986666Y-63957501D02*
X127067619Y-63876548D01*
X127067619Y-63876548D02*
X127108095Y-63714643D01*
X127108095Y-63714643D02*
X127108095Y-63431310D01*
X127108095Y-63431310D02*
X127067619Y-63269405D01*
X127067619Y-63269405D02*
X126986666Y-63188453D01*
X126986666Y-63188453D02*
X126905714Y-63147977D01*
X126015238Y-63147977D02*
X125853333Y-63147977D01*
X125853333Y-63147977D02*
X125772381Y-63188453D01*
X125772381Y-63188453D02*
X125691428Y-63269405D01*
X125691428Y-63269405D02*
X125650952Y-63431310D01*
X125650952Y-63431310D02*
X125650952Y-63714643D01*
X125650952Y-63714643D02*
X125691428Y-63876548D01*
X125691428Y-63876548D02*
X125772381Y-63957501D01*
X125772381Y-63957501D02*
X125853333Y-63997977D01*
X125853333Y-63997977D02*
X126015238Y-63997977D01*
X126015238Y-63997977D02*
X126096190Y-63957501D01*
X126096190Y-63957501D02*
X126177143Y-63876548D01*
X126177143Y-63876548D02*
X126217619Y-63714643D01*
X126217619Y-63714643D02*
X126217619Y-63431310D01*
X126217619Y-63431310D02*
X126177143Y-63269405D01*
X126177143Y-63269405D02*
X126096190Y-63188453D01*
X126096190Y-63188453D02*
X126015238Y-63147977D01*
X125408095Y-63147977D02*
X124922381Y-63147977D01*
X125165238Y-63997977D02*
X125165238Y-63147977D01*
D13*
X131283857Y-74313214D02*
X131283857Y-73563214D01*
X131283857Y-73563214D02*
X131033857Y-74098928D01*
X131033857Y-74098928D02*
X130783857Y-73563214D01*
X130783857Y-73563214D02*
X130783857Y-74313214D01*
X130105286Y-74313214D02*
X130105286Y-73920357D01*
X130105286Y-73920357D02*
X130141000Y-73848928D01*
X130141000Y-73848928D02*
X130212428Y-73813214D01*
X130212428Y-73813214D02*
X130355286Y-73813214D01*
X130355286Y-73813214D02*
X130426714Y-73848928D01*
X130105286Y-74277500D02*
X130176714Y-74313214D01*
X130176714Y-74313214D02*
X130355286Y-74313214D01*
X130355286Y-74313214D02*
X130426714Y-74277500D01*
X130426714Y-74277500D02*
X130462428Y-74206071D01*
X130462428Y-74206071D02*
X130462428Y-74134642D01*
X130462428Y-74134642D02*
X130426714Y-74063214D01*
X130426714Y-74063214D02*
X130355286Y-74027500D01*
X130355286Y-74027500D02*
X130176714Y-74027500D01*
X130176714Y-74027500D02*
X130105286Y-73991785D01*
X129426715Y-74313214D02*
X129426715Y-73563214D01*
X129426715Y-74277500D02*
X129498143Y-74313214D01*
X129498143Y-74313214D02*
X129641000Y-74313214D01*
X129641000Y-74313214D02*
X129712429Y-74277500D01*
X129712429Y-74277500D02*
X129748143Y-74241785D01*
X129748143Y-74241785D02*
X129783857Y-74170357D01*
X129783857Y-74170357D02*
X129783857Y-73956071D01*
X129783857Y-73956071D02*
X129748143Y-73884642D01*
X129748143Y-73884642D02*
X129712429Y-73848928D01*
X129712429Y-73848928D02*
X129641000Y-73813214D01*
X129641000Y-73813214D02*
X129498143Y-73813214D01*
X129498143Y-73813214D02*
X129426715Y-73848928D01*
X128783858Y-74277500D02*
X128855286Y-74313214D01*
X128855286Y-74313214D02*
X128998144Y-74313214D01*
X128998144Y-74313214D02*
X129069572Y-74277500D01*
X129069572Y-74277500D02*
X129105286Y-74206071D01*
X129105286Y-74206071D02*
X129105286Y-73920357D01*
X129105286Y-73920357D02*
X129069572Y-73848928D01*
X129069572Y-73848928D02*
X128998144Y-73813214D01*
X128998144Y-73813214D02*
X128855286Y-73813214D01*
X128855286Y-73813214D02*
X128783858Y-73848928D01*
X128783858Y-73848928D02*
X128748144Y-73920357D01*
X128748144Y-73920357D02*
X128748144Y-73991785D01*
X128748144Y-73991785D02*
X129105286Y-74063214D01*
X127855286Y-74313214D02*
X127855286Y-73563214D01*
X127855286Y-73848928D02*
X127783858Y-73813214D01*
X127783858Y-73813214D02*
X127641000Y-73813214D01*
X127641000Y-73813214D02*
X127569572Y-73848928D01*
X127569572Y-73848928D02*
X127533858Y-73884642D01*
X127533858Y-73884642D02*
X127498143Y-73956071D01*
X127498143Y-73956071D02*
X127498143Y-74170357D01*
X127498143Y-74170357D02*
X127533858Y-74241785D01*
X127533858Y-74241785D02*
X127569572Y-74277500D01*
X127569572Y-74277500D02*
X127641000Y-74313214D01*
X127641000Y-74313214D02*
X127783858Y-74313214D01*
X127783858Y-74313214D02*
X127855286Y-74277500D01*
X127248144Y-73813214D02*
X127069572Y-74313214D01*
X126891001Y-73813214D02*
X127069572Y-74313214D01*
X127069572Y-74313214D02*
X127141001Y-74491785D01*
X127141001Y-74491785D02*
X127176715Y-74527500D01*
X127176715Y-74527500D02*
X127248144Y-74563214D01*
X126141000Y-73563214D02*
X125712429Y-73563214D01*
X125926714Y-74313214D02*
X125926714Y-73563214D01*
X125462428Y-74313214D02*
X125462428Y-73813214D01*
X125462428Y-73563214D02*
X125498142Y-73598928D01*
X125498142Y-73598928D02*
X125462428Y-73634642D01*
X125462428Y-73634642D02*
X125426714Y-73598928D01*
X125426714Y-73598928D02*
X125462428Y-73563214D01*
X125462428Y-73563214D02*
X125462428Y-73634642D01*
X125105285Y-74313214D02*
X125105285Y-73813214D01*
X125105285Y-73884642D02*
X125069571Y-73848928D01*
X125069571Y-73848928D02*
X124998142Y-73813214D01*
X124998142Y-73813214D02*
X124890999Y-73813214D01*
X124890999Y-73813214D02*
X124819571Y-73848928D01*
X124819571Y-73848928D02*
X124783857Y-73920357D01*
X124783857Y-73920357D02*
X124783857Y-74313214D01*
X124783857Y-73920357D02*
X124748142Y-73848928D01*
X124748142Y-73848928D02*
X124676714Y-73813214D01*
X124676714Y-73813214D02*
X124569571Y-73813214D01*
X124569571Y-73813214D02*
X124498142Y-73848928D01*
X124498142Y-73848928D02*
X124462428Y-73920357D01*
X124462428Y-73920357D02*
X124462428Y-74313214D01*
X124105285Y-74313214D02*
X124105285Y-73813214D01*
X124105285Y-73884642D02*
X124069571Y-73848928D01*
X124069571Y-73848928D02*
X123998142Y-73813214D01*
X123998142Y-73813214D02*
X123890999Y-73813214D01*
X123890999Y-73813214D02*
X123819571Y-73848928D01*
X123819571Y-73848928D02*
X123783857Y-73920357D01*
X123783857Y-73920357D02*
X123783857Y-74313214D01*
X123783857Y-73920357D02*
X123748142Y-73848928D01*
X123748142Y-73848928D02*
X123676714Y-73813214D01*
X123676714Y-73813214D02*
X123569571Y-73813214D01*
X123569571Y-73813214D02*
X123498142Y-73848928D01*
X123498142Y-73848928D02*
X123462428Y-73920357D01*
X123462428Y-73920357D02*
X123462428Y-74313214D01*
X123105285Y-74313214D02*
X123105285Y-73813214D01*
X123105285Y-73563214D02*
X123140999Y-73598928D01*
X123140999Y-73598928D02*
X123105285Y-73634642D01*
X123105285Y-73634642D02*
X123069571Y-73598928D01*
X123069571Y-73598928D02*
X123105285Y-73563214D01*
X123105285Y-73563214D02*
X123105285Y-73634642D01*
X122855285Y-73813214D02*
X122569571Y-73813214D01*
X122748142Y-73563214D02*
X122748142Y-74206071D01*
X122748142Y-74206071D02*
X122712428Y-74277500D01*
X122712428Y-74277500D02*
X122640999Y-74313214D01*
X122640999Y-74313214D02*
X122569571Y-74313214D01*
X122283857Y-74313214D02*
X122141000Y-74313214D01*
X122141000Y-74313214D02*
X122069571Y-74277500D01*
X122069571Y-74277500D02*
X122033857Y-74241785D01*
X122033857Y-74241785D02*
X121962428Y-74134642D01*
X121962428Y-74134642D02*
X121926714Y-73991785D01*
X121926714Y-73991785D02*
X121926714Y-73706071D01*
X121926714Y-73706071D02*
X121962428Y-73634642D01*
X121962428Y-73634642D02*
X121998143Y-73598928D01*
X121998143Y-73598928D02*
X122069571Y-73563214D01*
X122069571Y-73563214D02*
X122212428Y-73563214D01*
X122212428Y-73563214D02*
X122283857Y-73598928D01*
X122283857Y-73598928D02*
X122319571Y-73634642D01*
X122319571Y-73634642D02*
X122355285Y-73706071D01*
X122355285Y-73706071D02*
X122355285Y-73884642D01*
X122355285Y-73884642D02*
X122319571Y-73956071D01*
X122319571Y-73956071D02*
X122283857Y-73991785D01*
X122283857Y-73991785D02*
X122212428Y-74027500D01*
X122212428Y-74027500D02*
X122069571Y-74027500D01*
X122069571Y-74027500D02*
X121998143Y-73991785D01*
X121998143Y-73991785D02*
X121962428Y-73956071D01*
X121962428Y-73956071D02*
X121926714Y-73884642D01*
X121569571Y-74313214D02*
X121426714Y-74313214D01*
X121426714Y-74313214D02*
X121355285Y-74277500D01*
X121355285Y-74277500D02*
X121319571Y-74241785D01*
X121319571Y-74241785D02*
X121248142Y-74134642D01*
X121248142Y-74134642D02*
X121212428Y-73991785D01*
X121212428Y-73991785D02*
X121212428Y-73706071D01*
X121212428Y-73706071D02*
X121248142Y-73634642D01*
X121248142Y-73634642D02*
X121283857Y-73598928D01*
X121283857Y-73598928D02*
X121355285Y-73563214D01*
X121355285Y-73563214D02*
X121498142Y-73563214D01*
X121498142Y-73563214D02*
X121569571Y-73598928D01*
X121569571Y-73598928D02*
X121605285Y-73634642D01*
X121605285Y-73634642D02*
X121640999Y-73706071D01*
X121640999Y-73706071D02*
X121640999Y-73884642D01*
X121640999Y-73884642D02*
X121605285Y-73956071D01*
X121605285Y-73956071D02*
X121569571Y-73991785D01*
X121569571Y-73991785D02*
X121498142Y-74027500D01*
X121498142Y-74027500D02*
X121355285Y-74027500D01*
X121355285Y-74027500D02*
X121283857Y-73991785D01*
X121283857Y-73991785D02*
X121248142Y-73956071D01*
X121248142Y-73956071D02*
X121212428Y-73884642D01*
X131551714Y-75528214D02*
X131551714Y-74778214D01*
X131551714Y-74778214D02*
X131373143Y-74778214D01*
X131373143Y-74778214D02*
X131266000Y-74813928D01*
X131266000Y-74813928D02*
X131194571Y-74885357D01*
X131194571Y-74885357D02*
X131158857Y-74956785D01*
X131158857Y-74956785D02*
X131123143Y-75099642D01*
X131123143Y-75099642D02*
X131123143Y-75206785D01*
X131123143Y-75206785D02*
X131158857Y-75349642D01*
X131158857Y-75349642D02*
X131194571Y-75421071D01*
X131194571Y-75421071D02*
X131266000Y-75492500D01*
X131266000Y-75492500D02*
X131373143Y-75528214D01*
X131373143Y-75528214D02*
X131551714Y-75528214D01*
X130516000Y-75492500D02*
X130587428Y-75528214D01*
X130587428Y-75528214D02*
X130730286Y-75528214D01*
X130730286Y-75528214D02*
X130801714Y-75492500D01*
X130801714Y-75492500D02*
X130837428Y-75421071D01*
X130837428Y-75421071D02*
X130837428Y-75135357D01*
X130837428Y-75135357D02*
X130801714Y-75063928D01*
X130801714Y-75063928D02*
X130730286Y-75028214D01*
X130730286Y-75028214D02*
X130587428Y-75028214D01*
X130587428Y-75028214D02*
X130516000Y-75063928D01*
X130516000Y-75063928D02*
X130480286Y-75135357D01*
X130480286Y-75135357D02*
X130480286Y-75206785D01*
X130480286Y-75206785D02*
X130837428Y-75278214D01*
X130158857Y-75528214D02*
X130158857Y-75028214D01*
X130158857Y-75171071D02*
X130123143Y-75099642D01*
X130123143Y-75099642D02*
X130087429Y-75063928D01*
X130087429Y-75063928D02*
X130016000Y-75028214D01*
X130016000Y-75028214D02*
X129944571Y-75028214D01*
X129694571Y-75528214D02*
X129694571Y-75028214D01*
X129694571Y-74778214D02*
X129730285Y-74813928D01*
X129730285Y-74813928D02*
X129694571Y-74849642D01*
X129694571Y-74849642D02*
X129658857Y-74813928D01*
X129658857Y-74813928D02*
X129694571Y-74778214D01*
X129694571Y-74778214D02*
X129694571Y-74849642D01*
X129408857Y-75028214D02*
X129230285Y-75528214D01*
X129230285Y-75528214D02*
X129051714Y-75028214D01*
X128480285Y-75492500D02*
X128551713Y-75528214D01*
X128551713Y-75528214D02*
X128694571Y-75528214D01*
X128694571Y-75528214D02*
X128765999Y-75492500D01*
X128765999Y-75492500D02*
X128801713Y-75421071D01*
X128801713Y-75421071D02*
X128801713Y-75135357D01*
X128801713Y-75135357D02*
X128765999Y-75063928D01*
X128765999Y-75063928D02*
X128694571Y-75028214D01*
X128694571Y-75028214D02*
X128551713Y-75028214D01*
X128551713Y-75028214D02*
X128480285Y-75063928D01*
X128480285Y-75063928D02*
X128444571Y-75135357D01*
X128444571Y-75135357D02*
X128444571Y-75206785D01*
X128444571Y-75206785D02*
X128801713Y-75278214D01*
X127801714Y-75528214D02*
X127801714Y-74778214D01*
X127801714Y-75492500D02*
X127873142Y-75528214D01*
X127873142Y-75528214D02*
X128015999Y-75528214D01*
X128015999Y-75528214D02*
X128087428Y-75492500D01*
X128087428Y-75492500D02*
X128123142Y-75456785D01*
X128123142Y-75456785D02*
X128158856Y-75385357D01*
X128158856Y-75385357D02*
X128158856Y-75171071D01*
X128158856Y-75171071D02*
X128123142Y-75099642D01*
X128123142Y-75099642D02*
X128087428Y-75063928D01*
X128087428Y-75063928D02*
X128015999Y-75028214D01*
X128015999Y-75028214D02*
X127873142Y-75028214D01*
X127873142Y-75028214D02*
X127801714Y-75063928D01*
X126873142Y-75528214D02*
X126873142Y-74778214D01*
X126873142Y-75063928D02*
X126801714Y-75028214D01*
X126801714Y-75028214D02*
X126658856Y-75028214D01*
X126658856Y-75028214D02*
X126587428Y-75063928D01*
X126587428Y-75063928D02*
X126551714Y-75099642D01*
X126551714Y-75099642D02*
X126515999Y-75171071D01*
X126515999Y-75171071D02*
X126515999Y-75385357D01*
X126515999Y-75385357D02*
X126551714Y-75456785D01*
X126551714Y-75456785D02*
X126587428Y-75492500D01*
X126587428Y-75492500D02*
X126658856Y-75528214D01*
X126658856Y-75528214D02*
X126801714Y-75528214D01*
X126801714Y-75528214D02*
X126873142Y-75492500D01*
X126266000Y-75028214D02*
X126087428Y-75528214D01*
X125908857Y-75028214D02*
X126087428Y-75528214D01*
X126087428Y-75528214D02*
X126158857Y-75706785D01*
X126158857Y-75706785D02*
X126194571Y-75742500D01*
X126194571Y-75742500D02*
X126266000Y-75778214D01*
X124801713Y-75135357D02*
X125051713Y-75135357D01*
X125051713Y-75528214D02*
X125051713Y-74778214D01*
X125051713Y-74778214D02*
X124694570Y-74778214D01*
X124408856Y-75528214D02*
X124408856Y-75028214D01*
X124408856Y-74778214D02*
X124444570Y-74813928D01*
X124444570Y-74813928D02*
X124408856Y-74849642D01*
X124408856Y-74849642D02*
X124373142Y-74813928D01*
X124373142Y-74813928D02*
X124408856Y-74778214D01*
X124408856Y-74778214D02*
X124408856Y-74849642D01*
X124087427Y-75492500D02*
X124015999Y-75528214D01*
X124015999Y-75528214D02*
X123873142Y-75528214D01*
X123873142Y-75528214D02*
X123801713Y-75492500D01*
X123801713Y-75492500D02*
X123765999Y-75421071D01*
X123765999Y-75421071D02*
X123765999Y-75385357D01*
X123765999Y-75385357D02*
X123801713Y-75313928D01*
X123801713Y-75313928D02*
X123873142Y-75278214D01*
X123873142Y-75278214D02*
X123980285Y-75278214D01*
X123980285Y-75278214D02*
X124051713Y-75242500D01*
X124051713Y-75242500D02*
X124087427Y-75171071D01*
X124087427Y-75171071D02*
X124087427Y-75135357D01*
X124087427Y-75135357D02*
X124051713Y-75063928D01*
X124051713Y-75063928D02*
X123980285Y-75028214D01*
X123980285Y-75028214D02*
X123873142Y-75028214D01*
X123873142Y-75028214D02*
X123801713Y-75063928D01*
X123444570Y-75528214D02*
X123444570Y-74778214D01*
X123123142Y-75528214D02*
X123123142Y-75135357D01*
X123123142Y-75135357D02*
X123158856Y-75063928D01*
X123158856Y-75063928D02*
X123230284Y-75028214D01*
X123230284Y-75028214D02*
X123337427Y-75028214D01*
X123337427Y-75028214D02*
X123408856Y-75063928D01*
X123408856Y-75063928D02*
X123444570Y-75099642D01*
X122480285Y-75492500D02*
X122551713Y-75528214D01*
X122551713Y-75528214D02*
X122694571Y-75528214D01*
X122694571Y-75528214D02*
X122765999Y-75492500D01*
X122765999Y-75492500D02*
X122801713Y-75421071D01*
X122801713Y-75421071D02*
X122801713Y-75135357D01*
X122801713Y-75135357D02*
X122765999Y-75063928D01*
X122765999Y-75063928D02*
X122694571Y-75028214D01*
X122694571Y-75028214D02*
X122551713Y-75028214D01*
X122551713Y-75028214D02*
X122480285Y-75063928D01*
X122480285Y-75063928D02*
X122444571Y-75135357D01*
X122444571Y-75135357D02*
X122444571Y-75206785D01*
X122444571Y-75206785D02*
X122801713Y-75278214D01*
X122123142Y-75528214D02*
X122123142Y-75028214D01*
X122123142Y-74778214D02*
X122158856Y-74813928D01*
X122158856Y-74813928D02*
X122123142Y-74849642D01*
X122123142Y-74849642D02*
X122087428Y-74813928D01*
X122087428Y-74813928D02*
X122123142Y-74778214D01*
X122123142Y-74778214D02*
X122123142Y-74849642D01*
X121837428Y-75028214D02*
X121658856Y-75528214D01*
X121480285Y-75028214D02*
X121658856Y-75528214D01*
X121658856Y-75528214D02*
X121730285Y-75706785D01*
X121730285Y-75706785D02*
X121765999Y-75742500D01*
X121765999Y-75742500D02*
X121837428Y-75778214D01*
X121265999Y-75028214D02*
X121087427Y-75528214D01*
X120908856Y-75028214D02*
X121087427Y-75528214D01*
X121087427Y-75528214D02*
X121158856Y-75706785D01*
X121158856Y-75706785D02*
X121194570Y-75742500D01*
X121194570Y-75742500D02*
X121265999Y-75778214D01*
X130123141Y-76707500D02*
X130015999Y-76743214D01*
X130015999Y-76743214D02*
X129837427Y-76743214D01*
X129837427Y-76743214D02*
X129765999Y-76707500D01*
X129765999Y-76707500D02*
X129730284Y-76671785D01*
X129730284Y-76671785D02*
X129694570Y-76600357D01*
X129694570Y-76600357D02*
X129694570Y-76528928D01*
X129694570Y-76528928D02*
X129730284Y-76457500D01*
X129730284Y-76457500D02*
X129765999Y-76421785D01*
X129765999Y-76421785D02*
X129837427Y-76386071D01*
X129837427Y-76386071D02*
X129980284Y-76350357D01*
X129980284Y-76350357D02*
X130051713Y-76314642D01*
X130051713Y-76314642D02*
X130087427Y-76278928D01*
X130087427Y-76278928D02*
X130123141Y-76207500D01*
X130123141Y-76207500D02*
X130123141Y-76136071D01*
X130123141Y-76136071D02*
X130087427Y-76064642D01*
X130087427Y-76064642D02*
X130051713Y-76028928D01*
X130051713Y-76028928D02*
X129980284Y-75993214D01*
X129980284Y-75993214D02*
X129801713Y-75993214D01*
X129801713Y-75993214D02*
X129694570Y-76028928D01*
X129373141Y-76243214D02*
X129373141Y-76993214D01*
X129373141Y-76278928D02*
X129301713Y-76243214D01*
X129301713Y-76243214D02*
X129158855Y-76243214D01*
X129158855Y-76243214D02*
X129087427Y-76278928D01*
X129087427Y-76278928D02*
X129051713Y-76314642D01*
X129051713Y-76314642D02*
X129015998Y-76386071D01*
X129015998Y-76386071D02*
X129015998Y-76600357D01*
X129015998Y-76600357D02*
X129051713Y-76671785D01*
X129051713Y-76671785D02*
X129087427Y-76707500D01*
X129087427Y-76707500D02*
X129158855Y-76743214D01*
X129158855Y-76743214D02*
X129301713Y-76743214D01*
X129301713Y-76743214D02*
X129373141Y-76707500D01*
X128587427Y-76743214D02*
X128658856Y-76707500D01*
X128658856Y-76707500D02*
X128694570Y-76671785D01*
X128694570Y-76671785D02*
X128730284Y-76600357D01*
X128730284Y-76600357D02*
X128730284Y-76386071D01*
X128730284Y-76386071D02*
X128694570Y-76314642D01*
X128694570Y-76314642D02*
X128658856Y-76278928D01*
X128658856Y-76278928D02*
X128587427Y-76243214D01*
X128587427Y-76243214D02*
X128480284Y-76243214D01*
X128480284Y-76243214D02*
X128408856Y-76278928D01*
X128408856Y-76278928D02*
X128373142Y-76314642D01*
X128373142Y-76314642D02*
X128337427Y-76386071D01*
X128337427Y-76386071D02*
X128337427Y-76600357D01*
X128337427Y-76600357D02*
X128373142Y-76671785D01*
X128373142Y-76671785D02*
X128408856Y-76707500D01*
X128408856Y-76707500D02*
X128480284Y-76743214D01*
X128480284Y-76743214D02*
X128587427Y-76743214D01*
X128015999Y-76243214D02*
X128015999Y-76743214D01*
X128015999Y-76314642D02*
X127980285Y-76278928D01*
X127980285Y-76278928D02*
X127908856Y-76243214D01*
X127908856Y-76243214D02*
X127801713Y-76243214D01*
X127801713Y-76243214D02*
X127730285Y-76278928D01*
X127730285Y-76278928D02*
X127694571Y-76350357D01*
X127694571Y-76350357D02*
X127694571Y-76743214D01*
X127373142Y-76707500D02*
X127301714Y-76743214D01*
X127301714Y-76743214D02*
X127158857Y-76743214D01*
X127158857Y-76743214D02*
X127087428Y-76707500D01*
X127087428Y-76707500D02*
X127051714Y-76636071D01*
X127051714Y-76636071D02*
X127051714Y-76600357D01*
X127051714Y-76600357D02*
X127087428Y-76528928D01*
X127087428Y-76528928D02*
X127158857Y-76493214D01*
X127158857Y-76493214D02*
X127266000Y-76493214D01*
X127266000Y-76493214D02*
X127337428Y-76457500D01*
X127337428Y-76457500D02*
X127373142Y-76386071D01*
X127373142Y-76386071D02*
X127373142Y-76350357D01*
X127373142Y-76350357D02*
X127337428Y-76278928D01*
X127337428Y-76278928D02*
X127266000Y-76243214D01*
X127266000Y-76243214D02*
X127158857Y-76243214D01*
X127158857Y-76243214D02*
X127087428Y-76278928D01*
X126623142Y-76743214D02*
X126694571Y-76707500D01*
X126694571Y-76707500D02*
X126730285Y-76671785D01*
X126730285Y-76671785D02*
X126765999Y-76600357D01*
X126765999Y-76600357D02*
X126765999Y-76386071D01*
X126765999Y-76386071D02*
X126730285Y-76314642D01*
X126730285Y-76314642D02*
X126694571Y-76278928D01*
X126694571Y-76278928D02*
X126623142Y-76243214D01*
X126623142Y-76243214D02*
X126515999Y-76243214D01*
X126515999Y-76243214D02*
X126444571Y-76278928D01*
X126444571Y-76278928D02*
X126408857Y-76314642D01*
X126408857Y-76314642D02*
X126373142Y-76386071D01*
X126373142Y-76386071D02*
X126373142Y-76600357D01*
X126373142Y-76600357D02*
X126408857Y-76671785D01*
X126408857Y-76671785D02*
X126444571Y-76707500D01*
X126444571Y-76707500D02*
X126515999Y-76743214D01*
X126515999Y-76743214D02*
X126623142Y-76743214D01*
X126051714Y-76743214D02*
X126051714Y-76243214D01*
X126051714Y-76386071D02*
X126016000Y-76314642D01*
X126016000Y-76314642D02*
X125980286Y-76278928D01*
X125980286Y-76278928D02*
X125908857Y-76243214D01*
X125908857Y-76243214D02*
X125837428Y-76243214D01*
X125301714Y-76707500D02*
X125373142Y-76743214D01*
X125373142Y-76743214D02*
X125516000Y-76743214D01*
X125516000Y-76743214D02*
X125587428Y-76707500D01*
X125587428Y-76707500D02*
X125623142Y-76636071D01*
X125623142Y-76636071D02*
X125623142Y-76350357D01*
X125623142Y-76350357D02*
X125587428Y-76278928D01*
X125587428Y-76278928D02*
X125516000Y-76243214D01*
X125516000Y-76243214D02*
X125373142Y-76243214D01*
X125373142Y-76243214D02*
X125301714Y-76278928D01*
X125301714Y-76278928D02*
X125266000Y-76350357D01*
X125266000Y-76350357D02*
X125266000Y-76421785D01*
X125266000Y-76421785D02*
X125623142Y-76493214D01*
X124623143Y-76743214D02*
X124623143Y-75993214D01*
X124623143Y-76707500D02*
X124694571Y-76743214D01*
X124694571Y-76743214D02*
X124837428Y-76743214D01*
X124837428Y-76743214D02*
X124908857Y-76707500D01*
X124908857Y-76707500D02*
X124944571Y-76671785D01*
X124944571Y-76671785D02*
X124980285Y-76600357D01*
X124980285Y-76600357D02*
X124980285Y-76386071D01*
X124980285Y-76386071D02*
X124944571Y-76314642D01*
X124944571Y-76314642D02*
X124908857Y-76278928D01*
X124908857Y-76278928D02*
X124837428Y-76243214D01*
X124837428Y-76243214D02*
X124694571Y-76243214D01*
X124694571Y-76243214D02*
X124623143Y-76278928D01*
X123694571Y-76743214D02*
X123694571Y-75993214D01*
X123694571Y-76278928D02*
X123623143Y-76243214D01*
X123623143Y-76243214D02*
X123480285Y-76243214D01*
X123480285Y-76243214D02*
X123408857Y-76278928D01*
X123408857Y-76278928D02*
X123373143Y-76314642D01*
X123373143Y-76314642D02*
X123337428Y-76386071D01*
X123337428Y-76386071D02*
X123337428Y-76600357D01*
X123337428Y-76600357D02*
X123373143Y-76671785D01*
X123373143Y-76671785D02*
X123408857Y-76707500D01*
X123408857Y-76707500D02*
X123480285Y-76743214D01*
X123480285Y-76743214D02*
X123623143Y-76743214D01*
X123623143Y-76743214D02*
X123694571Y-76707500D01*
X123087429Y-76243214D02*
X122908857Y-76743214D01*
X122730286Y-76243214D02*
X122908857Y-76743214D01*
X122908857Y-76743214D02*
X122980286Y-76921785D01*
X122980286Y-76921785D02*
X123016000Y-76957500D01*
X123016000Y-76957500D02*
X123087429Y-76993214D01*
X122444571Y-76671785D02*
X122408857Y-76707500D01*
X122408857Y-76707500D02*
X122444571Y-76743214D01*
X122444571Y-76743214D02*
X122480285Y-76707500D01*
X122480285Y-76707500D02*
X122444571Y-76671785D01*
X122444571Y-76671785D02*
X122444571Y-76743214D01*
X122444571Y-76278928D02*
X122408857Y-76314642D01*
X122408857Y-76314642D02*
X122444571Y-76350357D01*
X122444571Y-76350357D02*
X122480285Y-76314642D01*
X122480285Y-76314642D02*
X122444571Y-76278928D01*
X122444571Y-76278928D02*
X122444571Y-76350357D01*
X134783856Y-77958214D02*
X134783856Y-77208214D01*
X134783856Y-77208214D02*
X134498142Y-77208214D01*
X134498142Y-77208214D02*
X134426713Y-77243928D01*
X134426713Y-77243928D02*
X134390999Y-77279642D01*
X134390999Y-77279642D02*
X134355285Y-77351071D01*
X134355285Y-77351071D02*
X134355285Y-77458214D01*
X134355285Y-77458214D02*
X134390999Y-77529642D01*
X134390999Y-77529642D02*
X134426713Y-77565357D01*
X134426713Y-77565357D02*
X134498142Y-77601071D01*
X134498142Y-77601071D02*
X134783856Y-77601071D01*
X134033856Y-77958214D02*
X134033856Y-77458214D01*
X134033856Y-77601071D02*
X133998142Y-77529642D01*
X133998142Y-77529642D02*
X133962428Y-77493928D01*
X133962428Y-77493928D02*
X133890999Y-77458214D01*
X133890999Y-77458214D02*
X133819570Y-77458214D01*
X133462427Y-77958214D02*
X133533856Y-77922500D01*
X133533856Y-77922500D02*
X133569570Y-77886785D01*
X133569570Y-77886785D02*
X133605284Y-77815357D01*
X133605284Y-77815357D02*
X133605284Y-77601071D01*
X133605284Y-77601071D02*
X133569570Y-77529642D01*
X133569570Y-77529642D02*
X133533856Y-77493928D01*
X133533856Y-77493928D02*
X133462427Y-77458214D01*
X133462427Y-77458214D02*
X133355284Y-77458214D01*
X133355284Y-77458214D02*
X133283856Y-77493928D01*
X133283856Y-77493928D02*
X133248142Y-77529642D01*
X133248142Y-77529642D02*
X133212427Y-77601071D01*
X133212427Y-77601071D02*
X133212427Y-77815357D01*
X133212427Y-77815357D02*
X133248142Y-77886785D01*
X133248142Y-77886785D02*
X133283856Y-77922500D01*
X133283856Y-77922500D02*
X133355284Y-77958214D01*
X133355284Y-77958214D02*
X133462427Y-77958214D01*
X132962428Y-77458214D02*
X132783856Y-77958214D01*
X132783856Y-77958214D02*
X132605285Y-77458214D01*
X132212427Y-77958214D02*
X132283856Y-77922500D01*
X132283856Y-77922500D02*
X132319570Y-77886785D01*
X132319570Y-77886785D02*
X132355284Y-77815357D01*
X132355284Y-77815357D02*
X132355284Y-77601071D01*
X132355284Y-77601071D02*
X132319570Y-77529642D01*
X132319570Y-77529642D02*
X132283856Y-77493928D01*
X132283856Y-77493928D02*
X132212427Y-77458214D01*
X132212427Y-77458214D02*
X132105284Y-77458214D01*
X132105284Y-77458214D02*
X132033856Y-77493928D01*
X132033856Y-77493928D02*
X131998142Y-77529642D01*
X131998142Y-77529642D02*
X131962427Y-77601071D01*
X131962427Y-77601071D02*
X131962427Y-77815357D01*
X131962427Y-77815357D02*
X131998142Y-77886785D01*
X131998142Y-77886785D02*
X132033856Y-77922500D01*
X132033856Y-77922500D02*
X132105284Y-77958214D01*
X132105284Y-77958214D02*
X132212427Y-77958214D01*
X131640999Y-77958214D02*
X131640999Y-77208214D01*
X131569571Y-77672500D02*
X131355285Y-77958214D01*
X131355285Y-77458214D02*
X131640999Y-77743928D01*
X131105285Y-77208214D02*
X130640999Y-77208214D01*
X130640999Y-77208214D02*
X130890999Y-77493928D01*
X130890999Y-77493928D02*
X130783856Y-77493928D01*
X130783856Y-77493928D02*
X130712428Y-77529642D01*
X130712428Y-77529642D02*
X130676713Y-77565357D01*
X130676713Y-77565357D02*
X130640999Y-77636785D01*
X130640999Y-77636785D02*
X130640999Y-77815357D01*
X130640999Y-77815357D02*
X130676713Y-77886785D01*
X130676713Y-77886785D02*
X130712428Y-77922500D01*
X130712428Y-77922500D02*
X130783856Y-77958214D01*
X130783856Y-77958214D02*
X130998142Y-77958214D01*
X130998142Y-77958214D02*
X131069570Y-77922500D01*
X131069570Y-77922500D02*
X131105285Y-77886785D01*
X129998142Y-77958214D02*
X129998142Y-77208214D01*
X129998142Y-77922500D02*
X130069570Y-77958214D01*
X130069570Y-77958214D02*
X130212427Y-77958214D01*
X130212427Y-77958214D02*
X130283856Y-77922500D01*
X130283856Y-77922500D02*
X130319570Y-77886785D01*
X130319570Y-77886785D02*
X130355284Y-77815357D01*
X130355284Y-77815357D02*
X130355284Y-77601071D01*
X130355284Y-77601071D02*
X130319570Y-77529642D01*
X130319570Y-77529642D02*
X130283856Y-77493928D01*
X130283856Y-77493928D02*
X130212427Y-77458214D01*
X130212427Y-77458214D02*
X130069570Y-77458214D01*
X130069570Y-77458214D02*
X129998142Y-77493928D01*
X129640999Y-77886785D02*
X129605285Y-77922500D01*
X129605285Y-77922500D02*
X129640999Y-77958214D01*
X129640999Y-77958214D02*
X129676713Y-77922500D01*
X129676713Y-77922500D02*
X129640999Y-77886785D01*
X129640999Y-77886785D02*
X129640999Y-77958214D01*
X128962428Y-77922500D02*
X129033856Y-77958214D01*
X129033856Y-77958214D02*
X129176713Y-77958214D01*
X129176713Y-77958214D02*
X129248142Y-77922500D01*
X129248142Y-77922500D02*
X129283856Y-77886785D01*
X129283856Y-77886785D02*
X129319570Y-77815357D01*
X129319570Y-77815357D02*
X129319570Y-77601071D01*
X129319570Y-77601071D02*
X129283856Y-77529642D01*
X129283856Y-77529642D02*
X129248142Y-77493928D01*
X129248142Y-77493928D02*
X129176713Y-77458214D01*
X129176713Y-77458214D02*
X129033856Y-77458214D01*
X129033856Y-77458214D02*
X128962428Y-77493928D01*
X128533856Y-77958214D02*
X128605285Y-77922500D01*
X128605285Y-77922500D02*
X128640999Y-77886785D01*
X128640999Y-77886785D02*
X128676713Y-77815357D01*
X128676713Y-77815357D02*
X128676713Y-77601071D01*
X128676713Y-77601071D02*
X128640999Y-77529642D01*
X128640999Y-77529642D02*
X128605285Y-77493928D01*
X128605285Y-77493928D02*
X128533856Y-77458214D01*
X128533856Y-77458214D02*
X128426713Y-77458214D01*
X128426713Y-77458214D02*
X128355285Y-77493928D01*
X128355285Y-77493928D02*
X128319571Y-77529642D01*
X128319571Y-77529642D02*
X128283856Y-77601071D01*
X128283856Y-77601071D02*
X128283856Y-77815357D01*
X128283856Y-77815357D02*
X128319571Y-77886785D01*
X128319571Y-77886785D02*
X128355285Y-77922500D01*
X128355285Y-77922500D02*
X128426713Y-77958214D01*
X128426713Y-77958214D02*
X128533856Y-77958214D01*
X127962428Y-77958214D02*
X127962428Y-77458214D01*
X127962428Y-77529642D02*
X127926714Y-77493928D01*
X127926714Y-77493928D02*
X127855285Y-77458214D01*
X127855285Y-77458214D02*
X127748142Y-77458214D01*
X127748142Y-77458214D02*
X127676714Y-77493928D01*
X127676714Y-77493928D02*
X127641000Y-77565357D01*
X127641000Y-77565357D02*
X127641000Y-77958214D01*
X127641000Y-77565357D02*
X127605285Y-77493928D01*
X127605285Y-77493928D02*
X127533857Y-77458214D01*
X127533857Y-77458214D02*
X127426714Y-77458214D01*
X127426714Y-77458214D02*
X127355285Y-77493928D01*
X127355285Y-77493928D02*
X127319571Y-77565357D01*
X127319571Y-77565357D02*
X127319571Y-77958214D01*
X125783856Y-77958214D02*
X125819571Y-77958214D01*
X125819571Y-77958214D02*
X125890999Y-77922500D01*
X125890999Y-77922500D02*
X125998142Y-77815357D01*
X125998142Y-77815357D02*
X126176713Y-77601071D01*
X126176713Y-77601071D02*
X126248142Y-77493928D01*
X126248142Y-77493928D02*
X126283856Y-77386785D01*
X126283856Y-77386785D02*
X126283856Y-77315357D01*
X126283856Y-77315357D02*
X126248142Y-77243928D01*
X126248142Y-77243928D02*
X126176713Y-77208214D01*
X126176713Y-77208214D02*
X126140999Y-77208214D01*
X126140999Y-77208214D02*
X126069571Y-77243928D01*
X126069571Y-77243928D02*
X126033856Y-77315357D01*
X126033856Y-77315357D02*
X126033856Y-77351071D01*
X126033856Y-77351071D02*
X126069571Y-77422500D01*
X126069571Y-77422500D02*
X126105285Y-77458214D01*
X126105285Y-77458214D02*
X126319571Y-77601071D01*
X126319571Y-77601071D02*
X126355285Y-77636785D01*
X126355285Y-77636785D02*
X126390999Y-77708214D01*
X126390999Y-77708214D02*
X126390999Y-77815357D01*
X126390999Y-77815357D02*
X126355285Y-77886785D01*
X126355285Y-77886785D02*
X126319571Y-77922500D01*
X126319571Y-77922500D02*
X126248142Y-77958214D01*
X126248142Y-77958214D02*
X126140999Y-77958214D01*
X126140999Y-77958214D02*
X126069571Y-77922500D01*
X126069571Y-77922500D02*
X126033856Y-77886785D01*
X126033856Y-77886785D02*
X125926713Y-77743928D01*
X125926713Y-77743928D02*
X125890999Y-77636785D01*
X125890999Y-77636785D02*
X125890999Y-77565357D01*
X124533856Y-77958214D02*
X124890999Y-77958214D01*
X124890999Y-77958214D02*
X124890999Y-77208214D01*
X123962428Y-77958214D02*
X123962428Y-77565357D01*
X123962428Y-77565357D02*
X123998142Y-77493928D01*
X123998142Y-77493928D02*
X124069570Y-77458214D01*
X124069570Y-77458214D02*
X124212428Y-77458214D01*
X124212428Y-77458214D02*
X124283856Y-77493928D01*
X123962428Y-77922500D02*
X124033856Y-77958214D01*
X124033856Y-77958214D02*
X124212428Y-77958214D01*
X124212428Y-77958214D02*
X124283856Y-77922500D01*
X124283856Y-77922500D02*
X124319570Y-77851071D01*
X124319570Y-77851071D02*
X124319570Y-77779642D01*
X124319570Y-77779642D02*
X124283856Y-77708214D01*
X124283856Y-77708214D02*
X124212428Y-77672500D01*
X124212428Y-77672500D02*
X124033856Y-77672500D01*
X124033856Y-77672500D02*
X123962428Y-77636785D01*
X123605285Y-77958214D02*
X123605285Y-77208214D01*
X123605285Y-77493928D02*
X123533857Y-77458214D01*
X123533857Y-77458214D02*
X123390999Y-77458214D01*
X123390999Y-77458214D02*
X123319571Y-77493928D01*
X123319571Y-77493928D02*
X123283857Y-77529642D01*
X123283857Y-77529642D02*
X123248142Y-77601071D01*
X123248142Y-77601071D02*
X123248142Y-77815357D01*
X123248142Y-77815357D02*
X123283857Y-77886785D01*
X123283857Y-77886785D02*
X123319571Y-77922500D01*
X123319571Y-77922500D02*
X123390999Y-77958214D01*
X123390999Y-77958214D02*
X123533857Y-77958214D01*
X123533857Y-77958214D02*
X123605285Y-77922500D01*
X122605286Y-77458214D02*
X122605286Y-77958214D01*
X122783857Y-77172500D02*
X122962428Y-77708214D01*
X122962428Y-77708214D02*
X122498143Y-77708214D01*
X121891000Y-77458214D02*
X121891000Y-77958214D01*
X122069571Y-77172500D02*
X122248142Y-77708214D01*
X122248142Y-77708214D02*
X121783857Y-77708214D01*
X121140999Y-77208214D02*
X121498142Y-77208214D01*
X121498142Y-77208214D02*
X121533856Y-77565357D01*
X121533856Y-77565357D02*
X121498142Y-77529642D01*
X121498142Y-77529642D02*
X121426714Y-77493928D01*
X121426714Y-77493928D02*
X121248142Y-77493928D01*
X121248142Y-77493928D02*
X121176714Y-77529642D01*
X121176714Y-77529642D02*
X121140999Y-77565357D01*
X121140999Y-77565357D02*
X121105285Y-77636785D01*
X121105285Y-77636785D02*
X121105285Y-77815357D01*
X121105285Y-77815357D02*
X121140999Y-77886785D01*
X121140999Y-77886785D02*
X121176714Y-77922500D01*
X121176714Y-77922500D02*
X121248142Y-77958214D01*
X121248142Y-77958214D02*
X121426714Y-77958214D01*
X121426714Y-77958214D02*
X121498142Y-77922500D01*
X121498142Y-77922500D02*
X121533856Y-77886785D01*
X120640999Y-77208214D02*
X120569570Y-77208214D01*
X120569570Y-77208214D02*
X120498142Y-77243928D01*
X120498142Y-77243928D02*
X120462428Y-77279642D01*
X120462428Y-77279642D02*
X120426713Y-77351071D01*
X120426713Y-77351071D02*
X120390999Y-77493928D01*
X120390999Y-77493928D02*
X120390999Y-77672500D01*
X120390999Y-77672500D02*
X120426713Y-77815357D01*
X120426713Y-77815357D02*
X120462428Y-77886785D01*
X120462428Y-77886785D02*
X120498142Y-77922500D01*
X120498142Y-77922500D02*
X120569570Y-77958214D01*
X120569570Y-77958214D02*
X120640999Y-77958214D01*
X120640999Y-77958214D02*
X120712428Y-77922500D01*
X120712428Y-77922500D02*
X120748142Y-77886785D01*
X120748142Y-77886785D02*
X120783856Y-77815357D01*
X120783856Y-77815357D02*
X120819570Y-77672500D01*
X120819570Y-77672500D02*
X120819570Y-77493928D01*
X120819570Y-77493928D02*
X120783856Y-77351071D01*
X120783856Y-77351071D02*
X120748142Y-77279642D01*
X120748142Y-77279642D02*
X120712428Y-77243928D01*
X120712428Y-77243928D02*
X120640999Y-77208214D01*
X120069570Y-77886785D02*
X120033856Y-77922500D01*
X120033856Y-77922500D02*
X120069570Y-77958214D01*
X120069570Y-77958214D02*
X120105284Y-77922500D01*
X120105284Y-77922500D02*
X120069570Y-77886785D01*
X120069570Y-77886785D02*
X120069570Y-77958214D01*
X119390999Y-77922500D02*
X119462427Y-77958214D01*
X119462427Y-77958214D02*
X119605284Y-77958214D01*
X119605284Y-77958214D02*
X119676713Y-77922500D01*
X119676713Y-77922500D02*
X119712427Y-77886785D01*
X119712427Y-77886785D02*
X119748141Y-77815357D01*
X119748141Y-77815357D02*
X119748141Y-77601071D01*
X119748141Y-77601071D02*
X119712427Y-77529642D01*
X119712427Y-77529642D02*
X119676713Y-77493928D01*
X119676713Y-77493928D02*
X119605284Y-77458214D01*
X119605284Y-77458214D02*
X119462427Y-77458214D01*
X119462427Y-77458214D02*
X119390999Y-77493928D01*
X118962427Y-77958214D02*
X119033856Y-77922500D01*
X119033856Y-77922500D02*
X119069570Y-77886785D01*
X119069570Y-77886785D02*
X119105284Y-77815357D01*
X119105284Y-77815357D02*
X119105284Y-77601071D01*
X119105284Y-77601071D02*
X119069570Y-77529642D01*
X119069570Y-77529642D02*
X119033856Y-77493928D01*
X119033856Y-77493928D02*
X118962427Y-77458214D01*
X118962427Y-77458214D02*
X118855284Y-77458214D01*
X118855284Y-77458214D02*
X118783856Y-77493928D01*
X118783856Y-77493928D02*
X118748142Y-77529642D01*
X118748142Y-77529642D02*
X118712427Y-77601071D01*
X118712427Y-77601071D02*
X118712427Y-77815357D01*
X118712427Y-77815357D02*
X118748142Y-77886785D01*
X118748142Y-77886785D02*
X118783856Y-77922500D01*
X118783856Y-77922500D02*
X118855284Y-77958214D01*
X118855284Y-77958214D02*
X118962427Y-77958214D01*
X118390999Y-77958214D02*
X118390999Y-77458214D01*
X118390999Y-77529642D02*
X118355285Y-77493928D01*
X118355285Y-77493928D02*
X118283856Y-77458214D01*
X118283856Y-77458214D02*
X118176713Y-77458214D01*
X118176713Y-77458214D02*
X118105285Y-77493928D01*
X118105285Y-77493928D02*
X118069571Y-77565357D01*
X118069571Y-77565357D02*
X118069571Y-77958214D01*
X118069571Y-77565357D02*
X118033856Y-77493928D01*
X118033856Y-77493928D02*
X117962428Y-77458214D01*
X117962428Y-77458214D02*
X117855285Y-77458214D01*
X117855285Y-77458214D02*
X117783856Y-77493928D01*
X117783856Y-77493928D02*
X117748142Y-77565357D01*
X117748142Y-77565357D02*
X117748142Y-77958214D01*
D12*
X99774762Y-55192619D02*
X100346190Y-55192619D01*
X100060476Y-55192619D02*
X100060476Y-54192619D01*
X100060476Y-54192619D02*
X100155714Y-54335476D01*
X100155714Y-54335476D02*
X100250952Y-54430714D01*
X100250952Y-54430714D02*
X100346190Y-54478333D01*
X99060476Y-55573571D02*
X99108095Y-55525952D01*
X99108095Y-55525952D02*
X99203333Y-55383095D01*
X99203333Y-55383095D02*
X99250952Y-55287857D01*
X99250952Y-55287857D02*
X99298571Y-55145000D01*
X99298571Y-55145000D02*
X99346190Y-54906904D01*
X99346190Y-54906904D02*
X99346190Y-54716428D01*
X99346190Y-54716428D02*
X99298571Y-54478333D01*
X99298571Y-54478333D02*
X99250952Y-54335476D01*
X99250952Y-54335476D02*
X99203333Y-54240238D01*
X99203333Y-54240238D02*
X99108095Y-54097380D01*
X99108095Y-54097380D02*
X99060476Y-54049761D01*
X98155714Y-54240238D02*
X98250952Y-54192619D01*
X98250952Y-54192619D02*
X98393809Y-54192619D01*
X98393809Y-54192619D02*
X98536666Y-54240238D01*
X98536666Y-54240238D02*
X98631904Y-54335476D01*
X98631904Y-54335476D02*
X98679523Y-54430714D01*
X98679523Y-54430714D02*
X98727142Y-54621190D01*
X98727142Y-54621190D02*
X98727142Y-54764047D01*
X98727142Y-54764047D02*
X98679523Y-54954523D01*
X98679523Y-54954523D02*
X98631904Y-55049761D01*
X98631904Y-55049761D02*
X98536666Y-55145000D01*
X98536666Y-55145000D02*
X98393809Y-55192619D01*
X98393809Y-55192619D02*
X98298571Y-55192619D01*
X98298571Y-55192619D02*
X98155714Y-55145000D01*
X98155714Y-55145000D02*
X98108095Y-55097380D01*
X98108095Y-55097380D02*
X98108095Y-54764047D01*
X98108095Y-54764047D02*
X98298571Y-54764047D01*
X97679523Y-55192619D02*
X97679523Y-54192619D01*
X97679523Y-54192619D02*
X97108095Y-55192619D01*
X97108095Y-55192619D02*
X97108095Y-54192619D01*
X96631904Y-55192619D02*
X96631904Y-54192619D01*
X96631904Y-54192619D02*
X96393809Y-54192619D01*
X96393809Y-54192619D02*
X96250952Y-54240238D01*
X96250952Y-54240238D02*
X96155714Y-54335476D01*
X96155714Y-54335476D02*
X96108095Y-54430714D01*
X96108095Y-54430714D02*
X96060476Y-54621190D01*
X96060476Y-54621190D02*
X96060476Y-54764047D01*
X96060476Y-54764047D02*
X96108095Y-54954523D01*
X96108095Y-54954523D02*
X96155714Y-55049761D01*
X96155714Y-55049761D02*
X96250952Y-55145000D01*
X96250952Y-55145000D02*
X96393809Y-55192619D01*
X96393809Y-55192619D02*
X96631904Y-55192619D01*
X95727142Y-55573571D02*
X95679523Y-55525952D01*
X95679523Y-55525952D02*
X95584285Y-55383095D01*
X95584285Y-55383095D02*
X95536666Y-55287857D01*
X95536666Y-55287857D02*
X95489047Y-55145000D01*
X95489047Y-55145000D02*
X95441428Y-54906904D01*
X95441428Y-54906904D02*
X95441428Y-54716428D01*
X95441428Y-54716428D02*
X95489047Y-54478333D01*
X95489047Y-54478333D02*
X95536666Y-54335476D01*
X95536666Y-54335476D02*
X95584285Y-54240238D01*
X95584285Y-54240238D02*
X95679523Y-54097380D01*
X95679523Y-54097380D02*
X95727142Y-54049761D01*
D11*
X153639047Y-58781309D02*
X153639047Y-58281309D01*
X153639047Y-58281309D02*
X153519999Y-58281309D01*
X153519999Y-58281309D02*
X153448571Y-58305119D01*
X153448571Y-58305119D02*
X153400952Y-58352738D01*
X153400952Y-58352738D02*
X153377142Y-58400357D01*
X153377142Y-58400357D02*
X153353333Y-58495595D01*
X153353333Y-58495595D02*
X153353333Y-58567023D01*
X153353333Y-58567023D02*
X153377142Y-58662261D01*
X153377142Y-58662261D02*
X153400952Y-58709880D01*
X153400952Y-58709880D02*
X153448571Y-58757500D01*
X153448571Y-58757500D02*
X153519999Y-58781309D01*
X153519999Y-58781309D02*
X153639047Y-58781309D01*
X152924761Y-58781309D02*
X152924761Y-58519404D01*
X152924761Y-58519404D02*
X152948571Y-58471785D01*
X152948571Y-58471785D02*
X152996190Y-58447976D01*
X152996190Y-58447976D02*
X153091428Y-58447976D01*
X153091428Y-58447976D02*
X153139047Y-58471785D01*
X152924761Y-58757500D02*
X152972380Y-58781309D01*
X152972380Y-58781309D02*
X153091428Y-58781309D01*
X153091428Y-58781309D02*
X153139047Y-58757500D01*
X153139047Y-58757500D02*
X153162856Y-58709880D01*
X153162856Y-58709880D02*
X153162856Y-58662261D01*
X153162856Y-58662261D02*
X153139047Y-58614642D01*
X153139047Y-58614642D02*
X153091428Y-58590833D01*
X153091428Y-58590833D02*
X152972380Y-58590833D01*
X152972380Y-58590833D02*
X152924761Y-58567023D01*
X152758094Y-58447976D02*
X152567618Y-58447976D01*
X152686666Y-58281309D02*
X152686666Y-58709880D01*
X152686666Y-58709880D02*
X152662856Y-58757500D01*
X152662856Y-58757500D02*
X152615237Y-58781309D01*
X152615237Y-58781309D02*
X152567618Y-58781309D01*
X152186666Y-58781309D02*
X152186666Y-58519404D01*
X152186666Y-58519404D02*
X152210476Y-58471785D01*
X152210476Y-58471785D02*
X152258095Y-58447976D01*
X152258095Y-58447976D02*
X152353333Y-58447976D01*
X152353333Y-58447976D02*
X152400952Y-58471785D01*
X152186666Y-58757500D02*
X152234285Y-58781309D01*
X152234285Y-58781309D02*
X152353333Y-58781309D01*
X152353333Y-58781309D02*
X152400952Y-58757500D01*
X152400952Y-58757500D02*
X152424761Y-58709880D01*
X152424761Y-58709880D02*
X152424761Y-58662261D01*
X152424761Y-58662261D02*
X152400952Y-58614642D01*
X152400952Y-58614642D02*
X152353333Y-58590833D01*
X152353333Y-58590833D02*
X152234285Y-58590833D01*
X152234285Y-58590833D02*
X152186666Y-58567023D01*
X151305714Y-58305119D02*
X151353333Y-58281309D01*
X151353333Y-58281309D02*
X151424762Y-58281309D01*
X151424762Y-58281309D02*
X151496190Y-58305119D01*
X151496190Y-58305119D02*
X151543809Y-58352738D01*
X151543809Y-58352738D02*
X151567619Y-58400357D01*
X151567619Y-58400357D02*
X151591428Y-58495595D01*
X151591428Y-58495595D02*
X151591428Y-58567023D01*
X151591428Y-58567023D02*
X151567619Y-58662261D01*
X151567619Y-58662261D02*
X151543809Y-58709880D01*
X151543809Y-58709880D02*
X151496190Y-58757500D01*
X151496190Y-58757500D02*
X151424762Y-58781309D01*
X151424762Y-58781309D02*
X151377143Y-58781309D01*
X151377143Y-58781309D02*
X151305714Y-58757500D01*
X151305714Y-58757500D02*
X151281905Y-58733690D01*
X151281905Y-58733690D02*
X151281905Y-58567023D01*
X151281905Y-58567023D02*
X151377143Y-58567023D01*
X151067619Y-58447976D02*
X151067619Y-58781309D01*
X151067619Y-58495595D02*
X151043809Y-58471785D01*
X151043809Y-58471785D02*
X150996190Y-58447976D01*
X150996190Y-58447976D02*
X150924762Y-58447976D01*
X150924762Y-58447976D02*
X150877143Y-58471785D01*
X150877143Y-58471785D02*
X150853333Y-58519404D01*
X150853333Y-58519404D02*
X150853333Y-58781309D01*
X150400952Y-58781309D02*
X150400952Y-58281309D01*
X150400952Y-58757500D02*
X150448571Y-58781309D01*
X150448571Y-58781309D02*
X150543809Y-58781309D01*
X150543809Y-58781309D02*
X150591428Y-58757500D01*
X150591428Y-58757500D02*
X150615238Y-58733690D01*
X150615238Y-58733690D02*
X150639047Y-58686071D01*
X150639047Y-58686071D02*
X150639047Y-58543214D01*
X150639047Y-58543214D02*
X150615238Y-58495595D01*
X150615238Y-58495595D02*
X150591428Y-58471785D01*
X150591428Y-58471785D02*
X150543809Y-58447976D01*
X150543809Y-58447976D02*
X150448571Y-58447976D01*
X150448571Y-58447976D02*
X150400952Y-58471785D01*
X119703857Y-72445750D02*
X119132429Y-72445750D01*
X119418143Y-72731464D02*
X119418143Y-72160035D01*
X118846715Y-71981464D02*
X118382429Y-71981464D01*
X118382429Y-71981464D02*
X118632429Y-72267178D01*
X118632429Y-72267178D02*
X118525286Y-72267178D01*
X118525286Y-72267178D02*
X118453858Y-72302892D01*
X118453858Y-72302892D02*
X118418143Y-72338607D01*
X118418143Y-72338607D02*
X118382429Y-72410035D01*
X118382429Y-72410035D02*
X118382429Y-72588607D01*
X118382429Y-72588607D02*
X118418143Y-72660035D01*
X118418143Y-72660035D02*
X118453858Y-72695750D01*
X118453858Y-72695750D02*
X118525286Y-72731464D01*
X118525286Y-72731464D02*
X118739572Y-72731464D01*
X118739572Y-72731464D02*
X118811000Y-72695750D01*
X118811000Y-72695750D02*
X118846715Y-72660035D01*
X118061000Y-72660035D02*
X118025286Y-72695750D01*
X118025286Y-72695750D02*
X118061000Y-72731464D01*
X118061000Y-72731464D02*
X118096714Y-72695750D01*
X118096714Y-72695750D02*
X118061000Y-72660035D01*
X118061000Y-72660035D02*
X118061000Y-72731464D01*
X117775286Y-71981464D02*
X117311000Y-71981464D01*
X117311000Y-71981464D02*
X117561000Y-72267178D01*
X117561000Y-72267178D02*
X117453857Y-72267178D01*
X117453857Y-72267178D02*
X117382429Y-72302892D01*
X117382429Y-72302892D02*
X117346714Y-72338607D01*
X117346714Y-72338607D02*
X117311000Y-72410035D01*
X117311000Y-72410035D02*
X117311000Y-72588607D01*
X117311000Y-72588607D02*
X117346714Y-72660035D01*
X117346714Y-72660035D02*
X117382429Y-72695750D01*
X117382429Y-72695750D02*
X117453857Y-72731464D01*
X117453857Y-72731464D02*
X117668143Y-72731464D01*
X117668143Y-72731464D02*
X117739571Y-72695750D01*
X117739571Y-72695750D02*
X117775286Y-72660035D01*
X117096714Y-71981464D02*
X116846714Y-72731464D01*
X116846714Y-72731464D02*
X116596714Y-71981464D01*
X115810999Y-72695750D02*
X115703857Y-72731464D01*
X115703857Y-72731464D02*
X115525285Y-72731464D01*
X115525285Y-72731464D02*
X115453857Y-72695750D01*
X115453857Y-72695750D02*
X115418142Y-72660035D01*
X115418142Y-72660035D02*
X115382428Y-72588607D01*
X115382428Y-72588607D02*
X115382428Y-72517178D01*
X115382428Y-72517178D02*
X115418142Y-72445750D01*
X115418142Y-72445750D02*
X115453857Y-72410035D01*
X115453857Y-72410035D02*
X115525285Y-72374321D01*
X115525285Y-72374321D02*
X115668142Y-72338607D01*
X115668142Y-72338607D02*
X115739571Y-72302892D01*
X115739571Y-72302892D02*
X115775285Y-72267178D01*
X115775285Y-72267178D02*
X115810999Y-72195750D01*
X115810999Y-72195750D02*
X115810999Y-72124321D01*
X115810999Y-72124321D02*
X115775285Y-72052892D01*
X115775285Y-72052892D02*
X115739571Y-72017178D01*
X115739571Y-72017178D02*
X115668142Y-71981464D01*
X115668142Y-71981464D02*
X115489571Y-71981464D01*
X115489571Y-71981464D02*
X115382428Y-72017178D01*
X115132428Y-71981464D02*
X114953856Y-72731464D01*
X114953856Y-72731464D02*
X114810999Y-72195750D01*
X114810999Y-72195750D02*
X114668142Y-72731464D01*
X114668142Y-72731464D02*
X114489571Y-71981464D01*
X114203856Y-72731464D02*
X114203856Y-71981464D01*
X114203856Y-71981464D02*
X114025285Y-71981464D01*
X114025285Y-71981464D02*
X113918142Y-72017178D01*
X113918142Y-72017178D02*
X113846713Y-72088607D01*
X113846713Y-72088607D02*
X113810999Y-72160035D01*
X113810999Y-72160035D02*
X113775285Y-72302892D01*
X113775285Y-72302892D02*
X113775285Y-72410035D01*
X113775285Y-72410035D02*
X113810999Y-72552892D01*
X113810999Y-72552892D02*
X113846713Y-72624321D01*
X113846713Y-72624321D02*
X113918142Y-72695750D01*
X113918142Y-72695750D02*
X114025285Y-72731464D01*
X114025285Y-72731464D02*
X114203856Y-72731464D01*
X113025285Y-72660035D02*
X113060999Y-72695750D01*
X113060999Y-72695750D02*
X113168142Y-72731464D01*
X113168142Y-72731464D02*
X113239570Y-72731464D01*
X113239570Y-72731464D02*
X113346713Y-72695750D01*
X113346713Y-72695750D02*
X113418142Y-72624321D01*
X113418142Y-72624321D02*
X113453856Y-72552892D01*
X113453856Y-72552892D02*
X113489570Y-72410035D01*
X113489570Y-72410035D02*
X113489570Y-72302892D01*
X113489570Y-72302892D02*
X113453856Y-72160035D01*
X113453856Y-72160035D02*
X113418142Y-72088607D01*
X113418142Y-72088607D02*
X113346713Y-72017178D01*
X113346713Y-72017178D02*
X113239570Y-71981464D01*
X113239570Y-71981464D02*
X113168142Y-71981464D01*
X113168142Y-71981464D02*
X113060999Y-72017178D01*
X113060999Y-72017178D02*
X113025285Y-72052892D01*
X112346713Y-72731464D02*
X112703856Y-72731464D01*
X112703856Y-72731464D02*
X112703856Y-71981464D01*
X112096713Y-72731464D02*
X112096713Y-71981464D01*
X111668142Y-72731464D02*
X111989570Y-72302892D01*
X111668142Y-71981464D02*
X112096713Y-72410035D01*
X110810998Y-72695750D02*
X110703856Y-72731464D01*
X110703856Y-72731464D02*
X110525284Y-72731464D01*
X110525284Y-72731464D02*
X110453856Y-72695750D01*
X110453856Y-72695750D02*
X110418141Y-72660035D01*
X110418141Y-72660035D02*
X110382427Y-72588607D01*
X110382427Y-72588607D02*
X110382427Y-72517178D01*
X110382427Y-72517178D02*
X110418141Y-72445750D01*
X110418141Y-72445750D02*
X110453856Y-72410035D01*
X110453856Y-72410035D02*
X110525284Y-72374321D01*
X110525284Y-72374321D02*
X110668141Y-72338607D01*
X110668141Y-72338607D02*
X110739570Y-72302892D01*
X110739570Y-72302892D02*
X110775284Y-72267178D01*
X110775284Y-72267178D02*
X110810998Y-72195750D01*
X110810998Y-72195750D02*
X110810998Y-72124321D01*
X110810998Y-72124321D02*
X110775284Y-72052892D01*
X110775284Y-72052892D02*
X110739570Y-72017178D01*
X110739570Y-72017178D02*
X110668141Y-71981464D01*
X110668141Y-71981464D02*
X110489570Y-71981464D01*
X110489570Y-71981464D02*
X110382427Y-72017178D01*
X110132427Y-71981464D02*
X109953855Y-72731464D01*
X109953855Y-72731464D02*
X109810998Y-72195750D01*
X109810998Y-72195750D02*
X109668141Y-72731464D01*
X109668141Y-72731464D02*
X109489570Y-71981464D01*
X109203855Y-72731464D02*
X109203855Y-71981464D01*
X109203855Y-71981464D02*
X109025284Y-71981464D01*
X109025284Y-71981464D02*
X108918141Y-72017178D01*
X108918141Y-72017178D02*
X108846712Y-72088607D01*
X108846712Y-72088607D02*
X108810998Y-72160035D01*
X108810998Y-72160035D02*
X108775284Y-72302892D01*
X108775284Y-72302892D02*
X108775284Y-72410035D01*
X108775284Y-72410035D02*
X108810998Y-72552892D01*
X108810998Y-72552892D02*
X108846712Y-72624321D01*
X108846712Y-72624321D02*
X108918141Y-72695750D01*
X108918141Y-72695750D02*
X109025284Y-72731464D01*
X109025284Y-72731464D02*
X109203855Y-72731464D01*
X108453855Y-72731464D02*
X108453855Y-71981464D01*
X107953855Y-71981464D02*
X107810998Y-71981464D01*
X107810998Y-71981464D02*
X107739569Y-72017178D01*
X107739569Y-72017178D02*
X107668141Y-72088607D01*
X107668141Y-72088607D02*
X107632426Y-72231464D01*
X107632426Y-72231464D02*
X107632426Y-72481464D01*
X107632426Y-72481464D02*
X107668141Y-72624321D01*
X107668141Y-72624321D02*
X107739569Y-72695750D01*
X107739569Y-72695750D02*
X107810998Y-72731464D01*
X107810998Y-72731464D02*
X107953855Y-72731464D01*
X107953855Y-72731464D02*
X108025284Y-72695750D01*
X108025284Y-72695750D02*
X108096712Y-72624321D01*
X108096712Y-72624321D02*
X108132426Y-72481464D01*
X108132426Y-72481464D02*
X108132426Y-72231464D01*
X108132426Y-72231464D02*
X108096712Y-72088607D01*
X108096712Y-72088607D02*
X108025284Y-72017178D01*
X108025284Y-72017178D02*
X107953855Y-71981464D01*
X114703856Y-73910750D02*
X114596714Y-73946464D01*
X114596714Y-73946464D02*
X114418142Y-73946464D01*
X114418142Y-73946464D02*
X114346714Y-73910750D01*
X114346714Y-73910750D02*
X114310999Y-73875035D01*
X114310999Y-73875035D02*
X114275285Y-73803607D01*
X114275285Y-73803607D02*
X114275285Y-73732178D01*
X114275285Y-73732178D02*
X114310999Y-73660750D01*
X114310999Y-73660750D02*
X114346714Y-73625035D01*
X114346714Y-73625035D02*
X114418142Y-73589321D01*
X114418142Y-73589321D02*
X114560999Y-73553607D01*
X114560999Y-73553607D02*
X114632428Y-73517892D01*
X114632428Y-73517892D02*
X114668142Y-73482178D01*
X114668142Y-73482178D02*
X114703856Y-73410750D01*
X114703856Y-73410750D02*
X114703856Y-73339321D01*
X114703856Y-73339321D02*
X114668142Y-73267892D01*
X114668142Y-73267892D02*
X114632428Y-73232178D01*
X114632428Y-73232178D02*
X114560999Y-73196464D01*
X114560999Y-73196464D02*
X114382428Y-73196464D01*
X114382428Y-73196464D02*
X114275285Y-73232178D01*
X114025285Y-73196464D02*
X113846713Y-73946464D01*
X113846713Y-73946464D02*
X113703856Y-73410750D01*
X113703856Y-73410750D02*
X113560999Y-73946464D01*
X113560999Y-73946464D02*
X113382428Y-73196464D01*
X113096713Y-73946464D02*
X113096713Y-73196464D01*
X113096713Y-73196464D02*
X112918142Y-73196464D01*
X112918142Y-73196464D02*
X112810999Y-73232178D01*
X112810999Y-73232178D02*
X112739570Y-73303607D01*
X112739570Y-73303607D02*
X112703856Y-73375035D01*
X112703856Y-73375035D02*
X112668142Y-73517892D01*
X112668142Y-73517892D02*
X112668142Y-73625035D01*
X112668142Y-73625035D02*
X112703856Y-73767892D01*
X112703856Y-73767892D02*
X112739570Y-73839321D01*
X112739570Y-73839321D02*
X112810999Y-73910750D01*
X112810999Y-73910750D02*
X112918142Y-73946464D01*
X112918142Y-73946464D02*
X113096713Y-73946464D01*
X105956858Y-70578892D02*
X105921144Y-70543178D01*
X105921144Y-70543178D02*
X105849716Y-70507464D01*
X105849716Y-70507464D02*
X105671144Y-70507464D01*
X105671144Y-70507464D02*
X105599716Y-70543178D01*
X105599716Y-70543178D02*
X105564001Y-70578892D01*
X105564001Y-70578892D02*
X105528287Y-70650321D01*
X105528287Y-70650321D02*
X105528287Y-70721750D01*
X105528287Y-70721750D02*
X105564001Y-70828892D01*
X105564001Y-70828892D02*
X105992573Y-71257464D01*
X105992573Y-71257464D02*
X105528287Y-71257464D01*
X105278287Y-70507464D02*
X104778287Y-70507464D01*
X104778287Y-70507464D02*
X105099715Y-71257464D01*
X103385428Y-70578892D02*
X103349714Y-70543178D01*
X103349714Y-70543178D02*
X103278286Y-70507464D01*
X103278286Y-70507464D02*
X103099714Y-70507464D01*
X103099714Y-70507464D02*
X103028286Y-70543178D01*
X103028286Y-70543178D02*
X102992571Y-70578892D01*
X102992571Y-70578892D02*
X102956857Y-70650321D01*
X102956857Y-70650321D02*
X102956857Y-70721750D01*
X102956857Y-70721750D02*
X102992571Y-70828892D01*
X102992571Y-70828892D02*
X103421143Y-71257464D01*
X103421143Y-71257464D02*
X102956857Y-71257464D01*
X102528285Y-70828892D02*
X102599714Y-70793178D01*
X102599714Y-70793178D02*
X102635428Y-70757464D01*
X102635428Y-70757464D02*
X102671142Y-70686035D01*
X102671142Y-70686035D02*
X102671142Y-70650321D01*
X102671142Y-70650321D02*
X102635428Y-70578892D01*
X102635428Y-70578892D02*
X102599714Y-70543178D01*
X102599714Y-70543178D02*
X102528285Y-70507464D01*
X102528285Y-70507464D02*
X102385428Y-70507464D01*
X102385428Y-70507464D02*
X102314000Y-70543178D01*
X102314000Y-70543178D02*
X102278285Y-70578892D01*
X102278285Y-70578892D02*
X102242571Y-70650321D01*
X102242571Y-70650321D02*
X102242571Y-70686035D01*
X102242571Y-70686035D02*
X102278285Y-70757464D01*
X102278285Y-70757464D02*
X102314000Y-70793178D01*
X102314000Y-70793178D02*
X102385428Y-70828892D01*
X102385428Y-70828892D02*
X102528285Y-70828892D01*
X102528285Y-70828892D02*
X102599714Y-70864607D01*
X102599714Y-70864607D02*
X102635428Y-70900321D01*
X102635428Y-70900321D02*
X102671142Y-70971750D01*
X102671142Y-70971750D02*
X102671142Y-71114607D01*
X102671142Y-71114607D02*
X102635428Y-71186035D01*
X102635428Y-71186035D02*
X102599714Y-71221750D01*
X102599714Y-71221750D02*
X102528285Y-71257464D01*
X102528285Y-71257464D02*
X102385428Y-71257464D01*
X102385428Y-71257464D02*
X102314000Y-71221750D01*
X102314000Y-71221750D02*
X102278285Y-71186035D01*
X102278285Y-71186035D02*
X102242571Y-71114607D01*
X102242571Y-71114607D02*
X102242571Y-70971750D01*
X102242571Y-70971750D02*
X102278285Y-70900321D01*
X102278285Y-70900321D02*
X102314000Y-70864607D01*
X102314000Y-70864607D02*
X102385428Y-70828892D01*
X100813998Y-70578892D02*
X100778284Y-70543178D01*
X100778284Y-70543178D02*
X100706856Y-70507464D01*
X100706856Y-70507464D02*
X100528284Y-70507464D01*
X100528284Y-70507464D02*
X100456856Y-70543178D01*
X100456856Y-70543178D02*
X100421141Y-70578892D01*
X100421141Y-70578892D02*
X100385427Y-70650321D01*
X100385427Y-70650321D02*
X100385427Y-70721750D01*
X100385427Y-70721750D02*
X100421141Y-70828892D01*
X100421141Y-70828892D02*
X100849713Y-71257464D01*
X100849713Y-71257464D02*
X100385427Y-71257464D01*
X100028284Y-71257464D02*
X99885427Y-71257464D01*
X99885427Y-71257464D02*
X99813998Y-71221750D01*
X99813998Y-71221750D02*
X99778284Y-71186035D01*
X99778284Y-71186035D02*
X99706855Y-71078892D01*
X99706855Y-71078892D02*
X99671141Y-70936035D01*
X99671141Y-70936035D02*
X99671141Y-70650321D01*
X99671141Y-70650321D02*
X99706855Y-70578892D01*
X99706855Y-70578892D02*
X99742570Y-70543178D01*
X99742570Y-70543178D02*
X99813998Y-70507464D01*
X99813998Y-70507464D02*
X99956855Y-70507464D01*
X99956855Y-70507464D02*
X100028284Y-70543178D01*
X100028284Y-70543178D02*
X100063998Y-70578892D01*
X100063998Y-70578892D02*
X100099712Y-70650321D01*
X100099712Y-70650321D02*
X100099712Y-70828892D01*
X100099712Y-70828892D02*
X100063998Y-70900321D01*
X100063998Y-70900321D02*
X100028284Y-70936035D01*
X100028284Y-70936035D02*
X99956855Y-70971750D01*
X99956855Y-70971750D02*
X99813998Y-70971750D01*
X99813998Y-70971750D02*
X99742570Y-70936035D01*
X99742570Y-70936035D02*
X99706855Y-70900321D01*
X99706855Y-70900321D02*
X99671141Y-70828892D01*
X103563999Y-71758178D02*
X103635428Y-71722464D01*
X103635428Y-71722464D02*
X103742570Y-71722464D01*
X103742570Y-71722464D02*
X103849713Y-71758178D01*
X103849713Y-71758178D02*
X103921142Y-71829607D01*
X103921142Y-71829607D02*
X103956856Y-71901035D01*
X103956856Y-71901035D02*
X103992570Y-72043892D01*
X103992570Y-72043892D02*
X103992570Y-72151035D01*
X103992570Y-72151035D02*
X103956856Y-72293892D01*
X103956856Y-72293892D02*
X103921142Y-72365321D01*
X103921142Y-72365321D02*
X103849713Y-72436750D01*
X103849713Y-72436750D02*
X103742570Y-72472464D01*
X103742570Y-72472464D02*
X103671142Y-72472464D01*
X103671142Y-72472464D02*
X103563999Y-72436750D01*
X103563999Y-72436750D02*
X103528285Y-72401035D01*
X103528285Y-72401035D02*
X103528285Y-72151035D01*
X103528285Y-72151035D02*
X103671142Y-72151035D01*
X103206856Y-72472464D02*
X103206856Y-71722464D01*
X103206856Y-71722464D02*
X102921142Y-71722464D01*
X102921142Y-71722464D02*
X102849713Y-71758178D01*
X102849713Y-71758178D02*
X102813999Y-71793892D01*
X102813999Y-71793892D02*
X102778285Y-71865321D01*
X102778285Y-71865321D02*
X102778285Y-71972464D01*
X102778285Y-71972464D02*
X102813999Y-72043892D01*
X102813999Y-72043892D02*
X102849713Y-72079607D01*
X102849713Y-72079607D02*
X102921142Y-72115321D01*
X102921142Y-72115321D02*
X103206856Y-72115321D01*
X102456856Y-72472464D02*
X102456856Y-71722464D01*
X101956856Y-71722464D02*
X101813999Y-71722464D01*
X101813999Y-71722464D02*
X101742570Y-71758178D01*
X101742570Y-71758178D02*
X101671142Y-71829607D01*
X101671142Y-71829607D02*
X101635427Y-71972464D01*
X101635427Y-71972464D02*
X101635427Y-72222464D01*
X101635427Y-72222464D02*
X101671142Y-72365321D01*
X101671142Y-72365321D02*
X101742570Y-72436750D01*
X101742570Y-72436750D02*
X101813999Y-72472464D01*
X101813999Y-72472464D02*
X101956856Y-72472464D01*
X101956856Y-72472464D02*
X102028285Y-72436750D01*
X102028285Y-72436750D02*
X102099713Y-72365321D01*
X102099713Y-72365321D02*
X102135427Y-72222464D01*
X102135427Y-72222464D02*
X102135427Y-71972464D01*
X102135427Y-71972464D02*
X102099713Y-71829607D01*
X102099713Y-71829607D02*
X102028285Y-71758178D01*
X102028285Y-71758178D02*
X101956856Y-71722464D01*
D14*
X129980284Y-67747928D02*
X130480284Y-67033642D01*
X130837427Y-67747928D02*
X130837427Y-66247928D01*
X130837427Y-66247928D02*
X130265998Y-66247928D01*
X130265998Y-66247928D02*
X130123141Y-66319357D01*
X130123141Y-66319357D02*
X130051712Y-66390785D01*
X130051712Y-66390785D02*
X129980284Y-66533642D01*
X129980284Y-66533642D02*
X129980284Y-66747928D01*
X129980284Y-66747928D02*
X130051712Y-66890785D01*
X130051712Y-66890785D02*
X130123141Y-66962214D01*
X130123141Y-66962214D02*
X130265998Y-67033642D01*
X130265998Y-67033642D02*
X130837427Y-67033642D01*
X129337427Y-67747928D02*
X129337427Y-66247928D01*
X129337427Y-66247928D02*
X128765998Y-66247928D01*
X128765998Y-66247928D02*
X128623141Y-66319357D01*
X128623141Y-66319357D02*
X128551712Y-66390785D01*
X128551712Y-66390785D02*
X128480284Y-66533642D01*
X128480284Y-66533642D02*
X128480284Y-66747928D01*
X128480284Y-66747928D02*
X128551712Y-66890785D01*
X128551712Y-66890785D02*
X128623141Y-66962214D01*
X128623141Y-66962214D02*
X128765998Y-67033642D01*
X128765998Y-67033642D02*
X129337427Y-67033642D01*
X127908855Y-66390785D02*
X127837427Y-66319357D01*
X127837427Y-66319357D02*
X127694570Y-66247928D01*
X127694570Y-66247928D02*
X127337427Y-66247928D01*
X127337427Y-66247928D02*
X127194570Y-66319357D01*
X127194570Y-66319357D02*
X127123141Y-66390785D01*
X127123141Y-66390785D02*
X127051712Y-66533642D01*
X127051712Y-66533642D02*
X127051712Y-66676500D01*
X127051712Y-66676500D02*
X127123141Y-66890785D01*
X127123141Y-66890785D02*
X127980284Y-67747928D01*
X127980284Y-67747928D02*
X127051712Y-67747928D01*
X126123141Y-66247928D02*
X125980284Y-66247928D01*
X125980284Y-66247928D02*
X125837427Y-66319357D01*
X125837427Y-66319357D02*
X125765999Y-66390785D01*
X125765999Y-66390785D02*
X125694570Y-66533642D01*
X125694570Y-66533642D02*
X125623141Y-66819357D01*
X125623141Y-66819357D02*
X125623141Y-67176500D01*
X125623141Y-67176500D02*
X125694570Y-67462214D01*
X125694570Y-67462214D02*
X125765999Y-67605071D01*
X125765999Y-67605071D02*
X125837427Y-67676500D01*
X125837427Y-67676500D02*
X125980284Y-67747928D01*
X125980284Y-67747928D02*
X126123141Y-67747928D01*
X126123141Y-67747928D02*
X126265999Y-67676500D01*
X126265999Y-67676500D02*
X126337427Y-67605071D01*
X126337427Y-67605071D02*
X126408856Y-67462214D01*
X126408856Y-67462214D02*
X126480284Y-67176500D01*
X126480284Y-67176500D02*
X126480284Y-66819357D01*
X126480284Y-66819357D02*
X126408856Y-66533642D01*
X126408856Y-66533642D02*
X126337427Y-66390785D01*
X126337427Y-66390785D02*
X126265999Y-66319357D01*
X126265999Y-66319357D02*
X126123141Y-66247928D01*
X124337428Y-66747928D02*
X124337428Y-67747928D01*
X124694570Y-66176500D02*
X125051713Y-67247928D01*
X125051713Y-67247928D02*
X124123142Y-67247928D01*
X123265999Y-66247928D02*
X123123142Y-66247928D01*
X123123142Y-66247928D02*
X122980285Y-66319357D01*
X122980285Y-66319357D02*
X122908857Y-66390785D01*
X122908857Y-66390785D02*
X122837428Y-66533642D01*
X122837428Y-66533642D02*
X122765999Y-66819357D01*
X122765999Y-66819357D02*
X122765999Y-67176500D01*
X122765999Y-67176500D02*
X122837428Y-67462214D01*
X122837428Y-67462214D02*
X122908857Y-67605071D01*
X122908857Y-67605071D02*
X122980285Y-67676500D01*
X122980285Y-67676500D02*
X123123142Y-67747928D01*
X123123142Y-67747928D02*
X123265999Y-67747928D01*
X123265999Y-67747928D02*
X123408857Y-67676500D01*
X123408857Y-67676500D02*
X123480285Y-67605071D01*
X123480285Y-67605071D02*
X123551714Y-67462214D01*
X123551714Y-67462214D02*
X123623142Y-67176500D01*
X123623142Y-67176500D02*
X123623142Y-66819357D01*
X123623142Y-66819357D02*
X123551714Y-66533642D01*
X123551714Y-66533642D02*
X123480285Y-66390785D01*
X123480285Y-66390785D02*
X123408857Y-66319357D01*
X123408857Y-66319357D02*
X123265999Y-66247928D01*
X132444570Y-68677928D02*
X131944570Y-70177928D01*
X131944570Y-70177928D02*
X131444570Y-68677928D01*
X130658856Y-68677928D02*
X130515999Y-68677928D01*
X130515999Y-68677928D02*
X130373142Y-68749357D01*
X130373142Y-68749357D02*
X130301714Y-68820785D01*
X130301714Y-68820785D02*
X130230285Y-68963642D01*
X130230285Y-68963642D02*
X130158856Y-69249357D01*
X130158856Y-69249357D02*
X130158856Y-69606500D01*
X130158856Y-69606500D02*
X130230285Y-69892214D01*
X130230285Y-69892214D02*
X130301714Y-70035071D01*
X130301714Y-70035071D02*
X130373142Y-70106500D01*
X130373142Y-70106500D02*
X130515999Y-70177928D01*
X130515999Y-70177928D02*
X130658856Y-70177928D01*
X130658856Y-70177928D02*
X130801714Y-70106500D01*
X130801714Y-70106500D02*
X130873142Y-70035071D01*
X130873142Y-70035071D02*
X130944571Y-69892214D01*
X130944571Y-69892214D02*
X131015999Y-69606500D01*
X131015999Y-69606500D02*
X131015999Y-69249357D01*
X131015999Y-69249357D02*
X130944571Y-68963642D01*
X130944571Y-68963642D02*
X130873142Y-68820785D01*
X130873142Y-68820785D02*
X130801714Y-68749357D01*
X130801714Y-68749357D02*
X130658856Y-68677928D01*
X129516000Y-69606500D02*
X128373143Y-69606500D01*
X127658857Y-70177928D02*
X127658857Y-68677928D01*
X127658857Y-68677928D02*
X127301714Y-68677928D01*
X127301714Y-68677928D02*
X127087428Y-68749357D01*
X127087428Y-68749357D02*
X126944571Y-68892214D01*
X126944571Y-68892214D02*
X126873142Y-69035071D01*
X126873142Y-69035071D02*
X126801714Y-69320785D01*
X126801714Y-69320785D02*
X126801714Y-69535071D01*
X126801714Y-69535071D02*
X126873142Y-69820785D01*
X126873142Y-69820785D02*
X126944571Y-69963642D01*
X126944571Y-69963642D02*
X127087428Y-70106500D01*
X127087428Y-70106500D02*
X127301714Y-70177928D01*
X127301714Y-70177928D02*
X127658857Y-70177928D01*
X126158857Y-70177928D02*
X126158857Y-69177928D01*
X126158857Y-68677928D02*
X126230285Y-68749357D01*
X126230285Y-68749357D02*
X126158857Y-68820785D01*
X126158857Y-68820785D02*
X126087428Y-68749357D01*
X126087428Y-68749357D02*
X126158857Y-68677928D01*
X126158857Y-68677928D02*
X126158857Y-68820785D01*
X125515999Y-70106500D02*
X125373142Y-70177928D01*
X125373142Y-70177928D02*
X125087428Y-70177928D01*
X125087428Y-70177928D02*
X124944571Y-70106500D01*
X124944571Y-70106500D02*
X124873142Y-69963642D01*
X124873142Y-69963642D02*
X124873142Y-69892214D01*
X124873142Y-69892214D02*
X124944571Y-69749357D01*
X124944571Y-69749357D02*
X125087428Y-69677928D01*
X125087428Y-69677928D02*
X125301714Y-69677928D01*
X125301714Y-69677928D02*
X125444571Y-69606500D01*
X125444571Y-69606500D02*
X125515999Y-69463642D01*
X125515999Y-69463642D02*
X125515999Y-69392214D01*
X125515999Y-69392214D02*
X125444571Y-69249357D01*
X125444571Y-69249357D02*
X125301714Y-69177928D01*
X125301714Y-69177928D02*
X125087428Y-69177928D01*
X125087428Y-69177928D02*
X124944571Y-69249357D01*
X124230285Y-69177928D02*
X124230285Y-70677928D01*
X124230285Y-69249357D02*
X124087428Y-69177928D01*
X124087428Y-69177928D02*
X123801713Y-69177928D01*
X123801713Y-69177928D02*
X123658856Y-69249357D01*
X123658856Y-69249357D02*
X123587428Y-69320785D01*
X123587428Y-69320785D02*
X123515999Y-69463642D01*
X123515999Y-69463642D02*
X123515999Y-69892214D01*
X123515999Y-69892214D02*
X123587428Y-70035071D01*
X123587428Y-70035071D02*
X123658856Y-70106500D01*
X123658856Y-70106500D02*
X123801713Y-70177928D01*
X123801713Y-70177928D02*
X124087428Y-70177928D01*
X124087428Y-70177928D02*
X124230285Y-70106500D01*
X122658856Y-70177928D02*
X122801713Y-70106500D01*
X122801713Y-70106500D02*
X122873142Y-69963642D01*
X122873142Y-69963642D02*
X122873142Y-68677928D01*
X121444571Y-70177928D02*
X121444571Y-69392214D01*
X121444571Y-69392214D02*
X121515999Y-69249357D01*
X121515999Y-69249357D02*
X121658856Y-69177928D01*
X121658856Y-69177928D02*
X121944571Y-69177928D01*
X121944571Y-69177928D02*
X122087428Y-69249357D01*
X121444571Y-70106500D02*
X121587428Y-70177928D01*
X121587428Y-70177928D02*
X121944571Y-70177928D01*
X121944571Y-70177928D02*
X122087428Y-70106500D01*
X122087428Y-70106500D02*
X122158856Y-69963642D01*
X122158856Y-69963642D02*
X122158856Y-69820785D01*
X122158856Y-69820785D02*
X122087428Y-69677928D01*
X122087428Y-69677928D02*
X121944571Y-69606500D01*
X121944571Y-69606500D02*
X121587428Y-69606500D01*
X121587428Y-69606500D02*
X121444571Y-69535071D01*
X120873142Y-69177928D02*
X120515999Y-70177928D01*
X120158856Y-69177928D02*
X120515999Y-70177928D01*
X120515999Y-70177928D02*
X120658856Y-70535071D01*
X120658856Y-70535071D02*
X120730285Y-70606500D01*
X120730285Y-70606500D02*
X120873142Y-70677928D01*
X127480284Y-71107928D02*
X126980284Y-72607928D01*
X126980284Y-72607928D02*
X126480284Y-71107928D01*
X125194570Y-72607928D02*
X126051713Y-72607928D01*
X125623142Y-72607928D02*
X125623142Y-71107928D01*
X125623142Y-71107928D02*
X125765999Y-71322214D01*
X125765999Y-71322214D02*
X125908856Y-71465071D01*
X125908856Y-71465071D02*
X126051713Y-71536500D01*
D12*
X155104619Y-54138095D02*
X155914142Y-54138095D01*
X155914142Y-54138095D02*
X156009380Y-54185714D01*
X156009380Y-54185714D02*
X156057000Y-54233333D01*
X156057000Y-54233333D02*
X156104619Y-54328571D01*
X156104619Y-54328571D02*
X156104619Y-54519047D01*
X156104619Y-54519047D02*
X156057000Y-54614285D01*
X156057000Y-54614285D02*
X156009380Y-54661904D01*
X156009380Y-54661904D02*
X155914142Y-54709523D01*
X155914142Y-54709523D02*
X155104619Y-54709523D01*
X155104619Y-55090476D02*
X155104619Y-55709523D01*
X155104619Y-55709523D02*
X155485571Y-55376190D01*
X155485571Y-55376190D02*
X155485571Y-55519047D01*
X155485571Y-55519047D02*
X155533190Y-55614285D01*
X155533190Y-55614285D02*
X155580809Y-55661904D01*
X155580809Y-55661904D02*
X155676047Y-55709523D01*
X155676047Y-55709523D02*
X155914142Y-55709523D01*
X155914142Y-55709523D02*
X156009380Y-55661904D01*
X156009380Y-55661904D02*
X156057000Y-55614285D01*
X156057000Y-55614285D02*
X156104619Y-55519047D01*
X156104619Y-55519047D02*
X156104619Y-55233333D01*
X156104619Y-55233333D02*
X156057000Y-55138095D01*
X156057000Y-55138095D02*
X156009380Y-55090476D01*
D10*
X117364000Y-68868000D02*
X117364000Y-71528000D01*
X112224000Y-68868000D02*
X117364000Y-68868000D01*
X112224000Y-68868000D02*
X112224000Y-71528000D01*
X110954000Y-68868000D02*
X109624000Y-68868000D01*
X109624000Y-68868000D02*
X109624000Y-70198000D01*
X112224000Y-71528000D02*
X117364000Y-71528000D01*
X151682000Y-54900000D02*
X151682000Y-55700000D01*
X151682000Y-54900000D02*
X151682000Y-54100000D01*
X154802000Y-54900000D02*
X154802000Y-56700000D01*
X154802000Y-54900000D02*
X154802000Y-54100000D01*
X98894000Y-70258000D02*
X98894000Y-67598000D01*
X104034000Y-70258000D02*
X98894000Y-70258000D01*
X104034000Y-70258000D02*
X104034000Y-67598000D01*
X105304000Y-70258000D02*
X106634000Y-70258000D01*
X106634000Y-70258000D02*
X106634000Y-68928000D01*
X104034000Y-67598000D02*
X98894000Y-67598000D01*
X149245000Y-61775000D02*
X149245000Y-59115000D01*
X151845000Y-61775000D02*
X149245000Y-61775000D01*
X151845000Y-61775000D02*
X151845000Y-59115000D01*
X153115000Y-61775000D02*
X154445000Y-61775000D01*
X154445000Y-61775000D02*
X154445000Y-60445000D01*
X151845000Y-59115000D02*
X149245000Y-59115000D01*
X105000000Y-58270000D02*
X105000000Y-56270000D01*
X105000000Y-56270000D02*
X100900000Y-56270000D01*
X104550000Y-58770000D02*
X103950000Y-58770000D01*
X104250000Y-58470000D02*
X104550000Y-58770000D01*
X104250000Y-58470000D02*
X103950000Y-58770000D01*
X100900000Y-58270000D02*
X105000000Y-58270000D01*
X100900000Y-56270000D02*
X100900000Y-58270000D01*
X100900000Y-53730000D02*
X100900000Y-55730000D01*
X100900000Y-55730000D02*
X105000000Y-55730000D01*
X101350000Y-53230000D02*
X101950000Y-53230000D01*
X101650000Y-53530000D02*
X101350000Y-53230000D01*
X101650000Y-53530000D02*
X101950000Y-53230000D01*
X105000000Y-53730000D02*
X100900000Y-53730000D01*
X105000000Y-55730000D02*
X105000000Y-53730000D01*
X95084000Y-61756000D02*
X97744000Y-61756000D01*
X95084000Y-69436000D02*
X95084000Y-61756000D01*
X95084000Y-69436000D02*
X97744000Y-69436000D01*
X95084000Y-70706000D02*
X95084000Y-72036000D01*
X95084000Y-72036000D02*
X96414000Y-72036000D01*
X97744000Y-69436000D02*
X97744000Y-61756000D01*
X129944000Y-55312420D02*
X129944000Y-55593580D01*
X128924000Y-55312420D02*
X128924000Y-55593580D01*
X104810580Y-60360000D02*
X104529420Y-60360000D01*
X104810580Y-59340000D02*
X104529420Y-59340000D01*
X121260580Y-61360000D02*
X120979420Y-61360000D01*
X121260580Y-60340000D02*
X120979420Y-60340000D01*
X107742000Y-74910580D02*
X107742000Y-74629420D01*
X108762000Y-74910580D02*
X108762000Y-74629420D01*
X95082742Y-60027500D02*
X95557258Y-60027500D01*
X95082742Y-61072500D02*
X95557258Y-61072500D01*
X120879420Y-54740000D02*
X121160580Y-54740000D01*
X120879420Y-55760000D02*
X121160580Y-55760000D01*
X129956500Y-58315742D02*
X129956500Y-58790258D01*
X128911500Y-58315742D02*
X128911500Y-58790258D01*
X95557258Y-73772500D02*
X95082742Y-73772500D01*
X95557258Y-72727500D02*
X95082742Y-72727500D01*
D15*
X104624000Y-72426000D02*
X100904000Y-72426000D01*
X104624000Y-72426000D02*
X104624000Y-72686000D01*
X100904000Y-74026000D02*
X100904000Y-72426000D01*
X104624000Y-78896000D02*
X104624000Y-79146000D01*
X104624000Y-79146000D02*
X100904000Y-79146000D01*
X100904000Y-79146000D02*
X100904000Y-77656000D01*
D14*
X107237000Y-73496000D02*
G75*
G03*
X107237000Y-73496000I-100000J0D01*
G01*
D10*
X109410000Y-74910580D02*
X109410000Y-74629420D01*
X110430000Y-74910580D02*
X110430000Y-74629420D01*
X128196000Y-53930000D02*
X124576000Y-53930000D01*
X124576000Y-53930000D02*
X124576000Y-60050000D01*
X128196000Y-60050000D02*
X128196000Y-53930000D01*
X124576000Y-60050000D02*
X128196000Y-60050000D01*
X105157258Y-63372500D02*
X104682742Y-63372500D01*
X105157258Y-62327500D02*
X104682742Y-62327500D01*
X106808037Y-63516746D02*
X106948617Y-63273254D01*
X107691383Y-64026746D02*
X107831963Y-63783254D01*
X85009000Y-71730000D02*
X86714000Y-71730000D01*
X90644000Y-71730000D02*
X88724000Y-71730000D01*
X85009000Y-62570000D02*
X85009000Y-71730000D01*
X86714000Y-62570000D02*
X85009000Y-62570000D01*
X88724000Y-62570000D02*
X90644000Y-62570000D01*
X118920000Y-56300000D02*
X123120000Y-56300000D01*
X118920000Y-59800000D02*
X118920000Y-56300000D01*
X113956742Y-66875500D02*
X114431258Y-66875500D01*
X113956742Y-67920500D02*
X114431258Y-67920500D01*
X104682742Y-60827500D02*
X105157258Y-60827500D01*
X104682742Y-61872500D02*
X105157258Y-61872500D01*
X117004000Y-56644000D02*
X116354000Y-56644000D01*
X117004000Y-57294000D02*
X117004000Y-56644000D01*
X109784000Y-57294000D02*
X109784000Y-56644000D01*
X117004000Y-63214000D02*
X117004000Y-63864000D01*
X109784000Y-63214000D02*
X109784000Y-63864000D01*
X117004000Y-63864000D02*
X116354000Y-63864000D01*
X109784000Y-63864000D02*
X110434000Y-63864000D01*
M02*
