G04 #@! TF.GenerationSoftware,KiCad,Pcbnew,7.0.1*
G04 #@! TF.CreationDate,2023-03-22T01:49:52-05:00*
G04 #@! TF.ProjectId,V0_Display,56305f44-6973-4706-9c61-792e6b696361,rev?*
G04 #@! TF.SameCoordinates,Original*
G04 #@! TF.FileFunction,Soldermask,Bot*
G04 #@! TF.FilePolarity,Negative*
%FSLAX46Y46*%
G04 Gerber Fmt 4.6, Leading zero omitted, Abs format (unit mm)*
G04 Created by KiCad (PCBNEW 7.0.1) date 2023-03-22 01:49:52*
%MOMM*%
%LPD*%
G01*
G04 APERTURE LIST*
G04 Aperture macros list*
%AMRoundRect*
0 Rectangle with rounded corners*
0 $1 Rounding radius*
0 $2 $3 $4 $5 $6 $7 $8 $9 X,Y pos of 4 corners*
0 Add a 4 corners polygon primitive as box body*
4,1,4,$2,$3,$4,$5,$6,$7,$8,$9,$2,$3,0*
0 Add four circle primitives for the rounded corners*
1,1,$1+$1,$2,$3*
1,1,$1+$1,$4,$5*
1,1,$1+$1,$6,$7*
1,1,$1+$1,$8,$9*
0 Add four rect primitives between the rounded corners*
20,1,$1+$1,$2,$3,$4,$5,0*
20,1,$1+$1,$4,$5,$6,$7,0*
20,1,$1+$1,$6,$7,$8,$9,0*
20,1,$1+$1,$8,$9,$2,$3,0*%
G04 Aperture macros list end*
%ADD10C,3.200000*%
%ADD11C,2.000000*%
%ADD12O,2.500000X4.000000*%
%ADD13C,1.524000*%
%ADD14R,1.700000X1.700000*%
%ADD15O,1.700000X1.700000*%
%ADD16RoundRect,0.150000X0.150000X-0.512500X0.150000X0.512500X-0.150000X0.512500X-0.150000X-0.512500X0*%
%ADD17R,1.000000X1.500000*%
%ADD18RoundRect,0.225000X-0.250000X0.225000X-0.250000X-0.225000X0.250000X-0.225000X0.250000X0.225000X0*%
%ADD19RoundRect,0.225000X0.225000X0.250000X-0.225000X0.250000X-0.225000X-0.250000X0.225000X-0.250000X0*%
%ADD20RoundRect,0.225000X0.250000X-0.225000X0.250000X0.225000X-0.250000X0.225000X-0.250000X-0.225000X0*%
%ADD21RoundRect,0.200000X-0.200000X-0.275000X0.200000X-0.275000X0.200000X0.275000X-0.200000X0.275000X0*%
%ADD22RoundRect,0.225000X-0.225000X-0.250000X0.225000X-0.250000X0.225000X0.250000X-0.225000X0.250000X0*%
%ADD23RoundRect,0.200000X-0.275000X0.200000X-0.275000X-0.200000X0.275000X-0.200000X0.275000X0.200000X0*%
%ADD24RoundRect,0.200000X0.200000X0.275000X-0.200000X0.275000X-0.200000X-0.275000X0.200000X-0.275000X0*%
%ADD25RoundRect,0.093000X-0.562000X0.372000X-0.562000X-0.372000X0.562000X-0.372000X0.562000X0.372000X0*%
%ADD26RoundRect,0.131000X-0.524000X1.489000X-0.524000X-1.489000X0.524000X-1.489000X0.524000X1.489000X0*%
%ADD27R,1.600000X2.000000*%
%ADD28RoundRect,0.225000X0.104006X-0.319856X0.329006X0.069856X-0.104006X0.319856X-0.329006X-0.069856X0*%
%ADD29C,0.650000*%
%ADD30R,1.240000X0.600000*%
%ADD31R,1.240000X0.300000*%
%ADD32O,1.800000X1.000000*%
%ADD33O,2.100000X1.000000*%
%ADD34R,1.400000X1.200000*%
%ADD35R,0.300000X0.900000*%
%ADD36R,1.650000X0.250000*%
%ADD37RoundRect,0.050000X-0.050000X0.387500X-0.050000X-0.387500X0.050000X-0.387500X0.050000X0.387500X0*%
%ADD38RoundRect,0.050000X-0.387500X0.050000X-0.387500X-0.050000X0.387500X-0.050000X0.387500X0.050000X0*%
%ADD39R,3.200000X3.200000*%
G04 APERTURE END LIST*
D10*
X161170000Y-80650000D03*
X161170000Y-55650000D03*
D11*
X156670000Y-69900000D03*
X163170000Y-69900000D03*
X156670000Y-74400000D03*
X163170000Y-74400000D03*
X141920000Y-74650000D03*
X146920000Y-74650000D03*
X144420000Y-74650000D03*
D12*
X139340000Y-67150000D03*
X149500000Y-67150000D03*
D11*
X141920000Y-60150000D03*
X146920000Y-60150000D03*
D10*
X89170000Y-80650000D03*
X89170000Y-55650000D03*
D13*
X109660000Y-52850000D03*
X112200000Y-52850000D03*
X114740000Y-52850000D03*
X117280000Y-52850000D03*
D14*
X110954000Y-70198000D03*
D15*
X113494000Y-70198000D03*
X116034000Y-70198000D03*
D16*
X154192000Y-56037500D03*
X153242000Y-56037500D03*
X152292000Y-56037500D03*
X152292000Y-53762500D03*
X154192000Y-53762500D03*
D14*
X105304000Y-68928000D03*
D15*
X102764000Y-68928000D03*
X100224000Y-68928000D03*
D14*
X153115000Y-60445000D03*
D15*
X150575000Y-60445000D03*
D17*
X104250000Y-57270000D03*
X102950000Y-57270000D03*
X101650000Y-57270000D03*
X101650000Y-54730000D03*
X102950000Y-54730000D03*
X104250000Y-54730000D03*
D14*
X96414000Y-70706000D03*
D15*
X96414000Y-68166000D03*
X96414000Y-65626000D03*
X96414000Y-63086000D03*
D18*
X129434000Y-54678000D03*
X129434000Y-56228000D03*
D19*
X105445000Y-59850000D03*
X103895000Y-59850000D03*
X121895000Y-60850000D03*
X120345000Y-60850000D03*
D20*
X108252000Y-75545000D03*
X108252000Y-73995000D03*
D21*
X94495000Y-60550000D03*
X96145000Y-60550000D03*
D22*
X120245000Y-55250000D03*
X121795000Y-55250000D03*
D23*
X129434000Y-57728000D03*
X129434000Y-59378000D03*
D24*
X96145000Y-73250000D03*
X94495000Y-73250000D03*
D25*
X106109000Y-73496000D03*
X106109000Y-75786000D03*
X106109000Y-78076000D03*
D26*
X99419000Y-75786000D03*
D20*
X109920000Y-75545000D03*
X109920000Y-73995000D03*
D27*
X126386000Y-52790000D03*
X126386000Y-61190000D03*
D24*
X105745000Y-62850000D03*
X104095000Y-62850000D03*
D28*
X106932500Y-64321170D03*
X107707500Y-62978830D03*
D29*
X91399000Y-70040000D03*
X91399000Y-64260000D03*
D30*
X92519000Y-70350000D03*
X92519000Y-69550000D03*
D31*
X92519000Y-68400000D03*
X92519000Y-67400000D03*
X92519000Y-66900000D03*
X92519000Y-65900000D03*
D30*
X92519000Y-64750000D03*
X92519000Y-63950000D03*
X92519000Y-63950000D03*
X92519000Y-64750000D03*
D31*
X92519000Y-65400000D03*
X92519000Y-66400000D03*
X92519000Y-67900000D03*
X92519000Y-68900000D03*
D30*
X92519000Y-69550000D03*
X92519000Y-70350000D03*
D32*
X87719000Y-71470000D03*
D33*
X91919000Y-71470000D03*
D32*
X87719000Y-62830000D03*
D33*
X91919000Y-62830000D03*
D34*
X119820000Y-57100000D03*
X122220000Y-57100000D03*
X122220000Y-59000000D03*
X119820000Y-59000000D03*
D21*
X113369000Y-67398000D03*
X115019000Y-67398000D03*
D35*
X106720000Y-57050000D03*
X107220000Y-57050000D03*
X107720000Y-57050000D03*
X108220000Y-57050000D03*
X108220000Y-59850000D03*
X107720000Y-59850000D03*
X107220000Y-59850000D03*
X106720000Y-59850000D03*
D36*
X107470000Y-58450000D03*
D21*
X104095000Y-61350000D03*
X105745000Y-61350000D03*
D37*
X110794000Y-56816500D03*
X111194000Y-56816500D03*
X111594000Y-56816500D03*
X111994000Y-56816500D03*
X112394000Y-56816500D03*
X112794000Y-56816500D03*
X113194000Y-56816500D03*
X113594000Y-56816500D03*
X113994000Y-56816500D03*
X114394000Y-56816500D03*
X114794000Y-56816500D03*
X115194000Y-56816500D03*
X115594000Y-56816500D03*
X115994000Y-56816500D03*
D38*
X116831500Y-57654000D03*
X116831500Y-58054000D03*
X116831500Y-58454000D03*
X116831500Y-58854000D03*
X116831500Y-59254000D03*
X116831500Y-59654000D03*
X116831500Y-60054000D03*
X116831500Y-60454000D03*
X116831500Y-60854000D03*
X116831500Y-61254000D03*
X116831500Y-61654000D03*
X116831500Y-62054000D03*
X116831500Y-62454000D03*
X116831500Y-62854000D03*
D37*
X115994000Y-63691500D03*
X115594000Y-63691500D03*
X115194000Y-63691500D03*
X114794000Y-63691500D03*
X114394000Y-63691500D03*
X113994000Y-63691500D03*
X113594000Y-63691500D03*
X113194000Y-63691500D03*
X112794000Y-63691500D03*
X112394000Y-63691500D03*
X111994000Y-63691500D03*
X111594000Y-63691500D03*
X111194000Y-63691500D03*
X110794000Y-63691500D03*
D38*
X109956500Y-62854000D03*
X109956500Y-62454000D03*
X109956500Y-62054000D03*
X109956500Y-61654000D03*
X109956500Y-61254000D03*
X109956500Y-60854000D03*
X109956500Y-60454000D03*
X109956500Y-60054000D03*
X109956500Y-59654000D03*
X109956500Y-59254000D03*
X109956500Y-58854000D03*
X109956500Y-58454000D03*
X109956500Y-58054000D03*
X109956500Y-57654000D03*
D39*
X113394000Y-60254000D03*
M02*
