G04 #@! TF.GenerationSoftware,KiCad,Pcbnew,(7.0.0)*
G04 #@! TF.CreationDate,2023-03-04T11:40:14-06:00*
G04 #@! TF.ProjectId,V0_Display,56305f44-6973-4706-9c61-792e6b696361,rev?*
G04 #@! TF.SameCoordinates,Original*
G04 #@! TF.FileFunction,Copper,L1,Top*
G04 #@! TF.FilePolarity,Positive*
%FSLAX46Y46*%
G04 Gerber Fmt 4.6, Leading zero omitted, Abs format (unit mm)*
G04 Created by KiCad (PCBNEW (7.0.0)) date 2023-03-04 11:40:14*
%MOMM*%
%LPD*%
G01*
G04 APERTURE LIST*
G04 Aperture macros list*
%AMRoundRect*
0 Rectangle with rounded corners*
0 $1 Rounding radius*
0 $2 $3 $4 $5 $6 $7 $8 $9 X,Y pos of 4 corners*
0 Add a 4 corners polygon primitive as box body*
4,1,4,$2,$3,$4,$5,$6,$7,$8,$9,$2,$3,0*
0 Add four circle primitives for the rounded corners*
1,1,$1+$1,$2,$3*
1,1,$1+$1,$4,$5*
1,1,$1+$1,$6,$7*
1,1,$1+$1,$8,$9*
0 Add four rect primitives between the rounded corners*
20,1,$1+$1,$2,$3,$4,$5,0*
20,1,$1+$1,$4,$5,$6,$7,0*
20,1,$1+$1,$6,$7,$8,$9,0*
20,1,$1+$1,$8,$9,$2,$3,0*%
G04 Aperture macros list end*
G04 #@! TA.AperFunction,SMDPad,CuDef*
%ADD10R,1.500000X1.000000*%
G04 #@! TD*
G04 #@! TA.AperFunction,ComponentPad*
%ADD11C,2.000000*%
G04 #@! TD*
G04 #@! TA.AperFunction,ComponentPad*
%ADD12O,2.500000X4.000000*%
G04 #@! TD*
G04 #@! TA.AperFunction,ComponentPad*
%ADD13C,1.524000*%
G04 #@! TD*
G04 #@! TA.AperFunction,SMDPad,CuDef*
%ADD14RoundRect,0.200000X-0.275000X0.200000X-0.275000X-0.200000X0.275000X-0.200000X0.275000X0.200000X0*%
G04 #@! TD*
G04 #@! TA.AperFunction,SMDPad,CuDef*
%ADD15RoundRect,0.225000X-0.250000X0.225000X-0.250000X-0.225000X0.250000X-0.225000X0.250000X0.225000X0*%
G04 #@! TD*
G04 #@! TA.AperFunction,SMDPad,CuDef*
%ADD16RoundRect,0.225000X0.250000X-0.225000X0.250000X0.225000X-0.250000X0.225000X-0.250000X-0.225000X0*%
G04 #@! TD*
G04 #@! TA.AperFunction,SMDPad,CuDef*
%ADD17RoundRect,0.200000X-0.200000X-0.275000X0.200000X-0.275000X0.200000X0.275000X-0.200000X0.275000X0*%
G04 #@! TD*
G04 #@! TA.AperFunction,ComponentPad*
%ADD18R,1.700000X1.700000*%
G04 #@! TD*
G04 #@! TA.AperFunction,ComponentPad*
%ADD19O,1.700000X1.700000*%
G04 #@! TD*
G04 #@! TA.AperFunction,ComponentPad*
%ADD20C,0.660400*%
G04 #@! TD*
G04 #@! TA.AperFunction,ViaPad*
%ADD21C,0.600000*%
G04 #@! TD*
G04 #@! TA.AperFunction,ViaPad*
%ADD22C,0.800000*%
G04 #@! TD*
G04 #@! TA.AperFunction,Conductor*
%ADD23C,0.200000*%
G04 #@! TD*
G04 #@! TA.AperFunction,Conductor*
%ADD24C,0.500000*%
G04 #@! TD*
G04 #@! TA.AperFunction,Conductor*
%ADD25C,0.250000*%
G04 #@! TD*
G04 APERTURE END LIST*
D10*
X157469999Y-60549999D03*
X157469999Y-63749999D03*
X162369999Y-63749999D03*
X162369999Y-60549999D03*
D11*
X156670000Y-69900000D03*
X163170000Y-69900000D03*
X156670000Y-74400000D03*
X163170000Y-74400000D03*
X141920000Y-74650000D03*
X146920000Y-74650000D03*
X144420000Y-74650000D03*
D12*
X139339999Y-67149999D03*
X149499999Y-67149999D03*
D11*
X141920000Y-60150000D03*
X146920000Y-60150000D03*
D13*
X109660000Y-52850000D03*
X112200000Y-52850000D03*
X114740000Y-52850000D03*
X117280000Y-52850000D03*
D14*
X109420000Y-65725000D03*
X109420000Y-67375000D03*
D15*
X110944000Y-65775000D03*
X110944000Y-67325000D03*
X108220000Y-62075000D03*
X108220000Y-63625000D03*
D16*
X106620000Y-60600000D03*
X106620000Y-59050000D03*
X109820000Y-60600000D03*
X109820000Y-59050000D03*
D17*
X107595000Y-57050000D03*
X109245000Y-57050000D03*
D15*
X109844000Y-62075000D03*
X109844000Y-63625000D03*
X106620000Y-62075000D03*
X106620000Y-63625000D03*
D16*
X108220000Y-60600000D03*
X108220000Y-59050000D03*
D18*
X110953999Y-70197999D03*
D19*
X113493999Y-70197999D03*
X116033999Y-70197999D03*
D18*
X105303999Y-68927999D03*
D19*
X102763999Y-68927999D03*
X100223999Y-68927999D03*
D18*
X153114999Y-60444999D03*
D19*
X150574999Y-60444999D03*
D18*
X96413999Y-70705999D03*
D19*
X96413999Y-68165999D03*
X96413999Y-65625999D03*
X96413999Y-63085999D03*
D20*
X91458801Y-70037999D03*
X91458801Y-64258001D03*
D21*
X126420000Y-59750000D03*
D22*
X124820000Y-52350000D03*
D21*
X113940000Y-66642000D03*
D22*
X114620000Y-59050000D03*
D21*
X100720000Y-72450000D03*
D22*
X102120000Y-80130000D03*
D21*
X151892000Y-52926000D03*
D22*
X93920000Y-63350000D03*
X113394000Y-60254000D03*
D21*
X106620000Y-57999502D03*
D22*
X112220000Y-61450000D03*
X112120000Y-59050000D03*
D21*
X98120000Y-76950000D03*
X121020000Y-61525000D03*
X121020000Y-58050000D03*
X97620000Y-78450000D03*
D22*
X114620000Y-61450000D03*
X94018000Y-70397501D03*
X137520000Y-75850000D03*
X94420000Y-64850000D03*
D21*
X154766000Y-56990000D03*
X97220000Y-60550000D03*
D22*
X103320000Y-75850000D03*
X157470000Y-62250000D03*
D21*
X116220000Y-54850000D03*
X119007682Y-61061295D03*
X118408182Y-61853000D03*
X93820000Y-68650000D03*
X94520000Y-72050000D03*
X102950000Y-56250000D03*
X102950000Y-53120000D03*
X110816000Y-60854000D03*
D22*
X104920000Y-64150000D03*
D21*
X110771353Y-62049429D03*
X118320000Y-60653500D03*
X108918584Y-68478584D03*
X109720000Y-64750000D03*
X155858500Y-54441500D03*
X106020000Y-57050000D03*
X94520000Y-61650000D03*
X93471999Y-65398001D03*
D22*
X139820000Y-70850000D03*
D21*
X113194000Y-65076000D03*
X117120000Y-64450000D03*
X115413246Y-65556754D03*
X116320000Y-65049500D03*
X117461500Y-63691500D03*
X150520000Y-54900000D03*
D23*
X126420000Y-59750000D02*
X123720000Y-57050000D01*
X123720000Y-57050000D02*
X109245000Y-57050000D01*
X119007682Y-62102029D02*
X119007682Y-61061295D01*
X117617000Y-62453000D02*
X118656711Y-62453000D01*
X113940000Y-66130000D02*
X117617000Y-62453000D01*
X118656711Y-62453000D02*
X119007682Y-62102029D01*
X113940000Y-66642000D02*
X113940000Y-66130000D01*
X110954000Y-68550314D02*
X110954000Y-70198000D01*
X117651314Y-61853000D02*
X110954000Y-68550314D01*
X118408182Y-61853000D02*
X117651314Y-61853000D01*
X109420000Y-67375000D02*
X109420000Y-67977168D01*
X109420000Y-67977168D02*
X108918584Y-68478584D01*
D24*
X92721999Y-69101500D02*
X92721999Y-64548001D01*
D25*
X162370000Y-63750000D02*
X162370000Y-63350000D01*
D24*
X92721999Y-64548001D02*
X93920000Y-63350000D01*
X94018000Y-70397501D02*
X92721999Y-69101500D01*
D25*
X162370000Y-63750000D02*
X162370000Y-63255000D01*
D23*
X97564000Y-69556000D02*
X96414000Y-70706000D01*
D25*
X154766000Y-56990000D02*
X154766000Y-57938000D01*
X154766000Y-57938000D02*
X157378000Y-60550000D01*
D23*
X97564000Y-60894000D02*
X97564000Y-69556000D01*
D25*
X157378000Y-60550000D02*
X157470000Y-60550000D01*
D24*
X157470000Y-62250000D02*
X157470000Y-60550000D01*
D23*
X97220000Y-60550000D02*
X97564000Y-60894000D01*
D24*
X103320000Y-75850000D02*
X137520000Y-75850000D01*
X94570000Y-68900000D02*
X96376000Y-70706000D01*
X94570000Y-65000000D02*
X94570000Y-68900000D01*
X96376000Y-70706000D02*
X96414000Y-70706000D01*
X94420000Y-64850000D02*
X94570000Y-65000000D01*
D23*
X116220000Y-54850000D02*
X116220000Y-54330000D01*
X116220000Y-54330000D02*
X114740000Y-52850000D01*
X94520000Y-72050000D02*
X94718000Y-71852000D01*
X93820000Y-69209551D02*
X93820000Y-68650000D01*
X94718000Y-70107551D02*
X93820000Y-69209551D01*
X94718000Y-71852000D02*
X94718000Y-70107551D01*
D25*
X109700000Y-55350000D02*
X112200000Y-52850000D01*
X102950000Y-56250000D02*
X103850000Y-55350000D01*
X103850000Y-55350000D02*
X109700000Y-55350000D01*
X102950000Y-53120000D02*
X103220000Y-52850000D01*
X103220000Y-52850000D02*
X109660000Y-52850000D01*
D23*
X116705785Y-62150000D02*
X118202285Y-60653500D01*
D25*
X110745782Y-62075000D02*
X110771353Y-62049429D01*
X104920000Y-64150000D02*
X104920000Y-63775000D01*
X104920000Y-62300000D02*
X106620000Y-60600000D01*
D23*
X110871924Y-62150000D02*
X116705785Y-62150000D01*
D25*
X106620000Y-60600000D02*
X110562000Y-60600000D01*
X110562000Y-60600000D02*
X110816000Y-60854000D01*
X104920000Y-64150000D02*
X104920000Y-62300000D01*
X104920000Y-63775000D02*
X106620000Y-62075000D01*
X109844000Y-62075000D02*
X110745782Y-62075000D01*
D23*
X110771353Y-62049429D02*
X110871924Y-62150000D01*
D25*
X109844000Y-62075000D02*
X106620000Y-62075000D01*
D23*
X118202285Y-60653500D02*
X118320000Y-60653500D01*
X109420000Y-65050000D02*
X109420000Y-65725000D01*
X109720000Y-64750000D02*
X109420000Y-65050000D01*
X110944000Y-65775000D02*
X109470000Y-65775000D01*
X109470000Y-65775000D02*
X109420000Y-65725000D01*
D25*
X156420000Y-63750000D02*
X157470000Y-63750000D01*
X157370000Y-63650000D02*
X157470000Y-63750000D01*
X153115000Y-60445000D02*
X156420000Y-63750000D01*
X162370000Y-59800000D02*
X162370000Y-60550000D01*
X158195000Y-59175000D02*
X161745000Y-59175000D01*
X155858500Y-54441500D02*
X155858500Y-56838500D01*
X155858500Y-56838500D02*
X158195000Y-59175000D01*
X161745000Y-59175000D02*
X162370000Y-59800000D01*
X107595000Y-57050000D02*
X106020000Y-57050000D01*
D23*
X94620000Y-61750000D02*
X94520000Y-61650000D01*
X94620000Y-63660050D02*
X94620000Y-61750000D01*
X93471999Y-64808051D02*
X94620000Y-63660050D01*
X93471999Y-65398001D02*
X93471999Y-64808051D01*
D24*
X163170000Y-69900000D02*
X156670000Y-69900000D01*
X139820000Y-70850000D02*
X155720000Y-70850000D01*
X155720000Y-70850000D02*
X156670000Y-69900000D01*
D25*
X131570000Y-64450000D02*
X135870000Y-60150000D01*
X135870000Y-60150000D02*
X141920000Y-60150000D01*
X117120000Y-64450000D02*
X131570000Y-64450000D01*
X145595000Y-75975000D02*
X146920000Y-74650000D01*
X115606492Y-65750000D02*
X131146167Y-65750000D01*
X115413246Y-65556754D02*
X115606492Y-65750000D01*
X141371167Y-75975000D02*
X145595000Y-75975000D01*
X131146167Y-65750000D02*
X141371167Y-75975000D01*
X116345500Y-65075000D02*
X131107563Y-65075000D01*
X131107563Y-65075000D02*
X140682563Y-74650000D01*
X116320000Y-65049500D02*
X116345500Y-65075000D01*
X140682563Y-74650000D02*
X141920000Y-74650000D01*
X117503000Y-63650000D02*
X131733604Y-63650000D01*
X117461500Y-63691500D02*
X117503000Y-63650000D01*
X140483604Y-54900000D02*
X150520000Y-54900000D01*
X131733604Y-63650000D02*
X140483604Y-54900000D01*
G04 #@! TA.AperFunction,Conductor*
G36*
X164857000Y-49916881D02*
G01*
X164903119Y-49963000D01*
X164920000Y-50026000D01*
X164920000Y-69702359D01*
X164903935Y-69763925D01*
X164859835Y-69809792D01*
X164798947Y-69828262D01*
X164736797Y-69814626D01*
X164689235Y-69772361D01*
X164668388Y-69712245D01*
X164664923Y-69668222D01*
X164664535Y-69663289D01*
X164609105Y-69432406D01*
X164518240Y-69213037D01*
X164394176Y-69010584D01*
X164387711Y-69003015D01*
X164243176Y-68833786D01*
X164239969Y-68830031D01*
X164190243Y-68787561D01*
X164063175Y-68679034D01*
X164063171Y-68679031D01*
X164059416Y-68675824D01*
X163856963Y-68551760D01*
X163757193Y-68510434D01*
X163642167Y-68462789D01*
X163642164Y-68462788D01*
X163637594Y-68460895D01*
X163632786Y-68459740D01*
X163632781Y-68459739D01*
X163411523Y-68406620D01*
X163411519Y-68406619D01*
X163406711Y-68405465D01*
X163401785Y-68405077D01*
X163401777Y-68405076D01*
X163174930Y-68387223D01*
X163170000Y-68386835D01*
X163165070Y-68387223D01*
X162938222Y-68405076D01*
X162938212Y-68405077D01*
X162933289Y-68405465D01*
X162928482Y-68406619D01*
X162928476Y-68406620D01*
X162707218Y-68459739D01*
X162707209Y-68459741D01*
X162702406Y-68460895D01*
X162697838Y-68462786D01*
X162697832Y-68462789D01*
X162487611Y-68549865D01*
X162487606Y-68549867D01*
X162483037Y-68551760D01*
X162478817Y-68554345D01*
X162478817Y-68554346D01*
X162284798Y-68673241D01*
X162284792Y-68673245D01*
X162280584Y-68675824D01*
X162276834Y-68679026D01*
X162276824Y-68679034D01*
X162103786Y-68826823D01*
X162103779Y-68826829D01*
X162100031Y-68830031D01*
X162096829Y-68833779D01*
X162096823Y-68833786D01*
X161949036Y-69006822D01*
X161949035Y-69006824D01*
X161945824Y-69010584D01*
X161943242Y-69014796D01*
X161943240Y-69014800D01*
X161902467Y-69081336D01*
X161856601Y-69125435D01*
X161795035Y-69141500D01*
X158044965Y-69141500D01*
X157983399Y-69125435D01*
X157937533Y-69081336D01*
X157894176Y-69010584D01*
X157887711Y-69003015D01*
X157743176Y-68833786D01*
X157739969Y-68830031D01*
X157690243Y-68787561D01*
X157563175Y-68679034D01*
X157563171Y-68679031D01*
X157559416Y-68675824D01*
X157356963Y-68551760D01*
X157257193Y-68510434D01*
X157142167Y-68462789D01*
X157142164Y-68462788D01*
X157137594Y-68460895D01*
X157132786Y-68459740D01*
X157132781Y-68459739D01*
X156911523Y-68406620D01*
X156911519Y-68406619D01*
X156906711Y-68405465D01*
X156901785Y-68405077D01*
X156901777Y-68405076D01*
X156674930Y-68387223D01*
X156670000Y-68386835D01*
X156665070Y-68387223D01*
X156438222Y-68405076D01*
X156438212Y-68405077D01*
X156433289Y-68405465D01*
X156428482Y-68406619D01*
X156428476Y-68406620D01*
X156207218Y-68459739D01*
X156207209Y-68459741D01*
X156202406Y-68460895D01*
X156197838Y-68462786D01*
X156197832Y-68462789D01*
X155987611Y-68549865D01*
X155987606Y-68549867D01*
X155983037Y-68551760D01*
X155978817Y-68554345D01*
X155978817Y-68554346D01*
X155784798Y-68673241D01*
X155784792Y-68673245D01*
X155780584Y-68675824D01*
X155776834Y-68679026D01*
X155776824Y-68679034D01*
X155603786Y-68826823D01*
X155603779Y-68826829D01*
X155600031Y-68830031D01*
X155596829Y-68833779D01*
X155596823Y-68833786D01*
X155449034Y-69006824D01*
X155449026Y-69006834D01*
X155445824Y-69010584D01*
X155443245Y-69014792D01*
X155443241Y-69014798D01*
X155330405Y-69198930D01*
X155321760Y-69213037D01*
X155319867Y-69217606D01*
X155319865Y-69217611D01*
X155232789Y-69427832D01*
X155232786Y-69427838D01*
X155230895Y-69432406D01*
X155229741Y-69437209D01*
X155229739Y-69437218D01*
X155176620Y-69658476D01*
X155175465Y-69663289D01*
X155175077Y-69668212D01*
X155175076Y-69668222D01*
X155159757Y-69862876D01*
X155156835Y-69900000D01*
X155157223Y-69904930D01*
X155161212Y-69955614D01*
X155147867Y-70022703D01*
X155101435Y-70072933D01*
X155035600Y-70091500D01*
X140362587Y-70091500D01*
X140323652Y-70085333D01*
X140288528Y-70067437D01*
X140282097Y-70062765D01*
X140282094Y-70062763D01*
X140276752Y-70058882D01*
X140102288Y-69981206D01*
X140095835Y-69979834D01*
X140095831Y-69979833D01*
X139921943Y-69942872D01*
X139921940Y-69942871D01*
X139915487Y-69941500D01*
X139724513Y-69941500D01*
X139718060Y-69942871D01*
X139718056Y-69942872D01*
X139544168Y-69979833D01*
X139544161Y-69979835D01*
X139537712Y-69981206D01*
X139531682Y-69983890D01*
X139531681Y-69983891D01*
X139369278Y-70056197D01*
X139369275Y-70056198D01*
X139363248Y-70058882D01*
X139357907Y-70062762D01*
X139357906Y-70062763D01*
X139214091Y-70167250D01*
X139214083Y-70167256D01*
X139208747Y-70171134D01*
X139204330Y-70176039D01*
X139204325Y-70176044D01*
X139105196Y-70286139D01*
X139080960Y-70313056D01*
X139077661Y-70318769D01*
X139077658Y-70318774D01*
X139004063Y-70446245D01*
X138985473Y-70478444D01*
X138983434Y-70484718D01*
X138983430Y-70484728D01*
X138928497Y-70653794D01*
X138928495Y-70653801D01*
X138926458Y-70660072D01*
X138925768Y-70666633D01*
X138925768Y-70666635D01*
X138912468Y-70793175D01*
X138906496Y-70850000D01*
X138907186Y-70856565D01*
X138925509Y-71030904D01*
X138926458Y-71039928D01*
X138928495Y-71046200D01*
X138928497Y-71046205D01*
X138983430Y-71215271D01*
X138983433Y-71215278D01*
X138985473Y-71221556D01*
X139080960Y-71386944D01*
X139208747Y-71528866D01*
X139214089Y-71532747D01*
X139214091Y-71532749D01*
X139226981Y-71542114D01*
X139363248Y-71641118D01*
X139537712Y-71718794D01*
X139724513Y-71758500D01*
X139908884Y-71758500D01*
X139915487Y-71758500D01*
X140102288Y-71718794D01*
X140276752Y-71641118D01*
X140285111Y-71635044D01*
X140288528Y-71632563D01*
X140323652Y-71614667D01*
X140362587Y-71608500D01*
X155655558Y-71608500D01*
X155673820Y-71609830D01*
X155697789Y-71613341D01*
X155747646Y-71608978D01*
X155758628Y-71608500D01*
X155760513Y-71608500D01*
X155764180Y-71608500D01*
X155795300Y-71604861D01*
X155798903Y-71604493D01*
X155874426Y-71597887D01*
X155881393Y-71595578D01*
X155884697Y-71594896D01*
X155885120Y-71594827D01*
X155885552Y-71594705D01*
X155888813Y-71593932D01*
X155896113Y-71593079D01*
X155967420Y-71567124D01*
X155970769Y-71565961D01*
X156042738Y-71542114D01*
X156048989Y-71538257D01*
X156052025Y-71536842D01*
X156052443Y-71536668D01*
X156052830Y-71536453D01*
X156055827Y-71534947D01*
X156062732Y-71532435D01*
X156126139Y-71490729D01*
X156129097Y-71488845D01*
X156193651Y-71449030D01*
X156198845Y-71443834D01*
X156201472Y-71441758D01*
X156201837Y-71441494D01*
X156202165Y-71441194D01*
X156204732Y-71439039D01*
X156210874Y-71435001D01*
X156223786Y-71421315D01*
X156232985Y-71411565D01*
X156288673Y-71377271D01*
X156354049Y-71375511D01*
X156433289Y-71394535D01*
X156670000Y-71413165D01*
X156906711Y-71394535D01*
X157137594Y-71339105D01*
X157356963Y-71248240D01*
X157559416Y-71124176D01*
X157739969Y-70969969D01*
X157894176Y-70789416D01*
X157937533Y-70718663D01*
X157983399Y-70674565D01*
X158044965Y-70658500D01*
X161795035Y-70658500D01*
X161856601Y-70674565D01*
X161902466Y-70718663D01*
X161945824Y-70789416D01*
X161949034Y-70793175D01*
X161949036Y-70793177D01*
X162096823Y-70966213D01*
X162100031Y-70969969D01*
X162103786Y-70973176D01*
X162252263Y-71099988D01*
X162280584Y-71124176D01*
X162483037Y-71248240D01*
X162702406Y-71339105D01*
X162933289Y-71394535D01*
X163170000Y-71413165D01*
X163406711Y-71394535D01*
X163637594Y-71339105D01*
X163856963Y-71248240D01*
X164059416Y-71124176D01*
X164239969Y-70969969D01*
X164394176Y-70789416D01*
X164518240Y-70586963D01*
X164609105Y-70367594D01*
X164664535Y-70136711D01*
X164668388Y-70087754D01*
X164689235Y-70027639D01*
X164736797Y-69985374D01*
X164798947Y-69971738D01*
X164859835Y-69990208D01*
X164903935Y-70036075D01*
X164920000Y-70097641D01*
X164920000Y-74208729D01*
X164903934Y-74270295D01*
X164859835Y-74316162D01*
X164798947Y-74334632D01*
X164736797Y-74320996D01*
X164689235Y-74278731D01*
X164668388Y-74218615D01*
X164664428Y-74168300D01*
X164662884Y-74158554D01*
X164609783Y-73937373D01*
X164606733Y-73927987D01*
X164519687Y-73717839D01*
X164515206Y-73709044D01*
X164410565Y-73538286D01*
X164402619Y-73530183D01*
X164393000Y-73536208D01*
X163540938Y-74388271D01*
X163534167Y-74399999D01*
X163540939Y-74411729D01*
X164392997Y-75263787D01*
X164402619Y-75269814D01*
X164410568Y-75261708D01*
X164515205Y-75090957D01*
X164519686Y-75082162D01*
X164606733Y-74872012D01*
X164609783Y-74862626D01*
X164662884Y-74641445D01*
X164664428Y-74631699D01*
X164668388Y-74581385D01*
X164689235Y-74521269D01*
X164736797Y-74479004D01*
X164798947Y-74465368D01*
X164859835Y-74483838D01*
X164903934Y-74529705D01*
X164920000Y-74591271D01*
X164920000Y-84274000D01*
X164903119Y-84337000D01*
X164857000Y-84383119D01*
X164794000Y-84400000D01*
X85550000Y-84400000D01*
X85487000Y-84383119D01*
X85440881Y-84337000D01*
X85424000Y-84274000D01*
X85424000Y-80717765D01*
X87315788Y-80717765D01*
X87316290Y-80722332D01*
X87316291Y-80722344D01*
X87344910Y-80982444D01*
X87344911Y-80982453D01*
X87345414Y-80987018D01*
X87413928Y-81249088D01*
X87415725Y-81253318D01*
X87415728Y-81253325D01*
X87465866Y-81371308D01*
X87519870Y-81498390D01*
X87660982Y-81729610D01*
X87834255Y-81937820D01*
X87929177Y-82022870D01*
X88032561Y-82115503D01*
X88032565Y-82115506D01*
X88035998Y-82118582D01*
X88261910Y-82268044D01*
X88507176Y-82383020D01*
X88766569Y-82461060D01*
X89034561Y-82500500D01*
X89235330Y-82500500D01*
X89237631Y-82500500D01*
X89440156Y-82485677D01*
X89704553Y-82426780D01*
X89957558Y-82330014D01*
X90193777Y-82197441D01*
X90408177Y-82031888D01*
X90596186Y-81836881D01*
X90753799Y-81616579D01*
X90877656Y-81375675D01*
X90965118Y-81119305D01*
X91014319Y-80852933D01*
X91019259Y-80717765D01*
X159315788Y-80717765D01*
X159316290Y-80722332D01*
X159316291Y-80722344D01*
X159344910Y-80982444D01*
X159344911Y-80982453D01*
X159345414Y-80987018D01*
X159413928Y-81249088D01*
X159415725Y-81253318D01*
X159415728Y-81253325D01*
X159465866Y-81371308D01*
X159519870Y-81498390D01*
X159660982Y-81729610D01*
X159834255Y-81937820D01*
X159929177Y-82022870D01*
X160032561Y-82115503D01*
X160032565Y-82115506D01*
X160035998Y-82118582D01*
X160261910Y-82268044D01*
X160507176Y-82383020D01*
X160766569Y-82461060D01*
X161034561Y-82500500D01*
X161235330Y-82500500D01*
X161237631Y-82500500D01*
X161440156Y-82485677D01*
X161704553Y-82426780D01*
X161957558Y-82330014D01*
X162193777Y-82197441D01*
X162408177Y-82031888D01*
X162596186Y-81836881D01*
X162753799Y-81616579D01*
X162877656Y-81375675D01*
X162965118Y-81119305D01*
X163014319Y-80852933D01*
X163024212Y-80582235D01*
X162994586Y-80312982D01*
X162926072Y-80050912D01*
X162820130Y-79801610D01*
X162679018Y-79570390D01*
X162505745Y-79362180D01*
X162430137Y-79294435D01*
X162307438Y-79184496D01*
X162307432Y-79184491D01*
X162304002Y-79181418D01*
X162078090Y-79031956D01*
X161832824Y-78916980D01*
X161828420Y-78915655D01*
X161577843Y-78840267D01*
X161577838Y-78840265D01*
X161573431Y-78838940D01*
X161568874Y-78838269D01*
X161568868Y-78838268D01*
X161310000Y-78800171D01*
X161309996Y-78800170D01*
X161305439Y-78799500D01*
X161102369Y-78799500D01*
X161100098Y-78799666D01*
X161100076Y-78799667D01*
X160904438Y-78813986D01*
X160904427Y-78813987D01*
X160899844Y-78814323D01*
X160895353Y-78815323D01*
X160895349Y-78815324D01*
X160639939Y-78872219D01*
X160639934Y-78872220D01*
X160635447Y-78873220D01*
X160631149Y-78874863D01*
X160631145Y-78874865D01*
X160386746Y-78968339D01*
X160386735Y-78968343D01*
X160382442Y-78969986D01*
X160378434Y-78972235D01*
X160378422Y-78972241D01*
X160150232Y-79100308D01*
X160150221Y-79100314D01*
X160146223Y-79102559D01*
X160142589Y-79105364D01*
X160142586Y-79105367D01*
X159935466Y-79265298D01*
X159935458Y-79265305D01*
X159931823Y-79268112D01*
X159928632Y-79271421D01*
X159928625Y-79271428D01*
X159747011Y-79459802D01*
X159747004Y-79459809D01*
X159743814Y-79463119D01*
X159741136Y-79466861D01*
X159741131Y-79466868D01*
X159588885Y-79679668D01*
X159588878Y-79679677D01*
X159586201Y-79683421D01*
X159584097Y-79687512D01*
X159584091Y-79687523D01*
X159464453Y-79920222D01*
X159462344Y-79924325D01*
X159460856Y-79928684D01*
X159460854Y-79928691D01*
X159376371Y-80176327D01*
X159376367Y-80176341D01*
X159374882Y-80180695D01*
X159374044Y-80185228D01*
X159374044Y-80185231D01*
X159326517Y-80442537D01*
X159326515Y-80442546D01*
X159325681Y-80447067D01*
X159325513Y-80451656D01*
X159325512Y-80451668D01*
X159315956Y-80713161D01*
X159315788Y-80717765D01*
X91019259Y-80717765D01*
X91024212Y-80582235D01*
X90994586Y-80312982D01*
X90926072Y-80050912D01*
X90820130Y-79801610D01*
X90679018Y-79570390D01*
X90505745Y-79362180D01*
X90430137Y-79294435D01*
X90307438Y-79184496D01*
X90307432Y-79184491D01*
X90304002Y-79181418D01*
X90078090Y-79031956D01*
X89832824Y-78916980D01*
X89828420Y-78915655D01*
X89577843Y-78840267D01*
X89577838Y-78840265D01*
X89573431Y-78838940D01*
X89568874Y-78838269D01*
X89568868Y-78838268D01*
X89310000Y-78800171D01*
X89309996Y-78800170D01*
X89305439Y-78799500D01*
X89102369Y-78799500D01*
X89100098Y-78799666D01*
X89100076Y-78799667D01*
X88904438Y-78813986D01*
X88904427Y-78813987D01*
X88899844Y-78814323D01*
X88895353Y-78815323D01*
X88895349Y-78815324D01*
X88639939Y-78872219D01*
X88639934Y-78872220D01*
X88635447Y-78873220D01*
X88631149Y-78874863D01*
X88631145Y-78874865D01*
X88386746Y-78968339D01*
X88386735Y-78968343D01*
X88382442Y-78969986D01*
X88378434Y-78972235D01*
X88378422Y-78972241D01*
X88150232Y-79100308D01*
X88150221Y-79100314D01*
X88146223Y-79102559D01*
X88142589Y-79105364D01*
X88142586Y-79105367D01*
X87935466Y-79265298D01*
X87935458Y-79265305D01*
X87931823Y-79268112D01*
X87928632Y-79271421D01*
X87928625Y-79271428D01*
X87747011Y-79459802D01*
X87747004Y-79459809D01*
X87743814Y-79463119D01*
X87741136Y-79466861D01*
X87741131Y-79466868D01*
X87588885Y-79679668D01*
X87588878Y-79679677D01*
X87586201Y-79683421D01*
X87584097Y-79687512D01*
X87584091Y-79687523D01*
X87464453Y-79920222D01*
X87462344Y-79924325D01*
X87460856Y-79928684D01*
X87460854Y-79928691D01*
X87376371Y-80176327D01*
X87376367Y-80176341D01*
X87374882Y-80180695D01*
X87374044Y-80185228D01*
X87374044Y-80185231D01*
X87326517Y-80442537D01*
X87326515Y-80442546D01*
X87325681Y-80447067D01*
X87325513Y-80451656D01*
X87325512Y-80451668D01*
X87315956Y-80713161D01*
X87315788Y-80717765D01*
X85424000Y-80717765D01*
X85424000Y-75850000D01*
X102406496Y-75850000D01*
X102407186Y-75856565D01*
X102422275Y-76000134D01*
X102426458Y-76039928D01*
X102428495Y-76046200D01*
X102428497Y-76046205D01*
X102483430Y-76215271D01*
X102483433Y-76215278D01*
X102485473Y-76221556D01*
X102580960Y-76386944D01*
X102708747Y-76528866D01*
X102714089Y-76532747D01*
X102714091Y-76532749D01*
X102730308Y-76544531D01*
X102863248Y-76641118D01*
X103037712Y-76718794D01*
X103224513Y-76758500D01*
X103408884Y-76758500D01*
X103415487Y-76758500D01*
X103602288Y-76718794D01*
X103776752Y-76641118D01*
X103785111Y-76635044D01*
X103788528Y-76632563D01*
X103823652Y-76614667D01*
X103862587Y-76608500D01*
X136977413Y-76608500D01*
X137016348Y-76614667D01*
X137051472Y-76632563D01*
X137057902Y-76637234D01*
X137063248Y-76641118D01*
X137237712Y-76718794D01*
X137424513Y-76758500D01*
X137608884Y-76758500D01*
X137615487Y-76758500D01*
X137802288Y-76718794D01*
X137976752Y-76641118D01*
X138131253Y-76528866D01*
X138259040Y-76386944D01*
X138354527Y-76221556D01*
X138413542Y-76039928D01*
X138433504Y-75850000D01*
X138413542Y-75660072D01*
X138354527Y-75478444D01*
X138259040Y-75313056D01*
X138131253Y-75171134D01*
X138125911Y-75167253D01*
X138125908Y-75167250D01*
X138048057Y-75110688D01*
X137976752Y-75058882D01*
X137802288Y-74981206D01*
X137795835Y-74979834D01*
X137795831Y-74979833D01*
X137621943Y-74942872D01*
X137621940Y-74942871D01*
X137615487Y-74941500D01*
X137424513Y-74941500D01*
X137418060Y-74942871D01*
X137418056Y-74942872D01*
X137244168Y-74979833D01*
X137244161Y-74979835D01*
X137237712Y-74981206D01*
X137231682Y-74983890D01*
X137231681Y-74983891D01*
X137069278Y-75056197D01*
X137069275Y-75056198D01*
X137063248Y-75058882D01*
X137057909Y-75062760D01*
X137057902Y-75062765D01*
X137051472Y-75067437D01*
X137016348Y-75085333D01*
X136977413Y-75091500D01*
X103862587Y-75091500D01*
X103823652Y-75085333D01*
X103788528Y-75067437D01*
X103782097Y-75062765D01*
X103782094Y-75062763D01*
X103776752Y-75058882D01*
X103602288Y-74981206D01*
X103595835Y-74979834D01*
X103595831Y-74979833D01*
X103421943Y-74942872D01*
X103421940Y-74942871D01*
X103415487Y-74941500D01*
X103224513Y-74941500D01*
X103218060Y-74942871D01*
X103218056Y-74942872D01*
X103044168Y-74979833D01*
X103044161Y-74979835D01*
X103037712Y-74981206D01*
X103031682Y-74983890D01*
X103031681Y-74983891D01*
X102869278Y-75056197D01*
X102869275Y-75056198D01*
X102863248Y-75058882D01*
X102857907Y-75062762D01*
X102857906Y-75062763D01*
X102714091Y-75167250D01*
X102714083Y-75167256D01*
X102708747Y-75171134D01*
X102704330Y-75176039D01*
X102704325Y-75176044D01*
X102625318Y-75263791D01*
X102580960Y-75313056D01*
X102577661Y-75318769D01*
X102577658Y-75318774D01*
X102488777Y-75472721D01*
X102485473Y-75478444D01*
X102483434Y-75484718D01*
X102483430Y-75484728D01*
X102428497Y-75653794D01*
X102428495Y-75653801D01*
X102426458Y-75660072D01*
X102425768Y-75666633D01*
X102425768Y-75666635D01*
X102417510Y-75745205D01*
X102406496Y-75850000D01*
X85424000Y-75850000D01*
X85424000Y-71506251D01*
X86825886Y-71506251D01*
X86827637Y-71514681D01*
X86827638Y-71514684D01*
X86846331Y-71604638D01*
X86856943Y-71655707D01*
X86860905Y-71663353D01*
X86860906Y-71663356D01*
X86915734Y-71769169D01*
X86927171Y-71791241D01*
X87031362Y-71902802D01*
X87161788Y-71982116D01*
X87308776Y-72023300D01*
X87418780Y-72023300D01*
X87423085Y-72023300D01*
X87536327Y-72007735D01*
X87676338Y-71946920D01*
X87699299Y-71928239D01*
X87744817Y-71904652D01*
X87795970Y-71901152D01*
X87844282Y-71918322D01*
X87940005Y-71976532D01*
X87949188Y-71982116D01*
X88096176Y-72023300D01*
X88206180Y-72023300D01*
X88210485Y-72023300D01*
X88323727Y-72007735D01*
X88463738Y-71946920D01*
X88582149Y-71850585D01*
X88670178Y-71725876D01*
X88721297Y-71582041D01*
X88731714Y-71429749D01*
X88700657Y-71280293D01*
X88630429Y-71144759D01*
X88526238Y-71033198D01*
X88518877Y-71028721D01*
X88518875Y-71028720D01*
X88403174Y-70958361D01*
X88395812Y-70953884D01*
X88387517Y-70951560D01*
X88387513Y-70951558D01*
X88257124Y-70915025D01*
X88257120Y-70915024D01*
X88248824Y-70912700D01*
X88134515Y-70912700D01*
X88130257Y-70913285D01*
X88130246Y-70913286D01*
X88029811Y-70927091D01*
X88029807Y-70927091D01*
X88021273Y-70928265D01*
X88013376Y-70931694D01*
X88013369Y-70931697D01*
X87889165Y-70985647D01*
X87889163Y-70985647D01*
X87881262Y-70989080D01*
X87874579Y-70994516D01*
X87874579Y-70994517D01*
X87858298Y-71007762D01*
X87812775Y-71031348D01*
X87761625Y-71034846D01*
X87713315Y-71017677D01*
X87615774Y-70958361D01*
X87608412Y-70953884D01*
X87600117Y-70951560D01*
X87600113Y-70951558D01*
X87469724Y-70915025D01*
X87469720Y-70915024D01*
X87461424Y-70912700D01*
X87347115Y-70912700D01*
X87342857Y-70913285D01*
X87342846Y-70913286D01*
X87242411Y-70927091D01*
X87242407Y-70927091D01*
X87233873Y-70928265D01*
X87225976Y-70931694D01*
X87225969Y-70931697D01*
X87101771Y-70985644D01*
X87101767Y-70985646D01*
X87093862Y-70989080D01*
X87087173Y-70994521D01*
X87087171Y-70994523D01*
X86982138Y-71079974D01*
X86982135Y-71079976D01*
X86975451Y-71085415D01*
X86970483Y-71092451D01*
X86970480Y-71092456D01*
X86892391Y-71203083D01*
X86892388Y-71203088D01*
X86887422Y-71210124D01*
X86884537Y-71218239D01*
X86884536Y-71218243D01*
X86839189Y-71345837D01*
X86839189Y-71345839D01*
X86836303Y-71353959D01*
X86835715Y-71362553D01*
X86835714Y-71362559D01*
X86826944Y-71490778D01*
X86825886Y-71506251D01*
X85424000Y-71506251D01*
X85424000Y-70037999D01*
X90615481Y-70037999D01*
X90616171Y-70044561D01*
X90616171Y-70044567D01*
X90622147Y-70101431D01*
X90622652Y-70107776D01*
X90625126Y-70153387D01*
X90626270Y-70174486D01*
X90628096Y-70181065D01*
X90628098Y-70181073D01*
X90629187Y-70184995D01*
X90633088Y-70205523D01*
X90633218Y-70206762D01*
X90633219Y-70206765D01*
X90633910Y-70213335D01*
X90635950Y-70219612D01*
X90635951Y-70219617D01*
X90654693Y-70277299D01*
X90656267Y-70282527D01*
X90673245Y-70343679D01*
X90673247Y-70343684D01*
X90675074Y-70350264D01*
X90678272Y-70356297D01*
X90678275Y-70356303D01*
X90678543Y-70356808D01*
X90683594Y-70368726D01*
X90683664Y-70368695D01*
X90686348Y-70374725D01*
X90688390Y-70381008D01*
X90691690Y-70386724D01*
X90691692Y-70386728D01*
X90723757Y-70442266D01*
X90725959Y-70446245D01*
X90757322Y-70505401D01*
X90760525Y-70511442D01*
X90764950Y-70516651D01*
X90768782Y-70522303D01*
X90768665Y-70522381D01*
X90769015Y-70522877D01*
X90769357Y-70522629D01*
X90773241Y-70527974D01*
X90776541Y-70533690D01*
X90791168Y-70549935D01*
X90826220Y-70588864D01*
X90828616Y-70591604D01*
X90878627Y-70650481D01*
X90884065Y-70654614D01*
X90885459Y-70655935D01*
X90889668Y-70659420D01*
X90890095Y-70659804D01*
X90894510Y-70664708D01*
X90929439Y-70690085D01*
X90957436Y-70710426D01*
X90959568Y-70712011D01*
X91023857Y-70760882D01*
X91030059Y-70763751D01*
X91031777Y-70764785D01*
X91033440Y-70765647D01*
X91037141Y-70768336D01*
X91079644Y-70787259D01*
X91129310Y-70826919D01*
X91153298Y-70885777D01*
X91145505Y-70948856D01*
X91107913Y-71000104D01*
X91003051Y-71085417D01*
X90998083Y-71092453D01*
X90998080Y-71092458D01*
X90919991Y-71203085D01*
X90919988Y-71203090D01*
X90915022Y-71210126D01*
X90912137Y-71218241D01*
X90912136Y-71218245D01*
X90866789Y-71345839D01*
X90866788Y-71345842D01*
X90863903Y-71353961D01*
X90863315Y-71362555D01*
X90863314Y-71362561D01*
X90854359Y-71493489D01*
X90853486Y-71506253D01*
X90855237Y-71514683D01*
X90855238Y-71514686D01*
X90874644Y-71608074D01*
X90884543Y-71655709D01*
X90888505Y-71663355D01*
X90888506Y-71663358D01*
X90943333Y-71769169D01*
X90954771Y-71791243D01*
X91058962Y-71902804D01*
X91189388Y-71982118D01*
X91336376Y-72023302D01*
X91446380Y-72023302D01*
X91450685Y-72023302D01*
X91563927Y-72007737D01*
X91703938Y-71946922D01*
X91822349Y-71850587D01*
X91853585Y-71806334D01*
X91894766Y-71769169D01*
X91947922Y-71753291D01*
X92002745Y-71761782D01*
X92048607Y-71792995D01*
X92107473Y-71856025D01*
X92151162Y-71902804D01*
X92281588Y-71982118D01*
X92428576Y-72023302D01*
X92538580Y-72023302D01*
X92542885Y-72023302D01*
X92656127Y-72007737D01*
X92796138Y-71946922D01*
X92914549Y-71850587D01*
X93002578Y-71725878D01*
X93053697Y-71582043D01*
X93064114Y-71429751D01*
X93033057Y-71280295D01*
X92962829Y-71144761D01*
X92858638Y-71033200D01*
X92851277Y-71028723D01*
X92851275Y-71028722D01*
X92735574Y-70958363D01*
X92728212Y-70953886D01*
X92719917Y-70951562D01*
X92719913Y-70951560D01*
X92589524Y-70915027D01*
X92589520Y-70915026D01*
X92581224Y-70912702D01*
X92466915Y-70912702D01*
X92462657Y-70913287D01*
X92462646Y-70913288D01*
X92362211Y-70927093D01*
X92362207Y-70927093D01*
X92353673Y-70928267D01*
X92345776Y-70931696D01*
X92345769Y-70931699D01*
X92221571Y-70985646D01*
X92221567Y-70985648D01*
X92213662Y-70989082D01*
X92206973Y-70994523D01*
X92206971Y-70994525D01*
X92101938Y-71079976D01*
X92101935Y-71079978D01*
X92095251Y-71085417D01*
X92090283Y-71092453D01*
X92090280Y-71092458D01*
X92064015Y-71129668D01*
X92022831Y-71166835D01*
X91969675Y-71182712D01*
X91914853Y-71174221D01*
X91868992Y-71143008D01*
X91778584Y-71046205D01*
X91766438Y-71033200D01*
X91759079Y-71028725D01*
X91756497Y-71026624D01*
X91717847Y-70972612D01*
X91712031Y-70906451D01*
X91740664Y-70846524D01*
X91795788Y-70809481D01*
X91813038Y-70803670D01*
X91840376Y-70787220D01*
X91854086Y-70780077D01*
X91880461Y-70768336D01*
X91917952Y-70741096D01*
X91927038Y-70735078D01*
X91969353Y-70709619D01*
X91989979Y-70690079D01*
X92002564Y-70679621D01*
X92023092Y-70664708D01*
X92056438Y-70627670D01*
X92063403Y-70620527D01*
X92101795Y-70584163D01*
X92115779Y-70563536D01*
X92126433Y-70549935D01*
X92136644Y-70538595D01*
X92141061Y-70533690D01*
X92167724Y-70487505D01*
X92172540Y-70479820D01*
X92204172Y-70433169D01*
X92212101Y-70413267D01*
X92220036Y-70396900D01*
X92225909Y-70386728D01*
X92229212Y-70381008D01*
X92246764Y-70326984D01*
X92249538Y-70319304D01*
X92271695Y-70263698D01*
X92274594Y-70246008D01*
X92279098Y-70227471D01*
X92283692Y-70213335D01*
X92289993Y-70153378D01*
X92290962Y-70146169D01*
X92292513Y-70136711D01*
X92301209Y-70083673D01*
X92300428Y-70069279D01*
X92300933Y-70049291D01*
X92302121Y-70037999D01*
X92301032Y-70027639D01*
X92295453Y-69974565D01*
X92294949Y-69968235D01*
X92291332Y-69901512D01*
X92288413Y-69891000D01*
X92284511Y-69870459D01*
X92283692Y-69862663D01*
X92262905Y-69798689D01*
X92261341Y-69793499D01*
X92242528Y-69725734D01*
X92239064Y-69719202D01*
X92234011Y-69707275D01*
X92233940Y-69707307D01*
X92231252Y-69701272D01*
X92229212Y-69694990D01*
X92193822Y-69633693D01*
X92191645Y-69629759D01*
X92160278Y-69570593D01*
X92160276Y-69570590D01*
X92157077Y-69564556D01*
X92152654Y-69559349D01*
X92148821Y-69553696D01*
X92148938Y-69553616D01*
X92148589Y-69553122D01*
X92148246Y-69553372D01*
X92144363Y-69548027D01*
X92141061Y-69542308D01*
X92091378Y-69487130D01*
X92088984Y-69484392D01*
X92064428Y-69455483D01*
X92038975Y-69425517D01*
X92033531Y-69421379D01*
X92032139Y-69420060D01*
X92027927Y-69416573D01*
X92027512Y-69416199D01*
X92023092Y-69411290D01*
X91960183Y-69365584D01*
X91958003Y-69363963D01*
X91899182Y-69319248D01*
X91899174Y-69319243D01*
X91893745Y-69315116D01*
X91887559Y-69312253D01*
X91885848Y-69311224D01*
X91884157Y-69310347D01*
X91880461Y-69307662D01*
X91874434Y-69304978D01*
X91874426Y-69304974D01*
X91806179Y-69274588D01*
X91804523Y-69273837D01*
X91785496Y-69265034D01*
X91728178Y-69238516D01*
X91722199Y-69237200D01*
X91719401Y-69235954D01*
X91713215Y-69234639D01*
X91713211Y-69234638D01*
X91636584Y-69218350D01*
X91635697Y-69218158D01*
X91556688Y-69200767D01*
X91556680Y-69200766D01*
X91550015Y-69199299D01*
X91546952Y-69199299D01*
X91370650Y-69199299D01*
X91364191Y-69200671D01*
X91364188Y-69200672D01*
X91332161Y-69207479D01*
X91319593Y-69209493D01*
X91284235Y-69213339D01*
X91284234Y-69213339D01*
X91277442Y-69214078D01*
X91270969Y-69216258D01*
X91270964Y-69216260D01*
X91243878Y-69225386D01*
X91229847Y-69229227D01*
X91204655Y-69234582D01*
X91204653Y-69234582D01*
X91198201Y-69235954D01*
X91192178Y-69238635D01*
X91192170Y-69238638D01*
X91159054Y-69253381D01*
X91148047Y-69257675D01*
X91111039Y-69270145D01*
X91111029Y-69270149D01*
X91104564Y-69272328D01*
X91098710Y-69275849D01*
X91098708Y-69275851D01*
X91077218Y-69288780D01*
X91063517Y-69295917D01*
X91043176Y-69304974D01*
X91043168Y-69304978D01*
X91037141Y-69307662D01*
X91031810Y-69311534D01*
X91031796Y-69311543D01*
X90999649Y-69334899D01*
X90990555Y-69340922D01*
X90954104Y-69362855D01*
X90954097Y-69362859D01*
X90948249Y-69366379D01*
X90943294Y-69371072D01*
X90943284Y-69371080D01*
X90927614Y-69385923D01*
X90915034Y-69396376D01*
X90899851Y-69407407D01*
X90899837Y-69407419D01*
X90894510Y-69411290D01*
X90890101Y-69416186D01*
X90890095Y-69416192D01*
X90861166Y-69448321D01*
X90854183Y-69455483D01*
X90820767Y-69487136D01*
X90820764Y-69487139D01*
X90815807Y-69491835D01*
X90811973Y-69497488D01*
X90811969Y-69497494D01*
X90801818Y-69512465D01*
X90791174Y-69526055D01*
X90780961Y-69537398D01*
X90780957Y-69537402D01*
X90776541Y-69542308D01*
X90773242Y-69548021D01*
X90773236Y-69548030D01*
X90749882Y-69588480D01*
X90745054Y-69596186D01*
X90717264Y-69637174D01*
X90713430Y-69642829D01*
X90710905Y-69649165D01*
X90710899Y-69649177D01*
X90705495Y-69662740D01*
X90697572Y-69679084D01*
X90691690Y-69689272D01*
X90691689Y-69689275D01*
X90688390Y-69694990D01*
X90686352Y-69701260D01*
X90686347Y-69701273D01*
X90670836Y-69749010D01*
X90668056Y-69756707D01*
X90653407Y-69793476D01*
X90645907Y-69812300D01*
X90644803Y-69819028D01*
X90644800Y-69819042D01*
X90643005Y-69829993D01*
X90638502Y-69848527D01*
X90633910Y-69862663D01*
X90633220Y-69869222D01*
X90633220Y-69869225D01*
X90627607Y-69922624D01*
X90626637Y-69929834D01*
X90617498Y-69985581D01*
X90617497Y-69985586D01*
X90616393Y-69992325D01*
X90616763Y-69999145D01*
X90617173Y-70006714D01*
X90616668Y-70026702D01*
X90615481Y-70037999D01*
X85424000Y-70037999D01*
X85424000Y-65398001D01*
X92658383Y-65398001D01*
X92678782Y-65579048D01*
X92681117Y-65585721D01*
X92681118Y-65585725D01*
X92736618Y-65744336D01*
X92736620Y-65744340D01*
X92738956Y-65751016D01*
X92742718Y-65757004D01*
X92742720Y-65757007D01*
X92817379Y-65875826D01*
X92835888Y-65905282D01*
X92964718Y-66034112D01*
X92970712Y-66037878D01*
X92970713Y-66037879D01*
X92988208Y-66048872D01*
X93118984Y-66131044D01*
X93290952Y-66191218D01*
X93471999Y-66211617D01*
X93653046Y-66191218D01*
X93658247Y-66189397D01*
X93713536Y-66189397D01*
X93764059Y-66213726D01*
X93799022Y-66257568D01*
X93811500Y-66312238D01*
X93811500Y-67724741D01*
X93796899Y-67783617D01*
X93756478Y-67828847D01*
X93699607Y-67849949D01*
X93645980Y-67855991D01*
X93645977Y-67855991D01*
X93638953Y-67856783D01*
X93632280Y-67859117D01*
X93632275Y-67859119D01*
X93473664Y-67914619D01*
X93473656Y-67914622D01*
X93466985Y-67916957D01*
X93461000Y-67920717D01*
X93460993Y-67920721D01*
X93318714Y-68010121D01*
X93318707Y-68010126D01*
X93312719Y-68013889D01*
X93307714Y-68018893D01*
X93307710Y-68018897D01*
X93188897Y-68137710D01*
X93188893Y-68137714D01*
X93183889Y-68142719D01*
X93180126Y-68148707D01*
X93180121Y-68148714D01*
X93090721Y-68290993D01*
X93090717Y-68291000D01*
X93086957Y-68296985D01*
X93084622Y-68303656D01*
X93084619Y-68303664D01*
X93029119Y-68462275D01*
X93029117Y-68462280D01*
X93026783Y-68468953D01*
X93025991Y-68475979D01*
X93025991Y-68475981D01*
X93017666Y-68549865D01*
X93006384Y-68650000D01*
X93026783Y-68831047D01*
X93029118Y-68837720D01*
X93029119Y-68837724D01*
X93084619Y-68996335D01*
X93084621Y-68996339D01*
X93086957Y-69003015D01*
X93090719Y-69009003D01*
X93090721Y-69009006D01*
X93094362Y-69014800D01*
X93180501Y-69151889D01*
X93180502Y-69151891D01*
X93183889Y-69157281D01*
X93183025Y-69157823D01*
X93206801Y-69213736D01*
X93211500Y-69249431D01*
X93211500Y-69249436D01*
X93220743Y-69319640D01*
X93220743Y-69319642D01*
X93225648Y-69356899D01*
X93227162Y-69368402D01*
X93230319Y-69376025D01*
X93230321Y-69376030D01*
X93285315Y-69508797D01*
X93285316Y-69508800D01*
X93288476Y-69516427D01*
X93293502Y-69522978D01*
X93293504Y-69522980D01*
X93361523Y-69611623D01*
X93359813Y-69612935D01*
X93359814Y-69612937D01*
X93361525Y-69611625D01*
X93386013Y-69643538D01*
X93392558Y-69648560D01*
X93392562Y-69648564D01*
X93411379Y-69663003D01*
X93423770Y-69673870D01*
X94072595Y-70322695D01*
X94099909Y-70363572D01*
X94109500Y-70411790D01*
X94109500Y-71283440D01*
X94093778Y-71344389D01*
X94050536Y-71390127D01*
X94018714Y-71410121D01*
X94018707Y-71410126D01*
X94012719Y-71413889D01*
X94007714Y-71418893D01*
X94007710Y-71418897D01*
X93888897Y-71537710D01*
X93888893Y-71537714D01*
X93883889Y-71542719D01*
X93880126Y-71548707D01*
X93880121Y-71548714D01*
X93790721Y-71690993D01*
X93790717Y-71691000D01*
X93786957Y-71696985D01*
X93784622Y-71703656D01*
X93784619Y-71703664D01*
X93729119Y-71862275D01*
X93729117Y-71862280D01*
X93726783Y-71868953D01*
X93706384Y-72050000D01*
X93726783Y-72231047D01*
X93729118Y-72237720D01*
X93729119Y-72237724D01*
X93784619Y-72396335D01*
X93784621Y-72396339D01*
X93786957Y-72403015D01*
X93883889Y-72557281D01*
X94012719Y-72686111D01*
X94166985Y-72783043D01*
X94338953Y-72843217D01*
X94520000Y-72863616D01*
X94701047Y-72843217D01*
X94873015Y-72783043D01*
X95027281Y-72686111D01*
X95156111Y-72557281D01*
X95253043Y-72403015D01*
X95313217Y-72231047D01*
X95320141Y-72169589D01*
X95343843Y-72109049D01*
X95394571Y-72068383D01*
X95458815Y-72058420D01*
X95515362Y-72064500D01*
X97309269Y-72064500D01*
X97312638Y-72064500D01*
X97373201Y-72057989D01*
X97510204Y-72006889D01*
X97627261Y-71919261D01*
X97714889Y-71802204D01*
X97765989Y-71665201D01*
X97772500Y-71604638D01*
X97772500Y-70260240D01*
X97782091Y-70212022D01*
X97809404Y-70171145D01*
X97846500Y-70134049D01*
X97960238Y-70020309D01*
X97972626Y-70009447D01*
X97991437Y-69995013D01*
X97991437Y-69995012D01*
X97997987Y-69989987D01*
X98022474Y-69958074D01*
X98024300Y-69959475D01*
X98024303Y-69959471D01*
X98022478Y-69958071D01*
X98040863Y-69934111D01*
X98095524Y-69862876D01*
X98156838Y-69714851D01*
X98177751Y-69556000D01*
X98173577Y-69524301D01*
X98172500Y-69507856D01*
X98172500Y-68928000D01*
X98860844Y-68928000D01*
X98861274Y-68933189D01*
X98875944Y-69110236D01*
X98879436Y-69152368D01*
X98934704Y-69370616D01*
X98936797Y-69375389D01*
X98936799Y-69375393D01*
X99002116Y-69524302D01*
X99025140Y-69576791D01*
X99148278Y-69765268D01*
X99151806Y-69769100D01*
X99297227Y-69927069D01*
X99297231Y-69927073D01*
X99300760Y-69930906D01*
X99478424Y-70069189D01*
X99676426Y-70176342D01*
X99681355Y-70178034D01*
X99681357Y-70178035D01*
X99754629Y-70203189D01*
X99889365Y-70249444D01*
X100111431Y-70286500D01*
X100331358Y-70286500D01*
X100336569Y-70286500D01*
X100558635Y-70249444D01*
X100771574Y-70176342D01*
X100969576Y-70069189D01*
X101147240Y-69930906D01*
X101299722Y-69765268D01*
X101388518Y-69629354D01*
X101434030Y-69587457D01*
X101494000Y-69572271D01*
X101553970Y-69587457D01*
X101599481Y-69629354D01*
X101688278Y-69765268D01*
X101691806Y-69769100D01*
X101837227Y-69927069D01*
X101837231Y-69927073D01*
X101840760Y-69930906D01*
X102018424Y-70069189D01*
X102216426Y-70176342D01*
X102221355Y-70178034D01*
X102221357Y-70178035D01*
X102294629Y-70203189D01*
X102429365Y-70249444D01*
X102651431Y-70286500D01*
X102871358Y-70286500D01*
X102876569Y-70286500D01*
X103098635Y-70249444D01*
X103311574Y-70176342D01*
X103509576Y-70069189D01*
X103687240Y-69930906D01*
X103733276Y-69880898D01*
X103748244Y-69864639D01*
X103801716Y-69830238D01*
X103865178Y-69826328D01*
X103922469Y-69853904D01*
X103959000Y-69905943D01*
X103999959Y-70015757D01*
X103999963Y-70015765D01*
X104003111Y-70024204D01*
X104008508Y-70031414D01*
X104008510Y-70031417D01*
X104065672Y-70107776D01*
X104090739Y-70141261D01*
X104097950Y-70146659D01*
X104176582Y-70205523D01*
X104207796Y-70228889D01*
X104344799Y-70279989D01*
X104405362Y-70286500D01*
X106199269Y-70286500D01*
X106202638Y-70286500D01*
X106263201Y-70279989D01*
X106400204Y-70228889D01*
X106517261Y-70141261D01*
X106604889Y-70024204D01*
X106655989Y-69887201D01*
X106662500Y-69826638D01*
X106662500Y-68029362D01*
X106655989Y-67968799D01*
X106604889Y-67831796D01*
X106517261Y-67714739D01*
X106473713Y-67682139D01*
X106407417Y-67632510D01*
X106407414Y-67632508D01*
X106400204Y-67627111D01*
X106391766Y-67623964D01*
X106391763Y-67623962D01*
X106270580Y-67578763D01*
X106270578Y-67578762D01*
X106263201Y-67576011D01*
X106255373Y-67575169D01*
X106255367Y-67575168D01*
X106205988Y-67569860D01*
X106205985Y-67569859D01*
X106202638Y-67569500D01*
X104405362Y-67569500D01*
X104402015Y-67569859D01*
X104402011Y-67569860D01*
X104352632Y-67575168D01*
X104352625Y-67575169D01*
X104344799Y-67576011D01*
X104337423Y-67578761D01*
X104337419Y-67578763D01*
X104216236Y-67623962D01*
X104216230Y-67623965D01*
X104207796Y-67627111D01*
X104200588Y-67632506D01*
X104200582Y-67632510D01*
X104097950Y-67709340D01*
X104097946Y-67709343D01*
X104090739Y-67714739D01*
X104085343Y-67721946D01*
X104085340Y-67721950D01*
X104008510Y-67824582D01*
X104008506Y-67824588D01*
X104003111Y-67831796D01*
X103999964Y-67840231D01*
X103999960Y-67840240D01*
X103959000Y-67950057D01*
X103922468Y-68002095D01*
X103865178Y-68029671D01*
X103801717Y-68025761D01*
X103748244Y-67991361D01*
X103690772Y-67928931D01*
X103690771Y-67928930D01*
X103687240Y-67925094D01*
X103509576Y-67786811D01*
X103504997Y-67784333D01*
X103504994Y-67784331D01*
X103316159Y-67682139D01*
X103316156Y-67682137D01*
X103311574Y-67679658D01*
X103306650Y-67677967D01*
X103306642Y-67677964D01*
X103103565Y-67608248D01*
X103103559Y-67608246D01*
X103098635Y-67606556D01*
X103093498Y-67605698D01*
X103093495Y-67605698D01*
X102881706Y-67570357D01*
X102881703Y-67570356D01*
X102876569Y-67569500D01*
X102651431Y-67569500D01*
X102646297Y-67570356D01*
X102646293Y-67570357D01*
X102434504Y-67605698D01*
X102434498Y-67605699D01*
X102429365Y-67606556D01*
X102424443Y-67608245D01*
X102424434Y-67608248D01*
X102221357Y-67677964D01*
X102221344Y-67677969D01*
X102216426Y-67679658D01*
X102211847Y-67682135D01*
X102211840Y-67682139D01*
X102023005Y-67784331D01*
X102022997Y-67784336D01*
X102018424Y-67786811D01*
X102014313Y-67790010D01*
X102014311Y-67790012D01*
X101844878Y-67921888D01*
X101844872Y-67921893D01*
X101840760Y-67925094D01*
X101837237Y-67928919D01*
X101837227Y-67928930D01*
X101691806Y-68086899D01*
X101691802Y-68086902D01*
X101688278Y-68090732D01*
X101685430Y-68095090D01*
X101685427Y-68095095D01*
X101599483Y-68226643D01*
X101553969Y-68268542D01*
X101494000Y-68283728D01*
X101434031Y-68268542D01*
X101388517Y-68226643D01*
X101346823Y-68162826D01*
X101299722Y-68090732D01*
X101180680Y-67961419D01*
X101150772Y-67928930D01*
X101150767Y-67928925D01*
X101147240Y-67925094D01*
X100969576Y-67786811D01*
X100964997Y-67784333D01*
X100964994Y-67784331D01*
X100776159Y-67682139D01*
X100776156Y-67682137D01*
X100771574Y-67679658D01*
X100766650Y-67677967D01*
X100766642Y-67677964D01*
X100563565Y-67608248D01*
X100563559Y-67608246D01*
X100558635Y-67606556D01*
X100553498Y-67605698D01*
X100553495Y-67605698D01*
X100341706Y-67570357D01*
X100341703Y-67570356D01*
X100336569Y-67569500D01*
X100111431Y-67569500D01*
X100106297Y-67570356D01*
X100106293Y-67570357D01*
X99894504Y-67605698D01*
X99894498Y-67605699D01*
X99889365Y-67606556D01*
X99884443Y-67608245D01*
X99884434Y-67608248D01*
X99681357Y-67677964D01*
X99681344Y-67677969D01*
X99676426Y-67679658D01*
X99671847Y-67682135D01*
X99671840Y-67682139D01*
X99483005Y-67784331D01*
X99482997Y-67784336D01*
X99478424Y-67786811D01*
X99474313Y-67790010D01*
X99474311Y-67790012D01*
X99304878Y-67921888D01*
X99304872Y-67921893D01*
X99300760Y-67925094D01*
X99297237Y-67928919D01*
X99297227Y-67928930D01*
X99151806Y-68086899D01*
X99151802Y-68086902D01*
X99148278Y-68090732D01*
X99145430Y-68095090D01*
X99145427Y-68095095D01*
X99027992Y-68274843D01*
X99025140Y-68279209D01*
X99023048Y-68283978D01*
X99023046Y-68283982D01*
X98936799Y-68480606D01*
X98936796Y-68480614D01*
X98934704Y-68485384D01*
X98933423Y-68490440D01*
X98933422Y-68490445D01*
X98887132Y-68673241D01*
X98879436Y-68703632D01*
X98879006Y-68708820D01*
X98879005Y-68708827D01*
X98863664Y-68893964D01*
X98860844Y-68928000D01*
X98172500Y-68928000D01*
X98172500Y-64150000D01*
X104006496Y-64150000D01*
X104007186Y-64156565D01*
X104018749Y-64266586D01*
X104026458Y-64339928D01*
X104028495Y-64346200D01*
X104028497Y-64346205D01*
X104083430Y-64515271D01*
X104083433Y-64515278D01*
X104085473Y-64521556D01*
X104141536Y-64618659D01*
X104169010Y-64666247D01*
X104180960Y-64686944D01*
X104308747Y-64828866D01*
X104314089Y-64832747D01*
X104314091Y-64832749D01*
X104351770Y-64860124D01*
X104463248Y-64941118D01*
X104637712Y-65018794D01*
X104824513Y-65058500D01*
X105008884Y-65058500D01*
X105015487Y-65058500D01*
X105202288Y-65018794D01*
X105376752Y-64941118D01*
X105531253Y-64828866D01*
X105659040Y-64686944D01*
X105754527Y-64521556D01*
X105756570Y-64515267D01*
X105759253Y-64509243D01*
X105760099Y-64509619D01*
X105785465Y-64467321D01*
X105832791Y-64436434D01*
X105888858Y-64429339D01*
X105942386Y-64447465D01*
X106051867Y-64514994D01*
X106065079Y-64521154D01*
X106214237Y-64570581D01*
X106227601Y-64573442D01*
X106317971Y-64582674D01*
X106324361Y-64583000D01*
X106349410Y-64583000D01*
X106362493Y-64579493D01*
X106366000Y-64566410D01*
X106874000Y-64566410D01*
X106877506Y-64579493D01*
X106890590Y-64583000D01*
X106915639Y-64583000D01*
X106922028Y-64582674D01*
X107012398Y-64573442D01*
X107025762Y-64570581D01*
X107174920Y-64521154D01*
X107188132Y-64514994D01*
X107321480Y-64432744D01*
X107338670Y-64419152D01*
X107339798Y-64420579D01*
X107387389Y-64393102D01*
X107452611Y-64393102D01*
X107500201Y-64420579D01*
X107501330Y-64419152D01*
X107518519Y-64432744D01*
X107651867Y-64514994D01*
X107665079Y-64521154D01*
X107814237Y-64570581D01*
X107827601Y-64573442D01*
X107917971Y-64582674D01*
X107924361Y-64583000D01*
X107949410Y-64583000D01*
X107962493Y-64579493D01*
X107966000Y-64566410D01*
X107966000Y-63895590D01*
X107962493Y-63882506D01*
X107949410Y-63879000D01*
X106890590Y-63879000D01*
X106877506Y-63882506D01*
X106874000Y-63895590D01*
X106874000Y-64566410D01*
X106366000Y-64566410D01*
X106366000Y-63497000D01*
X106382881Y-63434000D01*
X106429000Y-63387881D01*
X106492000Y-63371000D01*
X110810410Y-63371000D01*
X110823493Y-63367493D01*
X110827000Y-63354410D01*
X110827000Y-63354362D01*
X110826674Y-63347971D01*
X110817442Y-63257601D01*
X110814581Y-63244237D01*
X110765154Y-63095079D01*
X110758994Y-63081867D01*
X110737904Y-63047675D01*
X110719302Y-62987809D01*
X110731851Y-62926387D01*
X110772446Y-62878616D01*
X110831037Y-62856320D01*
X110952400Y-62842646D01*
X111124368Y-62782472D01*
X111131237Y-62778155D01*
X111131785Y-62777812D01*
X111132864Y-62777501D01*
X111136735Y-62775637D01*
X111137051Y-62776294D01*
X111198819Y-62758500D01*
X115581075Y-62758500D01*
X115638278Y-62772233D01*
X115683011Y-62810439D01*
X115705524Y-62864789D01*
X115700908Y-62923436D01*
X115670171Y-62973593D01*
X114440122Y-64203642D01*
X114036347Y-64607417D01*
X113988867Y-64637250D01*
X113933143Y-64643529D01*
X113880215Y-64625007D01*
X113840564Y-64585355D01*
X113839084Y-64583000D01*
X113830111Y-64568719D01*
X113701281Y-64439889D01*
X113695287Y-64436123D01*
X113695285Y-64436121D01*
X113553006Y-64346721D01*
X113553003Y-64346719D01*
X113547015Y-64342957D01*
X113540339Y-64340621D01*
X113540335Y-64340619D01*
X113381724Y-64285119D01*
X113381720Y-64285118D01*
X113375047Y-64282783D01*
X113360287Y-64281120D01*
X113231294Y-64266586D01*
X113194000Y-64262384D01*
X113160813Y-64266123D01*
X113019981Y-64281991D01*
X113019979Y-64281991D01*
X113012953Y-64282783D01*
X113006280Y-64285117D01*
X113006275Y-64285119D01*
X112847664Y-64340619D01*
X112847656Y-64340622D01*
X112840985Y-64342957D01*
X112835000Y-64346717D01*
X112834993Y-64346721D01*
X112692714Y-64436121D01*
X112692707Y-64436126D01*
X112686719Y-64439889D01*
X112681714Y-64444893D01*
X112681710Y-64444897D01*
X112562897Y-64563710D01*
X112562893Y-64563714D01*
X112557889Y-64568719D01*
X112554126Y-64574707D01*
X112554121Y-64574714D01*
X112464721Y-64716993D01*
X112464717Y-64717000D01*
X112460957Y-64722985D01*
X112458622Y-64729656D01*
X112458619Y-64729664D01*
X112403119Y-64888275D01*
X112403117Y-64888280D01*
X112400783Y-64894953D01*
X112399991Y-64901979D01*
X112399991Y-64901981D01*
X112388583Y-65003229D01*
X112380384Y-65076000D01*
X112400783Y-65257047D01*
X112403118Y-65263720D01*
X112403119Y-65263724D01*
X112458619Y-65422335D01*
X112458621Y-65422339D01*
X112460957Y-65429015D01*
X112464719Y-65435003D01*
X112464721Y-65435006D01*
X112550812Y-65572019D01*
X112557889Y-65583281D01*
X112686719Y-65712111D01*
X112692715Y-65715879D01*
X112692717Y-65715880D01*
X112703357Y-65722566D01*
X112743008Y-65762217D01*
X112761528Y-65815145D01*
X112755249Y-65870868D01*
X112725415Y-65918348D01*
X111972780Y-66670982D01*
X111925051Y-66700902D01*
X111869054Y-66707034D01*
X111815981Y-66688151D01*
X111782030Y-66653698D01*
X111781298Y-66654278D01*
X111763152Y-66631330D01*
X111764681Y-66630120D01*
X111737455Y-66582964D01*
X111737455Y-66517742D01*
X111764961Y-66470101D01*
X111763546Y-66468982D01*
X111768090Y-66463234D01*
X111773285Y-66458040D01*
X111863302Y-66312101D01*
X111917236Y-66149336D01*
X111927500Y-66048872D01*
X111927500Y-65501128D01*
X111917236Y-65400664D01*
X111863302Y-65237899D01*
X111773285Y-65091960D01*
X111652040Y-64970715D01*
X111639830Y-64963184D01*
X111512343Y-64884548D01*
X111512342Y-64884547D01*
X111506101Y-64880698D01*
X111499139Y-64878391D01*
X111499137Y-64878390D01*
X111349861Y-64828926D01*
X111349859Y-64828925D01*
X111343336Y-64826764D01*
X111336499Y-64826065D01*
X111336497Y-64826065D01*
X111246056Y-64816825D01*
X111246050Y-64816824D01*
X111242872Y-64816500D01*
X110653709Y-64816500D01*
X110594833Y-64801898D01*
X110549603Y-64761478D01*
X110528501Y-64704607D01*
X110528082Y-64700889D01*
X110513217Y-64568953D01*
X110510878Y-64562269D01*
X110509305Y-64555376D01*
X110510964Y-64554997D01*
X110505828Y-64515805D01*
X110520228Y-64466203D01*
X110553319Y-64426545D01*
X110556924Y-64423694D01*
X110667697Y-64312921D01*
X110676744Y-64301480D01*
X110758994Y-64168132D01*
X110765154Y-64154920D01*
X110814581Y-64005762D01*
X110817442Y-63992398D01*
X110826674Y-63902028D01*
X110827000Y-63895639D01*
X110827000Y-63895590D01*
X110823493Y-63882506D01*
X110810410Y-63879000D01*
X108490590Y-63879000D01*
X108477506Y-63882506D01*
X108474000Y-63895590D01*
X108474000Y-64566410D01*
X108477506Y-64579493D01*
X108490590Y-64583000D01*
X108515639Y-64583000D01*
X108522028Y-64582674D01*
X108612398Y-64573442D01*
X108625759Y-64570581D01*
X108751381Y-64528954D01*
X108813667Y-64524611D01*
X108870390Y-64550703D01*
X108907623Y-64600823D01*
X108916223Y-64662664D01*
X108914295Y-64679777D01*
X108894932Y-64727862D01*
X108897632Y-64729421D01*
X108893503Y-64736572D01*
X108888476Y-64743124D01*
X108885316Y-64750752D01*
X108885313Y-64750758D01*
X108844043Y-64850391D01*
X108823199Y-64884291D01*
X108792821Y-64909999D01*
X108704845Y-64963184D01*
X108699456Y-64968572D01*
X108699452Y-64968576D01*
X108588576Y-65079452D01*
X108588572Y-65079456D01*
X108583184Y-65084845D01*
X108579243Y-65091364D01*
X108579240Y-65091368D01*
X108498116Y-65225563D01*
X108498113Y-65225568D01*
X108494173Y-65232087D01*
X108491906Y-65239360D01*
X108491905Y-65239364D01*
X108444970Y-65389986D01*
X108442987Y-65396351D01*
X108442384Y-65402981D01*
X108442383Y-65402989D01*
X108436758Y-65464885D01*
X108436757Y-65464906D01*
X108436500Y-65467735D01*
X108436500Y-65470595D01*
X108436500Y-65470596D01*
X108436500Y-65979400D01*
X108436500Y-65979421D01*
X108436501Y-65982264D01*
X108436759Y-65985113D01*
X108436760Y-65985116D01*
X108442383Y-66047011D01*
X108442384Y-66047019D01*
X108442987Y-66053649D01*
X108444968Y-66060008D01*
X108444969Y-66060010D01*
X108485126Y-66188881D01*
X108494173Y-66217913D01*
X108498115Y-66224434D01*
X108498116Y-66224436D01*
X108564471Y-66334200D01*
X108583184Y-66365155D01*
X108588576Y-66370546D01*
X108588576Y-66370547D01*
X108678934Y-66460905D01*
X108711546Y-66517389D01*
X108711546Y-66582611D01*
X108678934Y-66639095D01*
X108588576Y-66729452D01*
X108588572Y-66729456D01*
X108583184Y-66734845D01*
X108579243Y-66741364D01*
X108579240Y-66741368D01*
X108498116Y-66875563D01*
X108498113Y-66875568D01*
X108494173Y-66882087D01*
X108491906Y-66889360D01*
X108491905Y-66889364D01*
X108447568Y-67031649D01*
X108442987Y-67046351D01*
X108442384Y-67052981D01*
X108442383Y-67052989D01*
X108436758Y-67114885D01*
X108436757Y-67114906D01*
X108436500Y-67117735D01*
X108436500Y-67120595D01*
X108436500Y-67120596D01*
X108436500Y-67629400D01*
X108436500Y-67629421D01*
X108436501Y-67632264D01*
X108436759Y-67635113D01*
X108436760Y-67635116D01*
X108442383Y-67697009D01*
X108442384Y-67697015D01*
X108442987Y-67703649D01*
X108444969Y-67710010D01*
X108444971Y-67710019D01*
X108445948Y-67713154D01*
X108451049Y-67762932D01*
X108436373Y-67810770D01*
X108410488Y-67841658D01*
X108411303Y-67842473D01*
X108287481Y-67966294D01*
X108287477Y-67966298D01*
X108282473Y-67971303D01*
X108278710Y-67977291D01*
X108278705Y-67977298D01*
X108189305Y-68119577D01*
X108189301Y-68119584D01*
X108185541Y-68125569D01*
X108183206Y-68132240D01*
X108183203Y-68132248D01*
X108127703Y-68290859D01*
X108127701Y-68290864D01*
X108125367Y-68297537D01*
X108124575Y-68304563D01*
X108124575Y-68304565D01*
X108115644Y-68383835D01*
X108104968Y-68478584D01*
X108125367Y-68659631D01*
X108127702Y-68666304D01*
X108127703Y-68666308D01*
X108183203Y-68824919D01*
X108183205Y-68824923D01*
X108185541Y-68831599D01*
X108189303Y-68837587D01*
X108189305Y-68837590D01*
X108259722Y-68949658D01*
X108282473Y-68985865D01*
X108411303Y-69114695D01*
X108417297Y-69118461D01*
X108417298Y-69118462D01*
X108559577Y-69207862D01*
X108565569Y-69211627D01*
X108737537Y-69271801D01*
X108918584Y-69292200D01*
X109099631Y-69271801D01*
X109271599Y-69211627D01*
X109408984Y-69125301D01*
X109475856Y-69105990D01*
X109542780Y-69125132D01*
X109589329Y-69176886D01*
X109601295Y-69245458D01*
X109596209Y-69292770D01*
X109595500Y-69299362D01*
X109595500Y-71096638D01*
X109595859Y-71099985D01*
X109595860Y-71099988D01*
X109601168Y-71149367D01*
X109601169Y-71149373D01*
X109602011Y-71157201D01*
X109604762Y-71164578D01*
X109604763Y-71164580D01*
X109649962Y-71285763D01*
X109649964Y-71285766D01*
X109653111Y-71294204D01*
X109658508Y-71301414D01*
X109658510Y-71301417D01*
X109728218Y-71394535D01*
X109740739Y-71411261D01*
X109857796Y-71498889D01*
X109994799Y-71549989D01*
X110055362Y-71556500D01*
X111849269Y-71556500D01*
X111852638Y-71556500D01*
X111913201Y-71549989D01*
X112050204Y-71498889D01*
X112167261Y-71411261D01*
X112254889Y-71294204D01*
X112298998Y-71175943D01*
X112335530Y-71123904D01*
X112392820Y-71096328D01*
X112456282Y-71100238D01*
X112509755Y-71134638D01*
X112526114Y-71152408D01*
X112570760Y-71200906D01*
X112748424Y-71339189D01*
X112946426Y-71446342D01*
X112951355Y-71448034D01*
X112951357Y-71448035D01*
X112965476Y-71452882D01*
X113159365Y-71519444D01*
X113381431Y-71556500D01*
X113601358Y-71556500D01*
X113606569Y-71556500D01*
X113828635Y-71519444D01*
X114041574Y-71446342D01*
X114239576Y-71339189D01*
X114417240Y-71200906D01*
X114569722Y-71035268D01*
X114658518Y-70899354D01*
X114704030Y-70857457D01*
X114764000Y-70842271D01*
X114823970Y-70857457D01*
X114869481Y-70899354D01*
X114958278Y-71035268D01*
X114993907Y-71073971D01*
X115107227Y-71197069D01*
X115107231Y-71197073D01*
X115110760Y-71200906D01*
X115288424Y-71339189D01*
X115486426Y-71446342D01*
X115491355Y-71448034D01*
X115491357Y-71448035D01*
X115505476Y-71452882D01*
X115699365Y-71519444D01*
X115921431Y-71556500D01*
X116141358Y-71556500D01*
X116146569Y-71556500D01*
X116368635Y-71519444D01*
X116581574Y-71446342D01*
X116779576Y-71339189D01*
X116957240Y-71200906D01*
X117109722Y-71035268D01*
X117232860Y-70846791D01*
X117323296Y-70640616D01*
X117378564Y-70422368D01*
X117397156Y-70198000D01*
X117378564Y-69973632D01*
X117323296Y-69755384D01*
X117232860Y-69549209D01*
X117109722Y-69360732D01*
X117028125Y-69272095D01*
X116960772Y-69198930D01*
X116960767Y-69198925D01*
X116957240Y-69195094D01*
X116779576Y-69056811D01*
X116774997Y-69054333D01*
X116774994Y-69054331D01*
X116586159Y-68952139D01*
X116586156Y-68952137D01*
X116581574Y-68949658D01*
X116576650Y-68947967D01*
X116576642Y-68947964D01*
X116373565Y-68878248D01*
X116373559Y-68878246D01*
X116368635Y-68876556D01*
X116363498Y-68875698D01*
X116363495Y-68875698D01*
X116151706Y-68840357D01*
X116151703Y-68840356D01*
X116146569Y-68839500D01*
X115921431Y-68839500D01*
X115916297Y-68840356D01*
X115916293Y-68840357D01*
X115704504Y-68875698D01*
X115704498Y-68875699D01*
X115699365Y-68876556D01*
X115694443Y-68878245D01*
X115694434Y-68878248D01*
X115491357Y-68947964D01*
X115491344Y-68947969D01*
X115486426Y-68949658D01*
X115481847Y-68952135D01*
X115481840Y-68952139D01*
X115293005Y-69054331D01*
X115292997Y-69054336D01*
X115288424Y-69056811D01*
X115284313Y-69060010D01*
X115284311Y-69060012D01*
X115114878Y-69191888D01*
X115114872Y-69191893D01*
X115110760Y-69195094D01*
X115107237Y-69198919D01*
X115107227Y-69198930D01*
X114961806Y-69356899D01*
X114961802Y-69356902D01*
X114958278Y-69360732D01*
X114955430Y-69365090D01*
X114955427Y-69365095D01*
X114869483Y-69496643D01*
X114823969Y-69538542D01*
X114764000Y-69553728D01*
X114704031Y-69538542D01*
X114658517Y-69496643D01*
X114614469Y-69429223D01*
X114569722Y-69360732D01*
X114488125Y-69272095D01*
X114420772Y-69198930D01*
X114420767Y-69198925D01*
X114417240Y-69195094D01*
X114239576Y-69056811D01*
X114234997Y-69054333D01*
X114234994Y-69054331D01*
X114046159Y-68952139D01*
X114046156Y-68952137D01*
X114041574Y-68949658D01*
X114036650Y-68947967D01*
X114036642Y-68947964D01*
X113833565Y-68878248D01*
X113833559Y-68878246D01*
X113828635Y-68876556D01*
X113823498Y-68875698D01*
X113823495Y-68875698D01*
X113611706Y-68840357D01*
X113611703Y-68840356D01*
X113606569Y-68839500D01*
X113381431Y-68839500D01*
X113376297Y-68840356D01*
X113376293Y-68840357D01*
X113164504Y-68875698D01*
X113164498Y-68875699D01*
X113159365Y-68876556D01*
X113154443Y-68878245D01*
X113154434Y-68878248D01*
X112951357Y-68947964D01*
X112951344Y-68947969D01*
X112946426Y-68949658D01*
X112941847Y-68952135D01*
X112941840Y-68952139D01*
X112753005Y-69054331D01*
X112752997Y-69054336D01*
X112748424Y-69056811D01*
X112744313Y-69060010D01*
X112744311Y-69060012D01*
X112574878Y-69191888D01*
X112574872Y-69191893D01*
X112570760Y-69195094D01*
X112567237Y-69198920D01*
X112567226Y-69198931D01*
X112509754Y-69261362D01*
X112456281Y-69295761D01*
X112392820Y-69299671D01*
X112335530Y-69272095D01*
X112298998Y-69220056D01*
X112273346Y-69151282D01*
X112254889Y-69101796D01*
X112167261Y-68984739D01*
X112123713Y-68952139D01*
X112057417Y-68902510D01*
X112057414Y-68902508D01*
X112050204Y-68897111D01*
X112041766Y-68893964D01*
X112041763Y-68893962D01*
X111920580Y-68848763D01*
X111920578Y-68848762D01*
X111913201Y-68846011D01*
X111905373Y-68845169D01*
X111905367Y-68845168D01*
X111855988Y-68839860D01*
X111855985Y-68839859D01*
X111852638Y-68839500D01*
X111849269Y-68839500D01*
X111829553Y-68839500D01*
X111772350Y-68825767D01*
X111727617Y-68787561D01*
X111705104Y-68733211D01*
X111709720Y-68674564D01*
X111740458Y-68624405D01*
X113170640Y-67194222D01*
X113227124Y-67161610D01*
X113292346Y-67161610D01*
X113348830Y-67194222D01*
X113432719Y-67278111D01*
X113586985Y-67375043D01*
X113758953Y-67435217D01*
X113940000Y-67455616D01*
X114121047Y-67435217D01*
X114293015Y-67375043D01*
X114447281Y-67278111D01*
X114576111Y-67149281D01*
X114673043Y-66995015D01*
X114733217Y-66823047D01*
X114753616Y-66642000D01*
X114733217Y-66460953D01*
X114691030Y-66340391D01*
X114687119Y-66270739D01*
X114720863Y-66209684D01*
X114733289Y-66197258D01*
X114785245Y-66165952D01*
X114845811Y-66162552D01*
X114900946Y-66187848D01*
X114900955Y-66187855D01*
X114905965Y-66192865D01*
X115060231Y-66289797D01*
X115232199Y-66349971D01*
X115413246Y-66370370D01*
X115420274Y-66369578D01*
X115420280Y-66369578D01*
X115431628Y-66368299D01*
X115465435Y-66369054D01*
X115472024Y-66370098D01*
X115483617Y-66372498D01*
X115526462Y-66383500D01*
X115546716Y-66383500D01*
X115566426Y-66385050D01*
X115586435Y-66388220D01*
X115630453Y-66384058D01*
X115642311Y-66383500D01*
X130831573Y-66383500D01*
X130879791Y-66393091D01*
X130920668Y-66420405D01*
X140867509Y-76367246D01*
X140875051Y-76375533D01*
X140879167Y-76382018D01*
X140884946Y-76387444D01*
X140884947Y-76387446D01*
X140928834Y-76428658D01*
X140931676Y-76431413D01*
X140951398Y-76451135D01*
X140954526Y-76453561D01*
X140954527Y-76453562D01*
X140954581Y-76453604D01*
X140963613Y-76461317D01*
X140995846Y-76491586D01*
X141002791Y-76495404D01*
X141013597Y-76501345D01*
X141030123Y-76512201D01*
X141039857Y-76519751D01*
X141039859Y-76519752D01*
X141046127Y-76524614D01*
X141086697Y-76542170D01*
X141097353Y-76547390D01*
X141129160Y-76564876D01*
X141136107Y-76568695D01*
X141155733Y-76573734D01*
X141174426Y-76580134D01*
X141193022Y-76588181D01*
X141200853Y-76589421D01*
X141200856Y-76589422D01*
X141217295Y-76592025D01*
X141236692Y-76595097D01*
X141248292Y-76597498D01*
X141291137Y-76608500D01*
X141311391Y-76608500D01*
X141331101Y-76610050D01*
X141351110Y-76613220D01*
X141395128Y-76609058D01*
X141406986Y-76608500D01*
X145516233Y-76608500D01*
X145527416Y-76609027D01*
X145534909Y-76610702D01*
X145602985Y-76608562D01*
X145606945Y-76608500D01*
X145630894Y-76608500D01*
X145634856Y-76608500D01*
X145638856Y-76607994D01*
X145650699Y-76607061D01*
X145694889Y-76605673D01*
X145714333Y-76600023D01*
X145733702Y-76596012D01*
X145753797Y-76593474D01*
X145794915Y-76577193D01*
X145806117Y-76573357D01*
X145848593Y-76561018D01*
X145866039Y-76550699D01*
X145883769Y-76542013D01*
X145902617Y-76534552D01*
X145938387Y-76508561D01*
X145948298Y-76502051D01*
X145986362Y-76479542D01*
X146000688Y-76465215D01*
X146015717Y-76452378D01*
X146032107Y-76440472D01*
X146060294Y-76406397D01*
X146068272Y-76397630D01*
X146341541Y-76124361D01*
X146396433Y-76092189D01*
X146460045Y-76090939D01*
X146683289Y-76144535D01*
X146920000Y-76163165D01*
X147156711Y-76144535D01*
X147387594Y-76089105D01*
X147606963Y-75998240D01*
X147809416Y-75874176D01*
X147989969Y-75719969D01*
X148064573Y-75632619D01*
X155800183Y-75632619D01*
X155808286Y-75640565D01*
X155979044Y-75745206D01*
X155987839Y-75749687D01*
X156197987Y-75836733D01*
X156207373Y-75839783D01*
X156428554Y-75892884D01*
X156438300Y-75894428D01*
X156665070Y-75912275D01*
X156674930Y-75912275D01*
X156901699Y-75894428D01*
X156911445Y-75892884D01*
X157132626Y-75839783D01*
X157142012Y-75836733D01*
X157352162Y-75749686D01*
X157360957Y-75745205D01*
X157531708Y-75640568D01*
X157539814Y-75632619D01*
X162300183Y-75632619D01*
X162308286Y-75640565D01*
X162479044Y-75745206D01*
X162487839Y-75749687D01*
X162697987Y-75836733D01*
X162707373Y-75839783D01*
X162928554Y-75892884D01*
X162938300Y-75894428D01*
X163165070Y-75912275D01*
X163174930Y-75912275D01*
X163401699Y-75894428D01*
X163411445Y-75892884D01*
X163632626Y-75839783D01*
X163642012Y-75836733D01*
X163852162Y-75749686D01*
X163860957Y-75745205D01*
X164031708Y-75640568D01*
X164039814Y-75632619D01*
X164033787Y-75622997D01*
X163181729Y-74770939D01*
X163169999Y-74764167D01*
X163158271Y-74770938D01*
X162306208Y-75623000D01*
X162300183Y-75632619D01*
X157539814Y-75632619D01*
X157533787Y-75622997D01*
X156681729Y-74770939D01*
X156669999Y-74764167D01*
X156658271Y-74770938D01*
X155806208Y-75623000D01*
X155800183Y-75632619D01*
X148064573Y-75632619D01*
X148144176Y-75539416D01*
X148268240Y-75336963D01*
X148359105Y-75117594D01*
X148414535Y-74886711D01*
X148433165Y-74650000D01*
X148414535Y-74413289D01*
X148412528Y-74404930D01*
X155157725Y-74404930D01*
X155175571Y-74631699D01*
X155177115Y-74641445D01*
X155230216Y-74862626D01*
X155233266Y-74872012D01*
X155320312Y-75082160D01*
X155324793Y-75090955D01*
X155429433Y-75261712D01*
X155437379Y-75269816D01*
X155446997Y-75263791D01*
X156299059Y-74411730D01*
X156305832Y-74399999D01*
X157034167Y-74399999D01*
X157040939Y-74411729D01*
X157892997Y-75263787D01*
X157902619Y-75269814D01*
X157910568Y-75261708D01*
X158015205Y-75090957D01*
X158019686Y-75082162D01*
X158106733Y-74872012D01*
X158109783Y-74862626D01*
X158162884Y-74641445D01*
X158164428Y-74631699D01*
X158182275Y-74404930D01*
X161657725Y-74404930D01*
X161675571Y-74631699D01*
X161677115Y-74641445D01*
X161730216Y-74862626D01*
X161733266Y-74872012D01*
X161820312Y-75082160D01*
X161824793Y-75090955D01*
X161929433Y-75261712D01*
X161937379Y-75269816D01*
X161946997Y-75263791D01*
X162799059Y-74411730D01*
X162805832Y-74399999D01*
X162799060Y-74388270D01*
X161946999Y-73536209D01*
X161937378Y-73530183D01*
X161929433Y-73538285D01*
X161824793Y-73709044D01*
X161820312Y-73717839D01*
X161733266Y-73927987D01*
X161730216Y-73937373D01*
X161677115Y-74158554D01*
X161675571Y-74168300D01*
X161657725Y-74395070D01*
X161657725Y-74404930D01*
X158182275Y-74404930D01*
X158182275Y-74395070D01*
X158164428Y-74168300D01*
X158162884Y-74158554D01*
X158109783Y-73937373D01*
X158106733Y-73927987D01*
X158019687Y-73717839D01*
X158015206Y-73709044D01*
X157910565Y-73538286D01*
X157902619Y-73530183D01*
X157893000Y-73536208D01*
X157040938Y-74388271D01*
X157034167Y-74399999D01*
X156305832Y-74399999D01*
X156299060Y-74388270D01*
X155446999Y-73536209D01*
X155437378Y-73530183D01*
X155429433Y-73538285D01*
X155324793Y-73709044D01*
X155320312Y-73717839D01*
X155233266Y-73927987D01*
X155230216Y-73937373D01*
X155177115Y-74158554D01*
X155175571Y-74168300D01*
X155157725Y-74395070D01*
X155157725Y-74404930D01*
X148412528Y-74404930D01*
X148359105Y-74182406D01*
X148268240Y-73963037D01*
X148144176Y-73760584D01*
X148124963Y-73738089D01*
X147993176Y-73583786D01*
X147989969Y-73580031D01*
X147931605Y-73530183D01*
X147813175Y-73429034D01*
X147813171Y-73429031D01*
X147809416Y-73425824D01*
X147606963Y-73301760D01*
X147587440Y-73293673D01*
X147392167Y-73212789D01*
X147392164Y-73212788D01*
X147387594Y-73210895D01*
X147382786Y-73209740D01*
X147382781Y-73209739D01*
X147206334Y-73167378D01*
X155800183Y-73167378D01*
X155806209Y-73176999D01*
X156658270Y-74029060D01*
X156669999Y-74035832D01*
X156681730Y-74029059D01*
X157533791Y-73176997D01*
X157539816Y-73167379D01*
X157539815Y-73167378D01*
X162300183Y-73167378D01*
X162306209Y-73176999D01*
X163158270Y-74029060D01*
X163169999Y-74035832D01*
X163181730Y-74029059D01*
X164033791Y-73176997D01*
X164039816Y-73167379D01*
X164031712Y-73159433D01*
X163860955Y-73054793D01*
X163852160Y-73050312D01*
X163642012Y-72963266D01*
X163632626Y-72960216D01*
X163411445Y-72907115D01*
X163401699Y-72905571D01*
X163174930Y-72887725D01*
X163165070Y-72887725D01*
X162938300Y-72905571D01*
X162928554Y-72907115D01*
X162707373Y-72960216D01*
X162697987Y-72963266D01*
X162487839Y-73050312D01*
X162479044Y-73054793D01*
X162308285Y-73159433D01*
X162300183Y-73167378D01*
X157539815Y-73167378D01*
X157531712Y-73159433D01*
X157360955Y-73054793D01*
X157352160Y-73050312D01*
X157142012Y-72963266D01*
X157132626Y-72960216D01*
X156911445Y-72907115D01*
X156901699Y-72905571D01*
X156674930Y-72887725D01*
X156665070Y-72887725D01*
X156438300Y-72905571D01*
X156428554Y-72907115D01*
X156207373Y-72960216D01*
X156197987Y-72963266D01*
X155987839Y-73050312D01*
X155979044Y-73054793D01*
X155808285Y-73159433D01*
X155800183Y-73167378D01*
X147206334Y-73167378D01*
X147161523Y-73156620D01*
X147161519Y-73156619D01*
X147156711Y-73155465D01*
X147151785Y-73155077D01*
X147151777Y-73155076D01*
X146924930Y-73137223D01*
X146920000Y-73136835D01*
X146915070Y-73137223D01*
X146688222Y-73155076D01*
X146688212Y-73155077D01*
X146683289Y-73155465D01*
X146678482Y-73156619D01*
X146678476Y-73156620D01*
X146457218Y-73209739D01*
X146457209Y-73209741D01*
X146452406Y-73210895D01*
X146447838Y-73212786D01*
X146447832Y-73212789D01*
X146237611Y-73299865D01*
X146237606Y-73299867D01*
X146233037Y-73301760D01*
X146228817Y-73304345D01*
X146228817Y-73304346D01*
X146034798Y-73423241D01*
X146034792Y-73423245D01*
X146030584Y-73425824D01*
X146026834Y-73429026D01*
X146026824Y-73429034D01*
X145853786Y-73576823D01*
X145853779Y-73576829D01*
X145850031Y-73580031D01*
X145846829Y-73583779D01*
X145846823Y-73583786D01*
X145715036Y-73738089D01*
X145678077Y-73767669D01*
X145667363Y-73770947D01*
X145642999Y-73786209D01*
X144509094Y-74920114D01*
X144452610Y-74952726D01*
X144387388Y-74952726D01*
X144330904Y-74920114D01*
X143196999Y-73786209D01*
X143172635Y-73770947D01*
X143161922Y-73767669D01*
X143124963Y-73738088D01*
X142993182Y-73583792D01*
X142993176Y-73583786D01*
X142989969Y-73580031D01*
X142931605Y-73530183D01*
X142813175Y-73429034D01*
X142813171Y-73429031D01*
X142809416Y-73425824D01*
X142795633Y-73417378D01*
X143550183Y-73417378D01*
X143556209Y-73426999D01*
X144408270Y-74279060D01*
X144419999Y-74285832D01*
X144431730Y-74279059D01*
X145283791Y-73426997D01*
X145289816Y-73417379D01*
X145281712Y-73409433D01*
X145110955Y-73304793D01*
X145102160Y-73300312D01*
X144892012Y-73213266D01*
X144882626Y-73210216D01*
X144661445Y-73157115D01*
X144651699Y-73155571D01*
X144424930Y-73137725D01*
X144415070Y-73137725D01*
X144188300Y-73155571D01*
X144178554Y-73157115D01*
X143957373Y-73210216D01*
X143947987Y-73213266D01*
X143737839Y-73300312D01*
X143729044Y-73304793D01*
X143558285Y-73409433D01*
X143550183Y-73417378D01*
X142795633Y-73417378D01*
X142606963Y-73301760D01*
X142587440Y-73293673D01*
X142392167Y-73212789D01*
X142392164Y-73212788D01*
X142387594Y-73210895D01*
X142382786Y-73209740D01*
X142382781Y-73209739D01*
X142161523Y-73156620D01*
X142161519Y-73156619D01*
X142156711Y-73155465D01*
X142151785Y-73155077D01*
X142151777Y-73155076D01*
X141924930Y-73137223D01*
X141920000Y-73136835D01*
X141915070Y-73137223D01*
X141688222Y-73155076D01*
X141688212Y-73155077D01*
X141683289Y-73155465D01*
X141678482Y-73156619D01*
X141678476Y-73156620D01*
X141457218Y-73209739D01*
X141457209Y-73209741D01*
X141452406Y-73210895D01*
X141447838Y-73212786D01*
X141447832Y-73212789D01*
X141237611Y-73299865D01*
X141237606Y-73299867D01*
X141233037Y-73301760D01*
X141228817Y-73304345D01*
X141228817Y-73304346D01*
X141034798Y-73423241D01*
X141034792Y-73423245D01*
X141030584Y-73425824D01*
X141026834Y-73429026D01*
X141026824Y-73429034D01*
X140853786Y-73576823D01*
X140853779Y-73576829D01*
X140850031Y-73580031D01*
X140846829Y-73583779D01*
X140846823Y-73583786D01*
X140781227Y-73660590D01*
X140724352Y-73698592D01*
X140656002Y-73701278D01*
X140596321Y-73667854D01*
X136303860Y-69375393D01*
X134894267Y-67965800D01*
X137581500Y-67965800D01*
X137581674Y-67968128D01*
X137581675Y-67968142D01*
X137594691Y-68141826D01*
X137596265Y-68162826D01*
X137597314Y-68167425D01*
X137597315Y-68167427D01*
X137647482Y-68387223D01*
X137654913Y-68419780D01*
X137656636Y-68424171D01*
X137656637Y-68424173D01*
X137749479Y-68660731D01*
X137749483Y-68660740D01*
X137751204Y-68665124D01*
X137753559Y-68669204D01*
X137753563Y-68669211D01*
X137880629Y-68889296D01*
X137882985Y-68893376D01*
X138047314Y-69099438D01*
X138063757Y-69114695D01*
X138237063Y-69275500D01*
X138237068Y-69275504D01*
X138240519Y-69278706D01*
X138244413Y-69281361D01*
X138244417Y-69281364D01*
X138375326Y-69370616D01*
X138458284Y-69427176D01*
X138462529Y-69429220D01*
X138462532Y-69429222D01*
X138469144Y-69432406D01*
X138695746Y-69541532D01*
X138700250Y-69542921D01*
X138700252Y-69542922D01*
X138754708Y-69559719D01*
X138947600Y-69619218D01*
X139208219Y-69658500D01*
X139467065Y-69658500D01*
X139471781Y-69658500D01*
X139732400Y-69619218D01*
X139984254Y-69541532D01*
X140221715Y-69427176D01*
X140439481Y-69278706D01*
X140632686Y-69099438D01*
X140797015Y-68893376D01*
X140928796Y-68665124D01*
X141025087Y-68419780D01*
X141083735Y-68162826D01*
X141098500Y-67965800D01*
X147741500Y-67965800D01*
X147741674Y-67968128D01*
X147741675Y-67968142D01*
X147754691Y-68141826D01*
X147756265Y-68162826D01*
X147757314Y-68167425D01*
X147757315Y-68167427D01*
X147807482Y-68387223D01*
X147814913Y-68419780D01*
X147816636Y-68424171D01*
X147816637Y-68424173D01*
X147909479Y-68660731D01*
X147909483Y-68660740D01*
X147911204Y-68665124D01*
X147913559Y-68669204D01*
X147913563Y-68669211D01*
X148040629Y-68889296D01*
X148042985Y-68893376D01*
X148207314Y-69099438D01*
X148223757Y-69114695D01*
X148397063Y-69275500D01*
X148397068Y-69275504D01*
X148400519Y-69278706D01*
X148404413Y-69281361D01*
X148404417Y-69281364D01*
X148535326Y-69370616D01*
X148618284Y-69427176D01*
X148622529Y-69429220D01*
X148622532Y-69429222D01*
X148629144Y-69432406D01*
X148855746Y-69541532D01*
X148860250Y-69542921D01*
X148860252Y-69542922D01*
X148914708Y-69559719D01*
X149107600Y-69619218D01*
X149368219Y-69658500D01*
X149627065Y-69658500D01*
X149631781Y-69658500D01*
X149892400Y-69619218D01*
X150144254Y-69541532D01*
X150381715Y-69427176D01*
X150599481Y-69278706D01*
X150792686Y-69099438D01*
X150957015Y-68893376D01*
X151088796Y-68665124D01*
X151185087Y-68419780D01*
X151243735Y-68162826D01*
X151258500Y-67965800D01*
X151258500Y-66334200D01*
X151243735Y-66137174D01*
X151185087Y-65880220D01*
X151088796Y-65634876D01*
X150957015Y-65406624D01*
X150792686Y-65200562D01*
X150682374Y-65098207D01*
X150602936Y-65024499D01*
X150602930Y-65024494D01*
X150599481Y-65021294D01*
X150595588Y-65018639D01*
X150595582Y-65018635D01*
X150385612Y-64875480D01*
X150385609Y-64875478D01*
X150381716Y-64872824D01*
X150377475Y-64870781D01*
X150377467Y-64870777D01*
X150148503Y-64760514D01*
X150148500Y-64760513D01*
X150144254Y-64758468D01*
X150139756Y-64757080D01*
X150139747Y-64757077D01*
X149896901Y-64682170D01*
X149896896Y-64682168D01*
X149892400Y-64680782D01*
X149887746Y-64680080D01*
X149887744Y-64680080D01*
X149636442Y-64642202D01*
X149636434Y-64642201D01*
X149631781Y-64641500D01*
X149368219Y-64641500D01*
X149363566Y-64642201D01*
X149363557Y-64642202D01*
X149112255Y-64680080D01*
X149112250Y-64680081D01*
X149107600Y-64680782D01*
X149103106Y-64682168D01*
X149103098Y-64682170D01*
X148860254Y-64757077D01*
X148860248Y-64757079D01*
X148855746Y-64758468D01*
X148851510Y-64760507D01*
X148851497Y-64760513D01*
X148622536Y-64870776D01*
X148622527Y-64870780D01*
X148618285Y-64872824D01*
X148614386Y-64875482D01*
X148614383Y-64875484D01*
X148404417Y-65018636D01*
X148404413Y-65018638D01*
X148400519Y-65021294D01*
X148397076Y-65024488D01*
X148397063Y-65024499D01*
X148210763Y-65197361D01*
X148210757Y-65197366D01*
X148207314Y-65200562D01*
X148204386Y-65204232D01*
X148204379Y-65204241D01*
X148045920Y-65402943D01*
X148045917Y-65402947D01*
X148042985Y-65406624D01*
X148040635Y-65410693D01*
X148040629Y-65410703D01*
X147913563Y-65630788D01*
X147913556Y-65630800D01*
X147911204Y-65634876D01*
X147909485Y-65639253D01*
X147909479Y-65639268D01*
X147816637Y-65875826D01*
X147816635Y-65875832D01*
X147814913Y-65880220D01*
X147813864Y-65884815D01*
X147813863Y-65884819D01*
X147762759Y-66108724D01*
X147756265Y-66137174D01*
X147755912Y-66141873D01*
X147755912Y-66141879D01*
X147741675Y-66331857D01*
X147741674Y-66331872D01*
X147741500Y-66334200D01*
X147741500Y-67965800D01*
X141098500Y-67965800D01*
X141098500Y-66334200D01*
X141083735Y-66137174D01*
X141025087Y-65880220D01*
X140928796Y-65634876D01*
X140797015Y-65406624D01*
X140632686Y-65200562D01*
X140522374Y-65098207D01*
X140442936Y-65024499D01*
X140442930Y-65024494D01*
X140439481Y-65021294D01*
X140435588Y-65018639D01*
X140435582Y-65018635D01*
X140225612Y-64875480D01*
X140225609Y-64875478D01*
X140221716Y-64872824D01*
X140217475Y-64870781D01*
X140217467Y-64870777D01*
X139988503Y-64760514D01*
X139988500Y-64760513D01*
X139984254Y-64758468D01*
X139979756Y-64757080D01*
X139979747Y-64757077D01*
X139736901Y-64682170D01*
X139736896Y-64682168D01*
X139732400Y-64680782D01*
X139727746Y-64680080D01*
X139727744Y-64680080D01*
X139476442Y-64642202D01*
X139476434Y-64642201D01*
X139471781Y-64641500D01*
X139208219Y-64641500D01*
X139203566Y-64642201D01*
X139203557Y-64642202D01*
X138952255Y-64680080D01*
X138952250Y-64680081D01*
X138947600Y-64680782D01*
X138943106Y-64682168D01*
X138943098Y-64682170D01*
X138700254Y-64757077D01*
X138700248Y-64757079D01*
X138695746Y-64758468D01*
X138691510Y-64760507D01*
X138691497Y-64760513D01*
X138462536Y-64870776D01*
X138462527Y-64870780D01*
X138458285Y-64872824D01*
X138454386Y-64875482D01*
X138454383Y-64875484D01*
X138244417Y-65018636D01*
X138244413Y-65018638D01*
X138240519Y-65021294D01*
X138237076Y-65024488D01*
X138237063Y-65024499D01*
X138050763Y-65197361D01*
X138050757Y-65197366D01*
X138047314Y-65200562D01*
X138044386Y-65204232D01*
X138044379Y-65204241D01*
X137885920Y-65402943D01*
X137885917Y-65402947D01*
X137882985Y-65406624D01*
X137880635Y-65410693D01*
X137880629Y-65410703D01*
X137753563Y-65630788D01*
X137753556Y-65630800D01*
X137751204Y-65634876D01*
X137749485Y-65639253D01*
X137749479Y-65639268D01*
X137656637Y-65875826D01*
X137656635Y-65875832D01*
X137654913Y-65880220D01*
X137653864Y-65884815D01*
X137653863Y-65884819D01*
X137602759Y-66108724D01*
X137596265Y-66137174D01*
X137595912Y-66141873D01*
X137595912Y-66141879D01*
X137581675Y-66331857D01*
X137581674Y-66331872D01*
X137581500Y-66334200D01*
X137581500Y-67965800D01*
X134894267Y-67965800D01*
X132014193Y-65085725D01*
X131981243Y-65027945D01*
X131982306Y-64961434D01*
X132009358Y-64917337D01*
X132007106Y-64915474D01*
X132035291Y-64881402D01*
X132043272Y-64872630D01*
X136095498Y-60820405D01*
X136136376Y-60793091D01*
X136184594Y-60783500D01*
X140468434Y-60783500D01*
X140530000Y-60799565D01*
X140575867Y-60843665D01*
X140612609Y-60903623D01*
X140695824Y-61039416D01*
X140699031Y-61043171D01*
X140699034Y-61043175D01*
X140824331Y-61189878D01*
X140850031Y-61219969D01*
X140876226Y-61242342D01*
X140998426Y-61346711D01*
X141030584Y-61374176D01*
X141233037Y-61498240D01*
X141452406Y-61589105D01*
X141683289Y-61644535D01*
X141920000Y-61663165D01*
X142156711Y-61644535D01*
X142387594Y-61589105D01*
X142606963Y-61498240D01*
X142795638Y-61382619D01*
X146050183Y-61382619D01*
X146058286Y-61390565D01*
X146229044Y-61495206D01*
X146237839Y-61499687D01*
X146447987Y-61586733D01*
X146457373Y-61589783D01*
X146678554Y-61642884D01*
X146688300Y-61644428D01*
X146915070Y-61662275D01*
X146924930Y-61662275D01*
X147151699Y-61644428D01*
X147161445Y-61642884D01*
X147382626Y-61589783D01*
X147392012Y-61586733D01*
X147602162Y-61499686D01*
X147610957Y-61495205D01*
X147781708Y-61390568D01*
X147789814Y-61382619D01*
X147783787Y-61372997D01*
X146931729Y-60520939D01*
X146919999Y-60514167D01*
X146908271Y-60520938D01*
X146056208Y-61373000D01*
X146050183Y-61382619D01*
X142795638Y-61382619D01*
X142809416Y-61374176D01*
X142989969Y-61219969D01*
X143144176Y-61039416D01*
X143268240Y-60836963D01*
X143359105Y-60617594D01*
X143414535Y-60386711D01*
X143432777Y-60154930D01*
X145407725Y-60154930D01*
X145425571Y-60381699D01*
X145427115Y-60391445D01*
X145480216Y-60612626D01*
X145483266Y-60622012D01*
X145570312Y-60832160D01*
X145574793Y-60840955D01*
X145679433Y-61011712D01*
X145687379Y-61019816D01*
X145696997Y-61013791D01*
X146549059Y-60161730D01*
X146555832Y-60149999D01*
X147284167Y-60149999D01*
X147290939Y-60161729D01*
X148142997Y-61013787D01*
X148152619Y-61019814D01*
X148160568Y-61011708D01*
X148265205Y-60840957D01*
X148269686Y-60832162D01*
X148323781Y-60701565D01*
X149241751Y-60701565D01*
X149241986Y-60712943D01*
X149284900Y-60882408D01*
X149288270Y-60892223D01*
X149374488Y-61088778D01*
X149379431Y-61097913D01*
X149496822Y-61277593D01*
X149503210Y-61285799D01*
X149648567Y-61443700D01*
X149656211Y-61450737D01*
X149825588Y-61582568D01*
X149834281Y-61588247D01*
X150023042Y-61690400D01*
X150032559Y-61694575D01*
X150235557Y-61764264D01*
X150245627Y-61766814D01*
X150307461Y-61777132D01*
X150318598Y-61776556D01*
X150321000Y-61765664D01*
X150829000Y-61765664D01*
X150831401Y-61776556D01*
X150842538Y-61777132D01*
X150904372Y-61766814D01*
X150914442Y-61764264D01*
X151117440Y-61694575D01*
X151126957Y-61690400D01*
X151315718Y-61588247D01*
X151324411Y-61582568D01*
X151493788Y-61450737D01*
X151501425Y-61443706D01*
X151559047Y-61381112D01*
X151612520Y-61346711D01*
X151675982Y-61342801D01*
X151733273Y-61370377D01*
X151769805Y-61422416D01*
X151810962Y-61532763D01*
X151810964Y-61532766D01*
X151814111Y-61541204D01*
X151819508Y-61548414D01*
X151819510Y-61548417D01*
X151873166Y-61620092D01*
X151901739Y-61658261D01*
X151908950Y-61663659D01*
X151980597Y-61717294D01*
X152018796Y-61745889D01*
X152155799Y-61796989D01*
X152216362Y-61803500D01*
X153525406Y-61803500D01*
X153573624Y-61813091D01*
X153614500Y-61840404D01*
X154770677Y-62996582D01*
X155916347Y-64142252D01*
X155923886Y-64150535D01*
X155928000Y-64157018D01*
X155933782Y-64162447D01*
X155933784Y-64162450D01*
X155977649Y-64203642D01*
X155980491Y-64206396D01*
X156000230Y-64226135D01*
X156003360Y-64228563D01*
X156003432Y-64228619D01*
X156012440Y-64236313D01*
X156044679Y-64266586D01*
X156051627Y-64270405D01*
X156051629Y-64270407D01*
X156062426Y-64276343D01*
X156078950Y-64287197D01*
X156088694Y-64294755D01*
X156088697Y-64294757D01*
X156094959Y-64299614D01*
X156102232Y-64302761D01*
X156135535Y-64317172D01*
X156146185Y-64322388D01*
X156178266Y-64340026D01*
X156212904Y-64368062D01*
X156235616Y-64406405D01*
X156265959Y-64487757D01*
X156265963Y-64487765D01*
X156269111Y-64496204D01*
X156274508Y-64503414D01*
X156274510Y-64503417D01*
X156338374Y-64588728D01*
X156356739Y-64613261D01*
X156371937Y-64624638D01*
X156461722Y-64691851D01*
X156473796Y-64700889D01*
X156610799Y-64751989D01*
X156671362Y-64758500D01*
X158265269Y-64758500D01*
X158268638Y-64758500D01*
X158329201Y-64751989D01*
X158466204Y-64700889D01*
X158583261Y-64613261D01*
X158670889Y-64496204D01*
X158721989Y-64359201D01*
X158728500Y-64298638D01*
X158728500Y-64295223D01*
X161112000Y-64295223D01*
X161112359Y-64301938D01*
X161117662Y-64351257D01*
X161121259Y-64366478D01*
X161166405Y-64487519D01*
X161174954Y-64503175D01*
X161251697Y-64605692D01*
X161264307Y-64618302D01*
X161366824Y-64695045D01*
X161382480Y-64703594D01*
X161503521Y-64748740D01*
X161518742Y-64752337D01*
X161568061Y-64757640D01*
X161574777Y-64758000D01*
X162099410Y-64758000D01*
X162112493Y-64754493D01*
X162116000Y-64741410D01*
X162624000Y-64741410D01*
X162627506Y-64754493D01*
X162640590Y-64758000D01*
X163165223Y-64758000D01*
X163171938Y-64757640D01*
X163221257Y-64752337D01*
X163236478Y-64748740D01*
X163357519Y-64703594D01*
X163373175Y-64695045D01*
X163475692Y-64618302D01*
X163488302Y-64605692D01*
X163565045Y-64503175D01*
X163573594Y-64487519D01*
X163618740Y-64366478D01*
X163622337Y-64351257D01*
X163627640Y-64301938D01*
X163628000Y-64295223D01*
X163628000Y-64020590D01*
X163624493Y-64007506D01*
X163611410Y-64004000D01*
X162640590Y-64004000D01*
X162627506Y-64007506D01*
X162624000Y-64020590D01*
X162624000Y-64741410D01*
X162116000Y-64741410D01*
X162116000Y-64020590D01*
X162112493Y-64007506D01*
X162099410Y-64004000D01*
X161128590Y-64004000D01*
X161115506Y-64007506D01*
X161112000Y-64020590D01*
X161112000Y-64295223D01*
X158728500Y-64295223D01*
X158728500Y-63479410D01*
X161112000Y-63479410D01*
X161115506Y-63492493D01*
X161128590Y-63496000D01*
X162099410Y-63496000D01*
X162112493Y-63492493D01*
X162116000Y-63479410D01*
X162624000Y-63479410D01*
X162627506Y-63492493D01*
X162640590Y-63496000D01*
X163611410Y-63496000D01*
X163624493Y-63492493D01*
X163628000Y-63479410D01*
X163628000Y-63204777D01*
X163627640Y-63198061D01*
X163622337Y-63148742D01*
X163618740Y-63133521D01*
X163573594Y-63012480D01*
X163565045Y-62996824D01*
X163488302Y-62894307D01*
X163475692Y-62881697D01*
X163373175Y-62804954D01*
X163357519Y-62796405D01*
X163236478Y-62751259D01*
X163221257Y-62747662D01*
X163171938Y-62742359D01*
X163165223Y-62742000D01*
X162640590Y-62742000D01*
X162627506Y-62745506D01*
X162624000Y-62758590D01*
X162624000Y-63479410D01*
X162116000Y-63479410D01*
X162116000Y-62758590D01*
X162112493Y-62745506D01*
X162099410Y-62742000D01*
X161574777Y-62742000D01*
X161568061Y-62742359D01*
X161518742Y-62747662D01*
X161503521Y-62751259D01*
X161382480Y-62796405D01*
X161366824Y-62804954D01*
X161264307Y-62881697D01*
X161251697Y-62894307D01*
X161174954Y-62996824D01*
X161166405Y-63012480D01*
X161121259Y-63133521D01*
X161117662Y-63148742D01*
X161112359Y-63198061D01*
X161112000Y-63204777D01*
X161112000Y-63479410D01*
X158728500Y-63479410D01*
X158728500Y-63201362D01*
X158721989Y-63140799D01*
X158670889Y-63003796D01*
X158658921Y-62987809D01*
X158588659Y-62893950D01*
X158583261Y-62886739D01*
X158572410Y-62878616D01*
X158473417Y-62804510D01*
X158473414Y-62804508D01*
X158466204Y-62799111D01*
X158457765Y-62795963D01*
X158457759Y-62795960D01*
X158383649Y-62768318D01*
X158331677Y-62731864D01*
X158304075Y-62674696D01*
X158307849Y-62611329D01*
X158363542Y-62439928D01*
X158383504Y-62250000D01*
X158363542Y-62060072D01*
X158325422Y-61942752D01*
X158306569Y-61884728D01*
X158306568Y-61884726D01*
X158304527Y-61878444D01*
X158245380Y-61776000D01*
X158228500Y-61713001D01*
X158228500Y-61674472D01*
X158240839Y-61620092D01*
X158275439Y-61576363D01*
X158324121Y-61552535D01*
X158329201Y-61551989D01*
X158466204Y-61500889D01*
X158583261Y-61413261D01*
X158670889Y-61296204D01*
X158721989Y-61159201D01*
X158728500Y-61098638D01*
X158728500Y-60001362D01*
X158722759Y-59947968D01*
X158734703Y-59879444D01*
X158781184Y-59827699D01*
X158848038Y-59808500D01*
X160991962Y-59808500D01*
X161058816Y-59827699D01*
X161105297Y-59879444D01*
X161117240Y-59947968D01*
X161111860Y-59998011D01*
X161111500Y-60001362D01*
X161111500Y-61098638D01*
X161111859Y-61101985D01*
X161111860Y-61101988D01*
X161117168Y-61151367D01*
X161117169Y-61151373D01*
X161118011Y-61159201D01*
X161120762Y-61166578D01*
X161120763Y-61166580D01*
X161165962Y-61287763D01*
X161165964Y-61287766D01*
X161169111Y-61296204D01*
X161174508Y-61303414D01*
X161174510Y-61303417D01*
X161239749Y-61390565D01*
X161256739Y-61413261D01*
X161263950Y-61418659D01*
X161341146Y-61476448D01*
X161373796Y-61500889D01*
X161510799Y-61551989D01*
X161571362Y-61558500D01*
X163165269Y-61558500D01*
X163168638Y-61558500D01*
X163229201Y-61551989D01*
X163366204Y-61500889D01*
X163483261Y-61413261D01*
X163570889Y-61296204D01*
X163621989Y-61159201D01*
X163628500Y-61098638D01*
X163628500Y-60001362D01*
X163621989Y-59940799D01*
X163570889Y-59803796D01*
X163557441Y-59785832D01*
X163488659Y-59693950D01*
X163483261Y-59686739D01*
X163422829Y-59641500D01*
X163373417Y-59604510D01*
X163373414Y-59604508D01*
X163366204Y-59599111D01*
X163357766Y-59595964D01*
X163357763Y-59595962D01*
X163236580Y-59550763D01*
X163236578Y-59550762D01*
X163229201Y-59548011D01*
X163221373Y-59547169D01*
X163221367Y-59547168D01*
X163171988Y-59541860D01*
X163171985Y-59541859D01*
X163168638Y-59541500D01*
X163165269Y-59541500D01*
X163029438Y-59541500D01*
X162972235Y-59527767D01*
X162927502Y-59489561D01*
X162903564Y-59456613D01*
X162897046Y-59446690D01*
X162878578Y-59415462D01*
X162874542Y-59408637D01*
X162860218Y-59394313D01*
X162847376Y-59379277D01*
X162840134Y-59369309D01*
X162840131Y-59369306D01*
X162835472Y-59362893D01*
X162801405Y-59334710D01*
X162792626Y-59326721D01*
X162248646Y-58782741D01*
X162241112Y-58774463D01*
X162237000Y-58767982D01*
X162187348Y-58721356D01*
X162184506Y-58718601D01*
X162167574Y-58701669D01*
X162164770Y-58698865D01*
X162161575Y-58696386D01*
X162152554Y-58688682D01*
X162126097Y-58663838D01*
X162120321Y-58658414D01*
X162113377Y-58654596D01*
X162113371Y-58654592D01*
X162102566Y-58648652D01*
X162086047Y-58637801D01*
X162070041Y-58625386D01*
X162062766Y-58622238D01*
X162062763Y-58622236D01*
X162029466Y-58607828D01*
X162018804Y-58602605D01*
X161987007Y-58585124D01*
X161987005Y-58585123D01*
X161980060Y-58581305D01*
X161972383Y-58579334D01*
X161972381Y-58579333D01*
X161960438Y-58576267D01*
X161941734Y-58569863D01*
X161930420Y-58564967D01*
X161930418Y-58564966D01*
X161923145Y-58561819D01*
X161915319Y-58560579D01*
X161915318Y-58560579D01*
X161879475Y-58554902D01*
X161867859Y-58552496D01*
X161825030Y-58541500D01*
X161817101Y-58541500D01*
X161804776Y-58541500D01*
X161785065Y-58539949D01*
X161772885Y-58538019D01*
X161772878Y-58538018D01*
X161765057Y-58536780D01*
X161757173Y-58537525D01*
X161757165Y-58537525D01*
X161721039Y-58540941D01*
X161709181Y-58541500D01*
X158509594Y-58541500D01*
X158461376Y-58531909D01*
X158420499Y-58504595D01*
X156528905Y-56613000D01*
X156501591Y-56572123D01*
X156492000Y-56523905D01*
X156492000Y-55717765D01*
X159315788Y-55717765D01*
X159316290Y-55722332D01*
X159316291Y-55722344D01*
X159344910Y-55982444D01*
X159344911Y-55982453D01*
X159345414Y-55987018D01*
X159346576Y-55991463D01*
X159346577Y-55991468D01*
X159410347Y-56235392D01*
X159413928Y-56249088D01*
X159415725Y-56253318D01*
X159415728Y-56253325D01*
X159459227Y-56355686D01*
X159519870Y-56498390D01*
X159522265Y-56502315D01*
X159522266Y-56502316D01*
X159607131Y-56641373D01*
X159660982Y-56729610D01*
X159663917Y-56733137D01*
X159663918Y-56733138D01*
X159794357Y-56889878D01*
X159834255Y-56937820D01*
X159929177Y-57022870D01*
X160032561Y-57115503D01*
X160032565Y-57115506D01*
X160035998Y-57118582D01*
X160261910Y-57268044D01*
X160507176Y-57383020D01*
X160766569Y-57461060D01*
X161034561Y-57500500D01*
X161235330Y-57500500D01*
X161237631Y-57500500D01*
X161440156Y-57485677D01*
X161704553Y-57426780D01*
X161957558Y-57330014D01*
X162193777Y-57197441D01*
X162408177Y-57031888D01*
X162596186Y-56836881D01*
X162753799Y-56616579D01*
X162877656Y-56375675D01*
X162965118Y-56119305D01*
X163014319Y-55852933D01*
X163021267Y-55662824D01*
X163024044Y-55586837D01*
X163024043Y-55586834D01*
X163024212Y-55582235D01*
X162994586Y-55312982D01*
X162926072Y-55050912D01*
X162820130Y-54801610D01*
X162679018Y-54570390D01*
X162505745Y-54362180D01*
X162404582Y-54271538D01*
X162307438Y-54184496D01*
X162307432Y-54184491D01*
X162304002Y-54181418D01*
X162174158Y-54095514D01*
X162081925Y-54034493D01*
X162081922Y-54034491D01*
X162078090Y-54031956D01*
X161832824Y-53916980D01*
X161812549Y-53910880D01*
X161577843Y-53840267D01*
X161577838Y-53840265D01*
X161573431Y-53838940D01*
X161568874Y-53838269D01*
X161568868Y-53838268D01*
X161310000Y-53800171D01*
X161309996Y-53800170D01*
X161305439Y-53799500D01*
X161102369Y-53799500D01*
X161100098Y-53799666D01*
X161100076Y-53799667D01*
X160904438Y-53813986D01*
X160904427Y-53813987D01*
X160899844Y-53814323D01*
X160895353Y-53815323D01*
X160895349Y-53815324D01*
X160639939Y-53872219D01*
X160639934Y-53872220D01*
X160635447Y-53873220D01*
X160631149Y-53874863D01*
X160631145Y-53874865D01*
X160386746Y-53968339D01*
X160386735Y-53968343D01*
X160382442Y-53969986D01*
X160378434Y-53972235D01*
X160378422Y-53972241D01*
X160150232Y-54100308D01*
X160150221Y-54100314D01*
X160146223Y-54102559D01*
X160142589Y-54105364D01*
X160142586Y-54105367D01*
X159935466Y-54265298D01*
X159935458Y-54265305D01*
X159931823Y-54268112D01*
X159928632Y-54271421D01*
X159928625Y-54271428D01*
X159747011Y-54459802D01*
X159747004Y-54459809D01*
X159743814Y-54463119D01*
X159741136Y-54466861D01*
X159741131Y-54466868D01*
X159588885Y-54679668D01*
X159588878Y-54679677D01*
X159586201Y-54683421D01*
X159584097Y-54687512D01*
X159584091Y-54687523D01*
X159478464Y-54892971D01*
X159462344Y-54924325D01*
X159460856Y-54928684D01*
X159460854Y-54928691D01*
X159376371Y-55176327D01*
X159376367Y-55176341D01*
X159374882Y-55180695D01*
X159374044Y-55185228D01*
X159374044Y-55185231D01*
X159326517Y-55442537D01*
X159326515Y-55442546D01*
X159325681Y-55447067D01*
X159325513Y-55451656D01*
X159325512Y-55451668D01*
X159315956Y-55713161D01*
X159315788Y-55717765D01*
X156492000Y-55717765D01*
X156492000Y-54989236D01*
X156511313Y-54922200D01*
X156537915Y-54879863D01*
X156591543Y-54794515D01*
X156651717Y-54622547D01*
X156672116Y-54441500D01*
X156651717Y-54260453D01*
X156591543Y-54088485D01*
X156579434Y-54069214D01*
X156498378Y-53940214D01*
X156498377Y-53940213D01*
X156494611Y-53934219D01*
X156365781Y-53805389D01*
X156359787Y-53801623D01*
X156359785Y-53801621D01*
X156217506Y-53712221D01*
X156217503Y-53712219D01*
X156211515Y-53708457D01*
X156204839Y-53706121D01*
X156204835Y-53706119D01*
X156046224Y-53650619D01*
X156046220Y-53650618D01*
X156039547Y-53648283D01*
X155858500Y-53627884D01*
X155851471Y-53628676D01*
X155684481Y-53647491D01*
X155684479Y-53647491D01*
X155677453Y-53648283D01*
X155670780Y-53650617D01*
X155670775Y-53650619D01*
X155512164Y-53706119D01*
X155512156Y-53706122D01*
X155505485Y-53708457D01*
X155499500Y-53712217D01*
X155499493Y-53712221D01*
X155357214Y-53801621D01*
X155357207Y-53801626D01*
X155351219Y-53805389D01*
X155346214Y-53810393D01*
X155346210Y-53810397D01*
X155227397Y-53929210D01*
X155227393Y-53929214D01*
X155222389Y-53934219D01*
X155218626Y-53940207D01*
X155218621Y-53940214D01*
X155129221Y-54082493D01*
X155129217Y-54082500D01*
X155125457Y-54088485D01*
X155123122Y-54095156D01*
X155123119Y-54095164D01*
X155067619Y-54253775D01*
X155067617Y-54253780D01*
X155065283Y-54260453D01*
X155064491Y-54267479D01*
X155064491Y-54267481D01*
X155052608Y-54372947D01*
X155044884Y-54441500D01*
X155065283Y-54622547D01*
X155067618Y-54629220D01*
X155067619Y-54629224D01*
X155123119Y-54787835D01*
X155123121Y-54787839D01*
X155125457Y-54794515D01*
X155129219Y-54800503D01*
X155129221Y-54800506D01*
X155205687Y-54922200D01*
X155225000Y-54989236D01*
X155225000Y-56116463D01*
X155210944Y-56174295D01*
X155171913Y-56219224D01*
X155116614Y-56241226D01*
X155057385Y-56235392D01*
X154993919Y-56213184D01*
X154953724Y-56199119D01*
X154953720Y-56199118D01*
X154947047Y-56196783D01*
X154766000Y-56176384D01*
X154758971Y-56177176D01*
X154591981Y-56195991D01*
X154591979Y-56195991D01*
X154584953Y-56196783D01*
X154578280Y-56199117D01*
X154578275Y-56199119D01*
X154419664Y-56254619D01*
X154419656Y-56254622D01*
X154412985Y-56256957D01*
X154407000Y-56260717D01*
X154406993Y-56260721D01*
X154264714Y-56350121D01*
X154264707Y-56350126D01*
X154258719Y-56353889D01*
X154253714Y-56358893D01*
X154253710Y-56358897D01*
X154134897Y-56477710D01*
X154134893Y-56477714D01*
X154129889Y-56482719D01*
X154126126Y-56488707D01*
X154126121Y-56488714D01*
X154036721Y-56630993D01*
X154036717Y-56631000D01*
X154032957Y-56636985D01*
X154030622Y-56643656D01*
X154030619Y-56643664D01*
X153975119Y-56802275D01*
X153975117Y-56802280D01*
X153972783Y-56808953D01*
X153952384Y-56990000D01*
X153972783Y-57171047D01*
X153975118Y-57177720D01*
X153975119Y-57177724D01*
X154030619Y-57336335D01*
X154030621Y-57336339D01*
X154032957Y-57343015D01*
X154036719Y-57349003D01*
X154036721Y-57349006D01*
X154113187Y-57470700D01*
X154132500Y-57537736D01*
X154132500Y-57859233D01*
X154131972Y-57870416D01*
X154130298Y-57877909D01*
X154130547Y-57885833D01*
X154130547Y-57885835D01*
X154132438Y-57945986D01*
X154132500Y-57949945D01*
X154132500Y-57977856D01*
X154132995Y-57981774D01*
X154132997Y-57981806D01*
X154133008Y-57981888D01*
X154133937Y-57993697D01*
X154135077Y-58029969D01*
X154135078Y-58029976D01*
X154135327Y-58037889D01*
X154137537Y-58045498D01*
X154137538Y-58045500D01*
X154140978Y-58057342D01*
X154144986Y-58076693D01*
X154147526Y-58096797D01*
X154150444Y-58104169D01*
X154150445Y-58104170D01*
X154163800Y-58137901D01*
X154167645Y-58149130D01*
X154177771Y-58183986D01*
X154177773Y-58183992D01*
X154179982Y-58191593D01*
X154184014Y-58198411D01*
X154184015Y-58198413D01*
X154190293Y-58209029D01*
X154198990Y-58226782D01*
X154206448Y-58245617D01*
X154211107Y-58252030D01*
X154211108Y-58252031D01*
X154232432Y-58281381D01*
X154238948Y-58291301D01*
X154257422Y-58322538D01*
X154261458Y-58329362D01*
X154267063Y-58334967D01*
X154275778Y-58343682D01*
X154288618Y-58358715D01*
X154291061Y-58362078D01*
X154300528Y-58375107D01*
X154306635Y-58380159D01*
X154306636Y-58380160D01*
X154334598Y-58403292D01*
X154343378Y-58411282D01*
X156174595Y-60242500D01*
X156201909Y-60283377D01*
X156211500Y-60331595D01*
X156211500Y-61098638D01*
X156211859Y-61101985D01*
X156211860Y-61101988D01*
X156217168Y-61151367D01*
X156217169Y-61151373D01*
X156218011Y-61159201D01*
X156220762Y-61166578D01*
X156220763Y-61166580D01*
X156265962Y-61287763D01*
X156265964Y-61287766D01*
X156269111Y-61296204D01*
X156274508Y-61303414D01*
X156274510Y-61303417D01*
X156339749Y-61390565D01*
X156356739Y-61413261D01*
X156363950Y-61418659D01*
X156441146Y-61476448D01*
X156473796Y-61500889D01*
X156482235Y-61504036D01*
X156482236Y-61504037D01*
X156581883Y-61541204D01*
X156610799Y-61551989D01*
X156615878Y-61552535D01*
X156664561Y-61576363D01*
X156699161Y-61620092D01*
X156711500Y-61674472D01*
X156711500Y-61713001D01*
X156694619Y-61776000D01*
X156676144Y-61808000D01*
X156647487Y-61857636D01*
X156635473Y-61878444D01*
X156633434Y-61884718D01*
X156633430Y-61884728D01*
X156578497Y-62053794D01*
X156578495Y-62053801D01*
X156576458Y-62060072D01*
X156575768Y-62066633D01*
X156575768Y-62066635D01*
X156567857Y-62141909D01*
X156556496Y-62250000D01*
X156557186Y-62256565D01*
X156571546Y-62393198D01*
X156576458Y-62439928D01*
X156578495Y-62446200D01*
X156578497Y-62446205D01*
X156632149Y-62611327D01*
X156635924Y-62674697D01*
X156608322Y-62731864D01*
X156556350Y-62768318D01*
X156473797Y-62799110D01*
X156473154Y-62797388D01*
X156435747Y-62808364D01*
X156382736Y-62800736D01*
X156337683Y-62771779D01*
X155438625Y-61872721D01*
X154510405Y-60944500D01*
X154483091Y-60903623D01*
X154473500Y-60855405D01*
X154473500Y-59549731D01*
X154473500Y-59546362D01*
X154466989Y-59485799D01*
X154415889Y-59348796D01*
X154405344Y-59334710D01*
X154340968Y-59248714D01*
X154328261Y-59231739D01*
X154321049Y-59226340D01*
X154218417Y-59149510D01*
X154218414Y-59149508D01*
X154211204Y-59144111D01*
X154202766Y-59140964D01*
X154202763Y-59140962D01*
X154081580Y-59095763D01*
X154081578Y-59095762D01*
X154074201Y-59093011D01*
X154066373Y-59092169D01*
X154066367Y-59092168D01*
X154016988Y-59086860D01*
X154016985Y-59086859D01*
X154013638Y-59086500D01*
X152216362Y-59086500D01*
X152213015Y-59086859D01*
X152213011Y-59086860D01*
X152163632Y-59092168D01*
X152163625Y-59092169D01*
X152155799Y-59093011D01*
X152148423Y-59095761D01*
X152148419Y-59095763D01*
X152027236Y-59140962D01*
X152027230Y-59140965D01*
X152018796Y-59144111D01*
X152011588Y-59149506D01*
X152011582Y-59149510D01*
X151908950Y-59226340D01*
X151908946Y-59226343D01*
X151901739Y-59231739D01*
X151896343Y-59238946D01*
X151896340Y-59238950D01*
X151819510Y-59341582D01*
X151819506Y-59341588D01*
X151814111Y-59348796D01*
X151810964Y-59357231D01*
X151810959Y-59357242D01*
X151769804Y-59467583D01*
X151733273Y-59519622D01*
X151675982Y-59547198D01*
X151612520Y-59543288D01*
X151559048Y-59508888D01*
X151501426Y-59446294D01*
X151493788Y-59439262D01*
X151324411Y-59307431D01*
X151315718Y-59301752D01*
X151126957Y-59199599D01*
X151117440Y-59195424D01*
X150914442Y-59125735D01*
X150904372Y-59123185D01*
X150842538Y-59112867D01*
X150831401Y-59113443D01*
X150829000Y-59124336D01*
X150829000Y-61765664D01*
X150321000Y-61765664D01*
X150321000Y-60715590D01*
X150317493Y-60702506D01*
X150304410Y-60699000D01*
X149252840Y-60699000D01*
X149241751Y-60701565D01*
X148323781Y-60701565D01*
X148356733Y-60622012D01*
X148359783Y-60612626D01*
X148412884Y-60391445D01*
X148414428Y-60381699D01*
X148429638Y-60188434D01*
X149241751Y-60188434D01*
X149252840Y-60191000D01*
X150304410Y-60191000D01*
X150317493Y-60187493D01*
X150321000Y-60174410D01*
X150321000Y-59124336D01*
X150318598Y-59113443D01*
X150307461Y-59112867D01*
X150245627Y-59123185D01*
X150235557Y-59125735D01*
X150032559Y-59195424D01*
X150023042Y-59199599D01*
X149834281Y-59301752D01*
X149825588Y-59307431D01*
X149656211Y-59439262D01*
X149648567Y-59446299D01*
X149503210Y-59604200D01*
X149496822Y-59612406D01*
X149379431Y-59792086D01*
X149374488Y-59801221D01*
X149288270Y-59997776D01*
X149284900Y-60007591D01*
X149241986Y-60177056D01*
X149241751Y-60188434D01*
X148429638Y-60188434D01*
X148432275Y-60154930D01*
X148432275Y-60145070D01*
X148414428Y-59918300D01*
X148412884Y-59908554D01*
X148359783Y-59687373D01*
X148356733Y-59677987D01*
X148269687Y-59467839D01*
X148265206Y-59459044D01*
X148160565Y-59288286D01*
X148152619Y-59280183D01*
X148143000Y-59286208D01*
X147290938Y-60138271D01*
X147284167Y-60149999D01*
X146555832Y-60149999D01*
X146549060Y-60138270D01*
X145696999Y-59286209D01*
X145687378Y-59280183D01*
X145679433Y-59288285D01*
X145574793Y-59459044D01*
X145570312Y-59467839D01*
X145483266Y-59677987D01*
X145480216Y-59687373D01*
X145427115Y-59908554D01*
X145425571Y-59918300D01*
X145407725Y-60145070D01*
X145407725Y-60154930D01*
X143432777Y-60154930D01*
X143433165Y-60150000D01*
X143414535Y-59913289D01*
X143359105Y-59682406D01*
X143268240Y-59463037D01*
X143144176Y-59260584D01*
X142989969Y-59080031D01*
X142916119Y-59016957D01*
X142813175Y-58929034D01*
X142813171Y-58929031D01*
X142809416Y-58925824D01*
X142795633Y-58917378D01*
X146050183Y-58917378D01*
X146056209Y-58926999D01*
X146908270Y-59779060D01*
X146919999Y-59785832D01*
X146931730Y-59779059D01*
X147783791Y-58926997D01*
X147789816Y-58917379D01*
X147781712Y-58909433D01*
X147610955Y-58804793D01*
X147602160Y-58800312D01*
X147392012Y-58713266D01*
X147382626Y-58710216D01*
X147161445Y-58657115D01*
X147151699Y-58655571D01*
X146924930Y-58637725D01*
X146915070Y-58637725D01*
X146688300Y-58655571D01*
X146678554Y-58657115D01*
X146457373Y-58710216D01*
X146447987Y-58713266D01*
X146237839Y-58800312D01*
X146229044Y-58804793D01*
X146058285Y-58909433D01*
X146050183Y-58917378D01*
X142795633Y-58917378D01*
X142606963Y-58801760D01*
X142512308Y-58762553D01*
X142392167Y-58712789D01*
X142392164Y-58712788D01*
X142387594Y-58710895D01*
X142382786Y-58709740D01*
X142382781Y-58709739D01*
X142161523Y-58656620D01*
X142161519Y-58656619D01*
X142156711Y-58655465D01*
X142151785Y-58655077D01*
X142151777Y-58655076D01*
X141924930Y-58637223D01*
X141920000Y-58636835D01*
X141915070Y-58637223D01*
X141688222Y-58655076D01*
X141688212Y-58655077D01*
X141683289Y-58655465D01*
X141678482Y-58656619D01*
X141678476Y-58656620D01*
X141457218Y-58709739D01*
X141457209Y-58709741D01*
X141452406Y-58710895D01*
X141447838Y-58712786D01*
X141447832Y-58712789D01*
X141237611Y-58799865D01*
X141237606Y-58799867D01*
X141233037Y-58801760D01*
X141228817Y-58804345D01*
X141228817Y-58804346D01*
X141034798Y-58923241D01*
X141034792Y-58923245D01*
X141030584Y-58925824D01*
X141026834Y-58929026D01*
X141026824Y-58929034D01*
X140853786Y-59076823D01*
X140853779Y-59076829D01*
X140850031Y-59080031D01*
X140846829Y-59083779D01*
X140846823Y-59083786D01*
X140699034Y-59256824D01*
X140699026Y-59256834D01*
X140695824Y-59260584D01*
X140693245Y-59264792D01*
X140693241Y-59264798D01*
X140575867Y-59456335D01*
X140530000Y-59500435D01*
X140468434Y-59516500D01*
X137067198Y-59516500D01*
X137009995Y-59502767D01*
X136965262Y-59464561D01*
X136942749Y-59410211D01*
X136947365Y-59351564D01*
X136978103Y-59301405D01*
X140709103Y-55570405D01*
X140749980Y-55543091D01*
X140798198Y-55533500D01*
X149972264Y-55533500D01*
X150039300Y-55552813D01*
X150166985Y-55633043D01*
X150338953Y-55693217D01*
X150520000Y-55713616D01*
X150701047Y-55693217D01*
X150873015Y-55633043D01*
X151027281Y-55536111D01*
X151156111Y-55407281D01*
X151253043Y-55253015D01*
X151313217Y-55081047D01*
X151333616Y-54900000D01*
X151313217Y-54718953D01*
X151253043Y-54546985D01*
X151156111Y-54392719D01*
X151027281Y-54263889D01*
X151021287Y-54260123D01*
X151021285Y-54260121D01*
X150879006Y-54170721D01*
X150879003Y-54170719D01*
X150873015Y-54166957D01*
X150866339Y-54164621D01*
X150866335Y-54164619D01*
X150707724Y-54109119D01*
X150707720Y-54109118D01*
X150701047Y-54106783D01*
X150693902Y-54105978D01*
X150601031Y-54095514D01*
X150520000Y-54086384D01*
X150512971Y-54087176D01*
X150345981Y-54105991D01*
X150345979Y-54105991D01*
X150338953Y-54106783D01*
X150332280Y-54109117D01*
X150332275Y-54109119D01*
X150173664Y-54164619D01*
X150173656Y-54164622D01*
X150166985Y-54166957D01*
X150161000Y-54170717D01*
X150160993Y-54170721D01*
X150039300Y-54247187D01*
X149972264Y-54266500D01*
X140562372Y-54266500D01*
X140551188Y-54265972D01*
X140543696Y-54264298D01*
X140535770Y-54264547D01*
X140475606Y-54266438D01*
X140471648Y-54266500D01*
X140443748Y-54266500D01*
X140439823Y-54266995D01*
X140439802Y-54266997D01*
X140439728Y-54267007D01*
X140427917Y-54267936D01*
X140391639Y-54269076D01*
X140391631Y-54269077D01*
X140383715Y-54269326D01*
X140376101Y-54271537D01*
X140376099Y-54271538D01*
X140364253Y-54274979D01*
X140344907Y-54278986D01*
X140332664Y-54280533D01*
X140332662Y-54280533D01*
X140324807Y-54281526D01*
X140317447Y-54284439D01*
X140317442Y-54284441D01*
X140283697Y-54297801D01*
X140272475Y-54301643D01*
X140237622Y-54311769D01*
X140237617Y-54311770D01*
X140230011Y-54313981D01*
X140223191Y-54318013D01*
X140223189Y-54318015D01*
X140212567Y-54324297D01*
X140194818Y-54332991D01*
X140183364Y-54337526D01*
X140183356Y-54337529D01*
X140175987Y-54340448D01*
X140169572Y-54345107D01*
X140169571Y-54345109D01*
X140140217Y-54366435D01*
X140130303Y-54372947D01*
X140099064Y-54391423D01*
X140099062Y-54391424D01*
X140092242Y-54395458D01*
X140086643Y-54401055D01*
X140086636Y-54401062D01*
X140077912Y-54409786D01*
X140062891Y-54422615D01*
X140052911Y-54429866D01*
X140052902Y-54429873D01*
X140046497Y-54434528D01*
X140041449Y-54440628D01*
X140041440Y-54440638D01*
X140018304Y-54468604D01*
X140010317Y-54477381D01*
X131508104Y-62979595D01*
X131467227Y-63006909D01*
X131419009Y-63016500D01*
X119257951Y-63016500D01*
X119200748Y-63002767D01*
X119156015Y-62964561D01*
X119133502Y-62910211D01*
X119138118Y-62851564D01*
X119168855Y-62801405D01*
X119264422Y-62705837D01*
X119403919Y-62566338D01*
X119416307Y-62555476D01*
X119441669Y-62536016D01*
X119497224Y-62463616D01*
X119539206Y-62408905D01*
X119600520Y-62260880D01*
X119607743Y-62206015D01*
X119616182Y-62141914D01*
X119616182Y-62141909D01*
X119621432Y-62102029D01*
X119617259Y-62070336D01*
X119616182Y-62053893D01*
X119616182Y-61646017D01*
X119623253Y-61604401D01*
X119642140Y-61570228D01*
X119643793Y-61568576D01*
X119740725Y-61414310D01*
X119800899Y-61242342D01*
X119821298Y-61061295D01*
X119800899Y-60880248D01*
X119740725Y-60708280D01*
X119714331Y-60666275D01*
X119647560Y-60560009D01*
X119647559Y-60560008D01*
X119643793Y-60554014D01*
X119514963Y-60425184D01*
X119508969Y-60421418D01*
X119508967Y-60421416D01*
X119366688Y-60332016D01*
X119366685Y-60332014D01*
X119360697Y-60328252D01*
X119354021Y-60325916D01*
X119354017Y-60325914D01*
X119195408Y-60270415D01*
X119195407Y-60270414D01*
X119188729Y-60268078D01*
X119081086Y-60255949D01*
X119028158Y-60237428D01*
X118988507Y-60197777D01*
X118959878Y-60152214D01*
X118959877Y-60152213D01*
X118956111Y-60146219D01*
X118827281Y-60017389D01*
X118821287Y-60013623D01*
X118821285Y-60013621D01*
X118679006Y-59924221D01*
X118679003Y-59924219D01*
X118673015Y-59920457D01*
X118666339Y-59918121D01*
X118666335Y-59918119D01*
X118507724Y-59862619D01*
X118507720Y-59862618D01*
X118501047Y-59860283D01*
X118320000Y-59839884D01*
X118312971Y-59840676D01*
X118145981Y-59859491D01*
X118145979Y-59859491D01*
X118138953Y-59860283D01*
X118132280Y-59862617D01*
X118132275Y-59862619D01*
X117973664Y-59918119D01*
X117973656Y-59918122D01*
X117966985Y-59920457D01*
X117961000Y-59924217D01*
X117960993Y-59924221D01*
X117818714Y-60013621D01*
X117818707Y-60013626D01*
X117812719Y-60017389D01*
X117807714Y-60022393D01*
X117807710Y-60022397D01*
X117688897Y-60141210D01*
X117688893Y-60141214D01*
X117683889Y-60146219D01*
X117680126Y-60152207D01*
X117680121Y-60152214D01*
X117590721Y-60294493D01*
X117590717Y-60294500D01*
X117586957Y-60300485D01*
X117584622Y-60307157D01*
X117584620Y-60307162D01*
X117538434Y-60439155D01*
X117508600Y-60486634D01*
X116490638Y-61504597D01*
X116449764Y-61531909D01*
X116401546Y-61541500D01*
X111566851Y-61541500D01*
X111502833Y-61524025D01*
X111456573Y-61476448D01*
X111440901Y-61411966D01*
X111460164Y-61348464D01*
X111549043Y-61207015D01*
X111609217Y-61035047D01*
X111629616Y-60854000D01*
X111609217Y-60672953D01*
X111549043Y-60500985D01*
X111476863Y-60386111D01*
X111455878Y-60352714D01*
X111455877Y-60352713D01*
X111452111Y-60346719D01*
X111323281Y-60217889D01*
X111317287Y-60214123D01*
X111317285Y-60214121D01*
X111175006Y-60124721D01*
X111175003Y-60124719D01*
X111169015Y-60120957D01*
X111162339Y-60118621D01*
X111162335Y-60118619D01*
X111003726Y-60063120D01*
X111003725Y-60063119D01*
X110997047Y-60060783D01*
X110990018Y-60059991D01*
X110899476Y-60049789D01*
X110863547Y-60040219D01*
X110846456Y-60032824D01*
X110835804Y-60027605D01*
X110804007Y-60010124D01*
X110804005Y-60010123D01*
X110797060Y-60006305D01*
X110789383Y-60004334D01*
X110789381Y-60004333D01*
X110777438Y-60001267D01*
X110758734Y-59994863D01*
X110747422Y-59989968D01*
X110747421Y-59989967D01*
X110740145Y-59986819D01*
X110732317Y-59985579D01*
X110729326Y-59984710D01*
X110688185Y-59963987D01*
X110657243Y-59929862D01*
X110649285Y-59916960D01*
X110644089Y-59911764D01*
X110639545Y-59906017D01*
X110640960Y-59904897D01*
X110613455Y-59857258D01*
X110613455Y-59792036D01*
X110640681Y-59744879D01*
X110639152Y-59743670D01*
X110652744Y-59726480D01*
X110734994Y-59593132D01*
X110741154Y-59579920D01*
X110790581Y-59430762D01*
X110793442Y-59417398D01*
X110802674Y-59327028D01*
X110803000Y-59320639D01*
X110803000Y-59320590D01*
X110799493Y-59307506D01*
X110786410Y-59304000D01*
X105653590Y-59304000D01*
X105640506Y-59307506D01*
X105637000Y-59320590D01*
X105637000Y-59320639D01*
X105637325Y-59327028D01*
X105646557Y-59417398D01*
X105649418Y-59430762D01*
X105698845Y-59579920D01*
X105705005Y-59593132D01*
X105787255Y-59726480D01*
X105800848Y-59743670D01*
X105799318Y-59744879D01*
X105826545Y-59792036D01*
X105826545Y-59857258D01*
X105799038Y-59904898D01*
X105800454Y-59906018D01*
X105795906Y-59911768D01*
X105790715Y-59916960D01*
X105786864Y-59923202D01*
X105786861Y-59923207D01*
X105704548Y-60056656D01*
X105704545Y-60056661D01*
X105700698Y-60062899D01*
X105698392Y-60069856D01*
X105698390Y-60069862D01*
X105649340Y-60217889D01*
X105646764Y-60225664D01*
X105646065Y-60232498D01*
X105646065Y-60232502D01*
X105638438Y-60307162D01*
X105636500Y-60326128D01*
X105636500Y-60329334D01*
X105636500Y-60635405D01*
X105626909Y-60683623D01*
X105599595Y-60724501D01*
X104527736Y-61796357D01*
X104519458Y-61803889D01*
X104512982Y-61808000D01*
X104507559Y-61813774D01*
X104507560Y-61813774D01*
X104466370Y-61857636D01*
X104463621Y-61860472D01*
X104446667Y-61877427D01*
X104446660Y-61877434D01*
X104443865Y-61880230D01*
X104441442Y-61883352D01*
X104441426Y-61883371D01*
X104441365Y-61883451D01*
X104433690Y-61892435D01*
X104408838Y-61918902D01*
X104408835Y-61918904D01*
X104403414Y-61924679D01*
X104399600Y-61931614D01*
X104399592Y-61931627D01*
X104393650Y-61942436D01*
X104382803Y-61958949D01*
X104375243Y-61968695D01*
X104375237Y-61968704D01*
X104370386Y-61974959D01*
X104367242Y-61982223D01*
X104367238Y-61982231D01*
X104352824Y-62015540D01*
X104347604Y-62026195D01*
X104330125Y-62057989D01*
X104330121Y-62057997D01*
X104326305Y-62064940D01*
X104324333Y-62072616D01*
X104324331Y-62072624D01*
X104321266Y-62084562D01*
X104314865Y-62103259D01*
X104309968Y-62114576D01*
X104309966Y-62114581D01*
X104306819Y-62121855D01*
X104305579Y-62129680D01*
X104305577Y-62129689D01*
X104299901Y-62165524D01*
X104297495Y-62177144D01*
X104288471Y-62212289D01*
X104288469Y-62212297D01*
X104286500Y-62219970D01*
X104286500Y-62227899D01*
X104286500Y-62240224D01*
X104284949Y-62259935D01*
X104283019Y-62272114D01*
X104283018Y-62272121D01*
X104281780Y-62279943D01*
X104282525Y-62287826D01*
X104282525Y-62287834D01*
X104285941Y-62323961D01*
X104286500Y-62335819D01*
X104286500Y-63447476D01*
X104278131Y-63492630D01*
X104254138Y-63531783D01*
X104180960Y-63613056D01*
X104177661Y-63618769D01*
X104177658Y-63618774D01*
X104097623Y-63757400D01*
X104085473Y-63778444D01*
X104083434Y-63784718D01*
X104083430Y-63784728D01*
X104028497Y-63953794D01*
X104028495Y-63953801D01*
X104026458Y-63960072D01*
X104025768Y-63966633D01*
X104025768Y-63966635D01*
X104020845Y-64013478D01*
X104006496Y-64150000D01*
X98172500Y-64150000D01*
X98172500Y-60942136D01*
X98173578Y-60925690D01*
X98176672Y-60902188D01*
X98177750Y-60894000D01*
X98172500Y-60854122D01*
X98172500Y-60854115D01*
X98156838Y-60735150D01*
X98095524Y-60587125D01*
X98059294Y-60539909D01*
X98059294Y-60539908D01*
X98059293Y-60539907D01*
X98049186Y-60526735D01*
X98023941Y-60464138D01*
X98021126Y-60439155D01*
X98013217Y-60368953D01*
X97953043Y-60196985D01*
X97917997Y-60141210D01*
X97859878Y-60048714D01*
X97859877Y-60048713D01*
X97856111Y-60042719D01*
X97727281Y-59913889D01*
X97721287Y-59910123D01*
X97721285Y-59910121D01*
X97579006Y-59820721D01*
X97579003Y-59820719D01*
X97573015Y-59816957D01*
X97566339Y-59814621D01*
X97566335Y-59814619D01*
X97407724Y-59759119D01*
X97407720Y-59759118D01*
X97401047Y-59756783D01*
X97220000Y-59736384D01*
X97212971Y-59737176D01*
X97045981Y-59755991D01*
X97045979Y-59755991D01*
X97038953Y-59756783D01*
X97032280Y-59759117D01*
X97032275Y-59759119D01*
X96873664Y-59814619D01*
X96873656Y-59814622D01*
X96866985Y-59816957D01*
X96861000Y-59820717D01*
X96860993Y-59820721D01*
X96718714Y-59910121D01*
X96718707Y-59910126D01*
X96712719Y-59913889D01*
X96707714Y-59918893D01*
X96707710Y-59918897D01*
X96588897Y-60037710D01*
X96588893Y-60037714D01*
X96583889Y-60042719D01*
X96580126Y-60048707D01*
X96580121Y-60048714D01*
X96490721Y-60190993D01*
X96490717Y-60191000D01*
X96486957Y-60196985D01*
X96484622Y-60203656D01*
X96484619Y-60203664D01*
X96429119Y-60362275D01*
X96429117Y-60362280D01*
X96426783Y-60368953D01*
X96406384Y-60550000D01*
X96426783Y-60731047D01*
X96429118Y-60737720D01*
X96429119Y-60737724D01*
X96484619Y-60896335D01*
X96484621Y-60896339D01*
X96486957Y-60903015D01*
X96490719Y-60909003D01*
X96490721Y-60909006D01*
X96575025Y-61043175D01*
X96583889Y-61057281D01*
X96712719Y-61186111D01*
X96718713Y-61189877D01*
X96718714Y-61189878D01*
X96771707Y-61223176D01*
X96866985Y-61283043D01*
X96873664Y-61285380D01*
X96880039Y-61288450D01*
X96879510Y-61289547D01*
X96915200Y-61311051D01*
X96944986Y-61353029D01*
X96955500Y-61403417D01*
X96955500Y-61659628D01*
X96941529Y-61717294D01*
X96902716Y-61762173D01*
X96847666Y-61784312D01*
X96788588Y-61778801D01*
X96753442Y-61766735D01*
X96743372Y-61764185D01*
X96681538Y-61753867D01*
X96670401Y-61754443D01*
X96668000Y-61765336D01*
X96668000Y-63214000D01*
X96651119Y-63277000D01*
X96605000Y-63323119D01*
X96542000Y-63340000D01*
X96286000Y-63340000D01*
X96223000Y-63323119D01*
X96176881Y-63277000D01*
X96160000Y-63214000D01*
X96160000Y-61765336D01*
X96157598Y-61754443D01*
X96146461Y-61753867D01*
X96084627Y-61764185D01*
X96074557Y-61766735D01*
X95871559Y-61836424D01*
X95862042Y-61840599D01*
X95673281Y-61942752D01*
X95664588Y-61948431D01*
X95495211Y-62080262D01*
X95487569Y-62087298D01*
X95474714Y-62101262D01*
X95416822Y-62137017D01*
X95348780Y-62137457D01*
X95290430Y-62102453D01*
X95258791Y-62042212D01*
X95263087Y-61974308D01*
X95313217Y-61831047D01*
X95333616Y-61650000D01*
X95313217Y-61468953D01*
X95253043Y-61296985D01*
X95204651Y-61219969D01*
X95159878Y-61148714D01*
X95159877Y-61148713D01*
X95156111Y-61142719D01*
X95027281Y-61013889D01*
X95021287Y-61010123D01*
X95021285Y-61010121D01*
X94879006Y-60920721D01*
X94879003Y-60920719D01*
X94873015Y-60916957D01*
X94866339Y-60914621D01*
X94866335Y-60914619D01*
X94707724Y-60859119D01*
X94707720Y-60859118D01*
X94701047Y-60856783D01*
X94520000Y-60836384D01*
X94512971Y-60837176D01*
X94345981Y-60855991D01*
X94345979Y-60855991D01*
X94338953Y-60856783D01*
X94332280Y-60859117D01*
X94332275Y-60859119D01*
X94173664Y-60914619D01*
X94173656Y-60914622D01*
X94166985Y-60916957D01*
X94161000Y-60920717D01*
X94160993Y-60920721D01*
X94018714Y-61010121D01*
X94018707Y-61010126D01*
X94012719Y-61013889D01*
X94007714Y-61018893D01*
X94007710Y-61018897D01*
X93888897Y-61137710D01*
X93888893Y-61137714D01*
X93883889Y-61142719D01*
X93880126Y-61148707D01*
X93880121Y-61148714D01*
X93790721Y-61290993D01*
X93790717Y-61291000D01*
X93786957Y-61296985D01*
X93784622Y-61303656D01*
X93784619Y-61303664D01*
X93729119Y-61462275D01*
X93729117Y-61462280D01*
X93726783Y-61468953D01*
X93725991Y-61475979D01*
X93725991Y-61475981D01*
X93716233Y-61562586D01*
X93706384Y-61650000D01*
X93726783Y-61831047D01*
X93729118Y-61837720D01*
X93729119Y-61837724D01*
X93784619Y-61996335D01*
X93784621Y-61996339D01*
X93786957Y-62003015D01*
X93790719Y-62009003D01*
X93790721Y-62009006D01*
X93871432Y-62137457D01*
X93883889Y-62157281D01*
X93888897Y-62162289D01*
X93974595Y-62247987D01*
X94001909Y-62288864D01*
X94011500Y-62337082D01*
X94011500Y-63355810D01*
X94001909Y-63404028D01*
X93974595Y-63444906D01*
X93075762Y-64343737D01*
X93063375Y-64354600D01*
X93044561Y-64369037D01*
X93044554Y-64369043D01*
X93038012Y-64374064D01*
X93032991Y-64380606D01*
X93032988Y-64380610D01*
X93014275Y-64404997D01*
X93013524Y-64405976D01*
X93013522Y-64405979D01*
X92974700Y-64456572D01*
X92950954Y-64487519D01*
X92940475Y-64501175D01*
X92937317Y-64508798D01*
X92937314Y-64508804D01*
X92882318Y-64641575D01*
X92882316Y-64641582D01*
X92882143Y-64642000D01*
X92879161Y-64649201D01*
X92878084Y-64657378D01*
X92878083Y-64657384D01*
X92864506Y-64760514D01*
X92863499Y-64768166D01*
X92863499Y-64768171D01*
X92858249Y-64808051D01*
X92859327Y-64816240D01*
X92859327Y-64818510D01*
X92852257Y-64860124D01*
X92835486Y-64890467D01*
X92835888Y-64890720D01*
X92742720Y-65038994D01*
X92742716Y-65039001D01*
X92738956Y-65044986D01*
X92736621Y-65051657D01*
X92736618Y-65051665D01*
X92681118Y-65210276D01*
X92681116Y-65210281D01*
X92678782Y-65216954D01*
X92677990Y-65223980D01*
X92677990Y-65223982D01*
X92674265Y-65257047D01*
X92658383Y-65398001D01*
X85424000Y-65398001D01*
X85424000Y-64258001D01*
X90615481Y-64258001D01*
X90616171Y-64264563D01*
X90616171Y-64264569D01*
X90622147Y-64321433D01*
X90622652Y-64327778D01*
X90625244Y-64375573D01*
X90626270Y-64394488D01*
X90628096Y-64401067D01*
X90628098Y-64401075D01*
X90629187Y-64404997D01*
X90633088Y-64425525D01*
X90633218Y-64426764D01*
X90633219Y-64426767D01*
X90633910Y-64433337D01*
X90635950Y-64439614D01*
X90635951Y-64439619D01*
X90654689Y-64497289D01*
X90656263Y-64502516D01*
X90670939Y-64555376D01*
X90675074Y-64570266D01*
X90678273Y-64576301D01*
X90678276Y-64576307D01*
X90678543Y-64576810D01*
X90683594Y-64588728D01*
X90683664Y-64588697D01*
X90686348Y-64594727D01*
X90688390Y-64601010D01*
X90691690Y-64606726D01*
X90691692Y-64606730D01*
X90723757Y-64662268D01*
X90725959Y-64666247D01*
X90756040Y-64722985D01*
X90760525Y-64731444D01*
X90764950Y-64736653D01*
X90768782Y-64742305D01*
X90768665Y-64742383D01*
X90769015Y-64742879D01*
X90769357Y-64742631D01*
X90773241Y-64747976D01*
X90776541Y-64753692D01*
X90789578Y-64768171D01*
X90826220Y-64808866D01*
X90828616Y-64811606D01*
X90853173Y-64840516D01*
X90878627Y-64870483D01*
X90884065Y-64874616D01*
X90885459Y-64875937D01*
X90889668Y-64879422D01*
X90890095Y-64879806D01*
X90894510Y-64884710D01*
X90949853Y-64924919D01*
X90957436Y-64930428D01*
X90959568Y-64932013D01*
X91023857Y-64980884D01*
X91030059Y-64983753D01*
X91031777Y-64984787D01*
X91033440Y-64985649D01*
X91037141Y-64988338D01*
X91111395Y-65021397D01*
X91113000Y-65022126D01*
X91189424Y-65057484D01*
X91195402Y-65058799D01*
X91198201Y-65060046D01*
X91281089Y-65077664D01*
X91281980Y-65077857D01*
X91367587Y-65096701D01*
X91370650Y-65096701D01*
X91504269Y-65096701D01*
X91540343Y-65096701D01*
X91546952Y-65096701D01*
X91585450Y-65088517D01*
X91597986Y-65086508D01*
X91640160Y-65081922D01*
X91673722Y-65070612D01*
X91687737Y-65066775D01*
X91719401Y-65060046D01*
X91758550Y-65042615D01*
X91769554Y-65038323D01*
X91813038Y-65023672D01*
X91840376Y-65007222D01*
X91854086Y-65000079D01*
X91880461Y-64988338D01*
X91917952Y-64961098D01*
X91927038Y-64955080D01*
X91969353Y-64929621D01*
X91989979Y-64910081D01*
X92002564Y-64899623D01*
X92023092Y-64884710D01*
X92056438Y-64847672D01*
X92063403Y-64840529D01*
X92101795Y-64804165D01*
X92115779Y-64783538D01*
X92126433Y-64769937D01*
X92136644Y-64758597D01*
X92141061Y-64753692D01*
X92167724Y-64707507D01*
X92172540Y-64699822D01*
X92196669Y-64664237D01*
X92200338Y-64658826D01*
X92200339Y-64658823D01*
X92204172Y-64653171D01*
X92212101Y-64633269D01*
X92220036Y-64616902D01*
X92229212Y-64601010D01*
X92246764Y-64546986D01*
X92249538Y-64539306D01*
X92271695Y-64483700D01*
X92274594Y-64466010D01*
X92279101Y-64447465D01*
X92283692Y-64433337D01*
X92289993Y-64373380D01*
X92290962Y-64366171D01*
X92292105Y-64359201D01*
X92301209Y-64303675D01*
X92300428Y-64289281D01*
X92300933Y-64269293D01*
X92302121Y-64258001D01*
X92301430Y-64251427D01*
X92295453Y-64194567D01*
X92294949Y-64188237D01*
X92291332Y-64121514D01*
X92288413Y-64111002D01*
X92284511Y-64090461D01*
X92283692Y-64082665D01*
X92262905Y-64018691D01*
X92261341Y-64013501D01*
X92242528Y-63945736D01*
X92239064Y-63939204D01*
X92234011Y-63927277D01*
X92233940Y-63927309D01*
X92231252Y-63921274D01*
X92229212Y-63914992D01*
X92193822Y-63853695D01*
X92191645Y-63849761D01*
X92160278Y-63790595D01*
X92160276Y-63790592D01*
X92157077Y-63784558D01*
X92152654Y-63779351D01*
X92148821Y-63773698D01*
X92148938Y-63773618D01*
X92148589Y-63773124D01*
X92148246Y-63773374D01*
X92144363Y-63768029D01*
X92141061Y-63762310D01*
X92091378Y-63707132D01*
X92088984Y-63704394D01*
X92064428Y-63675485D01*
X92038975Y-63645519D01*
X92033531Y-63641381D01*
X92032139Y-63640062D01*
X92027927Y-63636575D01*
X92027512Y-63636201D01*
X92023092Y-63631292D01*
X91960183Y-63585586D01*
X91958003Y-63583965D01*
X91899182Y-63539250D01*
X91899174Y-63539245D01*
X91893745Y-63535118D01*
X91887559Y-63532255D01*
X91885848Y-63531226D01*
X91884157Y-63530349D01*
X91880461Y-63527664D01*
X91874434Y-63524980D01*
X91874426Y-63524976D01*
X91806179Y-63494590D01*
X91804522Y-63493838D01*
X91777091Y-63481147D01*
X91728270Y-63441141D01*
X91704977Y-63382478D01*
X91713056Y-63319879D01*
X91750478Y-63269056D01*
X91822349Y-63210585D01*
X91853585Y-63166332D01*
X91894766Y-63129167D01*
X91947922Y-63113289D01*
X92002745Y-63121780D01*
X92048607Y-63152993D01*
X92133823Y-63244237D01*
X92151162Y-63262802D01*
X92281588Y-63342116D01*
X92428576Y-63383300D01*
X92538580Y-63383300D01*
X92542885Y-63383300D01*
X92656127Y-63367735D01*
X92796138Y-63306920D01*
X92914549Y-63210585D01*
X93002578Y-63085876D01*
X93053697Y-62942041D01*
X93064114Y-62789749D01*
X93033057Y-62640293D01*
X92962829Y-62504759D01*
X92858638Y-62393198D01*
X92851277Y-62388721D01*
X92851275Y-62388720D01*
X92735574Y-62318361D01*
X92728212Y-62313884D01*
X92719917Y-62311560D01*
X92719913Y-62311558D01*
X92589524Y-62275025D01*
X92589520Y-62275024D01*
X92581224Y-62272700D01*
X92466915Y-62272700D01*
X92462657Y-62273285D01*
X92462646Y-62273286D01*
X92362211Y-62287091D01*
X92362207Y-62287091D01*
X92353673Y-62288265D01*
X92345776Y-62291694D01*
X92345769Y-62291697D01*
X92221571Y-62345644D01*
X92221567Y-62345646D01*
X92213662Y-62349080D01*
X92206973Y-62354521D01*
X92206971Y-62354523D01*
X92101938Y-62439974D01*
X92101935Y-62439976D01*
X92095251Y-62445415D01*
X92090283Y-62452451D01*
X92090280Y-62452456D01*
X92064015Y-62489666D01*
X92022831Y-62526833D01*
X91969675Y-62542710D01*
X91914853Y-62534219D01*
X91868992Y-62503006D01*
X91772320Y-62399496D01*
X91772319Y-62399495D01*
X91766438Y-62393198D01*
X91759077Y-62388721D01*
X91759075Y-62388720D01*
X91643374Y-62318361D01*
X91636012Y-62313884D01*
X91627717Y-62311560D01*
X91627713Y-62311558D01*
X91497324Y-62275025D01*
X91497320Y-62275024D01*
X91489024Y-62272700D01*
X91374715Y-62272700D01*
X91370457Y-62273285D01*
X91370446Y-62273286D01*
X91270011Y-62287091D01*
X91270007Y-62287091D01*
X91261473Y-62288265D01*
X91253576Y-62291694D01*
X91253569Y-62291697D01*
X91129371Y-62345644D01*
X91129367Y-62345646D01*
X91121462Y-62349080D01*
X91114773Y-62354521D01*
X91114771Y-62354523D01*
X91009738Y-62439974D01*
X91009735Y-62439976D01*
X91003051Y-62445415D01*
X90998083Y-62452451D01*
X90998080Y-62452456D01*
X90919991Y-62563083D01*
X90919988Y-62563088D01*
X90915022Y-62570124D01*
X90912137Y-62578239D01*
X90912136Y-62578243D01*
X90866789Y-62705837D01*
X90866788Y-62705840D01*
X90863903Y-62713959D01*
X90863315Y-62722553D01*
X90863314Y-62722559D01*
X90854251Y-62855072D01*
X90853486Y-62866251D01*
X90855237Y-62874681D01*
X90855238Y-62874684D01*
X90857743Y-62886739D01*
X90884543Y-63015707D01*
X90888505Y-63023353D01*
X90888506Y-63023356D01*
X90943333Y-63129167D01*
X90954771Y-63151241D01*
X91058962Y-63262802D01*
X91093387Y-63283736D01*
X91137822Y-63329769D01*
X91153921Y-63391690D01*
X91137531Y-63453536D01*
X91092880Y-63499358D01*
X91077222Y-63508779D01*
X91063517Y-63515919D01*
X91043176Y-63524976D01*
X91043168Y-63524980D01*
X91037141Y-63527664D01*
X91031810Y-63531536D01*
X91031796Y-63531545D01*
X90999649Y-63554901D01*
X90990555Y-63560924D01*
X90954104Y-63582857D01*
X90954097Y-63582861D01*
X90948249Y-63586381D01*
X90943294Y-63591074D01*
X90943284Y-63591082D01*
X90927614Y-63605925D01*
X90915034Y-63616378D01*
X90899851Y-63627409D01*
X90899837Y-63627421D01*
X90894510Y-63631292D01*
X90890101Y-63636188D01*
X90890095Y-63636194D01*
X90861166Y-63668323D01*
X90854183Y-63675485D01*
X90820767Y-63707138D01*
X90820764Y-63707141D01*
X90815807Y-63711837D01*
X90811973Y-63717490D01*
X90811969Y-63717496D01*
X90801818Y-63732467D01*
X90791174Y-63746057D01*
X90780961Y-63757400D01*
X90780957Y-63757404D01*
X90776541Y-63762310D01*
X90773242Y-63768023D01*
X90773236Y-63768032D01*
X90749882Y-63808482D01*
X90745054Y-63816188D01*
X90720933Y-63851764D01*
X90713430Y-63862831D01*
X90710905Y-63869167D01*
X90710899Y-63869179D01*
X90705495Y-63882742D01*
X90697572Y-63899086D01*
X90691690Y-63909274D01*
X90691689Y-63909277D01*
X90688390Y-63914992D01*
X90686352Y-63921262D01*
X90686347Y-63921275D01*
X90670836Y-63969012D01*
X90668056Y-63976709D01*
X90657183Y-64004000D01*
X90645907Y-64032302D01*
X90644803Y-64039030D01*
X90644800Y-64039044D01*
X90643005Y-64049995D01*
X90638502Y-64068529D01*
X90633910Y-64082665D01*
X90633220Y-64089224D01*
X90633220Y-64089227D01*
X90627607Y-64142626D01*
X90626637Y-64149836D01*
X90617498Y-64205583D01*
X90617497Y-64205588D01*
X90616393Y-64212327D01*
X90617002Y-64223568D01*
X90617173Y-64226716D01*
X90616668Y-64246704D01*
X90615481Y-64258001D01*
X85424000Y-64258001D01*
X85424000Y-62866251D01*
X86825886Y-62866251D01*
X86827637Y-62874681D01*
X86827638Y-62874684D01*
X86830143Y-62886739D01*
X86856943Y-63015707D01*
X86860905Y-63023353D01*
X86860906Y-63023356D01*
X86915733Y-63129167D01*
X86927171Y-63151241D01*
X87031362Y-63262802D01*
X87161788Y-63342116D01*
X87308776Y-63383300D01*
X87418780Y-63383300D01*
X87423085Y-63383300D01*
X87536327Y-63367735D01*
X87676338Y-63306920D01*
X87699299Y-63288239D01*
X87744817Y-63264652D01*
X87795970Y-63261152D01*
X87844282Y-63278322D01*
X87928884Y-63329769D01*
X87949188Y-63342116D01*
X88096176Y-63383300D01*
X88206180Y-63383300D01*
X88210485Y-63383300D01*
X88323727Y-63367735D01*
X88463738Y-63306920D01*
X88582149Y-63210585D01*
X88670178Y-63085876D01*
X88721297Y-62942041D01*
X88731714Y-62789749D01*
X88700657Y-62640293D01*
X88630429Y-62504759D01*
X88526238Y-62393198D01*
X88518877Y-62388721D01*
X88518875Y-62388720D01*
X88403174Y-62318361D01*
X88395812Y-62313884D01*
X88387517Y-62311560D01*
X88387513Y-62311558D01*
X88257124Y-62275025D01*
X88257120Y-62275024D01*
X88248824Y-62272700D01*
X88134515Y-62272700D01*
X88130257Y-62273285D01*
X88130246Y-62273286D01*
X88029811Y-62287091D01*
X88029807Y-62287091D01*
X88021273Y-62288265D01*
X88013376Y-62291694D01*
X88013369Y-62291697D01*
X87889165Y-62345647D01*
X87889163Y-62345647D01*
X87881262Y-62349080D01*
X87874579Y-62354516D01*
X87874579Y-62354517D01*
X87858298Y-62367762D01*
X87812775Y-62391348D01*
X87761625Y-62394846D01*
X87713315Y-62377677D01*
X87615774Y-62318361D01*
X87608412Y-62313884D01*
X87600117Y-62311560D01*
X87600113Y-62311558D01*
X87469724Y-62275025D01*
X87469720Y-62275024D01*
X87461424Y-62272700D01*
X87347115Y-62272700D01*
X87342857Y-62273285D01*
X87342846Y-62273286D01*
X87242411Y-62287091D01*
X87242407Y-62287091D01*
X87233873Y-62288265D01*
X87225976Y-62291694D01*
X87225969Y-62291697D01*
X87101771Y-62345644D01*
X87101767Y-62345646D01*
X87093862Y-62349080D01*
X87087173Y-62354521D01*
X87087171Y-62354523D01*
X86982138Y-62439974D01*
X86982135Y-62439976D01*
X86975451Y-62445415D01*
X86970483Y-62452451D01*
X86970480Y-62452456D01*
X86892391Y-62563083D01*
X86892388Y-62563088D01*
X86887422Y-62570124D01*
X86884537Y-62578239D01*
X86884536Y-62578243D01*
X86839189Y-62705837D01*
X86839188Y-62705840D01*
X86836303Y-62713959D01*
X86835715Y-62722553D01*
X86835714Y-62722559D01*
X86826651Y-62855072D01*
X86825886Y-62866251D01*
X85424000Y-62866251D01*
X85424000Y-58779410D01*
X105637000Y-58779410D01*
X105640506Y-58792493D01*
X105653590Y-58796000D01*
X106349410Y-58796000D01*
X106362493Y-58792493D01*
X106366000Y-58779410D01*
X106366000Y-58108590D01*
X106362493Y-58095506D01*
X106349410Y-58092000D01*
X106324361Y-58092000D01*
X106317971Y-58092325D01*
X106227601Y-58101557D01*
X106214237Y-58104418D01*
X106065079Y-58153845D01*
X106051867Y-58160005D01*
X105918519Y-58242255D01*
X105907078Y-58251302D01*
X105796302Y-58362078D01*
X105787255Y-58373519D01*
X105705005Y-58506867D01*
X105698845Y-58520079D01*
X105649418Y-58669237D01*
X105646557Y-58682601D01*
X105637325Y-58772971D01*
X105637000Y-58779362D01*
X105637000Y-58779410D01*
X85424000Y-58779410D01*
X85424000Y-55717765D01*
X87315788Y-55717765D01*
X87316290Y-55722332D01*
X87316291Y-55722344D01*
X87344910Y-55982444D01*
X87344911Y-55982453D01*
X87345414Y-55987018D01*
X87346576Y-55991463D01*
X87346577Y-55991468D01*
X87410347Y-56235392D01*
X87413928Y-56249088D01*
X87415725Y-56253318D01*
X87415728Y-56253325D01*
X87459227Y-56355686D01*
X87519870Y-56498390D01*
X87522265Y-56502315D01*
X87522266Y-56502316D01*
X87607131Y-56641373D01*
X87660982Y-56729610D01*
X87663917Y-56733137D01*
X87663918Y-56733138D01*
X87794357Y-56889878D01*
X87834255Y-56937820D01*
X87929177Y-57022870D01*
X88032561Y-57115503D01*
X88032565Y-57115506D01*
X88035998Y-57118582D01*
X88261910Y-57268044D01*
X88507176Y-57383020D01*
X88766569Y-57461060D01*
X89034561Y-57500500D01*
X89235330Y-57500500D01*
X89237631Y-57500500D01*
X89440156Y-57485677D01*
X89704553Y-57426780D01*
X89957558Y-57330014D01*
X90193777Y-57197441D01*
X90408177Y-57031888D01*
X90596186Y-56836881D01*
X90753799Y-56616579D01*
X90877656Y-56375675D01*
X90920531Y-56250000D01*
X102136384Y-56250000D01*
X102156783Y-56431047D01*
X102159118Y-56437720D01*
X102159119Y-56437724D01*
X102214619Y-56596335D01*
X102214621Y-56596339D01*
X102216957Y-56603015D01*
X102220719Y-56609003D01*
X102220721Y-56609006D01*
X102298718Y-56733138D01*
X102313889Y-56757281D01*
X102442719Y-56886111D01*
X102596985Y-56983043D01*
X102768953Y-57043217D01*
X102950000Y-57063616D01*
X103131047Y-57043217D01*
X103303015Y-56983043D01*
X103457281Y-56886111D01*
X103586111Y-56757281D01*
X103683043Y-56603015D01*
X103743217Y-56431047D01*
X103748230Y-56386547D01*
X103759916Y-56345987D01*
X103784340Y-56311562D01*
X104075499Y-56020404D01*
X104116377Y-55993091D01*
X104164595Y-55983500D01*
X106884371Y-55983500D01*
X106944270Y-55998648D01*
X106989766Y-56040450D01*
X107009920Y-56098855D01*
X106999887Y-56159819D01*
X106962079Y-56208684D01*
X106961369Y-56209239D01*
X106954845Y-56213184D01*
X106949456Y-56218572D01*
X106949452Y-56218576D01*
X106838574Y-56329454D01*
X106838570Y-56329458D01*
X106833184Y-56334845D01*
X106829245Y-56341360D01*
X106829241Y-56341366D01*
X106820585Y-56355686D01*
X106774654Y-56400248D01*
X106712757Y-56416500D01*
X106567736Y-56416500D01*
X106500700Y-56397187D01*
X106379006Y-56320721D01*
X106379003Y-56320719D01*
X106373015Y-56316957D01*
X106366339Y-56314621D01*
X106366335Y-56314619D01*
X106207724Y-56259119D01*
X106207720Y-56259118D01*
X106201047Y-56256783D01*
X106020000Y-56236384D01*
X106012971Y-56237176D01*
X105845981Y-56255991D01*
X105845979Y-56255991D01*
X105838953Y-56256783D01*
X105832280Y-56259117D01*
X105832275Y-56259119D01*
X105673664Y-56314619D01*
X105673656Y-56314622D01*
X105666985Y-56316957D01*
X105661000Y-56320717D01*
X105660993Y-56320721D01*
X105518714Y-56410121D01*
X105518707Y-56410126D01*
X105512719Y-56413889D01*
X105507714Y-56418893D01*
X105507710Y-56418897D01*
X105388897Y-56537710D01*
X105388893Y-56537714D01*
X105383889Y-56542719D01*
X105380126Y-56548707D01*
X105380121Y-56548714D01*
X105290721Y-56690993D01*
X105290717Y-56691000D01*
X105286957Y-56696985D01*
X105284622Y-56703656D01*
X105284619Y-56703664D01*
X105229119Y-56862275D01*
X105229117Y-56862280D01*
X105226783Y-56868953D01*
X105225991Y-56875979D01*
X105225991Y-56875981D01*
X105214352Y-56979278D01*
X105206384Y-57050000D01*
X105226783Y-57231047D01*
X105229118Y-57237720D01*
X105229119Y-57237724D01*
X105284619Y-57396335D01*
X105284621Y-57396339D01*
X105286957Y-57403015D01*
X105290719Y-57409003D01*
X105290721Y-57409006D01*
X105347788Y-57499828D01*
X105383889Y-57557281D01*
X105512719Y-57686111D01*
X105666985Y-57783043D01*
X105838953Y-57843217D01*
X106020000Y-57863616D01*
X106201047Y-57843217D01*
X106373015Y-57783043D01*
X106500699Y-57702813D01*
X106567736Y-57683500D01*
X106712757Y-57683500D01*
X106774654Y-57699752D01*
X106820585Y-57744314D01*
X106829239Y-57758630D01*
X106833184Y-57765155D01*
X106838574Y-57770545D01*
X106948771Y-57880742D01*
X106981382Y-57937225D01*
X106981383Y-58002447D01*
X106948773Y-58058931D01*
X106892290Y-58091543D01*
X106877506Y-58095504D01*
X106874000Y-58108590D01*
X106874000Y-58779410D01*
X106877506Y-58792493D01*
X106890590Y-58796000D01*
X110786410Y-58796000D01*
X110799493Y-58792493D01*
X110803000Y-58779410D01*
X110803000Y-58779362D01*
X110802674Y-58772971D01*
X110793442Y-58682601D01*
X110790581Y-58669237D01*
X110741154Y-58520079D01*
X110734994Y-58506867D01*
X110652744Y-58373519D01*
X110643697Y-58362078D01*
X110532921Y-58251302D01*
X110521480Y-58242255D01*
X110388132Y-58160005D01*
X110374920Y-58153845D01*
X110225762Y-58104418D01*
X110212398Y-58101557D01*
X110122028Y-58092325D01*
X110115639Y-58092000D01*
X109984161Y-58092000D01*
X109926958Y-58078267D01*
X109882225Y-58040061D01*
X109859712Y-57985711D01*
X109864328Y-57927064D01*
X109895066Y-57876905D01*
X109931091Y-57840880D01*
X110006816Y-57765155D01*
X110019509Y-57744158D01*
X110034528Y-57719315D01*
X110080458Y-57674752D01*
X110142356Y-57658500D01*
X123415761Y-57658500D01*
X123463979Y-57668091D01*
X123504856Y-57695405D01*
X125581166Y-59771715D01*
X125605593Y-59806140D01*
X125617279Y-59846702D01*
X125625990Y-59924018D01*
X125625991Y-59924026D01*
X125626783Y-59931047D01*
X125629119Y-59937725D01*
X125629120Y-59937726D01*
X125684619Y-60096335D01*
X125684621Y-60096339D01*
X125686957Y-60103015D01*
X125690719Y-60109003D01*
X125690721Y-60109006D01*
X125771414Y-60237428D01*
X125783889Y-60257281D01*
X125912719Y-60386111D01*
X126066985Y-60483043D01*
X126238953Y-60543217D01*
X126420000Y-60563616D01*
X126601047Y-60543217D01*
X126773015Y-60483043D01*
X126927281Y-60386111D01*
X127056111Y-60257281D01*
X127153043Y-60103015D01*
X127213217Y-59931047D01*
X127233616Y-59750000D01*
X127213217Y-59568953D01*
X127153043Y-59396985D01*
X127105041Y-59320590D01*
X127059878Y-59248714D01*
X127059877Y-59248713D01*
X127056111Y-59242719D01*
X126927281Y-59113889D01*
X126921287Y-59110123D01*
X126921285Y-59110121D01*
X126779006Y-59020721D01*
X126779003Y-59020719D01*
X126773015Y-59016957D01*
X126766339Y-59014621D01*
X126766335Y-59014619D01*
X126607726Y-58959120D01*
X126607725Y-58959119D01*
X126601047Y-58956783D01*
X126594026Y-58955991D01*
X126594018Y-58955990D01*
X126516702Y-58947279D01*
X126476140Y-58935593D01*
X126441715Y-58911166D01*
X124184314Y-56653765D01*
X124173446Y-56641373D01*
X124159014Y-56622564D01*
X124159013Y-56622563D01*
X124153987Y-56616013D01*
X124147436Y-56610986D01*
X124147434Y-56610984D01*
X124122075Y-56591526D01*
X124122072Y-56591523D01*
X124033429Y-56523504D01*
X124033427Y-56523502D01*
X124026876Y-56518476D01*
X124019249Y-56515316D01*
X124019246Y-56515315D01*
X123886479Y-56460321D01*
X123886474Y-56460319D01*
X123878851Y-56457162D01*
X123870667Y-56456084D01*
X123870666Y-56456084D01*
X123859456Y-56454608D01*
X123759885Y-56441500D01*
X123759884Y-56441500D01*
X123759876Y-56441499D01*
X123728190Y-56437328D01*
X123728189Y-56437328D01*
X123720000Y-56436250D01*
X123688307Y-56440422D01*
X123671864Y-56441500D01*
X110142356Y-56441500D01*
X110080458Y-56425248D01*
X110034528Y-56380685D01*
X110010760Y-56341369D01*
X110010758Y-56341366D01*
X110006816Y-56334845D01*
X109885155Y-56213184D01*
X109847560Y-56190457D01*
X109800513Y-56139898D01*
X109787184Y-56072135D01*
X109811577Y-56007524D01*
X109866361Y-55965478D01*
X109899909Y-55952195D01*
X109911117Y-55948357D01*
X109953593Y-55936018D01*
X109971039Y-55925699D01*
X109988769Y-55917013D01*
X110007617Y-55909552D01*
X110043387Y-55883561D01*
X110053298Y-55877051D01*
X110091362Y-55854542D01*
X110105688Y-55840215D01*
X110120717Y-55827378D01*
X110137107Y-55815472D01*
X110165294Y-55781397D01*
X110173272Y-55772630D01*
X111817780Y-54128123D01*
X111874263Y-54095513D01*
X111939484Y-54095513D01*
X111978537Y-54105978D01*
X112200000Y-54125353D01*
X112421463Y-54105978D01*
X112636196Y-54048440D01*
X112837677Y-53954488D01*
X113019781Y-53826977D01*
X113176977Y-53669781D01*
X113304488Y-53487677D01*
X113355805Y-53377626D01*
X113402300Y-53324610D01*
X113470000Y-53304877D01*
X113537700Y-53324610D01*
X113584194Y-53377626D01*
X113635512Y-53487677D01*
X113638665Y-53492180D01*
X113638668Y-53492185D01*
X113673874Y-53542464D01*
X113763023Y-53669781D01*
X113920219Y-53826977D01*
X113986261Y-53873220D01*
X114081937Y-53940214D01*
X114102323Y-53954488D01*
X114303804Y-54048440D01*
X114518537Y-54105978D01*
X114740000Y-54125353D01*
X114961463Y-54105978D01*
X115028399Y-54088041D01*
X115093619Y-54088041D01*
X115150104Y-54120653D01*
X115441208Y-54411757D01*
X115474954Y-54472814D01*
X115471042Y-54542467D01*
X115429119Y-54662275D01*
X115429117Y-54662280D01*
X115426783Y-54668953D01*
X115425991Y-54675979D01*
X115425991Y-54675981D01*
X115414345Y-54779341D01*
X115406384Y-54850000D01*
X115426783Y-55031047D01*
X115429118Y-55037720D01*
X115429119Y-55037724D01*
X115484619Y-55196335D01*
X115484621Y-55196339D01*
X115486957Y-55203015D01*
X115490719Y-55209003D01*
X115490721Y-55209006D01*
X115522138Y-55259006D01*
X115583889Y-55357281D01*
X115712719Y-55486111D01*
X115718713Y-55489877D01*
X115718714Y-55489878D01*
X115788138Y-55533500D01*
X115866985Y-55583043D01*
X116038953Y-55643217D01*
X116220000Y-55663616D01*
X116401047Y-55643217D01*
X116573015Y-55583043D01*
X116727281Y-55486111D01*
X116856111Y-55357281D01*
X116953043Y-55203015D01*
X117013217Y-55031047D01*
X117033616Y-54850000D01*
X117013217Y-54668953D01*
X116953043Y-54496985D01*
X116856111Y-54342719D01*
X116852949Y-54339557D01*
X116826963Y-54278447D01*
X116819573Y-54222309D01*
X116826571Y-54161481D01*
X116861418Y-54111133D01*
X116915884Y-54083156D01*
X116977107Y-54084159D01*
X117018179Y-54095164D01*
X117058537Y-54105978D01*
X117280000Y-54125353D01*
X117501463Y-54105978D01*
X117716196Y-54048440D01*
X117917677Y-53954488D01*
X118099781Y-53826977D01*
X118256977Y-53669781D01*
X118384488Y-53487677D01*
X118478440Y-53286196D01*
X118535978Y-53071463D01*
X118555353Y-52850000D01*
X118535978Y-52628537D01*
X118478440Y-52413804D01*
X118384488Y-52212324D01*
X118256977Y-52030219D01*
X118099781Y-51873023D01*
X118028046Y-51822794D01*
X117922185Y-51748668D01*
X117922180Y-51748665D01*
X117917677Y-51745512D01*
X117716196Y-51651560D01*
X117685291Y-51643279D01*
X117506776Y-51595445D01*
X117506769Y-51595443D01*
X117501463Y-51594022D01*
X117495989Y-51593543D01*
X117495983Y-51593542D01*
X117285475Y-51575126D01*
X117280000Y-51574647D01*
X117274525Y-51575126D01*
X117064016Y-51593542D01*
X117064008Y-51593543D01*
X117058537Y-51594022D01*
X117053232Y-51595443D01*
X117053223Y-51595445D01*
X116849114Y-51650137D01*
X116849112Y-51650137D01*
X116843804Y-51651560D01*
X116838827Y-51653880D01*
X116838821Y-51653883D01*
X116647311Y-51743186D01*
X116647306Y-51743188D01*
X116642324Y-51745512D01*
X116637824Y-51748662D01*
X116637815Y-51748668D01*
X116464730Y-51869864D01*
X116464727Y-51869866D01*
X116460219Y-51873023D01*
X116456327Y-51876914D01*
X116456321Y-51876920D01*
X116306920Y-52026321D01*
X116306914Y-52026327D01*
X116303023Y-52030219D01*
X116299866Y-52034727D01*
X116299864Y-52034730D01*
X116178668Y-52207815D01*
X116178662Y-52207824D01*
X116175512Y-52212324D01*
X116173188Y-52217306D01*
X116173186Y-52217311D01*
X116124195Y-52322373D01*
X116077700Y-52375390D01*
X116010000Y-52395123D01*
X115942300Y-52375390D01*
X115895805Y-52322373D01*
X115875739Y-52279342D01*
X115844488Y-52212324D01*
X115716977Y-52030219D01*
X115559781Y-51873023D01*
X115488046Y-51822794D01*
X115382185Y-51748668D01*
X115382180Y-51748665D01*
X115377677Y-51745512D01*
X115176196Y-51651560D01*
X115145291Y-51643279D01*
X114966776Y-51595445D01*
X114966769Y-51595443D01*
X114961463Y-51594022D01*
X114955989Y-51593543D01*
X114955983Y-51593542D01*
X114745475Y-51575126D01*
X114740000Y-51574647D01*
X114734525Y-51575126D01*
X114524016Y-51593542D01*
X114524008Y-51593543D01*
X114518537Y-51594022D01*
X114513232Y-51595443D01*
X114513223Y-51595445D01*
X114309114Y-51650137D01*
X114309112Y-51650137D01*
X114303804Y-51651560D01*
X114298827Y-51653880D01*
X114298821Y-51653883D01*
X114107311Y-51743186D01*
X114107306Y-51743188D01*
X114102324Y-51745512D01*
X114097824Y-51748662D01*
X114097815Y-51748668D01*
X113924730Y-51869864D01*
X113924727Y-51869866D01*
X113920219Y-51873023D01*
X113916327Y-51876914D01*
X113916321Y-51876920D01*
X113766920Y-52026321D01*
X113766914Y-52026327D01*
X113763023Y-52030219D01*
X113759866Y-52034727D01*
X113759864Y-52034730D01*
X113638668Y-52207815D01*
X113638662Y-52207824D01*
X113635512Y-52212324D01*
X113633188Y-52217306D01*
X113633186Y-52217311D01*
X113584195Y-52322373D01*
X113537700Y-52375390D01*
X113470000Y-52395123D01*
X113402300Y-52375390D01*
X113355805Y-52322373D01*
X113335739Y-52279342D01*
X113304488Y-52212324D01*
X113176977Y-52030219D01*
X113019781Y-51873023D01*
X112948046Y-51822794D01*
X112842185Y-51748668D01*
X112842180Y-51748665D01*
X112837677Y-51745512D01*
X112636196Y-51651560D01*
X112605291Y-51643279D01*
X112426776Y-51595445D01*
X112426769Y-51595443D01*
X112421463Y-51594022D01*
X112415989Y-51593543D01*
X112415983Y-51593542D01*
X112205475Y-51575126D01*
X112200000Y-51574647D01*
X112194525Y-51575126D01*
X111984016Y-51593542D01*
X111984008Y-51593543D01*
X111978537Y-51594022D01*
X111973232Y-51595443D01*
X111973223Y-51595445D01*
X111769114Y-51650137D01*
X111769112Y-51650137D01*
X111763804Y-51651560D01*
X111758827Y-51653880D01*
X111758821Y-51653883D01*
X111567311Y-51743186D01*
X111567306Y-51743188D01*
X111562324Y-51745512D01*
X111557824Y-51748662D01*
X111557815Y-51748668D01*
X111384730Y-51869864D01*
X111384727Y-51869866D01*
X111380219Y-51873023D01*
X111376327Y-51876914D01*
X111376321Y-51876920D01*
X111226920Y-52026321D01*
X111226914Y-52026327D01*
X111223023Y-52030219D01*
X111219866Y-52034727D01*
X111219864Y-52034730D01*
X111098668Y-52207815D01*
X111098662Y-52207824D01*
X111095512Y-52212324D01*
X111093188Y-52217306D01*
X111093186Y-52217311D01*
X111044195Y-52322373D01*
X110997700Y-52375390D01*
X110930000Y-52395123D01*
X110862300Y-52375390D01*
X110815805Y-52322373D01*
X110795739Y-52279342D01*
X110764488Y-52212324D01*
X110636977Y-52030219D01*
X110479781Y-51873023D01*
X110408046Y-51822794D01*
X110302185Y-51748668D01*
X110302180Y-51748665D01*
X110297677Y-51745512D01*
X110096196Y-51651560D01*
X110065291Y-51643279D01*
X109886776Y-51595445D01*
X109886769Y-51595443D01*
X109881463Y-51594022D01*
X109875989Y-51593543D01*
X109875983Y-51593542D01*
X109665475Y-51575126D01*
X109660000Y-51574647D01*
X109654525Y-51575126D01*
X109444016Y-51593542D01*
X109444008Y-51593543D01*
X109438537Y-51594022D01*
X109433232Y-51595443D01*
X109433223Y-51595445D01*
X109229114Y-51650137D01*
X109229112Y-51650137D01*
X109223804Y-51651560D01*
X109218827Y-51653880D01*
X109218821Y-51653883D01*
X109027311Y-51743186D01*
X109027306Y-51743188D01*
X109022324Y-51745512D01*
X109017824Y-51748662D01*
X109017815Y-51748668D01*
X108844730Y-51869864D01*
X108844727Y-51869866D01*
X108840219Y-51873023D01*
X108836327Y-51876914D01*
X108836321Y-51876920D01*
X108686920Y-52026321D01*
X108686914Y-52026327D01*
X108683023Y-52030219D01*
X108679866Y-52034727D01*
X108679864Y-52034730D01*
X108590209Y-52162771D01*
X108545176Y-52202263D01*
X108486996Y-52216500D01*
X103298768Y-52216500D01*
X103287584Y-52215972D01*
X103280092Y-52214298D01*
X103272166Y-52214547D01*
X103212002Y-52216438D01*
X103208044Y-52216500D01*
X103180144Y-52216500D01*
X103176219Y-52216995D01*
X103176198Y-52216997D01*
X103176124Y-52217007D01*
X103164313Y-52217936D01*
X103128035Y-52219076D01*
X103128027Y-52219077D01*
X103120111Y-52219326D01*
X103112497Y-52221537D01*
X103112495Y-52221538D01*
X103100649Y-52224979D01*
X103081303Y-52228986D01*
X103069060Y-52230533D01*
X103069058Y-52230533D01*
X103061203Y-52231526D01*
X103053843Y-52234439D01*
X103053838Y-52234441D01*
X103020093Y-52247801D01*
X103008871Y-52251643D01*
X102974018Y-52261769D01*
X102974013Y-52261770D01*
X102966407Y-52263981D01*
X102959587Y-52268013D01*
X102959585Y-52268015D01*
X102948963Y-52274297D01*
X102931214Y-52282991D01*
X102919760Y-52287526D01*
X102919752Y-52287529D01*
X102912383Y-52290448D01*
X102905966Y-52295109D01*
X102899027Y-52298925D01*
X102898450Y-52297875D01*
X102846473Y-52318048D01*
X102775981Y-52325991D01*
X102775980Y-52325991D01*
X102768953Y-52326783D01*
X102762276Y-52329119D01*
X102762273Y-52329120D01*
X102603664Y-52384619D01*
X102603656Y-52384622D01*
X102596985Y-52386957D01*
X102591000Y-52390717D01*
X102590993Y-52390721D01*
X102448714Y-52480121D01*
X102448707Y-52480126D01*
X102442719Y-52483889D01*
X102437714Y-52488893D01*
X102437710Y-52488897D01*
X102318897Y-52607710D01*
X102318893Y-52607714D01*
X102313889Y-52612719D01*
X102310126Y-52618707D01*
X102310121Y-52618714D01*
X102220721Y-52760993D01*
X102220717Y-52761000D01*
X102216957Y-52766985D01*
X102214622Y-52773656D01*
X102214619Y-52773664D01*
X102159119Y-52932275D01*
X102159117Y-52932280D01*
X102156783Y-52938953D01*
X102136384Y-53120000D01*
X102156783Y-53301047D01*
X102159118Y-53307720D01*
X102159119Y-53307724D01*
X102214619Y-53466335D01*
X102214621Y-53466339D01*
X102216957Y-53473015D01*
X102220719Y-53479003D01*
X102220721Y-53479006D01*
X102260594Y-53542464D01*
X102313889Y-53627281D01*
X102442719Y-53756111D01*
X102448713Y-53759877D01*
X102448714Y-53759878D01*
X102521144Y-53805389D01*
X102596985Y-53853043D01*
X102768953Y-53913217D01*
X102950000Y-53933616D01*
X103131047Y-53913217D01*
X103303015Y-53853043D01*
X103457281Y-53756111D01*
X103586111Y-53627281D01*
X103639405Y-53542463D01*
X103685143Y-53499222D01*
X103746092Y-53483500D01*
X108486996Y-53483500D01*
X108545176Y-53497737D01*
X108590208Y-53537228D01*
X108683023Y-53669781D01*
X108840219Y-53826977D01*
X108906261Y-53873220D01*
X109001937Y-53940214D01*
X109022323Y-53954488D01*
X109223804Y-54048440D01*
X109438537Y-54105978D01*
X109660000Y-54125353D01*
X109719230Y-54120171D01*
X109779444Y-54129708D01*
X109828132Y-54166398D01*
X109853897Y-54221650D01*
X109850706Y-54282531D01*
X109819307Y-54334787D01*
X109474497Y-54679597D01*
X109433623Y-54706909D01*
X109385405Y-54716500D01*
X103928767Y-54716500D01*
X103917583Y-54715972D01*
X103910091Y-54714298D01*
X103902165Y-54714547D01*
X103842014Y-54716438D01*
X103838055Y-54716500D01*
X103810144Y-54716500D01*
X103806218Y-54716995D01*
X103806200Y-54716997D01*
X103806108Y-54717009D01*
X103794303Y-54717937D01*
X103758030Y-54719077D01*
X103758022Y-54719078D01*
X103750110Y-54719327D01*
X103742503Y-54721536D01*
X103742502Y-54721537D01*
X103730655Y-54724979D01*
X103711306Y-54728986D01*
X103699062Y-54730533D01*
X103691203Y-54731526D01*
X103683841Y-54734440D01*
X103683832Y-54734443D01*
X103650097Y-54747800D01*
X103638870Y-54751645D01*
X103604012Y-54761772D01*
X103604008Y-54761773D01*
X103596407Y-54763982D01*
X103589593Y-54768011D01*
X103589585Y-54768015D01*
X103578961Y-54774298D01*
X103561220Y-54782989D01*
X103549759Y-54787527D01*
X103549755Y-54787528D01*
X103542383Y-54790448D01*
X103535967Y-54795109D01*
X103535964Y-54795111D01*
X103506625Y-54816427D01*
X103496707Y-54822943D01*
X103465459Y-54841423D01*
X103465456Y-54841425D01*
X103458637Y-54845458D01*
X103453036Y-54851057D01*
X103453029Y-54851064D01*
X103444304Y-54859789D01*
X103429282Y-54872618D01*
X103419311Y-54879863D01*
X103419302Y-54879871D01*
X103412893Y-54884528D01*
X103407846Y-54890628D01*
X103407838Y-54890636D01*
X103384710Y-54918593D01*
X103376723Y-54927370D01*
X102888437Y-55415656D01*
X102854012Y-55440083D01*
X102813451Y-55451769D01*
X102775981Y-55455991D01*
X102775979Y-55455991D01*
X102768953Y-55456783D01*
X102762276Y-55459119D01*
X102762273Y-55459120D01*
X102603664Y-55514619D01*
X102603656Y-55514622D01*
X102596985Y-55516957D01*
X102591000Y-55520717D01*
X102590993Y-55520721D01*
X102448714Y-55610121D01*
X102448707Y-55610126D01*
X102442719Y-55613889D01*
X102437714Y-55618893D01*
X102437710Y-55618897D01*
X102318897Y-55737710D01*
X102318893Y-55737714D01*
X102313889Y-55742719D01*
X102310126Y-55748707D01*
X102310121Y-55748714D01*
X102220721Y-55890993D01*
X102220717Y-55891000D01*
X102216957Y-55896985D01*
X102214622Y-55903656D01*
X102214619Y-55903664D01*
X102159119Y-56062275D01*
X102159117Y-56062280D01*
X102156783Y-56068953D01*
X102136384Y-56250000D01*
X90920531Y-56250000D01*
X90965118Y-56119305D01*
X91014319Y-55852933D01*
X91021267Y-55662824D01*
X91024044Y-55586837D01*
X91024043Y-55586834D01*
X91024212Y-55582235D01*
X90994586Y-55312982D01*
X90926072Y-55050912D01*
X90820130Y-54801610D01*
X90679018Y-54570390D01*
X90505745Y-54362180D01*
X90404582Y-54271538D01*
X90307438Y-54184496D01*
X90307432Y-54184491D01*
X90304002Y-54181418D01*
X90174158Y-54095514D01*
X90081925Y-54034493D01*
X90081922Y-54034491D01*
X90078090Y-54031956D01*
X89832824Y-53916980D01*
X89812549Y-53910880D01*
X89577843Y-53840267D01*
X89577838Y-53840265D01*
X89573431Y-53838940D01*
X89568874Y-53838269D01*
X89568868Y-53838268D01*
X89310000Y-53800171D01*
X89309996Y-53800170D01*
X89305439Y-53799500D01*
X89102369Y-53799500D01*
X89100098Y-53799666D01*
X89100076Y-53799667D01*
X88904438Y-53813986D01*
X88904427Y-53813987D01*
X88899844Y-53814323D01*
X88895353Y-53815323D01*
X88895349Y-53815324D01*
X88639939Y-53872219D01*
X88639934Y-53872220D01*
X88635447Y-53873220D01*
X88631149Y-53874863D01*
X88631145Y-53874865D01*
X88386746Y-53968339D01*
X88386735Y-53968343D01*
X88382442Y-53969986D01*
X88378434Y-53972235D01*
X88378422Y-53972241D01*
X88150232Y-54100308D01*
X88150221Y-54100314D01*
X88146223Y-54102559D01*
X88142589Y-54105364D01*
X88142586Y-54105367D01*
X87935466Y-54265298D01*
X87935458Y-54265305D01*
X87931823Y-54268112D01*
X87928632Y-54271421D01*
X87928625Y-54271428D01*
X87747011Y-54459802D01*
X87747004Y-54459809D01*
X87743814Y-54463119D01*
X87741136Y-54466861D01*
X87741131Y-54466868D01*
X87588885Y-54679668D01*
X87588878Y-54679677D01*
X87586201Y-54683421D01*
X87584097Y-54687512D01*
X87584091Y-54687523D01*
X87478464Y-54892971D01*
X87462344Y-54924325D01*
X87460856Y-54928684D01*
X87460854Y-54928691D01*
X87376371Y-55176327D01*
X87376367Y-55176341D01*
X87374882Y-55180695D01*
X87374044Y-55185228D01*
X87374044Y-55185231D01*
X87326517Y-55442537D01*
X87326515Y-55442546D01*
X87325681Y-55447067D01*
X87325513Y-55451656D01*
X87325512Y-55451668D01*
X87315956Y-55713161D01*
X87315788Y-55717765D01*
X85424000Y-55717765D01*
X85424000Y-50026000D01*
X85440881Y-49963000D01*
X85487000Y-49916881D01*
X85550000Y-49900000D01*
X164794000Y-49900000D01*
X164857000Y-49916881D01*
G37*
G04 #@! TD.AperFunction*
M02*
