%TF.GenerationSoftware,KiCad,Pcbnew,(7.0.0)*%
%TF.CreationDate,2023-03-04T11:40:16-06:00*%
%TF.ProjectId,V0_Display,56305f44-6973-4706-9c61-792e6b696361,rev?*%
%TF.SameCoordinates,Original*%
%TF.FileFunction,Drillmap*%
%TF.FilePolarity,Positive*%
%FSLAX45Y45*%
G04 Gerber Fmt 4.5, Leading zero omitted, Abs format (unit mm)*
G04 Created by KiCad (PCBNEW (7.0.0)) date 2023-03-04 11:40:16*
%MOMM*%
%LPD*%
G01*
G04 APERTURE LIST*
%ADD10C,0.050000*%
%ADD11C,0.200000*%
%ADD12C,0.030000*%
%ADD13C,0.040000*%
%ADD14C,0.066040*%
%ADD15C,0.076200*%
%ADD16C,0.100000*%
%ADD17C,0.110000*%
G04 APERTURE END LIST*
D10*
X8517000Y-8465000D02*
X8517000Y-4965000D01*
X16517000Y-8465000D02*
X8517000Y-8465000D01*
X8517000Y-4965000D02*
X16517000Y-4965000D01*
X16517000Y-4965000D02*
X16517000Y-8465000D01*
D11*
D12*
X9332200Y-6524800D02*
X9362200Y-6554800D01*
X9362200Y-6524800D02*
X9332200Y-6554800D01*
X9367000Y-6850000D02*
X9397000Y-6880000D01*
X9397000Y-6850000D02*
X9367000Y-6880000D01*
X9437000Y-6150000D02*
X9467000Y-6180000D01*
X9467000Y-6150000D02*
X9437000Y-6180000D01*
X9437000Y-7190000D02*
X9467000Y-7220000D01*
X9467000Y-7190000D02*
X9437000Y-7220000D01*
X9707000Y-6040000D02*
X9737000Y-6070000D01*
X9737000Y-6040000D02*
X9707000Y-6070000D01*
X9747000Y-7830000D02*
X9777000Y-7860000D01*
X9777000Y-7830000D02*
X9747000Y-7860000D01*
X9797000Y-7680000D02*
X9827000Y-7710000D01*
X9827000Y-7680000D02*
X9797000Y-7710000D01*
X10057000Y-7230000D02*
X10087000Y-7260000D01*
X10087000Y-7230000D02*
X10057000Y-7260000D01*
X10280000Y-5297000D02*
X10310000Y-5327000D01*
X10310000Y-5297000D02*
X10280000Y-5327000D01*
X10280000Y-5610000D02*
X10310000Y-5640000D01*
X10310000Y-5610000D02*
X10280000Y-5640000D01*
X10587000Y-5690000D02*
X10617000Y-5720000D01*
X10617000Y-5690000D02*
X10587000Y-5720000D01*
X10647000Y-5784950D02*
X10677000Y-5814950D01*
X10677000Y-5784950D02*
X10647000Y-5814950D01*
X10876858Y-6832858D02*
X10906858Y-6862858D01*
X10906858Y-6832858D02*
X10876858Y-6862858D01*
X10957000Y-6460000D02*
X10987000Y-6490000D01*
X10987000Y-6460000D02*
X10957000Y-6490000D01*
X11062135Y-6189943D02*
X11092135Y-6219943D01*
X11092135Y-6189943D02*
X11062135Y-6219943D01*
X11066600Y-6070400D02*
X11096600Y-6100400D01*
X11096600Y-6070400D02*
X11066600Y-6100400D01*
X11304400Y-6492600D02*
X11334400Y-6522600D01*
X11334400Y-6492600D02*
X11304400Y-6522600D01*
X11379000Y-6649200D02*
X11409000Y-6679200D01*
X11409000Y-6649200D02*
X11379000Y-6679200D01*
X11526325Y-6540675D02*
X11556325Y-6570675D01*
X11556325Y-6540675D02*
X11526325Y-6570675D01*
X11607000Y-5470000D02*
X11637000Y-5500000D01*
X11637000Y-5470000D02*
X11607000Y-5500000D01*
X11617000Y-6489950D02*
X11647000Y-6519950D01*
X11647000Y-6489950D02*
X11617000Y-6519950D01*
X11697000Y-6430000D02*
X11727000Y-6460000D01*
X11727000Y-6430000D02*
X11697000Y-6460000D01*
X11731150Y-6354150D02*
X11761150Y-6384150D01*
X11761150Y-6354150D02*
X11731150Y-6384150D01*
X11817000Y-6050350D02*
X11847000Y-6080350D01*
X11847000Y-6050350D02*
X11817000Y-6080350D01*
X11825818Y-6170300D02*
X11855818Y-6200300D01*
X11855818Y-6170300D02*
X11825818Y-6200300D01*
X11885768Y-6091129D02*
X11915768Y-6121129D01*
X11915768Y-6091129D02*
X11885768Y-6121129D01*
X12087000Y-5790000D02*
X12117000Y-5820000D01*
X12117000Y-5790000D02*
X12087000Y-5820000D01*
X12087000Y-6137500D02*
X12117000Y-6167500D01*
X12117000Y-6137500D02*
X12087000Y-6167500D01*
X12627000Y-5960000D02*
X12657000Y-5990000D01*
X12657000Y-5960000D02*
X12627000Y-5990000D01*
X15037000Y-5475000D02*
X15067000Y-5505000D01*
X15067000Y-5475000D02*
X15037000Y-5505000D01*
X15174200Y-5277600D02*
X15204200Y-5307600D01*
X15204200Y-5277600D02*
X15174200Y-5307600D01*
X15461600Y-5684000D02*
X15491600Y-5714000D01*
X15491600Y-5684000D02*
X15461600Y-5714000D01*
X15570850Y-5429150D02*
X15600850Y-5459150D01*
X15600850Y-5429150D02*
X15570850Y-5459150D01*
D13*
X9412000Y-6335000D02*
G75*
G03*
X9412000Y-6335000I-20000J0D01*
G01*
X9421800Y-7039750D02*
G75*
G03*
X9421800Y-7039750I-20000J0D01*
G01*
X9462000Y-6485000D02*
G75*
G03*
X9462000Y-6485000I-20000J0D01*
G01*
X10232000Y-8013000D02*
G75*
G03*
X10232000Y-8013000I-20000J0D01*
G01*
X10352000Y-7585000D02*
G75*
G03*
X10352000Y-7585000I-20000J0D01*
G01*
X10512000Y-6415000D02*
G75*
G03*
X10512000Y-6415000I-20000J0D01*
G01*
X11232000Y-5905000D02*
G75*
G03*
X11232000Y-5905000I-20000J0D01*
G01*
X11242000Y-6145000D02*
G75*
G03*
X11242000Y-6145000I-20000J0D01*
G01*
X11359400Y-6025400D02*
G75*
G03*
X11359400Y-6025400I-20000J0D01*
G01*
X11482000Y-5905000D02*
G75*
G03*
X11482000Y-5905000I-20000J0D01*
G01*
X11482000Y-6145000D02*
G75*
G03*
X11482000Y-6145000I-20000J0D01*
G01*
X12502000Y-5235000D02*
G75*
G03*
X12502000Y-5235000I-20000J0D01*
G01*
X13772000Y-7585000D02*
G75*
G03*
X13772000Y-7585000I-20000J0D01*
G01*
X14002000Y-7085000D02*
G75*
G03*
X14002000Y-7085000I-20000J0D01*
G01*
X15767000Y-6225000D02*
G75*
G03*
X15767000Y-6225000I-20000J0D01*
G01*
D14*
X9145880Y-6392780D02*
X9145880Y-6458820D01*
X9112860Y-6425800D02*
X9178900Y-6425800D01*
X9145880Y-6970780D02*
X9145880Y-7036820D01*
X9112860Y-7003800D02*
X9178900Y-7003800D01*
D15*
X10992941Y-5311941D02*
X10992941Y-5258059D01*
X10939059Y-5258059D01*
X10939059Y-5311941D01*
X10992941Y-5311941D01*
X11246941Y-5311941D02*
X11246941Y-5258059D01*
X11193059Y-5258059D01*
X11193059Y-5311941D01*
X11246941Y-5311941D01*
X11500941Y-5311941D02*
X11500941Y-5258059D01*
X11447059Y-5258059D01*
X11447059Y-5311941D01*
X11500941Y-5311941D01*
X11754941Y-5311941D02*
X11754941Y-5258059D01*
X11701059Y-5258059D01*
X11701059Y-5311941D01*
X11754941Y-5311941D01*
D16*
X9641400Y-6358600D02*
X9691400Y-6308600D01*
X9641400Y-6258600D01*
X9591400Y-6308600D01*
X9641400Y-6358600D01*
X9641400Y-6612600D02*
X9691400Y-6562600D01*
X9641400Y-6512600D01*
X9591400Y-6562600D01*
X9641400Y-6612600D01*
X9641400Y-6866600D02*
X9691400Y-6816600D01*
X9641400Y-6766600D01*
X9591400Y-6816600D01*
X9641400Y-6866600D01*
X9641400Y-7120600D02*
X9691400Y-7070600D01*
X9641400Y-7020600D01*
X9591400Y-7070600D01*
X9641400Y-7120600D01*
X10022400Y-6942800D02*
X10072400Y-6892800D01*
X10022400Y-6842800D01*
X9972400Y-6892800D01*
X10022400Y-6942800D01*
X10276400Y-6942800D02*
X10326400Y-6892800D01*
X10276400Y-6842800D01*
X10226400Y-6892800D01*
X10276400Y-6942800D01*
X10530400Y-6942800D02*
X10580400Y-6892800D01*
X10530400Y-6842800D01*
X10480400Y-6892800D01*
X10530400Y-6942800D01*
X11095400Y-7069800D02*
X11145400Y-7019800D01*
X11095400Y-6969800D01*
X11045400Y-7019800D01*
X11095400Y-7069800D01*
X11349400Y-7069800D02*
X11399400Y-7019800D01*
X11349400Y-6969800D01*
X11299400Y-7019800D01*
X11349400Y-7069800D01*
X11603400Y-7069800D02*
X11653400Y-7019800D01*
X11603400Y-6969800D01*
X11553400Y-7019800D01*
X11603400Y-7069800D01*
X15057500Y-6094500D02*
X15107500Y-6044500D01*
X15057500Y-5994500D01*
X15007500Y-6044500D01*
X15057500Y-6094500D01*
X15311500Y-6094500D02*
X15361500Y-6044500D01*
X15311500Y-5994500D01*
X15261500Y-6044500D01*
X15311500Y-6094500D01*
D17*
X14137000Y-5960000D02*
X14247000Y-6070000D01*
X14247000Y-5960000D02*
X14137000Y-6070000D01*
X14247000Y-6015000D02*
G75*
G03*
X14247000Y-6015000I-55000J0D01*
G01*
X14137000Y-7410000D02*
X14247000Y-7520000D01*
X14247000Y-7410000D02*
X14137000Y-7520000D01*
X14247000Y-7465000D02*
G75*
G03*
X14247000Y-7465000I-55000J0D01*
G01*
X14387000Y-7410000D02*
X14497000Y-7520000D01*
X14497000Y-7410000D02*
X14387000Y-7520000D01*
X14497000Y-7465000D02*
G75*
G03*
X14497000Y-7465000I-55000J0D01*
G01*
X14637000Y-5960000D02*
X14747000Y-6070000D01*
X14747000Y-5960000D02*
X14637000Y-6070000D01*
X14747000Y-6015000D02*
G75*
G03*
X14747000Y-6015000I-55000J0D01*
G01*
X14637000Y-7410000D02*
X14747000Y-7520000D01*
X14747000Y-7410000D02*
X14637000Y-7520000D01*
X14747000Y-7465000D02*
G75*
G03*
X14747000Y-7465000I-55000J0D01*
G01*
X15612000Y-6935000D02*
X15722000Y-7045000D01*
X15722000Y-6935000D02*
X15612000Y-7045000D01*
X15722000Y-6990000D02*
G75*
G03*
X15722000Y-6990000I-55000J0D01*
G01*
X15612000Y-7385000D02*
X15722000Y-7495000D01*
X15722000Y-7385000D02*
X15612000Y-7495000D01*
X15722000Y-7440000D02*
G75*
G03*
X15722000Y-7440000I-55000J0D01*
G01*
X16262000Y-6935000D02*
X16372000Y-7045000D01*
X16372000Y-6935000D02*
X16262000Y-7045000D01*
X16372000Y-6990000D02*
G75*
G03*
X16372000Y-6990000I-55000J0D01*
G01*
X16262000Y-7385000D02*
X16372000Y-7495000D01*
X16372000Y-7385000D02*
X16262000Y-7495000D01*
X16372000Y-7440000D02*
G75*
G03*
X16372000Y-7440000I-55000J0D01*
G01*
D11*
X13834000Y-6615000D02*
X14034000Y-6815000D01*
X14034000Y-6615000D02*
X13834000Y-6815000D01*
X13934000Y-6615000D02*
X13934000Y-6815000D01*
X13834000Y-6715000D02*
X14034000Y-6715000D01*
X13834000Y-6665000D02*
X13834000Y-6765000D01*
X13834000Y-6765000D02*
G75*
G03*
X14034000Y-6765000I100000J0D01*
G01*
X14034000Y-6765000D02*
X14034000Y-6665000D01*
X14034000Y-6665000D02*
G75*
G03*
X13834000Y-6665000I-100000J0D01*
G01*
X14850000Y-6615000D02*
X15050000Y-6815000D01*
X15050000Y-6615000D02*
X14850000Y-6815000D01*
X14950000Y-6615000D02*
X14950000Y-6815000D01*
X14850000Y-6715000D02*
X15050000Y-6715000D01*
X15050000Y-6765000D02*
X15050000Y-6665000D01*
X15050000Y-6665000D02*
G75*
G03*
X14850000Y-6665000I-100000J0D01*
G01*
X14850000Y-6665000D02*
X14850000Y-6765000D01*
X14850000Y-6765000D02*
G75*
G03*
X15050000Y-6765000I100000J0D01*
G01*
X8762119Y-8760976D02*
X8762119Y-8560976D01*
X8762119Y-8560976D02*
X8809738Y-8560976D01*
X8809738Y-8560976D02*
X8838310Y-8570500D01*
X8838310Y-8570500D02*
X8857357Y-8589548D01*
X8857357Y-8589548D02*
X8866881Y-8608595D01*
X8866881Y-8608595D02*
X8876405Y-8646690D01*
X8876405Y-8646690D02*
X8876405Y-8675262D01*
X8876405Y-8675262D02*
X8866881Y-8713357D01*
X8866881Y-8713357D02*
X8857357Y-8732405D01*
X8857357Y-8732405D02*
X8838310Y-8751452D01*
X8838310Y-8751452D02*
X8809738Y-8760976D01*
X8809738Y-8760976D02*
X8762119Y-8760976D01*
X8962119Y-8760976D02*
X8962119Y-8627643D01*
X8962119Y-8665738D02*
X8971643Y-8646690D01*
X8971643Y-8646690D02*
X8981167Y-8637167D01*
X8981167Y-8637167D02*
X9000214Y-8627643D01*
X9000214Y-8627643D02*
X9019262Y-8627643D01*
X9085929Y-8760976D02*
X9085929Y-8627643D01*
X9085929Y-8560976D02*
X9076405Y-8570500D01*
X9076405Y-8570500D02*
X9085929Y-8580024D01*
X9085929Y-8580024D02*
X9095452Y-8570500D01*
X9095452Y-8570500D02*
X9085929Y-8560976D01*
X9085929Y-8560976D02*
X9085929Y-8580024D01*
X9209738Y-8760976D02*
X9190690Y-8751452D01*
X9190690Y-8751452D02*
X9181167Y-8732405D01*
X9181167Y-8732405D02*
X9181167Y-8560976D01*
X9314500Y-8760976D02*
X9295452Y-8751452D01*
X9295452Y-8751452D02*
X9285929Y-8732405D01*
X9285929Y-8732405D02*
X9285929Y-8560976D01*
X9510690Y-8760976D02*
X9510690Y-8560976D01*
X9510690Y-8560976D02*
X9577357Y-8703833D01*
X9577357Y-8703833D02*
X9644024Y-8560976D01*
X9644024Y-8560976D02*
X9644024Y-8760976D01*
X9824976Y-8760976D02*
X9824976Y-8656214D01*
X9824976Y-8656214D02*
X9815452Y-8637167D01*
X9815452Y-8637167D02*
X9796405Y-8627643D01*
X9796405Y-8627643D02*
X9758309Y-8627643D01*
X9758309Y-8627643D02*
X9739262Y-8637167D01*
X9824976Y-8751452D02*
X9805929Y-8760976D01*
X9805929Y-8760976D02*
X9758309Y-8760976D01*
X9758309Y-8760976D02*
X9739262Y-8751452D01*
X9739262Y-8751452D02*
X9729738Y-8732405D01*
X9729738Y-8732405D02*
X9729738Y-8713357D01*
X9729738Y-8713357D02*
X9739262Y-8694310D01*
X9739262Y-8694310D02*
X9758309Y-8684786D01*
X9758309Y-8684786D02*
X9805929Y-8684786D01*
X9805929Y-8684786D02*
X9824976Y-8675262D01*
X9920214Y-8627643D02*
X9920214Y-8827643D01*
X9920214Y-8637167D02*
X9939262Y-8627643D01*
X9939262Y-8627643D02*
X9977357Y-8627643D01*
X9977357Y-8627643D02*
X9996405Y-8637167D01*
X9996405Y-8637167D02*
X10005929Y-8646690D01*
X10005929Y-8646690D02*
X10015452Y-8665738D01*
X10015452Y-8665738D02*
X10015452Y-8722881D01*
X10015452Y-8722881D02*
X10005929Y-8741929D01*
X10005929Y-8741929D02*
X9996405Y-8751452D01*
X9996405Y-8751452D02*
X9977357Y-8760976D01*
X9977357Y-8760976D02*
X9939262Y-8760976D01*
X9939262Y-8760976D02*
X9920214Y-8751452D01*
X10101167Y-8741929D02*
X10110690Y-8751452D01*
X10110690Y-8751452D02*
X10101167Y-8760976D01*
X10101167Y-8760976D02*
X10091643Y-8751452D01*
X10091643Y-8751452D02*
X10101167Y-8741929D01*
X10101167Y-8741929D02*
X10101167Y-8760976D01*
X10101167Y-8637167D02*
X10110690Y-8646690D01*
X10110690Y-8646690D02*
X10101167Y-8656214D01*
X10101167Y-8656214D02*
X10091643Y-8646690D01*
X10091643Y-8646690D02*
X10101167Y-8637167D01*
X10101167Y-8637167D02*
X10101167Y-8656214D01*
D12*
X8484500Y-9092500D02*
X8514500Y-9122500D01*
X8514500Y-9092500D02*
X8484500Y-9122500D01*
D11*
X8800214Y-8980976D02*
X8819262Y-8980976D01*
X8819262Y-8980976D02*
X8838310Y-8990500D01*
X8838310Y-8990500D02*
X8847833Y-9000024D01*
X8847833Y-9000024D02*
X8857357Y-9019071D01*
X8857357Y-9019071D02*
X8866881Y-9057167D01*
X8866881Y-9057167D02*
X8866881Y-9104786D01*
X8866881Y-9104786D02*
X8857357Y-9142881D01*
X8857357Y-9142881D02*
X8847833Y-9161929D01*
X8847833Y-9161929D02*
X8838310Y-9171452D01*
X8838310Y-9171452D02*
X8819262Y-9180976D01*
X8819262Y-9180976D02*
X8800214Y-9180976D01*
X8800214Y-9180976D02*
X8781167Y-9171452D01*
X8781167Y-9171452D02*
X8771643Y-9161929D01*
X8771643Y-9161929D02*
X8762119Y-9142881D01*
X8762119Y-9142881D02*
X8752595Y-9104786D01*
X8752595Y-9104786D02*
X8752595Y-9057167D01*
X8752595Y-9057167D02*
X8762119Y-9019071D01*
X8762119Y-9019071D02*
X8771643Y-9000024D01*
X8771643Y-9000024D02*
X8781167Y-8990500D01*
X8781167Y-8990500D02*
X8800214Y-8980976D01*
X8952595Y-9161929D02*
X8962119Y-9171452D01*
X8962119Y-9171452D02*
X8952595Y-9180976D01*
X8952595Y-9180976D02*
X8943071Y-9171452D01*
X8943071Y-9171452D02*
X8952595Y-9161929D01*
X8952595Y-9161929D02*
X8952595Y-9180976D01*
X9028786Y-8980976D02*
X9152595Y-8980976D01*
X9152595Y-8980976D02*
X9085929Y-9057167D01*
X9085929Y-9057167D02*
X9114500Y-9057167D01*
X9114500Y-9057167D02*
X9133548Y-9066690D01*
X9133548Y-9066690D02*
X9143071Y-9076214D01*
X9143071Y-9076214D02*
X9152595Y-9095262D01*
X9152595Y-9095262D02*
X9152595Y-9142881D01*
X9152595Y-9142881D02*
X9143071Y-9161929D01*
X9143071Y-9161929D02*
X9133548Y-9171452D01*
X9133548Y-9171452D02*
X9114500Y-9180976D01*
X9114500Y-9180976D02*
X9057357Y-9180976D01*
X9057357Y-9180976D02*
X9038310Y-9171452D01*
X9038310Y-9171452D02*
X9028786Y-9161929D01*
X9276405Y-8980976D02*
X9295452Y-8980976D01*
X9295452Y-8980976D02*
X9314500Y-8990500D01*
X9314500Y-8990500D02*
X9324024Y-9000024D01*
X9324024Y-9000024D02*
X9333548Y-9019071D01*
X9333548Y-9019071D02*
X9343071Y-9057167D01*
X9343071Y-9057167D02*
X9343071Y-9104786D01*
X9343071Y-9104786D02*
X9333548Y-9142881D01*
X9333548Y-9142881D02*
X9324024Y-9161929D01*
X9324024Y-9161929D02*
X9314500Y-9171452D01*
X9314500Y-9171452D02*
X9295452Y-9180976D01*
X9295452Y-9180976D02*
X9276405Y-9180976D01*
X9276405Y-9180976D02*
X9257357Y-9171452D01*
X9257357Y-9171452D02*
X9247833Y-9161929D01*
X9247833Y-9161929D02*
X9238310Y-9142881D01*
X9238310Y-9142881D02*
X9228786Y-9104786D01*
X9228786Y-9104786D02*
X9228786Y-9057167D01*
X9228786Y-9057167D02*
X9238310Y-9019071D01*
X9238310Y-9019071D02*
X9247833Y-9000024D01*
X9247833Y-9000024D02*
X9257357Y-8990500D01*
X9257357Y-8990500D02*
X9276405Y-8980976D01*
X9466881Y-8980976D02*
X9485929Y-8980976D01*
X9485929Y-8980976D02*
X9504976Y-8990500D01*
X9504976Y-8990500D02*
X9514500Y-9000024D01*
X9514500Y-9000024D02*
X9524024Y-9019071D01*
X9524024Y-9019071D02*
X9533548Y-9057167D01*
X9533548Y-9057167D02*
X9533548Y-9104786D01*
X9533548Y-9104786D02*
X9524024Y-9142881D01*
X9524024Y-9142881D02*
X9514500Y-9161929D01*
X9514500Y-9161929D02*
X9504976Y-9171452D01*
X9504976Y-9171452D02*
X9485929Y-9180976D01*
X9485929Y-9180976D02*
X9466881Y-9180976D01*
X9466881Y-9180976D02*
X9447833Y-9171452D01*
X9447833Y-9171452D02*
X9438310Y-9161929D01*
X9438310Y-9161929D02*
X9428786Y-9142881D01*
X9428786Y-9142881D02*
X9419262Y-9104786D01*
X9419262Y-9104786D02*
X9419262Y-9057167D01*
X9419262Y-9057167D02*
X9428786Y-9019071D01*
X9428786Y-9019071D02*
X9438310Y-9000024D01*
X9438310Y-9000024D02*
X9447833Y-8990500D01*
X9447833Y-8990500D02*
X9466881Y-8980976D01*
X9619262Y-9180976D02*
X9619262Y-9047643D01*
X9619262Y-9066690D02*
X9628786Y-9057167D01*
X9628786Y-9057167D02*
X9647833Y-9047643D01*
X9647833Y-9047643D02*
X9676405Y-9047643D01*
X9676405Y-9047643D02*
X9695452Y-9057167D01*
X9695452Y-9057167D02*
X9704976Y-9076214D01*
X9704976Y-9076214D02*
X9704976Y-9180976D01*
X9704976Y-9076214D02*
X9714500Y-9057167D01*
X9714500Y-9057167D02*
X9733548Y-9047643D01*
X9733548Y-9047643D02*
X9762119Y-9047643D01*
X9762119Y-9047643D02*
X9781167Y-9057167D01*
X9781167Y-9057167D02*
X9790691Y-9076214D01*
X9790691Y-9076214D02*
X9790691Y-9180976D01*
X9885929Y-9180976D02*
X9885929Y-9047643D01*
X9885929Y-9066690D02*
X9895452Y-9057167D01*
X9895452Y-9057167D02*
X9914500Y-9047643D01*
X9914500Y-9047643D02*
X9943072Y-9047643D01*
X9943072Y-9047643D02*
X9962119Y-9057167D01*
X9962119Y-9057167D02*
X9971643Y-9076214D01*
X9971643Y-9076214D02*
X9971643Y-9180976D01*
X9971643Y-9076214D02*
X9981167Y-9057167D01*
X9981167Y-9057167D02*
X10000214Y-9047643D01*
X10000214Y-9047643D02*
X10028786Y-9047643D01*
X10028786Y-9047643D02*
X10047833Y-9057167D01*
X10047833Y-9057167D02*
X10057357Y-9076214D01*
X10057357Y-9076214D02*
X10057357Y-9180976D01*
X10415452Y-8971452D02*
X10244024Y-9228595D01*
X10640214Y-8980976D02*
X10659262Y-8980976D01*
X10659262Y-8980976D02*
X10678310Y-8990500D01*
X10678310Y-8990500D02*
X10687833Y-9000024D01*
X10687833Y-9000024D02*
X10697357Y-9019071D01*
X10697357Y-9019071D02*
X10706881Y-9057167D01*
X10706881Y-9057167D02*
X10706881Y-9104786D01*
X10706881Y-9104786D02*
X10697357Y-9142881D01*
X10697357Y-9142881D02*
X10687833Y-9161929D01*
X10687833Y-9161929D02*
X10678310Y-9171452D01*
X10678310Y-9171452D02*
X10659262Y-9180976D01*
X10659262Y-9180976D02*
X10640214Y-9180976D01*
X10640214Y-9180976D02*
X10621167Y-9171452D01*
X10621167Y-9171452D02*
X10611643Y-9161929D01*
X10611643Y-9161929D02*
X10602119Y-9142881D01*
X10602119Y-9142881D02*
X10592595Y-9104786D01*
X10592595Y-9104786D02*
X10592595Y-9057167D01*
X10592595Y-9057167D02*
X10602119Y-9019071D01*
X10602119Y-9019071D02*
X10611643Y-9000024D01*
X10611643Y-9000024D02*
X10621167Y-8990500D01*
X10621167Y-8990500D02*
X10640214Y-8980976D01*
X10792595Y-9161929D02*
X10802119Y-9171452D01*
X10802119Y-9171452D02*
X10792595Y-9180976D01*
X10792595Y-9180976D02*
X10783072Y-9171452D01*
X10783072Y-9171452D02*
X10792595Y-9161929D01*
X10792595Y-9161929D02*
X10792595Y-9180976D01*
X10925929Y-8980976D02*
X10944976Y-8980976D01*
X10944976Y-8980976D02*
X10964024Y-8990500D01*
X10964024Y-8990500D02*
X10973548Y-9000024D01*
X10973548Y-9000024D02*
X10983072Y-9019071D01*
X10983072Y-9019071D02*
X10992595Y-9057167D01*
X10992595Y-9057167D02*
X10992595Y-9104786D01*
X10992595Y-9104786D02*
X10983072Y-9142881D01*
X10983072Y-9142881D02*
X10973548Y-9161929D01*
X10973548Y-9161929D02*
X10964024Y-9171452D01*
X10964024Y-9171452D02*
X10944976Y-9180976D01*
X10944976Y-9180976D02*
X10925929Y-9180976D01*
X10925929Y-9180976D02*
X10906881Y-9171452D01*
X10906881Y-9171452D02*
X10897357Y-9161929D01*
X10897357Y-9161929D02*
X10887833Y-9142881D01*
X10887833Y-9142881D02*
X10878310Y-9104786D01*
X10878310Y-9104786D02*
X10878310Y-9057167D01*
X10878310Y-9057167D02*
X10887833Y-9019071D01*
X10887833Y-9019071D02*
X10897357Y-9000024D01*
X10897357Y-9000024D02*
X10906881Y-8990500D01*
X10906881Y-8990500D02*
X10925929Y-8980976D01*
X11183072Y-9180976D02*
X11068786Y-9180976D01*
X11125929Y-9180976D02*
X11125929Y-8980976D01*
X11125929Y-8980976D02*
X11106881Y-9009548D01*
X11106881Y-9009548D02*
X11087833Y-9028595D01*
X11087833Y-9028595D02*
X11068786Y-9038119D01*
X11373548Y-9180976D02*
X11259262Y-9180976D01*
X11316405Y-9180976D02*
X11316405Y-8980976D01*
X11316405Y-8980976D02*
X11297357Y-9009548D01*
X11297357Y-9009548D02*
X11278310Y-9028595D01*
X11278310Y-9028595D02*
X11259262Y-9038119D01*
X11487833Y-9066690D02*
X11468786Y-9057167D01*
X11468786Y-9057167D02*
X11459262Y-9047643D01*
X11459262Y-9047643D02*
X11449738Y-9028595D01*
X11449738Y-9028595D02*
X11449738Y-9019071D01*
X11449738Y-9019071D02*
X11459262Y-9000024D01*
X11459262Y-9000024D02*
X11468786Y-8990500D01*
X11468786Y-8990500D02*
X11487833Y-8980976D01*
X11487833Y-8980976D02*
X11525929Y-8980976D01*
X11525929Y-8980976D02*
X11544976Y-8990500D01*
X11544976Y-8990500D02*
X11554500Y-9000024D01*
X11554500Y-9000024D02*
X11564024Y-9019071D01*
X11564024Y-9019071D02*
X11564024Y-9028595D01*
X11564024Y-9028595D02*
X11554500Y-9047643D01*
X11554500Y-9047643D02*
X11544976Y-9057167D01*
X11544976Y-9057167D02*
X11525929Y-9066690D01*
X11525929Y-9066690D02*
X11487833Y-9066690D01*
X11487833Y-9066690D02*
X11468786Y-9076214D01*
X11468786Y-9076214D02*
X11459262Y-9085738D01*
X11459262Y-9085738D02*
X11449738Y-9104786D01*
X11449738Y-9104786D02*
X11449738Y-9142881D01*
X11449738Y-9142881D02*
X11459262Y-9161929D01*
X11459262Y-9161929D02*
X11468786Y-9171452D01*
X11468786Y-9171452D02*
X11487833Y-9180976D01*
X11487833Y-9180976D02*
X11525929Y-9180976D01*
X11525929Y-9180976D02*
X11544976Y-9171452D01*
X11544976Y-9171452D02*
X11554500Y-9161929D01*
X11554500Y-9161929D02*
X11564024Y-9142881D01*
X11564024Y-9142881D02*
X11564024Y-9104786D01*
X11564024Y-9104786D02*
X11554500Y-9085738D01*
X11554500Y-9085738D02*
X11544976Y-9076214D01*
X11544976Y-9076214D02*
X11525929Y-9066690D01*
X11640214Y-8980976D02*
X11640214Y-9019071D01*
X11716405Y-8980976D02*
X11716405Y-9019071D01*
X11979262Y-9257167D02*
X11969738Y-9247643D01*
X11969738Y-9247643D02*
X11950691Y-9219071D01*
X11950691Y-9219071D02*
X11941167Y-9200024D01*
X11941167Y-9200024D02*
X11931643Y-9171452D01*
X11931643Y-9171452D02*
X11922119Y-9123833D01*
X11922119Y-9123833D02*
X11922119Y-9085738D01*
X11922119Y-9085738D02*
X11931643Y-9038119D01*
X11931643Y-9038119D02*
X11941167Y-9009548D01*
X11941167Y-9009548D02*
X11950691Y-8990500D01*
X11950691Y-8990500D02*
X11969738Y-8961929D01*
X11969738Y-8961929D02*
X11979262Y-8952405D01*
X12036405Y-8980976D02*
X12160214Y-8980976D01*
X12160214Y-8980976D02*
X12093548Y-9057167D01*
X12093548Y-9057167D02*
X12122119Y-9057167D01*
X12122119Y-9057167D02*
X12141167Y-9066690D01*
X12141167Y-9066690D02*
X12150691Y-9076214D01*
X12150691Y-9076214D02*
X12160214Y-9095262D01*
X12160214Y-9095262D02*
X12160214Y-9142881D01*
X12160214Y-9142881D02*
X12150691Y-9161929D01*
X12150691Y-9161929D02*
X12141167Y-9171452D01*
X12141167Y-9171452D02*
X12122119Y-9180976D01*
X12122119Y-9180976D02*
X12064976Y-9180976D01*
X12064976Y-9180976D02*
X12045929Y-9171452D01*
X12045929Y-9171452D02*
X12036405Y-9161929D01*
X12226881Y-8980976D02*
X12350691Y-8980976D01*
X12350691Y-8980976D02*
X12284024Y-9057167D01*
X12284024Y-9057167D02*
X12312595Y-9057167D01*
X12312595Y-9057167D02*
X12331643Y-9066690D01*
X12331643Y-9066690D02*
X12341167Y-9076214D01*
X12341167Y-9076214D02*
X12350691Y-9095262D01*
X12350691Y-9095262D02*
X12350691Y-9142881D01*
X12350691Y-9142881D02*
X12341167Y-9161929D01*
X12341167Y-9161929D02*
X12331643Y-9171452D01*
X12331643Y-9171452D02*
X12312595Y-9180976D01*
X12312595Y-9180976D02*
X12255452Y-9180976D01*
X12255452Y-9180976D02*
X12236405Y-9171452D01*
X12236405Y-9171452D02*
X12226881Y-9161929D01*
X12556405Y-9180976D02*
X12556405Y-8980976D01*
X12642119Y-9180976D02*
X12642119Y-9076214D01*
X12642119Y-9076214D02*
X12632595Y-9057167D01*
X12632595Y-9057167D02*
X12613548Y-9047643D01*
X12613548Y-9047643D02*
X12584976Y-9047643D01*
X12584976Y-9047643D02*
X12565929Y-9057167D01*
X12565929Y-9057167D02*
X12556405Y-9066690D01*
X12765929Y-9180976D02*
X12746881Y-9171452D01*
X12746881Y-9171452D02*
X12737357Y-9161929D01*
X12737357Y-9161929D02*
X12727833Y-9142881D01*
X12727833Y-9142881D02*
X12727833Y-9085738D01*
X12727833Y-9085738D02*
X12737357Y-9066690D01*
X12737357Y-9066690D02*
X12746881Y-9057167D01*
X12746881Y-9057167D02*
X12765929Y-9047643D01*
X12765929Y-9047643D02*
X12794500Y-9047643D01*
X12794500Y-9047643D02*
X12813548Y-9057167D01*
X12813548Y-9057167D02*
X12823072Y-9066690D01*
X12823072Y-9066690D02*
X12832595Y-9085738D01*
X12832595Y-9085738D02*
X12832595Y-9142881D01*
X12832595Y-9142881D02*
X12823072Y-9161929D01*
X12823072Y-9161929D02*
X12813548Y-9171452D01*
X12813548Y-9171452D02*
X12794500Y-9180976D01*
X12794500Y-9180976D02*
X12765929Y-9180976D01*
X12946881Y-9180976D02*
X12927833Y-9171452D01*
X12927833Y-9171452D02*
X12918310Y-9152405D01*
X12918310Y-9152405D02*
X12918310Y-8980976D01*
X13099262Y-9171452D02*
X13080214Y-9180976D01*
X13080214Y-9180976D02*
X13042119Y-9180976D01*
X13042119Y-9180976D02*
X13023072Y-9171452D01*
X13023072Y-9171452D02*
X13013548Y-9152405D01*
X13013548Y-9152405D02*
X13013548Y-9076214D01*
X13013548Y-9076214D02*
X13023072Y-9057167D01*
X13023072Y-9057167D02*
X13042119Y-9047643D01*
X13042119Y-9047643D02*
X13080214Y-9047643D01*
X13080214Y-9047643D02*
X13099262Y-9057167D01*
X13099262Y-9057167D02*
X13108786Y-9076214D01*
X13108786Y-9076214D02*
X13108786Y-9095262D01*
X13108786Y-9095262D02*
X13013548Y-9114310D01*
X13184976Y-9171452D02*
X13204024Y-9180976D01*
X13204024Y-9180976D02*
X13242119Y-9180976D01*
X13242119Y-9180976D02*
X13261167Y-9171452D01*
X13261167Y-9171452D02*
X13270691Y-9152405D01*
X13270691Y-9152405D02*
X13270691Y-9142881D01*
X13270691Y-9142881D02*
X13261167Y-9123833D01*
X13261167Y-9123833D02*
X13242119Y-9114310D01*
X13242119Y-9114310D02*
X13213548Y-9114310D01*
X13213548Y-9114310D02*
X13194500Y-9104786D01*
X13194500Y-9104786D02*
X13184976Y-9085738D01*
X13184976Y-9085738D02*
X13184976Y-9076214D01*
X13184976Y-9076214D02*
X13194500Y-9057167D01*
X13194500Y-9057167D02*
X13213548Y-9047643D01*
X13213548Y-9047643D02*
X13242119Y-9047643D01*
X13242119Y-9047643D02*
X13261167Y-9057167D01*
X13337357Y-9257167D02*
X13346881Y-9247643D01*
X13346881Y-9247643D02*
X13365929Y-9219071D01*
X13365929Y-9219071D02*
X13375453Y-9200024D01*
X13375453Y-9200024D02*
X13384976Y-9171452D01*
X13384976Y-9171452D02*
X13394500Y-9123833D01*
X13394500Y-9123833D02*
X13394500Y-9085738D01*
X13394500Y-9085738D02*
X13384976Y-9038119D01*
X13384976Y-9038119D02*
X13375453Y-9009548D01*
X13375453Y-9009548D02*
X13365929Y-8990500D01*
X13365929Y-8990500D02*
X13346881Y-8961929D01*
X13346881Y-8961929D02*
X13337357Y-8952405D01*
D13*
X8514500Y-9371500D02*
G75*
G03*
X8514500Y-9371500I-20000J0D01*
G01*
D11*
X8800214Y-9244976D02*
X8819262Y-9244976D01*
X8819262Y-9244976D02*
X8838310Y-9254500D01*
X8838310Y-9254500D02*
X8847833Y-9264024D01*
X8847833Y-9264024D02*
X8857357Y-9283071D01*
X8857357Y-9283071D02*
X8866881Y-9321167D01*
X8866881Y-9321167D02*
X8866881Y-9368786D01*
X8866881Y-9368786D02*
X8857357Y-9406881D01*
X8857357Y-9406881D02*
X8847833Y-9425929D01*
X8847833Y-9425929D02*
X8838310Y-9435452D01*
X8838310Y-9435452D02*
X8819262Y-9444976D01*
X8819262Y-9444976D02*
X8800214Y-9444976D01*
X8800214Y-9444976D02*
X8781167Y-9435452D01*
X8781167Y-9435452D02*
X8771643Y-9425929D01*
X8771643Y-9425929D02*
X8762119Y-9406881D01*
X8762119Y-9406881D02*
X8752595Y-9368786D01*
X8752595Y-9368786D02*
X8752595Y-9321167D01*
X8752595Y-9321167D02*
X8762119Y-9283071D01*
X8762119Y-9283071D02*
X8771643Y-9264024D01*
X8771643Y-9264024D02*
X8781167Y-9254500D01*
X8781167Y-9254500D02*
X8800214Y-9244976D01*
X8952595Y-9425929D02*
X8962119Y-9435452D01*
X8962119Y-9435452D02*
X8952595Y-9444976D01*
X8952595Y-9444976D02*
X8943071Y-9435452D01*
X8943071Y-9435452D02*
X8952595Y-9425929D01*
X8952595Y-9425929D02*
X8952595Y-9444976D01*
X9133548Y-9311643D02*
X9133548Y-9444976D01*
X9085929Y-9235452D02*
X9038310Y-9378310D01*
X9038310Y-9378310D02*
X9162119Y-9378310D01*
X9276405Y-9244976D02*
X9295452Y-9244976D01*
X9295452Y-9244976D02*
X9314500Y-9254500D01*
X9314500Y-9254500D02*
X9324024Y-9264024D01*
X9324024Y-9264024D02*
X9333548Y-9283071D01*
X9333548Y-9283071D02*
X9343071Y-9321167D01*
X9343071Y-9321167D02*
X9343071Y-9368786D01*
X9343071Y-9368786D02*
X9333548Y-9406881D01*
X9333548Y-9406881D02*
X9324024Y-9425929D01*
X9324024Y-9425929D02*
X9314500Y-9435452D01*
X9314500Y-9435452D02*
X9295452Y-9444976D01*
X9295452Y-9444976D02*
X9276405Y-9444976D01*
X9276405Y-9444976D02*
X9257357Y-9435452D01*
X9257357Y-9435452D02*
X9247833Y-9425929D01*
X9247833Y-9425929D02*
X9238310Y-9406881D01*
X9238310Y-9406881D02*
X9228786Y-9368786D01*
X9228786Y-9368786D02*
X9228786Y-9321167D01*
X9228786Y-9321167D02*
X9238310Y-9283071D01*
X9238310Y-9283071D02*
X9247833Y-9264024D01*
X9247833Y-9264024D02*
X9257357Y-9254500D01*
X9257357Y-9254500D02*
X9276405Y-9244976D01*
X9466881Y-9244976D02*
X9485929Y-9244976D01*
X9485929Y-9244976D02*
X9504976Y-9254500D01*
X9504976Y-9254500D02*
X9514500Y-9264024D01*
X9514500Y-9264024D02*
X9524024Y-9283071D01*
X9524024Y-9283071D02*
X9533548Y-9321167D01*
X9533548Y-9321167D02*
X9533548Y-9368786D01*
X9533548Y-9368786D02*
X9524024Y-9406881D01*
X9524024Y-9406881D02*
X9514500Y-9425929D01*
X9514500Y-9425929D02*
X9504976Y-9435452D01*
X9504976Y-9435452D02*
X9485929Y-9444976D01*
X9485929Y-9444976D02*
X9466881Y-9444976D01*
X9466881Y-9444976D02*
X9447833Y-9435452D01*
X9447833Y-9435452D02*
X9438310Y-9425929D01*
X9438310Y-9425929D02*
X9428786Y-9406881D01*
X9428786Y-9406881D02*
X9419262Y-9368786D01*
X9419262Y-9368786D02*
X9419262Y-9321167D01*
X9419262Y-9321167D02*
X9428786Y-9283071D01*
X9428786Y-9283071D02*
X9438310Y-9264024D01*
X9438310Y-9264024D02*
X9447833Y-9254500D01*
X9447833Y-9254500D02*
X9466881Y-9244976D01*
X9619262Y-9444976D02*
X9619262Y-9311643D01*
X9619262Y-9330690D02*
X9628786Y-9321167D01*
X9628786Y-9321167D02*
X9647833Y-9311643D01*
X9647833Y-9311643D02*
X9676405Y-9311643D01*
X9676405Y-9311643D02*
X9695452Y-9321167D01*
X9695452Y-9321167D02*
X9704976Y-9340214D01*
X9704976Y-9340214D02*
X9704976Y-9444976D01*
X9704976Y-9340214D02*
X9714500Y-9321167D01*
X9714500Y-9321167D02*
X9733548Y-9311643D01*
X9733548Y-9311643D02*
X9762119Y-9311643D01*
X9762119Y-9311643D02*
X9781167Y-9321167D01*
X9781167Y-9321167D02*
X9790691Y-9340214D01*
X9790691Y-9340214D02*
X9790691Y-9444976D01*
X9885929Y-9444976D02*
X9885929Y-9311643D01*
X9885929Y-9330690D02*
X9895452Y-9321167D01*
X9895452Y-9321167D02*
X9914500Y-9311643D01*
X9914500Y-9311643D02*
X9943072Y-9311643D01*
X9943072Y-9311643D02*
X9962119Y-9321167D01*
X9962119Y-9321167D02*
X9971643Y-9340214D01*
X9971643Y-9340214D02*
X9971643Y-9444976D01*
X9971643Y-9340214D02*
X9981167Y-9321167D01*
X9981167Y-9321167D02*
X10000214Y-9311643D01*
X10000214Y-9311643D02*
X10028786Y-9311643D01*
X10028786Y-9311643D02*
X10047833Y-9321167D01*
X10047833Y-9321167D02*
X10057357Y-9340214D01*
X10057357Y-9340214D02*
X10057357Y-9444976D01*
X10415452Y-9235452D02*
X10244024Y-9492595D01*
X10640214Y-9244976D02*
X10659262Y-9244976D01*
X10659262Y-9244976D02*
X10678310Y-9254500D01*
X10678310Y-9254500D02*
X10687833Y-9264024D01*
X10687833Y-9264024D02*
X10697357Y-9283071D01*
X10697357Y-9283071D02*
X10706881Y-9321167D01*
X10706881Y-9321167D02*
X10706881Y-9368786D01*
X10706881Y-9368786D02*
X10697357Y-9406881D01*
X10697357Y-9406881D02*
X10687833Y-9425929D01*
X10687833Y-9425929D02*
X10678310Y-9435452D01*
X10678310Y-9435452D02*
X10659262Y-9444976D01*
X10659262Y-9444976D02*
X10640214Y-9444976D01*
X10640214Y-9444976D02*
X10621167Y-9435452D01*
X10621167Y-9435452D02*
X10611643Y-9425929D01*
X10611643Y-9425929D02*
X10602119Y-9406881D01*
X10602119Y-9406881D02*
X10592595Y-9368786D01*
X10592595Y-9368786D02*
X10592595Y-9321167D01*
X10592595Y-9321167D02*
X10602119Y-9283071D01*
X10602119Y-9283071D02*
X10611643Y-9264024D01*
X10611643Y-9264024D02*
X10621167Y-9254500D01*
X10621167Y-9254500D02*
X10640214Y-9244976D01*
X10792595Y-9425929D02*
X10802119Y-9435452D01*
X10802119Y-9435452D02*
X10792595Y-9444976D01*
X10792595Y-9444976D02*
X10783072Y-9435452D01*
X10783072Y-9435452D02*
X10792595Y-9425929D01*
X10792595Y-9425929D02*
X10792595Y-9444976D01*
X10925929Y-9244976D02*
X10944976Y-9244976D01*
X10944976Y-9244976D02*
X10964024Y-9254500D01*
X10964024Y-9254500D02*
X10973548Y-9264024D01*
X10973548Y-9264024D02*
X10983072Y-9283071D01*
X10983072Y-9283071D02*
X10992595Y-9321167D01*
X10992595Y-9321167D02*
X10992595Y-9368786D01*
X10992595Y-9368786D02*
X10983072Y-9406881D01*
X10983072Y-9406881D02*
X10973548Y-9425929D01*
X10973548Y-9425929D02*
X10964024Y-9435452D01*
X10964024Y-9435452D02*
X10944976Y-9444976D01*
X10944976Y-9444976D02*
X10925929Y-9444976D01*
X10925929Y-9444976D02*
X10906881Y-9435452D01*
X10906881Y-9435452D02*
X10897357Y-9425929D01*
X10897357Y-9425929D02*
X10887833Y-9406881D01*
X10887833Y-9406881D02*
X10878310Y-9368786D01*
X10878310Y-9368786D02*
X10878310Y-9321167D01*
X10878310Y-9321167D02*
X10887833Y-9283071D01*
X10887833Y-9283071D02*
X10897357Y-9264024D01*
X10897357Y-9264024D02*
X10906881Y-9254500D01*
X10906881Y-9254500D02*
X10925929Y-9244976D01*
X11183072Y-9444976D02*
X11068786Y-9444976D01*
X11125929Y-9444976D02*
X11125929Y-9244976D01*
X11125929Y-9244976D02*
X11106881Y-9273548D01*
X11106881Y-9273548D02*
X11087833Y-9292595D01*
X11087833Y-9292595D02*
X11068786Y-9302119D01*
X11364024Y-9244976D02*
X11268786Y-9244976D01*
X11268786Y-9244976D02*
X11259262Y-9340214D01*
X11259262Y-9340214D02*
X11268786Y-9330690D01*
X11268786Y-9330690D02*
X11287833Y-9321167D01*
X11287833Y-9321167D02*
X11335452Y-9321167D01*
X11335452Y-9321167D02*
X11354500Y-9330690D01*
X11354500Y-9330690D02*
X11364024Y-9340214D01*
X11364024Y-9340214D02*
X11373548Y-9359262D01*
X11373548Y-9359262D02*
X11373548Y-9406881D01*
X11373548Y-9406881D02*
X11364024Y-9425929D01*
X11364024Y-9425929D02*
X11354500Y-9435452D01*
X11354500Y-9435452D02*
X11335452Y-9444976D01*
X11335452Y-9444976D02*
X11287833Y-9444976D01*
X11287833Y-9444976D02*
X11268786Y-9435452D01*
X11268786Y-9435452D02*
X11259262Y-9425929D01*
X11440214Y-9244976D02*
X11573548Y-9244976D01*
X11573548Y-9244976D02*
X11487833Y-9444976D01*
X11640214Y-9244976D02*
X11640214Y-9283071D01*
X11716405Y-9244976D02*
X11716405Y-9283071D01*
X11979262Y-9521167D02*
X11969738Y-9511643D01*
X11969738Y-9511643D02*
X11950691Y-9483071D01*
X11950691Y-9483071D02*
X11941167Y-9464024D01*
X11941167Y-9464024D02*
X11931643Y-9435452D01*
X11931643Y-9435452D02*
X11922119Y-9387833D01*
X11922119Y-9387833D02*
X11922119Y-9349738D01*
X11922119Y-9349738D02*
X11931643Y-9302119D01*
X11931643Y-9302119D02*
X11941167Y-9273548D01*
X11941167Y-9273548D02*
X11950691Y-9254500D01*
X11950691Y-9254500D02*
X11969738Y-9225929D01*
X11969738Y-9225929D02*
X11979262Y-9216405D01*
X12160214Y-9444976D02*
X12045929Y-9444976D01*
X12103071Y-9444976D02*
X12103071Y-9244976D01*
X12103071Y-9244976D02*
X12084024Y-9273548D01*
X12084024Y-9273548D02*
X12064976Y-9292595D01*
X12064976Y-9292595D02*
X12045929Y-9302119D01*
X12341167Y-9244976D02*
X12245929Y-9244976D01*
X12245929Y-9244976D02*
X12236405Y-9340214D01*
X12236405Y-9340214D02*
X12245929Y-9330690D01*
X12245929Y-9330690D02*
X12264976Y-9321167D01*
X12264976Y-9321167D02*
X12312595Y-9321167D01*
X12312595Y-9321167D02*
X12331643Y-9330690D01*
X12331643Y-9330690D02*
X12341167Y-9340214D01*
X12341167Y-9340214D02*
X12350691Y-9359262D01*
X12350691Y-9359262D02*
X12350691Y-9406881D01*
X12350691Y-9406881D02*
X12341167Y-9425929D01*
X12341167Y-9425929D02*
X12331643Y-9435452D01*
X12331643Y-9435452D02*
X12312595Y-9444976D01*
X12312595Y-9444976D02*
X12264976Y-9444976D01*
X12264976Y-9444976D02*
X12245929Y-9435452D01*
X12245929Y-9435452D02*
X12236405Y-9425929D01*
X12556405Y-9444976D02*
X12556405Y-9244976D01*
X12642119Y-9444976D02*
X12642119Y-9340214D01*
X12642119Y-9340214D02*
X12632595Y-9321167D01*
X12632595Y-9321167D02*
X12613548Y-9311643D01*
X12613548Y-9311643D02*
X12584976Y-9311643D01*
X12584976Y-9311643D02*
X12565929Y-9321167D01*
X12565929Y-9321167D02*
X12556405Y-9330690D01*
X12765929Y-9444976D02*
X12746881Y-9435452D01*
X12746881Y-9435452D02*
X12737357Y-9425929D01*
X12737357Y-9425929D02*
X12727833Y-9406881D01*
X12727833Y-9406881D02*
X12727833Y-9349738D01*
X12727833Y-9349738D02*
X12737357Y-9330690D01*
X12737357Y-9330690D02*
X12746881Y-9321167D01*
X12746881Y-9321167D02*
X12765929Y-9311643D01*
X12765929Y-9311643D02*
X12794500Y-9311643D01*
X12794500Y-9311643D02*
X12813548Y-9321167D01*
X12813548Y-9321167D02*
X12823072Y-9330690D01*
X12823072Y-9330690D02*
X12832595Y-9349738D01*
X12832595Y-9349738D02*
X12832595Y-9406881D01*
X12832595Y-9406881D02*
X12823072Y-9425929D01*
X12823072Y-9425929D02*
X12813548Y-9435452D01*
X12813548Y-9435452D02*
X12794500Y-9444976D01*
X12794500Y-9444976D02*
X12765929Y-9444976D01*
X12946881Y-9444976D02*
X12927833Y-9435452D01*
X12927833Y-9435452D02*
X12918310Y-9416405D01*
X12918310Y-9416405D02*
X12918310Y-9244976D01*
X13099262Y-9435452D02*
X13080214Y-9444976D01*
X13080214Y-9444976D02*
X13042119Y-9444976D01*
X13042119Y-9444976D02*
X13023072Y-9435452D01*
X13023072Y-9435452D02*
X13013548Y-9416405D01*
X13013548Y-9416405D02*
X13013548Y-9340214D01*
X13013548Y-9340214D02*
X13023072Y-9321167D01*
X13023072Y-9321167D02*
X13042119Y-9311643D01*
X13042119Y-9311643D02*
X13080214Y-9311643D01*
X13080214Y-9311643D02*
X13099262Y-9321167D01*
X13099262Y-9321167D02*
X13108786Y-9340214D01*
X13108786Y-9340214D02*
X13108786Y-9359262D01*
X13108786Y-9359262D02*
X13013548Y-9378310D01*
X13184976Y-9435452D02*
X13204024Y-9444976D01*
X13204024Y-9444976D02*
X13242119Y-9444976D01*
X13242119Y-9444976D02*
X13261167Y-9435452D01*
X13261167Y-9435452D02*
X13270691Y-9416405D01*
X13270691Y-9416405D02*
X13270691Y-9406881D01*
X13270691Y-9406881D02*
X13261167Y-9387833D01*
X13261167Y-9387833D02*
X13242119Y-9378310D01*
X13242119Y-9378310D02*
X13213548Y-9378310D01*
X13213548Y-9378310D02*
X13194500Y-9368786D01*
X13194500Y-9368786D02*
X13184976Y-9349738D01*
X13184976Y-9349738D02*
X13184976Y-9340214D01*
X13184976Y-9340214D02*
X13194500Y-9321167D01*
X13194500Y-9321167D02*
X13213548Y-9311643D01*
X13213548Y-9311643D02*
X13242119Y-9311643D01*
X13242119Y-9311643D02*
X13261167Y-9321167D01*
X13337357Y-9521167D02*
X13346881Y-9511643D01*
X13346881Y-9511643D02*
X13365929Y-9483071D01*
X13365929Y-9483071D02*
X13375453Y-9464024D01*
X13375453Y-9464024D02*
X13384976Y-9435452D01*
X13384976Y-9435452D02*
X13394500Y-9387833D01*
X13394500Y-9387833D02*
X13394500Y-9349738D01*
X13394500Y-9349738D02*
X13384976Y-9302119D01*
X13384976Y-9302119D02*
X13375453Y-9273548D01*
X13375453Y-9273548D02*
X13365929Y-9254500D01*
X13365929Y-9254500D02*
X13346881Y-9225929D01*
X13346881Y-9225929D02*
X13337357Y-9216405D01*
D14*
X8481480Y-9602480D02*
X8481480Y-9668520D01*
X8448460Y-9635500D02*
X8514500Y-9635500D01*
D11*
X8800214Y-9508976D02*
X8819262Y-9508976D01*
X8819262Y-9508976D02*
X8838310Y-9518500D01*
X8838310Y-9518500D02*
X8847833Y-9528024D01*
X8847833Y-9528024D02*
X8857357Y-9547071D01*
X8857357Y-9547071D02*
X8866881Y-9585167D01*
X8866881Y-9585167D02*
X8866881Y-9632786D01*
X8866881Y-9632786D02*
X8857357Y-9670881D01*
X8857357Y-9670881D02*
X8847833Y-9689929D01*
X8847833Y-9689929D02*
X8838310Y-9699452D01*
X8838310Y-9699452D02*
X8819262Y-9708976D01*
X8819262Y-9708976D02*
X8800214Y-9708976D01*
X8800214Y-9708976D02*
X8781167Y-9699452D01*
X8781167Y-9699452D02*
X8771643Y-9689929D01*
X8771643Y-9689929D02*
X8762119Y-9670881D01*
X8762119Y-9670881D02*
X8752595Y-9632786D01*
X8752595Y-9632786D02*
X8752595Y-9585167D01*
X8752595Y-9585167D02*
X8762119Y-9547071D01*
X8762119Y-9547071D02*
X8771643Y-9528024D01*
X8771643Y-9528024D02*
X8781167Y-9518500D01*
X8781167Y-9518500D02*
X8800214Y-9508976D01*
X8952595Y-9689929D02*
X8962119Y-9699452D01*
X8962119Y-9699452D02*
X8952595Y-9708976D01*
X8952595Y-9708976D02*
X8943071Y-9699452D01*
X8943071Y-9699452D02*
X8952595Y-9689929D01*
X8952595Y-9689929D02*
X8952595Y-9708976D01*
X9133548Y-9508976D02*
X9095452Y-9508976D01*
X9095452Y-9508976D02*
X9076405Y-9518500D01*
X9076405Y-9518500D02*
X9066881Y-9528024D01*
X9066881Y-9528024D02*
X9047833Y-9556595D01*
X9047833Y-9556595D02*
X9038310Y-9594690D01*
X9038310Y-9594690D02*
X9038310Y-9670881D01*
X9038310Y-9670881D02*
X9047833Y-9689929D01*
X9047833Y-9689929D02*
X9057357Y-9699452D01*
X9057357Y-9699452D02*
X9076405Y-9708976D01*
X9076405Y-9708976D02*
X9114500Y-9708976D01*
X9114500Y-9708976D02*
X9133548Y-9699452D01*
X9133548Y-9699452D02*
X9143071Y-9689929D01*
X9143071Y-9689929D02*
X9152595Y-9670881D01*
X9152595Y-9670881D02*
X9152595Y-9623262D01*
X9152595Y-9623262D02*
X9143071Y-9604214D01*
X9143071Y-9604214D02*
X9133548Y-9594690D01*
X9133548Y-9594690D02*
X9114500Y-9585167D01*
X9114500Y-9585167D02*
X9076405Y-9585167D01*
X9076405Y-9585167D02*
X9057357Y-9594690D01*
X9057357Y-9594690D02*
X9047833Y-9604214D01*
X9047833Y-9604214D02*
X9038310Y-9623262D01*
X9324024Y-9508976D02*
X9285929Y-9508976D01*
X9285929Y-9508976D02*
X9266881Y-9518500D01*
X9266881Y-9518500D02*
X9257357Y-9528024D01*
X9257357Y-9528024D02*
X9238310Y-9556595D01*
X9238310Y-9556595D02*
X9228786Y-9594690D01*
X9228786Y-9594690D02*
X9228786Y-9670881D01*
X9228786Y-9670881D02*
X9238310Y-9689929D01*
X9238310Y-9689929D02*
X9247833Y-9699452D01*
X9247833Y-9699452D02*
X9266881Y-9708976D01*
X9266881Y-9708976D02*
X9304976Y-9708976D01*
X9304976Y-9708976D02*
X9324024Y-9699452D01*
X9324024Y-9699452D02*
X9333548Y-9689929D01*
X9333548Y-9689929D02*
X9343071Y-9670881D01*
X9343071Y-9670881D02*
X9343071Y-9623262D01*
X9343071Y-9623262D02*
X9333548Y-9604214D01*
X9333548Y-9604214D02*
X9324024Y-9594690D01*
X9324024Y-9594690D02*
X9304976Y-9585167D01*
X9304976Y-9585167D02*
X9266881Y-9585167D01*
X9266881Y-9585167D02*
X9247833Y-9594690D01*
X9247833Y-9594690D02*
X9238310Y-9604214D01*
X9238310Y-9604214D02*
X9228786Y-9623262D01*
X9466881Y-9508976D02*
X9485929Y-9508976D01*
X9485929Y-9508976D02*
X9504976Y-9518500D01*
X9504976Y-9518500D02*
X9514500Y-9528024D01*
X9514500Y-9528024D02*
X9524024Y-9547071D01*
X9524024Y-9547071D02*
X9533548Y-9585167D01*
X9533548Y-9585167D02*
X9533548Y-9632786D01*
X9533548Y-9632786D02*
X9524024Y-9670881D01*
X9524024Y-9670881D02*
X9514500Y-9689929D01*
X9514500Y-9689929D02*
X9504976Y-9699452D01*
X9504976Y-9699452D02*
X9485929Y-9708976D01*
X9485929Y-9708976D02*
X9466881Y-9708976D01*
X9466881Y-9708976D02*
X9447833Y-9699452D01*
X9447833Y-9699452D02*
X9438310Y-9689929D01*
X9438310Y-9689929D02*
X9428786Y-9670881D01*
X9428786Y-9670881D02*
X9419262Y-9632786D01*
X9419262Y-9632786D02*
X9419262Y-9585167D01*
X9419262Y-9585167D02*
X9428786Y-9547071D01*
X9428786Y-9547071D02*
X9438310Y-9528024D01*
X9438310Y-9528024D02*
X9447833Y-9518500D01*
X9447833Y-9518500D02*
X9466881Y-9508976D01*
X9619262Y-9708976D02*
X9619262Y-9575643D01*
X9619262Y-9594690D02*
X9628786Y-9585167D01*
X9628786Y-9585167D02*
X9647833Y-9575643D01*
X9647833Y-9575643D02*
X9676405Y-9575643D01*
X9676405Y-9575643D02*
X9695452Y-9585167D01*
X9695452Y-9585167D02*
X9704976Y-9604214D01*
X9704976Y-9604214D02*
X9704976Y-9708976D01*
X9704976Y-9604214D02*
X9714500Y-9585167D01*
X9714500Y-9585167D02*
X9733548Y-9575643D01*
X9733548Y-9575643D02*
X9762119Y-9575643D01*
X9762119Y-9575643D02*
X9781167Y-9585167D01*
X9781167Y-9585167D02*
X9790691Y-9604214D01*
X9790691Y-9604214D02*
X9790691Y-9708976D01*
X9885929Y-9708976D02*
X9885929Y-9575643D01*
X9885929Y-9594690D02*
X9895452Y-9585167D01*
X9895452Y-9585167D02*
X9914500Y-9575643D01*
X9914500Y-9575643D02*
X9943072Y-9575643D01*
X9943072Y-9575643D02*
X9962119Y-9585167D01*
X9962119Y-9585167D02*
X9971643Y-9604214D01*
X9971643Y-9604214D02*
X9971643Y-9708976D01*
X9971643Y-9604214D02*
X9981167Y-9585167D01*
X9981167Y-9585167D02*
X10000214Y-9575643D01*
X10000214Y-9575643D02*
X10028786Y-9575643D01*
X10028786Y-9575643D02*
X10047833Y-9585167D01*
X10047833Y-9585167D02*
X10057357Y-9604214D01*
X10057357Y-9604214D02*
X10057357Y-9708976D01*
X10415452Y-9499452D02*
X10244024Y-9756595D01*
X10640214Y-9508976D02*
X10659262Y-9508976D01*
X10659262Y-9508976D02*
X10678310Y-9518500D01*
X10678310Y-9518500D02*
X10687833Y-9528024D01*
X10687833Y-9528024D02*
X10697357Y-9547071D01*
X10697357Y-9547071D02*
X10706881Y-9585167D01*
X10706881Y-9585167D02*
X10706881Y-9632786D01*
X10706881Y-9632786D02*
X10697357Y-9670881D01*
X10697357Y-9670881D02*
X10687833Y-9689929D01*
X10687833Y-9689929D02*
X10678310Y-9699452D01*
X10678310Y-9699452D02*
X10659262Y-9708976D01*
X10659262Y-9708976D02*
X10640214Y-9708976D01*
X10640214Y-9708976D02*
X10621167Y-9699452D01*
X10621167Y-9699452D02*
X10611643Y-9689929D01*
X10611643Y-9689929D02*
X10602119Y-9670881D01*
X10602119Y-9670881D02*
X10592595Y-9632786D01*
X10592595Y-9632786D02*
X10592595Y-9585167D01*
X10592595Y-9585167D02*
X10602119Y-9547071D01*
X10602119Y-9547071D02*
X10611643Y-9528024D01*
X10611643Y-9528024D02*
X10621167Y-9518500D01*
X10621167Y-9518500D02*
X10640214Y-9508976D01*
X10792595Y-9689929D02*
X10802119Y-9699452D01*
X10802119Y-9699452D02*
X10792595Y-9708976D01*
X10792595Y-9708976D02*
X10783072Y-9699452D01*
X10783072Y-9699452D02*
X10792595Y-9689929D01*
X10792595Y-9689929D02*
X10792595Y-9708976D01*
X10925929Y-9508976D02*
X10944976Y-9508976D01*
X10944976Y-9508976D02*
X10964024Y-9518500D01*
X10964024Y-9518500D02*
X10973548Y-9528024D01*
X10973548Y-9528024D02*
X10983072Y-9547071D01*
X10983072Y-9547071D02*
X10992595Y-9585167D01*
X10992595Y-9585167D02*
X10992595Y-9632786D01*
X10992595Y-9632786D02*
X10983072Y-9670881D01*
X10983072Y-9670881D02*
X10973548Y-9689929D01*
X10973548Y-9689929D02*
X10964024Y-9699452D01*
X10964024Y-9699452D02*
X10944976Y-9708976D01*
X10944976Y-9708976D02*
X10925929Y-9708976D01*
X10925929Y-9708976D02*
X10906881Y-9699452D01*
X10906881Y-9699452D02*
X10897357Y-9689929D01*
X10897357Y-9689929D02*
X10887833Y-9670881D01*
X10887833Y-9670881D02*
X10878310Y-9632786D01*
X10878310Y-9632786D02*
X10878310Y-9585167D01*
X10878310Y-9585167D02*
X10887833Y-9547071D01*
X10887833Y-9547071D02*
X10897357Y-9528024D01*
X10897357Y-9528024D02*
X10906881Y-9518500D01*
X10906881Y-9518500D02*
X10925929Y-9508976D01*
X11068786Y-9528024D02*
X11078310Y-9518500D01*
X11078310Y-9518500D02*
X11097357Y-9508976D01*
X11097357Y-9508976D02*
X11144976Y-9508976D01*
X11144976Y-9508976D02*
X11164024Y-9518500D01*
X11164024Y-9518500D02*
X11173548Y-9528024D01*
X11173548Y-9528024D02*
X11183072Y-9547071D01*
X11183072Y-9547071D02*
X11183072Y-9566119D01*
X11183072Y-9566119D02*
X11173548Y-9594690D01*
X11173548Y-9594690D02*
X11059262Y-9708976D01*
X11059262Y-9708976D02*
X11183072Y-9708976D01*
X11354500Y-9508976D02*
X11316405Y-9508976D01*
X11316405Y-9508976D02*
X11297357Y-9518500D01*
X11297357Y-9518500D02*
X11287833Y-9528024D01*
X11287833Y-9528024D02*
X11268786Y-9556595D01*
X11268786Y-9556595D02*
X11259262Y-9594690D01*
X11259262Y-9594690D02*
X11259262Y-9670881D01*
X11259262Y-9670881D02*
X11268786Y-9689929D01*
X11268786Y-9689929D02*
X11278310Y-9699452D01*
X11278310Y-9699452D02*
X11297357Y-9708976D01*
X11297357Y-9708976D02*
X11335452Y-9708976D01*
X11335452Y-9708976D02*
X11354500Y-9699452D01*
X11354500Y-9699452D02*
X11364024Y-9689929D01*
X11364024Y-9689929D02*
X11373548Y-9670881D01*
X11373548Y-9670881D02*
X11373548Y-9623262D01*
X11373548Y-9623262D02*
X11364024Y-9604214D01*
X11364024Y-9604214D02*
X11354500Y-9594690D01*
X11354500Y-9594690D02*
X11335452Y-9585167D01*
X11335452Y-9585167D02*
X11297357Y-9585167D01*
X11297357Y-9585167D02*
X11278310Y-9594690D01*
X11278310Y-9594690D02*
X11268786Y-9604214D01*
X11268786Y-9604214D02*
X11259262Y-9623262D01*
X11497357Y-9508976D02*
X11516405Y-9508976D01*
X11516405Y-9508976D02*
X11535452Y-9518500D01*
X11535452Y-9518500D02*
X11544976Y-9528024D01*
X11544976Y-9528024D02*
X11554500Y-9547071D01*
X11554500Y-9547071D02*
X11564024Y-9585167D01*
X11564024Y-9585167D02*
X11564024Y-9632786D01*
X11564024Y-9632786D02*
X11554500Y-9670881D01*
X11554500Y-9670881D02*
X11544976Y-9689929D01*
X11544976Y-9689929D02*
X11535452Y-9699452D01*
X11535452Y-9699452D02*
X11516405Y-9708976D01*
X11516405Y-9708976D02*
X11497357Y-9708976D01*
X11497357Y-9708976D02*
X11478310Y-9699452D01*
X11478310Y-9699452D02*
X11468786Y-9689929D01*
X11468786Y-9689929D02*
X11459262Y-9670881D01*
X11459262Y-9670881D02*
X11449738Y-9632786D01*
X11449738Y-9632786D02*
X11449738Y-9585167D01*
X11449738Y-9585167D02*
X11459262Y-9547071D01*
X11459262Y-9547071D02*
X11468786Y-9528024D01*
X11468786Y-9528024D02*
X11478310Y-9518500D01*
X11478310Y-9518500D02*
X11497357Y-9508976D01*
X11640214Y-9508976D02*
X11640214Y-9547071D01*
X11716405Y-9508976D02*
X11716405Y-9547071D01*
X11979262Y-9785167D02*
X11969738Y-9775643D01*
X11969738Y-9775643D02*
X11950691Y-9747071D01*
X11950691Y-9747071D02*
X11941167Y-9728024D01*
X11941167Y-9728024D02*
X11931643Y-9699452D01*
X11931643Y-9699452D02*
X11922119Y-9651833D01*
X11922119Y-9651833D02*
X11922119Y-9613738D01*
X11922119Y-9613738D02*
X11931643Y-9566119D01*
X11931643Y-9566119D02*
X11941167Y-9537548D01*
X11941167Y-9537548D02*
X11950691Y-9518500D01*
X11950691Y-9518500D02*
X11969738Y-9489929D01*
X11969738Y-9489929D02*
X11979262Y-9480405D01*
X12045929Y-9528024D02*
X12055452Y-9518500D01*
X12055452Y-9518500D02*
X12074500Y-9508976D01*
X12074500Y-9508976D02*
X12122119Y-9508976D01*
X12122119Y-9508976D02*
X12141167Y-9518500D01*
X12141167Y-9518500D02*
X12150691Y-9528024D01*
X12150691Y-9528024D02*
X12160214Y-9547071D01*
X12160214Y-9547071D02*
X12160214Y-9566119D01*
X12160214Y-9566119D02*
X12150691Y-9594690D01*
X12150691Y-9594690D02*
X12036405Y-9708976D01*
X12036405Y-9708976D02*
X12160214Y-9708976D01*
X12365929Y-9708976D02*
X12365929Y-9508976D01*
X12451643Y-9708976D02*
X12451643Y-9604214D01*
X12451643Y-9604214D02*
X12442119Y-9585167D01*
X12442119Y-9585167D02*
X12423072Y-9575643D01*
X12423072Y-9575643D02*
X12394500Y-9575643D01*
X12394500Y-9575643D02*
X12375452Y-9585167D01*
X12375452Y-9585167D02*
X12365929Y-9594690D01*
X12575452Y-9708976D02*
X12556405Y-9699452D01*
X12556405Y-9699452D02*
X12546881Y-9689929D01*
X12546881Y-9689929D02*
X12537357Y-9670881D01*
X12537357Y-9670881D02*
X12537357Y-9613738D01*
X12537357Y-9613738D02*
X12546881Y-9594690D01*
X12546881Y-9594690D02*
X12556405Y-9585167D01*
X12556405Y-9585167D02*
X12575452Y-9575643D01*
X12575452Y-9575643D02*
X12604024Y-9575643D01*
X12604024Y-9575643D02*
X12623072Y-9585167D01*
X12623072Y-9585167D02*
X12632595Y-9594690D01*
X12632595Y-9594690D02*
X12642119Y-9613738D01*
X12642119Y-9613738D02*
X12642119Y-9670881D01*
X12642119Y-9670881D02*
X12632595Y-9689929D01*
X12632595Y-9689929D02*
X12623072Y-9699452D01*
X12623072Y-9699452D02*
X12604024Y-9708976D01*
X12604024Y-9708976D02*
X12575452Y-9708976D01*
X12756405Y-9708976D02*
X12737357Y-9699452D01*
X12737357Y-9699452D02*
X12727833Y-9680405D01*
X12727833Y-9680405D02*
X12727833Y-9508976D01*
X12908786Y-9699452D02*
X12889738Y-9708976D01*
X12889738Y-9708976D02*
X12851643Y-9708976D01*
X12851643Y-9708976D02*
X12832595Y-9699452D01*
X12832595Y-9699452D02*
X12823072Y-9680405D01*
X12823072Y-9680405D02*
X12823072Y-9604214D01*
X12823072Y-9604214D02*
X12832595Y-9585167D01*
X12832595Y-9585167D02*
X12851643Y-9575643D01*
X12851643Y-9575643D02*
X12889738Y-9575643D01*
X12889738Y-9575643D02*
X12908786Y-9585167D01*
X12908786Y-9585167D02*
X12918310Y-9604214D01*
X12918310Y-9604214D02*
X12918310Y-9623262D01*
X12918310Y-9623262D02*
X12823072Y-9642310D01*
X12994500Y-9699452D02*
X13013548Y-9708976D01*
X13013548Y-9708976D02*
X13051643Y-9708976D01*
X13051643Y-9708976D02*
X13070691Y-9699452D01*
X13070691Y-9699452D02*
X13080214Y-9680405D01*
X13080214Y-9680405D02*
X13080214Y-9670881D01*
X13080214Y-9670881D02*
X13070691Y-9651833D01*
X13070691Y-9651833D02*
X13051643Y-9642310D01*
X13051643Y-9642310D02*
X13023072Y-9642310D01*
X13023072Y-9642310D02*
X13004024Y-9632786D01*
X13004024Y-9632786D02*
X12994500Y-9613738D01*
X12994500Y-9613738D02*
X12994500Y-9604214D01*
X12994500Y-9604214D02*
X13004024Y-9585167D01*
X13004024Y-9585167D02*
X13023072Y-9575643D01*
X13023072Y-9575643D02*
X13051643Y-9575643D01*
X13051643Y-9575643D02*
X13070691Y-9585167D01*
X13146881Y-9785167D02*
X13156405Y-9775643D01*
X13156405Y-9775643D02*
X13175453Y-9747071D01*
X13175453Y-9747071D02*
X13184976Y-9728024D01*
X13184976Y-9728024D02*
X13194500Y-9699452D01*
X13194500Y-9699452D02*
X13204024Y-9651833D01*
X13204024Y-9651833D02*
X13204024Y-9613738D01*
X13204024Y-9613738D02*
X13194500Y-9566119D01*
X13194500Y-9566119D02*
X13184976Y-9537548D01*
X13184976Y-9537548D02*
X13175453Y-9518500D01*
X13175453Y-9518500D02*
X13156405Y-9489929D01*
X13156405Y-9489929D02*
X13146881Y-9480405D01*
D15*
X8503341Y-9926441D02*
X8503341Y-9872559D01*
X8449459Y-9872559D01*
X8449459Y-9926441D01*
X8503341Y-9926441D01*
D11*
X8800214Y-9772976D02*
X8819262Y-9772976D01*
X8819262Y-9772976D02*
X8838310Y-9782500D01*
X8838310Y-9782500D02*
X8847833Y-9792024D01*
X8847833Y-9792024D02*
X8857357Y-9811071D01*
X8857357Y-9811071D02*
X8866881Y-9849167D01*
X8866881Y-9849167D02*
X8866881Y-9896786D01*
X8866881Y-9896786D02*
X8857357Y-9934881D01*
X8857357Y-9934881D02*
X8847833Y-9953929D01*
X8847833Y-9953929D02*
X8838310Y-9963452D01*
X8838310Y-9963452D02*
X8819262Y-9972976D01*
X8819262Y-9972976D02*
X8800214Y-9972976D01*
X8800214Y-9972976D02*
X8781167Y-9963452D01*
X8781167Y-9963452D02*
X8771643Y-9953929D01*
X8771643Y-9953929D02*
X8762119Y-9934881D01*
X8762119Y-9934881D02*
X8752595Y-9896786D01*
X8752595Y-9896786D02*
X8752595Y-9849167D01*
X8752595Y-9849167D02*
X8762119Y-9811071D01*
X8762119Y-9811071D02*
X8771643Y-9792024D01*
X8771643Y-9792024D02*
X8781167Y-9782500D01*
X8781167Y-9782500D02*
X8800214Y-9772976D01*
X8952595Y-9953929D02*
X8962119Y-9963452D01*
X8962119Y-9963452D02*
X8952595Y-9972976D01*
X8952595Y-9972976D02*
X8943071Y-9963452D01*
X8943071Y-9963452D02*
X8952595Y-9953929D01*
X8952595Y-9953929D02*
X8952595Y-9972976D01*
X9028786Y-9772976D02*
X9162119Y-9772976D01*
X9162119Y-9772976D02*
X9076405Y-9972976D01*
X9324024Y-9772976D02*
X9285929Y-9772976D01*
X9285929Y-9772976D02*
X9266881Y-9782500D01*
X9266881Y-9782500D02*
X9257357Y-9792024D01*
X9257357Y-9792024D02*
X9238310Y-9820595D01*
X9238310Y-9820595D02*
X9228786Y-9858690D01*
X9228786Y-9858690D02*
X9228786Y-9934881D01*
X9228786Y-9934881D02*
X9238310Y-9953929D01*
X9238310Y-9953929D02*
X9247833Y-9963452D01*
X9247833Y-9963452D02*
X9266881Y-9972976D01*
X9266881Y-9972976D02*
X9304976Y-9972976D01*
X9304976Y-9972976D02*
X9324024Y-9963452D01*
X9324024Y-9963452D02*
X9333548Y-9953929D01*
X9333548Y-9953929D02*
X9343071Y-9934881D01*
X9343071Y-9934881D02*
X9343071Y-9887262D01*
X9343071Y-9887262D02*
X9333548Y-9868214D01*
X9333548Y-9868214D02*
X9324024Y-9858690D01*
X9324024Y-9858690D02*
X9304976Y-9849167D01*
X9304976Y-9849167D02*
X9266881Y-9849167D01*
X9266881Y-9849167D02*
X9247833Y-9858690D01*
X9247833Y-9858690D02*
X9238310Y-9868214D01*
X9238310Y-9868214D02*
X9228786Y-9887262D01*
X9419262Y-9792024D02*
X9428786Y-9782500D01*
X9428786Y-9782500D02*
X9447833Y-9772976D01*
X9447833Y-9772976D02*
X9495452Y-9772976D01*
X9495452Y-9772976D02*
X9514500Y-9782500D01*
X9514500Y-9782500D02*
X9524024Y-9792024D01*
X9524024Y-9792024D02*
X9533548Y-9811071D01*
X9533548Y-9811071D02*
X9533548Y-9830119D01*
X9533548Y-9830119D02*
X9524024Y-9858690D01*
X9524024Y-9858690D02*
X9409738Y-9972976D01*
X9409738Y-9972976D02*
X9533548Y-9972976D01*
X9619262Y-9972976D02*
X9619262Y-9839643D01*
X9619262Y-9858690D02*
X9628786Y-9849167D01*
X9628786Y-9849167D02*
X9647833Y-9839643D01*
X9647833Y-9839643D02*
X9676405Y-9839643D01*
X9676405Y-9839643D02*
X9695452Y-9849167D01*
X9695452Y-9849167D02*
X9704976Y-9868214D01*
X9704976Y-9868214D02*
X9704976Y-9972976D01*
X9704976Y-9868214D02*
X9714500Y-9849167D01*
X9714500Y-9849167D02*
X9733548Y-9839643D01*
X9733548Y-9839643D02*
X9762119Y-9839643D01*
X9762119Y-9839643D02*
X9781167Y-9849167D01*
X9781167Y-9849167D02*
X9790691Y-9868214D01*
X9790691Y-9868214D02*
X9790691Y-9972976D01*
X9885929Y-9972976D02*
X9885929Y-9839643D01*
X9885929Y-9858690D02*
X9895452Y-9849167D01*
X9895452Y-9849167D02*
X9914500Y-9839643D01*
X9914500Y-9839643D02*
X9943072Y-9839643D01*
X9943072Y-9839643D02*
X9962119Y-9849167D01*
X9962119Y-9849167D02*
X9971643Y-9868214D01*
X9971643Y-9868214D02*
X9971643Y-9972976D01*
X9971643Y-9868214D02*
X9981167Y-9849167D01*
X9981167Y-9849167D02*
X10000214Y-9839643D01*
X10000214Y-9839643D02*
X10028786Y-9839643D01*
X10028786Y-9839643D02*
X10047833Y-9849167D01*
X10047833Y-9849167D02*
X10057357Y-9868214D01*
X10057357Y-9868214D02*
X10057357Y-9972976D01*
X10415452Y-9763452D02*
X10244024Y-10020595D01*
X10640214Y-9772976D02*
X10659262Y-9772976D01*
X10659262Y-9772976D02*
X10678310Y-9782500D01*
X10678310Y-9782500D02*
X10687833Y-9792024D01*
X10687833Y-9792024D02*
X10697357Y-9811071D01*
X10697357Y-9811071D02*
X10706881Y-9849167D01*
X10706881Y-9849167D02*
X10706881Y-9896786D01*
X10706881Y-9896786D02*
X10697357Y-9934881D01*
X10697357Y-9934881D02*
X10687833Y-9953929D01*
X10687833Y-9953929D02*
X10678310Y-9963452D01*
X10678310Y-9963452D02*
X10659262Y-9972976D01*
X10659262Y-9972976D02*
X10640214Y-9972976D01*
X10640214Y-9972976D02*
X10621167Y-9963452D01*
X10621167Y-9963452D02*
X10611643Y-9953929D01*
X10611643Y-9953929D02*
X10602119Y-9934881D01*
X10602119Y-9934881D02*
X10592595Y-9896786D01*
X10592595Y-9896786D02*
X10592595Y-9849167D01*
X10592595Y-9849167D02*
X10602119Y-9811071D01*
X10602119Y-9811071D02*
X10611643Y-9792024D01*
X10611643Y-9792024D02*
X10621167Y-9782500D01*
X10621167Y-9782500D02*
X10640214Y-9772976D01*
X10792595Y-9953929D02*
X10802119Y-9963452D01*
X10802119Y-9963452D02*
X10792595Y-9972976D01*
X10792595Y-9972976D02*
X10783072Y-9963452D01*
X10783072Y-9963452D02*
X10792595Y-9953929D01*
X10792595Y-9953929D02*
X10792595Y-9972976D01*
X10925929Y-9772976D02*
X10944976Y-9772976D01*
X10944976Y-9772976D02*
X10964024Y-9782500D01*
X10964024Y-9782500D02*
X10973548Y-9792024D01*
X10973548Y-9792024D02*
X10983072Y-9811071D01*
X10983072Y-9811071D02*
X10992595Y-9849167D01*
X10992595Y-9849167D02*
X10992595Y-9896786D01*
X10992595Y-9896786D02*
X10983072Y-9934881D01*
X10983072Y-9934881D02*
X10973548Y-9953929D01*
X10973548Y-9953929D02*
X10964024Y-9963452D01*
X10964024Y-9963452D02*
X10944976Y-9972976D01*
X10944976Y-9972976D02*
X10925929Y-9972976D01*
X10925929Y-9972976D02*
X10906881Y-9963452D01*
X10906881Y-9963452D02*
X10897357Y-9953929D01*
X10897357Y-9953929D02*
X10887833Y-9934881D01*
X10887833Y-9934881D02*
X10878310Y-9896786D01*
X10878310Y-9896786D02*
X10878310Y-9849167D01*
X10878310Y-9849167D02*
X10887833Y-9811071D01*
X10887833Y-9811071D02*
X10897357Y-9792024D01*
X10897357Y-9792024D02*
X10906881Y-9782500D01*
X10906881Y-9782500D02*
X10925929Y-9772976D01*
X11059262Y-9772976D02*
X11183072Y-9772976D01*
X11183072Y-9772976D02*
X11116405Y-9849167D01*
X11116405Y-9849167D02*
X11144976Y-9849167D01*
X11144976Y-9849167D02*
X11164024Y-9858690D01*
X11164024Y-9858690D02*
X11173548Y-9868214D01*
X11173548Y-9868214D02*
X11183072Y-9887262D01*
X11183072Y-9887262D02*
X11183072Y-9934881D01*
X11183072Y-9934881D02*
X11173548Y-9953929D01*
X11173548Y-9953929D02*
X11164024Y-9963452D01*
X11164024Y-9963452D02*
X11144976Y-9972976D01*
X11144976Y-9972976D02*
X11087833Y-9972976D01*
X11087833Y-9972976D02*
X11068786Y-9963452D01*
X11068786Y-9963452D02*
X11059262Y-9953929D01*
X11306881Y-9772976D02*
X11325929Y-9772976D01*
X11325929Y-9772976D02*
X11344976Y-9782500D01*
X11344976Y-9782500D02*
X11354500Y-9792024D01*
X11354500Y-9792024D02*
X11364024Y-9811071D01*
X11364024Y-9811071D02*
X11373548Y-9849167D01*
X11373548Y-9849167D02*
X11373548Y-9896786D01*
X11373548Y-9896786D02*
X11364024Y-9934881D01*
X11364024Y-9934881D02*
X11354500Y-9953929D01*
X11354500Y-9953929D02*
X11344976Y-9963452D01*
X11344976Y-9963452D02*
X11325929Y-9972976D01*
X11325929Y-9972976D02*
X11306881Y-9972976D01*
X11306881Y-9972976D02*
X11287833Y-9963452D01*
X11287833Y-9963452D02*
X11278310Y-9953929D01*
X11278310Y-9953929D02*
X11268786Y-9934881D01*
X11268786Y-9934881D02*
X11259262Y-9896786D01*
X11259262Y-9896786D02*
X11259262Y-9849167D01*
X11259262Y-9849167D02*
X11268786Y-9811071D01*
X11268786Y-9811071D02*
X11278310Y-9792024D01*
X11278310Y-9792024D02*
X11287833Y-9782500D01*
X11287833Y-9782500D02*
X11306881Y-9772976D01*
X11497357Y-9772976D02*
X11516405Y-9772976D01*
X11516405Y-9772976D02*
X11535452Y-9782500D01*
X11535452Y-9782500D02*
X11544976Y-9792024D01*
X11544976Y-9792024D02*
X11554500Y-9811071D01*
X11554500Y-9811071D02*
X11564024Y-9849167D01*
X11564024Y-9849167D02*
X11564024Y-9896786D01*
X11564024Y-9896786D02*
X11554500Y-9934881D01*
X11554500Y-9934881D02*
X11544976Y-9953929D01*
X11544976Y-9953929D02*
X11535452Y-9963452D01*
X11535452Y-9963452D02*
X11516405Y-9972976D01*
X11516405Y-9972976D02*
X11497357Y-9972976D01*
X11497357Y-9972976D02*
X11478310Y-9963452D01*
X11478310Y-9963452D02*
X11468786Y-9953929D01*
X11468786Y-9953929D02*
X11459262Y-9934881D01*
X11459262Y-9934881D02*
X11449738Y-9896786D01*
X11449738Y-9896786D02*
X11449738Y-9849167D01*
X11449738Y-9849167D02*
X11459262Y-9811071D01*
X11459262Y-9811071D02*
X11468786Y-9792024D01*
X11468786Y-9792024D02*
X11478310Y-9782500D01*
X11478310Y-9782500D02*
X11497357Y-9772976D01*
X11640214Y-9772976D02*
X11640214Y-9811071D01*
X11716405Y-9772976D02*
X11716405Y-9811071D01*
X11979262Y-10049167D02*
X11969738Y-10039643D01*
X11969738Y-10039643D02*
X11950691Y-10011071D01*
X11950691Y-10011071D02*
X11941167Y-9992024D01*
X11941167Y-9992024D02*
X11931643Y-9963452D01*
X11931643Y-9963452D02*
X11922119Y-9915833D01*
X11922119Y-9915833D02*
X11922119Y-9877738D01*
X11922119Y-9877738D02*
X11931643Y-9830119D01*
X11931643Y-9830119D02*
X11941167Y-9801548D01*
X11941167Y-9801548D02*
X11950691Y-9782500D01*
X11950691Y-9782500D02*
X11969738Y-9753929D01*
X11969738Y-9753929D02*
X11979262Y-9744405D01*
X12141167Y-9839643D02*
X12141167Y-9972976D01*
X12093548Y-9763452D02*
X12045929Y-9906310D01*
X12045929Y-9906310D02*
X12169738Y-9906310D01*
X12365929Y-9972976D02*
X12365929Y-9772976D01*
X12451643Y-9972976D02*
X12451643Y-9868214D01*
X12451643Y-9868214D02*
X12442119Y-9849167D01*
X12442119Y-9849167D02*
X12423072Y-9839643D01*
X12423072Y-9839643D02*
X12394500Y-9839643D01*
X12394500Y-9839643D02*
X12375452Y-9849167D01*
X12375452Y-9849167D02*
X12365929Y-9858690D01*
X12575452Y-9972976D02*
X12556405Y-9963452D01*
X12556405Y-9963452D02*
X12546881Y-9953929D01*
X12546881Y-9953929D02*
X12537357Y-9934881D01*
X12537357Y-9934881D02*
X12537357Y-9877738D01*
X12537357Y-9877738D02*
X12546881Y-9858690D01*
X12546881Y-9858690D02*
X12556405Y-9849167D01*
X12556405Y-9849167D02*
X12575452Y-9839643D01*
X12575452Y-9839643D02*
X12604024Y-9839643D01*
X12604024Y-9839643D02*
X12623072Y-9849167D01*
X12623072Y-9849167D02*
X12632595Y-9858690D01*
X12632595Y-9858690D02*
X12642119Y-9877738D01*
X12642119Y-9877738D02*
X12642119Y-9934881D01*
X12642119Y-9934881D02*
X12632595Y-9953929D01*
X12632595Y-9953929D02*
X12623072Y-9963452D01*
X12623072Y-9963452D02*
X12604024Y-9972976D01*
X12604024Y-9972976D02*
X12575452Y-9972976D01*
X12756405Y-9972976D02*
X12737357Y-9963452D01*
X12737357Y-9963452D02*
X12727833Y-9944405D01*
X12727833Y-9944405D02*
X12727833Y-9772976D01*
X12908786Y-9963452D02*
X12889738Y-9972976D01*
X12889738Y-9972976D02*
X12851643Y-9972976D01*
X12851643Y-9972976D02*
X12832595Y-9963452D01*
X12832595Y-9963452D02*
X12823072Y-9944405D01*
X12823072Y-9944405D02*
X12823072Y-9868214D01*
X12823072Y-9868214D02*
X12832595Y-9849167D01*
X12832595Y-9849167D02*
X12851643Y-9839643D01*
X12851643Y-9839643D02*
X12889738Y-9839643D01*
X12889738Y-9839643D02*
X12908786Y-9849167D01*
X12908786Y-9849167D02*
X12918310Y-9868214D01*
X12918310Y-9868214D02*
X12918310Y-9887262D01*
X12918310Y-9887262D02*
X12823072Y-9906310D01*
X12994500Y-9963452D02*
X13013548Y-9972976D01*
X13013548Y-9972976D02*
X13051643Y-9972976D01*
X13051643Y-9972976D02*
X13070691Y-9963452D01*
X13070691Y-9963452D02*
X13080214Y-9944405D01*
X13080214Y-9944405D02*
X13080214Y-9934881D01*
X13080214Y-9934881D02*
X13070691Y-9915833D01*
X13070691Y-9915833D02*
X13051643Y-9906310D01*
X13051643Y-9906310D02*
X13023072Y-9906310D01*
X13023072Y-9906310D02*
X13004024Y-9896786D01*
X13004024Y-9896786D02*
X12994500Y-9877738D01*
X12994500Y-9877738D02*
X12994500Y-9868214D01*
X12994500Y-9868214D02*
X13004024Y-9849167D01*
X13004024Y-9849167D02*
X13023072Y-9839643D01*
X13023072Y-9839643D02*
X13051643Y-9839643D01*
X13051643Y-9839643D02*
X13070691Y-9849167D01*
X13146881Y-10049167D02*
X13156405Y-10039643D01*
X13156405Y-10039643D02*
X13175453Y-10011071D01*
X13175453Y-10011071D02*
X13184976Y-9992024D01*
X13184976Y-9992024D02*
X13194500Y-9963452D01*
X13194500Y-9963452D02*
X13204024Y-9915833D01*
X13204024Y-9915833D02*
X13204024Y-9877738D01*
X13204024Y-9877738D02*
X13194500Y-9830119D01*
X13194500Y-9830119D02*
X13184976Y-9801548D01*
X13184976Y-9801548D02*
X13175453Y-9782500D01*
X13175453Y-9782500D02*
X13156405Y-9753929D01*
X13156405Y-9753929D02*
X13146881Y-9744405D01*
D16*
X8464500Y-10213500D02*
X8514500Y-10163500D01*
X8464500Y-10113500D01*
X8414500Y-10163500D01*
X8464500Y-10213500D01*
D11*
X8866881Y-10236976D02*
X8752595Y-10236976D01*
X8809738Y-10236976D02*
X8809738Y-10036976D01*
X8809738Y-10036976D02*
X8790690Y-10065548D01*
X8790690Y-10065548D02*
X8771643Y-10084595D01*
X8771643Y-10084595D02*
X8752595Y-10094119D01*
X8952595Y-10217929D02*
X8962119Y-10227452D01*
X8962119Y-10227452D02*
X8952595Y-10236976D01*
X8952595Y-10236976D02*
X8943071Y-10227452D01*
X8943071Y-10227452D02*
X8952595Y-10217929D01*
X8952595Y-10217929D02*
X8952595Y-10236976D01*
X9085929Y-10036976D02*
X9104976Y-10036976D01*
X9104976Y-10036976D02*
X9124024Y-10046500D01*
X9124024Y-10046500D02*
X9133548Y-10056024D01*
X9133548Y-10056024D02*
X9143071Y-10075071D01*
X9143071Y-10075071D02*
X9152595Y-10113167D01*
X9152595Y-10113167D02*
X9152595Y-10160786D01*
X9152595Y-10160786D02*
X9143071Y-10198881D01*
X9143071Y-10198881D02*
X9133548Y-10217929D01*
X9133548Y-10217929D02*
X9124024Y-10227452D01*
X9124024Y-10227452D02*
X9104976Y-10236976D01*
X9104976Y-10236976D02*
X9085929Y-10236976D01*
X9085929Y-10236976D02*
X9066881Y-10227452D01*
X9066881Y-10227452D02*
X9057357Y-10217929D01*
X9057357Y-10217929D02*
X9047833Y-10198881D01*
X9047833Y-10198881D02*
X9038310Y-10160786D01*
X9038310Y-10160786D02*
X9038310Y-10113167D01*
X9038310Y-10113167D02*
X9047833Y-10075071D01*
X9047833Y-10075071D02*
X9057357Y-10056024D01*
X9057357Y-10056024D02*
X9066881Y-10046500D01*
X9066881Y-10046500D02*
X9085929Y-10036976D01*
X9276405Y-10036976D02*
X9295452Y-10036976D01*
X9295452Y-10036976D02*
X9314500Y-10046500D01*
X9314500Y-10046500D02*
X9324024Y-10056024D01*
X9324024Y-10056024D02*
X9333548Y-10075071D01*
X9333548Y-10075071D02*
X9343071Y-10113167D01*
X9343071Y-10113167D02*
X9343071Y-10160786D01*
X9343071Y-10160786D02*
X9333548Y-10198881D01*
X9333548Y-10198881D02*
X9324024Y-10217929D01*
X9324024Y-10217929D02*
X9314500Y-10227452D01*
X9314500Y-10227452D02*
X9295452Y-10236976D01*
X9295452Y-10236976D02*
X9276405Y-10236976D01*
X9276405Y-10236976D02*
X9257357Y-10227452D01*
X9257357Y-10227452D02*
X9247833Y-10217929D01*
X9247833Y-10217929D02*
X9238310Y-10198881D01*
X9238310Y-10198881D02*
X9228786Y-10160786D01*
X9228786Y-10160786D02*
X9228786Y-10113167D01*
X9228786Y-10113167D02*
X9238310Y-10075071D01*
X9238310Y-10075071D02*
X9247833Y-10056024D01*
X9247833Y-10056024D02*
X9257357Y-10046500D01*
X9257357Y-10046500D02*
X9276405Y-10036976D01*
X9466881Y-10036976D02*
X9485929Y-10036976D01*
X9485929Y-10036976D02*
X9504976Y-10046500D01*
X9504976Y-10046500D02*
X9514500Y-10056024D01*
X9514500Y-10056024D02*
X9524024Y-10075071D01*
X9524024Y-10075071D02*
X9533548Y-10113167D01*
X9533548Y-10113167D02*
X9533548Y-10160786D01*
X9533548Y-10160786D02*
X9524024Y-10198881D01*
X9524024Y-10198881D02*
X9514500Y-10217929D01*
X9514500Y-10217929D02*
X9504976Y-10227452D01*
X9504976Y-10227452D02*
X9485929Y-10236976D01*
X9485929Y-10236976D02*
X9466881Y-10236976D01*
X9466881Y-10236976D02*
X9447833Y-10227452D01*
X9447833Y-10227452D02*
X9438310Y-10217929D01*
X9438310Y-10217929D02*
X9428786Y-10198881D01*
X9428786Y-10198881D02*
X9419262Y-10160786D01*
X9419262Y-10160786D02*
X9419262Y-10113167D01*
X9419262Y-10113167D02*
X9428786Y-10075071D01*
X9428786Y-10075071D02*
X9438310Y-10056024D01*
X9438310Y-10056024D02*
X9447833Y-10046500D01*
X9447833Y-10046500D02*
X9466881Y-10036976D01*
X9619262Y-10236976D02*
X9619262Y-10103643D01*
X9619262Y-10122690D02*
X9628786Y-10113167D01*
X9628786Y-10113167D02*
X9647833Y-10103643D01*
X9647833Y-10103643D02*
X9676405Y-10103643D01*
X9676405Y-10103643D02*
X9695452Y-10113167D01*
X9695452Y-10113167D02*
X9704976Y-10132214D01*
X9704976Y-10132214D02*
X9704976Y-10236976D01*
X9704976Y-10132214D02*
X9714500Y-10113167D01*
X9714500Y-10113167D02*
X9733548Y-10103643D01*
X9733548Y-10103643D02*
X9762119Y-10103643D01*
X9762119Y-10103643D02*
X9781167Y-10113167D01*
X9781167Y-10113167D02*
X9790691Y-10132214D01*
X9790691Y-10132214D02*
X9790691Y-10236976D01*
X9885929Y-10236976D02*
X9885929Y-10103643D01*
X9885929Y-10122690D02*
X9895452Y-10113167D01*
X9895452Y-10113167D02*
X9914500Y-10103643D01*
X9914500Y-10103643D02*
X9943072Y-10103643D01*
X9943072Y-10103643D02*
X9962119Y-10113167D01*
X9962119Y-10113167D02*
X9971643Y-10132214D01*
X9971643Y-10132214D02*
X9971643Y-10236976D01*
X9971643Y-10132214D02*
X9981167Y-10113167D01*
X9981167Y-10113167D02*
X10000214Y-10103643D01*
X10000214Y-10103643D02*
X10028786Y-10103643D01*
X10028786Y-10103643D02*
X10047833Y-10113167D01*
X10047833Y-10113167D02*
X10057357Y-10132214D01*
X10057357Y-10132214D02*
X10057357Y-10236976D01*
X10415452Y-10027452D02*
X10244024Y-10284595D01*
X10640214Y-10036976D02*
X10659262Y-10036976D01*
X10659262Y-10036976D02*
X10678310Y-10046500D01*
X10678310Y-10046500D02*
X10687833Y-10056024D01*
X10687833Y-10056024D02*
X10697357Y-10075071D01*
X10697357Y-10075071D02*
X10706881Y-10113167D01*
X10706881Y-10113167D02*
X10706881Y-10160786D01*
X10706881Y-10160786D02*
X10697357Y-10198881D01*
X10697357Y-10198881D02*
X10687833Y-10217929D01*
X10687833Y-10217929D02*
X10678310Y-10227452D01*
X10678310Y-10227452D02*
X10659262Y-10236976D01*
X10659262Y-10236976D02*
X10640214Y-10236976D01*
X10640214Y-10236976D02*
X10621167Y-10227452D01*
X10621167Y-10227452D02*
X10611643Y-10217929D01*
X10611643Y-10217929D02*
X10602119Y-10198881D01*
X10602119Y-10198881D02*
X10592595Y-10160786D01*
X10592595Y-10160786D02*
X10592595Y-10113167D01*
X10592595Y-10113167D02*
X10602119Y-10075071D01*
X10602119Y-10075071D02*
X10611643Y-10056024D01*
X10611643Y-10056024D02*
X10621167Y-10046500D01*
X10621167Y-10046500D02*
X10640214Y-10036976D01*
X10792595Y-10217929D02*
X10802119Y-10227452D01*
X10802119Y-10227452D02*
X10792595Y-10236976D01*
X10792595Y-10236976D02*
X10783072Y-10227452D01*
X10783072Y-10227452D02*
X10792595Y-10217929D01*
X10792595Y-10217929D02*
X10792595Y-10236976D01*
X10925929Y-10036976D02*
X10944976Y-10036976D01*
X10944976Y-10036976D02*
X10964024Y-10046500D01*
X10964024Y-10046500D02*
X10973548Y-10056024D01*
X10973548Y-10056024D02*
X10983072Y-10075071D01*
X10983072Y-10075071D02*
X10992595Y-10113167D01*
X10992595Y-10113167D02*
X10992595Y-10160786D01*
X10992595Y-10160786D02*
X10983072Y-10198881D01*
X10983072Y-10198881D02*
X10973548Y-10217929D01*
X10973548Y-10217929D02*
X10964024Y-10227452D01*
X10964024Y-10227452D02*
X10944976Y-10236976D01*
X10944976Y-10236976D02*
X10925929Y-10236976D01*
X10925929Y-10236976D02*
X10906881Y-10227452D01*
X10906881Y-10227452D02*
X10897357Y-10217929D01*
X10897357Y-10217929D02*
X10887833Y-10198881D01*
X10887833Y-10198881D02*
X10878310Y-10160786D01*
X10878310Y-10160786D02*
X10878310Y-10113167D01*
X10878310Y-10113167D02*
X10887833Y-10075071D01*
X10887833Y-10075071D02*
X10897357Y-10056024D01*
X10897357Y-10056024D02*
X10906881Y-10046500D01*
X10906881Y-10046500D02*
X10925929Y-10036976D01*
X11059262Y-10036976D02*
X11183072Y-10036976D01*
X11183072Y-10036976D02*
X11116405Y-10113167D01*
X11116405Y-10113167D02*
X11144976Y-10113167D01*
X11144976Y-10113167D02*
X11164024Y-10122690D01*
X11164024Y-10122690D02*
X11173548Y-10132214D01*
X11173548Y-10132214D02*
X11183072Y-10151262D01*
X11183072Y-10151262D02*
X11183072Y-10198881D01*
X11183072Y-10198881D02*
X11173548Y-10217929D01*
X11173548Y-10217929D02*
X11164024Y-10227452D01*
X11164024Y-10227452D02*
X11144976Y-10236976D01*
X11144976Y-10236976D02*
X11087833Y-10236976D01*
X11087833Y-10236976D02*
X11068786Y-10227452D01*
X11068786Y-10227452D02*
X11059262Y-10217929D01*
X11278310Y-10236976D02*
X11316405Y-10236976D01*
X11316405Y-10236976D02*
X11335452Y-10227452D01*
X11335452Y-10227452D02*
X11344976Y-10217929D01*
X11344976Y-10217929D02*
X11364024Y-10189357D01*
X11364024Y-10189357D02*
X11373548Y-10151262D01*
X11373548Y-10151262D02*
X11373548Y-10075071D01*
X11373548Y-10075071D02*
X11364024Y-10056024D01*
X11364024Y-10056024D02*
X11354500Y-10046500D01*
X11354500Y-10046500D02*
X11335452Y-10036976D01*
X11335452Y-10036976D02*
X11297357Y-10036976D01*
X11297357Y-10036976D02*
X11278310Y-10046500D01*
X11278310Y-10046500D02*
X11268786Y-10056024D01*
X11268786Y-10056024D02*
X11259262Y-10075071D01*
X11259262Y-10075071D02*
X11259262Y-10122690D01*
X11259262Y-10122690D02*
X11268786Y-10141738D01*
X11268786Y-10141738D02*
X11278310Y-10151262D01*
X11278310Y-10151262D02*
X11297357Y-10160786D01*
X11297357Y-10160786D02*
X11335452Y-10160786D01*
X11335452Y-10160786D02*
X11354500Y-10151262D01*
X11354500Y-10151262D02*
X11364024Y-10141738D01*
X11364024Y-10141738D02*
X11373548Y-10122690D01*
X11544976Y-10103643D02*
X11544976Y-10236976D01*
X11497357Y-10027452D02*
X11449738Y-10170310D01*
X11449738Y-10170310D02*
X11573548Y-10170310D01*
X11640214Y-10036976D02*
X11640214Y-10075071D01*
X11716405Y-10036976D02*
X11716405Y-10075071D01*
X11979262Y-10313167D02*
X11969738Y-10303643D01*
X11969738Y-10303643D02*
X11950691Y-10275071D01*
X11950691Y-10275071D02*
X11941167Y-10256024D01*
X11941167Y-10256024D02*
X11931643Y-10227452D01*
X11931643Y-10227452D02*
X11922119Y-10179833D01*
X11922119Y-10179833D02*
X11922119Y-10141738D01*
X11922119Y-10141738D02*
X11931643Y-10094119D01*
X11931643Y-10094119D02*
X11941167Y-10065548D01*
X11941167Y-10065548D02*
X11950691Y-10046500D01*
X11950691Y-10046500D02*
X11969738Y-10017929D01*
X11969738Y-10017929D02*
X11979262Y-10008405D01*
X12160214Y-10236976D02*
X12045929Y-10236976D01*
X12103071Y-10236976D02*
X12103071Y-10036976D01*
X12103071Y-10036976D02*
X12084024Y-10065548D01*
X12084024Y-10065548D02*
X12064976Y-10084595D01*
X12064976Y-10084595D02*
X12045929Y-10094119D01*
X12236405Y-10056024D02*
X12245929Y-10046500D01*
X12245929Y-10046500D02*
X12264976Y-10036976D01*
X12264976Y-10036976D02*
X12312595Y-10036976D01*
X12312595Y-10036976D02*
X12331643Y-10046500D01*
X12331643Y-10046500D02*
X12341167Y-10056024D01*
X12341167Y-10056024D02*
X12350691Y-10075071D01*
X12350691Y-10075071D02*
X12350691Y-10094119D01*
X12350691Y-10094119D02*
X12341167Y-10122690D01*
X12341167Y-10122690D02*
X12226881Y-10236976D01*
X12226881Y-10236976D02*
X12350691Y-10236976D01*
X12556405Y-10236976D02*
X12556405Y-10036976D01*
X12642119Y-10236976D02*
X12642119Y-10132214D01*
X12642119Y-10132214D02*
X12632595Y-10113167D01*
X12632595Y-10113167D02*
X12613548Y-10103643D01*
X12613548Y-10103643D02*
X12584976Y-10103643D01*
X12584976Y-10103643D02*
X12565929Y-10113167D01*
X12565929Y-10113167D02*
X12556405Y-10122690D01*
X12765929Y-10236976D02*
X12746881Y-10227452D01*
X12746881Y-10227452D02*
X12737357Y-10217929D01*
X12737357Y-10217929D02*
X12727833Y-10198881D01*
X12727833Y-10198881D02*
X12727833Y-10141738D01*
X12727833Y-10141738D02*
X12737357Y-10122690D01*
X12737357Y-10122690D02*
X12746881Y-10113167D01*
X12746881Y-10113167D02*
X12765929Y-10103643D01*
X12765929Y-10103643D02*
X12794500Y-10103643D01*
X12794500Y-10103643D02*
X12813548Y-10113167D01*
X12813548Y-10113167D02*
X12823072Y-10122690D01*
X12823072Y-10122690D02*
X12832595Y-10141738D01*
X12832595Y-10141738D02*
X12832595Y-10198881D01*
X12832595Y-10198881D02*
X12823072Y-10217929D01*
X12823072Y-10217929D02*
X12813548Y-10227452D01*
X12813548Y-10227452D02*
X12794500Y-10236976D01*
X12794500Y-10236976D02*
X12765929Y-10236976D01*
X12946881Y-10236976D02*
X12927833Y-10227452D01*
X12927833Y-10227452D02*
X12918310Y-10208405D01*
X12918310Y-10208405D02*
X12918310Y-10036976D01*
X13099262Y-10227452D02*
X13080214Y-10236976D01*
X13080214Y-10236976D02*
X13042119Y-10236976D01*
X13042119Y-10236976D02*
X13023072Y-10227452D01*
X13023072Y-10227452D02*
X13013548Y-10208405D01*
X13013548Y-10208405D02*
X13013548Y-10132214D01*
X13013548Y-10132214D02*
X13023072Y-10113167D01*
X13023072Y-10113167D02*
X13042119Y-10103643D01*
X13042119Y-10103643D02*
X13080214Y-10103643D01*
X13080214Y-10103643D02*
X13099262Y-10113167D01*
X13099262Y-10113167D02*
X13108786Y-10132214D01*
X13108786Y-10132214D02*
X13108786Y-10151262D01*
X13108786Y-10151262D02*
X13013548Y-10170310D01*
X13184976Y-10227452D02*
X13204024Y-10236976D01*
X13204024Y-10236976D02*
X13242119Y-10236976D01*
X13242119Y-10236976D02*
X13261167Y-10227452D01*
X13261167Y-10227452D02*
X13270691Y-10208405D01*
X13270691Y-10208405D02*
X13270691Y-10198881D01*
X13270691Y-10198881D02*
X13261167Y-10179833D01*
X13261167Y-10179833D02*
X13242119Y-10170310D01*
X13242119Y-10170310D02*
X13213548Y-10170310D01*
X13213548Y-10170310D02*
X13194500Y-10160786D01*
X13194500Y-10160786D02*
X13184976Y-10141738D01*
X13184976Y-10141738D02*
X13184976Y-10132214D01*
X13184976Y-10132214D02*
X13194500Y-10113167D01*
X13194500Y-10113167D02*
X13213548Y-10103643D01*
X13213548Y-10103643D02*
X13242119Y-10103643D01*
X13242119Y-10103643D02*
X13261167Y-10113167D01*
X13337357Y-10313167D02*
X13346881Y-10303643D01*
X13346881Y-10303643D02*
X13365929Y-10275071D01*
X13365929Y-10275071D02*
X13375453Y-10256024D01*
X13375453Y-10256024D02*
X13384976Y-10227452D01*
X13384976Y-10227452D02*
X13394500Y-10179833D01*
X13394500Y-10179833D02*
X13394500Y-10141738D01*
X13394500Y-10141738D02*
X13384976Y-10094119D01*
X13384976Y-10094119D02*
X13375453Y-10065548D01*
X13375453Y-10065548D02*
X13365929Y-10046500D01*
X13365929Y-10046500D02*
X13346881Y-10017929D01*
X13346881Y-10017929D02*
X13337357Y-10008405D01*
D17*
X8404500Y-10372500D02*
X8514500Y-10482500D01*
X8514500Y-10372500D02*
X8404500Y-10482500D01*
X8514500Y-10427500D02*
G75*
G03*
X8514500Y-10427500I-55000J0D01*
G01*
D11*
X8866881Y-10500976D02*
X8752595Y-10500976D01*
X8809738Y-10500976D02*
X8809738Y-10300976D01*
X8809738Y-10300976D02*
X8790690Y-10329548D01*
X8790690Y-10329548D02*
X8771643Y-10348595D01*
X8771643Y-10348595D02*
X8752595Y-10358119D01*
X8952595Y-10481929D02*
X8962119Y-10491452D01*
X8962119Y-10491452D02*
X8952595Y-10500976D01*
X8952595Y-10500976D02*
X8943071Y-10491452D01*
X8943071Y-10491452D02*
X8952595Y-10481929D01*
X8952595Y-10481929D02*
X8952595Y-10500976D01*
X9152595Y-10500976D02*
X9038310Y-10500976D01*
X9095452Y-10500976D02*
X9095452Y-10300976D01*
X9095452Y-10300976D02*
X9076405Y-10329548D01*
X9076405Y-10329548D02*
X9057357Y-10348595D01*
X9057357Y-10348595D02*
X9038310Y-10358119D01*
X9276405Y-10300976D02*
X9295452Y-10300976D01*
X9295452Y-10300976D02*
X9314500Y-10310500D01*
X9314500Y-10310500D02*
X9324024Y-10320024D01*
X9324024Y-10320024D02*
X9333548Y-10339071D01*
X9333548Y-10339071D02*
X9343071Y-10377167D01*
X9343071Y-10377167D02*
X9343071Y-10424786D01*
X9343071Y-10424786D02*
X9333548Y-10462881D01*
X9333548Y-10462881D02*
X9324024Y-10481929D01*
X9324024Y-10481929D02*
X9314500Y-10491452D01*
X9314500Y-10491452D02*
X9295452Y-10500976D01*
X9295452Y-10500976D02*
X9276405Y-10500976D01*
X9276405Y-10500976D02*
X9257357Y-10491452D01*
X9257357Y-10491452D02*
X9247833Y-10481929D01*
X9247833Y-10481929D02*
X9238310Y-10462881D01*
X9238310Y-10462881D02*
X9228786Y-10424786D01*
X9228786Y-10424786D02*
X9228786Y-10377167D01*
X9228786Y-10377167D02*
X9238310Y-10339071D01*
X9238310Y-10339071D02*
X9247833Y-10320024D01*
X9247833Y-10320024D02*
X9257357Y-10310500D01*
X9257357Y-10310500D02*
X9276405Y-10300976D01*
X9466881Y-10300976D02*
X9485929Y-10300976D01*
X9485929Y-10300976D02*
X9504976Y-10310500D01*
X9504976Y-10310500D02*
X9514500Y-10320024D01*
X9514500Y-10320024D02*
X9524024Y-10339071D01*
X9524024Y-10339071D02*
X9533548Y-10377167D01*
X9533548Y-10377167D02*
X9533548Y-10424786D01*
X9533548Y-10424786D02*
X9524024Y-10462881D01*
X9524024Y-10462881D02*
X9514500Y-10481929D01*
X9514500Y-10481929D02*
X9504976Y-10491452D01*
X9504976Y-10491452D02*
X9485929Y-10500976D01*
X9485929Y-10500976D02*
X9466881Y-10500976D01*
X9466881Y-10500976D02*
X9447833Y-10491452D01*
X9447833Y-10491452D02*
X9438310Y-10481929D01*
X9438310Y-10481929D02*
X9428786Y-10462881D01*
X9428786Y-10462881D02*
X9419262Y-10424786D01*
X9419262Y-10424786D02*
X9419262Y-10377167D01*
X9419262Y-10377167D02*
X9428786Y-10339071D01*
X9428786Y-10339071D02*
X9438310Y-10320024D01*
X9438310Y-10320024D02*
X9447833Y-10310500D01*
X9447833Y-10310500D02*
X9466881Y-10300976D01*
X9619262Y-10500976D02*
X9619262Y-10367643D01*
X9619262Y-10386690D02*
X9628786Y-10377167D01*
X9628786Y-10377167D02*
X9647833Y-10367643D01*
X9647833Y-10367643D02*
X9676405Y-10367643D01*
X9676405Y-10367643D02*
X9695452Y-10377167D01*
X9695452Y-10377167D02*
X9704976Y-10396214D01*
X9704976Y-10396214D02*
X9704976Y-10500976D01*
X9704976Y-10396214D02*
X9714500Y-10377167D01*
X9714500Y-10377167D02*
X9733548Y-10367643D01*
X9733548Y-10367643D02*
X9762119Y-10367643D01*
X9762119Y-10367643D02*
X9781167Y-10377167D01*
X9781167Y-10377167D02*
X9790691Y-10396214D01*
X9790691Y-10396214D02*
X9790691Y-10500976D01*
X9885929Y-10500976D02*
X9885929Y-10367643D01*
X9885929Y-10386690D02*
X9895452Y-10377167D01*
X9895452Y-10377167D02*
X9914500Y-10367643D01*
X9914500Y-10367643D02*
X9943072Y-10367643D01*
X9943072Y-10367643D02*
X9962119Y-10377167D01*
X9962119Y-10377167D02*
X9971643Y-10396214D01*
X9971643Y-10396214D02*
X9971643Y-10500976D01*
X9971643Y-10396214D02*
X9981167Y-10377167D01*
X9981167Y-10377167D02*
X10000214Y-10367643D01*
X10000214Y-10367643D02*
X10028786Y-10367643D01*
X10028786Y-10367643D02*
X10047833Y-10377167D01*
X10047833Y-10377167D02*
X10057357Y-10396214D01*
X10057357Y-10396214D02*
X10057357Y-10500976D01*
X10415452Y-10291452D02*
X10244024Y-10548595D01*
X10640214Y-10300976D02*
X10659262Y-10300976D01*
X10659262Y-10300976D02*
X10678310Y-10310500D01*
X10678310Y-10310500D02*
X10687833Y-10320024D01*
X10687833Y-10320024D02*
X10697357Y-10339071D01*
X10697357Y-10339071D02*
X10706881Y-10377167D01*
X10706881Y-10377167D02*
X10706881Y-10424786D01*
X10706881Y-10424786D02*
X10697357Y-10462881D01*
X10697357Y-10462881D02*
X10687833Y-10481929D01*
X10687833Y-10481929D02*
X10678310Y-10491452D01*
X10678310Y-10491452D02*
X10659262Y-10500976D01*
X10659262Y-10500976D02*
X10640214Y-10500976D01*
X10640214Y-10500976D02*
X10621167Y-10491452D01*
X10621167Y-10491452D02*
X10611643Y-10481929D01*
X10611643Y-10481929D02*
X10602119Y-10462881D01*
X10602119Y-10462881D02*
X10592595Y-10424786D01*
X10592595Y-10424786D02*
X10592595Y-10377167D01*
X10592595Y-10377167D02*
X10602119Y-10339071D01*
X10602119Y-10339071D02*
X10611643Y-10320024D01*
X10611643Y-10320024D02*
X10621167Y-10310500D01*
X10621167Y-10310500D02*
X10640214Y-10300976D01*
X10792595Y-10481929D02*
X10802119Y-10491452D01*
X10802119Y-10491452D02*
X10792595Y-10500976D01*
X10792595Y-10500976D02*
X10783072Y-10491452D01*
X10783072Y-10491452D02*
X10792595Y-10481929D01*
X10792595Y-10481929D02*
X10792595Y-10500976D01*
X10925929Y-10300976D02*
X10944976Y-10300976D01*
X10944976Y-10300976D02*
X10964024Y-10310500D01*
X10964024Y-10310500D02*
X10973548Y-10320024D01*
X10973548Y-10320024D02*
X10983072Y-10339071D01*
X10983072Y-10339071D02*
X10992595Y-10377167D01*
X10992595Y-10377167D02*
X10992595Y-10424786D01*
X10992595Y-10424786D02*
X10983072Y-10462881D01*
X10983072Y-10462881D02*
X10973548Y-10481929D01*
X10973548Y-10481929D02*
X10964024Y-10491452D01*
X10964024Y-10491452D02*
X10944976Y-10500976D01*
X10944976Y-10500976D02*
X10925929Y-10500976D01*
X10925929Y-10500976D02*
X10906881Y-10491452D01*
X10906881Y-10491452D02*
X10897357Y-10481929D01*
X10897357Y-10481929D02*
X10887833Y-10462881D01*
X10887833Y-10462881D02*
X10878310Y-10424786D01*
X10878310Y-10424786D02*
X10878310Y-10377167D01*
X10878310Y-10377167D02*
X10887833Y-10339071D01*
X10887833Y-10339071D02*
X10897357Y-10320024D01*
X10897357Y-10320024D02*
X10906881Y-10310500D01*
X10906881Y-10310500D02*
X10925929Y-10300976D01*
X11164024Y-10367643D02*
X11164024Y-10500976D01*
X11116405Y-10291452D02*
X11068786Y-10434310D01*
X11068786Y-10434310D02*
X11192595Y-10434310D01*
X11249738Y-10300976D02*
X11373548Y-10300976D01*
X11373548Y-10300976D02*
X11306881Y-10377167D01*
X11306881Y-10377167D02*
X11335452Y-10377167D01*
X11335452Y-10377167D02*
X11354500Y-10386690D01*
X11354500Y-10386690D02*
X11364024Y-10396214D01*
X11364024Y-10396214D02*
X11373548Y-10415262D01*
X11373548Y-10415262D02*
X11373548Y-10462881D01*
X11373548Y-10462881D02*
X11364024Y-10481929D01*
X11364024Y-10481929D02*
X11354500Y-10491452D01*
X11354500Y-10491452D02*
X11335452Y-10500976D01*
X11335452Y-10500976D02*
X11278310Y-10500976D01*
X11278310Y-10500976D02*
X11259262Y-10491452D01*
X11259262Y-10491452D02*
X11249738Y-10481929D01*
X11440214Y-10300976D02*
X11564024Y-10300976D01*
X11564024Y-10300976D02*
X11497357Y-10377167D01*
X11497357Y-10377167D02*
X11525929Y-10377167D01*
X11525929Y-10377167D02*
X11544976Y-10386690D01*
X11544976Y-10386690D02*
X11554500Y-10396214D01*
X11554500Y-10396214D02*
X11564024Y-10415262D01*
X11564024Y-10415262D02*
X11564024Y-10462881D01*
X11564024Y-10462881D02*
X11554500Y-10481929D01*
X11554500Y-10481929D02*
X11544976Y-10491452D01*
X11544976Y-10491452D02*
X11525929Y-10500976D01*
X11525929Y-10500976D02*
X11468786Y-10500976D01*
X11468786Y-10500976D02*
X11449738Y-10491452D01*
X11449738Y-10491452D02*
X11440214Y-10481929D01*
X11640214Y-10300976D02*
X11640214Y-10339071D01*
X11716405Y-10300976D02*
X11716405Y-10339071D01*
X11979262Y-10577167D02*
X11969738Y-10567643D01*
X11969738Y-10567643D02*
X11950691Y-10539071D01*
X11950691Y-10539071D02*
X11941167Y-10520024D01*
X11941167Y-10520024D02*
X11931643Y-10491452D01*
X11931643Y-10491452D02*
X11922119Y-10443833D01*
X11922119Y-10443833D02*
X11922119Y-10405738D01*
X11922119Y-10405738D02*
X11931643Y-10358119D01*
X11931643Y-10358119D02*
X11941167Y-10329548D01*
X11941167Y-10329548D02*
X11950691Y-10310500D01*
X11950691Y-10310500D02*
X11969738Y-10281929D01*
X11969738Y-10281929D02*
X11979262Y-10272405D01*
X12064976Y-10500976D02*
X12103071Y-10500976D01*
X12103071Y-10500976D02*
X12122119Y-10491452D01*
X12122119Y-10491452D02*
X12131643Y-10481929D01*
X12131643Y-10481929D02*
X12150691Y-10453357D01*
X12150691Y-10453357D02*
X12160214Y-10415262D01*
X12160214Y-10415262D02*
X12160214Y-10339071D01*
X12160214Y-10339071D02*
X12150691Y-10320024D01*
X12150691Y-10320024D02*
X12141167Y-10310500D01*
X12141167Y-10310500D02*
X12122119Y-10300976D01*
X12122119Y-10300976D02*
X12084024Y-10300976D01*
X12084024Y-10300976D02*
X12064976Y-10310500D01*
X12064976Y-10310500D02*
X12055452Y-10320024D01*
X12055452Y-10320024D02*
X12045929Y-10339071D01*
X12045929Y-10339071D02*
X12045929Y-10386690D01*
X12045929Y-10386690D02*
X12055452Y-10405738D01*
X12055452Y-10405738D02*
X12064976Y-10415262D01*
X12064976Y-10415262D02*
X12084024Y-10424786D01*
X12084024Y-10424786D02*
X12122119Y-10424786D01*
X12122119Y-10424786D02*
X12141167Y-10415262D01*
X12141167Y-10415262D02*
X12150691Y-10405738D01*
X12150691Y-10405738D02*
X12160214Y-10386690D01*
X12365929Y-10500976D02*
X12365929Y-10300976D01*
X12451643Y-10500976D02*
X12451643Y-10396214D01*
X12451643Y-10396214D02*
X12442119Y-10377167D01*
X12442119Y-10377167D02*
X12423072Y-10367643D01*
X12423072Y-10367643D02*
X12394500Y-10367643D01*
X12394500Y-10367643D02*
X12375452Y-10377167D01*
X12375452Y-10377167D02*
X12365929Y-10386690D01*
X12575452Y-10500976D02*
X12556405Y-10491452D01*
X12556405Y-10491452D02*
X12546881Y-10481929D01*
X12546881Y-10481929D02*
X12537357Y-10462881D01*
X12537357Y-10462881D02*
X12537357Y-10405738D01*
X12537357Y-10405738D02*
X12546881Y-10386690D01*
X12546881Y-10386690D02*
X12556405Y-10377167D01*
X12556405Y-10377167D02*
X12575452Y-10367643D01*
X12575452Y-10367643D02*
X12604024Y-10367643D01*
X12604024Y-10367643D02*
X12623072Y-10377167D01*
X12623072Y-10377167D02*
X12632595Y-10386690D01*
X12632595Y-10386690D02*
X12642119Y-10405738D01*
X12642119Y-10405738D02*
X12642119Y-10462881D01*
X12642119Y-10462881D02*
X12632595Y-10481929D01*
X12632595Y-10481929D02*
X12623072Y-10491452D01*
X12623072Y-10491452D02*
X12604024Y-10500976D01*
X12604024Y-10500976D02*
X12575452Y-10500976D01*
X12756405Y-10500976D02*
X12737357Y-10491452D01*
X12737357Y-10491452D02*
X12727833Y-10472405D01*
X12727833Y-10472405D02*
X12727833Y-10300976D01*
X12908786Y-10491452D02*
X12889738Y-10500976D01*
X12889738Y-10500976D02*
X12851643Y-10500976D01*
X12851643Y-10500976D02*
X12832595Y-10491452D01*
X12832595Y-10491452D02*
X12823072Y-10472405D01*
X12823072Y-10472405D02*
X12823072Y-10396214D01*
X12823072Y-10396214D02*
X12832595Y-10377167D01*
X12832595Y-10377167D02*
X12851643Y-10367643D01*
X12851643Y-10367643D02*
X12889738Y-10367643D01*
X12889738Y-10367643D02*
X12908786Y-10377167D01*
X12908786Y-10377167D02*
X12918310Y-10396214D01*
X12918310Y-10396214D02*
X12918310Y-10415262D01*
X12918310Y-10415262D02*
X12823072Y-10434310D01*
X12994500Y-10491452D02*
X13013548Y-10500976D01*
X13013548Y-10500976D02*
X13051643Y-10500976D01*
X13051643Y-10500976D02*
X13070691Y-10491452D01*
X13070691Y-10491452D02*
X13080214Y-10472405D01*
X13080214Y-10472405D02*
X13080214Y-10462881D01*
X13080214Y-10462881D02*
X13070691Y-10443833D01*
X13070691Y-10443833D02*
X13051643Y-10434310D01*
X13051643Y-10434310D02*
X13023072Y-10434310D01*
X13023072Y-10434310D02*
X13004024Y-10424786D01*
X13004024Y-10424786D02*
X12994500Y-10405738D01*
X12994500Y-10405738D02*
X12994500Y-10396214D01*
X12994500Y-10396214D02*
X13004024Y-10377167D01*
X13004024Y-10377167D02*
X13023072Y-10367643D01*
X13023072Y-10367643D02*
X13051643Y-10367643D01*
X13051643Y-10367643D02*
X13070691Y-10377167D01*
X13146881Y-10577167D02*
X13156405Y-10567643D01*
X13156405Y-10567643D02*
X13175453Y-10539071D01*
X13175453Y-10539071D02*
X13184976Y-10520024D01*
X13184976Y-10520024D02*
X13194500Y-10491452D01*
X13194500Y-10491452D02*
X13204024Y-10443833D01*
X13204024Y-10443833D02*
X13204024Y-10405738D01*
X13204024Y-10405738D02*
X13194500Y-10358119D01*
X13194500Y-10358119D02*
X13184976Y-10329548D01*
X13184976Y-10329548D02*
X13175453Y-10310500D01*
X13175453Y-10310500D02*
X13156405Y-10281929D01*
X13156405Y-10281929D02*
X13146881Y-10272405D01*
X8314500Y-10591500D02*
X8514500Y-10791500D01*
X8514500Y-10591500D02*
X8314500Y-10791500D01*
X8414500Y-10591500D02*
X8414500Y-10791500D01*
X8314500Y-10691500D02*
X8514500Y-10691500D01*
X8752595Y-10584024D02*
X8762119Y-10574500D01*
X8762119Y-10574500D02*
X8781167Y-10564976D01*
X8781167Y-10564976D02*
X8828786Y-10564976D01*
X8828786Y-10564976D02*
X8847833Y-10574500D01*
X8847833Y-10574500D02*
X8857357Y-10584024D01*
X8857357Y-10584024D02*
X8866881Y-10603071D01*
X8866881Y-10603071D02*
X8866881Y-10622119D01*
X8866881Y-10622119D02*
X8857357Y-10650690D01*
X8857357Y-10650690D02*
X8743071Y-10764976D01*
X8743071Y-10764976D02*
X8866881Y-10764976D01*
X8952595Y-10745929D02*
X8962119Y-10755452D01*
X8962119Y-10755452D02*
X8952595Y-10764976D01*
X8952595Y-10764976D02*
X8943071Y-10755452D01*
X8943071Y-10755452D02*
X8952595Y-10745929D01*
X8952595Y-10745929D02*
X8952595Y-10764976D01*
X9085929Y-10564976D02*
X9104976Y-10564976D01*
X9104976Y-10564976D02*
X9124024Y-10574500D01*
X9124024Y-10574500D02*
X9133548Y-10584024D01*
X9133548Y-10584024D02*
X9143071Y-10603071D01*
X9143071Y-10603071D02*
X9152595Y-10641167D01*
X9152595Y-10641167D02*
X9152595Y-10688786D01*
X9152595Y-10688786D02*
X9143071Y-10726881D01*
X9143071Y-10726881D02*
X9133548Y-10745929D01*
X9133548Y-10745929D02*
X9124024Y-10755452D01*
X9124024Y-10755452D02*
X9104976Y-10764976D01*
X9104976Y-10764976D02*
X9085929Y-10764976D01*
X9085929Y-10764976D02*
X9066881Y-10755452D01*
X9066881Y-10755452D02*
X9057357Y-10745929D01*
X9057357Y-10745929D02*
X9047833Y-10726881D01*
X9047833Y-10726881D02*
X9038310Y-10688786D01*
X9038310Y-10688786D02*
X9038310Y-10641167D01*
X9038310Y-10641167D02*
X9047833Y-10603071D01*
X9047833Y-10603071D02*
X9057357Y-10584024D01*
X9057357Y-10584024D02*
X9066881Y-10574500D01*
X9066881Y-10574500D02*
X9085929Y-10564976D01*
X9276405Y-10564976D02*
X9295452Y-10564976D01*
X9295452Y-10564976D02*
X9314500Y-10574500D01*
X9314500Y-10574500D02*
X9324024Y-10584024D01*
X9324024Y-10584024D02*
X9333548Y-10603071D01*
X9333548Y-10603071D02*
X9343071Y-10641167D01*
X9343071Y-10641167D02*
X9343071Y-10688786D01*
X9343071Y-10688786D02*
X9333548Y-10726881D01*
X9333548Y-10726881D02*
X9324024Y-10745929D01*
X9324024Y-10745929D02*
X9314500Y-10755452D01*
X9314500Y-10755452D02*
X9295452Y-10764976D01*
X9295452Y-10764976D02*
X9276405Y-10764976D01*
X9276405Y-10764976D02*
X9257357Y-10755452D01*
X9257357Y-10755452D02*
X9247833Y-10745929D01*
X9247833Y-10745929D02*
X9238310Y-10726881D01*
X9238310Y-10726881D02*
X9228786Y-10688786D01*
X9228786Y-10688786D02*
X9228786Y-10641167D01*
X9228786Y-10641167D02*
X9238310Y-10603071D01*
X9238310Y-10603071D02*
X9247833Y-10584024D01*
X9247833Y-10584024D02*
X9257357Y-10574500D01*
X9257357Y-10574500D02*
X9276405Y-10564976D01*
X9466881Y-10564976D02*
X9485929Y-10564976D01*
X9485929Y-10564976D02*
X9504976Y-10574500D01*
X9504976Y-10574500D02*
X9514500Y-10584024D01*
X9514500Y-10584024D02*
X9524024Y-10603071D01*
X9524024Y-10603071D02*
X9533548Y-10641167D01*
X9533548Y-10641167D02*
X9533548Y-10688786D01*
X9533548Y-10688786D02*
X9524024Y-10726881D01*
X9524024Y-10726881D02*
X9514500Y-10745929D01*
X9514500Y-10745929D02*
X9504976Y-10755452D01*
X9504976Y-10755452D02*
X9485929Y-10764976D01*
X9485929Y-10764976D02*
X9466881Y-10764976D01*
X9466881Y-10764976D02*
X9447833Y-10755452D01*
X9447833Y-10755452D02*
X9438310Y-10745929D01*
X9438310Y-10745929D02*
X9428786Y-10726881D01*
X9428786Y-10726881D02*
X9419262Y-10688786D01*
X9419262Y-10688786D02*
X9419262Y-10641167D01*
X9419262Y-10641167D02*
X9428786Y-10603071D01*
X9428786Y-10603071D02*
X9438310Y-10584024D01*
X9438310Y-10584024D02*
X9447833Y-10574500D01*
X9447833Y-10574500D02*
X9466881Y-10564976D01*
X9619262Y-10764976D02*
X9619262Y-10631643D01*
X9619262Y-10650690D02*
X9628786Y-10641167D01*
X9628786Y-10641167D02*
X9647833Y-10631643D01*
X9647833Y-10631643D02*
X9676405Y-10631643D01*
X9676405Y-10631643D02*
X9695452Y-10641167D01*
X9695452Y-10641167D02*
X9704976Y-10660214D01*
X9704976Y-10660214D02*
X9704976Y-10764976D01*
X9704976Y-10660214D02*
X9714500Y-10641167D01*
X9714500Y-10641167D02*
X9733548Y-10631643D01*
X9733548Y-10631643D02*
X9762119Y-10631643D01*
X9762119Y-10631643D02*
X9781167Y-10641167D01*
X9781167Y-10641167D02*
X9790691Y-10660214D01*
X9790691Y-10660214D02*
X9790691Y-10764976D01*
X9885929Y-10764976D02*
X9885929Y-10631643D01*
X9885929Y-10650690D02*
X9895452Y-10641167D01*
X9895452Y-10641167D02*
X9914500Y-10631643D01*
X9914500Y-10631643D02*
X9943072Y-10631643D01*
X9943072Y-10631643D02*
X9962119Y-10641167D01*
X9962119Y-10641167D02*
X9971643Y-10660214D01*
X9971643Y-10660214D02*
X9971643Y-10764976D01*
X9971643Y-10660214D02*
X9981167Y-10641167D01*
X9981167Y-10641167D02*
X10000214Y-10631643D01*
X10000214Y-10631643D02*
X10028786Y-10631643D01*
X10028786Y-10631643D02*
X10047833Y-10641167D01*
X10047833Y-10641167D02*
X10057357Y-10660214D01*
X10057357Y-10660214D02*
X10057357Y-10764976D01*
X10415452Y-10555452D02*
X10244024Y-10812595D01*
X10640214Y-10564976D02*
X10659262Y-10564976D01*
X10659262Y-10564976D02*
X10678310Y-10574500D01*
X10678310Y-10574500D02*
X10687833Y-10584024D01*
X10687833Y-10584024D02*
X10697357Y-10603071D01*
X10697357Y-10603071D02*
X10706881Y-10641167D01*
X10706881Y-10641167D02*
X10706881Y-10688786D01*
X10706881Y-10688786D02*
X10697357Y-10726881D01*
X10697357Y-10726881D02*
X10687833Y-10745929D01*
X10687833Y-10745929D02*
X10678310Y-10755452D01*
X10678310Y-10755452D02*
X10659262Y-10764976D01*
X10659262Y-10764976D02*
X10640214Y-10764976D01*
X10640214Y-10764976D02*
X10621167Y-10755452D01*
X10621167Y-10755452D02*
X10611643Y-10745929D01*
X10611643Y-10745929D02*
X10602119Y-10726881D01*
X10602119Y-10726881D02*
X10592595Y-10688786D01*
X10592595Y-10688786D02*
X10592595Y-10641167D01*
X10592595Y-10641167D02*
X10602119Y-10603071D01*
X10602119Y-10603071D02*
X10611643Y-10584024D01*
X10611643Y-10584024D02*
X10621167Y-10574500D01*
X10621167Y-10574500D02*
X10640214Y-10564976D01*
X10792595Y-10745929D02*
X10802119Y-10755452D01*
X10802119Y-10755452D02*
X10792595Y-10764976D01*
X10792595Y-10764976D02*
X10783072Y-10755452D01*
X10783072Y-10755452D02*
X10792595Y-10745929D01*
X10792595Y-10745929D02*
X10792595Y-10764976D01*
X10925929Y-10564976D02*
X10944976Y-10564976D01*
X10944976Y-10564976D02*
X10964024Y-10574500D01*
X10964024Y-10574500D02*
X10973548Y-10584024D01*
X10973548Y-10584024D02*
X10983072Y-10603071D01*
X10983072Y-10603071D02*
X10992595Y-10641167D01*
X10992595Y-10641167D02*
X10992595Y-10688786D01*
X10992595Y-10688786D02*
X10983072Y-10726881D01*
X10983072Y-10726881D02*
X10973548Y-10745929D01*
X10973548Y-10745929D02*
X10964024Y-10755452D01*
X10964024Y-10755452D02*
X10944976Y-10764976D01*
X10944976Y-10764976D02*
X10925929Y-10764976D01*
X10925929Y-10764976D02*
X10906881Y-10755452D01*
X10906881Y-10755452D02*
X10897357Y-10745929D01*
X10897357Y-10745929D02*
X10887833Y-10726881D01*
X10887833Y-10726881D02*
X10878310Y-10688786D01*
X10878310Y-10688786D02*
X10878310Y-10641167D01*
X10878310Y-10641167D02*
X10887833Y-10603071D01*
X10887833Y-10603071D02*
X10897357Y-10584024D01*
X10897357Y-10584024D02*
X10906881Y-10574500D01*
X10906881Y-10574500D02*
X10925929Y-10564976D01*
X11059262Y-10564976D02*
X11192595Y-10564976D01*
X11192595Y-10564976D02*
X11106881Y-10764976D01*
X11297357Y-10650690D02*
X11278310Y-10641167D01*
X11278310Y-10641167D02*
X11268786Y-10631643D01*
X11268786Y-10631643D02*
X11259262Y-10612595D01*
X11259262Y-10612595D02*
X11259262Y-10603071D01*
X11259262Y-10603071D02*
X11268786Y-10584024D01*
X11268786Y-10584024D02*
X11278310Y-10574500D01*
X11278310Y-10574500D02*
X11297357Y-10564976D01*
X11297357Y-10564976D02*
X11335452Y-10564976D01*
X11335452Y-10564976D02*
X11354500Y-10574500D01*
X11354500Y-10574500D02*
X11364024Y-10584024D01*
X11364024Y-10584024D02*
X11373548Y-10603071D01*
X11373548Y-10603071D02*
X11373548Y-10612595D01*
X11373548Y-10612595D02*
X11364024Y-10631643D01*
X11364024Y-10631643D02*
X11354500Y-10641167D01*
X11354500Y-10641167D02*
X11335452Y-10650690D01*
X11335452Y-10650690D02*
X11297357Y-10650690D01*
X11297357Y-10650690D02*
X11278310Y-10660214D01*
X11278310Y-10660214D02*
X11268786Y-10669738D01*
X11268786Y-10669738D02*
X11259262Y-10688786D01*
X11259262Y-10688786D02*
X11259262Y-10726881D01*
X11259262Y-10726881D02*
X11268786Y-10745929D01*
X11268786Y-10745929D02*
X11278310Y-10755452D01*
X11278310Y-10755452D02*
X11297357Y-10764976D01*
X11297357Y-10764976D02*
X11335452Y-10764976D01*
X11335452Y-10764976D02*
X11354500Y-10755452D01*
X11354500Y-10755452D02*
X11364024Y-10745929D01*
X11364024Y-10745929D02*
X11373548Y-10726881D01*
X11373548Y-10726881D02*
X11373548Y-10688786D01*
X11373548Y-10688786D02*
X11364024Y-10669738D01*
X11364024Y-10669738D02*
X11354500Y-10660214D01*
X11354500Y-10660214D02*
X11335452Y-10650690D01*
X11440214Y-10564976D02*
X11573548Y-10564976D01*
X11573548Y-10564976D02*
X11487833Y-10764976D01*
X11640214Y-10564976D02*
X11640214Y-10603071D01*
X11716405Y-10564976D02*
X11716405Y-10603071D01*
X11979262Y-10841167D02*
X11969738Y-10831643D01*
X11969738Y-10831643D02*
X11950691Y-10803071D01*
X11950691Y-10803071D02*
X11941167Y-10784024D01*
X11941167Y-10784024D02*
X11931643Y-10755452D01*
X11931643Y-10755452D02*
X11922119Y-10707833D01*
X11922119Y-10707833D02*
X11922119Y-10669738D01*
X11922119Y-10669738D02*
X11931643Y-10622119D01*
X11931643Y-10622119D02*
X11941167Y-10593548D01*
X11941167Y-10593548D02*
X11950691Y-10574500D01*
X11950691Y-10574500D02*
X11969738Y-10545929D01*
X11969738Y-10545929D02*
X11979262Y-10536405D01*
X12093548Y-10564976D02*
X12112595Y-10564976D01*
X12112595Y-10564976D02*
X12131643Y-10574500D01*
X12131643Y-10574500D02*
X12141167Y-10584024D01*
X12141167Y-10584024D02*
X12150691Y-10603071D01*
X12150691Y-10603071D02*
X12160214Y-10641167D01*
X12160214Y-10641167D02*
X12160214Y-10688786D01*
X12160214Y-10688786D02*
X12150691Y-10726881D01*
X12150691Y-10726881D02*
X12141167Y-10745929D01*
X12141167Y-10745929D02*
X12131643Y-10755452D01*
X12131643Y-10755452D02*
X12112595Y-10764976D01*
X12112595Y-10764976D02*
X12093548Y-10764976D01*
X12093548Y-10764976D02*
X12074500Y-10755452D01*
X12074500Y-10755452D02*
X12064976Y-10745929D01*
X12064976Y-10745929D02*
X12055452Y-10726881D01*
X12055452Y-10726881D02*
X12045929Y-10688786D01*
X12045929Y-10688786D02*
X12045929Y-10641167D01*
X12045929Y-10641167D02*
X12055452Y-10603071D01*
X12055452Y-10603071D02*
X12064976Y-10584024D01*
X12064976Y-10584024D02*
X12074500Y-10574500D01*
X12074500Y-10574500D02*
X12093548Y-10564976D01*
X12365929Y-10764976D02*
X12365929Y-10564976D01*
X12451643Y-10764976D02*
X12451643Y-10660214D01*
X12451643Y-10660214D02*
X12442119Y-10641167D01*
X12442119Y-10641167D02*
X12423072Y-10631643D01*
X12423072Y-10631643D02*
X12394500Y-10631643D01*
X12394500Y-10631643D02*
X12375452Y-10641167D01*
X12375452Y-10641167D02*
X12365929Y-10650690D01*
X12575452Y-10764976D02*
X12556405Y-10755452D01*
X12556405Y-10755452D02*
X12546881Y-10745929D01*
X12546881Y-10745929D02*
X12537357Y-10726881D01*
X12537357Y-10726881D02*
X12537357Y-10669738D01*
X12537357Y-10669738D02*
X12546881Y-10650690D01*
X12546881Y-10650690D02*
X12556405Y-10641167D01*
X12556405Y-10641167D02*
X12575452Y-10631643D01*
X12575452Y-10631643D02*
X12604024Y-10631643D01*
X12604024Y-10631643D02*
X12623072Y-10641167D01*
X12623072Y-10641167D02*
X12632595Y-10650690D01*
X12632595Y-10650690D02*
X12642119Y-10669738D01*
X12642119Y-10669738D02*
X12642119Y-10726881D01*
X12642119Y-10726881D02*
X12632595Y-10745929D01*
X12632595Y-10745929D02*
X12623072Y-10755452D01*
X12623072Y-10755452D02*
X12604024Y-10764976D01*
X12604024Y-10764976D02*
X12575452Y-10764976D01*
X12756405Y-10764976D02*
X12737357Y-10755452D01*
X12737357Y-10755452D02*
X12727833Y-10736405D01*
X12727833Y-10736405D02*
X12727833Y-10564976D01*
X12908786Y-10755452D02*
X12889738Y-10764976D01*
X12889738Y-10764976D02*
X12851643Y-10764976D01*
X12851643Y-10764976D02*
X12832595Y-10755452D01*
X12832595Y-10755452D02*
X12823072Y-10736405D01*
X12823072Y-10736405D02*
X12823072Y-10660214D01*
X12823072Y-10660214D02*
X12832595Y-10641167D01*
X12832595Y-10641167D02*
X12851643Y-10631643D01*
X12851643Y-10631643D02*
X12889738Y-10631643D01*
X12889738Y-10631643D02*
X12908786Y-10641167D01*
X12908786Y-10641167D02*
X12918310Y-10660214D01*
X12918310Y-10660214D02*
X12918310Y-10679262D01*
X12918310Y-10679262D02*
X12823072Y-10698310D01*
X12994500Y-10755452D02*
X13013548Y-10764976D01*
X13013548Y-10764976D02*
X13051643Y-10764976D01*
X13051643Y-10764976D02*
X13070691Y-10755452D01*
X13070691Y-10755452D02*
X13080214Y-10736405D01*
X13080214Y-10736405D02*
X13080214Y-10726881D01*
X13080214Y-10726881D02*
X13070691Y-10707833D01*
X13070691Y-10707833D02*
X13051643Y-10698310D01*
X13051643Y-10698310D02*
X13023072Y-10698310D01*
X13023072Y-10698310D02*
X13004024Y-10688786D01*
X13004024Y-10688786D02*
X12994500Y-10669738D01*
X12994500Y-10669738D02*
X12994500Y-10660214D01*
X12994500Y-10660214D02*
X13004024Y-10641167D01*
X13004024Y-10641167D02*
X13023072Y-10631643D01*
X13023072Y-10631643D02*
X13051643Y-10631643D01*
X13051643Y-10631643D02*
X13070691Y-10641167D01*
X13285929Y-10688786D02*
X13438310Y-10688786D01*
X13362119Y-10764976D02*
X13362119Y-10612595D01*
X13644024Y-10584024D02*
X13653548Y-10574500D01*
X13653548Y-10574500D02*
X13672595Y-10564976D01*
X13672595Y-10564976D02*
X13720214Y-10564976D01*
X13720214Y-10564976D02*
X13739262Y-10574500D01*
X13739262Y-10574500D02*
X13748786Y-10584024D01*
X13748786Y-10584024D02*
X13758310Y-10603071D01*
X13758310Y-10603071D02*
X13758310Y-10622119D01*
X13758310Y-10622119D02*
X13748786Y-10650690D01*
X13748786Y-10650690D02*
X13634500Y-10764976D01*
X13634500Y-10764976D02*
X13758310Y-10764976D01*
X13954500Y-10755452D02*
X13973548Y-10764976D01*
X13973548Y-10764976D02*
X14011643Y-10764976D01*
X14011643Y-10764976D02*
X14030691Y-10755452D01*
X14030691Y-10755452D02*
X14040214Y-10736405D01*
X14040214Y-10736405D02*
X14040214Y-10726881D01*
X14040214Y-10726881D02*
X14030691Y-10707833D01*
X14030691Y-10707833D02*
X14011643Y-10698310D01*
X14011643Y-10698310D02*
X13983072Y-10698310D01*
X13983072Y-10698310D02*
X13964024Y-10688786D01*
X13964024Y-10688786D02*
X13954500Y-10669738D01*
X13954500Y-10669738D02*
X13954500Y-10660214D01*
X13954500Y-10660214D02*
X13964024Y-10641167D01*
X13964024Y-10641167D02*
X13983072Y-10631643D01*
X13983072Y-10631643D02*
X14011643Y-10631643D01*
X14011643Y-10631643D02*
X14030691Y-10641167D01*
X14154500Y-10764976D02*
X14135453Y-10755452D01*
X14135453Y-10755452D02*
X14125929Y-10736405D01*
X14125929Y-10736405D02*
X14125929Y-10564976D01*
X14259262Y-10764976D02*
X14240214Y-10755452D01*
X14240214Y-10755452D02*
X14230691Y-10745929D01*
X14230691Y-10745929D02*
X14221167Y-10726881D01*
X14221167Y-10726881D02*
X14221167Y-10669738D01*
X14221167Y-10669738D02*
X14230691Y-10650690D01*
X14230691Y-10650690D02*
X14240214Y-10641167D01*
X14240214Y-10641167D02*
X14259262Y-10631643D01*
X14259262Y-10631643D02*
X14287834Y-10631643D01*
X14287834Y-10631643D02*
X14306881Y-10641167D01*
X14306881Y-10641167D02*
X14316405Y-10650690D01*
X14316405Y-10650690D02*
X14325929Y-10669738D01*
X14325929Y-10669738D02*
X14325929Y-10726881D01*
X14325929Y-10726881D02*
X14316405Y-10745929D01*
X14316405Y-10745929D02*
X14306881Y-10755452D01*
X14306881Y-10755452D02*
X14287834Y-10764976D01*
X14287834Y-10764976D02*
X14259262Y-10764976D01*
X14383072Y-10631643D02*
X14459262Y-10631643D01*
X14411643Y-10564976D02*
X14411643Y-10736405D01*
X14411643Y-10736405D02*
X14421167Y-10755452D01*
X14421167Y-10755452D02*
X14440214Y-10764976D01*
X14440214Y-10764976D02*
X14459262Y-10764976D01*
X14516405Y-10755452D02*
X14535453Y-10764976D01*
X14535453Y-10764976D02*
X14573548Y-10764976D01*
X14573548Y-10764976D02*
X14592595Y-10755452D01*
X14592595Y-10755452D02*
X14602119Y-10736405D01*
X14602119Y-10736405D02*
X14602119Y-10726881D01*
X14602119Y-10726881D02*
X14592595Y-10707833D01*
X14592595Y-10707833D02*
X14573548Y-10698310D01*
X14573548Y-10698310D02*
X14544976Y-10698310D01*
X14544976Y-10698310D02*
X14525929Y-10688786D01*
X14525929Y-10688786D02*
X14516405Y-10669738D01*
X14516405Y-10669738D02*
X14516405Y-10660214D01*
X14516405Y-10660214D02*
X14525929Y-10641167D01*
X14525929Y-10641167D02*
X14544976Y-10631643D01*
X14544976Y-10631643D02*
X14573548Y-10631643D01*
X14573548Y-10631643D02*
X14592595Y-10641167D01*
X14668786Y-10841167D02*
X14678310Y-10831643D01*
X14678310Y-10831643D02*
X14697357Y-10803071D01*
X14697357Y-10803071D02*
X14706881Y-10784024D01*
X14706881Y-10784024D02*
X14716405Y-10755452D01*
X14716405Y-10755452D02*
X14725929Y-10707833D01*
X14725929Y-10707833D02*
X14725929Y-10669738D01*
X14725929Y-10669738D02*
X14716405Y-10622119D01*
X14716405Y-10622119D02*
X14706881Y-10593548D01*
X14706881Y-10593548D02*
X14697357Y-10574500D01*
X14697357Y-10574500D02*
X14678310Y-10545929D01*
X14678310Y-10545929D02*
X14668786Y-10536405D01*
M02*
