G04 #@! TF.GenerationSoftware,KiCad,Pcbnew,7.0.1*
G04 #@! TF.CreationDate,2023-03-22T01:49:52-05:00*
G04 #@! TF.ProjectId,V0_Display,56305f44-6973-4706-9c61-792e6b696361,rev?*
G04 #@! TF.SameCoordinates,Original*
G04 #@! TF.FileFunction,Copper,L2,Bot*
G04 #@! TF.FilePolarity,Positive*
%FSLAX46Y46*%
G04 Gerber Fmt 4.6, Leading zero omitted, Abs format (unit mm)*
G04 Created by KiCad (PCBNEW 7.0.1) date 2023-03-22 01:49:52*
%MOMM*%
%LPD*%
G01*
G04 APERTURE LIST*
G04 Aperture macros list*
%AMRoundRect*
0 Rectangle with rounded corners*
0 $1 Rounding radius*
0 $2 $3 $4 $5 $6 $7 $8 $9 X,Y pos of 4 corners*
0 Add a 4 corners polygon primitive as box body*
4,1,4,$2,$3,$4,$5,$6,$7,$8,$9,$2,$3,0*
0 Add four circle primitives for the rounded corners*
1,1,$1+$1,$2,$3*
1,1,$1+$1,$4,$5*
1,1,$1+$1,$6,$7*
1,1,$1+$1,$8,$9*
0 Add four rect primitives between the rounded corners*
20,1,$1+$1,$2,$3,$4,$5,0*
20,1,$1+$1,$4,$5,$6,$7,0*
20,1,$1+$1,$6,$7,$8,$9,0*
20,1,$1+$1,$8,$9,$2,$3,0*%
G04 Aperture macros list end*
G04 #@! TA.AperFunction,ComponentPad*
%ADD10C,2.000000*%
G04 #@! TD*
G04 #@! TA.AperFunction,ComponentPad*
%ADD11O,2.500000X4.000000*%
G04 #@! TD*
G04 #@! TA.AperFunction,ComponentPad*
%ADD12C,1.524000*%
G04 #@! TD*
G04 #@! TA.AperFunction,ComponentPad*
%ADD13R,1.700000X1.700000*%
G04 #@! TD*
G04 #@! TA.AperFunction,ComponentPad*
%ADD14O,1.700000X1.700000*%
G04 #@! TD*
G04 #@! TA.AperFunction,SMDPad,CuDef*
%ADD15RoundRect,0.150000X0.150000X-0.512500X0.150000X0.512500X-0.150000X0.512500X-0.150000X-0.512500X0*%
G04 #@! TD*
G04 #@! TA.AperFunction,SMDPad,CuDef*
%ADD16R,1.000000X1.500000*%
G04 #@! TD*
G04 #@! TA.AperFunction,SMDPad,CuDef*
%ADD17RoundRect,0.225000X-0.250000X0.225000X-0.250000X-0.225000X0.250000X-0.225000X0.250000X0.225000X0*%
G04 #@! TD*
G04 #@! TA.AperFunction,SMDPad,CuDef*
%ADD18RoundRect,0.225000X0.225000X0.250000X-0.225000X0.250000X-0.225000X-0.250000X0.225000X-0.250000X0*%
G04 #@! TD*
G04 #@! TA.AperFunction,SMDPad,CuDef*
%ADD19RoundRect,0.225000X0.250000X-0.225000X0.250000X0.225000X-0.250000X0.225000X-0.250000X-0.225000X0*%
G04 #@! TD*
G04 #@! TA.AperFunction,SMDPad,CuDef*
%ADD20RoundRect,0.200000X-0.200000X-0.275000X0.200000X-0.275000X0.200000X0.275000X-0.200000X0.275000X0*%
G04 #@! TD*
G04 #@! TA.AperFunction,SMDPad,CuDef*
%ADD21RoundRect,0.225000X-0.225000X-0.250000X0.225000X-0.250000X0.225000X0.250000X-0.225000X0.250000X0*%
G04 #@! TD*
G04 #@! TA.AperFunction,SMDPad,CuDef*
%ADD22RoundRect,0.200000X-0.275000X0.200000X-0.275000X-0.200000X0.275000X-0.200000X0.275000X0.200000X0*%
G04 #@! TD*
G04 #@! TA.AperFunction,SMDPad,CuDef*
%ADD23RoundRect,0.200000X0.200000X0.275000X-0.200000X0.275000X-0.200000X-0.275000X0.200000X-0.275000X0*%
G04 #@! TD*
G04 #@! TA.AperFunction,SMDPad,CuDef*
%ADD24RoundRect,0.093000X-0.562000X0.372000X-0.562000X-0.372000X0.562000X-0.372000X0.562000X0.372000X0*%
G04 #@! TD*
G04 #@! TA.AperFunction,SMDPad,CuDef*
%ADD25RoundRect,0.131000X-0.524000X1.489000X-0.524000X-1.489000X0.524000X-1.489000X0.524000X1.489000X0*%
G04 #@! TD*
G04 #@! TA.AperFunction,SMDPad,CuDef*
%ADD26R,1.600000X2.000000*%
G04 #@! TD*
G04 #@! TA.AperFunction,SMDPad,CuDef*
%ADD27RoundRect,0.225000X0.104006X-0.319856X0.329006X0.069856X-0.104006X0.319856X-0.329006X-0.069856X0*%
G04 #@! TD*
G04 #@! TA.AperFunction,SMDPad,CuDef*
%ADD28R,1.240000X0.600000*%
G04 #@! TD*
G04 #@! TA.AperFunction,SMDPad,CuDef*
%ADD29R,1.240000X0.300000*%
G04 #@! TD*
G04 #@! TA.AperFunction,ComponentPad*
%ADD30O,1.800000X1.000000*%
G04 #@! TD*
G04 #@! TA.AperFunction,ComponentPad*
%ADD31O,2.100000X1.000000*%
G04 #@! TD*
G04 #@! TA.AperFunction,SMDPad,CuDef*
%ADD32R,1.400000X1.200000*%
G04 #@! TD*
G04 #@! TA.AperFunction,SMDPad,CuDef*
%ADD33R,0.300000X0.900000*%
G04 #@! TD*
G04 #@! TA.AperFunction,SMDPad,CuDef*
%ADD34R,1.650000X0.250000*%
G04 #@! TD*
G04 #@! TA.AperFunction,SMDPad,CuDef*
%ADD35RoundRect,0.050000X-0.050000X0.387500X-0.050000X-0.387500X0.050000X-0.387500X0.050000X0.387500X0*%
G04 #@! TD*
G04 #@! TA.AperFunction,SMDPad,CuDef*
%ADD36RoundRect,0.050000X-0.387500X0.050000X-0.387500X-0.050000X0.387500X-0.050000X0.387500X0.050000X0*%
G04 #@! TD*
G04 #@! TA.AperFunction,SMDPad,CuDef*
%ADD37R,3.200000X3.200000*%
G04 #@! TD*
G04 #@! TA.AperFunction,ViaPad*
%ADD38C,0.600000*%
G04 #@! TD*
G04 #@! TA.AperFunction,ViaPad*
%ADD39C,0.800000*%
G04 #@! TD*
G04 #@! TA.AperFunction,Conductor*
%ADD40C,0.250000*%
G04 #@! TD*
G04 #@! TA.AperFunction,Conductor*
%ADD41C,0.200000*%
G04 #@! TD*
G04 #@! TA.AperFunction,Conductor*
%ADD42C,0.500000*%
G04 #@! TD*
G04 #@! TA.AperFunction,Conductor*
%ADD43C,0.350000*%
G04 #@! TD*
G04 #@! TA.AperFunction,Conductor*
%ADD44C,0.400000*%
G04 #@! TD*
G04 #@! TA.AperFunction,Conductor*
%ADD45C,0.150000*%
G04 #@! TD*
G04 APERTURE END LIST*
G04 #@! TA.AperFunction,EtchedComponent*
G36*
X103850000Y-57570000D02*
G01*
X103350000Y-57570000D01*
X103350000Y-56970000D01*
X103850000Y-56970000D01*
X103850000Y-57570000D01*
G37*
G04 #@! TD.AperFunction*
G04 #@! TA.AperFunction,EtchedComponent*
G36*
X102550000Y-55030000D02*
G01*
X102050000Y-55030000D01*
X102050000Y-54430000D01*
X102550000Y-54430000D01*
X102550000Y-55030000D01*
G37*
G04 #@! TD.AperFunction*
D10*
X156670000Y-69900000D03*
X163170000Y-69900000D03*
X156670000Y-74400000D03*
X163170000Y-74400000D03*
X141920000Y-74650000D03*
X146920000Y-74650000D03*
X144420000Y-74650000D03*
D11*
X139340000Y-67150000D03*
X149500000Y-67150000D03*
D10*
X141920000Y-60150000D03*
X146920000Y-60150000D03*
D12*
X109660000Y-52850000D03*
X112200000Y-52850000D03*
X114740000Y-52850000D03*
X117280000Y-52850000D03*
D13*
X110954000Y-70198000D03*
D14*
X113494000Y-70198000D03*
X116034000Y-70198000D03*
D15*
X154192000Y-56037500D03*
X153242000Y-56037500D03*
X152292000Y-56037500D03*
X152292000Y-53762500D03*
X154192000Y-53762500D03*
D13*
X105304000Y-68928000D03*
D14*
X102764000Y-68928000D03*
X100224000Y-68928000D03*
D13*
X153115000Y-60445000D03*
D14*
X150575000Y-60445000D03*
D16*
X104250000Y-57270000D03*
X102950000Y-57270000D03*
X101650000Y-57270000D03*
X101650000Y-54730000D03*
X102950000Y-54730000D03*
X104250000Y-54730000D03*
D13*
X96414000Y-70706000D03*
D14*
X96414000Y-68166000D03*
X96414000Y-65626000D03*
X96414000Y-63086000D03*
D17*
X129434000Y-54678000D03*
X129434000Y-56228000D03*
D18*
X105445000Y-59850000D03*
X103895000Y-59850000D03*
X121895000Y-60850000D03*
X120345000Y-60850000D03*
D19*
X108252000Y-75545000D03*
X108252000Y-73995000D03*
D20*
X94495000Y-60550000D03*
X96145000Y-60550000D03*
D21*
X120245000Y-55250000D03*
X121795000Y-55250000D03*
D22*
X129434000Y-57728000D03*
X129434000Y-59378000D03*
D23*
X96145000Y-73250000D03*
X94495000Y-73250000D03*
D24*
X106109000Y-73496000D03*
X106109000Y-75786000D03*
X106109000Y-78076000D03*
D25*
X99419000Y-75786000D03*
D19*
X109920000Y-75545000D03*
X109920000Y-73995000D03*
D26*
X126386000Y-52790000D03*
X126386000Y-61190000D03*
D23*
X105745000Y-62850000D03*
X104095000Y-62850000D03*
D27*
X106932500Y-64321170D03*
X107707500Y-62978830D03*
D28*
X92519000Y-70350000D03*
X92519000Y-69550000D03*
D29*
X92519000Y-68400000D03*
X92519000Y-67400000D03*
X92519000Y-66900000D03*
X92519000Y-65900000D03*
D28*
X92519000Y-64750000D03*
X92519000Y-63950000D03*
X92519000Y-63950000D03*
X92519000Y-64750000D03*
D29*
X92519000Y-65400000D03*
X92519000Y-66400000D03*
X92519000Y-67900000D03*
X92519000Y-68900000D03*
D28*
X92519000Y-69550000D03*
X92519000Y-70350000D03*
D30*
X87719000Y-71470000D03*
D31*
X91919000Y-71470000D03*
D30*
X87719000Y-62830000D03*
D31*
X91919000Y-62830000D03*
D32*
X119820000Y-57100000D03*
X122220000Y-57100000D03*
X122220000Y-59000000D03*
X119820000Y-59000000D03*
D20*
X113369000Y-67398000D03*
X115019000Y-67398000D03*
D33*
X106720000Y-57050000D03*
X107220000Y-57050000D03*
X107720000Y-57050000D03*
X108220000Y-57050000D03*
X108220000Y-59850000D03*
X107720000Y-59850000D03*
X107220000Y-59850000D03*
X106720000Y-59850000D03*
D34*
X107470000Y-58450000D03*
D20*
X104095000Y-61350000D03*
X105745000Y-61350000D03*
D35*
X110794000Y-56816500D03*
X111194000Y-56816500D03*
X111594000Y-56816500D03*
X111994000Y-56816500D03*
X112394000Y-56816500D03*
X112794000Y-56816500D03*
X113194000Y-56816500D03*
X113594000Y-56816500D03*
X113994000Y-56816500D03*
X114394000Y-56816500D03*
X114794000Y-56816500D03*
X115194000Y-56816500D03*
X115594000Y-56816500D03*
X115994000Y-56816500D03*
D36*
X116831500Y-57654000D03*
X116831500Y-58054000D03*
X116831500Y-58454000D03*
X116831500Y-58854000D03*
X116831500Y-59254000D03*
X116831500Y-59654000D03*
X116831500Y-60054000D03*
X116831500Y-60454000D03*
X116831500Y-60854000D03*
X116831500Y-61254000D03*
X116831500Y-61654000D03*
X116831500Y-62054000D03*
X116831500Y-62454000D03*
X116831500Y-62854000D03*
D35*
X115994000Y-63691500D03*
X115594000Y-63691500D03*
X115194000Y-63691500D03*
X114794000Y-63691500D03*
X114394000Y-63691500D03*
X113994000Y-63691500D03*
X113594000Y-63691500D03*
X113194000Y-63691500D03*
X112794000Y-63691500D03*
X112394000Y-63691500D03*
X111994000Y-63691500D03*
X111594000Y-63691500D03*
X111194000Y-63691500D03*
X110794000Y-63691500D03*
D36*
X109956500Y-62854000D03*
X109956500Y-62454000D03*
X109956500Y-62054000D03*
X109956500Y-61654000D03*
X109956500Y-61254000D03*
X109956500Y-60854000D03*
X109956500Y-60454000D03*
X109956500Y-60054000D03*
X109956500Y-59654000D03*
X109956500Y-59254000D03*
X109956500Y-58854000D03*
X109956500Y-58454000D03*
X109956500Y-58054000D03*
X109956500Y-57654000D03*
D37*
X113394000Y-60254000D03*
D38*
X107520000Y-76850000D03*
D39*
X114620000Y-59050000D03*
X104920000Y-74550000D03*
X93920000Y-63350000D03*
X113394000Y-60254000D03*
D38*
X106620000Y-57999502D03*
D39*
X112220000Y-61450000D03*
X112120000Y-59050000D03*
D38*
X121020000Y-61525000D03*
X121020000Y-58050000D03*
D39*
X106109000Y-73496000D03*
X114620000Y-61450000D03*
X124820000Y-52350000D03*
D38*
X152292000Y-57322000D03*
X155220000Y-56450000D03*
X97220000Y-60550000D03*
D39*
X157470000Y-62250000D03*
D38*
X116220000Y-54850000D03*
X113940000Y-66642000D03*
X119007682Y-61061295D03*
X118408182Y-61853000D03*
X93820000Y-68650000D03*
X94520000Y-72050000D03*
X102950000Y-56250000D03*
X102950000Y-53120000D03*
X110816000Y-60854000D03*
D39*
X104920000Y-64150000D03*
D38*
X110771353Y-62049429D03*
X118320000Y-60653500D03*
X108918584Y-68478584D03*
X109720000Y-64750000D03*
X152292000Y-52578000D03*
X106020000Y-57050000D03*
X94520000Y-61650000D03*
X93471999Y-65398001D03*
D39*
X139820000Y-70850000D03*
D38*
X117120000Y-64450000D03*
X115413246Y-65556754D03*
X116320000Y-65049500D03*
X117461500Y-63691500D03*
X150520000Y-54900000D03*
X126420000Y-59750000D03*
D40*
X121020000Y-61525000D02*
X120345000Y-60850000D01*
X101650000Y-57850000D02*
X96414000Y-63086000D01*
X122220000Y-57100000D02*
X122220000Y-55675000D01*
X121020000Y-58050000D02*
X121970000Y-57100000D01*
X120070000Y-59000000D02*
X121020000Y-58050000D01*
X101650000Y-57270000D02*
X101650000Y-54730000D01*
D41*
X106620000Y-57999502D02*
X107070498Y-58450000D01*
D42*
X106109000Y-73496000D02*
X106608000Y-73995000D01*
D41*
X108220000Y-57700000D02*
X108220000Y-57050000D01*
D42*
X106608000Y-73995000D02*
X108265000Y-73995000D01*
D41*
X108220000Y-57700000D02*
X107470000Y-58450000D01*
D40*
X128664000Y-54678000D02*
X126386000Y-52400000D01*
D43*
X124820000Y-52350000D02*
X126336000Y-52350000D01*
D40*
X152292000Y-56037500D02*
X152292000Y-57322000D01*
D42*
X94184000Y-63086000D02*
X96414000Y-63086000D01*
X93920000Y-63350000D02*
X94184000Y-63086000D01*
D40*
X129434000Y-54678000D02*
X128664000Y-54678000D01*
X122220000Y-55675000D02*
X121795000Y-55250000D01*
D42*
X109920000Y-73995000D02*
X108375000Y-73995000D01*
X157470000Y-62250000D02*
X151120000Y-62250000D01*
X135294000Y-78076000D02*
X106109000Y-78076000D01*
D40*
X155220000Y-54850000D02*
X154192000Y-53822000D01*
D41*
X96145000Y-60550000D02*
X97220000Y-60550000D01*
X96414000Y-72981000D02*
X96414000Y-70706000D01*
D42*
X151120000Y-62250000D02*
X135294000Y-78076000D01*
D40*
X155220000Y-56450000D02*
X155220000Y-54850000D01*
D44*
X98739000Y-70706000D02*
X106109000Y-78076000D01*
X96414000Y-70706000D02*
X98739000Y-70706000D01*
D41*
X101631326Y-61538675D02*
X101631326Y-61538674D01*
X93405300Y-66445600D02*
X93405300Y-67350400D01*
X93405300Y-66445600D02*
X94224900Y-65626000D01*
X95572124Y-65878125D02*
X95572124Y-65878124D01*
X93357699Y-66397999D02*
X93405300Y-66445600D01*
X94972124Y-65878124D02*
X94972124Y-65878125D01*
X109258340Y-61254000D02*
X109137340Y-61375000D01*
X93357700Y-67398000D02*
X92533800Y-67398000D01*
X102042652Y-61727349D02*
X101820000Y-61727349D01*
X100690000Y-61350000D02*
X96414000Y-65626000D01*
X109956500Y-61254000D02*
X109258340Y-61254000D01*
X94224900Y-65626000D02*
X94720000Y-65626000D01*
X100690000Y-61350000D02*
X101442652Y-61350000D01*
X109137340Y-61375000D02*
X105770000Y-61375000D01*
X95224248Y-66130249D02*
X95320000Y-66130249D01*
X102231326Y-61538674D02*
X102231326Y-61538675D01*
X92533800Y-66397999D02*
X93357699Y-66397999D01*
X104095000Y-61350000D02*
X102420000Y-61350000D01*
X93405300Y-67350400D02*
X93357700Y-67398000D01*
X101631400Y-61538674D02*
G75*
G03*
X101442652Y-61350000I-188700J-26D01*
G01*
X95824248Y-65626024D02*
G75*
G03*
X95572124Y-65878124I-48J-252076D01*
G01*
X95320000Y-66130224D02*
G75*
G03*
X95572124Y-65878125I0J252124D01*
G01*
X94972100Y-65878124D02*
G75*
G03*
X94720000Y-65626000I-252100J24D01*
G01*
X102042652Y-61727326D02*
G75*
G03*
X102231326Y-61538675I48J188626D01*
G01*
X102420000Y-61350026D02*
G75*
G03*
X102231326Y-61538674I0J-188674D01*
G01*
X101631351Y-61538675D02*
G75*
G03*
X101820000Y-61727349I188649J-25D01*
G01*
X94972051Y-65878125D02*
G75*
G03*
X95224248Y-66130249I252149J25D01*
G01*
X91709900Y-66898000D02*
X91588000Y-67019900D01*
X105745000Y-62850000D02*
X106820000Y-61775000D01*
X106820000Y-61775000D02*
X109303025Y-61775000D01*
X96414000Y-68166000D02*
X101730000Y-62850000D01*
X109303025Y-61775000D02*
X109424025Y-61654000D01*
X92533800Y-66898000D02*
X91709900Y-66898000D01*
X91588000Y-67776100D02*
X91709901Y-67898001D01*
X91588000Y-67019900D02*
X91588000Y-67776100D01*
X101730000Y-62850000D02*
X104095000Y-62850000D01*
X91709901Y-67898001D02*
X92533800Y-67898001D01*
X92533800Y-67898001D02*
X96146001Y-67898001D01*
X109424025Y-61654000D02*
X109956500Y-61654000D01*
X115594000Y-54536000D02*
X117280000Y-52850000D01*
X115594000Y-56816500D02*
X115594000Y-54536000D01*
X115994000Y-55076000D02*
X116220000Y-54850000D01*
X115994000Y-56816500D02*
X115994000Y-55076000D01*
X118568529Y-61253500D02*
X118071471Y-61253500D01*
X117529661Y-61254000D02*
X116831500Y-61254000D01*
X118071471Y-61253500D02*
X118067474Y-61249503D01*
X119007682Y-61061295D02*
X118760734Y-61061295D01*
D40*
X113369000Y-67213000D02*
X113940000Y-66642000D01*
D41*
X118067474Y-61249503D02*
X117534158Y-61249503D01*
X117534158Y-61249503D02*
X117529661Y-61254000D01*
X118760734Y-61061295D02*
X118568529Y-61253500D01*
D40*
X113494000Y-67523000D02*
X113494000Y-70198000D01*
D45*
X116831500Y-61654000D02*
X118209182Y-61654000D01*
X118209182Y-61654000D02*
X118408182Y-61853000D01*
D41*
X94495000Y-73250000D02*
X94495000Y-72075000D01*
X94495000Y-72075000D02*
X94520000Y-72050000D01*
X93568000Y-68398000D02*
X92533800Y-68398000D01*
X93820000Y-68650000D02*
X93568000Y-68398000D01*
X119820000Y-55675000D02*
X120245000Y-55250000D01*
X117416000Y-59654000D02*
X119820000Y-57250000D01*
X119820000Y-57100000D02*
X119820000Y-55675000D01*
X116831500Y-59654000D02*
X117416000Y-59654000D01*
D40*
X102950000Y-57870000D02*
X102950000Y-56250000D01*
X102950000Y-53120000D02*
X102950000Y-54730000D01*
D41*
X114394000Y-56816500D02*
X114394000Y-57348975D01*
X114394000Y-57348975D02*
X114092975Y-57650000D01*
X111320000Y-62954000D02*
X110970000Y-62954000D01*
D42*
X106350000Y-75545000D02*
X106109000Y-75786000D01*
D41*
X116831500Y-60854000D02*
X116831500Y-60454000D01*
X114092975Y-57650000D02*
X110794000Y-57650000D01*
X114394000Y-63159025D02*
X114188975Y-62954000D01*
X111320000Y-61358000D02*
X110816000Y-60854000D01*
X109956500Y-60054000D02*
X109956500Y-60854000D01*
X118123997Y-60849503D02*
X116835997Y-60849503D01*
X110794000Y-57650000D02*
X110794000Y-60832000D01*
X110811429Y-62049429D02*
X110816000Y-62054000D01*
X110794000Y-60832000D02*
X110816000Y-60854000D01*
X118320000Y-60653500D02*
X118123997Y-60849503D01*
X111320000Y-62954000D02*
X111320000Y-61358000D01*
X109956500Y-60854000D02*
X110816000Y-60854000D01*
X114188975Y-62954000D02*
X111320000Y-62954000D01*
X110766782Y-62054000D02*
X110771353Y-62049429D01*
X110794000Y-56816500D02*
X110794000Y-57650000D01*
X114394000Y-63691500D02*
X114394000Y-63159025D01*
D42*
X109920000Y-75545000D02*
X106350000Y-75545000D01*
D41*
X110794000Y-63130000D02*
X110794000Y-63691500D01*
X110970000Y-62954000D02*
X110794000Y-63130000D01*
X109956500Y-62054000D02*
X110766782Y-62054000D01*
X116835997Y-60849503D02*
X116831500Y-60854000D01*
X108232330Y-62454000D02*
X107707500Y-62978830D01*
X109956500Y-62454000D02*
X108232330Y-62454000D01*
X109920000Y-62890500D02*
X109956500Y-62854000D01*
X109920000Y-64550000D02*
X109920000Y-62890500D01*
X109720000Y-64750000D02*
X109920000Y-64550000D01*
X105445000Y-59850000D02*
X106720000Y-59850000D01*
D40*
X152292000Y-53762500D02*
X152292000Y-52578000D01*
D45*
X109956500Y-56556475D02*
X109020001Y-55619975D01*
X109020001Y-55619975D02*
X107580050Y-55619975D01*
D40*
X106020000Y-57050000D02*
X106720000Y-57050000D01*
D45*
X107580050Y-55619975D02*
X106720000Y-56480025D01*
X109956500Y-57654000D02*
X109956500Y-56556475D01*
X106720000Y-56480025D02*
X106720000Y-57119975D01*
X109244000Y-56338949D02*
X108875026Y-55969975D01*
X108875026Y-55969975D02*
X107725025Y-55969975D01*
X109244000Y-57838619D02*
X109244000Y-56338949D01*
X109956500Y-58054000D02*
X109459381Y-58054000D01*
X109459381Y-58054000D02*
X109244000Y-57838619D01*
X107220000Y-56475000D02*
X107220000Y-57119975D01*
X107725025Y-55969975D02*
X107220000Y-56475000D01*
X108894000Y-57983593D02*
X108894000Y-56693975D01*
X109364407Y-58454000D02*
X108894000Y-57983593D01*
X108894000Y-56693975D02*
X108520000Y-56319975D01*
X107720000Y-56469975D02*
X107720000Y-57119975D01*
X108520000Y-56319975D02*
X107870000Y-56319975D01*
X109956500Y-58454000D02*
X109364407Y-58454000D01*
X107870000Y-56319975D02*
X107720000Y-56469975D01*
X108220000Y-59650000D02*
X109016000Y-58854000D01*
X109016000Y-58854000D02*
X109956500Y-58854000D01*
X107770000Y-60650000D02*
X107720000Y-60600000D01*
X108720000Y-60550000D02*
X108620000Y-60650000D01*
X107720000Y-60600000D02*
X107720000Y-60050000D01*
X108720000Y-59644974D02*
X108720000Y-60550000D01*
X109956500Y-59254000D02*
X109110974Y-59254000D01*
X108620000Y-60650000D02*
X107770000Y-60650000D01*
X109110974Y-59254000D02*
X108720000Y-59644974D01*
X107625025Y-61000000D02*
X107220000Y-60594975D01*
X108764975Y-61000000D02*
X107625025Y-61000000D01*
X109459381Y-59654000D02*
X109220000Y-59893381D01*
X109220000Y-59893381D02*
X109220000Y-60544974D01*
X109956500Y-59654000D02*
X109459381Y-59654000D01*
X107220000Y-60594975D02*
X107220000Y-59850000D01*
X109220000Y-60544974D02*
X108764975Y-61000000D01*
D41*
X122220000Y-60525000D02*
X121895000Y-60850000D01*
X121166000Y-60054000D02*
X122220000Y-59000000D01*
X122220000Y-59000000D02*
X122220000Y-60525000D01*
X116831500Y-60054000D02*
X121166000Y-60054000D01*
X94495000Y-60550000D02*
X94495000Y-61625000D01*
X94495000Y-61625000D02*
X94520000Y-61650000D01*
X93471999Y-65398001D02*
X92533800Y-65398001D01*
D42*
X138820000Y-70850000D02*
X134420000Y-66450000D01*
D41*
X113194000Y-63691500D02*
X113194000Y-65076000D01*
D42*
X115245831Y-66450000D02*
X113871831Y-65076000D01*
X139820000Y-70850000D02*
X138820000Y-70850000D01*
X113871831Y-65076000D02*
X113194000Y-65076000D01*
X134420000Y-66450000D02*
X115245831Y-66450000D01*
D41*
X117120000Y-64450000D02*
X115720000Y-64450000D01*
X115594000Y-64324000D02*
X115594000Y-63691500D01*
X115720000Y-64450000D02*
X115594000Y-64324000D01*
X115413246Y-65556754D02*
X114794000Y-64937508D01*
X114794000Y-64937508D02*
X114794000Y-63691500D01*
X116320000Y-65049500D02*
X115753814Y-65049500D01*
X115753814Y-65049500D02*
X115194000Y-64489686D01*
X115194000Y-64489686D02*
X115194000Y-63691500D01*
X117461500Y-63691500D02*
X115994000Y-63691500D01*
D40*
X153242000Y-55653249D02*
X152488751Y-54900000D01*
X152488751Y-54900000D02*
X150520000Y-54900000D01*
D41*
X105304000Y-68928000D02*
X107621346Y-68928000D01*
X111994000Y-64555346D02*
X111994000Y-63691500D01*
X107621346Y-68928000D02*
X111994000Y-64555346D01*
X103914000Y-67778000D02*
X108205661Y-67778000D01*
X111594000Y-64389661D02*
X111594000Y-63691500D01*
X102764000Y-68928000D02*
X103914000Y-67778000D01*
X108205661Y-67778000D02*
X111594000Y-64389661D01*
X100224000Y-68928000D02*
X101774000Y-67378000D01*
X108039975Y-67378000D02*
X111194000Y-64223975D01*
X101774000Y-67378000D02*
X108039975Y-67378000D01*
X111194000Y-64223975D02*
X111194000Y-63691500D01*
X122217000Y-62453000D02*
X128442000Y-56228000D01*
X128442000Y-56228000D02*
X129434000Y-56228000D01*
X117762975Y-62453000D02*
X122217000Y-62453000D01*
X117363975Y-62054000D02*
X117762975Y-62453000D01*
X116831500Y-62054000D02*
X117363975Y-62054000D01*
D40*
X129434000Y-57728000D02*
X129434000Y-56228000D01*
D41*
X126420000Y-59750000D02*
X126420000Y-61546000D01*
D40*
X129434000Y-57728000D02*
X126386000Y-60776000D01*
G04 #@! TA.AperFunction,Conductor*
G36*
X108994271Y-63072368D02*
G01*
X109035495Y-63100425D01*
X109062606Y-63142277D01*
X109077600Y-63180300D01*
X109170365Y-63302629D01*
X109170366Y-63302630D01*
X109170368Y-63302632D01*
X109261636Y-63371842D01*
X109298347Y-63416188D01*
X109311500Y-63472238D01*
X109311500Y-63982183D01*
X109295778Y-64043132D01*
X109252536Y-64088870D01*
X109212717Y-64113889D01*
X109083889Y-64242717D01*
X108986956Y-64396985D01*
X108926783Y-64568950D01*
X108906384Y-64749999D01*
X108926783Y-64931049D01*
X108986956Y-65103014D01*
X109083889Y-65257282D01*
X109102921Y-65276314D01*
X109135533Y-65332798D01*
X109135533Y-65398020D01*
X109102921Y-65454504D01*
X107824831Y-66732595D01*
X107783954Y-66759909D01*
X107735736Y-66769500D01*
X101822136Y-66769500D01*
X101805692Y-66768422D01*
X101774000Y-66764250D01*
X101773999Y-66764250D01*
X101760260Y-66766058D01*
X101742307Y-66768422D01*
X101742294Y-66768423D01*
X101634583Y-66782602D01*
X101634562Y-66782605D01*
X101634543Y-66782608D01*
X101620254Y-66784489D01*
X101615147Y-66785162D01*
X101467122Y-66846476D01*
X101375279Y-66916950D01*
X101375251Y-66916973D01*
X101340010Y-66944014D01*
X101320545Y-66969381D01*
X101309681Y-66981768D01*
X100708243Y-67583206D01*
X100647550Y-67616868D01*
X100578240Y-67613285D01*
X100558641Y-67606557D01*
X100558102Y-67606467D01*
X100336569Y-67569500D01*
X100111431Y-67569500D01*
X99889365Y-67606556D01*
X99889362Y-67606556D01*
X99889362Y-67606557D01*
X99676426Y-67679657D01*
X99478421Y-67786812D01*
X99300762Y-67925091D01*
X99148278Y-68090731D01*
X99025139Y-68279209D01*
X98934702Y-68485388D01*
X98880011Y-68701362D01*
X98879436Y-68703632D01*
X98867638Y-68846011D01*
X98861418Y-68921079D01*
X98860844Y-68928000D01*
X98879436Y-69152368D01*
X98879436Y-69152371D01*
X98879437Y-69152372D01*
X98934702Y-69370611D01*
X98934703Y-69370614D01*
X98934704Y-69370616D01*
X98940155Y-69383043D01*
X99025139Y-69576790D01*
X99136212Y-69746799D01*
X99148278Y-69765268D01*
X99291286Y-69920615D01*
X99320746Y-69975085D01*
X99320735Y-69988242D01*
X99347342Y-69986166D01*
X99403599Y-70010950D01*
X99476171Y-70067436D01*
X99478424Y-70069189D01*
X99676426Y-70176342D01*
X99889365Y-70249444D01*
X100111431Y-70286500D01*
X100336566Y-70286500D01*
X100336569Y-70286500D01*
X100558635Y-70249444D01*
X100771574Y-70176342D01*
X100969576Y-70069189D01*
X101147240Y-69930906D01*
X101299722Y-69765268D01*
X101388518Y-69629354D01*
X101434031Y-69587458D01*
X101494000Y-69572272D01*
X101553969Y-69587458D01*
X101599481Y-69629354D01*
X101688278Y-69765268D01*
X101831285Y-69920614D01*
X101840762Y-69930908D01*
X102018421Y-70069187D01*
X102018424Y-70069189D01*
X102216426Y-70176342D01*
X102429365Y-70249444D01*
X102651431Y-70286500D01*
X102876566Y-70286500D01*
X102876569Y-70286500D01*
X103098635Y-70249444D01*
X103311574Y-70176342D01*
X103509576Y-70069189D01*
X103687240Y-69930906D01*
X103748246Y-69864635D01*
X103801716Y-69830238D01*
X103865177Y-69826327D01*
X103922469Y-69853903D01*
X103959000Y-69905942D01*
X104003109Y-70024203D01*
X104090738Y-70141261D01*
X104207794Y-70228888D01*
X104207795Y-70228888D01*
X104207796Y-70228889D01*
X104344799Y-70279989D01*
X104405362Y-70286500D01*
X106202638Y-70286500D01*
X106263201Y-70279989D01*
X106400204Y-70228889D01*
X106517261Y-70141261D01*
X106604889Y-70024204D01*
X106655989Y-69887201D01*
X106662500Y-69826638D01*
X106662500Y-69662500D01*
X106679381Y-69599500D01*
X106725500Y-69553381D01*
X106788500Y-69536500D01*
X107573210Y-69536500D01*
X107589653Y-69537577D01*
X107621346Y-69541750D01*
X107653039Y-69537577D01*
X107653049Y-69537577D01*
X107661230Y-69536500D01*
X107661231Y-69536500D01*
X107760802Y-69523391D01*
X107780197Y-69520838D01*
X107928222Y-69459524D01*
X108023418Y-69386477D01*
X108023418Y-69386476D01*
X108039975Y-69373772D01*
X108039978Y-69373769D01*
X108044094Y-69370611D01*
X108055333Y-69361987D01*
X108074803Y-69336611D01*
X108085655Y-69324238D01*
X112239174Y-65170719D01*
X112298319Y-65137427D01*
X112366156Y-65139648D01*
X112422999Y-65176738D01*
X112452351Y-65237933D01*
X112462418Y-65295021D01*
X112482035Y-65340498D01*
X112532646Y-65457829D01*
X112532647Y-65457831D01*
X112532648Y-65457832D01*
X112638531Y-65600058D01*
X112774360Y-65714032D01*
X112932812Y-65793609D01*
X113105344Y-65834500D01*
X113299917Y-65834500D01*
X113357120Y-65848233D01*
X113401853Y-65886439D01*
X113424366Y-65940789D01*
X113419750Y-65999436D01*
X113389012Y-66049595D01*
X113303889Y-66134717D01*
X113206956Y-66288986D01*
X113191499Y-66333158D01*
X113167481Y-66374414D01*
X113129838Y-66403774D01*
X113083974Y-66417023D01*
X113040352Y-66420986D01*
X112876087Y-66472173D01*
X112728842Y-66561185D01*
X112607185Y-66682842D01*
X112518173Y-66830087D01*
X112466986Y-66994351D01*
X112460500Y-67065735D01*
X112460500Y-67730264D01*
X112466986Y-67801647D01*
X112471454Y-67815985D01*
X112518173Y-67965913D01*
X112584313Y-68075322D01*
X112607185Y-68113157D01*
X112728843Y-68234815D01*
X112799685Y-68277641D01*
X112844248Y-68323571D01*
X112860500Y-68385469D01*
X112860500Y-68921079D01*
X112842741Y-68985576D01*
X112794471Y-69031891D01*
X112761178Y-69049908D01*
X112748418Y-69056814D01*
X112570758Y-69195094D01*
X112509754Y-69261362D01*
X112456282Y-69295762D01*
X112392820Y-69299672D01*
X112335530Y-69272096D01*
X112298998Y-69220056D01*
X112296379Y-69213033D01*
X112254889Y-69101796D01*
X112253124Y-69099438D01*
X112167261Y-68984738D01*
X112050205Y-68897111D01*
X111981702Y-68871561D01*
X111913201Y-68846011D01*
X111852638Y-68839500D01*
X110055362Y-68839500D01*
X109994799Y-68846011D01*
X109857794Y-68897111D01*
X109740738Y-68984738D01*
X109653111Y-69101794D01*
X109615976Y-69201358D01*
X109602011Y-69238799D01*
X109595500Y-69299362D01*
X109595500Y-71096638D01*
X109602011Y-71157201D01*
X109626014Y-71221555D01*
X109653111Y-71294205D01*
X109740738Y-71411261D01*
X109857794Y-71498888D01*
X109857795Y-71498888D01*
X109857796Y-71498889D01*
X109994799Y-71549989D01*
X110055362Y-71556500D01*
X111852638Y-71556500D01*
X111913201Y-71549989D01*
X112050204Y-71498889D01*
X112167261Y-71411261D01*
X112254889Y-71294204D01*
X112298999Y-71175941D01*
X112335530Y-71123903D01*
X112392821Y-71096327D01*
X112456282Y-71100237D01*
X112509753Y-71134636D01*
X112542052Y-71169721D01*
X112570762Y-71200908D01*
X112748316Y-71339105D01*
X112748424Y-71339189D01*
X112946426Y-71446342D01*
X113159365Y-71519444D01*
X113381431Y-71556500D01*
X113606566Y-71556500D01*
X113606569Y-71556500D01*
X113828635Y-71519444D01*
X114041574Y-71446342D01*
X114239576Y-71339189D01*
X114417240Y-71200906D01*
X114569722Y-71035268D01*
X114658818Y-70898896D01*
X114704329Y-70856999D01*
X114764299Y-70841813D01*
X114824268Y-70856999D01*
X114869782Y-70898897D01*
X114958678Y-71034962D01*
X115111096Y-71200533D01*
X115288697Y-71338766D01*
X115486631Y-71445883D01*
X115699485Y-71518955D01*
X115780000Y-71532391D01*
X115780000Y-70452000D01*
X116288000Y-70452000D01*
X116288000Y-71532391D01*
X116368514Y-71518955D01*
X116581368Y-71445883D01*
X116779302Y-71338766D01*
X116956903Y-71200533D01*
X117109321Y-71034962D01*
X117232419Y-70846548D01*
X117322822Y-70640451D01*
X117370544Y-70452000D01*
X116288000Y-70452000D01*
X115780000Y-70452000D01*
X115780000Y-68863609D01*
X116288000Y-68863609D01*
X116288000Y-69944000D01*
X117370544Y-69944000D01*
X117370544Y-69943999D01*
X117322822Y-69755548D01*
X117232419Y-69549451D01*
X117109321Y-69361037D01*
X116956903Y-69195466D01*
X116779302Y-69057233D01*
X116581368Y-68950116D01*
X116368514Y-68877044D01*
X116288000Y-68863609D01*
X115780000Y-68863609D01*
X115699485Y-68877044D01*
X115486631Y-68950116D01*
X115288697Y-69057233D01*
X115111096Y-69195466D01*
X114958678Y-69361037D01*
X114869782Y-69497102D01*
X114824268Y-69539000D01*
X114764299Y-69554186D01*
X114704329Y-69539000D01*
X114658816Y-69497101D01*
X114647194Y-69479312D01*
X114569722Y-69360732D01*
X114417240Y-69195094D01*
X114417239Y-69195093D01*
X114417237Y-69195091D01*
X114239581Y-69056814D01*
X114239577Y-69056811D01*
X114239576Y-69056811D01*
X114193528Y-69031891D01*
X114145259Y-68985576D01*
X114127500Y-68921079D01*
X114127500Y-68286954D01*
X114141233Y-68229751D01*
X114179439Y-68185018D01*
X114233789Y-68162505D01*
X114292436Y-68167121D01*
X114342595Y-68197859D01*
X114379153Y-68234417D01*
X114526293Y-68323366D01*
X114690444Y-68374518D01*
X114761774Y-68381000D01*
X114765000Y-68381000D01*
X114765000Y-67652000D01*
X115273000Y-67652000D01*
X115273000Y-68380999D01*
X115276225Y-68380999D01*
X115347556Y-68374518D01*
X115511706Y-68323366D01*
X115658846Y-68234417D01*
X115780417Y-68112846D01*
X115869366Y-67965706D01*
X115920518Y-67801555D01*
X115927000Y-67730226D01*
X115927000Y-67652000D01*
X115273000Y-67652000D01*
X114765000Y-67652000D01*
X114765000Y-67270000D01*
X114781881Y-67207000D01*
X114828000Y-67160881D01*
X114891000Y-67144000D01*
X114907770Y-67144000D01*
X114964319Y-67157403D01*
X114985828Y-67168205D01*
X115004322Y-67174633D01*
X115005623Y-67174901D01*
X115005624Y-67174902D01*
X115079897Y-67190237D01*
X115083361Y-67191004D01*
X115157175Y-67208500D01*
X115157178Y-67208500D01*
X115158473Y-67208807D01*
X115177942Y-67210796D01*
X115179269Y-67210757D01*
X115179273Y-67210758D01*
X115253528Y-67208597D01*
X115255055Y-67208553D01*
X115258719Y-67208500D01*
X134053629Y-67208500D01*
X134101847Y-67218091D01*
X134142724Y-67245405D01*
X138238092Y-71340773D01*
X138250060Y-71354620D01*
X138264531Y-71374058D01*
X138302868Y-71406226D01*
X138310965Y-71413646D01*
X138314900Y-71417581D01*
X138314904Y-71417584D01*
X138339455Y-71436997D01*
X138342296Y-71439311D01*
X138374072Y-71465974D01*
X138387808Y-71477500D01*
X138401377Y-71488885D01*
X138417890Y-71499405D01*
X138419094Y-71499966D01*
X138419095Y-71499967D01*
X138460859Y-71519442D01*
X138487786Y-71531998D01*
X138491078Y-71533591D01*
X138558812Y-71567609D01*
X138558814Y-71567609D01*
X138560008Y-71568209D01*
X138578490Y-71574633D01*
X138579791Y-71574901D01*
X138579794Y-71574903D01*
X138654078Y-71590241D01*
X138657630Y-71591029D01*
X138731344Y-71608500D01*
X138731346Y-71608500D01*
X138732641Y-71608807D01*
X138752114Y-71610797D01*
X138753439Y-71610758D01*
X138753442Y-71610759D01*
X138827477Y-71608604D01*
X138829259Y-71608553D01*
X138832923Y-71608500D01*
X139277414Y-71608500D01*
X139316351Y-71614667D01*
X139351470Y-71632561D01*
X139363248Y-71641118D01*
X139537712Y-71718794D01*
X139724513Y-71758500D01*
X139915485Y-71758500D01*
X139915487Y-71758500D01*
X140102288Y-71718794D01*
X140276752Y-71641118D01*
X140369134Y-71573998D01*
X140426746Y-71551013D01*
X140488347Y-71558304D01*
X140539004Y-71594104D01*
X140566440Y-71649738D01*
X140564004Y-71711721D01*
X140532288Y-71765030D01*
X135016724Y-77280595D01*
X134975847Y-77307909D01*
X134927629Y-77317500D01*
X108390563Y-77317500D01*
X108332731Y-77303444D01*
X108287802Y-77264413D01*
X108265800Y-77209114D01*
X108271634Y-77149885D01*
X108313216Y-77031049D01*
X108313217Y-77031047D01*
X108333616Y-76850000D01*
X108313217Y-76668953D01*
X108313216Y-76668951D01*
X108311627Y-76654845D01*
X108312238Y-76654776D01*
X108307965Y-76611384D01*
X108329968Y-76556086D01*
X108374897Y-76517056D01*
X108432728Y-76503000D01*
X108550839Y-76503000D01*
X108651239Y-76492743D01*
X108813885Y-76438847D01*
X108959731Y-76348888D01*
X108996905Y-76311715D01*
X109053389Y-76279103D01*
X109118611Y-76279103D01*
X109175095Y-76311715D01*
X109212268Y-76348888D01*
X109358114Y-76438847D01*
X109520760Y-76492743D01*
X109621161Y-76503000D01*
X109666000Y-76503000D01*
X109666000Y-75799000D01*
X110174000Y-75799000D01*
X110174000Y-76503000D01*
X110218839Y-76503000D01*
X110319239Y-76492743D01*
X110481885Y-76438847D01*
X110627731Y-76348888D01*
X110748888Y-76227731D01*
X110838847Y-76081885D01*
X110892743Y-75919239D01*
X110903000Y-75818839D01*
X110903000Y-75799000D01*
X110174000Y-75799000D01*
X109666000Y-75799000D01*
X107312000Y-75799000D01*
X107312000Y-75914000D01*
X107295119Y-75977000D01*
X107249000Y-76023119D01*
X107186000Y-76040000D01*
X106363000Y-76040000D01*
X106363000Y-76759000D01*
X106583531Y-76759000D01*
X106642407Y-76773602D01*
X106687637Y-76814022D01*
X106708737Y-76870889D01*
X106719048Y-76962393D01*
X106707362Y-77031170D01*
X106660876Y-77083187D01*
X106593840Y-77102500D01*
X106189660Y-77102500D01*
X106141442Y-77092909D01*
X106100565Y-77065595D01*
X105891905Y-76856935D01*
X105864591Y-76816058D01*
X105855000Y-76767840D01*
X105855000Y-74812999D01*
X105853031Y-74811030D01*
X105823353Y-74763994D01*
X105816816Y-74708770D01*
X105829728Y-74585926D01*
X105849927Y-74529617D01*
X105893823Y-74488969D01*
X105951519Y-74473149D01*
X106010008Y-74485724D01*
X106040269Y-74510758D01*
X106041249Y-74509591D01*
X106052530Y-74519057D01*
X106052531Y-74519058D01*
X106089406Y-74550000D01*
X106090868Y-74551226D01*
X106098965Y-74558646D01*
X106102900Y-74562581D01*
X106102904Y-74562584D01*
X106127455Y-74581997D01*
X106130296Y-74584311D01*
X106189377Y-74633885D01*
X106205890Y-74644405D01*
X106207094Y-74644966D01*
X106207095Y-74644967D01*
X106217888Y-74650000D01*
X106275786Y-74676998D01*
X106279084Y-74678595D01*
X106293548Y-74685859D01*
X106344241Y-74732310D01*
X106363000Y-74798457D01*
X106363000Y-75532000D01*
X107229000Y-75532000D01*
X107229000Y-75417000D01*
X107245881Y-75354000D01*
X107292000Y-75307881D01*
X107355000Y-75291000D01*
X110903000Y-75291000D01*
X110903000Y-75271161D01*
X110892743Y-75170760D01*
X110838847Y-75008114D01*
X110748888Y-74862268D01*
X110746067Y-74859447D01*
X110713455Y-74802960D01*
X110713457Y-74737735D01*
X110746070Y-74681254D01*
X110749285Y-74678040D01*
X110839302Y-74532101D01*
X110893236Y-74369336D01*
X110903500Y-74268872D01*
X110903500Y-73721128D01*
X110893236Y-73620664D01*
X110839302Y-73457899D01*
X110749285Y-73311960D01*
X110749283Y-73311958D01*
X110749282Y-73311956D01*
X110628043Y-73190717D01*
X110628040Y-73190715D01*
X110482101Y-73100698D01*
X110319336Y-73046764D01*
X110218872Y-73036500D01*
X109621128Y-73036500D01*
X109520664Y-73046764D01*
X109357899Y-73100698D01*
X109342008Y-73110500D01*
X109211956Y-73190717D01*
X109203079Y-73199595D01*
X109162202Y-73226909D01*
X109113984Y-73236500D01*
X109058016Y-73236500D01*
X109009798Y-73226909D01*
X108968921Y-73199595D01*
X108960043Y-73190717D01*
X108960040Y-73190715D01*
X108814101Y-73100698D01*
X108651336Y-73046764D01*
X108550872Y-73036500D01*
X107953128Y-73036500D01*
X107852664Y-73046764D01*
X107689899Y-73100698D01*
X107674008Y-73110500D01*
X107543956Y-73190717D01*
X107535079Y-73199595D01*
X107494202Y-73226909D01*
X107445984Y-73236500D01*
X107398499Y-73236500D01*
X107335499Y-73219619D01*
X107289380Y-73173500D01*
X107272499Y-73110500D01*
X107272499Y-73084576D01*
X107257018Y-72966978D01*
X107254498Y-72960895D01*
X107196409Y-72820655D01*
X107196408Y-72820652D01*
X107099995Y-72695004D01*
X106974346Y-72598591D01*
X106828022Y-72537981D01*
X106710423Y-72522500D01*
X105507576Y-72522500D01*
X105389978Y-72537981D01*
X105243652Y-72598591D01*
X105118004Y-72695004D01*
X105021591Y-72820653D01*
X104960981Y-72966977D01*
X104953931Y-73020533D01*
X104945500Y-73084577D01*
X104945500Y-73330031D01*
X104945501Y-73515500D01*
X104928620Y-73578500D01*
X104882501Y-73624619D01*
X104837052Y-73636797D01*
X104837467Y-73638747D01*
X104824515Y-73641500D01*
X104824513Y-73641500D01*
X104706851Y-73666510D01*
X104637711Y-73681206D01*
X104463246Y-73758883D01*
X104308747Y-73871133D01*
X104180958Y-74013057D01*
X104085472Y-74178443D01*
X104026458Y-74360070D01*
X104006496Y-74550000D01*
X104018811Y-74667171D01*
X104010161Y-74727949D01*
X103973816Y-74777426D01*
X103918406Y-74803855D01*
X103857083Y-74800963D01*
X103804406Y-74769436D01*
X99257827Y-70222857D01*
X99252610Y-70217316D01*
X99231895Y-70193934D01*
X99203587Y-70139367D01*
X99203748Y-70128067D01*
X99177518Y-70130178D01*
X99120880Y-70105138D01*
X99108224Y-70095223D01*
X99098922Y-70091036D01*
X99079068Y-70079839D01*
X99077781Y-70078951D01*
X99070675Y-70074046D01*
X99070673Y-70074045D01*
X99013822Y-70052483D01*
X99006794Y-70049572D01*
X98951329Y-70024610D01*
X98941289Y-70022770D01*
X98919332Y-70016649D01*
X98909801Y-70013035D01*
X98849432Y-70005704D01*
X98841914Y-70004559D01*
X98834153Y-70003137D01*
X98782093Y-69993597D01*
X98721390Y-69997270D01*
X98713782Y-69997500D01*
X97898500Y-69997500D01*
X97835500Y-69980619D01*
X97789381Y-69934500D01*
X97772500Y-69871500D01*
X97772500Y-69807362D01*
X97765989Y-69746799D01*
X97714889Y-69609796D01*
X97710073Y-69603362D01*
X97627261Y-69492738D01*
X97510205Y-69405111D01*
X97448670Y-69382159D01*
X97395191Y-69362213D01*
X97344858Y-69327650D01*
X97316684Y-69273480D01*
X97317287Y-69212424D01*
X97346522Y-69158822D01*
X97489722Y-69003268D01*
X97612860Y-68814791D01*
X97703296Y-68608616D01*
X97758564Y-68390368D01*
X97777156Y-68166000D01*
X97758564Y-67941632D01*
X97723672Y-67803851D01*
X97724338Y-67739471D01*
X97756720Y-67683827D01*
X100162727Y-65277821D01*
X106673469Y-65277821D01*
X106673470Y-65277822D01*
X106712303Y-65300243D01*
X106804376Y-65341558D01*
X106972183Y-65376206D01*
X107143465Y-65371223D01*
X107308979Y-65326874D01*
X107459800Y-65245551D01*
X107587803Y-65131639D01*
X107646883Y-65049821D01*
X107656803Y-65032639D01*
X107656802Y-65032638D01*
X107025470Y-64668138D01*
X107025469Y-64668139D01*
X106673469Y-65277821D01*
X100162727Y-65277821D01*
X101945143Y-63495405D01*
X101986021Y-63468091D01*
X102034239Y-63458500D01*
X103197644Y-63458500D01*
X103259542Y-63474752D01*
X103305472Y-63519315D01*
X103333184Y-63565156D01*
X103454842Y-63686814D01*
X103454844Y-63686815D01*
X103454845Y-63686816D01*
X103602087Y-63775827D01*
X103766351Y-63827013D01*
X103837735Y-63833500D01*
X104352264Y-63833499D01*
X104423649Y-63827013D01*
X104587913Y-63775827D01*
X104735155Y-63686816D01*
X104770356Y-63651615D01*
X104830905Y-63591067D01*
X104887389Y-63558455D01*
X104952611Y-63558455D01*
X105009095Y-63591067D01*
X105104842Y-63686814D01*
X105104844Y-63686815D01*
X105104845Y-63686816D01*
X105252087Y-63775827D01*
X105416351Y-63827013D01*
X105487735Y-63833500D01*
X105860748Y-63833499D01*
X105923746Y-63850380D01*
X105969866Y-63896498D01*
X105986747Y-63959498D01*
X105969867Y-64022498D01*
X105944276Y-64066822D01*
X105902959Y-64158897D01*
X105868312Y-64326703D01*
X105873295Y-64497984D01*
X105917644Y-64663497D01*
X105998966Y-64814316D01*
X106112882Y-64942324D01*
X106194695Y-65001401D01*
X106233529Y-65023822D01*
X106233530Y-65023821D01*
X106585530Y-64414140D01*
X106776530Y-64083318D01*
X106822649Y-64037199D01*
X106885649Y-64020318D01*
X106948649Y-64037199D01*
X107910802Y-64592698D01*
X107920723Y-64575514D01*
X107962039Y-64483444D01*
X107996687Y-64315636D01*
X107991704Y-64144356D01*
X107990671Y-64140500D01*
X107990670Y-64075276D01*
X108023282Y-64018790D01*
X108079769Y-63986179D01*
X108084162Y-63985002D01*
X108235088Y-63903624D01*
X108258200Y-63883055D01*
X108363179Y-63789633D01*
X108387969Y-63755302D01*
X108422300Y-63707760D01*
X108696172Y-63233400D01*
X108737515Y-63141264D01*
X108737515Y-63141263D01*
X108739466Y-63136916D01*
X108767072Y-63097694D01*
X108807336Y-63071629D01*
X108854423Y-63062500D01*
X108945391Y-63062500D01*
X108994271Y-63072368D01*
G37*
G04 #@! TD.AperFunction*
G04 #@! TA.AperFunction,Conductor*
G36*
X114300315Y-57761999D02*
G01*
X114487684Y-57761999D01*
X114576876Y-57751289D01*
X114606922Y-57751289D01*
X114610522Y-57751721D01*
X114610524Y-57751722D01*
X114680219Y-57760091D01*
X114700273Y-57762500D01*
X114700274Y-57762500D01*
X114887725Y-57762500D01*
X114887726Y-57762500D01*
X114977476Y-57751722D01*
X114977479Y-57751720D01*
X114978975Y-57751541D01*
X115009025Y-57751541D01*
X115010520Y-57751720D01*
X115010524Y-57751722D01*
X115100274Y-57762500D01*
X115287725Y-57762500D01*
X115287726Y-57762500D01*
X115377476Y-57751722D01*
X115377479Y-57751720D01*
X115378975Y-57751541D01*
X115409025Y-57751541D01*
X115410520Y-57751720D01*
X115410524Y-57751722D01*
X115500274Y-57762500D01*
X115687724Y-57762500D01*
X115687726Y-57762500D01*
X115753246Y-57754631D01*
X115809444Y-57760651D01*
X115857360Y-57790635D01*
X115887346Y-57838551D01*
X115893367Y-57894754D01*
X115885500Y-57960270D01*
X115885500Y-58147728D01*
X115896458Y-58238976D01*
X115896458Y-58269022D01*
X115885500Y-58360272D01*
X115885500Y-58547730D01*
X115896457Y-58638977D01*
X115896457Y-58669021D01*
X115885500Y-58760270D01*
X115885500Y-58947728D01*
X115896458Y-59038976D01*
X115896458Y-59069022D01*
X115885500Y-59160272D01*
X115885500Y-59347730D01*
X115896457Y-59438978D01*
X115896457Y-59469022D01*
X115885500Y-59560270D01*
X115885500Y-59747728D01*
X115896458Y-59838976D01*
X115896458Y-59869022D01*
X115885500Y-59960272D01*
X115885500Y-60147730D01*
X115896710Y-60241083D01*
X115896710Y-60271128D01*
X115886000Y-60360315D01*
X115886000Y-60547684D01*
X115896963Y-60638976D01*
X115896963Y-60669021D01*
X115886000Y-60760315D01*
X115886000Y-60947685D01*
X115896710Y-61036874D01*
X115896710Y-61066917D01*
X115885500Y-61160270D01*
X115885500Y-61347730D01*
X115896457Y-61438978D01*
X115896457Y-61469022D01*
X115885500Y-61560270D01*
X115885500Y-61747730D01*
X115896457Y-61838978D01*
X115896457Y-61869022D01*
X115885500Y-61960270D01*
X115885500Y-62147728D01*
X115896458Y-62238976D01*
X115896458Y-62269022D01*
X115885500Y-62360272D01*
X115885500Y-62547730D01*
X115893367Y-62613244D01*
X115887347Y-62669446D01*
X115857361Y-62717361D01*
X115809446Y-62747347D01*
X115753244Y-62753367D01*
X115687730Y-62745500D01*
X115687726Y-62745500D01*
X115500274Y-62745500D01*
X115500270Y-62745500D01*
X115409023Y-62756457D01*
X115378979Y-62756457D01*
X115287730Y-62745500D01*
X115287726Y-62745500D01*
X115100274Y-62745500D01*
X115100270Y-62745500D01*
X115009023Y-62756457D01*
X114978979Y-62756457D01*
X114887730Y-62745500D01*
X114887726Y-62745500D01*
X114700274Y-62745500D01*
X114700270Y-62745500D01*
X114606918Y-62756710D01*
X114576873Y-62756710D01*
X114487684Y-62746000D01*
X114300314Y-62746000D01*
X114211127Y-62756710D01*
X114181084Y-62756710D01*
X114087730Y-62745500D01*
X114087726Y-62745500D01*
X113900274Y-62745500D01*
X113900270Y-62745500D01*
X113809023Y-62756457D01*
X113778979Y-62756457D01*
X113687730Y-62745500D01*
X113687726Y-62745500D01*
X113500274Y-62745500D01*
X113500270Y-62745500D01*
X113409023Y-62756457D01*
X113378979Y-62756457D01*
X113287730Y-62745500D01*
X113287726Y-62745500D01*
X113100274Y-62745500D01*
X113100270Y-62745500D01*
X113009023Y-62756457D01*
X112978979Y-62756457D01*
X112887730Y-62745500D01*
X112887726Y-62745500D01*
X112700274Y-62745500D01*
X112700270Y-62745500D01*
X112609023Y-62756457D01*
X112578979Y-62756457D01*
X112487730Y-62745500D01*
X112487726Y-62745500D01*
X112300274Y-62745500D01*
X112300270Y-62745500D01*
X112209023Y-62756457D01*
X112178979Y-62756457D01*
X112087730Y-62745500D01*
X112087726Y-62745500D01*
X111900274Y-62745500D01*
X111900270Y-62745500D01*
X111809023Y-62756457D01*
X111778979Y-62756457D01*
X111687730Y-62745500D01*
X111687726Y-62745500D01*
X111500274Y-62745500D01*
X111500270Y-62745500D01*
X111409023Y-62756457D01*
X111378979Y-62756457D01*
X111287730Y-62745500D01*
X111287726Y-62745500D01*
X111100274Y-62745500D01*
X111100270Y-62745500D01*
X111034755Y-62753367D01*
X110978552Y-62747346D01*
X110930637Y-62717361D01*
X110900652Y-62669445D01*
X110894632Y-62613242D01*
X110902500Y-62547727D01*
X110902500Y-62360275D01*
X110900260Y-62341625D01*
X110891722Y-62270524D01*
X110891720Y-62270519D01*
X110891288Y-62266921D01*
X110891288Y-62236871D01*
X110901999Y-62147681D01*
X110901999Y-61960315D01*
X110891289Y-61871124D01*
X110891289Y-61841078D01*
X110892494Y-61831049D01*
X110902500Y-61747726D01*
X110902500Y-61560274D01*
X110891722Y-61470524D01*
X110891720Y-61470520D01*
X110891541Y-61469025D01*
X110891541Y-61438975D01*
X110891720Y-61437479D01*
X110891722Y-61437476D01*
X110902500Y-61347726D01*
X110902500Y-61160274D01*
X110891722Y-61070524D01*
X110891720Y-61070519D01*
X110891288Y-61066921D01*
X110891288Y-61036871D01*
X110901999Y-60947681D01*
X110901999Y-60760315D01*
X110891036Y-60669020D01*
X110891036Y-60638974D01*
X110901999Y-60547682D01*
X110901999Y-60360315D01*
X110891036Y-60269020D01*
X110891036Y-60238974D01*
X110901999Y-60147682D01*
X110901999Y-59960315D01*
X110891289Y-59871124D01*
X110891289Y-59841078D01*
X110895150Y-59808933D01*
X110902500Y-59747726D01*
X110902500Y-59560274D01*
X110891722Y-59470524D01*
X110891720Y-59470521D01*
X110891541Y-59469023D01*
X110891541Y-59438974D01*
X110891720Y-59437479D01*
X110891722Y-59437476D01*
X110902500Y-59347726D01*
X110902500Y-59160274D01*
X110891722Y-59070524D01*
X110891721Y-59070522D01*
X110891541Y-59069021D01*
X110891541Y-59050000D01*
X111206496Y-59050000D01*
X111226458Y-59239929D01*
X111279333Y-59402659D01*
X111285500Y-59441595D01*
X111285500Y-61902638D01*
X111292011Y-61963201D01*
X111298389Y-61980300D01*
X111343111Y-62100205D01*
X111430738Y-62217261D01*
X111547794Y-62304888D01*
X111547795Y-62304888D01*
X111547796Y-62304889D01*
X111684799Y-62355989D01*
X111745362Y-62362500D01*
X115042638Y-62362500D01*
X115103201Y-62355989D01*
X115240204Y-62304889D01*
X115357261Y-62217261D01*
X115444889Y-62100204D01*
X115495989Y-61963201D01*
X115502500Y-61902638D01*
X115502500Y-61693869D01*
X115508667Y-61654932D01*
X115513542Y-61639927D01*
X115518816Y-61589747D01*
X115533504Y-61450000D01*
X115513542Y-61260072D01*
X115508667Y-61245068D01*
X115502500Y-61206131D01*
X115502500Y-59293869D01*
X115508667Y-59254932D01*
X115510269Y-59250000D01*
X115513542Y-59239928D01*
X115533504Y-59050000D01*
X115513542Y-58860072D01*
X115508667Y-58845068D01*
X115502500Y-58806131D01*
X115502500Y-58605362D01*
X115495989Y-58544799D01*
X115444889Y-58407796D01*
X115444888Y-58407794D01*
X115357261Y-58290738D01*
X115240205Y-58203111D01*
X115171702Y-58177560D01*
X115103201Y-58152011D01*
X115042638Y-58145500D01*
X114747547Y-58145500D01*
X114721349Y-58142746D01*
X114715487Y-58141500D01*
X114524513Y-58141500D01*
X114518650Y-58142746D01*
X114492453Y-58145500D01*
X112247547Y-58145500D01*
X112221349Y-58142746D01*
X112215487Y-58141500D01*
X112024513Y-58141500D01*
X112018650Y-58142746D01*
X111992453Y-58145500D01*
X111745362Y-58145500D01*
X111684799Y-58152011D01*
X111547794Y-58203111D01*
X111430738Y-58290738D01*
X111343111Y-58407794D01*
X111292011Y-58544799D01*
X111285500Y-58605362D01*
X111285500Y-58658405D01*
X111279333Y-58697341D01*
X111226458Y-58860070D01*
X111206496Y-59050000D01*
X110891541Y-59050000D01*
X110891541Y-59038972D01*
X110891720Y-59037480D01*
X110891722Y-59037476D01*
X110902500Y-58947726D01*
X110902500Y-58760274D01*
X110891722Y-58670524D01*
X110891720Y-58670520D01*
X110891541Y-58669025D01*
X110891541Y-58638975D01*
X110891720Y-58637479D01*
X110891722Y-58637476D01*
X110902500Y-58547726D01*
X110902500Y-58360274D01*
X110901568Y-58352517D01*
X110894157Y-58290800D01*
X110891722Y-58270524D01*
X110891721Y-58270522D01*
X110891541Y-58269021D01*
X110891541Y-58238972D01*
X110891720Y-58237480D01*
X110891722Y-58237476D01*
X110902500Y-58147726D01*
X110902500Y-57960274D01*
X110894632Y-57894754D01*
X110900652Y-57838552D01*
X110930638Y-57790636D01*
X110978555Y-57760651D01*
X111034752Y-57754631D01*
X111100274Y-57762500D01*
X111287725Y-57762500D01*
X111287726Y-57762500D01*
X111377476Y-57751722D01*
X111377479Y-57751720D01*
X111378975Y-57751541D01*
X111409025Y-57751541D01*
X111410520Y-57751720D01*
X111410524Y-57751722D01*
X111500274Y-57762500D01*
X111687725Y-57762500D01*
X111687726Y-57762500D01*
X111777476Y-57751722D01*
X111777479Y-57751720D01*
X111778975Y-57751541D01*
X111809025Y-57751541D01*
X111810520Y-57751720D01*
X111810524Y-57751722D01*
X111900274Y-57762500D01*
X112087725Y-57762500D01*
X112087726Y-57762500D01*
X112177476Y-57751722D01*
X112177479Y-57751720D01*
X112178975Y-57751541D01*
X112209025Y-57751541D01*
X112210520Y-57751720D01*
X112210524Y-57751722D01*
X112300274Y-57762500D01*
X112487725Y-57762500D01*
X112487726Y-57762500D01*
X112577476Y-57751722D01*
X112577479Y-57751720D01*
X112578975Y-57751541D01*
X112609025Y-57751541D01*
X112610520Y-57751720D01*
X112610524Y-57751722D01*
X112700274Y-57762500D01*
X112887725Y-57762500D01*
X112887726Y-57762500D01*
X112977476Y-57751722D01*
X112977479Y-57751720D01*
X112978975Y-57751541D01*
X113009025Y-57751541D01*
X113010520Y-57751720D01*
X113010524Y-57751722D01*
X113100274Y-57762500D01*
X113287725Y-57762500D01*
X113287726Y-57762500D01*
X113377476Y-57751722D01*
X113377479Y-57751720D01*
X113378975Y-57751541D01*
X113409025Y-57751541D01*
X113410520Y-57751720D01*
X113410524Y-57751722D01*
X113500274Y-57762500D01*
X113687725Y-57762500D01*
X113687726Y-57762500D01*
X113777476Y-57751722D01*
X113777479Y-57751720D01*
X113778975Y-57751541D01*
X113809025Y-57751541D01*
X113810520Y-57751720D01*
X113810524Y-57751722D01*
X113900274Y-57762500D01*
X114087726Y-57762500D01*
X114087727Y-57762500D01*
X114104234Y-57760517D01*
X114177476Y-57751722D01*
X114177477Y-57751721D01*
X114181077Y-57751289D01*
X114211124Y-57751289D01*
X114300315Y-57761999D01*
G37*
G04 #@! TD.AperFunction*
G04 #@! TA.AperFunction,Conductor*
G36*
X164857000Y-49916881D02*
G01*
X164903119Y-49963000D01*
X164920000Y-50026000D01*
X164920000Y-69702358D01*
X164903935Y-69763924D01*
X164859835Y-69809791D01*
X164798947Y-69828261D01*
X164736797Y-69814625D01*
X164689235Y-69772360D01*
X164668388Y-69712244D01*
X164664535Y-69663288D01*
X164635356Y-69541749D01*
X164609105Y-69432406D01*
X164518240Y-69213037D01*
X164517864Y-69212424D01*
X164394176Y-69010584D01*
X164239969Y-68830030D01*
X164059415Y-68675823D01*
X163856966Y-68551761D01*
X163637594Y-68460895D01*
X163406711Y-68405464D01*
X163170000Y-68386835D01*
X162933288Y-68405464D01*
X162702405Y-68460895D01*
X162483033Y-68551761D01*
X162280584Y-68675823D01*
X162100030Y-68830030D01*
X161945823Y-69010584D01*
X161821761Y-69213033D01*
X161730895Y-69432405D01*
X161675464Y-69663288D01*
X161656835Y-69900000D01*
X161675464Y-70136711D01*
X161730895Y-70367594D01*
X161821761Y-70586966D01*
X161945823Y-70789415D01*
X162100030Y-70969969D01*
X162280584Y-71124176D01*
X162483033Y-71248238D01*
X162483035Y-71248238D01*
X162483037Y-71248240D01*
X162702406Y-71339105D01*
X162877858Y-71381227D01*
X162933288Y-71394535D01*
X162950558Y-71395894D01*
X163170000Y-71413165D01*
X163406711Y-71394535D01*
X163637594Y-71339105D01*
X163856963Y-71248240D01*
X164059416Y-71124176D01*
X164239969Y-70969969D01*
X164394176Y-70789416D01*
X164518240Y-70586963D01*
X164609105Y-70367594D01*
X164664535Y-70136711D01*
X164668387Y-70087756D01*
X164689235Y-70027640D01*
X164736797Y-69985375D01*
X164798947Y-69971739D01*
X164859835Y-69990209D01*
X164903935Y-70036076D01*
X164920000Y-70097642D01*
X164920000Y-74202358D01*
X164903935Y-74263924D01*
X164859835Y-74309791D01*
X164798947Y-74328261D01*
X164736797Y-74314625D01*
X164689235Y-74272360D01*
X164668388Y-74212244D01*
X164664535Y-74163288D01*
X164635177Y-74041004D01*
X164609105Y-73932406D01*
X164518240Y-73713037D01*
X164497161Y-73678640D01*
X164394176Y-73510584D01*
X164239969Y-73330030D01*
X164059415Y-73175823D01*
X163856966Y-73051761D01*
X163637594Y-72960895D01*
X163406711Y-72905464D01*
X163170000Y-72886835D01*
X162933288Y-72905464D01*
X162702405Y-72960895D01*
X162483033Y-73051761D01*
X162280584Y-73175823D01*
X162100030Y-73330030D01*
X161945823Y-73510584D01*
X161821761Y-73713033D01*
X161730895Y-73932405D01*
X161675464Y-74163288D01*
X161656835Y-74399999D01*
X161675464Y-74636711D01*
X161730895Y-74867594D01*
X161821761Y-75086966D01*
X161945823Y-75289415D01*
X162100030Y-75469969D01*
X162280584Y-75624176D01*
X162483033Y-75748238D01*
X162483035Y-75748238D01*
X162483037Y-75748240D01*
X162702406Y-75839105D01*
X162848488Y-75874176D01*
X162933288Y-75894535D01*
X162951917Y-75896001D01*
X163170000Y-75913165D01*
X163406711Y-75894535D01*
X163637594Y-75839105D01*
X163856963Y-75748240D01*
X164059416Y-75624176D01*
X164239969Y-75469969D01*
X164394176Y-75289416D01*
X164518240Y-75086963D01*
X164609105Y-74867594D01*
X164664535Y-74636711D01*
X164668387Y-74587756D01*
X164689235Y-74527640D01*
X164736797Y-74485375D01*
X164798947Y-74471739D01*
X164859835Y-74490209D01*
X164903935Y-74536076D01*
X164920000Y-74597642D01*
X164920000Y-84274000D01*
X164903119Y-84337000D01*
X164857000Y-84383119D01*
X164794000Y-84400000D01*
X85550000Y-84400000D01*
X85487000Y-84383119D01*
X85440881Y-84337000D01*
X85424000Y-84274000D01*
X85424000Y-80717766D01*
X87315787Y-80717766D01*
X87345413Y-80987015D01*
X87345414Y-80987018D01*
X87413928Y-81249088D01*
X87519870Y-81498390D01*
X87660982Y-81729610D01*
X87834255Y-81937820D01*
X87834256Y-81937821D01*
X87834258Y-81937823D01*
X88035993Y-82118578D01*
X88035995Y-82118579D01*
X88035998Y-82118582D01*
X88261910Y-82268044D01*
X88394104Y-82330014D01*
X88507171Y-82383018D01*
X88507173Y-82383018D01*
X88507176Y-82383020D01*
X88766569Y-82461060D01*
X88766572Y-82461060D01*
X88766574Y-82461061D01*
X89034558Y-82500500D01*
X89034561Y-82500500D01*
X89237630Y-82500500D01*
X89237631Y-82500500D01*
X89440156Y-82485677D01*
X89704553Y-82426780D01*
X89957558Y-82330014D01*
X90193777Y-82197441D01*
X90408177Y-82031888D01*
X90596186Y-81836881D01*
X90753799Y-81616579D01*
X90877656Y-81375675D01*
X90965118Y-81119305D01*
X91014319Y-80852933D01*
X91019259Y-80717766D01*
X159315787Y-80717766D01*
X159345413Y-80987015D01*
X159345414Y-80987018D01*
X159413928Y-81249088D01*
X159519870Y-81498390D01*
X159660982Y-81729610D01*
X159834255Y-81937820D01*
X159834256Y-81937821D01*
X159834258Y-81937823D01*
X160035993Y-82118578D01*
X160035995Y-82118579D01*
X160035998Y-82118582D01*
X160261910Y-82268044D01*
X160394104Y-82330014D01*
X160507171Y-82383018D01*
X160507173Y-82383018D01*
X160507176Y-82383020D01*
X160766569Y-82461060D01*
X160766572Y-82461060D01*
X160766574Y-82461061D01*
X161034558Y-82500500D01*
X161034561Y-82500500D01*
X161237630Y-82500500D01*
X161237631Y-82500500D01*
X161440156Y-82485677D01*
X161704553Y-82426780D01*
X161957558Y-82330014D01*
X162193777Y-82197441D01*
X162408177Y-82031888D01*
X162596186Y-81836881D01*
X162753799Y-81616579D01*
X162877656Y-81375675D01*
X162965118Y-81119305D01*
X163014319Y-80852933D01*
X163024212Y-80582235D01*
X162994586Y-80312982D01*
X162926072Y-80050912D01*
X162820130Y-79801610D01*
X162679018Y-79570390D01*
X162505745Y-79362180D01*
X162400759Y-79268112D01*
X162304006Y-79181421D01*
X162304003Y-79181419D01*
X162304002Y-79181418D01*
X162078090Y-79031956D01*
X162078086Y-79031954D01*
X161832828Y-78916981D01*
X161573425Y-78838938D01*
X161305442Y-78799500D01*
X161305439Y-78799500D01*
X161102369Y-78799500D01*
X161068614Y-78801970D01*
X160899839Y-78814323D01*
X160635449Y-78873219D01*
X160382441Y-78969985D01*
X160146225Y-79102557D01*
X159931820Y-79268114D01*
X159743815Y-79463117D01*
X159586200Y-79683422D01*
X159462342Y-79924328D01*
X159374882Y-80180693D01*
X159325681Y-80447065D01*
X159315787Y-80717766D01*
X91019259Y-80717766D01*
X91024212Y-80582235D01*
X90994586Y-80312982D01*
X90926072Y-80050912D01*
X90820130Y-79801610D01*
X90679018Y-79570390D01*
X90505745Y-79362180D01*
X90400759Y-79268112D01*
X90304006Y-79181421D01*
X90304003Y-79181419D01*
X90304002Y-79181418D01*
X90078090Y-79031956D01*
X90078086Y-79031954D01*
X89832828Y-78916981D01*
X89573425Y-78838938D01*
X89305442Y-78799500D01*
X89305439Y-78799500D01*
X89102369Y-78799500D01*
X89068614Y-78801970D01*
X88899839Y-78814323D01*
X88635449Y-78873219D01*
X88382441Y-78969985D01*
X88146225Y-79102557D01*
X87931820Y-79268114D01*
X87743815Y-79463117D01*
X87586200Y-79683422D01*
X87462342Y-79924328D01*
X87374882Y-80180693D01*
X87325681Y-80447065D01*
X87315787Y-80717766D01*
X85424000Y-80717766D01*
X85424000Y-77339581D01*
X98255500Y-77339581D01*
X98258353Y-77375835D01*
X98303431Y-77530995D01*
X98385680Y-77670070D01*
X98499929Y-77784319D01*
X98499931Y-77784320D01*
X98639005Y-77866569D01*
X98794165Y-77911647D01*
X98830415Y-77914500D01*
X100007584Y-77914499D01*
X100043835Y-77911647D01*
X100198995Y-77866569D01*
X100338069Y-77784320D01*
X100452320Y-77670069D01*
X100534569Y-77530995D01*
X100579647Y-77375835D01*
X100582500Y-77339585D01*
X100582499Y-74232416D01*
X100579647Y-74196165D01*
X100534569Y-74041005D01*
X100470343Y-73932406D01*
X100452319Y-73901929D01*
X100338070Y-73787680D01*
X100198995Y-73705431D01*
X100043836Y-73660353D01*
X100036584Y-73659782D01*
X100007585Y-73657500D01*
X100007581Y-73657500D01*
X98830418Y-73657500D01*
X98794164Y-73660353D01*
X98639004Y-73705431D01*
X98499929Y-73787680D01*
X98385680Y-73901929D01*
X98303431Y-74041004D01*
X98258353Y-74196163D01*
X98255500Y-74232418D01*
X98255500Y-77339581D01*
X85424000Y-77339581D01*
X85424000Y-71470000D01*
X86305619Y-71470000D01*
X86325091Y-71667701D01*
X86382758Y-71857802D01*
X86476406Y-72033007D01*
X86602431Y-72186568D01*
X86755992Y-72312593D01*
X86755996Y-72312595D01*
X86931196Y-72406241D01*
X87026247Y-72435074D01*
X87121298Y-72463908D01*
X87269450Y-72478500D01*
X87269453Y-72478500D01*
X88168547Y-72478500D01*
X88168550Y-72478500D01*
X88316701Y-72463908D01*
X88343561Y-72455760D01*
X88506804Y-72406241D01*
X88682004Y-72312595D01*
X88682005Y-72312593D01*
X88682007Y-72312593D01*
X88835568Y-72186568D01*
X88961593Y-72033007D01*
X88973272Y-72011157D01*
X89055241Y-71857804D01*
X89112908Y-71667701D01*
X89132380Y-71470000D01*
X90355619Y-71470000D01*
X90375091Y-71667701D01*
X90432758Y-71857802D01*
X90526406Y-72033007D01*
X90652431Y-72186568D01*
X90805992Y-72312593D01*
X90805996Y-72312595D01*
X90981196Y-72406241D01*
X91076247Y-72435074D01*
X91171298Y-72463908D01*
X91319450Y-72478500D01*
X91319453Y-72478500D01*
X92518547Y-72478500D01*
X92518550Y-72478500D01*
X92666701Y-72463908D01*
X92693561Y-72455760D01*
X92856804Y-72406241D01*
X93032004Y-72312595D01*
X93032005Y-72312593D01*
X93032007Y-72312593D01*
X93185568Y-72186568D01*
X93311593Y-72033007D01*
X93323272Y-72011157D01*
X93405241Y-71857804D01*
X93462908Y-71667701D01*
X93482380Y-71470000D01*
X93462908Y-71272299D01*
X93431790Y-71169718D01*
X93427170Y-71118930D01*
X93443061Y-71070468D01*
X93476855Y-71032279D01*
X93502261Y-71013261D01*
X93589889Y-70896204D01*
X93640989Y-70759201D01*
X93647500Y-70698638D01*
X93647500Y-70001362D01*
X93643426Y-69963468D01*
X93643426Y-69936531D01*
X93647500Y-69898638D01*
X93647500Y-69585174D01*
X93666813Y-69518138D01*
X93718830Y-69471652D01*
X93787606Y-69459966D01*
X93820000Y-69463616D01*
X94001047Y-69443217D01*
X94173015Y-69383043D01*
X94327281Y-69286111D01*
X94456111Y-69157281D01*
X94553043Y-69003015D01*
X94613217Y-68831047D01*
X94633616Y-68650000D01*
X94633234Y-68646610D01*
X94644918Y-68577833D01*
X94691404Y-68525814D01*
X94758441Y-68506501D01*
X95000776Y-68506501D01*
X95054550Y-68518552D01*
X95098038Y-68552401D01*
X95122919Y-68601568D01*
X95124704Y-68608616D01*
X95154184Y-68675824D01*
X95215139Y-68814790D01*
X95338278Y-69003268D01*
X95481475Y-69158820D01*
X95510712Y-69212424D01*
X95511315Y-69273480D01*
X95483141Y-69327650D01*
X95432808Y-69362213D01*
X95410293Y-69370611D01*
X95317793Y-69405111D01*
X95200738Y-69492738D01*
X95113111Y-69609794D01*
X95062011Y-69746799D01*
X95055500Y-69807362D01*
X95055500Y-71203641D01*
X95038023Y-71267663D01*
X94990439Y-71313924D01*
X94925951Y-71329591D01*
X94887697Y-71317980D01*
X94886415Y-71321646D01*
X94701049Y-71256783D01*
X94520000Y-71236384D01*
X94338950Y-71256783D01*
X94166985Y-71316956D01*
X94012717Y-71413889D01*
X93883889Y-71542717D01*
X93786956Y-71696985D01*
X93726783Y-71868950D01*
X93706384Y-72050000D01*
X93726783Y-72231049D01*
X93781041Y-72386109D01*
X93784953Y-72455760D01*
X93751211Y-72516816D01*
X93733185Y-72534843D01*
X93644173Y-72682087D01*
X93592986Y-72846351D01*
X93586500Y-72917735D01*
X93586500Y-73582264D01*
X93592986Y-73653647D01*
X93611493Y-73713037D01*
X93644173Y-73817913D01*
X93694963Y-73901929D01*
X93733185Y-73965157D01*
X93854842Y-74086814D01*
X93854844Y-74086815D01*
X93854845Y-74086816D01*
X94002087Y-74175827D01*
X94166351Y-74227013D01*
X94237735Y-74233500D01*
X94752264Y-74233499D01*
X94823649Y-74227013D01*
X94987913Y-74175827D01*
X95135155Y-74086816D01*
X95180967Y-74041004D01*
X95230905Y-73991067D01*
X95287389Y-73958455D01*
X95352611Y-73958455D01*
X95409095Y-73991067D01*
X95504842Y-74086814D01*
X95504844Y-74086815D01*
X95504845Y-74086816D01*
X95652087Y-74175827D01*
X95816351Y-74227013D01*
X95887735Y-74233500D01*
X96402264Y-74233499D01*
X96473649Y-74227013D01*
X96637913Y-74175827D01*
X96785155Y-74086816D01*
X96906816Y-73965155D01*
X96995827Y-73817913D01*
X97047013Y-73653649D01*
X97053500Y-73582265D01*
X97053499Y-72917736D01*
X97047013Y-72846351D01*
X97028205Y-72785992D01*
X97022500Y-72748508D01*
X97022500Y-72190500D01*
X97039381Y-72127500D01*
X97085500Y-72081381D01*
X97148500Y-72064500D01*
X97312638Y-72064500D01*
X97373201Y-72057989D01*
X97510204Y-72006889D01*
X97627261Y-71919261D01*
X97714889Y-71802204D01*
X97765989Y-71665201D01*
X97772500Y-71604638D01*
X97772500Y-71540500D01*
X97789381Y-71477500D01*
X97835500Y-71431381D01*
X97898500Y-71414500D01*
X98393340Y-71414500D01*
X98441558Y-71424091D01*
X98482435Y-71451405D01*
X104908595Y-77877565D01*
X104935909Y-77918442D01*
X104945500Y-77966660D01*
X104945500Y-78487423D01*
X104960981Y-78605021D01*
X105021591Y-78751347D01*
X105118004Y-78876995D01*
X105243653Y-78973408D01*
X105243654Y-78973408D01*
X105243655Y-78973409D01*
X105389977Y-79034018D01*
X105507577Y-79049500D01*
X106710422Y-79049499D01*
X106710423Y-79049499D01*
X106749622Y-79044338D01*
X106828023Y-79034018D01*
X106974345Y-78973409D01*
X107099995Y-78876995D01*
X107099995Y-78876994D01*
X107113156Y-78866896D01*
X107114011Y-78868010D01*
X107139008Y-78847495D01*
X107194739Y-78834500D01*
X135229559Y-78834500D01*
X135247820Y-78835830D01*
X135271789Y-78839341D01*
X135318253Y-78835275D01*
X135321647Y-78834979D01*
X135332628Y-78834500D01*
X135338177Y-78834500D01*
X135338180Y-78834500D01*
X135369301Y-78830861D01*
X135372889Y-78830495D01*
X135448426Y-78823887D01*
X135448430Y-78823885D01*
X135449751Y-78823770D01*
X135468856Y-78819535D01*
X135470106Y-78819079D01*
X135470113Y-78819079D01*
X135541400Y-78793132D01*
X135544769Y-78791961D01*
X135616738Y-78768114D01*
X135616739Y-78768112D01*
X135618007Y-78767693D01*
X135635613Y-78759169D01*
X135636725Y-78758437D01*
X135636732Y-78758435D01*
X135700138Y-78716730D01*
X135703161Y-78714806D01*
X135767651Y-78675030D01*
X135767652Y-78675028D01*
X135768788Y-78674328D01*
X135783959Y-78661970D01*
X135784871Y-78661002D01*
X135784874Y-78661001D01*
X135836929Y-78605824D01*
X135839448Y-78603231D01*
X140234688Y-74207991D01*
X140290533Y-74175554D01*
X140355116Y-74175046D01*
X140411466Y-74206604D01*
X140444778Y-74261935D01*
X140446300Y-74326501D01*
X140425465Y-74413286D01*
X140406835Y-74649999D01*
X140425464Y-74886711D01*
X140480895Y-75117594D01*
X140571761Y-75336966D01*
X140695823Y-75539415D01*
X140850030Y-75719969D01*
X141030584Y-75874176D01*
X141233033Y-75998238D01*
X141233035Y-75998238D01*
X141233037Y-75998240D01*
X141452406Y-76089105D01*
X141627857Y-76131227D01*
X141683288Y-76144535D01*
X141701918Y-76146001D01*
X141920000Y-76163165D01*
X142156711Y-76144535D01*
X142387594Y-76089105D01*
X142606963Y-75998240D01*
X142809416Y-75874176D01*
X142989969Y-75719969D01*
X143074189Y-75621359D01*
X143117249Y-75588764D01*
X143170000Y-75577190D01*
X143222751Y-75588764D01*
X143265811Y-75621360D01*
X143350030Y-75719969D01*
X143530584Y-75874176D01*
X143733033Y-75998238D01*
X143733035Y-75998238D01*
X143733037Y-75998240D01*
X143952406Y-76089105D01*
X144127857Y-76131227D01*
X144183288Y-76144535D01*
X144201918Y-76146001D01*
X144420000Y-76163165D01*
X144656711Y-76144535D01*
X144887594Y-76089105D01*
X145106963Y-75998240D01*
X145309416Y-75874176D01*
X145489969Y-75719969D01*
X145574189Y-75621359D01*
X145617249Y-75588764D01*
X145670000Y-75577190D01*
X145722751Y-75588764D01*
X145765811Y-75621360D01*
X145850030Y-75719969D01*
X146030584Y-75874176D01*
X146233033Y-75998238D01*
X146233035Y-75998238D01*
X146233037Y-75998240D01*
X146452406Y-76089105D01*
X146627857Y-76131227D01*
X146683288Y-76144535D01*
X146701918Y-76146001D01*
X146920000Y-76163165D01*
X147156711Y-76144535D01*
X147387594Y-76089105D01*
X147606963Y-75998240D01*
X147809416Y-75874176D01*
X147989969Y-75719969D01*
X148144176Y-75539416D01*
X148268240Y-75336963D01*
X148359105Y-75117594D01*
X148414535Y-74886711D01*
X148433165Y-74650000D01*
X148414535Y-74413289D01*
X148414534Y-74413286D01*
X148411344Y-74399999D01*
X155156835Y-74399999D01*
X155175464Y-74636711D01*
X155230895Y-74867594D01*
X155321761Y-75086966D01*
X155445823Y-75289415D01*
X155600030Y-75469969D01*
X155780584Y-75624176D01*
X155983033Y-75748238D01*
X155983035Y-75748238D01*
X155983037Y-75748240D01*
X156202406Y-75839105D01*
X156348488Y-75874176D01*
X156433288Y-75894535D01*
X156451917Y-75896001D01*
X156670000Y-75913165D01*
X156906711Y-75894535D01*
X157137594Y-75839105D01*
X157356963Y-75748240D01*
X157559416Y-75624176D01*
X157739969Y-75469969D01*
X157894176Y-75289416D01*
X158018240Y-75086963D01*
X158109105Y-74867594D01*
X158164535Y-74636711D01*
X158183165Y-74400000D01*
X158164535Y-74163289D01*
X158109105Y-73932406D01*
X158018240Y-73713037D01*
X157997161Y-73678640D01*
X157894176Y-73510584D01*
X157739969Y-73330030D01*
X157559415Y-73175823D01*
X157356966Y-73051761D01*
X157137594Y-72960895D01*
X156906711Y-72905464D01*
X156670000Y-72886835D01*
X156433288Y-72905464D01*
X156202405Y-72960895D01*
X155983033Y-73051761D01*
X155780584Y-73175823D01*
X155600030Y-73330030D01*
X155445823Y-73510584D01*
X155321761Y-73713033D01*
X155230895Y-73932405D01*
X155175464Y-74163288D01*
X155156835Y-74399999D01*
X148411344Y-74399999D01*
X148401227Y-74357857D01*
X148359105Y-74182406D01*
X148268240Y-73963037D01*
X148265432Y-73958455D01*
X148144176Y-73760584D01*
X147989969Y-73580030D01*
X147809415Y-73425823D01*
X147606966Y-73301761D01*
X147387594Y-73210895D01*
X147156711Y-73155464D01*
X146920000Y-73136835D01*
X146683288Y-73155464D01*
X146452405Y-73210895D01*
X146233033Y-73301761D01*
X146030584Y-73425823D01*
X145850033Y-73580028D01*
X145765811Y-73678640D01*
X145722751Y-73711235D01*
X145670000Y-73722809D01*
X145617249Y-73711235D01*
X145574189Y-73678640D01*
X145563829Y-73666510D01*
X145489969Y-73580031D01*
X145489967Y-73580029D01*
X145489966Y-73580028D01*
X145309415Y-73425823D01*
X145106966Y-73301761D01*
X144887594Y-73210895D01*
X144656711Y-73155464D01*
X144420000Y-73136835D01*
X144183288Y-73155464D01*
X143952405Y-73210895D01*
X143733033Y-73301761D01*
X143530584Y-73425823D01*
X143350033Y-73580028D01*
X143265811Y-73678640D01*
X143222751Y-73711235D01*
X143170000Y-73722809D01*
X143117249Y-73711235D01*
X143074189Y-73678640D01*
X143063829Y-73666510D01*
X142989969Y-73580031D01*
X142989967Y-73580029D01*
X142989966Y-73580028D01*
X142809415Y-73425823D01*
X142606966Y-73301761D01*
X142387594Y-73210895D01*
X142156711Y-73155464D01*
X141920000Y-73136835D01*
X141683286Y-73155465D01*
X141596501Y-73176300D01*
X141531935Y-73174778D01*
X141476604Y-73141466D01*
X141445046Y-73085116D01*
X141445554Y-73020533D01*
X141477991Y-72964688D01*
X144542680Y-69900000D01*
X155156835Y-69900000D01*
X155175464Y-70136711D01*
X155230895Y-70367594D01*
X155321761Y-70586966D01*
X155445823Y-70789415D01*
X155600030Y-70969969D01*
X155780584Y-71124176D01*
X155983033Y-71248238D01*
X155983035Y-71248238D01*
X155983037Y-71248240D01*
X156202406Y-71339105D01*
X156377858Y-71381227D01*
X156433288Y-71394535D01*
X156450558Y-71395894D01*
X156670000Y-71413165D01*
X156906711Y-71394535D01*
X157137594Y-71339105D01*
X157356963Y-71248240D01*
X157559416Y-71124176D01*
X157739969Y-70969969D01*
X157894176Y-70789416D01*
X158018240Y-70586963D01*
X158109105Y-70367594D01*
X158164535Y-70136711D01*
X158183165Y-69900000D01*
X158164535Y-69663289D01*
X158156388Y-69629356D01*
X158135356Y-69541749D01*
X158109105Y-69432406D01*
X158018240Y-69213037D01*
X158017864Y-69212424D01*
X157894176Y-69010584D01*
X157739969Y-68830030D01*
X157559415Y-68675823D01*
X157356966Y-68551761D01*
X157137594Y-68460895D01*
X156906711Y-68405464D01*
X156670000Y-68386835D01*
X156433288Y-68405464D01*
X156202405Y-68460895D01*
X155983033Y-68551761D01*
X155780584Y-68675823D01*
X155600030Y-68830030D01*
X155445823Y-69010584D01*
X155321761Y-69213033D01*
X155230895Y-69432405D01*
X155175464Y-69663288D01*
X155156835Y-69900000D01*
X144542680Y-69900000D01*
X147526404Y-66916276D01*
X147576564Y-66885538D01*
X147635211Y-66880922D01*
X147689561Y-66903435D01*
X147727767Y-66948168D01*
X147741500Y-67005371D01*
X147741500Y-67965800D01*
X147750281Y-68082976D01*
X147756265Y-68162827D01*
X147814913Y-68419781D01*
X147889024Y-68608611D01*
X147911204Y-68665124D01*
X148042985Y-68893376D01*
X148207314Y-69099438D01*
X148400519Y-69278706D01*
X148400521Y-69278707D01*
X148400523Y-69278709D01*
X148475860Y-69330073D01*
X148618284Y-69427176D01*
X148695788Y-69464500D01*
X148855745Y-69541532D01*
X148911913Y-69558857D01*
X149107600Y-69619218D01*
X149368219Y-69658500D01*
X149631779Y-69658500D01*
X149631781Y-69658500D01*
X149892400Y-69619218D01*
X150144254Y-69541532D01*
X150381715Y-69427176D01*
X150599481Y-69278706D01*
X150792686Y-69099438D01*
X150957015Y-68893376D01*
X151088796Y-68665124D01*
X151185087Y-68419780D01*
X151243735Y-68162826D01*
X151258500Y-67965800D01*
X151258500Y-66334200D01*
X151243735Y-66137174D01*
X151185087Y-65880220D01*
X151088796Y-65634876D01*
X150957015Y-65406624D01*
X150792686Y-65200562D01*
X150599481Y-65021294D01*
X150599477Y-65021291D01*
X150599476Y-65021290D01*
X150381716Y-64872824D01*
X150144254Y-64758467D01*
X149992480Y-64711652D01*
X149938060Y-64677812D01*
X149907324Y-64621580D01*
X149908223Y-64557502D01*
X149940521Y-64502159D01*
X151397278Y-63045402D01*
X151438153Y-63018091D01*
X151486371Y-63008500D01*
X156927414Y-63008500D01*
X156966351Y-63014667D01*
X157001470Y-63032561D01*
X157013248Y-63041118D01*
X157187712Y-63118794D01*
X157374513Y-63158500D01*
X157565485Y-63158500D01*
X157565487Y-63158500D01*
X157752288Y-63118794D01*
X157926752Y-63041118D01*
X158081253Y-62928866D01*
X158209040Y-62786944D01*
X158304527Y-62621556D01*
X158363542Y-62439928D01*
X158383504Y-62250000D01*
X158363542Y-62060072D01*
X158330539Y-61958500D01*
X158304527Y-61878443D01*
X158209041Y-61713057D01*
X158097433Y-61589104D01*
X158081253Y-61571134D01*
X158056142Y-61552890D01*
X157975594Y-61494368D01*
X157926752Y-61458882D01*
X157752288Y-61381206D01*
X157565487Y-61341500D01*
X157374513Y-61341500D01*
X157282703Y-61361015D01*
X157187711Y-61381206D01*
X157166509Y-61390646D01*
X157013248Y-61458882D01*
X157001470Y-61467438D01*
X156966351Y-61485333D01*
X156927414Y-61491500D01*
X154597876Y-61491500D01*
X154531022Y-61472301D01*
X154484541Y-61420556D01*
X154472598Y-61352033D01*
X154473500Y-61343642D01*
X154473500Y-59546362D01*
X154473113Y-59542762D01*
X154466989Y-59485799D01*
X154415889Y-59348796D01*
X154415091Y-59347730D01*
X154328261Y-59231738D01*
X154211205Y-59144111D01*
X154142702Y-59118561D01*
X154074201Y-59093011D01*
X154013638Y-59086500D01*
X152216362Y-59086500D01*
X152155799Y-59093011D01*
X152018794Y-59144111D01*
X151901738Y-59231738D01*
X151814109Y-59348796D01*
X151770000Y-59467057D01*
X151733469Y-59519096D01*
X151676178Y-59546672D01*
X151612716Y-59542762D01*
X151559245Y-59508362D01*
X151498240Y-59442094D01*
X151498239Y-59442093D01*
X151498237Y-59442091D01*
X151320578Y-59303812D01*
X151122573Y-59196657D01*
X150960101Y-59140881D01*
X150909635Y-59123556D01*
X150687569Y-59086500D01*
X150462431Y-59086500D01*
X150240365Y-59123556D01*
X150240362Y-59123556D01*
X150240362Y-59123557D01*
X150027426Y-59196657D01*
X149829421Y-59303812D01*
X149651762Y-59442091D01*
X149499278Y-59607731D01*
X149376139Y-59796209D01*
X149285702Y-60002388D01*
X149230437Y-60220627D01*
X149230436Y-60220632D01*
X149215870Y-60396413D01*
X149213461Y-60425492D01*
X149211844Y-60445000D01*
X149230436Y-60669368D01*
X149230436Y-60669371D01*
X149230437Y-60669372D01*
X149285702Y-60887611D01*
X149285703Y-60887614D01*
X149285704Y-60887616D01*
X149303286Y-60927700D01*
X149376139Y-61093790D01*
X149419573Y-61160270D01*
X149499278Y-61282268D01*
X149643538Y-61438975D01*
X149651762Y-61447908D01*
X149829421Y-61586187D01*
X149829424Y-61586189D01*
X150027426Y-61693342D01*
X150240365Y-61766444D01*
X150247884Y-61767698D01*
X150309568Y-61796676D01*
X150347140Y-61853537D01*
X150349606Y-61921646D01*
X150316243Y-61981075D01*
X140755853Y-71541465D01*
X140704647Y-71572538D01*
X140644878Y-71576456D01*
X140590054Y-71552332D01*
X140552563Y-71505620D01*
X140540878Y-71446874D01*
X140557639Y-71389370D01*
X140559040Y-71386944D01*
X140654527Y-71221556D01*
X140713542Y-71039928D01*
X140733504Y-70850000D01*
X140713542Y-70660072D01*
X140672500Y-70533758D01*
X140654527Y-70478443D01*
X140559041Y-70313057D01*
X140431252Y-70171133D01*
X140326771Y-70095223D01*
X140276752Y-70058882D01*
X140102288Y-69981206D01*
X139915487Y-69941500D01*
X139724513Y-69941500D01*
X139621158Y-69963469D01*
X139537711Y-69981206D01*
X139458105Y-70016649D01*
X139363248Y-70058882D01*
X139351470Y-70067438D01*
X139316351Y-70085333D01*
X139277414Y-70091500D01*
X139186371Y-70091500D01*
X139138153Y-70081909D01*
X139097276Y-70054595D01*
X138881950Y-69839269D01*
X138850101Y-69785508D01*
X138847998Y-69723056D01*
X138876158Y-69667273D01*
X138927656Y-69631880D01*
X138989819Y-69625581D01*
X139208219Y-69658500D01*
X139471779Y-69658500D01*
X139471781Y-69658500D01*
X139732400Y-69619218D01*
X139984254Y-69541532D01*
X140221715Y-69427176D01*
X140439481Y-69278706D01*
X140632686Y-69099438D01*
X140797015Y-68893376D01*
X140928796Y-68665124D01*
X141025087Y-68419780D01*
X141083735Y-68162826D01*
X141098500Y-67965800D01*
X141098500Y-66334200D01*
X141083735Y-66137174D01*
X141025087Y-65880220D01*
X140928796Y-65634876D01*
X140797015Y-65406624D01*
X140632686Y-65200562D01*
X140439481Y-65021294D01*
X140439477Y-65021291D01*
X140439476Y-65021290D01*
X140221716Y-64872824D01*
X139984254Y-64758467D01*
X139802159Y-64702299D01*
X139732400Y-64680782D01*
X139471781Y-64641500D01*
X139208219Y-64641500D01*
X138947600Y-64680782D01*
X138947596Y-64680783D01*
X138947597Y-64680783D01*
X138695748Y-64758467D01*
X138458282Y-64872825D01*
X138240522Y-65021291D01*
X138047313Y-65200563D01*
X138013298Y-65243217D01*
X137886261Y-65402517D01*
X137882983Y-65406627D01*
X137751204Y-65634875D01*
X137654913Y-65880218D01*
X137596825Y-66134717D01*
X137596265Y-66137174D01*
X137581500Y-66334200D01*
X137581500Y-67965800D01*
X137590281Y-68082976D01*
X137596265Y-68162828D01*
X137614509Y-68242760D01*
X137612344Y-68307035D01*
X137578742Y-68361869D01*
X137522455Y-68392978D01*
X137458147Y-68392256D01*
X137402573Y-68359892D01*
X135001909Y-65959228D01*
X134989937Y-65945375D01*
X134975470Y-65925943D01*
X134937130Y-65893772D01*
X134929032Y-65886351D01*
X134925101Y-65882420D01*
X134917081Y-65876078D01*
X134900528Y-65862989D01*
X134897690Y-65860677D01*
X134838622Y-65811113D01*
X134822110Y-65800594D01*
X134752205Y-65767996D01*
X134748909Y-65766401D01*
X134679996Y-65731792D01*
X134661504Y-65725365D01*
X134585942Y-65709762D01*
X134582367Y-65708969D01*
X134507356Y-65691191D01*
X134487885Y-65689202D01*
X134410741Y-65691447D01*
X134407077Y-65691500D01*
X117099442Y-65691500D01*
X117035425Y-65674025D01*
X116989164Y-65626449D01*
X116973492Y-65561966D01*
X116992755Y-65498464D01*
X117053042Y-65402517D01*
X117053354Y-65401627D01*
X117074743Y-65340497D01*
X117115113Y-65283602D01*
X117179564Y-65256904D01*
X117301047Y-65243217D01*
X117473015Y-65183043D01*
X117627281Y-65086111D01*
X117756111Y-64957281D01*
X117853043Y-64803015D01*
X117913217Y-64631047D01*
X117933616Y-64450000D01*
X117931577Y-64431906D01*
X117937854Y-64376184D01*
X117967689Y-64328702D01*
X117968778Y-64327612D01*
X117968781Y-64327611D01*
X118097611Y-64198781D01*
X118194543Y-64044515D01*
X118254717Y-63872547D01*
X118275116Y-63691500D01*
X118254717Y-63510453D01*
X118249451Y-63495405D01*
X118194543Y-63338485D01*
X118141794Y-63254536D01*
X118122531Y-63191034D01*
X118138203Y-63126551D01*
X118184463Y-63078975D01*
X118248481Y-63061500D01*
X122168864Y-63061500D01*
X122185307Y-63062577D01*
X122217000Y-63066750D01*
X122248693Y-63062577D01*
X122248703Y-63062577D01*
X122256884Y-63061500D01*
X122256885Y-63061500D01*
X122356456Y-63048391D01*
X122375851Y-63045838D01*
X122523876Y-62984524D01*
X122619072Y-62911477D01*
X122619072Y-62911476D01*
X122635629Y-62898772D01*
X122635632Y-62898769D01*
X122636546Y-62898067D01*
X122650987Y-62886987D01*
X122670457Y-62861611D01*
X122681309Y-62849238D01*
X124862404Y-60668144D01*
X124912564Y-60637406D01*
X124971211Y-60632790D01*
X125025561Y-60655303D01*
X125063767Y-60700036D01*
X125077500Y-60757239D01*
X125077500Y-62238638D01*
X125084011Y-62299201D01*
X125100318Y-62342921D01*
X125135111Y-62436205D01*
X125222738Y-62553261D01*
X125339794Y-62640888D01*
X125339795Y-62640888D01*
X125339796Y-62640889D01*
X125476799Y-62691989D01*
X125537362Y-62698500D01*
X127234638Y-62698500D01*
X127295201Y-62691989D01*
X127432204Y-62640889D01*
X127549261Y-62553261D01*
X127636889Y-62436204D01*
X127687989Y-62299201D01*
X127694500Y-62238638D01*
X127694500Y-60415595D01*
X127704091Y-60367377D01*
X127731404Y-60326500D01*
X127862505Y-60195399D01*
X128284887Y-59773016D01*
X128340143Y-59740742D01*
X128404132Y-59739775D01*
X128460342Y-59770367D01*
X128494273Y-59824627D01*
X128508631Y-59870703D01*
X128597582Y-60017846D01*
X128719153Y-60139417D01*
X128866293Y-60228366D01*
X129030444Y-60279518D01*
X129101774Y-60286000D01*
X129180000Y-60286000D01*
X129180000Y-59632000D01*
X129688000Y-59632000D01*
X129688000Y-60285999D01*
X129766225Y-60285999D01*
X129837556Y-60279518D01*
X130001706Y-60228366D01*
X130131341Y-60149999D01*
X140406835Y-60149999D01*
X140425464Y-60386711D01*
X140480895Y-60617594D01*
X140571761Y-60836966D01*
X140695823Y-61039415D01*
X140850030Y-61219969D01*
X141030584Y-61374176D01*
X141233033Y-61498238D01*
X141233035Y-61498238D01*
X141233037Y-61498240D01*
X141452406Y-61589105D01*
X141627857Y-61631227D01*
X141683288Y-61644535D01*
X141700558Y-61645894D01*
X141920000Y-61663165D01*
X142156711Y-61644535D01*
X142387594Y-61589105D01*
X142606963Y-61498240D01*
X142809416Y-61374176D01*
X142989969Y-61219969D01*
X143144176Y-61039416D01*
X143268240Y-60836963D01*
X143359105Y-60617594D01*
X143414535Y-60386711D01*
X143433165Y-60150000D01*
X143433165Y-60149999D01*
X145406835Y-60149999D01*
X145425464Y-60386711D01*
X145480895Y-60617594D01*
X145571761Y-60836966D01*
X145695823Y-61039415D01*
X145850030Y-61219969D01*
X146030584Y-61374176D01*
X146233033Y-61498238D01*
X146233035Y-61498238D01*
X146233037Y-61498240D01*
X146452406Y-61589105D01*
X146627857Y-61631227D01*
X146683288Y-61644535D01*
X146700558Y-61645894D01*
X146920000Y-61663165D01*
X147156711Y-61644535D01*
X147387594Y-61589105D01*
X147606963Y-61498240D01*
X147809416Y-61374176D01*
X147989969Y-61219969D01*
X148144176Y-61039416D01*
X148268240Y-60836963D01*
X148359105Y-60617594D01*
X148414535Y-60386711D01*
X148433165Y-60150000D01*
X148414535Y-59913289D01*
X148403907Y-59869022D01*
X148395702Y-59834845D01*
X148359105Y-59682406D01*
X148268240Y-59463037D01*
X148262702Y-59454000D01*
X148144176Y-59260584D01*
X147989969Y-59080030D01*
X147809415Y-58925823D01*
X147606966Y-58801761D01*
X147387594Y-58710895D01*
X147156711Y-58655464D01*
X146920000Y-58636835D01*
X146683288Y-58655464D01*
X146452405Y-58710895D01*
X146233033Y-58801761D01*
X146030584Y-58925823D01*
X145850030Y-59080030D01*
X145695823Y-59260584D01*
X145571761Y-59463033D01*
X145480895Y-59682405D01*
X145425464Y-59913288D01*
X145406835Y-60149999D01*
X143433165Y-60149999D01*
X143414535Y-59913289D01*
X143403907Y-59869022D01*
X143395702Y-59834845D01*
X143359105Y-59682406D01*
X143268240Y-59463037D01*
X143262702Y-59454000D01*
X143144176Y-59260584D01*
X142989969Y-59080030D01*
X142809415Y-58925823D01*
X142606966Y-58801761D01*
X142387594Y-58710895D01*
X142156711Y-58655464D01*
X141920000Y-58636835D01*
X141683288Y-58655464D01*
X141452405Y-58710895D01*
X141233033Y-58801761D01*
X141030584Y-58925823D01*
X140850030Y-59080030D01*
X140695823Y-59260584D01*
X140571761Y-59463033D01*
X140480895Y-59682405D01*
X140425464Y-59913288D01*
X140406835Y-60149999D01*
X130131341Y-60149999D01*
X130148846Y-60139417D01*
X130270417Y-60017846D01*
X130359366Y-59870706D01*
X130410518Y-59706555D01*
X130417000Y-59635226D01*
X130417000Y-59632000D01*
X129688000Y-59632000D01*
X129180000Y-59632000D01*
X129180000Y-59250000D01*
X129196881Y-59187000D01*
X129243000Y-59140881D01*
X129306000Y-59124000D01*
X130416999Y-59124000D01*
X130416999Y-59120775D01*
X130410518Y-59049443D01*
X130359366Y-58885293D01*
X130270419Y-58738156D01*
X130174712Y-58642450D01*
X130142100Y-58585965D01*
X130142100Y-58520743D01*
X130174710Y-58464260D01*
X130270816Y-58368155D01*
X130359827Y-58220913D01*
X130411013Y-58056649D01*
X130417500Y-57985265D01*
X130417499Y-57470736D01*
X130411013Y-57399351D01*
X130359827Y-57235087D01*
X130270816Y-57087845D01*
X130267744Y-57084773D01*
X130235131Y-57028288D01*
X130235133Y-56963060D01*
X130257307Y-56924657D01*
X130255553Y-56923575D01*
X130263285Y-56911040D01*
X130353302Y-56765101D01*
X130407236Y-56602336D01*
X130417500Y-56501872D01*
X130417500Y-55954128D01*
X130407236Y-55853664D01*
X130353302Y-55690899D01*
X130263285Y-55544960D01*
X130263283Y-55544958D01*
X130263282Y-55544956D01*
X130260420Y-55542094D01*
X130227808Y-55485607D01*
X130227810Y-55420382D01*
X130260423Y-55363901D01*
X130263285Y-55361040D01*
X130353302Y-55215101D01*
X130407236Y-55052336D01*
X130417500Y-54951872D01*
X130417500Y-54900000D01*
X149706384Y-54900000D01*
X149708631Y-54919943D01*
X149726783Y-55081049D01*
X149786956Y-55253014D01*
X149883889Y-55407282D01*
X150012717Y-55536110D01*
X150166985Y-55633043D01*
X150332328Y-55690899D01*
X150338953Y-55693217D01*
X150520000Y-55713616D01*
X150701047Y-55693217D01*
X150873015Y-55633043D01*
X151000699Y-55552813D01*
X151067736Y-55533500D01*
X151357500Y-55533500D01*
X151420500Y-55550381D01*
X151466619Y-55596500D01*
X151483500Y-55659500D01*
X151483500Y-56616497D01*
X151486438Y-56653833D01*
X151532855Y-56813602D01*
X151553742Y-56848920D01*
X151571277Y-56914703D01*
X151559640Y-56954183D01*
X151563645Y-56955585D01*
X151498783Y-57140950D01*
X151478384Y-57321999D01*
X151498783Y-57503049D01*
X151558956Y-57675014D01*
X151655889Y-57829282D01*
X151784717Y-57958110D01*
X151930958Y-58049999D01*
X151938985Y-58055043D01*
X152110953Y-58115217D01*
X152292000Y-58135616D01*
X152473047Y-58115217D01*
X152645015Y-58055043D01*
X152799281Y-57958111D01*
X152928111Y-57829281D01*
X153025043Y-57675015D01*
X153085217Y-57503047D01*
X153105616Y-57322000D01*
X153105615Y-57321999D01*
X153105797Y-57320392D01*
X153126899Y-57263522D01*
X153172129Y-57223101D01*
X153231005Y-57208500D01*
X153458497Y-57208500D01*
X153458502Y-57208500D01*
X153495831Y-57205562D01*
X153655601Y-57159145D01*
X153655601Y-57159144D01*
X153670887Y-57154704D01*
X153671191Y-57155751D01*
X153717000Y-57143219D01*
X153762808Y-57155751D01*
X153763113Y-57154704D01*
X153778398Y-57159144D01*
X153778399Y-57159145D01*
X153938169Y-57205562D01*
X153975498Y-57208500D01*
X154408497Y-57208500D01*
X154408502Y-57208500D01*
X154445831Y-57205562D01*
X154605601Y-57159145D01*
X154654533Y-57130205D01*
X154720366Y-57112670D01*
X154785706Y-57131971D01*
X154828952Y-57159145D01*
X154866985Y-57183043D01*
X154981464Y-57223101D01*
X155038953Y-57243217D01*
X155220000Y-57263616D01*
X155401047Y-57243217D01*
X155573015Y-57183043D01*
X155727281Y-57086111D01*
X155856111Y-56957281D01*
X155953043Y-56803015D01*
X156013217Y-56631047D01*
X156033616Y-56450000D01*
X156013217Y-56268953D01*
X155953043Y-56096985D01*
X155872813Y-55969300D01*
X155853500Y-55902264D01*
X155853500Y-55717766D01*
X159315787Y-55717766D01*
X159345413Y-55987015D01*
X159346586Y-55991500D01*
X159413928Y-56249088D01*
X159483961Y-56413889D01*
X159519068Y-56496504D01*
X159519870Y-56498390D01*
X159660982Y-56729610D01*
X159834255Y-56937820D01*
X159834256Y-56937821D01*
X159834258Y-56937823D01*
X160035993Y-57118578D01*
X160035995Y-57118579D01*
X160035998Y-57118582D01*
X160261910Y-57268044D01*
X160389168Y-57327700D01*
X160507171Y-57383018D01*
X160507173Y-57383018D01*
X160507176Y-57383020D01*
X160766569Y-57461060D01*
X160766572Y-57461060D01*
X160766574Y-57461061D01*
X161034558Y-57500500D01*
X161034561Y-57500500D01*
X161237630Y-57500500D01*
X161237631Y-57500500D01*
X161440156Y-57485677D01*
X161704553Y-57426780D01*
X161957558Y-57330014D01*
X162193777Y-57197441D01*
X162408177Y-57031888D01*
X162596186Y-56836881D01*
X162753799Y-56616579D01*
X162877656Y-56375675D01*
X162965118Y-56119305D01*
X163014319Y-55852933D01*
X163024212Y-55582235D01*
X163023218Y-55573205D01*
X163000270Y-55364645D01*
X162994586Y-55312982D01*
X162926072Y-55050912D01*
X162820130Y-54801610D01*
X162679018Y-54570390D01*
X162505745Y-54362180D01*
X162505741Y-54362176D01*
X162304006Y-54181421D01*
X162304003Y-54181419D01*
X162304002Y-54181418D01*
X162078090Y-54031956D01*
X162078086Y-54031954D01*
X161832828Y-53916981D01*
X161573425Y-53838938D01*
X161305442Y-53799500D01*
X161305439Y-53799500D01*
X161102369Y-53799500D01*
X161068614Y-53801970D01*
X160899839Y-53814323D01*
X160635449Y-53873219D01*
X160382441Y-53969985D01*
X160146225Y-54102557D01*
X159931820Y-54268114D01*
X159743815Y-54463117D01*
X159586200Y-54683422D01*
X159462342Y-54924328D01*
X159374882Y-55180693D01*
X159325681Y-55447065D01*
X159315787Y-55717766D01*
X155853500Y-55717766D01*
X155853500Y-54933854D01*
X155855795Y-54913064D01*
X155855384Y-54900000D01*
X155853561Y-54842001D01*
X155853500Y-54838044D01*
X155853500Y-54810149D01*
X155853500Y-54810144D01*
X155852993Y-54806138D01*
X155852062Y-54794305D01*
X155850674Y-54750111D01*
X155845019Y-54730647D01*
X155841013Y-54711307D01*
X155838474Y-54691203D01*
X155822195Y-54650087D01*
X155818356Y-54638872D01*
X155806019Y-54596407D01*
X155795703Y-54578964D01*
X155787007Y-54561214D01*
X155779552Y-54542383D01*
X155753554Y-54506600D01*
X155747058Y-54496710D01*
X155724542Y-54458638D01*
X155710212Y-54444308D01*
X155697378Y-54429281D01*
X155685472Y-54412893D01*
X155674882Y-54404132D01*
X155651400Y-54384705D01*
X155642621Y-54376717D01*
X155037404Y-53771499D01*
X155010091Y-53730622D01*
X155000500Y-53682404D01*
X155000500Y-53183503D01*
X155000500Y-53183498D01*
X154997562Y-53146169D01*
X154951145Y-52986399D01*
X154866453Y-52843193D01*
X154866451Y-52843191D01*
X154866450Y-52843189D01*
X154748810Y-52725549D01*
X154742058Y-52721556D01*
X154605601Y-52640855D01*
X154605600Y-52640854D01*
X154605599Y-52640854D01*
X154445833Y-52594438D01*
X154435165Y-52593598D01*
X154408502Y-52591500D01*
X153975498Y-52591500D01*
X153952167Y-52593336D01*
X153938166Y-52594438D01*
X153778400Y-52640854D01*
X153635189Y-52725549D01*
X153517549Y-52843189D01*
X153432854Y-52986400D01*
X153386438Y-53146166D01*
X153386438Y-53146169D01*
X153383500Y-53183498D01*
X153383500Y-54341502D01*
X153385598Y-54368165D01*
X153386438Y-54378833D01*
X153432855Y-54538602D01*
X153514326Y-54676361D01*
X153531869Y-54739510D01*
X153515321Y-54802928D01*
X153469158Y-54849454D01*
X153405873Y-54866500D01*
X153403346Y-54866500D01*
X153355128Y-54856909D01*
X153314250Y-54829595D01*
X153097557Y-54612901D01*
X153064611Y-54555141D01*
X153065656Y-54488653D01*
X153082906Y-54429277D01*
X153097562Y-54378831D01*
X153100500Y-54341502D01*
X153100500Y-53183498D01*
X153097562Y-53146169D01*
X153051145Y-52986399D01*
X153051143Y-52986395D01*
X153046726Y-52971192D01*
X153035468Y-52936803D01*
X153041925Y-52882768D01*
X153085217Y-52759047D01*
X153105616Y-52578000D01*
X153085217Y-52396953D01*
X153068787Y-52350000D01*
X153025043Y-52224985D01*
X152928110Y-52070717D01*
X152799282Y-51941889D01*
X152645014Y-51844956D01*
X152473049Y-51784783D01*
X152352349Y-51771183D01*
X152292000Y-51764384D01*
X152291999Y-51764384D01*
X152110950Y-51784783D01*
X151938985Y-51844956D01*
X151784717Y-51941889D01*
X151655889Y-52070717D01*
X151558956Y-52224985D01*
X151498783Y-52396950D01*
X151478384Y-52577999D01*
X151498783Y-52759049D01*
X151542074Y-52882767D01*
X151548532Y-52936797D01*
X151537266Y-52971212D01*
X151486438Y-53146166D01*
X151483500Y-53183503D01*
X151483500Y-54140500D01*
X151466619Y-54203500D01*
X151420500Y-54249619D01*
X151357500Y-54266500D01*
X151067736Y-54266500D01*
X151000700Y-54247187D01*
X150873014Y-54166956D01*
X150701049Y-54106783D01*
X150580349Y-54093183D01*
X150520000Y-54086384D01*
X150519999Y-54086384D01*
X150338950Y-54106783D01*
X150166985Y-54166956D01*
X150012717Y-54263889D01*
X149883889Y-54392717D01*
X149786956Y-54546985D01*
X149726783Y-54718950D01*
X149709827Y-54869438D01*
X149706384Y-54900000D01*
X130417500Y-54900000D01*
X130417500Y-54404128D01*
X130407236Y-54303664D01*
X130353302Y-54140899D01*
X130263285Y-53994960D01*
X130263283Y-53994958D01*
X130263282Y-53994956D01*
X130142043Y-53873717D01*
X130085661Y-53838940D01*
X129996101Y-53783698D01*
X129833336Y-53729764D01*
X129732872Y-53719500D01*
X129135128Y-53719500D01*
X129034664Y-53729763D01*
X129034664Y-53729764D01*
X128871896Y-53783699D01*
X128829096Y-53810098D01*
X128776363Y-53828140D01*
X128721006Y-53821669D01*
X128673856Y-53791951D01*
X127731405Y-52849500D01*
X127704091Y-52808623D01*
X127694500Y-52760405D01*
X127694500Y-51741362D01*
X127687989Y-51680799D01*
X127636889Y-51543796D01*
X127588436Y-51479070D01*
X127549261Y-51426738D01*
X127432205Y-51339111D01*
X127363702Y-51313560D01*
X127295201Y-51288011D01*
X127234638Y-51281500D01*
X125537362Y-51281500D01*
X125476799Y-51288011D01*
X125339794Y-51339111D01*
X125222738Y-51426739D01*
X125219298Y-51431335D01*
X125162743Y-51473774D01*
X125092237Y-51479069D01*
X124915487Y-51441500D01*
X124724513Y-51441500D01*
X124599979Y-51467970D01*
X124537711Y-51481206D01*
X124363246Y-51558883D01*
X124208747Y-51671133D01*
X124080958Y-51813057D01*
X123985472Y-51978443D01*
X123926458Y-52160070D01*
X123906496Y-52350000D01*
X123926458Y-52539929D01*
X123985472Y-52721556D01*
X124080958Y-52886942D01*
X124125848Y-52936797D01*
X124208747Y-53028866D01*
X124363248Y-53141118D01*
X124537712Y-53218794D01*
X124724513Y-53258500D01*
X124915485Y-53258500D01*
X124915487Y-53258500D01*
X124925305Y-53256413D01*
X124980914Y-53257141D01*
X125030794Y-53281739D01*
X125065226Y-53325415D01*
X125077500Y-53379660D01*
X125077500Y-53838638D01*
X125084011Y-53899201D01*
X125090643Y-53916981D01*
X125135111Y-54036205D01*
X125222738Y-54153261D01*
X125339794Y-54240888D01*
X125339795Y-54240888D01*
X125339796Y-54240889D01*
X125476799Y-54291989D01*
X125537362Y-54298500D01*
X127234638Y-54298500D01*
X127295201Y-54291989D01*
X127295202Y-54291988D01*
X127310936Y-54290297D01*
X127311107Y-54291891D01*
X127329626Y-54288774D01*
X127376237Y-54298909D01*
X127415740Y-54325644D01*
X128156751Y-55066655D01*
X128169834Y-55082985D01*
X128221665Y-55131656D01*
X128224477Y-55134381D01*
X128244230Y-55154134D01*
X128246183Y-55155649D01*
X128247424Y-55156612D01*
X128256444Y-55164316D01*
X128288679Y-55194586D01*
X128306435Y-55204347D01*
X128322951Y-55215196D01*
X128338959Y-55227613D01*
X128368183Y-55240259D01*
X128379525Y-55245167D01*
X128390188Y-55250391D01*
X128428938Y-55271694D01*
X128428940Y-55271695D01*
X128448562Y-55276733D01*
X128467267Y-55283137D01*
X128485855Y-55291181D01*
X128512673Y-55295428D01*
X128562813Y-55315009D01*
X128600204Y-55353727D01*
X128604715Y-55361040D01*
X128607577Y-55363902D01*
X128640189Y-55420383D01*
X128640192Y-55485606D01*
X128607583Y-55542091D01*
X128604714Y-55544960D01*
X128595783Y-55559439D01*
X128563294Y-55594722D01*
X128519974Y-55615307D01*
X128472099Y-55618212D01*
X128442001Y-55614249D01*
X128410310Y-55618422D01*
X128410296Y-55618422D01*
X128283150Y-55635161D01*
X128135126Y-55696475D01*
X128097953Y-55715061D01*
X128070478Y-55746079D01*
X128039931Y-55769520D01*
X128039930Y-55769521D01*
X128008011Y-55794014D01*
X127988545Y-55819381D01*
X127977681Y-55831768D01*
X123068595Y-60740856D01*
X123018436Y-60771594D01*
X122959789Y-60776210D01*
X122905439Y-60753697D01*
X122867233Y-60708964D01*
X122853500Y-60651761D01*
X122853500Y-60551132D01*
X122853500Y-60551128D01*
X122843236Y-60450664D01*
X122834895Y-60425492D01*
X122828500Y-60385860D01*
X122828500Y-60234500D01*
X122845381Y-60171500D01*
X122891500Y-60125381D01*
X122954500Y-60108500D01*
X122968638Y-60108500D01*
X123029201Y-60101989D01*
X123166204Y-60050889D01*
X123283261Y-59963261D01*
X123370889Y-59846204D01*
X123421989Y-59709201D01*
X123428500Y-59648638D01*
X123428500Y-58351362D01*
X123421989Y-58290799D01*
X123370889Y-58153796D01*
X123349713Y-58125508D01*
X123327460Y-58076781D01*
X123327461Y-58023214D01*
X123349711Y-57974493D01*
X123370889Y-57946204D01*
X123421989Y-57809201D01*
X123428500Y-57748638D01*
X123428500Y-56451362D01*
X123421989Y-56390799D01*
X123370889Y-56253796D01*
X123367364Y-56249087D01*
X123283261Y-56136738D01*
X123166205Y-56049111D01*
X123095552Y-56022759D01*
X123029201Y-55998011D01*
X122968638Y-55991500D01*
X122968636Y-55991500D01*
X122966031Y-55991220D01*
X122908876Y-55970289D01*
X122868202Y-55925007D01*
X122853500Y-55865942D01*
X122853500Y-55758854D01*
X122855795Y-55738064D01*
X122855422Y-55726205D01*
X122853561Y-55667001D01*
X122853500Y-55663044D01*
X122853500Y-55635149D01*
X122853500Y-55635144D01*
X122852993Y-55631138D01*
X122852062Y-55619305D01*
X122850674Y-55575111D01*
X122845020Y-55555652D01*
X122841013Y-55536306D01*
X122838474Y-55516203D01*
X122822194Y-55475086D01*
X122818353Y-55463866D01*
X122815196Y-55453000D01*
X122806018Y-55421407D01*
X122805412Y-55420383D01*
X122795706Y-55403970D01*
X122787008Y-55386215D01*
X122779552Y-55367383D01*
X122777563Y-55364645D01*
X122759667Y-55329521D01*
X122753500Y-55290585D01*
X122753500Y-54951132D01*
X122751735Y-54933854D01*
X122743236Y-54850664D01*
X122689302Y-54687899D01*
X122599285Y-54541960D01*
X122599283Y-54541958D01*
X122599282Y-54541956D01*
X122478043Y-54420717D01*
X122478040Y-54420715D01*
X122332101Y-54330698D01*
X122169336Y-54276764D01*
X122068872Y-54266500D01*
X121521128Y-54266500D01*
X121420664Y-54276764D01*
X121257899Y-54330698D01*
X121206866Y-54362176D01*
X121111956Y-54420717D01*
X121109095Y-54423579D01*
X121052611Y-54456191D01*
X120987389Y-54456191D01*
X120930905Y-54423579D01*
X120928043Y-54420717D01*
X120928040Y-54420715D01*
X120782101Y-54330698D01*
X120619336Y-54276764D01*
X120518872Y-54266500D01*
X119971128Y-54266500D01*
X119870664Y-54276764D01*
X119707899Y-54330698D01*
X119656866Y-54362176D01*
X119561956Y-54420717D01*
X119440717Y-54541956D01*
X119417890Y-54578964D01*
X119350698Y-54687899D01*
X119296764Y-54850664D01*
X119289239Y-54924325D01*
X119286500Y-54951132D01*
X119286500Y-55347831D01*
X119276909Y-55396048D01*
X119253319Y-55453000D01*
X119229714Y-55509987D01*
X119229713Y-55509990D01*
X119227161Y-55516151D01*
X119210422Y-55643303D01*
X119210422Y-55643309D01*
X119207824Y-55663044D01*
X119206250Y-55675000D01*
X119210422Y-55706690D01*
X119211500Y-55723136D01*
X119211500Y-55865500D01*
X119194619Y-55928500D01*
X119148500Y-55974619D01*
X119085500Y-55991500D01*
X119071362Y-55991500D01*
X119010799Y-55998011D01*
X118873794Y-56049111D01*
X118756738Y-56136738D01*
X118669111Y-56253794D01*
X118618011Y-56390799D01*
X118611500Y-56451362D01*
X118611500Y-57545761D01*
X118601909Y-57593979D01*
X118574595Y-57634856D01*
X117992595Y-58216856D01*
X117942436Y-58247594D01*
X117883789Y-58252210D01*
X117829439Y-58229697D01*
X117791233Y-58184964D01*
X117777500Y-58127761D01*
X117777500Y-57960275D01*
X117777500Y-57960273D01*
X117766722Y-57870524D01*
X117766720Y-57870520D01*
X117766541Y-57869025D01*
X117766541Y-57838975D01*
X117766720Y-57837479D01*
X117766722Y-57837476D01*
X117777500Y-57747726D01*
X117777500Y-57560274D01*
X117766722Y-57470524D01*
X117710399Y-57327700D01*
X117710398Y-57327699D01*
X117710398Y-57327698D01*
X117617632Y-57205367D01*
X117495301Y-57112601D01*
X117352474Y-57056277D01*
X117262728Y-57045500D01*
X117262726Y-57045500D01*
X116728500Y-57045500D01*
X116665500Y-57028619D01*
X116619381Y-56982500D01*
X116602500Y-56919500D01*
X116602500Y-55634154D01*
X116618222Y-55573205D01*
X116661464Y-55527467D01*
X116698894Y-55503947D01*
X116727281Y-55486111D01*
X116856111Y-55357281D01*
X116953043Y-55203015D01*
X117013217Y-55031047D01*
X117033616Y-54850000D01*
X117013217Y-54668953D01*
X117006621Y-54650104D01*
X116953043Y-54496985D01*
X116856110Y-54342717D01*
X116841065Y-54327672D01*
X116808453Y-54271188D01*
X116808453Y-54205966D01*
X116841063Y-54149484D01*
X116869895Y-54120652D01*
X116926377Y-54088042D01*
X116991599Y-54088042D01*
X117009124Y-54092737D01*
X117058537Y-54105978D01*
X117280000Y-54125353D01*
X117501463Y-54105978D01*
X117716196Y-54048440D01*
X117917677Y-53954488D01*
X118099781Y-53826977D01*
X118256977Y-53669781D01*
X118384488Y-53487677D01*
X118478440Y-53286196D01*
X118535978Y-53071463D01*
X118555353Y-52850000D01*
X118535978Y-52628537D01*
X118478440Y-52413804D01*
X118384488Y-52212324D01*
X118347899Y-52160070D01*
X118256974Y-52030215D01*
X118099784Y-51873025D01*
X117917678Y-51745512D01*
X117847117Y-51712609D01*
X117716196Y-51651560D01*
X117702709Y-51647946D01*
X117501467Y-51594022D01*
X117280000Y-51574647D01*
X117058532Y-51594022D01*
X116843807Y-51651559D01*
X116843806Y-51651559D01*
X116843804Y-51651560D01*
X116801830Y-51671133D01*
X116642322Y-51745512D01*
X116460215Y-51873025D01*
X116303025Y-52030215D01*
X116175512Y-52212322D01*
X116124195Y-52322374D01*
X116077700Y-52375391D01*
X116010000Y-52395124D01*
X115942300Y-52375391D01*
X115895805Y-52322374D01*
X115844487Y-52212322D01*
X115716974Y-52030215D01*
X115559784Y-51873025D01*
X115377678Y-51745512D01*
X115307117Y-51712609D01*
X115176196Y-51651560D01*
X115162709Y-51647946D01*
X114961467Y-51594022D01*
X114740000Y-51574647D01*
X114518532Y-51594022D01*
X114303807Y-51651559D01*
X114303806Y-51651559D01*
X114303804Y-51651560D01*
X114261830Y-51671133D01*
X114102322Y-51745512D01*
X113920215Y-51873025D01*
X113763025Y-52030215D01*
X113635512Y-52212322D01*
X113584195Y-52322374D01*
X113537700Y-52375391D01*
X113470000Y-52395124D01*
X113402300Y-52375391D01*
X113355805Y-52322374D01*
X113304487Y-52212322D01*
X113176974Y-52030215D01*
X113019784Y-51873025D01*
X112837678Y-51745512D01*
X112767117Y-51712609D01*
X112636196Y-51651560D01*
X112622709Y-51647946D01*
X112421467Y-51594022D01*
X112200000Y-51574647D01*
X111978532Y-51594022D01*
X111763807Y-51651559D01*
X111763806Y-51651559D01*
X111763804Y-51651560D01*
X111721830Y-51671133D01*
X111562322Y-51745512D01*
X111380215Y-51873025D01*
X111223025Y-52030215D01*
X111095512Y-52212322D01*
X111044195Y-52322374D01*
X110997700Y-52375391D01*
X110930000Y-52395124D01*
X110862300Y-52375391D01*
X110815805Y-52322374D01*
X110764487Y-52212322D01*
X110636974Y-52030215D01*
X110479784Y-51873025D01*
X110297678Y-51745512D01*
X110227117Y-51712609D01*
X110096196Y-51651560D01*
X110082709Y-51647946D01*
X109881467Y-51594022D01*
X109660000Y-51574647D01*
X109438532Y-51594022D01*
X109223807Y-51651559D01*
X109223806Y-51651559D01*
X109223804Y-51651560D01*
X109181830Y-51671133D01*
X109022322Y-51745512D01*
X108840215Y-51873025D01*
X108683025Y-52030215D01*
X108555512Y-52212322D01*
X108502139Y-52326783D01*
X108474080Y-52386956D01*
X108461559Y-52413807D01*
X108404022Y-52628532D01*
X108384647Y-52850000D01*
X108404022Y-53071467D01*
X108444911Y-53224063D01*
X108461560Y-53286196D01*
X108505143Y-53379660D01*
X108555512Y-53487678D01*
X108683025Y-53669784D01*
X108840215Y-53826974D01*
X109022321Y-53954487D01*
X109022322Y-53954487D01*
X109022323Y-53954488D01*
X109223804Y-54048440D01*
X109374739Y-54088883D01*
X109438532Y-54105977D01*
X109438533Y-54105977D01*
X109438537Y-54105978D01*
X109660000Y-54125353D01*
X109881463Y-54105978D01*
X110096196Y-54048440D01*
X110297677Y-53954488D01*
X110479781Y-53826977D01*
X110636977Y-53669781D01*
X110764488Y-53487677D01*
X110815806Y-53377624D01*
X110862300Y-53324609D01*
X110930000Y-53304876D01*
X110997700Y-53324609D01*
X111044193Y-53377624D01*
X111071996Y-53437247D01*
X111095512Y-53487678D01*
X111223025Y-53669784D01*
X111380215Y-53826974D01*
X111562321Y-53954487D01*
X111562322Y-53954487D01*
X111562323Y-53954488D01*
X111763804Y-54048440D01*
X111914739Y-54088883D01*
X111978532Y-54105977D01*
X111978533Y-54105977D01*
X111978537Y-54105978D01*
X112200000Y-54125353D01*
X112421463Y-54105978D01*
X112636196Y-54048440D01*
X112837677Y-53954488D01*
X113019781Y-53826977D01*
X113176977Y-53669781D01*
X113304488Y-53487677D01*
X113355806Y-53377624D01*
X113402300Y-53324609D01*
X113470000Y-53304876D01*
X113537700Y-53324609D01*
X113584193Y-53377624D01*
X113611996Y-53437247D01*
X113635512Y-53487678D01*
X113763025Y-53669784D01*
X113920215Y-53826974D01*
X114102321Y-53954487D01*
X114102322Y-53954487D01*
X114102323Y-53954488D01*
X114303804Y-54048440D01*
X114454739Y-54088883D01*
X114518532Y-54105977D01*
X114518533Y-54105977D01*
X114518537Y-54105978D01*
X114740000Y-54125353D01*
X114912352Y-54110274D01*
X114975331Y-54121026D01*
X115024942Y-54161290D01*
X115048424Y-54220711D01*
X115039739Y-54284012D01*
X115004213Y-54369780D01*
X115004214Y-54369781D01*
X115001162Y-54377150D01*
X114984422Y-54504303D01*
X114984422Y-54504309D01*
X114983321Y-54512675D01*
X114980250Y-54536000D01*
X114984422Y-54567690D01*
X114985500Y-54584136D01*
X114985500Y-55744500D01*
X114968619Y-55807500D01*
X114922500Y-55853619D01*
X114859500Y-55870500D01*
X114700270Y-55870500D01*
X114606918Y-55881710D01*
X114576873Y-55881710D01*
X114487684Y-55871000D01*
X114300314Y-55871000D01*
X114211127Y-55881710D01*
X114181084Y-55881710D01*
X114087730Y-55870500D01*
X114087726Y-55870500D01*
X113900274Y-55870500D01*
X113900270Y-55870500D01*
X113809021Y-55881457D01*
X113778977Y-55881457D01*
X113687730Y-55870500D01*
X113687726Y-55870500D01*
X113500274Y-55870500D01*
X113500270Y-55870500D01*
X113409021Y-55881457D01*
X113378977Y-55881457D01*
X113287730Y-55870500D01*
X113287726Y-55870500D01*
X113100274Y-55870500D01*
X113100270Y-55870500D01*
X113009021Y-55881457D01*
X112978977Y-55881457D01*
X112887730Y-55870500D01*
X112887726Y-55870500D01*
X112700274Y-55870500D01*
X112700270Y-55870500D01*
X112609021Y-55881457D01*
X112578977Y-55881457D01*
X112487730Y-55870500D01*
X112487726Y-55870500D01*
X112300274Y-55870500D01*
X112300270Y-55870500D01*
X112209021Y-55881457D01*
X112178977Y-55881457D01*
X112087730Y-55870500D01*
X112087726Y-55870500D01*
X111900274Y-55870500D01*
X111900270Y-55870500D01*
X111809021Y-55881457D01*
X111778977Y-55881457D01*
X111687730Y-55870500D01*
X111687726Y-55870500D01*
X111500274Y-55870500D01*
X111500270Y-55870500D01*
X111409021Y-55881457D01*
X111378977Y-55881457D01*
X111287730Y-55870500D01*
X111287726Y-55870500D01*
X111100274Y-55870500D01*
X111100270Y-55870500D01*
X111006918Y-55881710D01*
X110976873Y-55881710D01*
X110887684Y-55871000D01*
X110700315Y-55871000D01*
X110610642Y-55881768D01*
X110467946Y-55938040D01*
X110382206Y-56003060D01*
X110327481Y-56026831D01*
X110267955Y-56022759D01*
X110216976Y-55991758D01*
X109900218Y-55675000D01*
X109465478Y-55240259D01*
X109454618Y-55227877D01*
X109436158Y-55203818D01*
X109371410Y-55154135D01*
X109365694Y-55149749D01*
X109314270Y-55110289D01*
X109172325Y-55051493D01*
X109040054Y-55034080D01*
X109020001Y-55031440D01*
X109020000Y-55031440D01*
X108989944Y-55035397D01*
X108973498Y-55036475D01*
X107626551Y-55036475D01*
X107610105Y-55035397D01*
X107598137Y-55033821D01*
X107580050Y-55031440D01*
X107580049Y-55031440D01*
X107549994Y-55035397D01*
X107549992Y-55035397D01*
X107427726Y-55051493D01*
X107368563Y-55076000D01*
X107285780Y-55110288D01*
X107234357Y-55149749D01*
X107234354Y-55149749D01*
X107163892Y-55203818D01*
X107145429Y-55227878D01*
X107134565Y-55240265D01*
X106340286Y-56034544D01*
X106327897Y-56045410D01*
X106303841Y-56063869D01*
X106221698Y-56170921D01*
X106221698Y-56170922D01*
X106202747Y-56195619D01*
X106152089Y-56234867D01*
X106088678Y-56244121D01*
X106020000Y-56236384D01*
X105838950Y-56256783D01*
X105666985Y-56316956D01*
X105512719Y-56413888D01*
X105461903Y-56464704D01*
X105408305Y-56496504D01*
X105346024Y-56498728D01*
X105290295Y-56470832D01*
X105254752Y-56419640D01*
X105200445Y-56274037D01*
X105112904Y-56157095D01*
X105037793Y-56100868D01*
X105000630Y-56056400D01*
X104987302Y-56000000D01*
X105000630Y-55943600D01*
X105037793Y-55899132D01*
X105112904Y-55842904D01*
X105200445Y-55725962D01*
X105251494Y-55589093D01*
X105258000Y-55528589D01*
X105258000Y-54984000D01*
X104504000Y-54984000D01*
X104504000Y-58528000D01*
X104798589Y-58528000D01*
X104859093Y-58521494D01*
X104995962Y-58470445D01*
X105112904Y-58382904D01*
X105200445Y-58265962D01*
X105251494Y-58129093D01*
X105258000Y-58068589D01*
X105258000Y-57735583D01*
X105271733Y-57678380D01*
X105309939Y-57633647D01*
X105364289Y-57611134D01*
X105422936Y-57615750D01*
X105473095Y-57646488D01*
X105512717Y-57686110D01*
X105666982Y-57783042D01*
X105666985Y-57783043D01*
X105729716Y-57804993D01*
X105777197Y-57834827D01*
X105807031Y-57882307D01*
X105813310Y-57938029D01*
X105806384Y-57999500D01*
X105826783Y-58180551D01*
X105886956Y-58352516D01*
X105983889Y-58506784D01*
X106112745Y-58635640D01*
X106141706Y-58680703D01*
X106182180Y-58789218D01*
X106188907Y-58850720D01*
X106165549Y-58908010D01*
X106117736Y-58947275D01*
X106056998Y-58959048D01*
X105997978Y-58940491D01*
X105982101Y-58930698D01*
X105819336Y-58876764D01*
X105718872Y-58866500D01*
X105171128Y-58866500D01*
X105070664Y-58876764D01*
X104907899Y-58930698D01*
X104842139Y-58971259D01*
X104761956Y-59020717D01*
X104758742Y-59023932D01*
X104702258Y-59056544D01*
X104637036Y-59056544D01*
X104580552Y-59023932D01*
X104577731Y-59021111D01*
X104431885Y-58931152D01*
X104269239Y-58877256D01*
X104168839Y-58867000D01*
X104149000Y-58867000D01*
X104149000Y-59978000D01*
X104132119Y-60041000D01*
X104086000Y-60087119D01*
X104023000Y-60104000D01*
X102937000Y-60104000D01*
X102937000Y-60148839D01*
X102947256Y-60249239D01*
X103001152Y-60411884D01*
X103085944Y-60549353D01*
X103104673Y-60612751D01*
X103088727Y-60676906D01*
X103042495Y-60724158D01*
X102978703Y-60741500D01*
X102372035Y-60741500D01*
X102371639Y-60741526D01*
X102341491Y-60741526D01*
X102270282Y-60755687D01*
X102262177Y-60757026D01*
X102254785Y-60758000D01*
X102247403Y-60760238D01*
X102187491Y-60772154D01*
X102042426Y-60832236D01*
X102001361Y-60859672D01*
X101955951Y-60878480D01*
X101906800Y-60878484D01*
X101861388Y-60859682D01*
X101820165Y-60832150D01*
X101725779Y-60793079D01*
X101675056Y-60772082D01*
X101615109Y-60760172D01*
X101608003Y-60758018D01*
X101600982Y-60757093D01*
X101592892Y-60755758D01*
X101521021Y-60741481D01*
X101521020Y-60741481D01*
X101442497Y-60741500D01*
X100738136Y-60741500D01*
X100721690Y-60740422D01*
X100714706Y-60739502D01*
X100690000Y-60736250D01*
X100689999Y-60736250D01*
X100658310Y-60740422D01*
X100658296Y-60740422D01*
X100531151Y-60757161D01*
X100444438Y-60793079D01*
X100383121Y-60818476D01*
X100291279Y-60888950D01*
X100291251Y-60888973D01*
X100256010Y-60916014D01*
X100236545Y-60941381D01*
X100225681Y-60953768D01*
X97991628Y-63187821D01*
X97939482Y-63219187D01*
X97878716Y-63222455D01*
X97823507Y-63196863D01*
X97786730Y-63148380D01*
X97778275Y-63096383D01*
X97778018Y-63096405D01*
X97777746Y-63093128D01*
X97776964Y-63088316D01*
X97777156Y-63086000D01*
X97775126Y-63061500D01*
X97758564Y-62861632D01*
X97733535Y-62762794D01*
X97730817Y-62752062D01*
X97731482Y-62687682D01*
X97763864Y-62632038D01*
X100799903Y-59596000D01*
X102937000Y-59596000D01*
X103641000Y-59596000D01*
X103641000Y-58867000D01*
X103621161Y-58867000D01*
X103520760Y-58877256D01*
X103358114Y-58931152D01*
X103212268Y-59021111D01*
X103091111Y-59142268D01*
X103001152Y-59288114D01*
X102947256Y-59450760D01*
X102937000Y-59551161D01*
X102937000Y-59596000D01*
X100799903Y-59596000D01*
X101830498Y-58565405D01*
X101871376Y-58538091D01*
X101919594Y-58528500D01*
X102198639Y-58528500D01*
X102206758Y-58527626D01*
X102259201Y-58521989D01*
X102259203Y-58521988D01*
X102267751Y-58521069D01*
X102300000Y-58515250D01*
X102332248Y-58521069D01*
X102340796Y-58521988D01*
X102340799Y-58521989D01*
X102392160Y-58527510D01*
X102401361Y-58528500D01*
X102401362Y-58528500D01*
X103498638Y-58528500D01*
X103498639Y-58528500D01*
X103505376Y-58527775D01*
X103559201Y-58521989D01*
X103559204Y-58521987D01*
X103565852Y-58521273D01*
X103600713Y-58514983D01*
X103630754Y-58520403D01*
X103701410Y-58528000D01*
X103996000Y-58528000D01*
X103996000Y-53472000D01*
X104504000Y-53472000D01*
X104504000Y-54476000D01*
X105258000Y-54476000D01*
X105258000Y-53931411D01*
X105251494Y-53870906D01*
X105200445Y-53734037D01*
X105112904Y-53617095D01*
X104995962Y-53529554D01*
X104859093Y-53478505D01*
X104798589Y-53472000D01*
X104504000Y-53472000D01*
X103996000Y-53472000D01*
X103860978Y-53472000D01*
X103803146Y-53457944D01*
X103758217Y-53418912D01*
X103736215Y-53363613D01*
X103742049Y-53304384D01*
X103742224Y-53303884D01*
X103743217Y-53301047D01*
X103763616Y-53120000D01*
X103743217Y-52938953D01*
X103742347Y-52936468D01*
X103683043Y-52766985D01*
X103586110Y-52612717D01*
X103457282Y-52483889D01*
X103303014Y-52386956D01*
X103131049Y-52326783D01*
X102950000Y-52306384D01*
X102768950Y-52326783D01*
X102596985Y-52386956D01*
X102442717Y-52483889D01*
X102313889Y-52612717D01*
X102216956Y-52766985D01*
X102156783Y-52938950D01*
X102153148Y-52971212D01*
X102136384Y-53120000D01*
X102143539Y-53183503D01*
X102156783Y-53301047D01*
X102157776Y-53303884D01*
X102163610Y-53363113D01*
X102141608Y-53418412D01*
X102096679Y-53457444D01*
X102038847Y-53471500D01*
X101101362Y-53471500D01*
X101040799Y-53478011D01*
X100903794Y-53529111D01*
X100786738Y-53616738D01*
X100699111Y-53733794D01*
X100659894Y-53838940D01*
X100648011Y-53870799D01*
X100641500Y-53931362D01*
X100641500Y-55528638D01*
X100648011Y-55589201D01*
X100664778Y-55634154D01*
X100699111Y-55726205D01*
X100786738Y-55843261D01*
X100861372Y-55899131D01*
X100898535Y-55943599D01*
X100911863Y-55999998D01*
X100898536Y-56056398D01*
X100861373Y-56100866D01*
X100786739Y-56156737D01*
X100699111Y-56273794D01*
X100648011Y-56410799D01*
X100641500Y-56471362D01*
X100641500Y-57910405D01*
X100631909Y-57958623D01*
X100604595Y-57999500D01*
X98212536Y-60391557D01*
X98158322Y-60423538D01*
X98095403Y-60425303D01*
X98039481Y-60396413D01*
X98004513Y-60344078D01*
X97953043Y-60196985D01*
X97856111Y-60042719D01*
X97856110Y-60042717D01*
X97727282Y-59913889D01*
X97573014Y-59816956D01*
X97401049Y-59756783D01*
X97220000Y-59736384D01*
X97038952Y-59756783D01*
X96957967Y-59785121D01*
X96888315Y-59789032D01*
X96827258Y-59755286D01*
X96785157Y-59713185D01*
X96734240Y-59682405D01*
X96637913Y-59624173D01*
X96585148Y-59607731D01*
X96473648Y-59572986D01*
X96408750Y-59567089D01*
X96402264Y-59566500D01*
X95887735Y-59566500D01*
X95816351Y-59572986D01*
X95652087Y-59624173D01*
X95504842Y-59713185D01*
X95409095Y-59808933D01*
X95352611Y-59841545D01*
X95287389Y-59841545D01*
X95230905Y-59808933D01*
X95135157Y-59713185D01*
X95084240Y-59682405D01*
X94987913Y-59624173D01*
X94935148Y-59607731D01*
X94823648Y-59572986D01*
X94758750Y-59567089D01*
X94752264Y-59566500D01*
X94237735Y-59566500D01*
X94166351Y-59572986D01*
X94002087Y-59624173D01*
X93854842Y-59713185D01*
X93733185Y-59834842D01*
X93644173Y-59982087D01*
X93592986Y-60146351D01*
X93586500Y-60217735D01*
X93586500Y-60882264D01*
X93592986Y-60953647D01*
X93592987Y-60953649D01*
X93644173Y-61117913D01*
X93669782Y-61160275D01*
X93741099Y-61278248D01*
X93737941Y-61280156D01*
X93759032Y-61318315D01*
X93755121Y-61387967D01*
X93726783Y-61468952D01*
X93706384Y-61650000D01*
X93726783Y-61831049D01*
X93786956Y-62003014D01*
X93883889Y-62157282D01*
X93911527Y-62184920D01*
X93943651Y-62239636D01*
X93945036Y-62303071D01*
X93915331Y-62359137D01*
X93873730Y-62386068D01*
X93873787Y-62386160D01*
X93869596Y-62388744D01*
X93862068Y-62393618D01*
X93860001Y-62394302D01*
X93842373Y-62402837D01*
X93783876Y-62441311D01*
X93740837Y-62459285D01*
X93637710Y-62481206D01*
X93573716Y-62509697D01*
X93504101Y-62519244D01*
X93440198Y-62490023D01*
X93414885Y-62451112D01*
X93411091Y-62453141D01*
X93371684Y-62379416D01*
X93311595Y-62266996D01*
X93311593Y-62266992D01*
X93185568Y-62113431D01*
X93032007Y-61987406D01*
X92874781Y-61903368D01*
X92856804Y-61893759D01*
X92856803Y-61893758D01*
X92856802Y-61893758D01*
X92666701Y-61836091D01*
X92518550Y-61821500D01*
X92518547Y-61821500D01*
X91319453Y-61821500D01*
X91319450Y-61821500D01*
X91171298Y-61836091D01*
X90981197Y-61893758D01*
X90805992Y-61987406D01*
X90652431Y-62113431D01*
X90526406Y-62266992D01*
X90432758Y-62442197D01*
X90375091Y-62632298D01*
X90355619Y-62830000D01*
X90375091Y-63027701D01*
X90432758Y-63217802D01*
X90526406Y-63393007D01*
X90652431Y-63546568D01*
X90805994Y-63672594D01*
X90900767Y-63723251D01*
X90941958Y-63758489D01*
X90964532Y-63807772D01*
X90964311Y-63861978D01*
X90941335Y-63911076D01*
X90896302Y-63969764D01*
X90838312Y-64109764D01*
X90818534Y-64260000D01*
X90838312Y-64410235D01*
X90896301Y-64550232D01*
X90896302Y-64550233D01*
X90988549Y-64670451D01*
X91092219Y-64750000D01*
X91108767Y-64762698D01*
X91248764Y-64820687D01*
X91280946Y-64824924D01*
X91336770Y-64846633D01*
X91376263Y-64891666D01*
X91390500Y-64949846D01*
X91390500Y-65098642D01*
X91394573Y-65136533D01*
X91394573Y-65163465D01*
X91390500Y-65201359D01*
X91390500Y-65598642D01*
X91394573Y-65636534D01*
X91394573Y-65663466D01*
X91390500Y-65701358D01*
X91390500Y-66098642D01*
X91394573Y-66136533D01*
X91394573Y-66163465D01*
X91390500Y-66201359D01*
X91390500Y-66313950D01*
X91377506Y-66369678D01*
X91341204Y-66413912D01*
X91308419Y-66439069D01*
X91308375Y-66439101D01*
X91308376Y-66439102D01*
X91275911Y-66464014D01*
X91256445Y-66489381D01*
X91245581Y-66501768D01*
X91191767Y-66555582D01*
X91179380Y-66566447D01*
X91154012Y-66585913D01*
X91126973Y-66621151D01*
X91126950Y-66621179D01*
X91056476Y-66713022D01*
X91001198Y-66846476D01*
X90995162Y-66861048D01*
X90978422Y-66988203D01*
X90978422Y-66988209D01*
X90977526Y-66995015D01*
X90974250Y-67019900D01*
X90978422Y-67051590D01*
X90979500Y-67068036D01*
X90979500Y-67727964D01*
X90978422Y-67744407D01*
X90974250Y-67776100D01*
X90977613Y-67801649D01*
X90978422Y-67807790D01*
X90978422Y-67807797D01*
X90988181Y-67881924D01*
X90995161Y-67934949D01*
X91056476Y-68082978D01*
X91129521Y-68178172D01*
X91129524Y-68178174D01*
X91154010Y-68210084D01*
X91154011Y-68210085D01*
X91154013Y-68210087D01*
X91179379Y-68229551D01*
X91191769Y-68240418D01*
X91245582Y-68294231D01*
X91256448Y-68306620D01*
X91262421Y-68314404D01*
X91275914Y-68331988D01*
X91301278Y-68351451D01*
X91301283Y-68351455D01*
X91307828Y-68356477D01*
X91307829Y-68356478D01*
X91341205Y-68382088D01*
X91377506Y-68426322D01*
X91390500Y-68482050D01*
X91390500Y-68598642D01*
X91394573Y-68636533D01*
X91394573Y-68663465D01*
X91390500Y-68701359D01*
X91390500Y-69098642D01*
X91394573Y-69136534D01*
X91394573Y-69163466D01*
X91390500Y-69201358D01*
X91390500Y-69350154D01*
X91376263Y-69408334D01*
X91336770Y-69453367D01*
X91280946Y-69475076D01*
X91248764Y-69479312D01*
X91108767Y-69537301D01*
X90988549Y-69629549D01*
X90896301Y-69749767D01*
X90838312Y-69889764D01*
X90818534Y-70039999D01*
X90818534Y-70040000D01*
X90821020Y-70058882D01*
X90838312Y-70190235D01*
X90896301Y-70330232D01*
X90896302Y-70330233D01*
X90941336Y-70388922D01*
X90964311Y-70438017D01*
X90964533Y-70492224D01*
X90941960Y-70541508D01*
X90900769Y-70576747D01*
X90805993Y-70627406D01*
X90652431Y-70753431D01*
X90526406Y-70906992D01*
X90432758Y-71082197D01*
X90375091Y-71272298D01*
X90355619Y-71470000D01*
X89132380Y-71470000D01*
X89124200Y-71386944D01*
X89112908Y-71272298D01*
X89067975Y-71124176D01*
X89055241Y-71082196D01*
X88961595Y-70906996D01*
X88961593Y-70906992D01*
X88835568Y-70753431D01*
X88682007Y-70627406D01*
X88506802Y-70533758D01*
X88316701Y-70476091D01*
X88168550Y-70461500D01*
X88168547Y-70461500D01*
X87269453Y-70461500D01*
X87269450Y-70461500D01*
X87121298Y-70476091D01*
X86931197Y-70533758D01*
X86755992Y-70627406D01*
X86602431Y-70753431D01*
X86476406Y-70906992D01*
X86382758Y-71082197D01*
X86325091Y-71272298D01*
X86305619Y-71470000D01*
X85424000Y-71470000D01*
X85424000Y-62830000D01*
X86305619Y-62830000D01*
X86325091Y-63027701D01*
X86382758Y-63217802D01*
X86476406Y-63393007D01*
X86602431Y-63546568D01*
X86755992Y-63672593D01*
X86755996Y-63672595D01*
X86931196Y-63766241D01*
X87008306Y-63789632D01*
X87121298Y-63823908D01*
X87269450Y-63838500D01*
X87269453Y-63838500D01*
X88168547Y-63838500D01*
X88168550Y-63838500D01*
X88316701Y-63823908D01*
X88369894Y-63807772D01*
X88506804Y-63766241D01*
X88682004Y-63672595D01*
X88682005Y-63672593D01*
X88682007Y-63672593D01*
X88835568Y-63546568D01*
X88961593Y-63393007D01*
X88972907Y-63371840D01*
X89055241Y-63217804D01*
X89112908Y-63027701D01*
X89132380Y-62830000D01*
X89112908Y-62632299D01*
X89112828Y-62632036D01*
X89069749Y-62490023D01*
X89055241Y-62442196D01*
X88961595Y-62266996D01*
X88961593Y-62266992D01*
X88835568Y-62113431D01*
X88682007Y-61987406D01*
X88524781Y-61903368D01*
X88506804Y-61893759D01*
X88506803Y-61893758D01*
X88506802Y-61893758D01*
X88316701Y-61836091D01*
X88168550Y-61821500D01*
X88168547Y-61821500D01*
X87269453Y-61821500D01*
X87269450Y-61821500D01*
X87121298Y-61836091D01*
X86931197Y-61893758D01*
X86755992Y-61987406D01*
X86602431Y-62113431D01*
X86476406Y-62266992D01*
X86382758Y-62442197D01*
X86325091Y-62632298D01*
X86305619Y-62830000D01*
X85424000Y-62830000D01*
X85424000Y-55717766D01*
X87315787Y-55717766D01*
X87345413Y-55987015D01*
X87346586Y-55991500D01*
X87413928Y-56249088D01*
X87483961Y-56413889D01*
X87519068Y-56496504D01*
X87519870Y-56498390D01*
X87660982Y-56729610D01*
X87834255Y-56937820D01*
X87834256Y-56937821D01*
X87834258Y-56937823D01*
X88035993Y-57118578D01*
X88035995Y-57118579D01*
X88035998Y-57118582D01*
X88261910Y-57268044D01*
X88389168Y-57327700D01*
X88507171Y-57383018D01*
X88507173Y-57383018D01*
X88507176Y-57383020D01*
X88766569Y-57461060D01*
X88766572Y-57461060D01*
X88766574Y-57461061D01*
X89034558Y-57500500D01*
X89034561Y-57500500D01*
X89237630Y-57500500D01*
X89237631Y-57500500D01*
X89440156Y-57485677D01*
X89704553Y-57426780D01*
X89957558Y-57330014D01*
X90193777Y-57197441D01*
X90408177Y-57031888D01*
X90596186Y-56836881D01*
X90753799Y-56616579D01*
X90877656Y-56375675D01*
X90965118Y-56119305D01*
X91014319Y-55852933D01*
X91024212Y-55582235D01*
X91023218Y-55573205D01*
X91000270Y-55364645D01*
X90994586Y-55312982D01*
X90926072Y-55050912D01*
X90820130Y-54801610D01*
X90679018Y-54570390D01*
X90505745Y-54362180D01*
X90505741Y-54362176D01*
X90304006Y-54181421D01*
X90304003Y-54181419D01*
X90304002Y-54181418D01*
X90078090Y-54031956D01*
X90078086Y-54031954D01*
X89832828Y-53916981D01*
X89573425Y-53838938D01*
X89305442Y-53799500D01*
X89305439Y-53799500D01*
X89102369Y-53799500D01*
X89068614Y-53801970D01*
X88899839Y-53814323D01*
X88635449Y-53873219D01*
X88382441Y-53969985D01*
X88146225Y-54102557D01*
X87931820Y-54268114D01*
X87743815Y-54463117D01*
X87586200Y-54683422D01*
X87462342Y-54924328D01*
X87374882Y-55180693D01*
X87325681Y-55447065D01*
X87315787Y-55717766D01*
X85424000Y-55717766D01*
X85424000Y-50026000D01*
X85440881Y-49963000D01*
X85487000Y-49916881D01*
X85550000Y-49900000D01*
X164794000Y-49900000D01*
X164857000Y-49916881D01*
G37*
G04 #@! TD.AperFunction*
M02*
