%TF.GenerationSoftware,KiCad,Pcbnew,7.0.1*%
%TF.CreationDate,2023-03-22T01:49:55-05:00*%
%TF.ProjectId,V0_Display,56305f44-6973-4706-9c61-792e6b696361,rev?*%
%TF.SameCoordinates,Original*%
%TF.FileFunction,Plated,1,2,PTH,Mixed*%
%TF.FilePolarity,Positive*%
%FSLAX46Y46*%
G04 Gerber Fmt 4.6, Leading zero omitted, Abs format (unit mm)*
G04 Created by KiCad (PCBNEW 7.0.1) date 2023-03-22 01:49:55*
%MOMM*%
%LPD*%
G01*
G04 APERTURE LIST*
%TA.AperFunction,ViaDrill*%
%ADD10C,0.300000*%
%TD*%
%TA.AperFunction,ViaDrill*%
%ADD11C,0.400000*%
%TD*%
G04 aperture for slot hole*
%TA.AperFunction,ComponentDrill*%
%ADD12O,1.400000X0.600000*%
%TD*%
G04 aperture for slot hole*
%TA.AperFunction,ComponentDrill*%
%ADD13O,1.700000X0.600000*%
%TD*%
%TA.AperFunction,ComponentDrill*%
%ADD14C,0.762000*%
%TD*%
%TA.AperFunction,ComponentDrill*%
%ADD15C,1.000000*%
%TD*%
%TA.AperFunction,ComponentDrill*%
%ADD16C,1.100000*%
%TD*%
G04 aperture for slot hole*
%TA.AperFunction,ComponentDrill*%
%ADD17O,2.000000X3.000000*%
%TD*%
G04 APERTURE END LIST*
D10*
X93471999Y-65398001D03*
X93820000Y-68650000D03*
X94520000Y-61650000D03*
X94520000Y-72050000D03*
X97220000Y-60550000D03*
X102950000Y-53120000D03*
X102950000Y-56250000D03*
X106020000Y-57050000D03*
X106620000Y-57999502D03*
X107520000Y-76850000D03*
X108918584Y-68478584D03*
X109720000Y-64750000D03*
X110771353Y-62049429D03*
X110816000Y-60854000D03*
X113940000Y-66642000D03*
X115413246Y-65556754D03*
X116220000Y-54850000D03*
X116320000Y-65049500D03*
X117120000Y-64450000D03*
X117461500Y-63691500D03*
X118320000Y-60653500D03*
X118408182Y-61853000D03*
X119007682Y-61061295D03*
X121020000Y-58050000D03*
X121020000Y-61525000D03*
X126420000Y-59750000D03*
X150520000Y-54900000D03*
X152292000Y-52578000D03*
X152292000Y-57322000D03*
X155220000Y-56450000D03*
D11*
X93920000Y-63350000D03*
X104920000Y-64150000D03*
X104920000Y-74550000D03*
X106109000Y-73496000D03*
X112120000Y-59050000D03*
X112220000Y-61450000D03*
X113394000Y-60254000D03*
X114620000Y-59050000D03*
X114620000Y-61450000D03*
X124820000Y-52350000D03*
X139820000Y-70850000D03*
X157470000Y-62250000D03*
D12*
%TO.C,J4*%
X87719000Y-62830000D03*
X87719000Y-71470000D03*
D13*
X91919000Y-62830000D03*
X91919000Y-71470000D03*
D14*
%TO.C,J2*%
X109660000Y-52850000D03*
X112200000Y-52850000D03*
X114740000Y-52850000D03*
X117280000Y-52850000D03*
D15*
%TO.C,J7*%
X96414000Y-63086000D03*
X96414000Y-65626000D03*
X96414000Y-68166000D03*
X96414000Y-70706000D03*
%TO.C,J1*%
X100224000Y-68928000D03*
X102764000Y-68928000D03*
X105304000Y-68928000D03*
%TO.C,J3*%
X110954000Y-70198000D03*
X113494000Y-70198000D03*
X116034000Y-70198000D03*
%TO.C,J8*%
X150575000Y-60445000D03*
X153115000Y-60445000D03*
D16*
%TO.C,SW7*%
X141920000Y-60150000D03*
X141920000Y-74650000D03*
X144420000Y-74650000D03*
X146920000Y-60150000D03*
X146920000Y-74650000D03*
%TO.C,SW6*%
X156670000Y-69900000D03*
X156670000Y-74400000D03*
X163170000Y-69900000D03*
X163170000Y-74400000D03*
D17*
%TO.C,SW7*%
X139340000Y-67150000D03*
X149500000Y-67150000D03*
M02*
