G04 #@! TF.GenerationSoftware,KiCad,Pcbnew,(7.0.0)*
G04 #@! TF.CreationDate,2023-03-04T20:15:19-06:00*
G04 #@! TF.ProjectId,V0_Display,56305f44-6973-4706-9c61-792e6b696361,rev?*
G04 #@! TF.SameCoordinates,Original*
G04 #@! TF.FileFunction,Legend,Bot*
G04 #@! TF.FilePolarity,Positive*
%FSLAX46Y46*%
G04 Gerber Fmt 4.6, Leading zero omitted, Abs format (unit mm)*
G04 Created by KiCad (PCBNEW (7.0.0)) date 2023-03-04 20:15:19*
%MOMM*%
%LPD*%
G01*
G04 APERTURE LIST*
%ADD10C,0.120000*%
%ADD11C,0.100000*%
%ADD12C,0.150000*%
%ADD13C,0.125000*%
%ADD14C,0.200000*%
G04 APERTURE END LIST*
D10*
X164564113Y-55650000D02*
G75*
G03*
X164564113Y-55650000I-3394113J0D01*
G01*
X92564113Y-80650000D02*
G75*
G03*
X92564113Y-80650000I-3394113J0D01*
G01*
X92564113Y-55650000D02*
G75*
G03*
X92564113Y-55650000I-3394113J0D01*
G01*
X164564113Y-80650000D02*
G75*
G03*
X164564113Y-80650000I-3394113J0D01*
G01*
D11*
X118291428Y-51587821D02*
X118184286Y-51623535D01*
X118184286Y-51623535D02*
X118005714Y-51623535D01*
X118005714Y-51623535D02*
X117934286Y-51587821D01*
X117934286Y-51587821D02*
X117898571Y-51552107D01*
X117898571Y-51552107D02*
X117862857Y-51480678D01*
X117862857Y-51480678D02*
X117862857Y-51409250D01*
X117862857Y-51409250D02*
X117898571Y-51337821D01*
X117898571Y-51337821D02*
X117934286Y-51302107D01*
X117934286Y-51302107D02*
X118005714Y-51266392D01*
X118005714Y-51266392D02*
X118148571Y-51230678D01*
X118148571Y-51230678D02*
X118220000Y-51194964D01*
X118220000Y-51194964D02*
X118255714Y-51159250D01*
X118255714Y-51159250D02*
X118291428Y-51087821D01*
X118291428Y-51087821D02*
X118291428Y-51016392D01*
X118291428Y-51016392D02*
X118255714Y-50944964D01*
X118255714Y-50944964D02*
X118220000Y-50909250D01*
X118220000Y-50909250D02*
X118148571Y-50873535D01*
X118148571Y-50873535D02*
X117970000Y-50873535D01*
X117970000Y-50873535D02*
X117862857Y-50909250D01*
X117541428Y-51623535D02*
X117541428Y-50873535D01*
X117541428Y-50873535D02*
X117362857Y-50873535D01*
X117362857Y-50873535D02*
X117255714Y-50909250D01*
X117255714Y-50909250D02*
X117184285Y-50980678D01*
X117184285Y-50980678D02*
X117148571Y-51052107D01*
X117148571Y-51052107D02*
X117112857Y-51194964D01*
X117112857Y-51194964D02*
X117112857Y-51302107D01*
X117112857Y-51302107D02*
X117148571Y-51444964D01*
X117148571Y-51444964D02*
X117184285Y-51516392D01*
X117184285Y-51516392D02*
X117255714Y-51587821D01*
X117255714Y-51587821D02*
X117362857Y-51623535D01*
X117362857Y-51623535D02*
X117541428Y-51623535D01*
X116827142Y-51409250D02*
X116470000Y-51409250D01*
X116898571Y-51623535D02*
X116648571Y-50873535D01*
X116648571Y-50873535D02*
X116398571Y-51623535D01*
X115734285Y-51587821D02*
X115627143Y-51623535D01*
X115627143Y-51623535D02*
X115448571Y-51623535D01*
X115448571Y-51623535D02*
X115377143Y-51587821D01*
X115377143Y-51587821D02*
X115341428Y-51552107D01*
X115341428Y-51552107D02*
X115305714Y-51480678D01*
X115305714Y-51480678D02*
X115305714Y-51409250D01*
X115305714Y-51409250D02*
X115341428Y-51337821D01*
X115341428Y-51337821D02*
X115377143Y-51302107D01*
X115377143Y-51302107D02*
X115448571Y-51266392D01*
X115448571Y-51266392D02*
X115591428Y-51230678D01*
X115591428Y-51230678D02*
X115662857Y-51194964D01*
X115662857Y-51194964D02*
X115698571Y-51159250D01*
X115698571Y-51159250D02*
X115734285Y-51087821D01*
X115734285Y-51087821D02*
X115734285Y-51016392D01*
X115734285Y-51016392D02*
X115698571Y-50944964D01*
X115698571Y-50944964D02*
X115662857Y-50909250D01*
X115662857Y-50909250D02*
X115591428Y-50873535D01*
X115591428Y-50873535D02*
X115412857Y-50873535D01*
X115412857Y-50873535D02*
X115305714Y-50909250D01*
X114555714Y-51552107D02*
X114591428Y-51587821D01*
X114591428Y-51587821D02*
X114698571Y-51623535D01*
X114698571Y-51623535D02*
X114769999Y-51623535D01*
X114769999Y-51623535D02*
X114877142Y-51587821D01*
X114877142Y-51587821D02*
X114948571Y-51516392D01*
X114948571Y-51516392D02*
X114984285Y-51444964D01*
X114984285Y-51444964D02*
X115019999Y-51302107D01*
X115019999Y-51302107D02*
X115019999Y-51194964D01*
X115019999Y-51194964D02*
X114984285Y-51052107D01*
X114984285Y-51052107D02*
X114948571Y-50980678D01*
X114948571Y-50980678D02*
X114877142Y-50909250D01*
X114877142Y-50909250D02*
X114769999Y-50873535D01*
X114769999Y-50873535D02*
X114698571Y-50873535D01*
X114698571Y-50873535D02*
X114591428Y-50909250D01*
X114591428Y-50909250D02*
X114555714Y-50944964D01*
X113877142Y-51623535D02*
X114234285Y-51623535D01*
X114234285Y-51623535D02*
X114234285Y-50873535D01*
X113177142Y-51623535D02*
X113177142Y-50873535D01*
X113177142Y-50873535D02*
X112891428Y-50873535D01*
X112891428Y-50873535D02*
X112819999Y-50909250D01*
X112819999Y-50909250D02*
X112784285Y-50944964D01*
X112784285Y-50944964D02*
X112748571Y-51016392D01*
X112748571Y-51016392D02*
X112748571Y-51123535D01*
X112748571Y-51123535D02*
X112784285Y-51194964D01*
X112784285Y-51194964D02*
X112819999Y-51230678D01*
X112819999Y-51230678D02*
X112891428Y-51266392D01*
X112891428Y-51266392D02*
X113177142Y-51266392D01*
X112427142Y-51623535D02*
X112427142Y-51123535D01*
X112427142Y-50873535D02*
X112462856Y-50909250D01*
X112462856Y-50909250D02*
X112427142Y-50944964D01*
X112427142Y-50944964D02*
X112391428Y-50909250D01*
X112391428Y-50909250D02*
X112427142Y-50873535D01*
X112427142Y-50873535D02*
X112427142Y-50944964D01*
X112069999Y-51123535D02*
X112069999Y-51623535D01*
X112069999Y-51194964D02*
X112034285Y-51159250D01*
X112034285Y-51159250D02*
X111962856Y-51123535D01*
X111962856Y-51123535D02*
X111855713Y-51123535D01*
X111855713Y-51123535D02*
X111784285Y-51159250D01*
X111784285Y-51159250D02*
X111748571Y-51230678D01*
X111748571Y-51230678D02*
X111748571Y-51623535D01*
X111427142Y-50944964D02*
X111391428Y-50909250D01*
X111391428Y-50909250D02*
X111320000Y-50873535D01*
X111320000Y-50873535D02*
X111141428Y-50873535D01*
X111141428Y-50873535D02*
X111070000Y-50909250D01*
X111070000Y-50909250D02*
X111034285Y-50944964D01*
X111034285Y-50944964D02*
X110998571Y-51016392D01*
X110998571Y-51016392D02*
X110998571Y-51087821D01*
X110998571Y-51087821D02*
X111034285Y-51194964D01*
X111034285Y-51194964D02*
X111462857Y-51623535D01*
X111462857Y-51623535D02*
X110998571Y-51623535D01*
X110227142Y-51623535D02*
X110227142Y-50873535D01*
X110227142Y-50873535D02*
X109941428Y-50873535D01*
X109941428Y-50873535D02*
X109869999Y-50909250D01*
X109869999Y-50909250D02*
X109834285Y-50944964D01*
X109834285Y-50944964D02*
X109798571Y-51016392D01*
X109798571Y-51016392D02*
X109798571Y-51123535D01*
X109798571Y-51123535D02*
X109834285Y-51194964D01*
X109834285Y-51194964D02*
X109869999Y-51230678D01*
X109869999Y-51230678D02*
X109941428Y-51266392D01*
X109941428Y-51266392D02*
X110227142Y-51266392D01*
X109477142Y-51623535D02*
X109477142Y-51123535D01*
X109477142Y-50873535D02*
X109512856Y-50909250D01*
X109512856Y-50909250D02*
X109477142Y-50944964D01*
X109477142Y-50944964D02*
X109441428Y-50909250D01*
X109441428Y-50909250D02*
X109477142Y-50873535D01*
X109477142Y-50873535D02*
X109477142Y-50944964D01*
X109119999Y-51123535D02*
X109119999Y-51623535D01*
X109119999Y-51194964D02*
X109084285Y-51159250D01*
X109084285Y-51159250D02*
X109012856Y-51123535D01*
X109012856Y-51123535D02*
X108905713Y-51123535D01*
X108905713Y-51123535D02*
X108834285Y-51159250D01*
X108834285Y-51159250D02*
X108798571Y-51230678D01*
X108798571Y-51230678D02*
X108798571Y-51623535D01*
X108048571Y-51623535D02*
X108477142Y-51623535D01*
X108262857Y-51623535D02*
X108262857Y-50873535D01*
X108262857Y-50873535D02*
X108334285Y-50980678D01*
X108334285Y-50980678D02*
X108405714Y-51052107D01*
X108405714Y-51052107D02*
X108477142Y-51087821D01*
D12*
X93914000Y-63157428D02*
X93875904Y-63081238D01*
X93875904Y-63081238D02*
X93875904Y-62966952D01*
X93875904Y-62966952D02*
X93914000Y-62852666D01*
X93914000Y-62852666D02*
X93990190Y-62776476D01*
X93990190Y-62776476D02*
X94066380Y-62738381D01*
X94066380Y-62738381D02*
X94218761Y-62700285D01*
X94218761Y-62700285D02*
X94333047Y-62700285D01*
X94333047Y-62700285D02*
X94485428Y-62738381D01*
X94485428Y-62738381D02*
X94561619Y-62776476D01*
X94561619Y-62776476D02*
X94637809Y-62852666D01*
X94637809Y-62852666D02*
X94675904Y-62966952D01*
X94675904Y-62966952D02*
X94675904Y-63043143D01*
X94675904Y-63043143D02*
X94637809Y-63157428D01*
X94637809Y-63157428D02*
X94599714Y-63195524D01*
X94599714Y-63195524D02*
X94333047Y-63195524D01*
X94333047Y-63195524D02*
X94333047Y-63043143D01*
X94142571Y-63538381D02*
X94675904Y-63538381D01*
X94218761Y-63538381D02*
X94180666Y-63576476D01*
X94180666Y-63576476D02*
X94142571Y-63652666D01*
X94142571Y-63652666D02*
X94142571Y-63766952D01*
X94142571Y-63766952D02*
X94180666Y-63843143D01*
X94180666Y-63843143D02*
X94256857Y-63881238D01*
X94256857Y-63881238D02*
X94675904Y-63881238D01*
X94675904Y-64605048D02*
X93875904Y-64605048D01*
X94637809Y-64605048D02*
X94675904Y-64528857D01*
X94675904Y-64528857D02*
X94675904Y-64376476D01*
X94675904Y-64376476D02*
X94637809Y-64300286D01*
X94637809Y-64300286D02*
X94599714Y-64262191D01*
X94599714Y-64262191D02*
X94523523Y-64224095D01*
X94523523Y-64224095D02*
X94294952Y-64224095D01*
X94294952Y-64224095D02*
X94218761Y-64262191D01*
X94218761Y-64262191D02*
X94180666Y-64300286D01*
X94180666Y-64300286D02*
X94142571Y-64376476D01*
X94142571Y-64376476D02*
X94142571Y-64528857D01*
X94142571Y-64528857D02*
X94180666Y-64605048D01*
X94675904Y-65466001D02*
X93875904Y-65466001D01*
X93875904Y-65466001D02*
X93875904Y-65656477D01*
X93875904Y-65656477D02*
X93914000Y-65770763D01*
X93914000Y-65770763D02*
X93990190Y-65846953D01*
X93990190Y-65846953D02*
X94066380Y-65885048D01*
X94066380Y-65885048D02*
X94218761Y-65923144D01*
X94218761Y-65923144D02*
X94333047Y-65923144D01*
X94333047Y-65923144D02*
X94485428Y-65885048D01*
X94485428Y-65885048D02*
X94561619Y-65846953D01*
X94561619Y-65846953D02*
X94637809Y-65770763D01*
X94637809Y-65770763D02*
X94675904Y-65656477D01*
X94675904Y-65656477D02*
X94675904Y-65466001D01*
X94371142Y-66266001D02*
X94371142Y-66875525D01*
X94675904Y-66570763D02*
X94066380Y-66570763D01*
X94675904Y-67736477D02*
X93875904Y-67736477D01*
X93875904Y-67736477D02*
X93875904Y-67926953D01*
X93875904Y-67926953D02*
X93914000Y-68041239D01*
X93914000Y-68041239D02*
X93990190Y-68117429D01*
X93990190Y-68117429D02*
X94066380Y-68155524D01*
X94066380Y-68155524D02*
X94218761Y-68193620D01*
X94218761Y-68193620D02*
X94333047Y-68193620D01*
X94333047Y-68193620D02*
X94485428Y-68155524D01*
X94485428Y-68155524D02*
X94561619Y-68117429D01*
X94561619Y-68117429D02*
X94637809Y-68041239D01*
X94637809Y-68041239D02*
X94675904Y-67926953D01*
X94675904Y-67926953D02*
X94675904Y-67736477D01*
X94371142Y-68536477D02*
X94371142Y-69146001D01*
X93875904Y-70387905D02*
X93875904Y-70006953D01*
X93875904Y-70006953D02*
X94256857Y-69968857D01*
X94256857Y-69968857D02*
X94218761Y-70006953D01*
X94218761Y-70006953D02*
X94180666Y-70083143D01*
X94180666Y-70083143D02*
X94180666Y-70273619D01*
X94180666Y-70273619D02*
X94218761Y-70349810D01*
X94218761Y-70349810D02*
X94256857Y-70387905D01*
X94256857Y-70387905D02*
X94333047Y-70426000D01*
X94333047Y-70426000D02*
X94523523Y-70426000D01*
X94523523Y-70426000D02*
X94599714Y-70387905D01*
X94599714Y-70387905D02*
X94637809Y-70349810D01*
X94637809Y-70349810D02*
X94675904Y-70273619D01*
X94675904Y-70273619D02*
X94675904Y-70083143D01*
X94675904Y-70083143D02*
X94637809Y-70006953D01*
X94637809Y-70006953D02*
X94599714Y-69968857D01*
X93875904Y-70654572D02*
X94675904Y-70921239D01*
X94675904Y-70921239D02*
X93875904Y-71187905D01*
X100346190Y-56732619D02*
X100298571Y-56685000D01*
X100298571Y-56685000D02*
X100203333Y-56637380D01*
X100203333Y-56637380D02*
X99965238Y-56637380D01*
X99965238Y-56637380D02*
X99870000Y-56685000D01*
X99870000Y-56685000D02*
X99822381Y-56732619D01*
X99822381Y-56732619D02*
X99774762Y-56827857D01*
X99774762Y-56827857D02*
X99774762Y-56923095D01*
X99774762Y-56923095D02*
X99822381Y-57065952D01*
X99822381Y-57065952D02*
X100393809Y-57637380D01*
X100393809Y-57637380D02*
X99774762Y-57637380D01*
X99060476Y-58018333D02*
X99108095Y-57970714D01*
X99108095Y-57970714D02*
X99203333Y-57827857D01*
X99203333Y-57827857D02*
X99250952Y-57732619D01*
X99250952Y-57732619D02*
X99298571Y-57589761D01*
X99298571Y-57589761D02*
X99346190Y-57351666D01*
X99346190Y-57351666D02*
X99346190Y-57161190D01*
X99346190Y-57161190D02*
X99298571Y-56923095D01*
X99298571Y-56923095D02*
X99250952Y-56780238D01*
X99250952Y-56780238D02*
X99203333Y-56685000D01*
X99203333Y-56685000D02*
X99108095Y-56542142D01*
X99108095Y-56542142D02*
X99060476Y-56494523D01*
X98155714Y-56685000D02*
X98250952Y-56637380D01*
X98250952Y-56637380D02*
X98393809Y-56637380D01*
X98393809Y-56637380D02*
X98536666Y-56685000D01*
X98536666Y-56685000D02*
X98631904Y-56780238D01*
X98631904Y-56780238D02*
X98679523Y-56875476D01*
X98679523Y-56875476D02*
X98727142Y-57065952D01*
X98727142Y-57065952D02*
X98727142Y-57208809D01*
X98727142Y-57208809D02*
X98679523Y-57399285D01*
X98679523Y-57399285D02*
X98631904Y-57494523D01*
X98631904Y-57494523D02*
X98536666Y-57589761D01*
X98536666Y-57589761D02*
X98393809Y-57637380D01*
X98393809Y-57637380D02*
X98298571Y-57637380D01*
X98298571Y-57637380D02*
X98155714Y-57589761D01*
X98155714Y-57589761D02*
X98108095Y-57542142D01*
X98108095Y-57542142D02*
X98108095Y-57208809D01*
X98108095Y-57208809D02*
X98298571Y-57208809D01*
X97679523Y-57637380D02*
X97679523Y-56637380D01*
X97679523Y-56637380D02*
X97108095Y-57637380D01*
X97108095Y-57637380D02*
X97108095Y-56637380D01*
X96631904Y-57637380D02*
X96631904Y-56637380D01*
X96631904Y-56637380D02*
X96393809Y-56637380D01*
X96393809Y-56637380D02*
X96250952Y-56685000D01*
X96250952Y-56685000D02*
X96155714Y-56780238D01*
X96155714Y-56780238D02*
X96108095Y-56875476D01*
X96108095Y-56875476D02*
X96060476Y-57065952D01*
X96060476Y-57065952D02*
X96060476Y-57208809D01*
X96060476Y-57208809D02*
X96108095Y-57399285D01*
X96108095Y-57399285D02*
X96155714Y-57494523D01*
X96155714Y-57494523D02*
X96250952Y-57589761D01*
X96250952Y-57589761D02*
X96393809Y-57637380D01*
X96393809Y-57637380D02*
X96631904Y-57637380D01*
X95727142Y-58018333D02*
X95679523Y-57970714D01*
X95679523Y-57970714D02*
X95584285Y-57827857D01*
X95584285Y-57827857D02*
X95536666Y-57732619D01*
X95536666Y-57732619D02*
X95489047Y-57589761D01*
X95489047Y-57589761D02*
X95441428Y-57351666D01*
X95441428Y-57351666D02*
X95441428Y-57161190D01*
X95441428Y-57161190D02*
X95489047Y-56923095D01*
X95489047Y-56923095D02*
X95536666Y-56780238D01*
X95536666Y-56780238D02*
X95584285Y-56685000D01*
X95584285Y-56685000D02*
X95679523Y-56542142D01*
X95679523Y-56542142D02*
X95727142Y-56494523D01*
D13*
X108377142Y-54725535D02*
X108805713Y-54725535D01*
X108591428Y-54725535D02*
X108591428Y-53975535D01*
X108591428Y-53975535D02*
X108662856Y-54082678D01*
X108662856Y-54082678D02*
X108734285Y-54154107D01*
X108734285Y-54154107D02*
X108805713Y-54189821D01*
X107841427Y-55011250D02*
X107877142Y-54975535D01*
X107877142Y-54975535D02*
X107948570Y-54868392D01*
X107948570Y-54868392D02*
X107984285Y-54796964D01*
X107984285Y-54796964D02*
X108019999Y-54689821D01*
X108019999Y-54689821D02*
X108055713Y-54511250D01*
X108055713Y-54511250D02*
X108055713Y-54368392D01*
X108055713Y-54368392D02*
X108019999Y-54189821D01*
X108019999Y-54189821D02*
X107984285Y-54082678D01*
X107984285Y-54082678D02*
X107948570Y-54011250D01*
X107948570Y-54011250D02*
X107877142Y-53904107D01*
X107877142Y-53904107D02*
X107841427Y-53868392D01*
X107662856Y-53975535D02*
X107412856Y-54725535D01*
X107412856Y-54725535D02*
X107162856Y-53975535D01*
X106484285Y-54654107D02*
X106519999Y-54689821D01*
X106519999Y-54689821D02*
X106627142Y-54725535D01*
X106627142Y-54725535D02*
X106698570Y-54725535D01*
X106698570Y-54725535D02*
X106805713Y-54689821D01*
X106805713Y-54689821D02*
X106877142Y-54618392D01*
X106877142Y-54618392D02*
X106912856Y-54546964D01*
X106912856Y-54546964D02*
X106948570Y-54404107D01*
X106948570Y-54404107D02*
X106948570Y-54296964D01*
X106948570Y-54296964D02*
X106912856Y-54154107D01*
X106912856Y-54154107D02*
X106877142Y-54082678D01*
X106877142Y-54082678D02*
X106805713Y-54011250D01*
X106805713Y-54011250D02*
X106698570Y-53975535D01*
X106698570Y-53975535D02*
X106627142Y-53975535D01*
X106627142Y-53975535D02*
X106519999Y-54011250D01*
X106519999Y-54011250D02*
X106484285Y-54046964D01*
X105734285Y-54654107D02*
X105769999Y-54689821D01*
X105769999Y-54689821D02*
X105877142Y-54725535D01*
X105877142Y-54725535D02*
X105948570Y-54725535D01*
X105948570Y-54725535D02*
X106055713Y-54689821D01*
X106055713Y-54689821D02*
X106127142Y-54618392D01*
X106127142Y-54618392D02*
X106162856Y-54546964D01*
X106162856Y-54546964D02*
X106198570Y-54404107D01*
X106198570Y-54404107D02*
X106198570Y-54296964D01*
X106198570Y-54296964D02*
X106162856Y-54154107D01*
X106162856Y-54154107D02*
X106127142Y-54082678D01*
X106127142Y-54082678D02*
X106055713Y-54011250D01*
X106055713Y-54011250D02*
X105948570Y-53975535D01*
X105948570Y-53975535D02*
X105877142Y-53975535D01*
X105877142Y-53975535D02*
X105769999Y-54011250D01*
X105769999Y-54011250D02*
X105734285Y-54046964D01*
X105484285Y-55011250D02*
X105448570Y-54975535D01*
X105448570Y-54975535D02*
X105377142Y-54868392D01*
X105377142Y-54868392D02*
X105341428Y-54796964D01*
X105341428Y-54796964D02*
X105305713Y-54689821D01*
X105305713Y-54689821D02*
X105269999Y-54511250D01*
X105269999Y-54511250D02*
X105269999Y-54368392D01*
X105269999Y-54368392D02*
X105305713Y-54189821D01*
X105305713Y-54189821D02*
X105341428Y-54082678D01*
X105341428Y-54082678D02*
X105377142Y-54011250D01*
X105377142Y-54011250D02*
X105448570Y-53904107D01*
X105448570Y-53904107D02*
X105484285Y-53868392D01*
X109605713Y-55346964D02*
X109569999Y-55311250D01*
X109569999Y-55311250D02*
X109498571Y-55275535D01*
X109498571Y-55275535D02*
X109319999Y-55275535D01*
X109319999Y-55275535D02*
X109248571Y-55311250D01*
X109248571Y-55311250D02*
X109212856Y-55346964D01*
X109212856Y-55346964D02*
X109177142Y-55418392D01*
X109177142Y-55418392D02*
X109177142Y-55489821D01*
X109177142Y-55489821D02*
X109212856Y-55596964D01*
X109212856Y-55596964D02*
X109641428Y-56025535D01*
X109641428Y-56025535D02*
X109177142Y-56025535D01*
X108641427Y-56311250D02*
X108677142Y-56275535D01*
X108677142Y-56275535D02*
X108748570Y-56168392D01*
X108748570Y-56168392D02*
X108784285Y-56096964D01*
X108784285Y-56096964D02*
X108819999Y-55989821D01*
X108819999Y-55989821D02*
X108855713Y-55811250D01*
X108855713Y-55811250D02*
X108855713Y-55668392D01*
X108855713Y-55668392D02*
X108819999Y-55489821D01*
X108819999Y-55489821D02*
X108784285Y-55382678D01*
X108784285Y-55382678D02*
X108748570Y-55311250D01*
X108748570Y-55311250D02*
X108677142Y-55204107D01*
X108677142Y-55204107D02*
X108641427Y-55168392D01*
X108462856Y-55275535D02*
X108212856Y-56025535D01*
X108212856Y-56025535D02*
X107962856Y-55275535D01*
X107284285Y-55954107D02*
X107319999Y-55989821D01*
X107319999Y-55989821D02*
X107427142Y-56025535D01*
X107427142Y-56025535D02*
X107498570Y-56025535D01*
X107498570Y-56025535D02*
X107605713Y-55989821D01*
X107605713Y-55989821D02*
X107677142Y-55918392D01*
X107677142Y-55918392D02*
X107712856Y-55846964D01*
X107712856Y-55846964D02*
X107748570Y-55704107D01*
X107748570Y-55704107D02*
X107748570Y-55596964D01*
X107748570Y-55596964D02*
X107712856Y-55454107D01*
X107712856Y-55454107D02*
X107677142Y-55382678D01*
X107677142Y-55382678D02*
X107605713Y-55311250D01*
X107605713Y-55311250D02*
X107498570Y-55275535D01*
X107498570Y-55275535D02*
X107427142Y-55275535D01*
X107427142Y-55275535D02*
X107319999Y-55311250D01*
X107319999Y-55311250D02*
X107284285Y-55346964D01*
X106534285Y-55954107D02*
X106569999Y-55989821D01*
X106569999Y-55989821D02*
X106677142Y-56025535D01*
X106677142Y-56025535D02*
X106748570Y-56025535D01*
X106748570Y-56025535D02*
X106855713Y-55989821D01*
X106855713Y-55989821D02*
X106927142Y-55918392D01*
X106927142Y-55918392D02*
X106962856Y-55846964D01*
X106962856Y-55846964D02*
X106998570Y-55704107D01*
X106998570Y-55704107D02*
X106998570Y-55596964D01*
X106998570Y-55596964D02*
X106962856Y-55454107D01*
X106962856Y-55454107D02*
X106927142Y-55382678D01*
X106927142Y-55382678D02*
X106855713Y-55311250D01*
X106855713Y-55311250D02*
X106748570Y-55275535D01*
X106748570Y-55275535D02*
X106677142Y-55275535D01*
X106677142Y-55275535D02*
X106569999Y-55311250D01*
X106569999Y-55311250D02*
X106534285Y-55346964D01*
X106284285Y-56311250D02*
X106248570Y-56275535D01*
X106248570Y-56275535D02*
X106177142Y-56168392D01*
X106177142Y-56168392D02*
X106141428Y-56096964D01*
X106141428Y-56096964D02*
X106105713Y-55989821D01*
X106105713Y-55989821D02*
X106069999Y-55811250D01*
X106069999Y-55811250D02*
X106069999Y-55668392D01*
X106069999Y-55668392D02*
X106105713Y-55489821D01*
X106105713Y-55489821D02*
X106141428Y-55382678D01*
X106141428Y-55382678D02*
X106177142Y-55311250D01*
X106177142Y-55311250D02*
X106248570Y-55204107D01*
X106248570Y-55204107D02*
X106284285Y-55168392D01*
D12*
X154041428Y-62886785D02*
X154041428Y-62136785D01*
X154041428Y-62136785D02*
X153612857Y-62886785D01*
X153612857Y-62886785D02*
X153612857Y-62136785D01*
X152970000Y-62851071D02*
X153041428Y-62886785D01*
X153041428Y-62886785D02*
X153184286Y-62886785D01*
X153184286Y-62886785D02*
X153255714Y-62851071D01*
X153255714Y-62851071D02*
X153291428Y-62779642D01*
X153291428Y-62779642D02*
X153291428Y-62493928D01*
X153291428Y-62493928D02*
X153255714Y-62422500D01*
X153255714Y-62422500D02*
X153184286Y-62386785D01*
X153184286Y-62386785D02*
X153041428Y-62386785D01*
X153041428Y-62386785D02*
X152970000Y-62422500D01*
X152970000Y-62422500D02*
X152934286Y-62493928D01*
X152934286Y-62493928D02*
X152934286Y-62565357D01*
X152934286Y-62565357D02*
X153291428Y-62636785D01*
X152505714Y-62886785D02*
X152577143Y-62851071D01*
X152577143Y-62851071D02*
X152612857Y-62815357D01*
X152612857Y-62815357D02*
X152648571Y-62743928D01*
X152648571Y-62743928D02*
X152648571Y-62529642D01*
X152648571Y-62529642D02*
X152612857Y-62458214D01*
X152612857Y-62458214D02*
X152577143Y-62422500D01*
X152577143Y-62422500D02*
X152505714Y-62386785D01*
X152505714Y-62386785D02*
X152398571Y-62386785D01*
X152398571Y-62386785D02*
X152327143Y-62422500D01*
X152327143Y-62422500D02*
X152291429Y-62458214D01*
X152291429Y-62458214D02*
X152255714Y-62529642D01*
X152255714Y-62529642D02*
X152255714Y-62743928D01*
X152255714Y-62743928D02*
X152291429Y-62815357D01*
X152291429Y-62815357D02*
X152327143Y-62851071D01*
X152327143Y-62851071D02*
X152398571Y-62886785D01*
X152398571Y-62886785D02*
X152505714Y-62886785D01*
X151934286Y-62386785D02*
X151934286Y-63136785D01*
X151934286Y-62422500D02*
X151862858Y-62386785D01*
X151862858Y-62386785D02*
X151720000Y-62386785D01*
X151720000Y-62386785D02*
X151648572Y-62422500D01*
X151648572Y-62422500D02*
X151612858Y-62458214D01*
X151612858Y-62458214D02*
X151577143Y-62529642D01*
X151577143Y-62529642D02*
X151577143Y-62743928D01*
X151577143Y-62743928D02*
X151612858Y-62815357D01*
X151612858Y-62815357D02*
X151648572Y-62851071D01*
X151648572Y-62851071D02*
X151720000Y-62886785D01*
X151720000Y-62886785D02*
X151862858Y-62886785D01*
X151862858Y-62886785D02*
X151934286Y-62851071D01*
X151255715Y-62886785D02*
X151255715Y-62386785D01*
X151255715Y-62136785D02*
X151291429Y-62172500D01*
X151291429Y-62172500D02*
X151255715Y-62208214D01*
X151255715Y-62208214D02*
X151220001Y-62172500D01*
X151220001Y-62172500D02*
X151255715Y-62136785D01*
X151255715Y-62136785D02*
X151255715Y-62208214D01*
X150970001Y-62886785D02*
X150577144Y-62386785D01*
X150970001Y-62386785D02*
X150577144Y-62886785D01*
X150005715Y-62851071D02*
X150077143Y-62886785D01*
X150077143Y-62886785D02*
X150220001Y-62886785D01*
X150220001Y-62886785D02*
X150291429Y-62851071D01*
X150291429Y-62851071D02*
X150327143Y-62779642D01*
X150327143Y-62779642D02*
X150327143Y-62493928D01*
X150327143Y-62493928D02*
X150291429Y-62422500D01*
X150291429Y-62422500D02*
X150220001Y-62386785D01*
X150220001Y-62386785D02*
X150077143Y-62386785D01*
X150077143Y-62386785D02*
X150005715Y-62422500D01*
X150005715Y-62422500D02*
X149970001Y-62493928D01*
X149970001Y-62493928D02*
X149970001Y-62565357D01*
X149970001Y-62565357D02*
X150327143Y-62636785D01*
X149541429Y-62886785D02*
X149612858Y-62851071D01*
X149612858Y-62851071D02*
X149648572Y-62779642D01*
X149648572Y-62779642D02*
X149648572Y-62136785D01*
X127634285Y-63471786D02*
X127512857Y-63512262D01*
X127512857Y-63512262D02*
X127472380Y-63552739D01*
X127472380Y-63552739D02*
X127431904Y-63633691D01*
X127431904Y-63633691D02*
X127431904Y-63755120D01*
X127431904Y-63755120D02*
X127472380Y-63836072D01*
X127472380Y-63836072D02*
X127512857Y-63876548D01*
X127512857Y-63876548D02*
X127593809Y-63917024D01*
X127593809Y-63917024D02*
X127917619Y-63917024D01*
X127917619Y-63917024D02*
X127917619Y-63067024D01*
X127917619Y-63067024D02*
X127634285Y-63067024D01*
X127634285Y-63067024D02*
X127553333Y-63107501D01*
X127553333Y-63107501D02*
X127512857Y-63147977D01*
X127512857Y-63147977D02*
X127472380Y-63228929D01*
X127472380Y-63228929D02*
X127472380Y-63309881D01*
X127472380Y-63309881D02*
X127512857Y-63390834D01*
X127512857Y-63390834D02*
X127553333Y-63431310D01*
X127553333Y-63431310D02*
X127634285Y-63471786D01*
X127634285Y-63471786D02*
X127917619Y-63471786D01*
X126905714Y-63067024D02*
X126743809Y-63067024D01*
X126743809Y-63067024D02*
X126662857Y-63107501D01*
X126662857Y-63107501D02*
X126581904Y-63188453D01*
X126581904Y-63188453D02*
X126541428Y-63350358D01*
X126541428Y-63350358D02*
X126541428Y-63633691D01*
X126541428Y-63633691D02*
X126581904Y-63795596D01*
X126581904Y-63795596D02*
X126662857Y-63876548D01*
X126662857Y-63876548D02*
X126743809Y-63917024D01*
X126743809Y-63917024D02*
X126905714Y-63917024D01*
X126905714Y-63917024D02*
X126986666Y-63876548D01*
X126986666Y-63876548D02*
X127067619Y-63795596D01*
X127067619Y-63795596D02*
X127108095Y-63633691D01*
X127108095Y-63633691D02*
X127108095Y-63350358D01*
X127108095Y-63350358D02*
X127067619Y-63188453D01*
X127067619Y-63188453D02*
X126986666Y-63107501D01*
X126986666Y-63107501D02*
X126905714Y-63067024D01*
X126015238Y-63067024D02*
X125853333Y-63067024D01*
X125853333Y-63067024D02*
X125772381Y-63107501D01*
X125772381Y-63107501D02*
X125691428Y-63188453D01*
X125691428Y-63188453D02*
X125650952Y-63350358D01*
X125650952Y-63350358D02*
X125650952Y-63633691D01*
X125650952Y-63633691D02*
X125691428Y-63795596D01*
X125691428Y-63795596D02*
X125772381Y-63876548D01*
X125772381Y-63876548D02*
X125853333Y-63917024D01*
X125853333Y-63917024D02*
X126015238Y-63917024D01*
X126015238Y-63917024D02*
X126096190Y-63876548D01*
X126096190Y-63876548D02*
X126177143Y-63795596D01*
X126177143Y-63795596D02*
X126217619Y-63633691D01*
X126217619Y-63633691D02*
X126217619Y-63350358D01*
X126217619Y-63350358D02*
X126177143Y-63188453D01*
X126177143Y-63188453D02*
X126096190Y-63107501D01*
X126096190Y-63107501D02*
X126015238Y-63067024D01*
X125408095Y-63067024D02*
X124922381Y-63067024D01*
X125165238Y-63917024D02*
X125165238Y-63067024D01*
D13*
X131162428Y-74241785D02*
X131162428Y-73491785D01*
X131162428Y-73491785D02*
X130912428Y-74027500D01*
X130912428Y-74027500D02*
X130662428Y-73491785D01*
X130662428Y-73491785D02*
X130662428Y-74241785D01*
X129983857Y-74241785D02*
X129983857Y-73848928D01*
X129983857Y-73848928D02*
X130019571Y-73777500D01*
X130019571Y-73777500D02*
X130090999Y-73741785D01*
X130090999Y-73741785D02*
X130233857Y-73741785D01*
X130233857Y-73741785D02*
X130305285Y-73777500D01*
X129983857Y-74206071D02*
X130055285Y-74241785D01*
X130055285Y-74241785D02*
X130233857Y-74241785D01*
X130233857Y-74241785D02*
X130305285Y-74206071D01*
X130305285Y-74206071D02*
X130340999Y-74134642D01*
X130340999Y-74134642D02*
X130340999Y-74063214D01*
X130340999Y-74063214D02*
X130305285Y-73991785D01*
X130305285Y-73991785D02*
X130233857Y-73956071D01*
X130233857Y-73956071D02*
X130055285Y-73956071D01*
X130055285Y-73956071D02*
X129983857Y-73920357D01*
X129305286Y-74241785D02*
X129305286Y-73491785D01*
X129305286Y-74206071D02*
X129376714Y-74241785D01*
X129376714Y-74241785D02*
X129519571Y-74241785D01*
X129519571Y-74241785D02*
X129591000Y-74206071D01*
X129591000Y-74206071D02*
X129626714Y-74170357D01*
X129626714Y-74170357D02*
X129662428Y-74098928D01*
X129662428Y-74098928D02*
X129662428Y-73884642D01*
X129662428Y-73884642D02*
X129626714Y-73813214D01*
X129626714Y-73813214D02*
X129591000Y-73777500D01*
X129591000Y-73777500D02*
X129519571Y-73741785D01*
X129519571Y-73741785D02*
X129376714Y-73741785D01*
X129376714Y-73741785D02*
X129305286Y-73777500D01*
X128662429Y-74206071D02*
X128733857Y-74241785D01*
X128733857Y-74241785D02*
X128876715Y-74241785D01*
X128876715Y-74241785D02*
X128948143Y-74206071D01*
X128948143Y-74206071D02*
X128983857Y-74134642D01*
X128983857Y-74134642D02*
X128983857Y-73848928D01*
X128983857Y-73848928D02*
X128948143Y-73777500D01*
X128948143Y-73777500D02*
X128876715Y-73741785D01*
X128876715Y-73741785D02*
X128733857Y-73741785D01*
X128733857Y-73741785D02*
X128662429Y-73777500D01*
X128662429Y-73777500D02*
X128626715Y-73848928D01*
X128626715Y-73848928D02*
X128626715Y-73920357D01*
X128626715Y-73920357D02*
X128983857Y-73991785D01*
X127855286Y-74241785D02*
X127855286Y-73491785D01*
X127855286Y-73777500D02*
X127783858Y-73741785D01*
X127783858Y-73741785D02*
X127641000Y-73741785D01*
X127641000Y-73741785D02*
X127569572Y-73777500D01*
X127569572Y-73777500D02*
X127533858Y-73813214D01*
X127533858Y-73813214D02*
X127498143Y-73884642D01*
X127498143Y-73884642D02*
X127498143Y-74098928D01*
X127498143Y-74098928D02*
X127533858Y-74170357D01*
X127533858Y-74170357D02*
X127569572Y-74206071D01*
X127569572Y-74206071D02*
X127641000Y-74241785D01*
X127641000Y-74241785D02*
X127783858Y-74241785D01*
X127783858Y-74241785D02*
X127855286Y-74206071D01*
X127248144Y-73741785D02*
X127069572Y-74241785D01*
X126891001Y-73741785D02*
X127069572Y-74241785D01*
X127069572Y-74241785D02*
X127141001Y-74420357D01*
X127141001Y-74420357D02*
X127176715Y-74456071D01*
X127176715Y-74456071D02*
X127248144Y-74491785D01*
X126262429Y-73491785D02*
X125833858Y-73491785D01*
X126048143Y-74241785D02*
X126048143Y-73491785D01*
X125583857Y-74241785D02*
X125583857Y-73741785D01*
X125583857Y-73491785D02*
X125619571Y-73527500D01*
X125619571Y-73527500D02*
X125583857Y-73563214D01*
X125583857Y-73563214D02*
X125548143Y-73527500D01*
X125548143Y-73527500D02*
X125583857Y-73491785D01*
X125583857Y-73491785D02*
X125583857Y-73563214D01*
X125226714Y-74241785D02*
X125226714Y-73741785D01*
X125226714Y-73813214D02*
X125191000Y-73777500D01*
X125191000Y-73777500D02*
X125119571Y-73741785D01*
X125119571Y-73741785D02*
X125012428Y-73741785D01*
X125012428Y-73741785D02*
X124941000Y-73777500D01*
X124941000Y-73777500D02*
X124905286Y-73848928D01*
X124905286Y-73848928D02*
X124905286Y-74241785D01*
X124905286Y-73848928D02*
X124869571Y-73777500D01*
X124869571Y-73777500D02*
X124798143Y-73741785D01*
X124798143Y-73741785D02*
X124691000Y-73741785D01*
X124691000Y-73741785D02*
X124619571Y-73777500D01*
X124619571Y-73777500D02*
X124583857Y-73848928D01*
X124583857Y-73848928D02*
X124583857Y-74241785D01*
X124226714Y-74241785D02*
X124226714Y-73741785D01*
X124226714Y-73813214D02*
X124191000Y-73777500D01*
X124191000Y-73777500D02*
X124119571Y-73741785D01*
X124119571Y-73741785D02*
X124012428Y-73741785D01*
X124012428Y-73741785D02*
X123941000Y-73777500D01*
X123941000Y-73777500D02*
X123905286Y-73848928D01*
X123905286Y-73848928D02*
X123905286Y-74241785D01*
X123905286Y-73848928D02*
X123869571Y-73777500D01*
X123869571Y-73777500D02*
X123798143Y-73741785D01*
X123798143Y-73741785D02*
X123691000Y-73741785D01*
X123691000Y-73741785D02*
X123619571Y-73777500D01*
X123619571Y-73777500D02*
X123583857Y-73848928D01*
X123583857Y-73848928D02*
X123583857Y-74241785D01*
X123226714Y-74241785D02*
X123226714Y-73741785D01*
X123226714Y-73491785D02*
X123262428Y-73527500D01*
X123262428Y-73527500D02*
X123226714Y-73563214D01*
X123226714Y-73563214D02*
X123191000Y-73527500D01*
X123191000Y-73527500D02*
X123226714Y-73491785D01*
X123226714Y-73491785D02*
X123226714Y-73563214D01*
X122976714Y-73741785D02*
X122691000Y-73741785D01*
X122869571Y-73491785D02*
X122869571Y-74134642D01*
X122869571Y-74134642D02*
X122833857Y-74206071D01*
X122833857Y-74206071D02*
X122762428Y-74241785D01*
X122762428Y-74241785D02*
X122691000Y-74241785D01*
X122405286Y-74241785D02*
X122262429Y-74241785D01*
X122262429Y-74241785D02*
X122191000Y-74206071D01*
X122191000Y-74206071D02*
X122155286Y-74170357D01*
X122155286Y-74170357D02*
X122083857Y-74063214D01*
X122083857Y-74063214D02*
X122048143Y-73920357D01*
X122048143Y-73920357D02*
X122048143Y-73634642D01*
X122048143Y-73634642D02*
X122083857Y-73563214D01*
X122083857Y-73563214D02*
X122119572Y-73527500D01*
X122119572Y-73527500D02*
X122191000Y-73491785D01*
X122191000Y-73491785D02*
X122333857Y-73491785D01*
X122333857Y-73491785D02*
X122405286Y-73527500D01*
X122405286Y-73527500D02*
X122441000Y-73563214D01*
X122441000Y-73563214D02*
X122476714Y-73634642D01*
X122476714Y-73634642D02*
X122476714Y-73813214D01*
X122476714Y-73813214D02*
X122441000Y-73884642D01*
X122441000Y-73884642D02*
X122405286Y-73920357D01*
X122405286Y-73920357D02*
X122333857Y-73956071D01*
X122333857Y-73956071D02*
X122191000Y-73956071D01*
X122191000Y-73956071D02*
X122119572Y-73920357D01*
X122119572Y-73920357D02*
X122083857Y-73884642D01*
X122083857Y-73884642D02*
X122048143Y-73813214D01*
X121691000Y-74241785D02*
X121548143Y-74241785D01*
X121548143Y-74241785D02*
X121476714Y-74206071D01*
X121476714Y-74206071D02*
X121441000Y-74170357D01*
X121441000Y-74170357D02*
X121369571Y-74063214D01*
X121369571Y-74063214D02*
X121333857Y-73920357D01*
X121333857Y-73920357D02*
X121333857Y-73634642D01*
X121333857Y-73634642D02*
X121369571Y-73563214D01*
X121369571Y-73563214D02*
X121405286Y-73527500D01*
X121405286Y-73527500D02*
X121476714Y-73491785D01*
X121476714Y-73491785D02*
X121619571Y-73491785D01*
X121619571Y-73491785D02*
X121691000Y-73527500D01*
X121691000Y-73527500D02*
X121726714Y-73563214D01*
X121726714Y-73563214D02*
X121762428Y-73634642D01*
X121762428Y-73634642D02*
X121762428Y-73813214D01*
X121762428Y-73813214D02*
X121726714Y-73884642D01*
X121726714Y-73884642D02*
X121691000Y-73920357D01*
X121691000Y-73920357D02*
X121619571Y-73956071D01*
X121619571Y-73956071D02*
X121476714Y-73956071D01*
X121476714Y-73956071D02*
X121405286Y-73920357D01*
X121405286Y-73920357D02*
X121369571Y-73884642D01*
X121369571Y-73884642D02*
X121333857Y-73813214D01*
X131430285Y-75456785D02*
X131430285Y-74706785D01*
X131430285Y-74706785D02*
X131251714Y-74706785D01*
X131251714Y-74706785D02*
X131144571Y-74742500D01*
X131144571Y-74742500D02*
X131073142Y-74813928D01*
X131073142Y-74813928D02*
X131037428Y-74885357D01*
X131037428Y-74885357D02*
X131001714Y-75028214D01*
X131001714Y-75028214D02*
X131001714Y-75135357D01*
X131001714Y-75135357D02*
X131037428Y-75278214D01*
X131037428Y-75278214D02*
X131073142Y-75349642D01*
X131073142Y-75349642D02*
X131144571Y-75421071D01*
X131144571Y-75421071D02*
X131251714Y-75456785D01*
X131251714Y-75456785D02*
X131430285Y-75456785D01*
X130394571Y-75421071D02*
X130465999Y-75456785D01*
X130465999Y-75456785D02*
X130608857Y-75456785D01*
X130608857Y-75456785D02*
X130680285Y-75421071D01*
X130680285Y-75421071D02*
X130715999Y-75349642D01*
X130715999Y-75349642D02*
X130715999Y-75063928D01*
X130715999Y-75063928D02*
X130680285Y-74992500D01*
X130680285Y-74992500D02*
X130608857Y-74956785D01*
X130608857Y-74956785D02*
X130465999Y-74956785D01*
X130465999Y-74956785D02*
X130394571Y-74992500D01*
X130394571Y-74992500D02*
X130358857Y-75063928D01*
X130358857Y-75063928D02*
X130358857Y-75135357D01*
X130358857Y-75135357D02*
X130715999Y-75206785D01*
X130037428Y-75456785D02*
X130037428Y-74956785D01*
X130037428Y-75099642D02*
X130001714Y-75028214D01*
X130001714Y-75028214D02*
X129966000Y-74992500D01*
X129966000Y-74992500D02*
X129894571Y-74956785D01*
X129894571Y-74956785D02*
X129823142Y-74956785D01*
X129573142Y-75456785D02*
X129573142Y-74956785D01*
X129573142Y-74706785D02*
X129608856Y-74742500D01*
X129608856Y-74742500D02*
X129573142Y-74778214D01*
X129573142Y-74778214D02*
X129537428Y-74742500D01*
X129537428Y-74742500D02*
X129573142Y-74706785D01*
X129573142Y-74706785D02*
X129573142Y-74778214D01*
X129287428Y-74956785D02*
X129108856Y-75456785D01*
X129108856Y-75456785D02*
X128930285Y-74956785D01*
X128358856Y-75421071D02*
X128430284Y-75456785D01*
X128430284Y-75456785D02*
X128573142Y-75456785D01*
X128573142Y-75456785D02*
X128644570Y-75421071D01*
X128644570Y-75421071D02*
X128680284Y-75349642D01*
X128680284Y-75349642D02*
X128680284Y-75063928D01*
X128680284Y-75063928D02*
X128644570Y-74992500D01*
X128644570Y-74992500D02*
X128573142Y-74956785D01*
X128573142Y-74956785D02*
X128430284Y-74956785D01*
X128430284Y-74956785D02*
X128358856Y-74992500D01*
X128358856Y-74992500D02*
X128323142Y-75063928D01*
X128323142Y-75063928D02*
X128323142Y-75135357D01*
X128323142Y-75135357D02*
X128680284Y-75206785D01*
X127680285Y-75456785D02*
X127680285Y-74706785D01*
X127680285Y-75421071D02*
X127751713Y-75456785D01*
X127751713Y-75456785D02*
X127894570Y-75456785D01*
X127894570Y-75456785D02*
X127965999Y-75421071D01*
X127965999Y-75421071D02*
X128001713Y-75385357D01*
X128001713Y-75385357D02*
X128037427Y-75313928D01*
X128037427Y-75313928D02*
X128037427Y-75099642D01*
X128037427Y-75099642D02*
X128001713Y-75028214D01*
X128001713Y-75028214D02*
X127965999Y-74992500D01*
X127965999Y-74992500D02*
X127894570Y-74956785D01*
X127894570Y-74956785D02*
X127751713Y-74956785D01*
X127751713Y-74956785D02*
X127680285Y-74992500D01*
X126873142Y-75456785D02*
X126873142Y-74706785D01*
X126873142Y-74992500D02*
X126801714Y-74956785D01*
X126801714Y-74956785D02*
X126658856Y-74956785D01*
X126658856Y-74956785D02*
X126587428Y-74992500D01*
X126587428Y-74992500D02*
X126551714Y-75028214D01*
X126551714Y-75028214D02*
X126515999Y-75099642D01*
X126515999Y-75099642D02*
X126515999Y-75313928D01*
X126515999Y-75313928D02*
X126551714Y-75385357D01*
X126551714Y-75385357D02*
X126587428Y-75421071D01*
X126587428Y-75421071D02*
X126658856Y-75456785D01*
X126658856Y-75456785D02*
X126801714Y-75456785D01*
X126801714Y-75456785D02*
X126873142Y-75421071D01*
X126266000Y-74956785D02*
X126087428Y-75456785D01*
X125908857Y-74956785D02*
X126087428Y-75456785D01*
X126087428Y-75456785D02*
X126158857Y-75635357D01*
X126158857Y-75635357D02*
X126194571Y-75671071D01*
X126194571Y-75671071D02*
X126266000Y-75706785D01*
X124923142Y-75063928D02*
X125173142Y-75063928D01*
X125173142Y-75456785D02*
X125173142Y-74706785D01*
X125173142Y-74706785D02*
X124815999Y-74706785D01*
X124530285Y-75456785D02*
X124530285Y-74956785D01*
X124530285Y-74706785D02*
X124565999Y-74742500D01*
X124565999Y-74742500D02*
X124530285Y-74778214D01*
X124530285Y-74778214D02*
X124494571Y-74742500D01*
X124494571Y-74742500D02*
X124530285Y-74706785D01*
X124530285Y-74706785D02*
X124530285Y-74778214D01*
X124208856Y-75421071D02*
X124137428Y-75456785D01*
X124137428Y-75456785D02*
X123994571Y-75456785D01*
X123994571Y-75456785D02*
X123923142Y-75421071D01*
X123923142Y-75421071D02*
X123887428Y-75349642D01*
X123887428Y-75349642D02*
X123887428Y-75313928D01*
X123887428Y-75313928D02*
X123923142Y-75242500D01*
X123923142Y-75242500D02*
X123994571Y-75206785D01*
X123994571Y-75206785D02*
X124101714Y-75206785D01*
X124101714Y-75206785D02*
X124173142Y-75171071D01*
X124173142Y-75171071D02*
X124208856Y-75099642D01*
X124208856Y-75099642D02*
X124208856Y-75063928D01*
X124208856Y-75063928D02*
X124173142Y-74992500D01*
X124173142Y-74992500D02*
X124101714Y-74956785D01*
X124101714Y-74956785D02*
X123994571Y-74956785D01*
X123994571Y-74956785D02*
X123923142Y-74992500D01*
X123565999Y-75456785D02*
X123565999Y-74706785D01*
X123244571Y-75456785D02*
X123244571Y-75063928D01*
X123244571Y-75063928D02*
X123280285Y-74992500D01*
X123280285Y-74992500D02*
X123351713Y-74956785D01*
X123351713Y-74956785D02*
X123458856Y-74956785D01*
X123458856Y-74956785D02*
X123530285Y-74992500D01*
X123530285Y-74992500D02*
X123565999Y-75028214D01*
X122601714Y-75421071D02*
X122673142Y-75456785D01*
X122673142Y-75456785D02*
X122816000Y-75456785D01*
X122816000Y-75456785D02*
X122887428Y-75421071D01*
X122887428Y-75421071D02*
X122923142Y-75349642D01*
X122923142Y-75349642D02*
X122923142Y-75063928D01*
X122923142Y-75063928D02*
X122887428Y-74992500D01*
X122887428Y-74992500D02*
X122816000Y-74956785D01*
X122816000Y-74956785D02*
X122673142Y-74956785D01*
X122673142Y-74956785D02*
X122601714Y-74992500D01*
X122601714Y-74992500D02*
X122566000Y-75063928D01*
X122566000Y-75063928D02*
X122566000Y-75135357D01*
X122566000Y-75135357D02*
X122923142Y-75206785D01*
X122244571Y-75456785D02*
X122244571Y-74956785D01*
X122244571Y-74706785D02*
X122280285Y-74742500D01*
X122280285Y-74742500D02*
X122244571Y-74778214D01*
X122244571Y-74778214D02*
X122208857Y-74742500D01*
X122208857Y-74742500D02*
X122244571Y-74706785D01*
X122244571Y-74706785D02*
X122244571Y-74778214D01*
X121958857Y-74956785D02*
X121780285Y-75456785D01*
X121601714Y-74956785D02*
X121780285Y-75456785D01*
X121780285Y-75456785D02*
X121851714Y-75635357D01*
X121851714Y-75635357D02*
X121887428Y-75671071D01*
X121887428Y-75671071D02*
X121958857Y-75706785D01*
X121387428Y-74956785D02*
X121208856Y-75456785D01*
X121030285Y-74956785D02*
X121208856Y-75456785D01*
X121208856Y-75456785D02*
X121280285Y-75635357D01*
X121280285Y-75635357D02*
X121315999Y-75671071D01*
X121315999Y-75671071D02*
X121387428Y-75706785D01*
X130062427Y-76636071D02*
X129955285Y-76671785D01*
X129955285Y-76671785D02*
X129776713Y-76671785D01*
X129776713Y-76671785D02*
X129705285Y-76636071D01*
X129705285Y-76636071D02*
X129669570Y-76600357D01*
X129669570Y-76600357D02*
X129633856Y-76528928D01*
X129633856Y-76528928D02*
X129633856Y-76457500D01*
X129633856Y-76457500D02*
X129669570Y-76386071D01*
X129669570Y-76386071D02*
X129705285Y-76350357D01*
X129705285Y-76350357D02*
X129776713Y-76314642D01*
X129776713Y-76314642D02*
X129919570Y-76278928D01*
X129919570Y-76278928D02*
X129990999Y-76243214D01*
X129990999Y-76243214D02*
X130026713Y-76207500D01*
X130026713Y-76207500D02*
X130062427Y-76136071D01*
X130062427Y-76136071D02*
X130062427Y-76064642D01*
X130062427Y-76064642D02*
X130026713Y-75993214D01*
X130026713Y-75993214D02*
X129990999Y-75957500D01*
X129990999Y-75957500D02*
X129919570Y-75921785D01*
X129919570Y-75921785D02*
X129740999Y-75921785D01*
X129740999Y-75921785D02*
X129633856Y-75957500D01*
X129312427Y-76171785D02*
X129312427Y-76921785D01*
X129312427Y-76207500D02*
X129240999Y-76171785D01*
X129240999Y-76171785D02*
X129098141Y-76171785D01*
X129098141Y-76171785D02*
X129026713Y-76207500D01*
X129026713Y-76207500D02*
X128990999Y-76243214D01*
X128990999Y-76243214D02*
X128955284Y-76314642D01*
X128955284Y-76314642D02*
X128955284Y-76528928D01*
X128955284Y-76528928D02*
X128990999Y-76600357D01*
X128990999Y-76600357D02*
X129026713Y-76636071D01*
X129026713Y-76636071D02*
X129098141Y-76671785D01*
X129098141Y-76671785D02*
X129240999Y-76671785D01*
X129240999Y-76671785D02*
X129312427Y-76636071D01*
X128526713Y-76671785D02*
X128598142Y-76636071D01*
X128598142Y-76636071D02*
X128633856Y-76600357D01*
X128633856Y-76600357D02*
X128669570Y-76528928D01*
X128669570Y-76528928D02*
X128669570Y-76314642D01*
X128669570Y-76314642D02*
X128633856Y-76243214D01*
X128633856Y-76243214D02*
X128598142Y-76207500D01*
X128598142Y-76207500D02*
X128526713Y-76171785D01*
X128526713Y-76171785D02*
X128419570Y-76171785D01*
X128419570Y-76171785D02*
X128348142Y-76207500D01*
X128348142Y-76207500D02*
X128312428Y-76243214D01*
X128312428Y-76243214D02*
X128276713Y-76314642D01*
X128276713Y-76314642D02*
X128276713Y-76528928D01*
X128276713Y-76528928D02*
X128312428Y-76600357D01*
X128312428Y-76600357D02*
X128348142Y-76636071D01*
X128348142Y-76636071D02*
X128419570Y-76671785D01*
X128419570Y-76671785D02*
X128526713Y-76671785D01*
X127955285Y-76171785D02*
X127955285Y-76671785D01*
X127955285Y-76243214D02*
X127919571Y-76207500D01*
X127919571Y-76207500D02*
X127848142Y-76171785D01*
X127848142Y-76171785D02*
X127740999Y-76171785D01*
X127740999Y-76171785D02*
X127669571Y-76207500D01*
X127669571Y-76207500D02*
X127633857Y-76278928D01*
X127633857Y-76278928D02*
X127633857Y-76671785D01*
X127312428Y-76636071D02*
X127241000Y-76671785D01*
X127241000Y-76671785D02*
X127098143Y-76671785D01*
X127098143Y-76671785D02*
X127026714Y-76636071D01*
X127026714Y-76636071D02*
X126991000Y-76564642D01*
X126991000Y-76564642D02*
X126991000Y-76528928D01*
X126991000Y-76528928D02*
X127026714Y-76457500D01*
X127026714Y-76457500D02*
X127098143Y-76421785D01*
X127098143Y-76421785D02*
X127205286Y-76421785D01*
X127205286Y-76421785D02*
X127276714Y-76386071D01*
X127276714Y-76386071D02*
X127312428Y-76314642D01*
X127312428Y-76314642D02*
X127312428Y-76278928D01*
X127312428Y-76278928D02*
X127276714Y-76207500D01*
X127276714Y-76207500D02*
X127205286Y-76171785D01*
X127205286Y-76171785D02*
X127098143Y-76171785D01*
X127098143Y-76171785D02*
X127026714Y-76207500D01*
X126562428Y-76671785D02*
X126633857Y-76636071D01*
X126633857Y-76636071D02*
X126669571Y-76600357D01*
X126669571Y-76600357D02*
X126705285Y-76528928D01*
X126705285Y-76528928D02*
X126705285Y-76314642D01*
X126705285Y-76314642D02*
X126669571Y-76243214D01*
X126669571Y-76243214D02*
X126633857Y-76207500D01*
X126633857Y-76207500D02*
X126562428Y-76171785D01*
X126562428Y-76171785D02*
X126455285Y-76171785D01*
X126455285Y-76171785D02*
X126383857Y-76207500D01*
X126383857Y-76207500D02*
X126348143Y-76243214D01*
X126348143Y-76243214D02*
X126312428Y-76314642D01*
X126312428Y-76314642D02*
X126312428Y-76528928D01*
X126312428Y-76528928D02*
X126348143Y-76600357D01*
X126348143Y-76600357D02*
X126383857Y-76636071D01*
X126383857Y-76636071D02*
X126455285Y-76671785D01*
X126455285Y-76671785D02*
X126562428Y-76671785D01*
X125991000Y-76671785D02*
X125991000Y-76171785D01*
X125991000Y-76314642D02*
X125955286Y-76243214D01*
X125955286Y-76243214D02*
X125919572Y-76207500D01*
X125919572Y-76207500D02*
X125848143Y-76171785D01*
X125848143Y-76171785D02*
X125776714Y-76171785D01*
X125241000Y-76636071D02*
X125312428Y-76671785D01*
X125312428Y-76671785D02*
X125455286Y-76671785D01*
X125455286Y-76671785D02*
X125526714Y-76636071D01*
X125526714Y-76636071D02*
X125562428Y-76564642D01*
X125562428Y-76564642D02*
X125562428Y-76278928D01*
X125562428Y-76278928D02*
X125526714Y-76207500D01*
X125526714Y-76207500D02*
X125455286Y-76171785D01*
X125455286Y-76171785D02*
X125312428Y-76171785D01*
X125312428Y-76171785D02*
X125241000Y-76207500D01*
X125241000Y-76207500D02*
X125205286Y-76278928D01*
X125205286Y-76278928D02*
X125205286Y-76350357D01*
X125205286Y-76350357D02*
X125562428Y-76421785D01*
X124562429Y-76671785D02*
X124562429Y-75921785D01*
X124562429Y-76636071D02*
X124633857Y-76671785D01*
X124633857Y-76671785D02*
X124776714Y-76671785D01*
X124776714Y-76671785D02*
X124848143Y-76636071D01*
X124848143Y-76636071D02*
X124883857Y-76600357D01*
X124883857Y-76600357D02*
X124919571Y-76528928D01*
X124919571Y-76528928D02*
X124919571Y-76314642D01*
X124919571Y-76314642D02*
X124883857Y-76243214D01*
X124883857Y-76243214D02*
X124848143Y-76207500D01*
X124848143Y-76207500D02*
X124776714Y-76171785D01*
X124776714Y-76171785D02*
X124633857Y-76171785D01*
X124633857Y-76171785D02*
X124562429Y-76207500D01*
X123755286Y-76671785D02*
X123755286Y-75921785D01*
X123755286Y-76207500D02*
X123683858Y-76171785D01*
X123683858Y-76171785D02*
X123541000Y-76171785D01*
X123541000Y-76171785D02*
X123469572Y-76207500D01*
X123469572Y-76207500D02*
X123433858Y-76243214D01*
X123433858Y-76243214D02*
X123398143Y-76314642D01*
X123398143Y-76314642D02*
X123398143Y-76528928D01*
X123398143Y-76528928D02*
X123433858Y-76600357D01*
X123433858Y-76600357D02*
X123469572Y-76636071D01*
X123469572Y-76636071D02*
X123541000Y-76671785D01*
X123541000Y-76671785D02*
X123683858Y-76671785D01*
X123683858Y-76671785D02*
X123755286Y-76636071D01*
X123148144Y-76171785D02*
X122969572Y-76671785D01*
X122791001Y-76171785D02*
X122969572Y-76671785D01*
X122969572Y-76671785D02*
X123041001Y-76850357D01*
X123041001Y-76850357D02*
X123076715Y-76886071D01*
X123076715Y-76886071D02*
X123148144Y-76921785D01*
X122505286Y-76600357D02*
X122469572Y-76636071D01*
X122469572Y-76636071D02*
X122505286Y-76671785D01*
X122505286Y-76671785D02*
X122541000Y-76636071D01*
X122541000Y-76636071D02*
X122505286Y-76600357D01*
X122505286Y-76600357D02*
X122505286Y-76671785D01*
X122505286Y-76207500D02*
X122469572Y-76243214D01*
X122469572Y-76243214D02*
X122505286Y-76278928D01*
X122505286Y-76278928D02*
X122541000Y-76243214D01*
X122541000Y-76243214D02*
X122505286Y-76207500D01*
X122505286Y-76207500D02*
X122505286Y-76278928D01*
X134662427Y-77886785D02*
X134662427Y-77136785D01*
X134662427Y-77136785D02*
X134376713Y-77136785D01*
X134376713Y-77136785D02*
X134305284Y-77172500D01*
X134305284Y-77172500D02*
X134269570Y-77208214D01*
X134269570Y-77208214D02*
X134233856Y-77279642D01*
X134233856Y-77279642D02*
X134233856Y-77386785D01*
X134233856Y-77386785D02*
X134269570Y-77458214D01*
X134269570Y-77458214D02*
X134305284Y-77493928D01*
X134305284Y-77493928D02*
X134376713Y-77529642D01*
X134376713Y-77529642D02*
X134662427Y-77529642D01*
X133912427Y-77886785D02*
X133912427Y-77386785D01*
X133912427Y-77529642D02*
X133876713Y-77458214D01*
X133876713Y-77458214D02*
X133840999Y-77422500D01*
X133840999Y-77422500D02*
X133769570Y-77386785D01*
X133769570Y-77386785D02*
X133698141Y-77386785D01*
X133340998Y-77886785D02*
X133412427Y-77851071D01*
X133412427Y-77851071D02*
X133448141Y-77815357D01*
X133448141Y-77815357D02*
X133483855Y-77743928D01*
X133483855Y-77743928D02*
X133483855Y-77529642D01*
X133483855Y-77529642D02*
X133448141Y-77458214D01*
X133448141Y-77458214D02*
X133412427Y-77422500D01*
X133412427Y-77422500D02*
X133340998Y-77386785D01*
X133340998Y-77386785D02*
X133233855Y-77386785D01*
X133233855Y-77386785D02*
X133162427Y-77422500D01*
X133162427Y-77422500D02*
X133126713Y-77458214D01*
X133126713Y-77458214D02*
X133090998Y-77529642D01*
X133090998Y-77529642D02*
X133090998Y-77743928D01*
X133090998Y-77743928D02*
X133126713Y-77815357D01*
X133126713Y-77815357D02*
X133162427Y-77851071D01*
X133162427Y-77851071D02*
X133233855Y-77886785D01*
X133233855Y-77886785D02*
X133340998Y-77886785D01*
X132840999Y-77386785D02*
X132662427Y-77886785D01*
X132662427Y-77886785D02*
X132483856Y-77386785D01*
X132090998Y-77886785D02*
X132162427Y-77851071D01*
X132162427Y-77851071D02*
X132198141Y-77815357D01*
X132198141Y-77815357D02*
X132233855Y-77743928D01*
X132233855Y-77743928D02*
X132233855Y-77529642D01*
X132233855Y-77529642D02*
X132198141Y-77458214D01*
X132198141Y-77458214D02*
X132162427Y-77422500D01*
X132162427Y-77422500D02*
X132090998Y-77386785D01*
X132090998Y-77386785D02*
X131983855Y-77386785D01*
X131983855Y-77386785D02*
X131912427Y-77422500D01*
X131912427Y-77422500D02*
X131876713Y-77458214D01*
X131876713Y-77458214D02*
X131840998Y-77529642D01*
X131840998Y-77529642D02*
X131840998Y-77743928D01*
X131840998Y-77743928D02*
X131876713Y-77815357D01*
X131876713Y-77815357D02*
X131912427Y-77851071D01*
X131912427Y-77851071D02*
X131983855Y-77886785D01*
X131983855Y-77886785D02*
X132090998Y-77886785D01*
X131519570Y-77886785D02*
X131519570Y-77136785D01*
X131448142Y-77601071D02*
X131233856Y-77886785D01*
X131233856Y-77386785D02*
X131519570Y-77672500D01*
X130983856Y-77136785D02*
X130519570Y-77136785D01*
X130519570Y-77136785D02*
X130769570Y-77422500D01*
X130769570Y-77422500D02*
X130662427Y-77422500D01*
X130662427Y-77422500D02*
X130590999Y-77458214D01*
X130590999Y-77458214D02*
X130555284Y-77493928D01*
X130555284Y-77493928D02*
X130519570Y-77565357D01*
X130519570Y-77565357D02*
X130519570Y-77743928D01*
X130519570Y-77743928D02*
X130555284Y-77815357D01*
X130555284Y-77815357D02*
X130590999Y-77851071D01*
X130590999Y-77851071D02*
X130662427Y-77886785D01*
X130662427Y-77886785D02*
X130876713Y-77886785D01*
X130876713Y-77886785D02*
X130948141Y-77851071D01*
X130948141Y-77851071D02*
X130983856Y-77815357D01*
X129876713Y-77886785D02*
X129876713Y-77136785D01*
X129876713Y-77851071D02*
X129948141Y-77886785D01*
X129948141Y-77886785D02*
X130090998Y-77886785D01*
X130090998Y-77886785D02*
X130162427Y-77851071D01*
X130162427Y-77851071D02*
X130198141Y-77815357D01*
X130198141Y-77815357D02*
X130233855Y-77743928D01*
X130233855Y-77743928D02*
X130233855Y-77529642D01*
X130233855Y-77529642D02*
X130198141Y-77458214D01*
X130198141Y-77458214D02*
X130162427Y-77422500D01*
X130162427Y-77422500D02*
X130090998Y-77386785D01*
X130090998Y-77386785D02*
X129948141Y-77386785D01*
X129948141Y-77386785D02*
X129876713Y-77422500D01*
X129519570Y-77815357D02*
X129483856Y-77851071D01*
X129483856Y-77851071D02*
X129519570Y-77886785D01*
X129519570Y-77886785D02*
X129555284Y-77851071D01*
X129555284Y-77851071D02*
X129519570Y-77815357D01*
X129519570Y-77815357D02*
X129519570Y-77886785D01*
X128840999Y-77851071D02*
X128912427Y-77886785D01*
X128912427Y-77886785D02*
X129055284Y-77886785D01*
X129055284Y-77886785D02*
X129126713Y-77851071D01*
X129126713Y-77851071D02*
X129162427Y-77815357D01*
X129162427Y-77815357D02*
X129198141Y-77743928D01*
X129198141Y-77743928D02*
X129198141Y-77529642D01*
X129198141Y-77529642D02*
X129162427Y-77458214D01*
X129162427Y-77458214D02*
X129126713Y-77422500D01*
X129126713Y-77422500D02*
X129055284Y-77386785D01*
X129055284Y-77386785D02*
X128912427Y-77386785D01*
X128912427Y-77386785D02*
X128840999Y-77422500D01*
X128412427Y-77886785D02*
X128483856Y-77851071D01*
X128483856Y-77851071D02*
X128519570Y-77815357D01*
X128519570Y-77815357D02*
X128555284Y-77743928D01*
X128555284Y-77743928D02*
X128555284Y-77529642D01*
X128555284Y-77529642D02*
X128519570Y-77458214D01*
X128519570Y-77458214D02*
X128483856Y-77422500D01*
X128483856Y-77422500D02*
X128412427Y-77386785D01*
X128412427Y-77386785D02*
X128305284Y-77386785D01*
X128305284Y-77386785D02*
X128233856Y-77422500D01*
X128233856Y-77422500D02*
X128198142Y-77458214D01*
X128198142Y-77458214D02*
X128162427Y-77529642D01*
X128162427Y-77529642D02*
X128162427Y-77743928D01*
X128162427Y-77743928D02*
X128198142Y-77815357D01*
X128198142Y-77815357D02*
X128233856Y-77851071D01*
X128233856Y-77851071D02*
X128305284Y-77886785D01*
X128305284Y-77886785D02*
X128412427Y-77886785D01*
X127840999Y-77886785D02*
X127840999Y-77386785D01*
X127840999Y-77458214D02*
X127805285Y-77422500D01*
X127805285Y-77422500D02*
X127733856Y-77386785D01*
X127733856Y-77386785D02*
X127626713Y-77386785D01*
X127626713Y-77386785D02*
X127555285Y-77422500D01*
X127555285Y-77422500D02*
X127519571Y-77493928D01*
X127519571Y-77493928D02*
X127519571Y-77886785D01*
X127519571Y-77493928D02*
X127483856Y-77422500D01*
X127483856Y-77422500D02*
X127412428Y-77386785D01*
X127412428Y-77386785D02*
X127305285Y-77386785D01*
X127305285Y-77386785D02*
X127233856Y-77422500D01*
X127233856Y-77422500D02*
X127198142Y-77493928D01*
X127198142Y-77493928D02*
X127198142Y-77886785D01*
X125783856Y-77886785D02*
X125819571Y-77886785D01*
X125819571Y-77886785D02*
X125890999Y-77851071D01*
X125890999Y-77851071D02*
X125998142Y-77743928D01*
X125998142Y-77743928D02*
X126176713Y-77529642D01*
X126176713Y-77529642D02*
X126248142Y-77422500D01*
X126248142Y-77422500D02*
X126283856Y-77315357D01*
X126283856Y-77315357D02*
X126283856Y-77243928D01*
X126283856Y-77243928D02*
X126248142Y-77172500D01*
X126248142Y-77172500D02*
X126176713Y-77136785D01*
X126176713Y-77136785D02*
X126140999Y-77136785D01*
X126140999Y-77136785D02*
X126069571Y-77172500D01*
X126069571Y-77172500D02*
X126033856Y-77243928D01*
X126033856Y-77243928D02*
X126033856Y-77279642D01*
X126033856Y-77279642D02*
X126069571Y-77351071D01*
X126069571Y-77351071D02*
X126105285Y-77386785D01*
X126105285Y-77386785D02*
X126319571Y-77529642D01*
X126319571Y-77529642D02*
X126355285Y-77565357D01*
X126355285Y-77565357D02*
X126390999Y-77636785D01*
X126390999Y-77636785D02*
X126390999Y-77743928D01*
X126390999Y-77743928D02*
X126355285Y-77815357D01*
X126355285Y-77815357D02*
X126319571Y-77851071D01*
X126319571Y-77851071D02*
X126248142Y-77886785D01*
X126248142Y-77886785D02*
X126140999Y-77886785D01*
X126140999Y-77886785D02*
X126069571Y-77851071D01*
X126069571Y-77851071D02*
X126033856Y-77815357D01*
X126033856Y-77815357D02*
X125926713Y-77672500D01*
X125926713Y-77672500D02*
X125890999Y-77565357D01*
X125890999Y-77565357D02*
X125890999Y-77493928D01*
X124655285Y-77886785D02*
X125012428Y-77886785D01*
X125012428Y-77886785D02*
X125012428Y-77136785D01*
X124083857Y-77886785D02*
X124083857Y-77493928D01*
X124083857Y-77493928D02*
X124119571Y-77422500D01*
X124119571Y-77422500D02*
X124190999Y-77386785D01*
X124190999Y-77386785D02*
X124333857Y-77386785D01*
X124333857Y-77386785D02*
X124405285Y-77422500D01*
X124083857Y-77851071D02*
X124155285Y-77886785D01*
X124155285Y-77886785D02*
X124333857Y-77886785D01*
X124333857Y-77886785D02*
X124405285Y-77851071D01*
X124405285Y-77851071D02*
X124440999Y-77779642D01*
X124440999Y-77779642D02*
X124440999Y-77708214D01*
X124440999Y-77708214D02*
X124405285Y-77636785D01*
X124405285Y-77636785D02*
X124333857Y-77601071D01*
X124333857Y-77601071D02*
X124155285Y-77601071D01*
X124155285Y-77601071D02*
X124083857Y-77565357D01*
X123726714Y-77886785D02*
X123726714Y-77136785D01*
X123726714Y-77422500D02*
X123655286Y-77386785D01*
X123655286Y-77386785D02*
X123512428Y-77386785D01*
X123512428Y-77386785D02*
X123441000Y-77422500D01*
X123441000Y-77422500D02*
X123405286Y-77458214D01*
X123405286Y-77458214D02*
X123369571Y-77529642D01*
X123369571Y-77529642D02*
X123369571Y-77743928D01*
X123369571Y-77743928D02*
X123405286Y-77815357D01*
X123405286Y-77815357D02*
X123441000Y-77851071D01*
X123441000Y-77851071D02*
X123512428Y-77886785D01*
X123512428Y-77886785D02*
X123655286Y-77886785D01*
X123655286Y-77886785D02*
X123726714Y-77851071D01*
X122726715Y-77386785D02*
X122726715Y-77886785D01*
X122905286Y-77101071D02*
X123083857Y-77636785D01*
X123083857Y-77636785D02*
X122619572Y-77636785D01*
X122012429Y-77386785D02*
X122012429Y-77886785D01*
X122191000Y-77101071D02*
X122369571Y-77636785D01*
X122369571Y-77636785D02*
X121905286Y-77636785D01*
X121262428Y-77136785D02*
X121619571Y-77136785D01*
X121619571Y-77136785D02*
X121655285Y-77493928D01*
X121655285Y-77493928D02*
X121619571Y-77458214D01*
X121619571Y-77458214D02*
X121548143Y-77422500D01*
X121548143Y-77422500D02*
X121369571Y-77422500D01*
X121369571Y-77422500D02*
X121298143Y-77458214D01*
X121298143Y-77458214D02*
X121262428Y-77493928D01*
X121262428Y-77493928D02*
X121226714Y-77565357D01*
X121226714Y-77565357D02*
X121226714Y-77743928D01*
X121226714Y-77743928D02*
X121262428Y-77815357D01*
X121262428Y-77815357D02*
X121298143Y-77851071D01*
X121298143Y-77851071D02*
X121369571Y-77886785D01*
X121369571Y-77886785D02*
X121548143Y-77886785D01*
X121548143Y-77886785D02*
X121619571Y-77851071D01*
X121619571Y-77851071D02*
X121655285Y-77815357D01*
X120762428Y-77136785D02*
X120690999Y-77136785D01*
X120690999Y-77136785D02*
X120619571Y-77172500D01*
X120619571Y-77172500D02*
X120583857Y-77208214D01*
X120583857Y-77208214D02*
X120548142Y-77279642D01*
X120548142Y-77279642D02*
X120512428Y-77422500D01*
X120512428Y-77422500D02*
X120512428Y-77601071D01*
X120512428Y-77601071D02*
X120548142Y-77743928D01*
X120548142Y-77743928D02*
X120583857Y-77815357D01*
X120583857Y-77815357D02*
X120619571Y-77851071D01*
X120619571Y-77851071D02*
X120690999Y-77886785D01*
X120690999Y-77886785D02*
X120762428Y-77886785D01*
X120762428Y-77886785D02*
X120833857Y-77851071D01*
X120833857Y-77851071D02*
X120869571Y-77815357D01*
X120869571Y-77815357D02*
X120905285Y-77743928D01*
X120905285Y-77743928D02*
X120940999Y-77601071D01*
X120940999Y-77601071D02*
X120940999Y-77422500D01*
X120940999Y-77422500D02*
X120905285Y-77279642D01*
X120905285Y-77279642D02*
X120869571Y-77208214D01*
X120869571Y-77208214D02*
X120833857Y-77172500D01*
X120833857Y-77172500D02*
X120762428Y-77136785D01*
X120190999Y-77815357D02*
X120155285Y-77851071D01*
X120155285Y-77851071D02*
X120190999Y-77886785D01*
X120190999Y-77886785D02*
X120226713Y-77851071D01*
X120226713Y-77851071D02*
X120190999Y-77815357D01*
X120190999Y-77815357D02*
X120190999Y-77886785D01*
X119512428Y-77851071D02*
X119583856Y-77886785D01*
X119583856Y-77886785D02*
X119726713Y-77886785D01*
X119726713Y-77886785D02*
X119798142Y-77851071D01*
X119798142Y-77851071D02*
X119833856Y-77815357D01*
X119833856Y-77815357D02*
X119869570Y-77743928D01*
X119869570Y-77743928D02*
X119869570Y-77529642D01*
X119869570Y-77529642D02*
X119833856Y-77458214D01*
X119833856Y-77458214D02*
X119798142Y-77422500D01*
X119798142Y-77422500D02*
X119726713Y-77386785D01*
X119726713Y-77386785D02*
X119583856Y-77386785D01*
X119583856Y-77386785D02*
X119512428Y-77422500D01*
X119083856Y-77886785D02*
X119155285Y-77851071D01*
X119155285Y-77851071D02*
X119190999Y-77815357D01*
X119190999Y-77815357D02*
X119226713Y-77743928D01*
X119226713Y-77743928D02*
X119226713Y-77529642D01*
X119226713Y-77529642D02*
X119190999Y-77458214D01*
X119190999Y-77458214D02*
X119155285Y-77422500D01*
X119155285Y-77422500D02*
X119083856Y-77386785D01*
X119083856Y-77386785D02*
X118976713Y-77386785D01*
X118976713Y-77386785D02*
X118905285Y-77422500D01*
X118905285Y-77422500D02*
X118869571Y-77458214D01*
X118869571Y-77458214D02*
X118833856Y-77529642D01*
X118833856Y-77529642D02*
X118833856Y-77743928D01*
X118833856Y-77743928D02*
X118869571Y-77815357D01*
X118869571Y-77815357D02*
X118905285Y-77851071D01*
X118905285Y-77851071D02*
X118976713Y-77886785D01*
X118976713Y-77886785D02*
X119083856Y-77886785D01*
X118512428Y-77886785D02*
X118512428Y-77386785D01*
X118512428Y-77458214D02*
X118476714Y-77422500D01*
X118476714Y-77422500D02*
X118405285Y-77386785D01*
X118405285Y-77386785D02*
X118298142Y-77386785D01*
X118298142Y-77386785D02*
X118226714Y-77422500D01*
X118226714Y-77422500D02*
X118191000Y-77493928D01*
X118191000Y-77493928D02*
X118191000Y-77886785D01*
X118191000Y-77493928D02*
X118155285Y-77422500D01*
X118155285Y-77422500D02*
X118083857Y-77386785D01*
X118083857Y-77386785D02*
X117976714Y-77386785D01*
X117976714Y-77386785D02*
X117905285Y-77422500D01*
X117905285Y-77422500D02*
X117869571Y-77493928D01*
X117869571Y-77493928D02*
X117869571Y-77886785D01*
D12*
X99774762Y-55097380D02*
X100346190Y-55097380D01*
X100060476Y-55097380D02*
X100060476Y-54097380D01*
X100060476Y-54097380D02*
X100155714Y-54240238D01*
X100155714Y-54240238D02*
X100250952Y-54335476D01*
X100250952Y-54335476D02*
X100346190Y-54383095D01*
X99060476Y-55478333D02*
X99108095Y-55430714D01*
X99108095Y-55430714D02*
X99203333Y-55287857D01*
X99203333Y-55287857D02*
X99250952Y-55192619D01*
X99250952Y-55192619D02*
X99298571Y-55049761D01*
X99298571Y-55049761D02*
X99346190Y-54811666D01*
X99346190Y-54811666D02*
X99346190Y-54621190D01*
X99346190Y-54621190D02*
X99298571Y-54383095D01*
X99298571Y-54383095D02*
X99250952Y-54240238D01*
X99250952Y-54240238D02*
X99203333Y-54145000D01*
X99203333Y-54145000D02*
X99108095Y-54002142D01*
X99108095Y-54002142D02*
X99060476Y-53954523D01*
X98155714Y-54145000D02*
X98250952Y-54097380D01*
X98250952Y-54097380D02*
X98393809Y-54097380D01*
X98393809Y-54097380D02*
X98536666Y-54145000D01*
X98536666Y-54145000D02*
X98631904Y-54240238D01*
X98631904Y-54240238D02*
X98679523Y-54335476D01*
X98679523Y-54335476D02*
X98727142Y-54525952D01*
X98727142Y-54525952D02*
X98727142Y-54668809D01*
X98727142Y-54668809D02*
X98679523Y-54859285D01*
X98679523Y-54859285D02*
X98631904Y-54954523D01*
X98631904Y-54954523D02*
X98536666Y-55049761D01*
X98536666Y-55049761D02*
X98393809Y-55097380D01*
X98393809Y-55097380D02*
X98298571Y-55097380D01*
X98298571Y-55097380D02*
X98155714Y-55049761D01*
X98155714Y-55049761D02*
X98108095Y-55002142D01*
X98108095Y-55002142D02*
X98108095Y-54668809D01*
X98108095Y-54668809D02*
X98298571Y-54668809D01*
X97679523Y-55097380D02*
X97679523Y-54097380D01*
X97679523Y-54097380D02*
X97108095Y-55097380D01*
X97108095Y-55097380D02*
X97108095Y-54097380D01*
X96631904Y-55097380D02*
X96631904Y-54097380D01*
X96631904Y-54097380D02*
X96393809Y-54097380D01*
X96393809Y-54097380D02*
X96250952Y-54145000D01*
X96250952Y-54145000D02*
X96155714Y-54240238D01*
X96155714Y-54240238D02*
X96108095Y-54335476D01*
X96108095Y-54335476D02*
X96060476Y-54525952D01*
X96060476Y-54525952D02*
X96060476Y-54668809D01*
X96060476Y-54668809D02*
X96108095Y-54859285D01*
X96108095Y-54859285D02*
X96155714Y-54954523D01*
X96155714Y-54954523D02*
X96250952Y-55049761D01*
X96250952Y-55049761D02*
X96393809Y-55097380D01*
X96393809Y-55097380D02*
X96631904Y-55097380D01*
X95727142Y-55478333D02*
X95679523Y-55430714D01*
X95679523Y-55430714D02*
X95584285Y-55287857D01*
X95584285Y-55287857D02*
X95536666Y-55192619D01*
X95536666Y-55192619D02*
X95489047Y-55049761D01*
X95489047Y-55049761D02*
X95441428Y-54811666D01*
X95441428Y-54811666D02*
X95441428Y-54621190D01*
X95441428Y-54621190D02*
X95489047Y-54383095D01*
X95489047Y-54383095D02*
X95536666Y-54240238D01*
X95536666Y-54240238D02*
X95584285Y-54145000D01*
X95584285Y-54145000D02*
X95679523Y-54002142D01*
X95679523Y-54002142D02*
X95727142Y-53954523D01*
D11*
X153598571Y-58733690D02*
X153598571Y-58233690D01*
X153598571Y-58233690D02*
X153479523Y-58233690D01*
X153479523Y-58233690D02*
X153408095Y-58257500D01*
X153408095Y-58257500D02*
X153360476Y-58305119D01*
X153360476Y-58305119D02*
X153336666Y-58352738D01*
X153336666Y-58352738D02*
X153312857Y-58447976D01*
X153312857Y-58447976D02*
X153312857Y-58519404D01*
X153312857Y-58519404D02*
X153336666Y-58614642D01*
X153336666Y-58614642D02*
X153360476Y-58662261D01*
X153360476Y-58662261D02*
X153408095Y-58709880D01*
X153408095Y-58709880D02*
X153479523Y-58733690D01*
X153479523Y-58733690D02*
X153598571Y-58733690D01*
X152884285Y-58733690D02*
X152884285Y-58471785D01*
X152884285Y-58471785D02*
X152908095Y-58424166D01*
X152908095Y-58424166D02*
X152955714Y-58400357D01*
X152955714Y-58400357D02*
X153050952Y-58400357D01*
X153050952Y-58400357D02*
X153098571Y-58424166D01*
X152884285Y-58709880D02*
X152931904Y-58733690D01*
X152931904Y-58733690D02*
X153050952Y-58733690D01*
X153050952Y-58733690D02*
X153098571Y-58709880D01*
X153098571Y-58709880D02*
X153122380Y-58662261D01*
X153122380Y-58662261D02*
X153122380Y-58614642D01*
X153122380Y-58614642D02*
X153098571Y-58567023D01*
X153098571Y-58567023D02*
X153050952Y-58543214D01*
X153050952Y-58543214D02*
X152931904Y-58543214D01*
X152931904Y-58543214D02*
X152884285Y-58519404D01*
X152717618Y-58400357D02*
X152527142Y-58400357D01*
X152646190Y-58233690D02*
X152646190Y-58662261D01*
X152646190Y-58662261D02*
X152622380Y-58709880D01*
X152622380Y-58709880D02*
X152574761Y-58733690D01*
X152574761Y-58733690D02*
X152527142Y-58733690D01*
X152146190Y-58733690D02*
X152146190Y-58471785D01*
X152146190Y-58471785D02*
X152170000Y-58424166D01*
X152170000Y-58424166D02*
X152217619Y-58400357D01*
X152217619Y-58400357D02*
X152312857Y-58400357D01*
X152312857Y-58400357D02*
X152360476Y-58424166D01*
X152146190Y-58709880D02*
X152193809Y-58733690D01*
X152193809Y-58733690D02*
X152312857Y-58733690D01*
X152312857Y-58733690D02*
X152360476Y-58709880D01*
X152360476Y-58709880D02*
X152384285Y-58662261D01*
X152384285Y-58662261D02*
X152384285Y-58614642D01*
X152384285Y-58614642D02*
X152360476Y-58567023D01*
X152360476Y-58567023D02*
X152312857Y-58543214D01*
X152312857Y-58543214D02*
X152193809Y-58543214D01*
X152193809Y-58543214D02*
X152146190Y-58519404D01*
X151346190Y-58257500D02*
X151393809Y-58233690D01*
X151393809Y-58233690D02*
X151465238Y-58233690D01*
X151465238Y-58233690D02*
X151536666Y-58257500D01*
X151536666Y-58257500D02*
X151584285Y-58305119D01*
X151584285Y-58305119D02*
X151608095Y-58352738D01*
X151608095Y-58352738D02*
X151631904Y-58447976D01*
X151631904Y-58447976D02*
X151631904Y-58519404D01*
X151631904Y-58519404D02*
X151608095Y-58614642D01*
X151608095Y-58614642D02*
X151584285Y-58662261D01*
X151584285Y-58662261D02*
X151536666Y-58709880D01*
X151536666Y-58709880D02*
X151465238Y-58733690D01*
X151465238Y-58733690D02*
X151417619Y-58733690D01*
X151417619Y-58733690D02*
X151346190Y-58709880D01*
X151346190Y-58709880D02*
X151322381Y-58686071D01*
X151322381Y-58686071D02*
X151322381Y-58519404D01*
X151322381Y-58519404D02*
X151417619Y-58519404D01*
X151108095Y-58400357D02*
X151108095Y-58733690D01*
X151108095Y-58447976D02*
X151084285Y-58424166D01*
X151084285Y-58424166D02*
X151036666Y-58400357D01*
X151036666Y-58400357D02*
X150965238Y-58400357D01*
X150965238Y-58400357D02*
X150917619Y-58424166D01*
X150917619Y-58424166D02*
X150893809Y-58471785D01*
X150893809Y-58471785D02*
X150893809Y-58733690D01*
X150441428Y-58733690D02*
X150441428Y-58233690D01*
X150441428Y-58709880D02*
X150489047Y-58733690D01*
X150489047Y-58733690D02*
X150584285Y-58733690D01*
X150584285Y-58733690D02*
X150631904Y-58709880D01*
X150631904Y-58709880D02*
X150655714Y-58686071D01*
X150655714Y-58686071D02*
X150679523Y-58638452D01*
X150679523Y-58638452D02*
X150679523Y-58495595D01*
X150679523Y-58495595D02*
X150655714Y-58447976D01*
X150655714Y-58447976D02*
X150631904Y-58424166D01*
X150631904Y-58424166D02*
X150584285Y-58400357D01*
X150584285Y-58400357D02*
X150489047Y-58400357D01*
X150489047Y-58400357D02*
X150441428Y-58424166D01*
X119582428Y-72374321D02*
X119011000Y-72374321D01*
X119296714Y-72660035D02*
X119296714Y-72088607D01*
X118725286Y-71910035D02*
X118261000Y-71910035D01*
X118261000Y-71910035D02*
X118511000Y-72195750D01*
X118511000Y-72195750D02*
X118403857Y-72195750D01*
X118403857Y-72195750D02*
X118332429Y-72231464D01*
X118332429Y-72231464D02*
X118296714Y-72267178D01*
X118296714Y-72267178D02*
X118261000Y-72338607D01*
X118261000Y-72338607D02*
X118261000Y-72517178D01*
X118261000Y-72517178D02*
X118296714Y-72588607D01*
X118296714Y-72588607D02*
X118332429Y-72624321D01*
X118332429Y-72624321D02*
X118403857Y-72660035D01*
X118403857Y-72660035D02*
X118618143Y-72660035D01*
X118618143Y-72660035D02*
X118689571Y-72624321D01*
X118689571Y-72624321D02*
X118725286Y-72588607D01*
X117939571Y-72588607D02*
X117903857Y-72624321D01*
X117903857Y-72624321D02*
X117939571Y-72660035D01*
X117939571Y-72660035D02*
X117975285Y-72624321D01*
X117975285Y-72624321D02*
X117939571Y-72588607D01*
X117939571Y-72588607D02*
X117939571Y-72660035D01*
X117653857Y-71910035D02*
X117189571Y-71910035D01*
X117189571Y-71910035D02*
X117439571Y-72195750D01*
X117439571Y-72195750D02*
X117332428Y-72195750D01*
X117332428Y-72195750D02*
X117261000Y-72231464D01*
X117261000Y-72231464D02*
X117225285Y-72267178D01*
X117225285Y-72267178D02*
X117189571Y-72338607D01*
X117189571Y-72338607D02*
X117189571Y-72517178D01*
X117189571Y-72517178D02*
X117225285Y-72588607D01*
X117225285Y-72588607D02*
X117261000Y-72624321D01*
X117261000Y-72624321D02*
X117332428Y-72660035D01*
X117332428Y-72660035D02*
X117546714Y-72660035D01*
X117546714Y-72660035D02*
X117618142Y-72624321D01*
X117618142Y-72624321D02*
X117653857Y-72588607D01*
X116975285Y-71910035D02*
X116725285Y-72660035D01*
X116725285Y-72660035D02*
X116475285Y-71910035D01*
X115810999Y-72624321D02*
X115703857Y-72660035D01*
X115703857Y-72660035D02*
X115525285Y-72660035D01*
X115525285Y-72660035D02*
X115453857Y-72624321D01*
X115453857Y-72624321D02*
X115418142Y-72588607D01*
X115418142Y-72588607D02*
X115382428Y-72517178D01*
X115382428Y-72517178D02*
X115382428Y-72445750D01*
X115382428Y-72445750D02*
X115418142Y-72374321D01*
X115418142Y-72374321D02*
X115453857Y-72338607D01*
X115453857Y-72338607D02*
X115525285Y-72302892D01*
X115525285Y-72302892D02*
X115668142Y-72267178D01*
X115668142Y-72267178D02*
X115739571Y-72231464D01*
X115739571Y-72231464D02*
X115775285Y-72195750D01*
X115775285Y-72195750D02*
X115810999Y-72124321D01*
X115810999Y-72124321D02*
X115810999Y-72052892D01*
X115810999Y-72052892D02*
X115775285Y-71981464D01*
X115775285Y-71981464D02*
X115739571Y-71945750D01*
X115739571Y-71945750D02*
X115668142Y-71910035D01*
X115668142Y-71910035D02*
X115489571Y-71910035D01*
X115489571Y-71910035D02*
X115382428Y-71945750D01*
X115132428Y-71910035D02*
X114953856Y-72660035D01*
X114953856Y-72660035D02*
X114810999Y-72124321D01*
X114810999Y-72124321D02*
X114668142Y-72660035D01*
X114668142Y-72660035D02*
X114489571Y-71910035D01*
X114203856Y-72660035D02*
X114203856Y-71910035D01*
X114203856Y-71910035D02*
X114025285Y-71910035D01*
X114025285Y-71910035D02*
X113918142Y-71945750D01*
X113918142Y-71945750D02*
X113846713Y-72017178D01*
X113846713Y-72017178D02*
X113810999Y-72088607D01*
X113810999Y-72088607D02*
X113775285Y-72231464D01*
X113775285Y-72231464D02*
X113775285Y-72338607D01*
X113775285Y-72338607D02*
X113810999Y-72481464D01*
X113810999Y-72481464D02*
X113846713Y-72552892D01*
X113846713Y-72552892D02*
X113918142Y-72624321D01*
X113918142Y-72624321D02*
X114025285Y-72660035D01*
X114025285Y-72660035D02*
X114203856Y-72660035D01*
X113025285Y-72588607D02*
X113060999Y-72624321D01*
X113060999Y-72624321D02*
X113168142Y-72660035D01*
X113168142Y-72660035D02*
X113239570Y-72660035D01*
X113239570Y-72660035D02*
X113346713Y-72624321D01*
X113346713Y-72624321D02*
X113418142Y-72552892D01*
X113418142Y-72552892D02*
X113453856Y-72481464D01*
X113453856Y-72481464D02*
X113489570Y-72338607D01*
X113489570Y-72338607D02*
X113489570Y-72231464D01*
X113489570Y-72231464D02*
X113453856Y-72088607D01*
X113453856Y-72088607D02*
X113418142Y-72017178D01*
X113418142Y-72017178D02*
X113346713Y-71945750D01*
X113346713Y-71945750D02*
X113239570Y-71910035D01*
X113239570Y-71910035D02*
X113168142Y-71910035D01*
X113168142Y-71910035D02*
X113060999Y-71945750D01*
X113060999Y-71945750D02*
X113025285Y-71981464D01*
X112346713Y-72660035D02*
X112703856Y-72660035D01*
X112703856Y-72660035D02*
X112703856Y-71910035D01*
X112096713Y-72660035D02*
X112096713Y-71910035D01*
X111668142Y-72660035D02*
X111989570Y-72231464D01*
X111668142Y-71910035D02*
X112096713Y-72338607D01*
X110932427Y-72624321D02*
X110825285Y-72660035D01*
X110825285Y-72660035D02*
X110646713Y-72660035D01*
X110646713Y-72660035D02*
X110575285Y-72624321D01*
X110575285Y-72624321D02*
X110539570Y-72588607D01*
X110539570Y-72588607D02*
X110503856Y-72517178D01*
X110503856Y-72517178D02*
X110503856Y-72445750D01*
X110503856Y-72445750D02*
X110539570Y-72374321D01*
X110539570Y-72374321D02*
X110575285Y-72338607D01*
X110575285Y-72338607D02*
X110646713Y-72302892D01*
X110646713Y-72302892D02*
X110789570Y-72267178D01*
X110789570Y-72267178D02*
X110860999Y-72231464D01*
X110860999Y-72231464D02*
X110896713Y-72195750D01*
X110896713Y-72195750D02*
X110932427Y-72124321D01*
X110932427Y-72124321D02*
X110932427Y-72052892D01*
X110932427Y-72052892D02*
X110896713Y-71981464D01*
X110896713Y-71981464D02*
X110860999Y-71945750D01*
X110860999Y-71945750D02*
X110789570Y-71910035D01*
X110789570Y-71910035D02*
X110610999Y-71910035D01*
X110610999Y-71910035D02*
X110503856Y-71945750D01*
X110253856Y-71910035D02*
X110075284Y-72660035D01*
X110075284Y-72660035D02*
X109932427Y-72124321D01*
X109932427Y-72124321D02*
X109789570Y-72660035D01*
X109789570Y-72660035D02*
X109610999Y-71910035D01*
X109325284Y-72660035D02*
X109325284Y-71910035D01*
X109325284Y-71910035D02*
X109146713Y-71910035D01*
X109146713Y-71910035D02*
X109039570Y-71945750D01*
X109039570Y-71945750D02*
X108968141Y-72017178D01*
X108968141Y-72017178D02*
X108932427Y-72088607D01*
X108932427Y-72088607D02*
X108896713Y-72231464D01*
X108896713Y-72231464D02*
X108896713Y-72338607D01*
X108896713Y-72338607D02*
X108932427Y-72481464D01*
X108932427Y-72481464D02*
X108968141Y-72552892D01*
X108968141Y-72552892D02*
X109039570Y-72624321D01*
X109039570Y-72624321D02*
X109146713Y-72660035D01*
X109146713Y-72660035D02*
X109325284Y-72660035D01*
X108575284Y-72660035D02*
X108575284Y-71910035D01*
X108075284Y-71910035D02*
X107932427Y-71910035D01*
X107932427Y-71910035D02*
X107860998Y-71945750D01*
X107860998Y-71945750D02*
X107789570Y-72017178D01*
X107789570Y-72017178D02*
X107753855Y-72160035D01*
X107753855Y-72160035D02*
X107753855Y-72410035D01*
X107753855Y-72410035D02*
X107789570Y-72552892D01*
X107789570Y-72552892D02*
X107860998Y-72624321D01*
X107860998Y-72624321D02*
X107932427Y-72660035D01*
X107932427Y-72660035D02*
X108075284Y-72660035D01*
X108075284Y-72660035D02*
X108146713Y-72624321D01*
X108146713Y-72624321D02*
X108218141Y-72552892D01*
X108218141Y-72552892D02*
X108253855Y-72410035D01*
X108253855Y-72410035D02*
X108253855Y-72160035D01*
X108253855Y-72160035D02*
X108218141Y-72017178D01*
X108218141Y-72017178D02*
X108146713Y-71945750D01*
X108146713Y-71945750D02*
X108075284Y-71910035D01*
X114703856Y-73839321D02*
X114596714Y-73875035D01*
X114596714Y-73875035D02*
X114418142Y-73875035D01*
X114418142Y-73875035D02*
X114346714Y-73839321D01*
X114346714Y-73839321D02*
X114310999Y-73803607D01*
X114310999Y-73803607D02*
X114275285Y-73732178D01*
X114275285Y-73732178D02*
X114275285Y-73660750D01*
X114275285Y-73660750D02*
X114310999Y-73589321D01*
X114310999Y-73589321D02*
X114346714Y-73553607D01*
X114346714Y-73553607D02*
X114418142Y-73517892D01*
X114418142Y-73517892D02*
X114560999Y-73482178D01*
X114560999Y-73482178D02*
X114632428Y-73446464D01*
X114632428Y-73446464D02*
X114668142Y-73410750D01*
X114668142Y-73410750D02*
X114703856Y-73339321D01*
X114703856Y-73339321D02*
X114703856Y-73267892D01*
X114703856Y-73267892D02*
X114668142Y-73196464D01*
X114668142Y-73196464D02*
X114632428Y-73160750D01*
X114632428Y-73160750D02*
X114560999Y-73125035D01*
X114560999Y-73125035D02*
X114382428Y-73125035D01*
X114382428Y-73125035D02*
X114275285Y-73160750D01*
X114025285Y-73125035D02*
X113846713Y-73875035D01*
X113846713Y-73875035D02*
X113703856Y-73339321D01*
X113703856Y-73339321D02*
X113560999Y-73875035D01*
X113560999Y-73875035D02*
X113382428Y-73125035D01*
X113096713Y-73875035D02*
X113096713Y-73125035D01*
X113096713Y-73125035D02*
X112918142Y-73125035D01*
X112918142Y-73125035D02*
X112810999Y-73160750D01*
X112810999Y-73160750D02*
X112739570Y-73232178D01*
X112739570Y-73232178D02*
X112703856Y-73303607D01*
X112703856Y-73303607D02*
X112668142Y-73446464D01*
X112668142Y-73446464D02*
X112668142Y-73553607D01*
X112668142Y-73553607D02*
X112703856Y-73696464D01*
X112703856Y-73696464D02*
X112739570Y-73767892D01*
X112739570Y-73767892D02*
X112810999Y-73839321D01*
X112810999Y-73839321D02*
X112918142Y-73875035D01*
X112918142Y-73875035D02*
X113096713Y-73875035D01*
X105714000Y-70507464D02*
X105678286Y-70471750D01*
X105678286Y-70471750D02*
X105606858Y-70436035D01*
X105606858Y-70436035D02*
X105428286Y-70436035D01*
X105428286Y-70436035D02*
X105356858Y-70471750D01*
X105356858Y-70471750D02*
X105321143Y-70507464D01*
X105321143Y-70507464D02*
X105285429Y-70578892D01*
X105285429Y-70578892D02*
X105285429Y-70650321D01*
X105285429Y-70650321D02*
X105321143Y-70757464D01*
X105321143Y-70757464D02*
X105749715Y-71186035D01*
X105749715Y-71186035D02*
X105285429Y-71186035D01*
X105035429Y-70436035D02*
X104535429Y-70436035D01*
X104535429Y-70436035D02*
X104856857Y-71186035D01*
X103385428Y-70507464D02*
X103349714Y-70471750D01*
X103349714Y-70471750D02*
X103278286Y-70436035D01*
X103278286Y-70436035D02*
X103099714Y-70436035D01*
X103099714Y-70436035D02*
X103028286Y-70471750D01*
X103028286Y-70471750D02*
X102992571Y-70507464D01*
X102992571Y-70507464D02*
X102956857Y-70578892D01*
X102956857Y-70578892D02*
X102956857Y-70650321D01*
X102956857Y-70650321D02*
X102992571Y-70757464D01*
X102992571Y-70757464D02*
X103421143Y-71186035D01*
X103421143Y-71186035D02*
X102956857Y-71186035D01*
X102528285Y-70757464D02*
X102599714Y-70721750D01*
X102599714Y-70721750D02*
X102635428Y-70686035D01*
X102635428Y-70686035D02*
X102671142Y-70614607D01*
X102671142Y-70614607D02*
X102671142Y-70578892D01*
X102671142Y-70578892D02*
X102635428Y-70507464D01*
X102635428Y-70507464D02*
X102599714Y-70471750D01*
X102599714Y-70471750D02*
X102528285Y-70436035D01*
X102528285Y-70436035D02*
X102385428Y-70436035D01*
X102385428Y-70436035D02*
X102314000Y-70471750D01*
X102314000Y-70471750D02*
X102278285Y-70507464D01*
X102278285Y-70507464D02*
X102242571Y-70578892D01*
X102242571Y-70578892D02*
X102242571Y-70614607D01*
X102242571Y-70614607D02*
X102278285Y-70686035D01*
X102278285Y-70686035D02*
X102314000Y-70721750D01*
X102314000Y-70721750D02*
X102385428Y-70757464D01*
X102385428Y-70757464D02*
X102528285Y-70757464D01*
X102528285Y-70757464D02*
X102599714Y-70793178D01*
X102599714Y-70793178D02*
X102635428Y-70828892D01*
X102635428Y-70828892D02*
X102671142Y-70900321D01*
X102671142Y-70900321D02*
X102671142Y-71043178D01*
X102671142Y-71043178D02*
X102635428Y-71114607D01*
X102635428Y-71114607D02*
X102599714Y-71150321D01*
X102599714Y-71150321D02*
X102528285Y-71186035D01*
X102528285Y-71186035D02*
X102385428Y-71186035D01*
X102385428Y-71186035D02*
X102314000Y-71150321D01*
X102314000Y-71150321D02*
X102278285Y-71114607D01*
X102278285Y-71114607D02*
X102242571Y-71043178D01*
X102242571Y-71043178D02*
X102242571Y-70900321D01*
X102242571Y-70900321D02*
X102278285Y-70828892D01*
X102278285Y-70828892D02*
X102314000Y-70793178D01*
X102314000Y-70793178D02*
X102385428Y-70757464D01*
X101056856Y-70507464D02*
X101021142Y-70471750D01*
X101021142Y-70471750D02*
X100949714Y-70436035D01*
X100949714Y-70436035D02*
X100771142Y-70436035D01*
X100771142Y-70436035D02*
X100699714Y-70471750D01*
X100699714Y-70471750D02*
X100663999Y-70507464D01*
X100663999Y-70507464D02*
X100628285Y-70578892D01*
X100628285Y-70578892D02*
X100628285Y-70650321D01*
X100628285Y-70650321D02*
X100663999Y-70757464D01*
X100663999Y-70757464D02*
X101092571Y-71186035D01*
X101092571Y-71186035D02*
X100628285Y-71186035D01*
X100271142Y-71186035D02*
X100128285Y-71186035D01*
X100128285Y-71186035D02*
X100056856Y-71150321D01*
X100056856Y-71150321D02*
X100021142Y-71114607D01*
X100021142Y-71114607D02*
X99949713Y-71007464D01*
X99949713Y-71007464D02*
X99913999Y-70864607D01*
X99913999Y-70864607D02*
X99913999Y-70578892D01*
X99913999Y-70578892D02*
X99949713Y-70507464D01*
X99949713Y-70507464D02*
X99985428Y-70471750D01*
X99985428Y-70471750D02*
X100056856Y-70436035D01*
X100056856Y-70436035D02*
X100199713Y-70436035D01*
X100199713Y-70436035D02*
X100271142Y-70471750D01*
X100271142Y-70471750D02*
X100306856Y-70507464D01*
X100306856Y-70507464D02*
X100342570Y-70578892D01*
X100342570Y-70578892D02*
X100342570Y-70757464D01*
X100342570Y-70757464D02*
X100306856Y-70828892D01*
X100306856Y-70828892D02*
X100271142Y-70864607D01*
X100271142Y-70864607D02*
X100199713Y-70900321D01*
X100199713Y-70900321D02*
X100056856Y-70900321D01*
X100056856Y-70900321D02*
X99985428Y-70864607D01*
X99985428Y-70864607D02*
X99949713Y-70828892D01*
X99949713Y-70828892D02*
X99913999Y-70757464D01*
X103563999Y-71686750D02*
X103635428Y-71651035D01*
X103635428Y-71651035D02*
X103742570Y-71651035D01*
X103742570Y-71651035D02*
X103849713Y-71686750D01*
X103849713Y-71686750D02*
X103921142Y-71758178D01*
X103921142Y-71758178D02*
X103956856Y-71829607D01*
X103956856Y-71829607D02*
X103992570Y-71972464D01*
X103992570Y-71972464D02*
X103992570Y-72079607D01*
X103992570Y-72079607D02*
X103956856Y-72222464D01*
X103956856Y-72222464D02*
X103921142Y-72293892D01*
X103921142Y-72293892D02*
X103849713Y-72365321D01*
X103849713Y-72365321D02*
X103742570Y-72401035D01*
X103742570Y-72401035D02*
X103671142Y-72401035D01*
X103671142Y-72401035D02*
X103563999Y-72365321D01*
X103563999Y-72365321D02*
X103528285Y-72329607D01*
X103528285Y-72329607D02*
X103528285Y-72079607D01*
X103528285Y-72079607D02*
X103671142Y-72079607D01*
X103206856Y-72401035D02*
X103206856Y-71651035D01*
X103206856Y-71651035D02*
X102921142Y-71651035D01*
X102921142Y-71651035D02*
X102849713Y-71686750D01*
X102849713Y-71686750D02*
X102813999Y-71722464D01*
X102813999Y-71722464D02*
X102778285Y-71793892D01*
X102778285Y-71793892D02*
X102778285Y-71901035D01*
X102778285Y-71901035D02*
X102813999Y-71972464D01*
X102813999Y-71972464D02*
X102849713Y-72008178D01*
X102849713Y-72008178D02*
X102921142Y-72043892D01*
X102921142Y-72043892D02*
X103206856Y-72043892D01*
X102456856Y-72401035D02*
X102456856Y-71651035D01*
X101956856Y-71651035D02*
X101813999Y-71651035D01*
X101813999Y-71651035D02*
X101742570Y-71686750D01*
X101742570Y-71686750D02*
X101671142Y-71758178D01*
X101671142Y-71758178D02*
X101635427Y-71901035D01*
X101635427Y-71901035D02*
X101635427Y-72151035D01*
X101635427Y-72151035D02*
X101671142Y-72293892D01*
X101671142Y-72293892D02*
X101742570Y-72365321D01*
X101742570Y-72365321D02*
X101813999Y-72401035D01*
X101813999Y-72401035D02*
X101956856Y-72401035D01*
X101956856Y-72401035D02*
X102028285Y-72365321D01*
X102028285Y-72365321D02*
X102099713Y-72293892D01*
X102099713Y-72293892D02*
X102135427Y-72151035D01*
X102135427Y-72151035D02*
X102135427Y-71901035D01*
X102135427Y-71901035D02*
X102099713Y-71758178D01*
X102099713Y-71758178D02*
X102028285Y-71686750D01*
X102028285Y-71686750D02*
X101956856Y-71651035D01*
D14*
X129858856Y-67605071D02*
X130358856Y-66890785D01*
X130715999Y-67605071D02*
X130715999Y-66105071D01*
X130715999Y-66105071D02*
X130144570Y-66105071D01*
X130144570Y-66105071D02*
X130001713Y-66176500D01*
X130001713Y-66176500D02*
X129930284Y-66247928D01*
X129930284Y-66247928D02*
X129858856Y-66390785D01*
X129858856Y-66390785D02*
X129858856Y-66605071D01*
X129858856Y-66605071D02*
X129930284Y-66747928D01*
X129930284Y-66747928D02*
X130001713Y-66819357D01*
X130001713Y-66819357D02*
X130144570Y-66890785D01*
X130144570Y-66890785D02*
X130715999Y-66890785D01*
X129215999Y-67605071D02*
X129215999Y-66105071D01*
X129215999Y-66105071D02*
X128644570Y-66105071D01*
X128644570Y-66105071D02*
X128501713Y-66176500D01*
X128501713Y-66176500D02*
X128430284Y-66247928D01*
X128430284Y-66247928D02*
X128358856Y-66390785D01*
X128358856Y-66390785D02*
X128358856Y-66605071D01*
X128358856Y-66605071D02*
X128430284Y-66747928D01*
X128430284Y-66747928D02*
X128501713Y-66819357D01*
X128501713Y-66819357D02*
X128644570Y-66890785D01*
X128644570Y-66890785D02*
X129215999Y-66890785D01*
X127787427Y-66247928D02*
X127715999Y-66176500D01*
X127715999Y-66176500D02*
X127573142Y-66105071D01*
X127573142Y-66105071D02*
X127215999Y-66105071D01*
X127215999Y-66105071D02*
X127073142Y-66176500D01*
X127073142Y-66176500D02*
X127001713Y-66247928D01*
X127001713Y-66247928D02*
X126930284Y-66390785D01*
X126930284Y-66390785D02*
X126930284Y-66533642D01*
X126930284Y-66533642D02*
X127001713Y-66747928D01*
X127001713Y-66747928D02*
X127858856Y-67605071D01*
X127858856Y-67605071D02*
X126930284Y-67605071D01*
X126001713Y-66105071D02*
X125858856Y-66105071D01*
X125858856Y-66105071D02*
X125715999Y-66176500D01*
X125715999Y-66176500D02*
X125644571Y-66247928D01*
X125644571Y-66247928D02*
X125573142Y-66390785D01*
X125573142Y-66390785D02*
X125501713Y-66676500D01*
X125501713Y-66676500D02*
X125501713Y-67033642D01*
X125501713Y-67033642D02*
X125573142Y-67319357D01*
X125573142Y-67319357D02*
X125644571Y-67462214D01*
X125644571Y-67462214D02*
X125715999Y-67533642D01*
X125715999Y-67533642D02*
X125858856Y-67605071D01*
X125858856Y-67605071D02*
X126001713Y-67605071D01*
X126001713Y-67605071D02*
X126144571Y-67533642D01*
X126144571Y-67533642D02*
X126215999Y-67462214D01*
X126215999Y-67462214D02*
X126287428Y-67319357D01*
X126287428Y-67319357D02*
X126358856Y-67033642D01*
X126358856Y-67033642D02*
X126358856Y-66676500D01*
X126358856Y-66676500D02*
X126287428Y-66390785D01*
X126287428Y-66390785D02*
X126215999Y-66247928D01*
X126215999Y-66247928D02*
X126144571Y-66176500D01*
X126144571Y-66176500D02*
X126001713Y-66105071D01*
X124216000Y-66605071D02*
X124216000Y-67605071D01*
X124573142Y-66033642D02*
X124930285Y-67105071D01*
X124930285Y-67105071D02*
X124001714Y-67105071D01*
X123144571Y-66105071D02*
X123001714Y-66105071D01*
X123001714Y-66105071D02*
X122858857Y-66176500D01*
X122858857Y-66176500D02*
X122787429Y-66247928D01*
X122787429Y-66247928D02*
X122716000Y-66390785D01*
X122716000Y-66390785D02*
X122644571Y-66676500D01*
X122644571Y-66676500D02*
X122644571Y-67033642D01*
X122644571Y-67033642D02*
X122716000Y-67319357D01*
X122716000Y-67319357D02*
X122787429Y-67462214D01*
X122787429Y-67462214D02*
X122858857Y-67533642D01*
X122858857Y-67533642D02*
X123001714Y-67605071D01*
X123001714Y-67605071D02*
X123144571Y-67605071D01*
X123144571Y-67605071D02*
X123287429Y-67533642D01*
X123287429Y-67533642D02*
X123358857Y-67462214D01*
X123358857Y-67462214D02*
X123430286Y-67319357D01*
X123430286Y-67319357D02*
X123501714Y-67033642D01*
X123501714Y-67033642D02*
X123501714Y-66676500D01*
X123501714Y-66676500D02*
X123430286Y-66390785D01*
X123430286Y-66390785D02*
X123358857Y-66247928D01*
X123358857Y-66247928D02*
X123287429Y-66176500D01*
X123287429Y-66176500D02*
X123144571Y-66105071D01*
X132444570Y-68535071D02*
X131944570Y-70035071D01*
X131944570Y-70035071D02*
X131444570Y-68535071D01*
X130658856Y-68535071D02*
X130515999Y-68535071D01*
X130515999Y-68535071D02*
X130373142Y-68606500D01*
X130373142Y-68606500D02*
X130301714Y-68677928D01*
X130301714Y-68677928D02*
X130230285Y-68820785D01*
X130230285Y-68820785D02*
X130158856Y-69106500D01*
X130158856Y-69106500D02*
X130158856Y-69463642D01*
X130158856Y-69463642D02*
X130230285Y-69749357D01*
X130230285Y-69749357D02*
X130301714Y-69892214D01*
X130301714Y-69892214D02*
X130373142Y-69963642D01*
X130373142Y-69963642D02*
X130515999Y-70035071D01*
X130515999Y-70035071D02*
X130658856Y-70035071D01*
X130658856Y-70035071D02*
X130801714Y-69963642D01*
X130801714Y-69963642D02*
X130873142Y-69892214D01*
X130873142Y-69892214D02*
X130944571Y-69749357D01*
X130944571Y-69749357D02*
X131015999Y-69463642D01*
X131015999Y-69463642D02*
X131015999Y-69106500D01*
X131015999Y-69106500D02*
X130944571Y-68820785D01*
X130944571Y-68820785D02*
X130873142Y-68677928D01*
X130873142Y-68677928D02*
X130801714Y-68606500D01*
X130801714Y-68606500D02*
X130658856Y-68535071D01*
X129516000Y-69463642D02*
X128373143Y-69463642D01*
X127658857Y-70035071D02*
X127658857Y-68535071D01*
X127658857Y-68535071D02*
X127301714Y-68535071D01*
X127301714Y-68535071D02*
X127087428Y-68606500D01*
X127087428Y-68606500D02*
X126944571Y-68749357D01*
X126944571Y-68749357D02*
X126873142Y-68892214D01*
X126873142Y-68892214D02*
X126801714Y-69177928D01*
X126801714Y-69177928D02*
X126801714Y-69392214D01*
X126801714Y-69392214D02*
X126873142Y-69677928D01*
X126873142Y-69677928D02*
X126944571Y-69820785D01*
X126944571Y-69820785D02*
X127087428Y-69963642D01*
X127087428Y-69963642D02*
X127301714Y-70035071D01*
X127301714Y-70035071D02*
X127658857Y-70035071D01*
X126158857Y-70035071D02*
X126158857Y-69035071D01*
X126158857Y-68535071D02*
X126230285Y-68606500D01*
X126230285Y-68606500D02*
X126158857Y-68677928D01*
X126158857Y-68677928D02*
X126087428Y-68606500D01*
X126087428Y-68606500D02*
X126158857Y-68535071D01*
X126158857Y-68535071D02*
X126158857Y-68677928D01*
X125515999Y-69963642D02*
X125373142Y-70035071D01*
X125373142Y-70035071D02*
X125087428Y-70035071D01*
X125087428Y-70035071D02*
X124944571Y-69963642D01*
X124944571Y-69963642D02*
X124873142Y-69820785D01*
X124873142Y-69820785D02*
X124873142Y-69749357D01*
X124873142Y-69749357D02*
X124944571Y-69606500D01*
X124944571Y-69606500D02*
X125087428Y-69535071D01*
X125087428Y-69535071D02*
X125301714Y-69535071D01*
X125301714Y-69535071D02*
X125444571Y-69463642D01*
X125444571Y-69463642D02*
X125515999Y-69320785D01*
X125515999Y-69320785D02*
X125515999Y-69249357D01*
X125515999Y-69249357D02*
X125444571Y-69106500D01*
X125444571Y-69106500D02*
X125301714Y-69035071D01*
X125301714Y-69035071D02*
X125087428Y-69035071D01*
X125087428Y-69035071D02*
X124944571Y-69106500D01*
X124230285Y-69035071D02*
X124230285Y-70535071D01*
X124230285Y-69106500D02*
X124087428Y-69035071D01*
X124087428Y-69035071D02*
X123801713Y-69035071D01*
X123801713Y-69035071D02*
X123658856Y-69106500D01*
X123658856Y-69106500D02*
X123587428Y-69177928D01*
X123587428Y-69177928D02*
X123515999Y-69320785D01*
X123515999Y-69320785D02*
X123515999Y-69749357D01*
X123515999Y-69749357D02*
X123587428Y-69892214D01*
X123587428Y-69892214D02*
X123658856Y-69963642D01*
X123658856Y-69963642D02*
X123801713Y-70035071D01*
X123801713Y-70035071D02*
X124087428Y-70035071D01*
X124087428Y-70035071D02*
X124230285Y-69963642D01*
X122658856Y-70035071D02*
X122801713Y-69963642D01*
X122801713Y-69963642D02*
X122873142Y-69820785D01*
X122873142Y-69820785D02*
X122873142Y-68535071D01*
X121444571Y-70035071D02*
X121444571Y-69249357D01*
X121444571Y-69249357D02*
X121515999Y-69106500D01*
X121515999Y-69106500D02*
X121658856Y-69035071D01*
X121658856Y-69035071D02*
X121944571Y-69035071D01*
X121944571Y-69035071D02*
X122087428Y-69106500D01*
X121444571Y-69963642D02*
X121587428Y-70035071D01*
X121587428Y-70035071D02*
X121944571Y-70035071D01*
X121944571Y-70035071D02*
X122087428Y-69963642D01*
X122087428Y-69963642D02*
X122158856Y-69820785D01*
X122158856Y-69820785D02*
X122158856Y-69677928D01*
X122158856Y-69677928D02*
X122087428Y-69535071D01*
X122087428Y-69535071D02*
X121944571Y-69463642D01*
X121944571Y-69463642D02*
X121587428Y-69463642D01*
X121587428Y-69463642D02*
X121444571Y-69392214D01*
X120873142Y-69035071D02*
X120515999Y-70035071D01*
X120158856Y-69035071D02*
X120515999Y-70035071D01*
X120515999Y-70035071D02*
X120658856Y-70392214D01*
X120658856Y-70392214D02*
X120730285Y-70463642D01*
X120730285Y-70463642D02*
X120873142Y-70535071D01*
X127480284Y-70965071D02*
X126980284Y-72465071D01*
X126980284Y-72465071D02*
X126480284Y-70965071D01*
X125194570Y-72465071D02*
X126051713Y-72465071D01*
X125623142Y-72465071D02*
X125623142Y-70965071D01*
X125623142Y-70965071D02*
X125765999Y-71179357D01*
X125765999Y-71179357D02*
X125908856Y-71322214D01*
X125908856Y-71322214D02*
X126051713Y-71393642D01*
D12*
X155009380Y-54138095D02*
X155818904Y-54138095D01*
X155818904Y-54138095D02*
X155914142Y-54185714D01*
X155914142Y-54185714D02*
X155961761Y-54233333D01*
X155961761Y-54233333D02*
X156009380Y-54328571D01*
X156009380Y-54328571D02*
X156009380Y-54519047D01*
X156009380Y-54519047D02*
X155961761Y-54614285D01*
X155961761Y-54614285D02*
X155914142Y-54661904D01*
X155914142Y-54661904D02*
X155818904Y-54709523D01*
X155818904Y-54709523D02*
X155009380Y-54709523D01*
X155009380Y-55090476D02*
X155009380Y-55709523D01*
X155009380Y-55709523D02*
X155390333Y-55376190D01*
X155390333Y-55376190D02*
X155390333Y-55519047D01*
X155390333Y-55519047D02*
X155437952Y-55614285D01*
X155437952Y-55614285D02*
X155485571Y-55661904D01*
X155485571Y-55661904D02*
X155580809Y-55709523D01*
X155580809Y-55709523D02*
X155818904Y-55709523D01*
X155818904Y-55709523D02*
X155914142Y-55661904D01*
X155914142Y-55661904D02*
X155961761Y-55614285D01*
X155961761Y-55614285D02*
X156009380Y-55519047D01*
X156009380Y-55519047D02*
X156009380Y-55233333D01*
X156009380Y-55233333D02*
X155961761Y-55138095D01*
X155961761Y-55138095D02*
X155914142Y-55090476D01*
D10*
X151682000Y-54900000D02*
X151682000Y-55700000D01*
X154802000Y-54900000D02*
X154802000Y-56700000D01*
X154802000Y-54900000D02*
X154802000Y-54100000D01*
X151682000Y-54900000D02*
X151682000Y-54100000D01*
X85009000Y-62570000D02*
X85009000Y-71730000D01*
X85009000Y-71730000D02*
X86714000Y-71730000D01*
X86714000Y-62570000D02*
X85009000Y-62570000D01*
X90644000Y-71730000D02*
X88724000Y-71730000D01*
X88724000Y-62570000D02*
X90644000Y-62570000D01*
X124576000Y-60050000D02*
X128196000Y-60050000D01*
X128196000Y-60050000D02*
X128196000Y-53930000D01*
X124576000Y-53930000D02*
X124576000Y-60050000D01*
X128196000Y-53930000D02*
X124576000Y-53930000D01*
X117364000Y-68868000D02*
X117364000Y-71528000D01*
X112224000Y-68868000D02*
X117364000Y-68868000D01*
X112224000Y-68868000D02*
X112224000Y-71528000D01*
X110954000Y-68868000D02*
X109624000Y-68868000D01*
X109624000Y-68868000D02*
X109624000Y-70198000D01*
X112224000Y-71528000D02*
X117364000Y-71528000D01*
X99634420Y-79620000D02*
X99915580Y-79620000D01*
X99634420Y-80640000D02*
X99915580Y-80640000D01*
X101335000Y-76955000D02*
X101335000Y-76155000D01*
X101335000Y-76955000D02*
X101335000Y-77755000D01*
X98215000Y-76955000D02*
X98215000Y-75155000D01*
X98215000Y-76955000D02*
X98215000Y-77755000D01*
X98894000Y-70258000D02*
X98894000Y-67598000D01*
X104034000Y-70258000D02*
X98894000Y-70258000D01*
X104034000Y-70258000D02*
X104034000Y-67598000D01*
X105304000Y-70258000D02*
X106634000Y-70258000D01*
X106634000Y-70258000D02*
X106634000Y-68928000D01*
X104034000Y-67598000D02*
X98894000Y-67598000D01*
X149245000Y-61775000D02*
X149245000Y-59115000D01*
X151845000Y-61775000D02*
X149245000Y-61775000D01*
X151845000Y-61775000D02*
X151845000Y-59115000D01*
X153115000Y-61775000D02*
X154445000Y-61775000D01*
X154445000Y-61775000D02*
X154445000Y-60445000D01*
X151845000Y-59115000D02*
X149245000Y-59115000D01*
X99634420Y-73270000D02*
X99915580Y-73270000D01*
X99634420Y-74290000D02*
X99915580Y-74290000D01*
X105000000Y-58270000D02*
X105000000Y-56270000D01*
X105000000Y-56270000D02*
X100900000Y-56270000D01*
X104550000Y-58770000D02*
X103950000Y-58770000D01*
X104250000Y-58470000D02*
X104550000Y-58770000D01*
X104250000Y-58470000D02*
X103950000Y-58770000D01*
X100900000Y-58270000D02*
X105000000Y-58270000D01*
X100900000Y-56270000D02*
X100900000Y-58270000D01*
X100900000Y-53730000D02*
X100900000Y-55730000D01*
X100900000Y-55730000D02*
X105000000Y-55730000D01*
X101350000Y-53230000D02*
X101950000Y-53230000D01*
X101650000Y-53530000D02*
X101350000Y-53230000D01*
X101650000Y-53530000D02*
X101950000Y-53230000D01*
X105000000Y-53730000D02*
X100900000Y-53730000D01*
X105000000Y-55730000D02*
X105000000Y-53730000D01*
X95084000Y-61756000D02*
X97744000Y-61756000D01*
X95084000Y-69436000D02*
X95084000Y-61756000D01*
X95084000Y-69436000D02*
X97744000Y-69436000D01*
X95084000Y-70706000D02*
X95084000Y-72036000D01*
X95084000Y-72036000D02*
X96414000Y-72036000D01*
X97744000Y-69436000D02*
X97744000Y-61756000D01*
X129944000Y-55312420D02*
X129944000Y-55593580D01*
X128924000Y-55312420D02*
X128924000Y-55593580D01*
X104810580Y-60360000D02*
X104529420Y-60360000D01*
X104810580Y-59340000D02*
X104529420Y-59340000D01*
X121260580Y-61360000D02*
X120979420Y-61360000D01*
X121260580Y-60340000D02*
X120979420Y-60340000D01*
X95082742Y-60027500D02*
X95557258Y-60027500D01*
X95082742Y-61072500D02*
X95557258Y-61072500D01*
X120879420Y-54740000D02*
X121160580Y-54740000D01*
X120879420Y-55760000D02*
X121160580Y-55760000D01*
X129956500Y-58315742D02*
X129956500Y-58790258D01*
X128911500Y-58315742D02*
X128911500Y-58790258D01*
X95557258Y-73772500D02*
X95082742Y-73772500D01*
X95557258Y-72727500D02*
X95082742Y-72727500D01*
X105157258Y-63372500D02*
X104682742Y-63372500D01*
X105157258Y-62327500D02*
X104682742Y-62327500D01*
X106808037Y-63516746D02*
X106948617Y-63273254D01*
X107691383Y-64026746D02*
X107831963Y-63783254D01*
X118920000Y-56300000D02*
X123120000Y-56300000D01*
X118920000Y-59800000D02*
X118920000Y-56300000D01*
X113956742Y-66875500D02*
X114431258Y-66875500D01*
X113956742Y-67920500D02*
X114431258Y-67920500D01*
X104682742Y-60827500D02*
X105157258Y-60827500D01*
X104682742Y-61872500D02*
X105157258Y-61872500D01*
X117004000Y-56644000D02*
X116354000Y-56644000D01*
X117004000Y-57294000D02*
X117004000Y-56644000D01*
X109784000Y-57294000D02*
X109784000Y-56644000D01*
X117004000Y-63214000D02*
X117004000Y-63864000D01*
X109784000Y-63214000D02*
X109784000Y-63864000D01*
X117004000Y-63864000D02*
X116354000Y-63864000D01*
X109784000Y-63864000D02*
X110434000Y-63864000D01*
M02*
