G04 #@! TF.GenerationSoftware,KiCad,Pcbnew,(7.0.0)*
G04 #@! TF.CreationDate,2023-03-04T11:40:14-06:00*
G04 #@! TF.ProjectId,V0_Display,56305f44-6973-4706-9c61-792e6b696361,rev?*
G04 #@! TF.SameCoordinates,Original*
G04 #@! TF.FileFunction,Soldermask,Top*
G04 #@! TF.FilePolarity,Negative*
%FSLAX46Y46*%
G04 Gerber Fmt 4.6, Leading zero omitted, Abs format (unit mm)*
G04 Created by KiCad (PCBNEW (7.0.0)) date 2023-03-04 11:40:14*
%MOMM*%
%LPD*%
G01*
G04 APERTURE LIST*
G04 Aperture macros list*
%AMRoundRect*
0 Rectangle with rounded corners*
0 $1 Rounding radius*
0 $2 $3 $4 $5 $6 $7 $8 $9 X,Y pos of 4 corners*
0 Add a 4 corners polygon primitive as box body*
4,1,4,$2,$3,$4,$5,$6,$7,$8,$9,$2,$3,0*
0 Add four circle primitives for the rounded corners*
1,1,$1+$1,$2,$3*
1,1,$1+$1,$4,$5*
1,1,$1+$1,$6,$7*
1,1,$1+$1,$8,$9*
0 Add four rect primitives between the rounded corners*
20,1,$1+$1,$2,$3,$4,$5,0*
20,1,$1+$1,$4,$5,$6,$7,0*
20,1,$1+$1,$6,$7,$8,$9,0*
20,1,$1+$1,$8,$9,$2,$3,0*%
G04 Aperture macros list end*
%ADD10C,3.200000*%
%ADD11R,1.500000X1.000000*%
%ADD12C,2.000000*%
%ADD13O,2.500000X4.000000*%
%ADD14C,1.524000*%
%ADD15RoundRect,0.200000X-0.275000X0.200000X-0.275000X-0.200000X0.275000X-0.200000X0.275000X0.200000X0*%
%ADD16RoundRect,0.225000X-0.250000X0.225000X-0.250000X-0.225000X0.250000X-0.225000X0.250000X0.225000X0*%
%ADD17RoundRect,0.225000X0.250000X-0.225000X0.250000X0.225000X-0.250000X0.225000X-0.250000X-0.225000X0*%
%ADD18RoundRect,0.200000X-0.200000X-0.275000X0.200000X-0.275000X0.200000X0.275000X-0.200000X0.275000X0*%
%ADD19R,1.700000X1.700000*%
%ADD20O,1.700000X1.700000*%
%ADD21C,0.609600*%
%ADD22C,0.660400*%
G04 APERTURE END LIST*
D10*
X161170000Y-80650000D03*
X161170000Y-55650000D03*
D11*
X157469999Y-60549999D03*
X157469999Y-63749999D03*
X162369999Y-63749999D03*
X162369999Y-60549999D03*
D12*
X156670000Y-69900000D03*
X163170000Y-69900000D03*
X156670000Y-74400000D03*
X163170000Y-74400000D03*
X141920000Y-74650000D03*
X146920000Y-74650000D03*
X144420000Y-74650000D03*
D13*
X139339999Y-67149999D03*
X149499999Y-67149999D03*
D12*
X141920000Y-60150000D03*
X146920000Y-60150000D03*
D10*
X89170000Y-80650000D03*
X89170000Y-55650000D03*
D14*
X109660000Y-52850000D03*
X112200000Y-52850000D03*
X114740000Y-52850000D03*
X117280000Y-52850000D03*
D15*
X109420000Y-65725000D03*
X109420000Y-67375000D03*
D16*
X110944000Y-65775000D03*
X110944000Y-67325000D03*
X108220000Y-62075000D03*
X108220000Y-63625000D03*
D17*
X106620000Y-60600000D03*
X106620000Y-59050000D03*
X109820000Y-60600000D03*
X109820000Y-59050000D03*
D18*
X107595000Y-57050000D03*
X109245000Y-57050000D03*
D16*
X109844000Y-62075000D03*
X109844000Y-63625000D03*
X106620000Y-62075000D03*
X106620000Y-63625000D03*
D17*
X108220000Y-60600000D03*
X108220000Y-59050000D03*
D19*
X110953999Y-70197999D03*
D20*
X113493999Y-70197999D03*
X116033999Y-70197999D03*
D19*
X105303999Y-68927999D03*
D20*
X102763999Y-68927999D03*
X100223999Y-68927999D03*
D19*
X153114999Y-60444999D03*
D20*
X150574999Y-60444999D03*
D19*
X96413999Y-70705999D03*
D20*
X96413999Y-68165999D03*
X96413999Y-65625999D03*
X96413999Y-63085999D03*
D21*
X91412700Y-71468002D03*
X92504900Y-71468002D03*
X87385100Y-71468000D03*
X88172500Y-71468000D03*
X87385100Y-62828000D03*
X88172500Y-62828000D03*
X91412700Y-62828000D03*
X92504900Y-62828000D03*
D22*
X91458801Y-70037999D03*
X91458801Y-64258001D03*
M02*
