G04 #@! TF.GenerationSoftware,KiCad,Pcbnew,(7.0.0)*
G04 #@! TF.CreationDate,2023-03-04T20:15:18-06:00*
G04 #@! TF.ProjectId,V0_Display,56305f44-6973-4706-9c61-792e6b696361,rev?*
G04 #@! TF.SameCoordinates,Original*
G04 #@! TF.FileFunction,Copper,L2,Bot*
G04 #@! TF.FilePolarity,Positive*
%FSLAX46Y46*%
G04 Gerber Fmt 4.6, Leading zero omitted, Abs format (unit mm)*
G04 Created by KiCad (PCBNEW (7.0.0)) date 2023-03-04 20:15:18*
%MOMM*%
%LPD*%
G01*
G04 APERTURE LIST*
G04 Aperture macros list*
%AMRoundRect*
0 Rectangle with rounded corners*
0 $1 Rounding radius*
0 $2 $3 $4 $5 $6 $7 $8 $9 X,Y pos of 4 corners*
0 Add a 4 corners polygon primitive as box body*
4,1,4,$2,$3,$4,$5,$6,$7,$8,$9,$2,$3,0*
0 Add four circle primitives for the rounded corners*
1,1,$1+$1,$2,$3*
1,1,$1+$1,$4,$5*
1,1,$1+$1,$6,$7*
1,1,$1+$1,$8,$9*
0 Add four rect primitives between the rounded corners*
20,1,$1+$1,$2,$3,$4,$5,0*
20,1,$1+$1,$4,$5,$6,$7,0*
20,1,$1+$1,$6,$7,$8,$9,0*
20,1,$1+$1,$8,$9,$2,$3,0*%
G04 Aperture macros list end*
G04 #@! TA.AperFunction,SMDPad,CuDef*
%ADD10RoundRect,0.150000X0.150000X-0.512500X0.150000X0.512500X-0.150000X0.512500X-0.150000X-0.512500X0*%
G04 #@! TD*
G04 #@! TA.AperFunction,SMDPad,CuDef*
%ADD11R,1.240000X0.600000*%
G04 #@! TD*
G04 #@! TA.AperFunction,SMDPad,CuDef*
%ADD12R,1.240000X0.300000*%
G04 #@! TD*
G04 #@! TA.AperFunction,ComponentPad*
%ADD13O,1.800000X1.000000*%
G04 #@! TD*
G04 #@! TA.AperFunction,ComponentPad*
%ADD14O,2.100000X1.000000*%
G04 #@! TD*
G04 #@! TA.AperFunction,SMDPad,CuDef*
%ADD15R,1.600000X2.000000*%
G04 #@! TD*
G04 #@! TA.AperFunction,ComponentPad*
%ADD16C,2.000000*%
G04 #@! TD*
G04 #@! TA.AperFunction,ComponentPad*
%ADD17O,2.500000X4.000000*%
G04 #@! TD*
G04 #@! TA.AperFunction,ComponentPad*
%ADD18C,1.524000*%
G04 #@! TD*
G04 #@! TA.AperFunction,ComponentPad*
%ADD19R,1.700000X1.700000*%
G04 #@! TD*
G04 #@! TA.AperFunction,ComponentPad*
%ADD20O,1.700000X1.700000*%
G04 #@! TD*
G04 #@! TA.AperFunction,SMDPad,CuDef*
%ADD21RoundRect,0.225000X-0.225000X-0.250000X0.225000X-0.250000X0.225000X0.250000X-0.225000X0.250000X0*%
G04 #@! TD*
G04 #@! TA.AperFunction,SMDPad,CuDef*
%ADD22RoundRect,0.150000X-0.150000X0.512500X-0.150000X-0.512500X0.150000X-0.512500X0.150000X0.512500X0*%
G04 #@! TD*
G04 #@! TA.AperFunction,SMDPad,CuDef*
%ADD23R,1.000000X1.500000*%
G04 #@! TD*
G04 #@! TA.AperFunction,SMDPad,CuDef*
%ADD24RoundRect,0.225000X-0.250000X0.225000X-0.250000X-0.225000X0.250000X-0.225000X0.250000X0.225000X0*%
G04 #@! TD*
G04 #@! TA.AperFunction,SMDPad,CuDef*
%ADD25RoundRect,0.225000X0.225000X0.250000X-0.225000X0.250000X-0.225000X-0.250000X0.225000X-0.250000X0*%
G04 #@! TD*
G04 #@! TA.AperFunction,SMDPad,CuDef*
%ADD26RoundRect,0.200000X-0.200000X-0.275000X0.200000X-0.275000X0.200000X0.275000X-0.200000X0.275000X0*%
G04 #@! TD*
G04 #@! TA.AperFunction,SMDPad,CuDef*
%ADD27RoundRect,0.200000X-0.275000X0.200000X-0.275000X-0.200000X0.275000X-0.200000X0.275000X0.200000X0*%
G04 #@! TD*
G04 #@! TA.AperFunction,SMDPad,CuDef*
%ADD28RoundRect,0.200000X0.200000X0.275000X-0.200000X0.275000X-0.200000X-0.275000X0.200000X-0.275000X0*%
G04 #@! TD*
G04 #@! TA.AperFunction,SMDPad,CuDef*
%ADD29RoundRect,0.225000X0.104006X-0.319856X0.329006X0.069856X-0.104006X0.319856X-0.329006X-0.069856X0*%
G04 #@! TD*
G04 #@! TA.AperFunction,SMDPad,CuDef*
%ADD30R,1.400000X1.200000*%
G04 #@! TD*
G04 #@! TA.AperFunction,SMDPad,CuDef*
%ADD31R,0.300000X0.900000*%
G04 #@! TD*
G04 #@! TA.AperFunction,SMDPad,CuDef*
%ADD32R,1.650000X0.250000*%
G04 #@! TD*
G04 #@! TA.AperFunction,SMDPad,CuDef*
%ADD33RoundRect,0.050000X-0.050000X0.387500X-0.050000X-0.387500X0.050000X-0.387500X0.050000X0.387500X0*%
G04 #@! TD*
G04 #@! TA.AperFunction,SMDPad,CuDef*
%ADD34RoundRect,0.050000X-0.387500X0.050000X-0.387500X-0.050000X0.387500X-0.050000X0.387500X0.050000X0*%
G04 #@! TD*
G04 #@! TA.AperFunction,SMDPad,CuDef*
%ADD35R,3.200000X3.200000*%
G04 #@! TD*
G04 #@! TA.AperFunction,ViaPad*
%ADD36C,0.800000*%
G04 #@! TD*
G04 #@! TA.AperFunction,ViaPad*
%ADD37C,0.600000*%
G04 #@! TD*
G04 #@! TA.AperFunction,Conductor*
%ADD38C,0.250000*%
G04 #@! TD*
G04 #@! TA.AperFunction,Conductor*
%ADD39C,0.200000*%
G04 #@! TD*
G04 #@! TA.AperFunction,Conductor*
%ADD40C,0.350000*%
G04 #@! TD*
G04 #@! TA.AperFunction,Conductor*
%ADD41C,0.500000*%
G04 #@! TD*
G04 #@! TA.AperFunction,Conductor*
%ADD42C,0.400000*%
G04 #@! TD*
G04 #@! TA.AperFunction,Conductor*
%ADD43C,0.150000*%
G04 #@! TD*
G04 APERTURE END LIST*
G36*
X103850000Y-57570000D02*
G01*
X103350000Y-57570000D01*
X103350000Y-56970000D01*
X103850000Y-56970000D01*
X103850000Y-57570000D01*
G37*
G36*
X102550000Y-55030000D02*
G01*
X102050000Y-55030000D01*
X102050000Y-54430000D01*
X102550000Y-54430000D01*
X102550000Y-55030000D01*
G37*
D10*
X154192000Y-56037500D03*
X153242000Y-56037500D03*
X152292000Y-56037500D03*
X152292000Y-53762500D03*
X154192000Y-53762500D03*
D11*
X92518999Y-70349999D03*
X92518999Y-69549999D03*
D12*
X92518999Y-68399999D03*
X92518999Y-67399999D03*
X92518999Y-66899999D03*
X92518999Y-65899999D03*
D11*
X92518999Y-64749999D03*
X92518999Y-63949999D03*
X92518999Y-63949999D03*
X92518999Y-64749999D03*
D12*
X92518999Y-65399999D03*
X92518999Y-66399999D03*
X92518999Y-67899999D03*
X92518999Y-68899999D03*
D11*
X92518999Y-69549999D03*
X92518999Y-70349999D03*
D13*
X87718999Y-71469999D03*
D14*
X91918999Y-71469999D03*
X91918999Y-62829999D03*
D13*
X87718999Y-62829999D03*
D15*
X126385999Y-61189999D03*
X126385999Y-52789999D03*
D16*
X156670000Y-69900000D03*
X163170000Y-69900000D03*
X156670000Y-74400000D03*
X163170000Y-74400000D03*
X141920000Y-74650000D03*
X146920000Y-74650000D03*
X144420000Y-74650000D03*
D17*
X139339999Y-67149999D03*
X149499999Y-67149999D03*
D16*
X141920000Y-60150000D03*
X146920000Y-60150000D03*
D18*
X109660000Y-52850000D03*
X112200000Y-52850000D03*
X114740000Y-52850000D03*
X117280000Y-52850000D03*
D19*
X110953999Y-70197999D03*
D20*
X113493999Y-70197999D03*
X116033999Y-70197999D03*
D21*
X99000000Y-80130000D03*
X100550000Y-80130000D03*
D22*
X98825000Y-75817500D03*
X99775000Y-75817500D03*
X100725000Y-75817500D03*
X100725000Y-78092500D03*
X98825000Y-78092500D03*
D19*
X105303999Y-68927999D03*
D20*
X102763999Y-68927999D03*
X100223999Y-68927999D03*
D19*
X153114999Y-60444999D03*
D20*
X150574999Y-60444999D03*
D21*
X99000000Y-73780000D03*
X100550000Y-73780000D03*
D23*
X104249999Y-57269999D03*
X102949999Y-57269999D03*
X101649999Y-57269999D03*
X101649999Y-54729999D03*
X102949999Y-54729999D03*
X104249999Y-54729999D03*
D19*
X96413999Y-70705999D03*
D20*
X96413999Y-68165999D03*
X96413999Y-65625999D03*
X96413999Y-63085999D03*
D24*
X129434000Y-54678000D03*
X129434000Y-56228000D03*
D25*
X105445000Y-59850000D03*
X103895000Y-59850000D03*
X121895000Y-60850000D03*
X120345000Y-60850000D03*
D26*
X94495000Y-60550000D03*
X96145000Y-60550000D03*
D21*
X120245000Y-55250000D03*
X121795000Y-55250000D03*
D27*
X129434000Y-57728000D03*
X129434000Y-59378000D03*
D28*
X96145000Y-73250000D03*
X94495000Y-73250000D03*
X105745000Y-62850000D03*
X104095000Y-62850000D03*
D29*
X106932500Y-64321170D03*
X107707500Y-62978830D03*
D30*
X119819999Y-57099999D03*
X122219999Y-57099999D03*
X122219999Y-58999999D03*
X119819999Y-58999999D03*
D26*
X113369000Y-67398000D03*
X115019000Y-67398000D03*
D31*
X106719999Y-57049999D03*
X107219999Y-57049999D03*
X107719999Y-57049999D03*
X108219999Y-57049999D03*
X108219999Y-59849999D03*
X107719999Y-59849999D03*
X107219999Y-59849999D03*
X106719999Y-59849999D03*
D32*
X107469999Y-58449999D03*
D26*
X104095000Y-61350000D03*
X105745000Y-61350000D03*
D33*
X110794000Y-56816500D03*
X111194000Y-56816500D03*
X111594000Y-56816500D03*
X111994000Y-56816500D03*
X112394000Y-56816500D03*
X112794000Y-56816500D03*
X113194000Y-56816500D03*
X113594000Y-56816500D03*
X113994000Y-56816500D03*
X114394000Y-56816500D03*
X114794000Y-56816500D03*
X115194000Y-56816500D03*
X115594000Y-56816500D03*
X115994000Y-56816500D03*
D34*
X116831500Y-57654000D03*
X116831500Y-58054000D03*
X116831500Y-58454000D03*
X116831500Y-58854000D03*
X116831500Y-59254000D03*
X116831500Y-59654000D03*
X116831500Y-60054000D03*
X116831500Y-60454000D03*
X116831500Y-60854000D03*
X116831500Y-61254000D03*
X116831500Y-61654000D03*
X116831500Y-62054000D03*
X116831500Y-62454000D03*
X116831500Y-62854000D03*
D33*
X115994000Y-63691500D03*
X115594000Y-63691500D03*
X115194000Y-63691500D03*
X114794000Y-63691500D03*
X114394000Y-63691500D03*
X113994000Y-63691500D03*
X113594000Y-63691500D03*
X113194000Y-63691500D03*
X112794000Y-63691500D03*
X112394000Y-63691500D03*
X111994000Y-63691500D03*
X111594000Y-63691500D03*
X111194000Y-63691500D03*
X110794000Y-63691500D03*
D34*
X109956500Y-62854000D03*
X109956500Y-62454000D03*
X109956500Y-62054000D03*
X109956500Y-61654000D03*
X109956500Y-61254000D03*
X109956500Y-60854000D03*
X109956500Y-60454000D03*
X109956500Y-60054000D03*
X109956500Y-59654000D03*
X109956500Y-59254000D03*
X109956500Y-58854000D03*
X109956500Y-58454000D03*
X109956500Y-58054000D03*
X109956500Y-57654000D03*
D35*
X113393999Y-60253999D03*
D36*
X114620000Y-59050000D03*
D37*
X100720000Y-72450000D03*
D36*
X102120000Y-80130000D03*
D37*
X151892000Y-52926000D03*
D36*
X93920000Y-63350000D03*
X113394000Y-60254000D03*
D37*
X106620000Y-57999502D03*
D36*
X112220000Y-61450000D03*
X112120000Y-59050000D03*
D37*
X98120000Y-76950000D03*
X121020000Y-61525000D03*
X121020000Y-58050000D03*
X97620000Y-78450000D03*
D36*
X114620000Y-61450000D03*
X124820000Y-52350000D03*
X94018000Y-70397501D03*
X137520000Y-75850000D03*
X94420000Y-64850000D03*
D37*
X154766000Y-56990000D03*
X97220000Y-60550000D03*
D36*
X103320000Y-75850000D03*
X157470000Y-62250000D03*
D37*
X116220000Y-54850000D03*
X113940000Y-66642000D03*
X119007682Y-61061295D03*
X118408182Y-61853000D03*
X93820000Y-68650000D03*
X94520000Y-72050000D03*
X102950000Y-56250000D03*
X102950000Y-53120000D03*
X110816000Y-60854000D03*
D36*
X104920000Y-64150000D03*
D37*
X110771353Y-62049429D03*
X118320000Y-60653500D03*
X108918584Y-68478584D03*
X109720000Y-64750000D03*
X155858500Y-54441500D03*
X106020000Y-57050000D03*
X94520000Y-61650000D03*
X93471999Y-65398001D03*
D36*
X139820000Y-70850000D03*
D37*
X113194000Y-65076000D03*
X117120000Y-64450000D03*
X115413246Y-65556754D03*
X116320000Y-65049500D03*
X117461500Y-63691500D03*
X150520000Y-54900000D03*
X126420000Y-59750000D03*
D38*
X121020000Y-61525000D02*
X120345000Y-60850000D01*
D39*
X107070498Y-58450000D02*
X107470000Y-58450000D01*
D40*
X126336000Y-52350000D02*
X126386000Y-52400000D01*
D41*
X93322000Y-63948000D02*
X93920000Y-63350000D01*
D40*
X102120000Y-80130000D02*
X102100000Y-80130000D01*
D38*
X99775000Y-74717500D02*
X100712500Y-73780000D01*
X121970000Y-57100000D02*
X122220000Y-57100000D01*
X126336000Y-52450000D02*
X126386000Y-52400000D01*
D41*
X93920000Y-63350000D02*
X93920000Y-63350000D01*
D38*
X121020000Y-58050000D02*
X121020000Y-58050000D01*
D41*
X93920000Y-63350000D02*
X93920000Y-63350000D01*
D38*
X101650000Y-57850000D02*
X96414000Y-63086000D01*
X122220000Y-57100000D02*
X122220000Y-55675000D01*
X121020000Y-58050000D02*
X121970000Y-57100000D01*
D39*
X97620000Y-77750000D02*
X98120000Y-77250000D01*
D38*
X101650000Y-57270000D02*
X101650000Y-57850000D01*
X120070000Y-59000000D02*
X121020000Y-58050000D01*
X121020000Y-58050000D02*
X121020000Y-58050000D01*
D39*
X100725000Y-72455000D02*
X100725000Y-73780000D01*
D38*
X101650000Y-57270000D02*
X101650000Y-54730000D01*
D41*
X92533800Y-63948000D02*
X93322000Y-63948000D01*
D38*
X151892000Y-52926000D02*
X151892000Y-53950000D01*
D39*
X100720000Y-72450000D02*
X100725000Y-72455000D01*
X106620000Y-57999502D02*
X107070498Y-58450000D01*
X108220000Y-57700000D02*
X108220000Y-57050000D01*
D41*
X94018000Y-70397501D02*
X93968499Y-70348000D01*
D39*
X97620000Y-78450000D02*
X97620000Y-77750000D01*
D38*
X99775000Y-75855000D02*
X99775000Y-74717500D01*
X119820000Y-59000000D02*
X120070000Y-59000000D01*
D39*
X108220000Y-57700000D02*
X107470000Y-58450000D01*
D41*
X93968499Y-70348000D02*
X92533800Y-70348000D01*
D38*
X128664000Y-54678000D02*
X126386000Y-52400000D01*
D39*
X98120000Y-77250000D02*
X98120000Y-76950000D01*
D40*
X124820000Y-52350000D02*
X126336000Y-52350000D01*
X102120000Y-80130000D02*
X100550000Y-80130000D01*
D41*
X94184000Y-63086000D02*
X96414000Y-63086000D01*
X93920000Y-63350000D02*
X94184000Y-63086000D01*
D38*
X129434000Y-54678000D02*
X128664000Y-54678000D01*
X122220000Y-55675000D02*
X121795000Y-55250000D01*
D41*
X100757500Y-75850000D02*
X100725000Y-75817500D01*
D42*
X100410000Y-76955000D02*
X100725000Y-76640000D01*
D39*
X96145000Y-60550000D02*
X97220000Y-60550000D01*
D42*
X100725000Y-76640000D02*
X100725000Y-75855000D01*
D41*
X103320000Y-75850000D02*
X103287500Y-75817500D01*
D39*
X92336198Y-64945601D02*
X92533800Y-64747999D01*
D41*
X103287500Y-75817500D02*
X100725000Y-75817500D01*
D39*
X92533800Y-69548001D02*
X92336198Y-69350399D01*
D42*
X98825000Y-76640000D02*
X99140000Y-76955000D01*
D39*
X96414000Y-72981000D02*
X96414000Y-70706000D01*
D38*
X154766000Y-56024000D02*
X154592000Y-55850000D01*
D42*
X95896000Y-70706000D02*
X96414000Y-70706000D01*
D41*
X94420000Y-64850000D02*
X94317999Y-64747999D01*
X103287500Y-75817500D02*
X102887500Y-75817500D01*
D42*
X99140000Y-76955000D02*
X100410000Y-76955000D01*
D39*
X96145000Y-73250000D02*
X96414000Y-72981000D01*
D42*
X96414000Y-70706000D02*
X98825000Y-73117000D01*
X98825000Y-73117000D02*
X98825000Y-76640000D01*
D41*
X94317999Y-64747999D02*
X92533800Y-64747999D01*
X92533800Y-69548001D02*
X95256001Y-69548001D01*
D38*
X154766000Y-56990000D02*
X154766000Y-56024000D01*
D41*
X157470000Y-62250000D02*
X151120000Y-62250000D01*
X95256001Y-69548001D02*
X96414000Y-70706000D01*
X151120000Y-62250000D02*
X137520000Y-75850000D01*
D39*
X95824248Y-65626000D02*
X95920000Y-65626000D01*
X95920000Y-65626000D02*
X96414000Y-65626000D01*
X105770000Y-61375000D02*
X105745000Y-61350000D01*
X101631326Y-61538675D02*
X101631326Y-61538674D01*
X93405300Y-66445600D02*
X93405300Y-66950000D01*
X93405300Y-66445600D02*
X94224900Y-65626000D01*
X95572124Y-65878125D02*
X95572124Y-65878124D01*
X93357699Y-66397999D02*
X93405300Y-66445600D01*
X94972124Y-65878124D02*
X94972124Y-65878125D01*
X109258340Y-61254000D02*
X109137340Y-61375000D01*
X93357700Y-67398000D02*
X92533800Y-67398000D01*
X102042652Y-61727349D02*
X101820000Y-61727349D01*
X100690000Y-61350000D02*
X96414000Y-65626000D01*
X109956500Y-61254000D02*
X109258340Y-61254000D01*
X94224900Y-65626000D02*
X94720000Y-65626000D01*
X101442652Y-61350000D02*
X101220000Y-61350000D01*
X109137340Y-61375000D02*
X105770000Y-61375000D01*
X101220000Y-61350000D02*
X100690000Y-61350000D01*
X95224248Y-66130249D02*
X95320000Y-66130249D01*
X102231326Y-61538674D02*
X102231326Y-61538675D01*
X92533800Y-66397999D02*
X93357699Y-66397999D01*
X104095000Y-61350000D02*
X102420000Y-61350000D01*
X93405300Y-66950000D02*
X93405300Y-67350400D01*
X95672124Y-65878125D02*
X95672124Y-65878124D01*
X95924248Y-65626000D02*
X96020000Y-65626000D01*
X93405300Y-67350400D02*
X93357700Y-67398000D01*
X101631400Y-61538674D02*
G75*
G03*
X101442652Y-61350000I-188700J-26D01*
G01*
X95824248Y-65626024D02*
G75*
G03*
X95572124Y-65878124I-48J-252076D01*
G01*
X95320000Y-66130224D02*
G75*
G03*
X95572124Y-65878125I0J252124D01*
G01*
X94972100Y-65878124D02*
G75*
G03*
X94720000Y-65626000I-252100J24D01*
G01*
X102042652Y-61727326D02*
G75*
G03*
X102231326Y-61538675I48J188626D01*
G01*
X102420000Y-61350026D02*
G75*
G03*
X102231326Y-61538674I0J-188674D01*
G01*
X101631351Y-61538675D02*
G75*
G03*
X101820000Y-61727349I188649J-25D01*
G01*
X94972051Y-65878125D02*
G75*
G03*
X95224248Y-66130249I252149J25D01*
G01*
X91709900Y-66898000D02*
X91588000Y-67019900D01*
X105745000Y-62850000D02*
X106820000Y-61775000D01*
X106820000Y-61775000D02*
X109303025Y-61775000D01*
X96414000Y-68166000D02*
X101730000Y-62850000D01*
X109303025Y-61775000D02*
X109424025Y-61654000D01*
X92533800Y-66898000D02*
X91709900Y-66898000D01*
X91588000Y-67776100D02*
X91709901Y-67898001D01*
X91588000Y-67019900D02*
X91588000Y-67776100D01*
X101730000Y-62850000D02*
X104095000Y-62850000D01*
X96146001Y-67898001D02*
X96414000Y-68166000D01*
X91709901Y-67898001D02*
X92533800Y-67898001D01*
X92533800Y-67898001D02*
X96146001Y-67898001D01*
X109424025Y-61654000D02*
X109956500Y-61654000D01*
X115594000Y-54536000D02*
X117280000Y-52850000D01*
X115594000Y-56816500D02*
X115594000Y-54536000D01*
X115994000Y-55076000D02*
X116220000Y-54850000D01*
X115994000Y-56816500D02*
X115994000Y-55076000D01*
X118568529Y-61253500D02*
X118071471Y-61253500D01*
X117529661Y-61254000D02*
X116831500Y-61254000D01*
X118071471Y-61253500D02*
X118067474Y-61249503D01*
D38*
X113369000Y-67398000D02*
X113494000Y-67523000D01*
X113369000Y-67398000D02*
X113369000Y-67213000D01*
D39*
X119007682Y-61061295D02*
X118760734Y-61061295D01*
D38*
X113369000Y-67213000D02*
X113940000Y-66642000D01*
D39*
X118067474Y-61249503D02*
X117534158Y-61249503D01*
X117534158Y-61249503D02*
X117529661Y-61254000D01*
X118760734Y-61061295D02*
X118568529Y-61253500D01*
D38*
X113494000Y-67523000D02*
X113494000Y-70198000D01*
D43*
X116831500Y-61654000D02*
X118209182Y-61654000D01*
X118209182Y-61654000D02*
X118408182Y-61853000D01*
D39*
X94495000Y-73250000D02*
X94495000Y-72075000D01*
X94495000Y-72075000D02*
X94520000Y-72050000D01*
X93568000Y-68398000D02*
X92533800Y-68398000D01*
X93820000Y-68650000D02*
X93568000Y-68398000D01*
X119820000Y-55675000D02*
X120245000Y-55250000D01*
X117416000Y-59654000D02*
X119820000Y-57250000D01*
X119820000Y-57100000D02*
X119820000Y-55675000D01*
X119820000Y-57250000D02*
X119820000Y-57100000D01*
X116831500Y-59654000D02*
X117416000Y-59654000D01*
D38*
X102950000Y-57870000D02*
X102950000Y-56250000D01*
X102950000Y-54730000D02*
X102950000Y-54320000D01*
X102950000Y-53120000D02*
X102950000Y-54730000D01*
X104450000Y-57270000D02*
X104250000Y-57270000D01*
D39*
X114394000Y-56816500D02*
X114394000Y-57348975D01*
X114394000Y-57348975D02*
X114092975Y-57650000D01*
X111320000Y-62954000D02*
X110970000Y-62954000D01*
X116831500Y-60854000D02*
X116831500Y-60454000D01*
X114092975Y-57650000D02*
X110794000Y-57650000D01*
X114837000Y-67150000D02*
X115085000Y-67398000D01*
D38*
X98825000Y-81545000D02*
X98820000Y-81550000D01*
D39*
X114394000Y-63159025D02*
X114188975Y-62954000D01*
X111320000Y-61358000D02*
X110816000Y-60854000D01*
X109956500Y-60054000D02*
X109956500Y-60854000D01*
D38*
X104450000Y-54730000D02*
X104250000Y-54730000D01*
D39*
X118123997Y-60849503D02*
X116835997Y-60849503D01*
D38*
X115210000Y-67523000D02*
X115085000Y-67398000D01*
D39*
X110794000Y-57650000D02*
X110794000Y-60832000D01*
X110811429Y-62049429D02*
X110816000Y-62054000D01*
X110794000Y-60832000D02*
X110816000Y-60854000D01*
X118320000Y-60653500D02*
X118123997Y-60849503D01*
X111320000Y-62954000D02*
X111320000Y-61358000D01*
X109956500Y-60854000D02*
X110816000Y-60854000D01*
X114188975Y-62954000D02*
X111320000Y-62954000D01*
X110766782Y-62054000D02*
X110771353Y-62049429D01*
X110794000Y-56816500D02*
X110794000Y-57650000D01*
X114394000Y-63691500D02*
X114394000Y-63159025D01*
X110794000Y-63130000D02*
X110794000Y-63691500D01*
X110970000Y-62954000D02*
X110794000Y-63130000D01*
X109956500Y-62054000D02*
X110766782Y-62054000D01*
X116835997Y-60849503D02*
X116831500Y-60854000D01*
X108232330Y-62454000D02*
X107707500Y-62978830D01*
X109956500Y-62454000D02*
X108232330Y-62454000D01*
X109920000Y-62890500D02*
X109956500Y-62854000D01*
X109920000Y-64550000D02*
X109920000Y-62890500D01*
X109720000Y-64750000D02*
X109920000Y-64550000D01*
X105445000Y-59850000D02*
X106720000Y-59850000D01*
D38*
X155858500Y-54441500D02*
X155367000Y-53950000D01*
X155367000Y-53950000D02*
X154592000Y-53950000D01*
D43*
X109956500Y-56556475D02*
X109020001Y-55619975D01*
X109020001Y-55619975D02*
X107580050Y-55619975D01*
D38*
X106020000Y-57050000D02*
X106720000Y-57050000D01*
D43*
X107580050Y-55619975D02*
X106720000Y-56480025D01*
X109956500Y-57654000D02*
X109956500Y-56556475D01*
X106720000Y-56480025D02*
X106720000Y-57119975D01*
X109244000Y-56338949D02*
X108875026Y-55969975D01*
X108875026Y-55969975D02*
X107725025Y-55969975D01*
X109244000Y-57838619D02*
X109244000Y-56338949D01*
X109956500Y-58054000D02*
X109459381Y-58054000D01*
X109459381Y-58054000D02*
X109244000Y-57838619D01*
X107220000Y-56475000D02*
X107220000Y-57119975D01*
X107725025Y-55969975D02*
X107220000Y-56475000D01*
X108894000Y-57983593D02*
X108894000Y-56693975D01*
X109364407Y-58454000D02*
X108894000Y-57983593D01*
X108894000Y-56693975D02*
X108520000Y-56319975D01*
X107720000Y-56469975D02*
X107720000Y-57119975D01*
X108520000Y-56319975D02*
X107870000Y-56319975D01*
X109956500Y-58454000D02*
X109364407Y-58454000D01*
X107870000Y-56319975D02*
X107720000Y-56469975D01*
X108220000Y-60050000D02*
X108220000Y-59650000D01*
X108220000Y-59650000D02*
X109016000Y-58854000D01*
X109016000Y-58854000D02*
X109956500Y-58854000D01*
X107770000Y-60650000D02*
X107720000Y-60600000D01*
X108720000Y-60550000D02*
X108620000Y-60650000D01*
X107720000Y-60600000D02*
X107720000Y-60050000D01*
X108720000Y-59644974D02*
X108720000Y-60550000D01*
X109956500Y-59254000D02*
X109110974Y-59254000D01*
X108620000Y-60650000D02*
X107770000Y-60650000D01*
X109110974Y-59254000D02*
X108720000Y-59644974D01*
X107625025Y-61000000D02*
X107220000Y-60594975D01*
X108764975Y-61000000D02*
X107625025Y-61000000D01*
X109459381Y-59654000D02*
X109220000Y-59893381D01*
X109220000Y-59893381D02*
X109220000Y-60544974D01*
X109956500Y-59654000D02*
X109459381Y-59654000D01*
X107220000Y-60594975D02*
X107220000Y-59850000D01*
X109220000Y-60544974D02*
X108764975Y-61000000D01*
D39*
X122220000Y-60525000D02*
X121895000Y-60850000D01*
X121166000Y-60054000D02*
X122220000Y-59000000D01*
X122220000Y-59000000D02*
X122220000Y-60525000D01*
X116831500Y-60054000D02*
X121166000Y-60054000D01*
X94495000Y-60550000D02*
X94495000Y-61625000D01*
X94495000Y-61625000D02*
X94520000Y-61650000D01*
X93471999Y-65398001D02*
X92533800Y-65398001D01*
D41*
X138820000Y-70850000D02*
X134420000Y-66450000D01*
D39*
X113194000Y-63691500D02*
X113194000Y-65076000D01*
D41*
X115245831Y-66450000D02*
X113871831Y-65076000D01*
X139820000Y-70850000D02*
X138820000Y-70850000D01*
X113871831Y-65076000D02*
X113194000Y-65076000D01*
X134420000Y-66450000D02*
X115245831Y-66450000D01*
D39*
X117120000Y-64450000D02*
X115720000Y-64450000D01*
X115594000Y-64324000D02*
X115594000Y-63691500D01*
X115720000Y-64450000D02*
X115594000Y-64324000D01*
X115413246Y-65556754D02*
X114794000Y-64937508D01*
X114794000Y-64937508D02*
X114794000Y-63691500D01*
X116320000Y-65049500D02*
X115753814Y-65049500D01*
X115753814Y-65049500D02*
X115194000Y-64489686D01*
X115194000Y-64489686D02*
X115194000Y-63691500D01*
X117461500Y-63691500D02*
X115994000Y-63691500D01*
D38*
X150520000Y-54900000D02*
X151892000Y-54900000D01*
D39*
X105304000Y-68928000D02*
X107621346Y-68928000D01*
X111994000Y-64555346D02*
X111994000Y-63691500D01*
X107621346Y-68928000D02*
X111994000Y-64555346D01*
X103914000Y-67778000D02*
X108205661Y-67778000D01*
X111594000Y-64389661D02*
X111594000Y-63691500D01*
X102764000Y-68928000D02*
X103914000Y-67778000D01*
X108205661Y-67778000D02*
X111594000Y-64389661D01*
X100224000Y-68928000D02*
X101774000Y-67378000D01*
X108039975Y-67378000D02*
X111194000Y-64223975D01*
X101774000Y-67378000D02*
X108039975Y-67378000D01*
X111194000Y-64223975D02*
X111194000Y-63691500D01*
X122217000Y-62453000D02*
X128442000Y-56228000D01*
X128442000Y-56228000D02*
X129434000Y-56228000D01*
X117762975Y-62453000D02*
X122217000Y-62453000D01*
X126420000Y-61546000D02*
X126386000Y-61580000D01*
X117363975Y-62054000D02*
X117762975Y-62453000D01*
X116831500Y-62054000D02*
X117363975Y-62054000D01*
D38*
X129434000Y-57728000D02*
X129434000Y-56228000D01*
D39*
X126420000Y-59750000D02*
X126420000Y-61546000D01*
D38*
X126386000Y-60776000D02*
X126386000Y-61580000D01*
X129434000Y-57728000D02*
X126386000Y-60776000D01*
G04 #@! TA.AperFunction,Conductor*
G36*
X114577697Y-57754067D02*
G01*
X114610245Y-57754042D01*
X114610524Y-57751722D01*
X114700274Y-57762500D01*
X114883959Y-57762500D01*
X114887726Y-57762500D01*
X114977476Y-57751722D01*
X114977785Y-57754297D01*
X115010215Y-57754297D01*
X115010524Y-57751722D01*
X115100274Y-57762500D01*
X115283959Y-57762500D01*
X115287726Y-57762500D01*
X115377476Y-57751722D01*
X115377785Y-57754297D01*
X115410215Y-57754297D01*
X115410524Y-57751722D01*
X115500274Y-57762500D01*
X115683959Y-57762500D01*
X115687726Y-57762500D01*
X115753247Y-57754631D01*
X115809445Y-57760651D01*
X115857362Y-57790636D01*
X115887348Y-57838552D01*
X115893368Y-57894755D01*
X115886324Y-57953415D01*
X115885500Y-57960274D01*
X115885500Y-58147726D01*
X115885948Y-58151462D01*
X115885949Y-58151467D01*
X115896278Y-58237476D01*
X115893719Y-58237783D01*
X115893724Y-58270217D01*
X115896278Y-58270524D01*
X115886166Y-58354731D01*
X115885500Y-58360274D01*
X115885500Y-58547726D01*
X115885948Y-58551462D01*
X115885949Y-58551467D01*
X115896278Y-58637476D01*
X115893722Y-58637783D01*
X115893722Y-58670217D01*
X115896278Y-58670524D01*
X115887373Y-58744679D01*
X115885500Y-58760274D01*
X115885500Y-58947726D01*
X115885948Y-58951462D01*
X115885949Y-58951467D01*
X115896278Y-59037476D01*
X115893719Y-59037783D01*
X115893724Y-59070217D01*
X115896278Y-59070524D01*
X115886793Y-59149510D01*
X115885500Y-59160274D01*
X115885500Y-59347726D01*
X115885948Y-59351462D01*
X115885949Y-59351467D01*
X115896278Y-59437476D01*
X115893722Y-59437783D01*
X115893722Y-59470217D01*
X115896278Y-59470524D01*
X115887134Y-59546671D01*
X115885500Y-59560274D01*
X115885500Y-59747726D01*
X115885948Y-59751462D01*
X115885949Y-59751467D01*
X115896278Y-59837476D01*
X115893719Y-59837783D01*
X115893724Y-59870217D01*
X115896278Y-59870523D01*
X115896278Y-59870524D01*
X115885500Y-59960274D01*
X115885500Y-60147726D01*
X115885948Y-60151462D01*
X115885949Y-60151467D01*
X115896278Y-60237476D01*
X115893993Y-60237750D01*
X115894018Y-60270312D01*
X115896769Y-60270643D01*
X115886449Y-60356576D01*
X115886000Y-60364083D01*
X115886000Y-60543914D01*
X115886450Y-60551425D01*
X115896769Y-60637357D01*
X115894244Y-60637660D01*
X115894247Y-60670340D01*
X115896769Y-60670643D01*
X115886449Y-60756576D01*
X115886000Y-60764083D01*
X115886000Y-60943914D01*
X115886450Y-60951425D01*
X115896769Y-61037357D01*
X115893971Y-61037692D01*
X115893976Y-61070247D01*
X115896277Y-61070524D01*
X115896278Y-61070524D01*
X115885500Y-61160274D01*
X115885500Y-61347726D01*
X115885948Y-61351462D01*
X115885949Y-61351467D01*
X115896278Y-61437476D01*
X115893722Y-61437783D01*
X115893722Y-61470217D01*
X115896278Y-61470524D01*
X115886387Y-61552890D01*
X115885500Y-61560274D01*
X115885500Y-61747726D01*
X115885948Y-61751462D01*
X115885949Y-61751467D01*
X115896278Y-61837476D01*
X115893722Y-61837783D01*
X115893722Y-61870217D01*
X115896278Y-61870524D01*
X115886973Y-61948012D01*
X115885500Y-61960274D01*
X115885500Y-62147726D01*
X115885948Y-62151462D01*
X115885949Y-62151467D01*
X115896278Y-62237476D01*
X115893719Y-62237783D01*
X115893724Y-62270217D01*
X115896278Y-62270524D01*
X115886015Y-62355989D01*
X115885500Y-62360274D01*
X115885500Y-62547726D01*
X115885948Y-62551462D01*
X115885949Y-62551467D01*
X115893368Y-62613244D01*
X115887348Y-62669447D01*
X115857362Y-62717362D01*
X115809447Y-62747348D01*
X115753244Y-62753368D01*
X115691467Y-62745949D01*
X115691462Y-62745948D01*
X115687726Y-62745500D01*
X115500274Y-62745500D01*
X115496538Y-62745948D01*
X115496532Y-62745949D01*
X115410524Y-62756278D01*
X115410217Y-62753724D01*
X115377783Y-62753719D01*
X115377476Y-62756278D01*
X115291467Y-62745949D01*
X115291462Y-62745948D01*
X115287726Y-62745500D01*
X115100274Y-62745500D01*
X115096538Y-62745948D01*
X115096532Y-62745949D01*
X115010524Y-62756278D01*
X115010217Y-62753724D01*
X114977783Y-62753719D01*
X114977476Y-62756278D01*
X114891467Y-62745949D01*
X114891462Y-62745948D01*
X114887726Y-62745500D01*
X114700274Y-62745500D01*
X114696538Y-62745948D01*
X114696532Y-62745949D01*
X114610524Y-62756278D01*
X114610249Y-62753992D01*
X114577688Y-62754009D01*
X114577357Y-62756769D01*
X114491423Y-62746449D01*
X114483916Y-62746000D01*
X114304085Y-62746000D01*
X114296574Y-62746450D01*
X114210643Y-62756769D01*
X114210308Y-62753980D01*
X114177752Y-62753976D01*
X114177476Y-62756278D01*
X114091467Y-62745949D01*
X114091462Y-62745948D01*
X114087726Y-62745500D01*
X113900274Y-62745500D01*
X113896538Y-62745948D01*
X113896532Y-62745949D01*
X113810524Y-62756278D01*
X113810217Y-62753724D01*
X113777783Y-62753719D01*
X113777476Y-62756278D01*
X113691467Y-62745949D01*
X113691462Y-62745948D01*
X113687726Y-62745500D01*
X113500274Y-62745500D01*
X113496538Y-62745948D01*
X113496532Y-62745949D01*
X113410524Y-62756278D01*
X113410217Y-62753724D01*
X113377783Y-62753719D01*
X113377476Y-62756278D01*
X113291467Y-62745949D01*
X113291462Y-62745948D01*
X113287726Y-62745500D01*
X113100274Y-62745500D01*
X113096538Y-62745948D01*
X113096532Y-62745949D01*
X113010524Y-62756278D01*
X113010217Y-62753724D01*
X112977783Y-62753719D01*
X112977476Y-62756278D01*
X112891467Y-62745949D01*
X112891462Y-62745948D01*
X112887726Y-62745500D01*
X112700274Y-62745500D01*
X112696538Y-62745948D01*
X112696532Y-62745949D01*
X112610524Y-62756278D01*
X112610217Y-62753724D01*
X112577783Y-62753719D01*
X112577476Y-62756278D01*
X112491467Y-62745949D01*
X112491462Y-62745948D01*
X112487726Y-62745500D01*
X112300274Y-62745500D01*
X112296538Y-62745948D01*
X112296532Y-62745949D01*
X112210524Y-62756278D01*
X112210217Y-62753724D01*
X112177783Y-62753719D01*
X112177476Y-62756278D01*
X112091467Y-62745949D01*
X112091462Y-62745948D01*
X112087726Y-62745500D01*
X111900274Y-62745500D01*
X111896538Y-62745948D01*
X111896532Y-62745949D01*
X111810524Y-62756278D01*
X111810217Y-62753724D01*
X111777783Y-62753719D01*
X111777476Y-62756278D01*
X111691467Y-62745949D01*
X111691462Y-62745948D01*
X111687726Y-62745500D01*
X111500274Y-62745500D01*
X111496538Y-62745948D01*
X111496532Y-62745949D01*
X111410524Y-62756278D01*
X111410217Y-62753724D01*
X111377783Y-62753719D01*
X111377476Y-62756278D01*
X111291467Y-62745949D01*
X111291462Y-62745948D01*
X111287726Y-62745500D01*
X111100274Y-62745500D01*
X111096538Y-62745948D01*
X111096532Y-62745949D01*
X111034755Y-62753368D01*
X110978552Y-62747348D01*
X110930636Y-62717362D01*
X110900651Y-62669445D01*
X110894631Y-62613247D01*
X110902500Y-62547726D01*
X110902500Y-62360274D01*
X110891722Y-62270524D01*
X110894026Y-62270247D01*
X110894029Y-62237693D01*
X110891231Y-62237357D01*
X110901550Y-62151423D01*
X110901999Y-62143916D01*
X110901999Y-61964085D01*
X110901549Y-61956574D01*
X110891231Y-61870643D01*
X110894058Y-61870303D01*
X110894042Y-61837754D01*
X110891722Y-61837476D01*
X110893604Y-61821803D01*
X110902500Y-61747726D01*
X110902500Y-61560274D01*
X110891722Y-61470524D01*
X110894297Y-61470215D01*
X110894297Y-61437785D01*
X110891722Y-61437476D01*
X110893172Y-61425403D01*
X110902500Y-61347726D01*
X110902500Y-61160274D01*
X110891722Y-61070524D01*
X110894026Y-61070247D01*
X110894029Y-61037693D01*
X110891231Y-61037357D01*
X110901550Y-60951423D01*
X110901999Y-60943916D01*
X110901999Y-60764085D01*
X110901549Y-60756574D01*
X110891231Y-60670643D01*
X110893769Y-60670338D01*
X110893772Y-60637662D01*
X110891231Y-60637357D01*
X110901550Y-60551423D01*
X110901999Y-60543916D01*
X110901999Y-60364085D01*
X110901549Y-60356574D01*
X110891231Y-60270643D01*
X110893769Y-60270338D01*
X110893772Y-60237662D01*
X110891231Y-60237357D01*
X110901550Y-60151423D01*
X110901999Y-60143916D01*
X110901999Y-59964085D01*
X110901549Y-59956574D01*
X110891231Y-59870643D01*
X110894058Y-59870303D01*
X110894042Y-59837754D01*
X110891722Y-59837476D01*
X110894869Y-59811269D01*
X110902500Y-59747726D01*
X110902500Y-59560274D01*
X110891722Y-59470524D01*
X110894294Y-59470215D01*
X110894298Y-59437785D01*
X110891722Y-59437476D01*
X110901357Y-59357240D01*
X110902500Y-59347726D01*
X110902500Y-59160274D01*
X110891722Y-59070524D01*
X110894294Y-59070215D01*
X110894296Y-59050000D01*
X111206496Y-59050000D01*
X111226458Y-59239928D01*
X111228495Y-59246200D01*
X111228497Y-59246205D01*
X111279333Y-59402659D01*
X111285500Y-59441595D01*
X111285500Y-61902638D01*
X111285859Y-61905985D01*
X111285860Y-61905988D01*
X111291168Y-61955367D01*
X111291169Y-61955373D01*
X111292011Y-61963201D01*
X111294762Y-61970578D01*
X111294763Y-61970580D01*
X111339962Y-62091763D01*
X111339964Y-62091766D01*
X111343111Y-62100204D01*
X111348508Y-62107414D01*
X111348510Y-62107417D01*
X111398873Y-62174693D01*
X111430739Y-62217261D01*
X111437950Y-62222659D01*
X111540197Y-62299201D01*
X111547796Y-62304889D01*
X111684799Y-62355989D01*
X111745362Y-62362500D01*
X115039269Y-62362500D01*
X115042638Y-62362500D01*
X115103201Y-62355989D01*
X115240204Y-62304889D01*
X115357261Y-62217261D01*
X115444889Y-62100204D01*
X115495989Y-61963201D01*
X115502500Y-61902638D01*
X115502500Y-61693868D01*
X115508667Y-61654933D01*
X115510269Y-61650000D01*
X115513542Y-61639928D01*
X115533504Y-61450000D01*
X115513542Y-61260072D01*
X115508667Y-61245067D01*
X115502500Y-61206132D01*
X115502500Y-59293868D01*
X115508667Y-59254933D01*
X115510269Y-59250000D01*
X115513542Y-59239928D01*
X115533504Y-59050000D01*
X115513542Y-58860072D01*
X115508667Y-58845067D01*
X115502500Y-58806132D01*
X115502500Y-58608731D01*
X115502500Y-58605362D01*
X115495989Y-58544799D01*
X115444889Y-58407796D01*
X115426522Y-58383261D01*
X115362659Y-58297950D01*
X115357261Y-58290739D01*
X115347483Y-58283419D01*
X115247417Y-58208510D01*
X115247414Y-58208508D01*
X115240204Y-58203111D01*
X115231766Y-58199964D01*
X115231763Y-58199962D01*
X115110580Y-58154763D01*
X115110578Y-58154762D01*
X115103201Y-58152011D01*
X115095373Y-58151169D01*
X115095367Y-58151168D01*
X115045988Y-58145860D01*
X115045985Y-58145859D01*
X115042638Y-58145500D01*
X115039269Y-58145500D01*
X114747547Y-58145500D01*
X114728518Y-58143500D01*
X114728512Y-58143564D01*
X114721953Y-58142874D01*
X114715487Y-58141500D01*
X114524513Y-58141500D01*
X114518046Y-58142874D01*
X114511488Y-58143564D01*
X114511481Y-58143500D01*
X114492453Y-58145500D01*
X112247547Y-58145500D01*
X112228518Y-58143500D01*
X112228512Y-58143564D01*
X112221953Y-58142874D01*
X112215487Y-58141500D01*
X112024513Y-58141500D01*
X112018046Y-58142874D01*
X112011488Y-58143564D01*
X112011481Y-58143500D01*
X111992453Y-58145500D01*
X111745362Y-58145500D01*
X111742015Y-58145859D01*
X111742011Y-58145860D01*
X111692632Y-58151168D01*
X111692625Y-58151169D01*
X111684799Y-58152011D01*
X111677423Y-58154761D01*
X111677419Y-58154763D01*
X111556236Y-58199962D01*
X111556230Y-58199965D01*
X111547796Y-58203111D01*
X111540588Y-58208506D01*
X111540582Y-58208510D01*
X111437950Y-58285340D01*
X111437946Y-58285343D01*
X111430739Y-58290739D01*
X111425343Y-58297946D01*
X111425340Y-58297950D01*
X111348510Y-58400582D01*
X111348506Y-58400588D01*
X111343111Y-58407796D01*
X111339965Y-58416230D01*
X111339962Y-58416236D01*
X111294763Y-58537419D01*
X111294761Y-58537423D01*
X111292011Y-58544799D01*
X111291169Y-58552625D01*
X111291168Y-58552632D01*
X111287585Y-58585965D01*
X111285500Y-58605362D01*
X111285500Y-58608731D01*
X111285500Y-58658405D01*
X111279333Y-58697341D01*
X111228497Y-58853794D01*
X111228495Y-58853801D01*
X111226458Y-58860072D01*
X111225768Y-58866633D01*
X111225768Y-58866635D01*
X111219230Y-58928845D01*
X111206496Y-59050000D01*
X110894296Y-59050000D01*
X110894298Y-59037785D01*
X110891722Y-59037476D01*
X110891722Y-59037475D01*
X110902500Y-58947726D01*
X110902500Y-58760274D01*
X110891722Y-58670524D01*
X110891722Y-58670523D01*
X110894297Y-58670215D01*
X110894297Y-58637785D01*
X110891722Y-58637476D01*
X110895174Y-58608731D01*
X110902500Y-58547726D01*
X110902500Y-58360274D01*
X110891722Y-58270524D01*
X110894294Y-58270215D01*
X110894298Y-58237785D01*
X110891722Y-58237476D01*
X110894585Y-58213635D01*
X110902500Y-58147726D01*
X110902500Y-57960274D01*
X110894631Y-57894752D01*
X110900651Y-57838553D01*
X110930637Y-57790637D01*
X110978553Y-57760651D01*
X111034752Y-57754631D01*
X111100274Y-57762500D01*
X111283959Y-57762500D01*
X111287726Y-57762500D01*
X111377476Y-57751722D01*
X111377785Y-57754297D01*
X111410215Y-57754297D01*
X111410524Y-57751722D01*
X111500274Y-57762500D01*
X111683959Y-57762500D01*
X111687726Y-57762500D01*
X111777476Y-57751722D01*
X111777785Y-57754297D01*
X111810215Y-57754297D01*
X111810524Y-57751722D01*
X111900274Y-57762500D01*
X112083959Y-57762500D01*
X112087726Y-57762500D01*
X112177476Y-57751722D01*
X112177785Y-57754297D01*
X112210215Y-57754297D01*
X112210524Y-57751722D01*
X112300274Y-57762500D01*
X112483959Y-57762500D01*
X112487726Y-57762500D01*
X112577476Y-57751722D01*
X112577785Y-57754297D01*
X112610215Y-57754297D01*
X112610524Y-57751722D01*
X112700274Y-57762500D01*
X112883959Y-57762500D01*
X112887726Y-57762500D01*
X112977476Y-57751722D01*
X112977785Y-57754297D01*
X113010215Y-57754297D01*
X113010524Y-57751722D01*
X113100274Y-57762500D01*
X113283959Y-57762500D01*
X113287726Y-57762500D01*
X113377476Y-57751722D01*
X113377785Y-57754297D01*
X113410215Y-57754297D01*
X113410524Y-57751722D01*
X113500274Y-57762500D01*
X113683959Y-57762500D01*
X113687726Y-57762500D01*
X113777476Y-57751722D01*
X113777785Y-57754297D01*
X113810215Y-57754297D01*
X113810524Y-57751722D01*
X113900274Y-57762500D01*
X114083959Y-57762500D01*
X114087726Y-57762500D01*
X114177476Y-57751722D01*
X114177752Y-57754025D01*
X114210308Y-57754020D01*
X114210643Y-57751231D01*
X114296576Y-57761550D01*
X114304083Y-57761999D01*
X114483914Y-57761999D01*
X114491425Y-57761549D01*
X114577357Y-57751231D01*
X114577697Y-57754067D01*
G37*
G04 #@! TD.AperFunction*
G04 #@! TA.AperFunction,Conductor*
G36*
X164857000Y-49916881D02*
G01*
X164903119Y-49963000D01*
X164920000Y-50026000D01*
X164920000Y-69702359D01*
X164903935Y-69763925D01*
X164859835Y-69809792D01*
X164798947Y-69828262D01*
X164736797Y-69814626D01*
X164689235Y-69772361D01*
X164668388Y-69712245D01*
X164664923Y-69668222D01*
X164664535Y-69663289D01*
X164609105Y-69432406D01*
X164518240Y-69213037D01*
X164394176Y-69010584D01*
X164384200Y-68998904D01*
X164243176Y-68833786D01*
X164239969Y-68830031D01*
X164174733Y-68774314D01*
X164063175Y-68679034D01*
X164063171Y-68679031D01*
X164059416Y-68675824D01*
X163856963Y-68551760D01*
X163776794Y-68518553D01*
X163642167Y-68462789D01*
X163642164Y-68462788D01*
X163637594Y-68460895D01*
X163632786Y-68459740D01*
X163632781Y-68459739D01*
X163411523Y-68406620D01*
X163411519Y-68406619D01*
X163406711Y-68405465D01*
X163401785Y-68405077D01*
X163401777Y-68405076D01*
X163174930Y-68387223D01*
X163170000Y-68386835D01*
X163165070Y-68387223D01*
X162938222Y-68405076D01*
X162938212Y-68405077D01*
X162933289Y-68405465D01*
X162928482Y-68406619D01*
X162928476Y-68406620D01*
X162707218Y-68459739D01*
X162707209Y-68459741D01*
X162702406Y-68460895D01*
X162697838Y-68462786D01*
X162697832Y-68462789D01*
X162487611Y-68549865D01*
X162487606Y-68549867D01*
X162483037Y-68551760D01*
X162478817Y-68554345D01*
X162478817Y-68554346D01*
X162284798Y-68673241D01*
X162284792Y-68673245D01*
X162280584Y-68675824D01*
X162276834Y-68679026D01*
X162276824Y-68679034D01*
X162103786Y-68826823D01*
X162103779Y-68826829D01*
X162100031Y-68830031D01*
X162096829Y-68833779D01*
X162096823Y-68833786D01*
X161949034Y-69006824D01*
X161949026Y-69006834D01*
X161945824Y-69010584D01*
X161943245Y-69014792D01*
X161943241Y-69014798D01*
X161830962Y-69198021D01*
X161821760Y-69213037D01*
X161819867Y-69217606D01*
X161819865Y-69217611D01*
X161732789Y-69427832D01*
X161732786Y-69427838D01*
X161730895Y-69432406D01*
X161729741Y-69437209D01*
X161729739Y-69437218D01*
X161676620Y-69658476D01*
X161675465Y-69663289D01*
X161675077Y-69668212D01*
X161675076Y-69668222D01*
X161660463Y-69853904D01*
X161656835Y-69900000D01*
X161657223Y-69904930D01*
X161675076Y-70131777D01*
X161675077Y-70131785D01*
X161675465Y-70136711D01*
X161676619Y-70141519D01*
X161676620Y-70141523D01*
X161729739Y-70362781D01*
X161729740Y-70362786D01*
X161730895Y-70367594D01*
X161732788Y-70372164D01*
X161732789Y-70372167D01*
X161789283Y-70508557D01*
X161821760Y-70586963D01*
X161945824Y-70789416D01*
X161949031Y-70793171D01*
X161949034Y-70793175D01*
X162073877Y-70939347D01*
X162100031Y-70969969D01*
X162103786Y-70973176D01*
X162252263Y-71099988D01*
X162280584Y-71124176D01*
X162483037Y-71248240D01*
X162702406Y-71339105D01*
X162933289Y-71394535D01*
X163170000Y-71413165D01*
X163406711Y-71394535D01*
X163637594Y-71339105D01*
X163856963Y-71248240D01*
X164059416Y-71124176D01*
X164239969Y-70969969D01*
X164394176Y-70789416D01*
X164518240Y-70586963D01*
X164609105Y-70367594D01*
X164664535Y-70136711D01*
X164668388Y-70087754D01*
X164689235Y-70027639D01*
X164736797Y-69985374D01*
X164798947Y-69971738D01*
X164859835Y-69990208D01*
X164903935Y-70036075D01*
X164920000Y-70097641D01*
X164920000Y-74202359D01*
X164903935Y-74263925D01*
X164859835Y-74309792D01*
X164798947Y-74328262D01*
X164736797Y-74314626D01*
X164689235Y-74272361D01*
X164668388Y-74212245D01*
X164666311Y-74185861D01*
X164664535Y-74163289D01*
X164609105Y-73932406D01*
X164518240Y-73713037D01*
X164394176Y-73510584D01*
X164371756Y-73484334D01*
X164243176Y-73333786D01*
X164239969Y-73330031D01*
X164236213Y-73326823D01*
X164063175Y-73179034D01*
X164063171Y-73179031D01*
X164059416Y-73175824D01*
X163856963Y-73051760D01*
X163683457Y-72979892D01*
X163642167Y-72962789D01*
X163642164Y-72962788D01*
X163637594Y-72960895D01*
X163632786Y-72959740D01*
X163632781Y-72959739D01*
X163411523Y-72906620D01*
X163411519Y-72906619D01*
X163406711Y-72905465D01*
X163401785Y-72905077D01*
X163401777Y-72905076D01*
X163174930Y-72887223D01*
X163170000Y-72886835D01*
X163165070Y-72887223D01*
X162938222Y-72905076D01*
X162938212Y-72905077D01*
X162933289Y-72905465D01*
X162928482Y-72906619D01*
X162928476Y-72906620D01*
X162707218Y-72959739D01*
X162707209Y-72959741D01*
X162702406Y-72960895D01*
X162697838Y-72962786D01*
X162697832Y-72962789D01*
X162487611Y-73049865D01*
X162487606Y-73049867D01*
X162483037Y-73051760D01*
X162478817Y-73054345D01*
X162478817Y-73054346D01*
X162284798Y-73173241D01*
X162284792Y-73173245D01*
X162280584Y-73175824D01*
X162276834Y-73179026D01*
X162276824Y-73179034D01*
X162103786Y-73326823D01*
X162103779Y-73326829D01*
X162100031Y-73330031D01*
X162096829Y-73333779D01*
X162096823Y-73333786D01*
X161949034Y-73506824D01*
X161949026Y-73506834D01*
X161945824Y-73510584D01*
X161943245Y-73514792D01*
X161943241Y-73514798D01*
X161862221Y-73647011D01*
X161821760Y-73713037D01*
X161819867Y-73717606D01*
X161819865Y-73717611D01*
X161732789Y-73927832D01*
X161732786Y-73927838D01*
X161730895Y-73932406D01*
X161729741Y-73937209D01*
X161729739Y-73937218D01*
X161676620Y-74158476D01*
X161675465Y-74163289D01*
X161675077Y-74168212D01*
X161675076Y-74168222D01*
X161657529Y-74391184D01*
X161656835Y-74400000D01*
X161657223Y-74404930D01*
X161675076Y-74631777D01*
X161675077Y-74631785D01*
X161675465Y-74636711D01*
X161676619Y-74641519D01*
X161676620Y-74641523D01*
X161729739Y-74862781D01*
X161729740Y-74862786D01*
X161730895Y-74867594D01*
X161732788Y-74872164D01*
X161732789Y-74872167D01*
X161769188Y-74960042D01*
X161821760Y-75086963D01*
X161945824Y-75289416D01*
X161949031Y-75293171D01*
X161949034Y-75293175D01*
X161986433Y-75336963D01*
X162100031Y-75469969D01*
X162103786Y-75473176D01*
X162225571Y-75577191D01*
X162280584Y-75624176D01*
X162483037Y-75748240D01*
X162702406Y-75839105D01*
X162933289Y-75894535D01*
X163170000Y-75913165D01*
X163406711Y-75894535D01*
X163637594Y-75839105D01*
X163856963Y-75748240D01*
X164059416Y-75624176D01*
X164239969Y-75469969D01*
X164394176Y-75289416D01*
X164518240Y-75086963D01*
X164609105Y-74867594D01*
X164664535Y-74636711D01*
X164668388Y-74587754D01*
X164689235Y-74527639D01*
X164736797Y-74485374D01*
X164798947Y-74471738D01*
X164859835Y-74490208D01*
X164903935Y-74536075D01*
X164920000Y-74597641D01*
X164920000Y-84274000D01*
X164903119Y-84337000D01*
X164857000Y-84383119D01*
X164794000Y-84400000D01*
X85550000Y-84400000D01*
X85487000Y-84383119D01*
X85440881Y-84337000D01*
X85424000Y-84274000D01*
X85424000Y-80717765D01*
X87315788Y-80717765D01*
X87316290Y-80722332D01*
X87316291Y-80722344D01*
X87344910Y-80982444D01*
X87344911Y-80982453D01*
X87345414Y-80987018D01*
X87346576Y-80991463D01*
X87346577Y-80991468D01*
X87378812Y-81114768D01*
X87413928Y-81249088D01*
X87415725Y-81253318D01*
X87415728Y-81253325D01*
X87465866Y-81371308D01*
X87519870Y-81498390D01*
X87660982Y-81729610D01*
X87834255Y-81937820D01*
X87929177Y-82022870D01*
X88032561Y-82115503D01*
X88032565Y-82115506D01*
X88035998Y-82118582D01*
X88261910Y-82268044D01*
X88507176Y-82383020D01*
X88766569Y-82461060D01*
X89034561Y-82500500D01*
X89235330Y-82500500D01*
X89237631Y-82500500D01*
X89440156Y-82485677D01*
X89704553Y-82426780D01*
X89957558Y-82330014D01*
X90193777Y-82197441D01*
X90408177Y-82031888D01*
X90596186Y-81836881D01*
X90753799Y-81616579D01*
X90877656Y-81375675D01*
X90965118Y-81119305D01*
X91014319Y-80852933D01*
X91024212Y-80582235D01*
X91006982Y-80425639D01*
X98042000Y-80425639D01*
X98042325Y-80432028D01*
X98051557Y-80522398D01*
X98054418Y-80535762D01*
X98103845Y-80684920D01*
X98110005Y-80698132D01*
X98192255Y-80831480D01*
X98201302Y-80842921D01*
X98312078Y-80953697D01*
X98323519Y-80962744D01*
X98456867Y-81044994D01*
X98470079Y-81051154D01*
X98619237Y-81100581D01*
X98632601Y-81103442D01*
X98722971Y-81112674D01*
X98729361Y-81113000D01*
X98729410Y-81113000D01*
X98742493Y-81109493D01*
X98746000Y-81096410D01*
X98746000Y-80400590D01*
X98742493Y-80387506D01*
X98729410Y-80384000D01*
X98058590Y-80384000D01*
X98045506Y-80387506D01*
X98042000Y-80400590D01*
X98042000Y-80425639D01*
X91006982Y-80425639D01*
X90994586Y-80312982D01*
X90926072Y-80050912D01*
X90820130Y-79801610D01*
X90679018Y-79570390D01*
X90505745Y-79362180D01*
X90420856Y-79286119D01*
X90307438Y-79184496D01*
X90307432Y-79184491D01*
X90304002Y-79181418D01*
X90137890Y-79071519D01*
X90081925Y-79034493D01*
X90081922Y-79034491D01*
X90078090Y-79031956D01*
X89832824Y-78916980D01*
X89828420Y-78915655D01*
X89577843Y-78840267D01*
X89577838Y-78840265D01*
X89573431Y-78838940D01*
X89568874Y-78838269D01*
X89568868Y-78838268D01*
X89310000Y-78800171D01*
X89309996Y-78800170D01*
X89305439Y-78799500D01*
X89102369Y-78799500D01*
X89100098Y-78799666D01*
X89100076Y-78799667D01*
X88904438Y-78813986D01*
X88904427Y-78813987D01*
X88899844Y-78814323D01*
X88895353Y-78815323D01*
X88895349Y-78815324D01*
X88639939Y-78872219D01*
X88639934Y-78872220D01*
X88635447Y-78873220D01*
X88631149Y-78874863D01*
X88631145Y-78874865D01*
X88386746Y-78968339D01*
X88386735Y-78968343D01*
X88382442Y-78969986D01*
X88378434Y-78972235D01*
X88378422Y-78972241D01*
X88150232Y-79100308D01*
X88150221Y-79100314D01*
X88146223Y-79102559D01*
X88142589Y-79105364D01*
X88142586Y-79105367D01*
X87935466Y-79265298D01*
X87935458Y-79265305D01*
X87931823Y-79268112D01*
X87928632Y-79271421D01*
X87928625Y-79271428D01*
X87747011Y-79459802D01*
X87747004Y-79459809D01*
X87743814Y-79463119D01*
X87741136Y-79466861D01*
X87741131Y-79466868D01*
X87588885Y-79679668D01*
X87588878Y-79679677D01*
X87586201Y-79683421D01*
X87584097Y-79687512D01*
X87584091Y-79687523D01*
X87464453Y-79920222D01*
X87462344Y-79924325D01*
X87460856Y-79928684D01*
X87460854Y-79928691D01*
X87376371Y-80176327D01*
X87376367Y-80176341D01*
X87374882Y-80180695D01*
X87374044Y-80185228D01*
X87374044Y-80185231D01*
X87326517Y-80442537D01*
X87326515Y-80442546D01*
X87325681Y-80447067D01*
X87325513Y-80451656D01*
X87325512Y-80451668D01*
X87315956Y-80713161D01*
X87315788Y-80717765D01*
X85424000Y-80717765D01*
X85424000Y-71470000D01*
X86305620Y-71470000D01*
X86306227Y-71476163D01*
X86324484Y-71661538D01*
X86324485Y-71661547D01*
X86325092Y-71667701D01*
X86326887Y-71673619D01*
X86326888Y-71673623D01*
X86370957Y-71818897D01*
X86382759Y-71857804D01*
X86385678Y-71863265D01*
X86464727Y-72011157D01*
X86476405Y-72033004D01*
X86480330Y-72037787D01*
X86480331Y-72037788D01*
X86518484Y-72084278D01*
X86602432Y-72186568D01*
X86755996Y-72312595D01*
X86931196Y-72406241D01*
X87121299Y-72463908D01*
X87127460Y-72464514D01*
X87127461Y-72464515D01*
X87147427Y-72466481D01*
X87269453Y-72478500D01*
X88165455Y-72478500D01*
X88168547Y-72478500D01*
X88316701Y-72463908D01*
X88506804Y-72406241D01*
X88682004Y-72312595D01*
X88835568Y-72186568D01*
X88961595Y-72033004D01*
X89055241Y-71857804D01*
X89112908Y-71667701D01*
X89132380Y-71470000D01*
X90355620Y-71470000D01*
X90356227Y-71476163D01*
X90374484Y-71661538D01*
X90374485Y-71661547D01*
X90375092Y-71667701D01*
X90376887Y-71673619D01*
X90376888Y-71673623D01*
X90420957Y-71818897D01*
X90432759Y-71857804D01*
X90435678Y-71863265D01*
X90514727Y-72011157D01*
X90526405Y-72033004D01*
X90530330Y-72037787D01*
X90530331Y-72037788D01*
X90568484Y-72084278D01*
X90652432Y-72186568D01*
X90805996Y-72312595D01*
X90981196Y-72406241D01*
X91171299Y-72463908D01*
X91177460Y-72464514D01*
X91177461Y-72464515D01*
X91197427Y-72466481D01*
X91319453Y-72478500D01*
X92515455Y-72478500D01*
X92518547Y-72478500D01*
X92666701Y-72463908D01*
X92856804Y-72406241D01*
X93032004Y-72312595D01*
X93185568Y-72186568D01*
X93311595Y-72033004D01*
X93405241Y-71857804D01*
X93462908Y-71667701D01*
X93482380Y-71470000D01*
X93471008Y-71354542D01*
X93481547Y-71290381D01*
X93522674Y-71240016D01*
X93583436Y-71216863D01*
X93647648Y-71227086D01*
X93735712Y-71266295D01*
X93858891Y-71292477D01*
X93918221Y-71323199D01*
X93953504Y-71379937D01*
X93954816Y-71446738D01*
X93921790Y-71504817D01*
X93883889Y-71542719D01*
X93880126Y-71548707D01*
X93880121Y-71548714D01*
X93790721Y-71690993D01*
X93790717Y-71691000D01*
X93786957Y-71696985D01*
X93784622Y-71703656D01*
X93784619Y-71703664D01*
X93729119Y-71862275D01*
X93729117Y-71862280D01*
X93726783Y-71868953D01*
X93706384Y-72050000D01*
X93726783Y-72231047D01*
X93759369Y-72324173D01*
X93781042Y-72386110D01*
X93784953Y-72455761D01*
X93751210Y-72516818D01*
X93738575Y-72529452D01*
X93738567Y-72529460D01*
X93733184Y-72534845D01*
X93729243Y-72541362D01*
X93729239Y-72541369D01*
X93648116Y-72675563D01*
X93648113Y-72675568D01*
X93644173Y-72682087D01*
X93641906Y-72689360D01*
X93641905Y-72689364D01*
X93594970Y-72839986D01*
X93592987Y-72846351D01*
X93592384Y-72852981D01*
X93592383Y-72852989D01*
X93586758Y-72914885D01*
X93586757Y-72914906D01*
X93586500Y-72917735D01*
X93586500Y-72920595D01*
X93586500Y-72920596D01*
X93586500Y-73579400D01*
X93586500Y-73579421D01*
X93586501Y-73582264D01*
X93586759Y-73585113D01*
X93586760Y-73585116D01*
X93592383Y-73647011D01*
X93592384Y-73647019D01*
X93592987Y-73653649D01*
X93594968Y-73660008D01*
X93594969Y-73660010D01*
X93625137Y-73756824D01*
X93644173Y-73817913D01*
X93648115Y-73824434D01*
X93648116Y-73824436D01*
X93716295Y-73937218D01*
X93733184Y-73965155D01*
X93854845Y-74086816D01*
X94002087Y-74175827D01*
X94166351Y-74227013D01*
X94237735Y-74233500D01*
X94752264Y-74233499D01*
X94823649Y-74227013D01*
X94987913Y-74175827D01*
X95135155Y-74086816D01*
X95230905Y-73991065D01*
X95287389Y-73958454D01*
X95352611Y-73958454D01*
X95409095Y-73991066D01*
X95504845Y-74086816D01*
X95652087Y-74175827D01*
X95816351Y-74227013D01*
X95887735Y-74233500D01*
X96402264Y-74233499D01*
X96473649Y-74227013D01*
X96637913Y-74175827D01*
X96785155Y-74086816D01*
X96906816Y-73965155D01*
X96995827Y-73817913D01*
X97047013Y-73653649D01*
X97053500Y-73582265D01*
X97053499Y-72917736D01*
X97047013Y-72846351D01*
X97028205Y-72785993D01*
X97022500Y-72748508D01*
X97022500Y-72620660D01*
X97036233Y-72563457D01*
X97074439Y-72518724D01*
X97128789Y-72496211D01*
X97187436Y-72500827D01*
X97237595Y-72531565D01*
X98012663Y-73306633D01*
X98042279Y-73353495D01*
X98048916Y-73408533D01*
X98041825Y-73477941D01*
X98041825Y-73477943D01*
X98041500Y-73481128D01*
X98041500Y-74078872D01*
X98041824Y-74082050D01*
X98041825Y-74082056D01*
X98051065Y-74172497D01*
X98051764Y-74179336D01*
X98053925Y-74185859D01*
X98053926Y-74185861D01*
X98100528Y-74326501D01*
X98105458Y-74341376D01*
X98105698Y-74342101D01*
X98105624Y-74342125D01*
X98116500Y-74391184D01*
X98116500Y-74921294D01*
X98098954Y-74985430D01*
X98065855Y-75041399D01*
X98063644Y-75049007D01*
X98063643Y-75049011D01*
X98021232Y-75194992D01*
X98021231Y-75194997D01*
X98019438Y-75201169D01*
X98016500Y-75238498D01*
X98016500Y-75240968D01*
X98016500Y-76040247D01*
X98005987Y-76090633D01*
X97976202Y-76132612D01*
X97932116Y-76159175D01*
X97894439Y-76172359D01*
X97773664Y-76214619D01*
X97773656Y-76214622D01*
X97766985Y-76216957D01*
X97761000Y-76220717D01*
X97760993Y-76220721D01*
X97618714Y-76310121D01*
X97618707Y-76310126D01*
X97612719Y-76313889D01*
X97607714Y-76318893D01*
X97607710Y-76318897D01*
X97488897Y-76437710D01*
X97488893Y-76437714D01*
X97483889Y-76442719D01*
X97480126Y-76448707D01*
X97480121Y-76448714D01*
X97390721Y-76590993D01*
X97390717Y-76591000D01*
X97386957Y-76596985D01*
X97384622Y-76603656D01*
X97384619Y-76603664D01*
X97329119Y-76762275D01*
X97329117Y-76762280D01*
X97326783Y-76768953D01*
X97306384Y-76950000D01*
X97307176Y-76957029D01*
X97325216Y-77117144D01*
X97318937Y-77172866D01*
X97289103Y-77220346D01*
X97223767Y-77285682D01*
X97211380Y-77296546D01*
X97192562Y-77310986D01*
X97192555Y-77310992D01*
X97186013Y-77316013D01*
X97180992Y-77322555D01*
X97180989Y-77322559D01*
X97161576Y-77347858D01*
X97161525Y-77347925D01*
X97161523Y-77347928D01*
X97088476Y-77443124D01*
X97085318Y-77450747D01*
X97085315Y-77450753D01*
X97037672Y-77565775D01*
X97030321Y-77583521D01*
X97030319Y-77583526D01*
X97027162Y-77591150D01*
X97026084Y-77599333D01*
X97026084Y-77599336D01*
X97014940Y-77683987D01*
X97011500Y-77710115D01*
X97011500Y-77710120D01*
X97006250Y-77750000D01*
X97007328Y-77758188D01*
X97010422Y-77781690D01*
X97011500Y-77798136D01*
X97011500Y-77865278D01*
X97004429Y-77906894D01*
X96985541Y-77941066D01*
X96983889Y-77942719D01*
X96980129Y-77948702D01*
X96980125Y-77948708D01*
X96890721Y-78090993D01*
X96890717Y-78091000D01*
X96886957Y-78096985D01*
X96884622Y-78103656D01*
X96884619Y-78103664D01*
X96829119Y-78262275D01*
X96829117Y-78262280D01*
X96826783Y-78268953D01*
X96825991Y-78275979D01*
X96825991Y-78275981D01*
X96816176Y-78363090D01*
X96806384Y-78450000D01*
X96826783Y-78631047D01*
X96829118Y-78637720D01*
X96829119Y-78637724D01*
X96884619Y-78796335D01*
X96884621Y-78796339D01*
X96886957Y-78803015D01*
X96890719Y-78809003D01*
X96890721Y-78809006D01*
X96959793Y-78918934D01*
X96983889Y-78957281D01*
X97112719Y-79086111D01*
X97118713Y-79089877D01*
X97118714Y-79089878D01*
X97178686Y-79127561D01*
X97266985Y-79183043D01*
X97438953Y-79243217D01*
X97620000Y-79263616D01*
X97801047Y-79243217D01*
X97973015Y-79183043D01*
X98102556Y-79101646D01*
X98155483Y-79083126D01*
X98211206Y-79089405D01*
X98258686Y-79119239D01*
X98262894Y-79123447D01*
X98280644Y-79137216D01*
X98321967Y-79194094D01*
X98326381Y-79264260D01*
X98292512Y-79325869D01*
X98201298Y-79417083D01*
X98192255Y-79428519D01*
X98110005Y-79561867D01*
X98103845Y-79575079D01*
X98054418Y-79724237D01*
X98051557Y-79737601D01*
X98042325Y-79827971D01*
X98042000Y-79834362D01*
X98042000Y-79859410D01*
X98045506Y-79872493D01*
X98058590Y-79876000D01*
X98729410Y-79876000D01*
X98742493Y-79872493D01*
X98746000Y-79859410D01*
X98746000Y-79319590D01*
X98742493Y-79306506D01*
X98729410Y-79303000D01*
X98697000Y-79303000D01*
X98634000Y-79286119D01*
X98587881Y-79240000D01*
X98571000Y-79177000D01*
X98571000Y-77964500D01*
X98587881Y-77901500D01*
X98634000Y-77855381D01*
X98697000Y-77838500D01*
X99616409Y-77838500D01*
X99629492Y-77834993D01*
X99632999Y-77821910D01*
X99632999Y-77789500D01*
X99649880Y-77726500D01*
X99695999Y-77680381D01*
X99758999Y-77663500D01*
X99790500Y-77663500D01*
X99853500Y-77680381D01*
X99899619Y-77726500D01*
X99916500Y-77789500D01*
X99916500Y-78671502D01*
X99916692Y-78673950D01*
X99916693Y-78673958D01*
X99918926Y-78702333D01*
X99919438Y-78708831D01*
X99921231Y-78715004D01*
X99921232Y-78715007D01*
X99957238Y-78838940D01*
X99965855Y-78868601D01*
X99969890Y-78875424D01*
X99969891Y-78875426D01*
X100046508Y-79004979D01*
X100046511Y-79004984D01*
X100050547Y-79011807D01*
X100056154Y-79017414D01*
X100058562Y-79020518D01*
X100082203Y-79071331D01*
X100081470Y-79127369D01*
X100056509Y-79177547D01*
X100014557Y-79210148D01*
X100012899Y-79210698D01*
X100006661Y-79214545D01*
X100006660Y-79214546D01*
X99873207Y-79296861D01*
X99873202Y-79296864D01*
X99866960Y-79300715D01*
X99861768Y-79305906D01*
X99856018Y-79310454D01*
X99854898Y-79309038D01*
X99807258Y-79336545D01*
X99742036Y-79336545D01*
X99694879Y-79309318D01*
X99693670Y-79310848D01*
X99676480Y-79297255D01*
X99543133Y-79215005D01*
X99536965Y-79212130D01*
X99492709Y-79177741D01*
X99467745Y-79127561D01*
X99467012Y-79071519D01*
X99490656Y-79020703D01*
X99503090Y-79004673D01*
X99579647Y-78875221D01*
X99585892Y-78860789D01*
X99628268Y-78714935D01*
X99630570Y-78702333D01*
X99632806Y-78673915D01*
X99633000Y-78668986D01*
X99633000Y-78363090D01*
X99629493Y-78350006D01*
X99616410Y-78346500D01*
X99095590Y-78346500D01*
X99082506Y-78350006D01*
X99079000Y-78363090D01*
X99079000Y-79090410D01*
X99082506Y-79103493D01*
X99095590Y-79107000D01*
X99128000Y-79107000D01*
X99191000Y-79123881D01*
X99237119Y-79170000D01*
X99254000Y-79233000D01*
X99254000Y-81096410D01*
X99257506Y-81109493D01*
X99270590Y-81113000D01*
X99270639Y-81113000D01*
X99277028Y-81112674D01*
X99367398Y-81103442D01*
X99380762Y-81100581D01*
X99529920Y-81051154D01*
X99543132Y-81044994D01*
X99676480Y-80962744D01*
X99693670Y-80949152D01*
X99694879Y-80950681D01*
X99742036Y-80923455D01*
X99807258Y-80923455D01*
X99854898Y-80950961D01*
X99856018Y-80949546D01*
X99861766Y-80954091D01*
X99866960Y-80959285D01*
X100012899Y-81049302D01*
X100175664Y-81103236D01*
X100276128Y-81113500D01*
X100820667Y-81113500D01*
X100823872Y-81113500D01*
X100924336Y-81103236D01*
X101087101Y-81049302D01*
X101233040Y-80959285D01*
X101341920Y-80850405D01*
X101382797Y-80823091D01*
X101431015Y-80813500D01*
X101474185Y-80813500D01*
X101513121Y-80819667D01*
X101548246Y-80837564D01*
X101663248Y-80921118D01*
X101837712Y-80998794D01*
X102024513Y-81038500D01*
X102208884Y-81038500D01*
X102215487Y-81038500D01*
X102402288Y-80998794D01*
X102576752Y-80921118D01*
X102731253Y-80808866D01*
X102813281Y-80717765D01*
X159315788Y-80717765D01*
X159316290Y-80722332D01*
X159316291Y-80722344D01*
X159344910Y-80982444D01*
X159344911Y-80982453D01*
X159345414Y-80987018D01*
X159346576Y-80991463D01*
X159346577Y-80991468D01*
X159378812Y-81114768D01*
X159413928Y-81249088D01*
X159415725Y-81253318D01*
X159415728Y-81253325D01*
X159465866Y-81371308D01*
X159519870Y-81498390D01*
X159660982Y-81729610D01*
X159834255Y-81937820D01*
X159929177Y-82022870D01*
X160032561Y-82115503D01*
X160032565Y-82115506D01*
X160035998Y-82118582D01*
X160261910Y-82268044D01*
X160507176Y-82383020D01*
X160766569Y-82461060D01*
X161034561Y-82500500D01*
X161235330Y-82500500D01*
X161237631Y-82500500D01*
X161440156Y-82485677D01*
X161704553Y-82426780D01*
X161957558Y-82330014D01*
X162193777Y-82197441D01*
X162408177Y-82031888D01*
X162596186Y-81836881D01*
X162753799Y-81616579D01*
X162877656Y-81375675D01*
X162965118Y-81119305D01*
X163014319Y-80852933D01*
X163024212Y-80582235D01*
X162994586Y-80312982D01*
X162926072Y-80050912D01*
X162820130Y-79801610D01*
X162679018Y-79570390D01*
X162505745Y-79362180D01*
X162420856Y-79286119D01*
X162307438Y-79184496D01*
X162307432Y-79184491D01*
X162304002Y-79181418D01*
X162137890Y-79071519D01*
X162081925Y-79034493D01*
X162081922Y-79034491D01*
X162078090Y-79031956D01*
X161832824Y-78916980D01*
X161828420Y-78915655D01*
X161577843Y-78840267D01*
X161577838Y-78840265D01*
X161573431Y-78838940D01*
X161568874Y-78838269D01*
X161568868Y-78838268D01*
X161310000Y-78800171D01*
X161309996Y-78800170D01*
X161305439Y-78799500D01*
X161102369Y-78799500D01*
X161100098Y-78799666D01*
X161100076Y-78799667D01*
X160904438Y-78813986D01*
X160904427Y-78813987D01*
X160899844Y-78814323D01*
X160895353Y-78815323D01*
X160895349Y-78815324D01*
X160639939Y-78872219D01*
X160639934Y-78872220D01*
X160635447Y-78873220D01*
X160631149Y-78874863D01*
X160631145Y-78874865D01*
X160386746Y-78968339D01*
X160386735Y-78968343D01*
X160382442Y-78969986D01*
X160378434Y-78972235D01*
X160378422Y-78972241D01*
X160150232Y-79100308D01*
X160150221Y-79100314D01*
X160146223Y-79102559D01*
X160142589Y-79105364D01*
X160142586Y-79105367D01*
X159935466Y-79265298D01*
X159935458Y-79265305D01*
X159931823Y-79268112D01*
X159928632Y-79271421D01*
X159928625Y-79271428D01*
X159747011Y-79459802D01*
X159747004Y-79459809D01*
X159743814Y-79463119D01*
X159741136Y-79466861D01*
X159741131Y-79466868D01*
X159588885Y-79679668D01*
X159588878Y-79679677D01*
X159586201Y-79683421D01*
X159584097Y-79687512D01*
X159584091Y-79687523D01*
X159464453Y-79920222D01*
X159462344Y-79924325D01*
X159460856Y-79928684D01*
X159460854Y-79928691D01*
X159376371Y-80176327D01*
X159376367Y-80176341D01*
X159374882Y-80180695D01*
X159374044Y-80185228D01*
X159374044Y-80185231D01*
X159326517Y-80442537D01*
X159326515Y-80442546D01*
X159325681Y-80447067D01*
X159325513Y-80451656D01*
X159325512Y-80451668D01*
X159315956Y-80713161D01*
X159315788Y-80717765D01*
X102813281Y-80717765D01*
X102859040Y-80666944D01*
X102954527Y-80501556D01*
X103013542Y-80319928D01*
X103033504Y-80130000D01*
X103013542Y-79940072D01*
X102987333Y-79859410D01*
X102956569Y-79764728D01*
X102956568Y-79764726D01*
X102954527Y-79758444D01*
X102859040Y-79593056D01*
X102731253Y-79451134D01*
X102725911Y-79447253D01*
X102725908Y-79447250D01*
X102613683Y-79365714D01*
X102576752Y-79338882D01*
X102402288Y-79261206D01*
X102395835Y-79259834D01*
X102395831Y-79259833D01*
X102221943Y-79222872D01*
X102221940Y-79222871D01*
X102215487Y-79221500D01*
X102024513Y-79221500D01*
X102018060Y-79222871D01*
X102018056Y-79222872D01*
X101844168Y-79259833D01*
X101844161Y-79259835D01*
X101837712Y-79261206D01*
X101831682Y-79263890D01*
X101831681Y-79263891D01*
X101669278Y-79336197D01*
X101669275Y-79336198D01*
X101663248Y-79338882D01*
X101657907Y-79342762D01*
X101657906Y-79342763D01*
X101548246Y-79422436D01*
X101513121Y-79440333D01*
X101474185Y-79446500D01*
X101431015Y-79446500D01*
X101382797Y-79436909D01*
X101341920Y-79409595D01*
X101258244Y-79325919D01*
X101224373Y-79264309D01*
X101228789Y-79194140D01*
X101270116Y-79137262D01*
X101274972Y-79133494D01*
X101281807Y-79129453D01*
X101399453Y-79011807D01*
X101484145Y-78868601D01*
X101530562Y-78708831D01*
X101533500Y-78671502D01*
X101533500Y-77513498D01*
X101530562Y-77476169D01*
X101484145Y-77316399D01*
X101399453Y-77173193D01*
X101366266Y-77140006D01*
X101335844Y-77090807D01*
X101330612Y-77033200D01*
X101349488Y-76984910D01*
X101349081Y-76984697D01*
X101351005Y-76981030D01*
X101351670Y-76979329D01*
X101356954Y-76971675D01*
X101378526Y-76914792D01*
X101381416Y-76907814D01*
X101406388Y-76852330D01*
X101408224Y-76842309D01*
X101414354Y-76820322D01*
X101415263Y-76817925D01*
X101415263Y-76817924D01*
X101417965Y-76810801D01*
X101425298Y-76750397D01*
X101426439Y-76742905D01*
X101436129Y-76690036D01*
X101451612Y-76648611D01*
X101457971Y-76637859D01*
X101503996Y-76592552D01*
X101566423Y-76576000D01*
X102732681Y-76576000D01*
X102771617Y-76582167D01*
X102806742Y-76600064D01*
X102863248Y-76641118D01*
X103037712Y-76718794D01*
X103224513Y-76758500D01*
X103408884Y-76758500D01*
X103415487Y-76758500D01*
X103602288Y-76718794D01*
X103776752Y-76641118D01*
X103931253Y-76528866D01*
X104059040Y-76386944D01*
X104154527Y-76221556D01*
X104213542Y-76039928D01*
X104233504Y-75850000D01*
X104213542Y-75660072D01*
X104154527Y-75478444D01*
X104059040Y-75313056D01*
X103931253Y-75171134D01*
X103925911Y-75167253D01*
X103925908Y-75167250D01*
X103809105Y-75082388D01*
X103776752Y-75058882D01*
X103602288Y-74981206D01*
X103595835Y-74979834D01*
X103595831Y-74979833D01*
X103421943Y-74942872D01*
X103421940Y-74942871D01*
X103415487Y-74941500D01*
X103224513Y-74941500D01*
X103218060Y-74942871D01*
X103218056Y-74942872D01*
X103044168Y-74979833D01*
X103044161Y-74979835D01*
X103037712Y-74981206D01*
X103031682Y-74983890D01*
X103031681Y-74983891D01*
X102887449Y-75048107D01*
X102836200Y-75059000D01*
X101566423Y-75059000D01*
X101503995Y-75042448D01*
X101457970Y-74997140D01*
X101399453Y-74898193D01*
X101281807Y-74780547D01*
X101274980Y-74776509D01*
X101270114Y-74772735D01*
X101228788Y-74715856D01*
X101224374Y-74645689D01*
X101258241Y-74584083D01*
X101354285Y-74488040D01*
X101444302Y-74342101D01*
X101498236Y-74179336D01*
X101508500Y-74078872D01*
X101508500Y-73481128D01*
X101498236Y-73380664D01*
X101444302Y-73217899D01*
X101440451Y-73211657D01*
X101440450Y-73211653D01*
X101360675Y-73082320D01*
X101341916Y-73015648D01*
X101361226Y-72949139D01*
X101453043Y-72803015D01*
X101513217Y-72631047D01*
X101533616Y-72450000D01*
X101513217Y-72268953D01*
X101453043Y-72096985D01*
X101356111Y-71942719D01*
X101227281Y-71813889D01*
X101221287Y-71810123D01*
X101221285Y-71810121D01*
X101079006Y-71720721D01*
X101079003Y-71720719D01*
X101073015Y-71716957D01*
X101066339Y-71714621D01*
X101066335Y-71714619D01*
X100907724Y-71659119D01*
X100907720Y-71659118D01*
X100901047Y-71656783D01*
X100720000Y-71636384D01*
X100686813Y-71640123D01*
X100545981Y-71655991D01*
X100545979Y-71655991D01*
X100538953Y-71656783D01*
X100532280Y-71659117D01*
X100532275Y-71659119D01*
X100373664Y-71714619D01*
X100373656Y-71714622D01*
X100366985Y-71716957D01*
X100361000Y-71720717D01*
X100360993Y-71720721D01*
X100218714Y-71810121D01*
X100218707Y-71810126D01*
X100212719Y-71813889D01*
X100207714Y-71818893D01*
X100207710Y-71818897D01*
X100088897Y-71937710D01*
X100088893Y-71937714D01*
X100083889Y-71942719D01*
X100080126Y-71948707D01*
X100080121Y-71948714D01*
X99990721Y-72090993D01*
X99990717Y-72091000D01*
X99986957Y-72096985D01*
X99984622Y-72103656D01*
X99984619Y-72103664D01*
X99929119Y-72262275D01*
X99929117Y-72262280D01*
X99926783Y-72268953D01*
X99925991Y-72275979D01*
X99925991Y-72275981D01*
X99921866Y-72312595D01*
X99906384Y-72450000D01*
X99926783Y-72631047D01*
X99929118Y-72637720D01*
X99929119Y-72637724D01*
X99974692Y-72767964D01*
X99980931Y-72824033D01*
X99962078Y-72877204D01*
X99921912Y-72916819D01*
X99873207Y-72946861D01*
X99873202Y-72946864D01*
X99866960Y-72950715D01*
X99861768Y-72955906D01*
X99856018Y-72960454D01*
X99854817Y-72958936D01*
X99807611Y-72986192D01*
X99742389Y-72986192D01*
X99695182Y-72958936D01*
X99693982Y-72960454D01*
X99688232Y-72955907D01*
X99683040Y-72950715D01*
X99634210Y-72920596D01*
X99543345Y-72864549D01*
X99543342Y-72864547D01*
X99537101Y-72860698D01*
X99530135Y-72858389D01*
X99523487Y-72855290D01*
X99524135Y-72853898D01*
X99493104Y-72836464D01*
X99463070Y-72798954D01*
X99459655Y-72792447D01*
X99456954Y-72785325D01*
X99451157Y-72776926D01*
X99439958Y-72757069D01*
X99438901Y-72754720D01*
X99435775Y-72747774D01*
X99398267Y-72699899D01*
X99393756Y-72693768D01*
X99363545Y-72650000D01*
X99363544Y-72649999D01*
X99359215Y-72643727D01*
X99313682Y-72603388D01*
X99308141Y-72598171D01*
X97809405Y-71099435D01*
X97782091Y-71058558D01*
X97772500Y-71010340D01*
X97772500Y-69810731D01*
X97772500Y-69807362D01*
X97765989Y-69746799D01*
X97714889Y-69609796D01*
X97707181Y-69599500D01*
X97632659Y-69499950D01*
X97627261Y-69492739D01*
X97620049Y-69487340D01*
X97517417Y-69410510D01*
X97517414Y-69410508D01*
X97510204Y-69405111D01*
X97501765Y-69401963D01*
X97501757Y-69401959D01*
X97395193Y-69362212D01*
X97344859Y-69327648D01*
X97316685Y-69273478D01*
X97317288Y-69212422D01*
X97346523Y-69158821D01*
X97489722Y-69003268D01*
X97612860Y-68814791D01*
X97703296Y-68608616D01*
X97758564Y-68390368D01*
X97777156Y-68166000D01*
X97758564Y-67941632D01*
X97723672Y-67803851D01*
X97724338Y-67739471D01*
X97756720Y-67683827D01*
X100095348Y-65345200D01*
X107186500Y-65345200D01*
X107189091Y-65356314D01*
X107200501Y-65355941D01*
X107301896Y-65328772D01*
X107315432Y-65323394D01*
X107453338Y-65249035D01*
X107465284Y-65240671D01*
X107582664Y-65136213D01*
X107591831Y-65126061D01*
X107645003Y-65052426D01*
X107648486Y-65047045D01*
X107915220Y-64585048D01*
X107916435Y-64578048D01*
X107905112Y-64575170D01*
X107203090Y-64575170D01*
X107190006Y-64578676D01*
X107186500Y-64591760D01*
X107186500Y-65345200D01*
X100095348Y-65345200D01*
X100862787Y-64577761D01*
X105897355Y-64577761D01*
X105897728Y-64589171D01*
X105915744Y-64656408D01*
X105921127Y-64669956D01*
X105995485Y-64807859D01*
X106003844Y-64819799D01*
X106108308Y-64937185D01*
X106118456Y-64946349D01*
X106192093Y-64999521D01*
X106197474Y-65003005D01*
X106664131Y-65272430D01*
X106675463Y-65275466D01*
X106678500Y-65264136D01*
X106678500Y-64591760D01*
X106674993Y-64578676D01*
X106661910Y-64575170D01*
X105908470Y-64575170D01*
X105897355Y-64577761D01*
X100862787Y-64577761D01*
X101945143Y-63495405D01*
X101986021Y-63468091D01*
X102034239Y-63458500D01*
X103197644Y-63458500D01*
X103259542Y-63474752D01*
X103305472Y-63519315D01*
X103329239Y-63558630D01*
X103329241Y-63558632D01*
X103333184Y-63565155D01*
X103454845Y-63686816D01*
X103602087Y-63775827D01*
X103766351Y-63827013D01*
X103837735Y-63833500D01*
X104352264Y-63833499D01*
X104423649Y-63827013D01*
X104587913Y-63775827D01*
X104735155Y-63686816D01*
X104830905Y-63591066D01*
X104887389Y-63558454D01*
X104952611Y-63558454D01*
X105009095Y-63591066D01*
X105104845Y-63686816D01*
X105252087Y-63775827D01*
X105416351Y-63827013D01*
X105487735Y-63833500D01*
X105860748Y-63833499D01*
X105923746Y-63850379D01*
X105969865Y-63896498D01*
X105986747Y-63959497D01*
X105969867Y-64022497D01*
X105949779Y-64057290D01*
X105948564Y-64064291D01*
X105959888Y-64067170D01*
X107956527Y-64067170D01*
X107968694Y-64064332D01*
X107969054Y-64063539D01*
X108002307Y-64019459D01*
X108051214Y-63993830D01*
X108084162Y-63985002D01*
X108235088Y-63903624D01*
X108363179Y-63789632D01*
X108422300Y-63707760D01*
X108696172Y-63233400D01*
X108737515Y-63141264D01*
X108738590Y-63141746D01*
X108760154Y-63104286D01*
X108802569Y-63073420D01*
X108853877Y-63062500D01*
X108945391Y-63062500D01*
X108994271Y-63072367D01*
X109035494Y-63100424D01*
X109062606Y-63142276D01*
X109068462Y-63157127D01*
X109077601Y-63180300D01*
X109082803Y-63187161D01*
X109082805Y-63187163D01*
X109110182Y-63223265D01*
X109170368Y-63302632D01*
X109195040Y-63321341D01*
X109261634Y-63371841D01*
X109298347Y-63416189D01*
X109311500Y-63472239D01*
X109311500Y-63982183D01*
X109295778Y-64043131D01*
X109252537Y-64088869D01*
X109247379Y-64092111D01*
X109218710Y-64110124D01*
X109218706Y-64110126D01*
X109212719Y-64113889D01*
X109207714Y-64118893D01*
X109207710Y-64118897D01*
X109088897Y-64237710D01*
X109088893Y-64237714D01*
X109083889Y-64242719D01*
X109080126Y-64248707D01*
X109080121Y-64248714D01*
X108990721Y-64390993D01*
X108990717Y-64391000D01*
X108986957Y-64396985D01*
X108984622Y-64403656D01*
X108984619Y-64403664D01*
X108929119Y-64562275D01*
X108929117Y-64562280D01*
X108926783Y-64568953D01*
X108925991Y-64575979D01*
X108925991Y-64575981D01*
X108924505Y-64589171D01*
X108906384Y-64750000D01*
X108926783Y-64931047D01*
X108929118Y-64937720D01*
X108929119Y-64937724D01*
X108984619Y-65096335D01*
X108984621Y-65096339D01*
X108986957Y-65103015D01*
X108990719Y-65109003D01*
X108990721Y-65109006D01*
X109078707Y-65249035D01*
X109083889Y-65257281D01*
X109088897Y-65262289D01*
X109102922Y-65276314D01*
X109135534Y-65332798D01*
X109135534Y-65398020D01*
X109102922Y-65454504D01*
X107824831Y-66732595D01*
X107783954Y-66759909D01*
X107735736Y-66769500D01*
X101822136Y-66769500D01*
X101805692Y-66768422D01*
X101774000Y-66764250D01*
X101765811Y-66765328D01*
X101765810Y-66765328D01*
X101734123Y-66769499D01*
X101734114Y-66769499D01*
X101734115Y-66769500D01*
X101634543Y-66782608D01*
X101623339Y-66784083D01*
X101623335Y-66784083D01*
X101615149Y-66785162D01*
X101607523Y-66788320D01*
X101607518Y-66788322D01*
X101474753Y-66843315D01*
X101474747Y-66843318D01*
X101467124Y-66846476D01*
X101460576Y-66851500D01*
X101460575Y-66851501D01*
X101430809Y-66874342D01*
X101371928Y-66919523D01*
X101371925Y-66919525D01*
X101371886Y-66919554D01*
X101371858Y-66919576D01*
X101346559Y-66938989D01*
X101346555Y-66938992D01*
X101340013Y-66944013D01*
X101334992Y-66950555D01*
X101334989Y-66950559D01*
X101320545Y-66969382D01*
X101309681Y-66981768D01*
X100708243Y-67583206D01*
X100647551Y-67616868D01*
X100578241Y-67613286D01*
X100563565Y-67608248D01*
X100563560Y-67608246D01*
X100558635Y-67606556D01*
X100553498Y-67605698D01*
X100553495Y-67605698D01*
X100341706Y-67570357D01*
X100341703Y-67570356D01*
X100336569Y-67569500D01*
X100111431Y-67569500D01*
X100106297Y-67570356D01*
X100106293Y-67570357D01*
X99894504Y-67605698D01*
X99894498Y-67605699D01*
X99889365Y-67606556D01*
X99884443Y-67608245D01*
X99884434Y-67608248D01*
X99681357Y-67677964D01*
X99681344Y-67677969D01*
X99676426Y-67679658D01*
X99671847Y-67682135D01*
X99671840Y-67682139D01*
X99483005Y-67784331D01*
X99482997Y-67784336D01*
X99478424Y-67786811D01*
X99474313Y-67790010D01*
X99474311Y-67790012D01*
X99304878Y-67921888D01*
X99304872Y-67921893D01*
X99300760Y-67925094D01*
X99297237Y-67928919D01*
X99297227Y-67928930D01*
X99151806Y-68086899D01*
X99151802Y-68086902D01*
X99148278Y-68090732D01*
X99145430Y-68095090D01*
X99145427Y-68095095D01*
X99048953Y-68242760D01*
X99025140Y-68279209D01*
X99023048Y-68283978D01*
X99023046Y-68283982D01*
X98936799Y-68480606D01*
X98936796Y-68480614D01*
X98934704Y-68485384D01*
X98933423Y-68490440D01*
X98933422Y-68490445D01*
X98887132Y-68673241D01*
X98879436Y-68703632D01*
X98879006Y-68708820D01*
X98879005Y-68708827D01*
X98863408Y-68897056D01*
X98860844Y-68928000D01*
X98861274Y-68933189D01*
X98875944Y-69110236D01*
X98879436Y-69152368D01*
X98901323Y-69238799D01*
X98931306Y-69357200D01*
X98934704Y-69370616D01*
X98936797Y-69375389D01*
X98936799Y-69375393D01*
X98990185Y-69497101D01*
X99025140Y-69576791D01*
X99148278Y-69765268D01*
X99183944Y-69804011D01*
X99297227Y-69927069D01*
X99297231Y-69927073D01*
X99300760Y-69930906D01*
X99478424Y-70069189D01*
X99676426Y-70176342D01*
X99681355Y-70178034D01*
X99681357Y-70178035D01*
X99782895Y-70212892D01*
X99889365Y-70249444D01*
X100111431Y-70286500D01*
X100331358Y-70286500D01*
X100336569Y-70286500D01*
X100558635Y-70249444D01*
X100771574Y-70176342D01*
X100969576Y-70069189D01*
X101147240Y-69930906D01*
X101299722Y-69765268D01*
X101388518Y-69629354D01*
X101434030Y-69587457D01*
X101494000Y-69572271D01*
X101553970Y-69587457D01*
X101599481Y-69629354D01*
X101688278Y-69765268D01*
X101723944Y-69804011D01*
X101837227Y-69927069D01*
X101837231Y-69927073D01*
X101840760Y-69930906D01*
X102018424Y-70069189D01*
X102216426Y-70176342D01*
X102221355Y-70178034D01*
X102221357Y-70178035D01*
X102322895Y-70212892D01*
X102429365Y-70249444D01*
X102651431Y-70286500D01*
X102871358Y-70286500D01*
X102876569Y-70286500D01*
X103098635Y-70249444D01*
X103311574Y-70176342D01*
X103509576Y-70069189D01*
X103687240Y-69930906D01*
X103732138Y-69882134D01*
X103748244Y-69864639D01*
X103801716Y-69830238D01*
X103865178Y-69826328D01*
X103922469Y-69853904D01*
X103959000Y-69905943D01*
X103999959Y-70015757D01*
X103999963Y-70015765D01*
X104003111Y-70024204D01*
X104008508Y-70031414D01*
X104008510Y-70031417D01*
X104053488Y-70091500D01*
X104090739Y-70141261D01*
X104097950Y-70146659D01*
X104145222Y-70182047D01*
X104207796Y-70228889D01*
X104344799Y-70279989D01*
X104405362Y-70286500D01*
X106199269Y-70286500D01*
X106202638Y-70286500D01*
X106263201Y-70279989D01*
X106400204Y-70228889D01*
X106517261Y-70141261D01*
X106604889Y-70024204D01*
X106655989Y-69887201D01*
X106662500Y-69826638D01*
X106662500Y-69662500D01*
X106679381Y-69599500D01*
X106725500Y-69553381D01*
X106788500Y-69536500D01*
X107573210Y-69536500D01*
X107589653Y-69537577D01*
X107621346Y-69541750D01*
X107661226Y-69536500D01*
X107661231Y-69536500D01*
X107760802Y-69523391D01*
X107780197Y-69520838D01*
X107928222Y-69459524D01*
X108023418Y-69386477D01*
X108023420Y-69386474D01*
X108055333Y-69361987D01*
X108074803Y-69336611D01*
X108085655Y-69324238D01*
X112194722Y-65215171D01*
X112248934Y-65183192D01*
X112311853Y-65181427D01*
X112367775Y-65210317D01*
X112402744Y-65262653D01*
X112458619Y-65422335D01*
X112458621Y-65422339D01*
X112460957Y-65429015D01*
X112464719Y-65435003D01*
X112464721Y-65435006D01*
X112544495Y-65561966D01*
X112557889Y-65583281D01*
X112686719Y-65712111D01*
X112840985Y-65809043D01*
X113012953Y-65869217D01*
X113194000Y-65889616D01*
X113201029Y-65888824D01*
X113201034Y-65888824D01*
X113224556Y-65886173D01*
X113236245Y-65884856D01*
X113297261Y-65893120D01*
X113347076Y-65929311D01*
X113373793Y-65984787D01*
X113371031Y-66046299D01*
X113339451Y-66099156D01*
X113303889Y-66134719D01*
X113300126Y-66140707D01*
X113300121Y-66140714D01*
X113224898Y-66260432D01*
X113206957Y-66288985D01*
X113204622Y-66295657D01*
X113204621Y-66295660D01*
X113191500Y-66333157D01*
X113167481Y-66374414D01*
X113129838Y-66403774D01*
X113083974Y-66417023D01*
X113046987Y-66420384D01*
X113046986Y-66420384D01*
X113040351Y-66420987D01*
X113033993Y-66422968D01*
X113033989Y-66422969D01*
X112883364Y-66469905D01*
X112883360Y-66469906D01*
X112876087Y-66472173D01*
X112869568Y-66476113D01*
X112869563Y-66476116D01*
X112735368Y-66557240D01*
X112735364Y-66557243D01*
X112728845Y-66561184D01*
X112723456Y-66566572D01*
X112723452Y-66566576D01*
X112612576Y-66677452D01*
X112612572Y-66677456D01*
X112607184Y-66682845D01*
X112603243Y-66689364D01*
X112603240Y-66689368D01*
X112522116Y-66823563D01*
X112522113Y-66823568D01*
X112518173Y-66830087D01*
X112515906Y-66837360D01*
X112515905Y-66837364D01*
X112470908Y-66981768D01*
X112466987Y-66994351D01*
X112466384Y-67000981D01*
X112466383Y-67000989D01*
X112460758Y-67062885D01*
X112460757Y-67062906D01*
X112460500Y-67065735D01*
X112460500Y-67068595D01*
X112460500Y-67068596D01*
X112460500Y-67727400D01*
X112460500Y-67727421D01*
X112460501Y-67730264D01*
X112460759Y-67733113D01*
X112460760Y-67733116D01*
X112466383Y-67795011D01*
X112466384Y-67795019D01*
X112466987Y-67801649D01*
X112518173Y-67965913D01*
X112522115Y-67972434D01*
X112522116Y-67972436D01*
X112593629Y-68090732D01*
X112607184Y-68113155D01*
X112728845Y-68234816D01*
X112735368Y-68238759D01*
X112735369Y-68238760D01*
X112799685Y-68277641D01*
X112844248Y-68323571D01*
X112860500Y-68385469D01*
X112860500Y-68921079D01*
X112842741Y-68985577D01*
X112794469Y-69031893D01*
X112753004Y-69054331D01*
X112752991Y-69054339D01*
X112748424Y-69056811D01*
X112744313Y-69060010D01*
X112744311Y-69060012D01*
X112574878Y-69191888D01*
X112574872Y-69191893D01*
X112570760Y-69195094D01*
X112567237Y-69198920D01*
X112567226Y-69198931D01*
X112509754Y-69261362D01*
X112456281Y-69295761D01*
X112392820Y-69299671D01*
X112335530Y-69272095D01*
X112298998Y-69220056D01*
X112293282Y-69204732D01*
X112254889Y-69101796D01*
X112223923Y-69060431D01*
X112172659Y-68991950D01*
X112167261Y-68984739D01*
X112160049Y-68979340D01*
X112057417Y-68902510D01*
X112057414Y-68902508D01*
X112050204Y-68897111D01*
X112041766Y-68893964D01*
X112041763Y-68893962D01*
X111920580Y-68848763D01*
X111920578Y-68848762D01*
X111913201Y-68846011D01*
X111905373Y-68845169D01*
X111905367Y-68845168D01*
X111855988Y-68839860D01*
X111855985Y-68839859D01*
X111852638Y-68839500D01*
X110055362Y-68839500D01*
X110052015Y-68839859D01*
X110052011Y-68839860D01*
X110002632Y-68845168D01*
X110002625Y-68845169D01*
X109994799Y-68846011D01*
X109987423Y-68848761D01*
X109987419Y-68848763D01*
X109866236Y-68893962D01*
X109866230Y-68893965D01*
X109857796Y-68897111D01*
X109850588Y-68902506D01*
X109850582Y-68902510D01*
X109747950Y-68979340D01*
X109747946Y-68979343D01*
X109740739Y-68984739D01*
X109735343Y-68991946D01*
X109735340Y-68991950D01*
X109658510Y-69094582D01*
X109658506Y-69094588D01*
X109653111Y-69101796D01*
X109649965Y-69110230D01*
X109649962Y-69110236D01*
X109604763Y-69231419D01*
X109604761Y-69231423D01*
X109602011Y-69238799D01*
X109601169Y-69246625D01*
X109601168Y-69246632D01*
X109595887Y-69295761D01*
X109595500Y-69299362D01*
X109595500Y-71096638D01*
X109595859Y-71099985D01*
X109595860Y-71099988D01*
X109601168Y-71149367D01*
X109601169Y-71149373D01*
X109602011Y-71157201D01*
X109604762Y-71164578D01*
X109604763Y-71164580D01*
X109649962Y-71285763D01*
X109649964Y-71285766D01*
X109653111Y-71294204D01*
X109658508Y-71301414D01*
X109658510Y-71301417D01*
X109728218Y-71394535D01*
X109740739Y-71411261D01*
X109747950Y-71416659D01*
X109850507Y-71493433D01*
X109857796Y-71498889D01*
X109994799Y-71549989D01*
X110055362Y-71556500D01*
X111849269Y-71556500D01*
X111852638Y-71556500D01*
X111913201Y-71549989D01*
X112050204Y-71498889D01*
X112167261Y-71411261D01*
X112254889Y-71294204D01*
X112298998Y-71175943D01*
X112335530Y-71123904D01*
X112392820Y-71096328D01*
X112456282Y-71100238D01*
X112509755Y-71134638D01*
X112530526Y-71157201D01*
X112570760Y-71200906D01*
X112748424Y-71339189D01*
X112946426Y-71446342D01*
X112951355Y-71448034D01*
X112951357Y-71448035D01*
X112997387Y-71463837D01*
X113159365Y-71519444D01*
X113381431Y-71556500D01*
X113601358Y-71556500D01*
X113606569Y-71556500D01*
X113828635Y-71519444D01*
X114041574Y-71446342D01*
X114239576Y-71339189D01*
X114417240Y-71200906D01*
X114569722Y-71035268D01*
X114658817Y-70898896D01*
X114704328Y-70857001D01*
X114764297Y-70841814D01*
X114824267Y-70857000D01*
X114869781Y-70898898D01*
X114955822Y-71030592D01*
X114962210Y-71038799D01*
X115107567Y-71196700D01*
X115115211Y-71203737D01*
X115284588Y-71335568D01*
X115293281Y-71341247D01*
X115482042Y-71443400D01*
X115491559Y-71447575D01*
X115694557Y-71517264D01*
X115704627Y-71519814D01*
X115766461Y-71530132D01*
X115777598Y-71529556D01*
X115780000Y-71518664D01*
X116288000Y-71518664D01*
X116290401Y-71529556D01*
X116301538Y-71530132D01*
X116363372Y-71519814D01*
X116373442Y-71517264D01*
X116576440Y-71447575D01*
X116585957Y-71443400D01*
X116774718Y-71341247D01*
X116783411Y-71335568D01*
X116952788Y-71203737D01*
X116960432Y-71196700D01*
X117105789Y-71038799D01*
X117112177Y-71030593D01*
X117229568Y-70850913D01*
X117234511Y-70841778D01*
X117320729Y-70645223D01*
X117324099Y-70635408D01*
X117367013Y-70465943D01*
X117367248Y-70454565D01*
X117356160Y-70452000D01*
X116304590Y-70452000D01*
X116291506Y-70455506D01*
X116288000Y-70468590D01*
X116288000Y-71518664D01*
X115780000Y-71518664D01*
X115780000Y-69927410D01*
X116288000Y-69927410D01*
X116291506Y-69940493D01*
X116304590Y-69944000D01*
X117356160Y-69944000D01*
X117367248Y-69941434D01*
X117367013Y-69930056D01*
X117324099Y-69760591D01*
X117320729Y-69750776D01*
X117234511Y-69554221D01*
X117229568Y-69545086D01*
X117112177Y-69365406D01*
X117105789Y-69357200D01*
X116960432Y-69199299D01*
X116952788Y-69192262D01*
X116783411Y-69060431D01*
X116774718Y-69054752D01*
X116585957Y-68952599D01*
X116576440Y-68948424D01*
X116373442Y-68878735D01*
X116363372Y-68876185D01*
X116301538Y-68865867D01*
X116290401Y-68866443D01*
X116288000Y-68877336D01*
X116288000Y-69927410D01*
X115780000Y-69927410D01*
X115780000Y-68877336D01*
X115777598Y-68866443D01*
X115766461Y-68865867D01*
X115704627Y-68876185D01*
X115694557Y-68878735D01*
X115491559Y-68948424D01*
X115482042Y-68952599D01*
X115293281Y-69054752D01*
X115284588Y-69060431D01*
X115115211Y-69192262D01*
X115107567Y-69199299D01*
X114962210Y-69357200D01*
X114955816Y-69365415D01*
X114869780Y-69497101D01*
X114824267Y-69538999D01*
X114764297Y-69554185D01*
X114704328Y-69538998D01*
X114658816Y-69497101D01*
X114569722Y-69360732D01*
X114450680Y-69231419D01*
X114420772Y-69198930D01*
X114420767Y-69198925D01*
X114417240Y-69195094D01*
X114239576Y-69056811D01*
X114235003Y-69054336D01*
X114234995Y-69054331D01*
X114193531Y-69031893D01*
X114145259Y-68985577D01*
X114127500Y-68921079D01*
X114127500Y-68286953D01*
X114141233Y-68229750D01*
X114179439Y-68185017D01*
X114233789Y-68162504D01*
X114292436Y-68167120D01*
X114342595Y-68197858D01*
X114373763Y-68229026D01*
X114385679Y-68238362D01*
X114519774Y-68319425D01*
X114533565Y-68325632D01*
X114684081Y-68372535D01*
X114697078Y-68375121D01*
X114751794Y-68380093D01*
X114761493Y-68377493D01*
X114765000Y-68364410D01*
X114765000Y-68364409D01*
X115273000Y-68364409D01*
X115276506Y-68377492D01*
X115286205Y-68380092D01*
X115340912Y-68375121D01*
X115353926Y-68372533D01*
X115504434Y-68325632D01*
X115518225Y-68319425D01*
X115652320Y-68238362D01*
X115664236Y-68229026D01*
X115775026Y-68118236D01*
X115784362Y-68106320D01*
X115865425Y-67972225D01*
X115871632Y-67958434D01*
X115918535Y-67807918D01*
X115921121Y-67794921D01*
X115926741Y-67733074D01*
X115927000Y-67727363D01*
X115927000Y-67668590D01*
X115923493Y-67655506D01*
X115910410Y-67652000D01*
X115289590Y-67652000D01*
X115276506Y-67655506D01*
X115273000Y-67668590D01*
X115273000Y-68364409D01*
X114765000Y-68364409D01*
X114765000Y-67270000D01*
X114781881Y-67207000D01*
X114828000Y-67160881D01*
X114891000Y-67144000D01*
X114907770Y-67144000D01*
X114964318Y-67157402D01*
X114978083Y-67164315D01*
X114978087Y-67164316D01*
X114984643Y-67167609D01*
X114991786Y-67169301D01*
X114994941Y-67170450D01*
X114995350Y-67170619D01*
X114995760Y-67170736D01*
X114998971Y-67171800D01*
X115005624Y-67174902D01*
X115079897Y-67190237D01*
X115083375Y-67191008D01*
X115157175Y-67208500D01*
X115164518Y-67208500D01*
X115167855Y-67208890D01*
X115168289Y-67208960D01*
X115168717Y-67208979D01*
X115172083Y-67209273D01*
X115179273Y-67210758D01*
X115255054Y-67208552D01*
X115258719Y-67208500D01*
X134053629Y-67208500D01*
X134101847Y-67218091D01*
X134142724Y-67245405D01*
X138238093Y-71340774D01*
X138250060Y-71354620D01*
X138264531Y-71374058D01*
X138270149Y-71378772D01*
X138270150Y-71378773D01*
X138302870Y-71406228D01*
X138310974Y-71413655D01*
X138314900Y-71417581D01*
X138317780Y-71419858D01*
X138339455Y-71436997D01*
X138342296Y-71439311D01*
X138352145Y-71447575D01*
X138400360Y-71488032D01*
X138406916Y-71491324D01*
X138409733Y-71493177D01*
X138410088Y-71493433D01*
X138410462Y-71493642D01*
X138413343Y-71495419D01*
X138419095Y-71499967D01*
X138481069Y-71528866D01*
X138487786Y-71531998D01*
X138491078Y-71533591D01*
X138558812Y-71567609D01*
X138565951Y-71569300D01*
X138569104Y-71570448D01*
X138569515Y-71570618D01*
X138569941Y-71570739D01*
X138573134Y-71571797D01*
X138579794Y-71574903D01*
X138654078Y-71590241D01*
X138657630Y-71591029D01*
X138731344Y-71608500D01*
X138738688Y-71608500D01*
X138742015Y-71608889D01*
X138742467Y-71608962D01*
X138742876Y-71608980D01*
X138746259Y-71609275D01*
X138753442Y-71610759D01*
X138829258Y-71608552D01*
X138832923Y-71608500D01*
X139277413Y-71608500D01*
X139316348Y-71614667D01*
X139351472Y-71632563D01*
X139356732Y-71636384D01*
X139363248Y-71641118D01*
X139537712Y-71718794D01*
X139724513Y-71758500D01*
X139908884Y-71758500D01*
X139915487Y-71758500D01*
X140102288Y-71718794D01*
X140276752Y-71641118D01*
X140369130Y-71574000D01*
X140426744Y-71551015D01*
X140488345Y-71558306D01*
X140539002Y-71594106D01*
X140566438Y-71649740D01*
X140564002Y-71711723D01*
X140532286Y-71765032D01*
X137363667Y-74933650D01*
X137334695Y-74955285D01*
X137300772Y-74967801D01*
X137244171Y-74979833D01*
X137237712Y-74981206D01*
X137231687Y-74983888D01*
X137231679Y-74983891D01*
X137069278Y-75056197D01*
X137069275Y-75056198D01*
X137063248Y-75058882D01*
X137057907Y-75062762D01*
X137057906Y-75062763D01*
X136914091Y-75167250D01*
X136914083Y-75167256D01*
X136908747Y-75171134D01*
X136904330Y-75176039D01*
X136904325Y-75176044D01*
X136798861Y-75293175D01*
X136780960Y-75313056D01*
X136777661Y-75318769D01*
X136777658Y-75318774D01*
X136690366Y-75469969D01*
X136685473Y-75478444D01*
X136683434Y-75484718D01*
X136683430Y-75484728D01*
X136628497Y-75653794D01*
X136628495Y-75653801D01*
X136626458Y-75660072D01*
X136625768Y-75666633D01*
X136625768Y-75666635D01*
X136617463Y-75745653D01*
X136606496Y-75850000D01*
X136607186Y-75856565D01*
X136622275Y-76000134D01*
X136626458Y-76039928D01*
X136628495Y-76046200D01*
X136628497Y-76046205D01*
X136683430Y-76215271D01*
X136683433Y-76215278D01*
X136685473Y-76221556D01*
X136780960Y-76386944D01*
X136908747Y-76528866D01*
X137063248Y-76641118D01*
X137237712Y-76718794D01*
X137424513Y-76758500D01*
X137608884Y-76758500D01*
X137615487Y-76758500D01*
X137802288Y-76718794D01*
X137976752Y-76641118D01*
X138131253Y-76528866D01*
X138259040Y-76386944D01*
X138354527Y-76221556D01*
X138409388Y-76052709D01*
X138440123Y-76002556D01*
X140234688Y-74207991D01*
X140290533Y-74175554D01*
X140355116Y-74175046D01*
X140411466Y-74206604D01*
X140444778Y-74261934D01*
X140446300Y-74326501D01*
X140426620Y-74408472D01*
X140426617Y-74408489D01*
X140425465Y-74413289D01*
X140425077Y-74418212D01*
X140425076Y-74418222D01*
X140416465Y-74527639D01*
X140406835Y-74650000D01*
X140407223Y-74654930D01*
X140425076Y-74881777D01*
X140425077Y-74881785D01*
X140425465Y-74886711D01*
X140426619Y-74891519D01*
X140426620Y-74891523D01*
X140479739Y-75112781D01*
X140479740Y-75112786D01*
X140480895Y-75117594D01*
X140482788Y-75122164D01*
X140482789Y-75122167D01*
X140553623Y-75293175D01*
X140571760Y-75336963D01*
X140695824Y-75539416D01*
X140699031Y-75543171D01*
X140699034Y-75543175D01*
X140768216Y-75624176D01*
X140850031Y-75719969D01*
X140853786Y-75723176D01*
X141002277Y-75850000D01*
X141030584Y-75874176D01*
X141233037Y-75998240D01*
X141452406Y-76089105D01*
X141683289Y-76144535D01*
X141920000Y-76163165D01*
X142156711Y-76144535D01*
X142387594Y-76089105D01*
X142606963Y-75998240D01*
X142809416Y-75874176D01*
X142989969Y-75719969D01*
X143069579Y-75626758D01*
X143074189Y-75621361D01*
X143117249Y-75588765D01*
X143170000Y-75577191D01*
X143222751Y-75588765D01*
X143265811Y-75621361D01*
X143346817Y-75716207D01*
X143346823Y-75716213D01*
X143350031Y-75719969D01*
X143353786Y-75723176D01*
X143502277Y-75850000D01*
X143530584Y-75874176D01*
X143733037Y-75998240D01*
X143952406Y-76089105D01*
X144183289Y-76144535D01*
X144420000Y-76163165D01*
X144656711Y-76144535D01*
X144887594Y-76089105D01*
X145106963Y-75998240D01*
X145309416Y-75874176D01*
X145489969Y-75719969D01*
X145569579Y-75626758D01*
X145574189Y-75621361D01*
X145617249Y-75588765D01*
X145670000Y-75577191D01*
X145722751Y-75588765D01*
X145765811Y-75621361D01*
X145846817Y-75716207D01*
X145846823Y-75716213D01*
X145850031Y-75719969D01*
X145853786Y-75723176D01*
X146002277Y-75850000D01*
X146030584Y-75874176D01*
X146233037Y-75998240D01*
X146452406Y-76089105D01*
X146683289Y-76144535D01*
X146920000Y-76163165D01*
X147156711Y-76144535D01*
X147387594Y-76089105D01*
X147606963Y-75998240D01*
X147809416Y-75874176D01*
X147989969Y-75719969D01*
X148144176Y-75539416D01*
X148268240Y-75336963D01*
X148359105Y-75117594D01*
X148414535Y-74886711D01*
X148433165Y-74650000D01*
X148414535Y-74413289D01*
X148411345Y-74400000D01*
X155156835Y-74400000D01*
X155157223Y-74404930D01*
X155175076Y-74631777D01*
X155175077Y-74631785D01*
X155175465Y-74636711D01*
X155176619Y-74641519D01*
X155176620Y-74641523D01*
X155229739Y-74862781D01*
X155229740Y-74862786D01*
X155230895Y-74867594D01*
X155232788Y-74872164D01*
X155232789Y-74872167D01*
X155269188Y-74960042D01*
X155321760Y-75086963D01*
X155445824Y-75289416D01*
X155449031Y-75293171D01*
X155449034Y-75293175D01*
X155486433Y-75336963D01*
X155600031Y-75469969D01*
X155603786Y-75473176D01*
X155725571Y-75577191D01*
X155780584Y-75624176D01*
X155983037Y-75748240D01*
X156202406Y-75839105D01*
X156433289Y-75894535D01*
X156670000Y-75913165D01*
X156906711Y-75894535D01*
X157137594Y-75839105D01*
X157356963Y-75748240D01*
X157559416Y-75624176D01*
X157739969Y-75469969D01*
X157894176Y-75289416D01*
X158018240Y-75086963D01*
X158109105Y-74867594D01*
X158164535Y-74636711D01*
X158183165Y-74400000D01*
X158164535Y-74163289D01*
X158109105Y-73932406D01*
X158018240Y-73713037D01*
X157894176Y-73510584D01*
X157871756Y-73484334D01*
X157743176Y-73333786D01*
X157739969Y-73330031D01*
X157736213Y-73326823D01*
X157563175Y-73179034D01*
X157563171Y-73179031D01*
X157559416Y-73175824D01*
X157356963Y-73051760D01*
X157183457Y-72979892D01*
X157142167Y-72962789D01*
X157142164Y-72962788D01*
X157137594Y-72960895D01*
X157132786Y-72959740D01*
X157132781Y-72959739D01*
X156911523Y-72906620D01*
X156911519Y-72906619D01*
X156906711Y-72905465D01*
X156901785Y-72905077D01*
X156901777Y-72905076D01*
X156674930Y-72887223D01*
X156670000Y-72886835D01*
X156665070Y-72887223D01*
X156438222Y-72905076D01*
X156438212Y-72905077D01*
X156433289Y-72905465D01*
X156428482Y-72906619D01*
X156428476Y-72906620D01*
X156207218Y-72959739D01*
X156207209Y-72959741D01*
X156202406Y-72960895D01*
X156197838Y-72962786D01*
X156197832Y-72962789D01*
X155987611Y-73049865D01*
X155987606Y-73049867D01*
X155983037Y-73051760D01*
X155978817Y-73054345D01*
X155978817Y-73054346D01*
X155784798Y-73173241D01*
X155784792Y-73173245D01*
X155780584Y-73175824D01*
X155776834Y-73179026D01*
X155776824Y-73179034D01*
X155603786Y-73326823D01*
X155603779Y-73326829D01*
X155600031Y-73330031D01*
X155596829Y-73333779D01*
X155596823Y-73333786D01*
X155449034Y-73506824D01*
X155449026Y-73506834D01*
X155445824Y-73510584D01*
X155443245Y-73514792D01*
X155443241Y-73514798D01*
X155362221Y-73647011D01*
X155321760Y-73713037D01*
X155319867Y-73717606D01*
X155319865Y-73717611D01*
X155232789Y-73927832D01*
X155232786Y-73927838D01*
X155230895Y-73932406D01*
X155229741Y-73937209D01*
X155229739Y-73937218D01*
X155176620Y-74158476D01*
X155175465Y-74163289D01*
X155175077Y-74168212D01*
X155175076Y-74168222D01*
X155157529Y-74391184D01*
X155156835Y-74400000D01*
X148411345Y-74400000D01*
X148359105Y-74182406D01*
X148268240Y-73963037D01*
X148144176Y-73760584D01*
X147989969Y-73580031D01*
X147903489Y-73506170D01*
X147813175Y-73429034D01*
X147813171Y-73429031D01*
X147809416Y-73425824D01*
X147606963Y-73301760D01*
X147421314Y-73224862D01*
X147392167Y-73212789D01*
X147392164Y-73212788D01*
X147387594Y-73210895D01*
X147382786Y-73209740D01*
X147382781Y-73209739D01*
X147161523Y-73156620D01*
X147161519Y-73156619D01*
X147156711Y-73155465D01*
X147151785Y-73155077D01*
X147151777Y-73155076D01*
X146924930Y-73137223D01*
X146920000Y-73136835D01*
X146915070Y-73137223D01*
X146688222Y-73155076D01*
X146688212Y-73155077D01*
X146683289Y-73155465D01*
X146678482Y-73156619D01*
X146678476Y-73156620D01*
X146457218Y-73209739D01*
X146457209Y-73209741D01*
X146452406Y-73210895D01*
X146447838Y-73212786D01*
X146447832Y-73212789D01*
X146237611Y-73299865D01*
X146237606Y-73299867D01*
X146233037Y-73301760D01*
X146228817Y-73304345D01*
X146228817Y-73304346D01*
X146034798Y-73423241D01*
X146034792Y-73423245D01*
X146030584Y-73425824D01*
X146026834Y-73429026D01*
X146026824Y-73429034D01*
X145853786Y-73576823D01*
X145853779Y-73576829D01*
X145850031Y-73580031D01*
X145846829Y-73583779D01*
X145846823Y-73583786D01*
X145765811Y-73678639D01*
X145722751Y-73711234D01*
X145670000Y-73722808D01*
X145617249Y-73711234D01*
X145574189Y-73678639D01*
X145493176Y-73583786D01*
X145489969Y-73580031D01*
X145403489Y-73506170D01*
X145313175Y-73429034D01*
X145313171Y-73429031D01*
X145309416Y-73425824D01*
X145106963Y-73301760D01*
X144921314Y-73224862D01*
X144892167Y-73212789D01*
X144892164Y-73212788D01*
X144887594Y-73210895D01*
X144882786Y-73209740D01*
X144882781Y-73209739D01*
X144661523Y-73156620D01*
X144661519Y-73156619D01*
X144656711Y-73155465D01*
X144651785Y-73155077D01*
X144651777Y-73155076D01*
X144424930Y-73137223D01*
X144420000Y-73136835D01*
X144415070Y-73137223D01*
X144188222Y-73155076D01*
X144188212Y-73155077D01*
X144183289Y-73155465D01*
X144178482Y-73156619D01*
X144178476Y-73156620D01*
X143957218Y-73209739D01*
X143957209Y-73209741D01*
X143952406Y-73210895D01*
X143947838Y-73212786D01*
X143947832Y-73212789D01*
X143737611Y-73299865D01*
X143737606Y-73299867D01*
X143733037Y-73301760D01*
X143728817Y-73304345D01*
X143728817Y-73304346D01*
X143534798Y-73423241D01*
X143534792Y-73423245D01*
X143530584Y-73425824D01*
X143526834Y-73429026D01*
X143526824Y-73429034D01*
X143353786Y-73576823D01*
X143353779Y-73576829D01*
X143350031Y-73580031D01*
X143346829Y-73583779D01*
X143346823Y-73583786D01*
X143265811Y-73678639D01*
X143222751Y-73711234D01*
X143170000Y-73722808D01*
X143117249Y-73711234D01*
X143074189Y-73678639D01*
X142993176Y-73583786D01*
X142989969Y-73580031D01*
X142903489Y-73506170D01*
X142813175Y-73429034D01*
X142813171Y-73429031D01*
X142809416Y-73425824D01*
X142606963Y-73301760D01*
X142421314Y-73224862D01*
X142392167Y-73212789D01*
X142392164Y-73212788D01*
X142387594Y-73210895D01*
X142382786Y-73209740D01*
X142382781Y-73209739D01*
X142161523Y-73156620D01*
X142161519Y-73156619D01*
X142156711Y-73155465D01*
X142151785Y-73155077D01*
X142151777Y-73155076D01*
X141924930Y-73137223D01*
X141920000Y-73136835D01*
X141915070Y-73137223D01*
X141688222Y-73155076D01*
X141688212Y-73155077D01*
X141683289Y-73155465D01*
X141678489Y-73156617D01*
X141678472Y-73156620D01*
X141596501Y-73176300D01*
X141531934Y-73174778D01*
X141476604Y-73141466D01*
X141445046Y-73085116D01*
X141445554Y-73020533D01*
X141477991Y-72964688D01*
X144542680Y-69900000D01*
X155156835Y-69900000D01*
X155157223Y-69904930D01*
X155175076Y-70131777D01*
X155175077Y-70131785D01*
X155175465Y-70136711D01*
X155176619Y-70141519D01*
X155176620Y-70141523D01*
X155229739Y-70362781D01*
X155229740Y-70362786D01*
X155230895Y-70367594D01*
X155232788Y-70372164D01*
X155232789Y-70372167D01*
X155289283Y-70508557D01*
X155321760Y-70586963D01*
X155445824Y-70789416D01*
X155449031Y-70793171D01*
X155449034Y-70793175D01*
X155573877Y-70939347D01*
X155600031Y-70969969D01*
X155603786Y-70973176D01*
X155752263Y-71099988D01*
X155780584Y-71124176D01*
X155983037Y-71248240D01*
X156202406Y-71339105D01*
X156433289Y-71394535D01*
X156670000Y-71413165D01*
X156906711Y-71394535D01*
X157137594Y-71339105D01*
X157356963Y-71248240D01*
X157559416Y-71124176D01*
X157739969Y-70969969D01*
X157894176Y-70789416D01*
X158018240Y-70586963D01*
X158109105Y-70367594D01*
X158164535Y-70136711D01*
X158183165Y-69900000D01*
X158164535Y-69663289D01*
X158109105Y-69432406D01*
X158018240Y-69213037D01*
X157894176Y-69010584D01*
X157884200Y-68998904D01*
X157743176Y-68833786D01*
X157739969Y-68830031D01*
X157674733Y-68774314D01*
X157563175Y-68679034D01*
X157563171Y-68679031D01*
X157559416Y-68675824D01*
X157356963Y-68551760D01*
X157276794Y-68518553D01*
X157142167Y-68462789D01*
X157142164Y-68462788D01*
X157137594Y-68460895D01*
X157132786Y-68459740D01*
X157132781Y-68459739D01*
X156911523Y-68406620D01*
X156911519Y-68406619D01*
X156906711Y-68405465D01*
X156901785Y-68405077D01*
X156901777Y-68405076D01*
X156674930Y-68387223D01*
X156670000Y-68386835D01*
X156665070Y-68387223D01*
X156438222Y-68405076D01*
X156438212Y-68405077D01*
X156433289Y-68405465D01*
X156428482Y-68406619D01*
X156428476Y-68406620D01*
X156207218Y-68459739D01*
X156207209Y-68459741D01*
X156202406Y-68460895D01*
X156197838Y-68462786D01*
X156197832Y-68462789D01*
X155987611Y-68549865D01*
X155987606Y-68549867D01*
X155983037Y-68551760D01*
X155978817Y-68554345D01*
X155978817Y-68554346D01*
X155784798Y-68673241D01*
X155784792Y-68673245D01*
X155780584Y-68675824D01*
X155776834Y-68679026D01*
X155776824Y-68679034D01*
X155603786Y-68826823D01*
X155603779Y-68826829D01*
X155600031Y-68830031D01*
X155596829Y-68833779D01*
X155596823Y-68833786D01*
X155449034Y-69006824D01*
X155449026Y-69006834D01*
X155445824Y-69010584D01*
X155443245Y-69014792D01*
X155443241Y-69014798D01*
X155330962Y-69198021D01*
X155321760Y-69213037D01*
X155319867Y-69217606D01*
X155319865Y-69217611D01*
X155232789Y-69427832D01*
X155232786Y-69427838D01*
X155230895Y-69432406D01*
X155229741Y-69437209D01*
X155229739Y-69437218D01*
X155176620Y-69658476D01*
X155175465Y-69663289D01*
X155175077Y-69668212D01*
X155175076Y-69668222D01*
X155160463Y-69853904D01*
X155156835Y-69900000D01*
X144542680Y-69900000D01*
X147526404Y-66916276D01*
X147576564Y-66885538D01*
X147635211Y-66880922D01*
X147689561Y-66903435D01*
X147727767Y-66948168D01*
X147741500Y-67005371D01*
X147741500Y-67965800D01*
X147741674Y-67968128D01*
X147741675Y-67968142D01*
X147755912Y-68158120D01*
X147756265Y-68162826D01*
X147757314Y-68167425D01*
X147757315Y-68167427D01*
X147807482Y-68387223D01*
X147814913Y-68419780D01*
X147816636Y-68424171D01*
X147816637Y-68424173D01*
X147909479Y-68660731D01*
X147909483Y-68660740D01*
X147911204Y-68665124D01*
X147913559Y-68669204D01*
X147913563Y-68669211D01*
X148033724Y-68877336D01*
X148042985Y-68893376D01*
X148066459Y-68922811D01*
X148203988Y-69095268D01*
X148207314Y-69099438D01*
X148247294Y-69136534D01*
X148397063Y-69275500D01*
X148397068Y-69275504D01*
X148400519Y-69278706D01*
X148404413Y-69281361D01*
X148404417Y-69281364D01*
X148527228Y-69365095D01*
X148618284Y-69427176D01*
X148622529Y-69429220D01*
X148622532Y-69429222D01*
X148672670Y-69453367D01*
X148855746Y-69541532D01*
X149107600Y-69619218D01*
X149368219Y-69658500D01*
X149627065Y-69658500D01*
X149631781Y-69658500D01*
X149892400Y-69619218D01*
X150144254Y-69541532D01*
X150381715Y-69427176D01*
X150599481Y-69278706D01*
X150792686Y-69099438D01*
X150957015Y-68893376D01*
X151088796Y-68665124D01*
X151185087Y-68419780D01*
X151243735Y-68162826D01*
X151258500Y-67965800D01*
X151258500Y-66334200D01*
X151243735Y-66137174D01*
X151185087Y-65880220D01*
X151114890Y-65701362D01*
X151090520Y-65639268D01*
X151090518Y-65639265D01*
X151088796Y-65634876D01*
X151083671Y-65626000D01*
X150959370Y-65410703D01*
X150957015Y-65406624D01*
X150800465Y-65210317D01*
X150795620Y-65204241D01*
X150795619Y-65204240D01*
X150792686Y-65200562D01*
X150694012Y-65109006D01*
X150602936Y-65024499D01*
X150602930Y-65024494D01*
X150599481Y-65021294D01*
X150595588Y-65018639D01*
X150595582Y-65018635D01*
X150385612Y-64875480D01*
X150385609Y-64875478D01*
X150381716Y-64872824D01*
X150377475Y-64870781D01*
X150377467Y-64870777D01*
X150148503Y-64760514D01*
X150148500Y-64760513D01*
X150144254Y-64758468D01*
X150139756Y-64757080D01*
X150139747Y-64757077D01*
X149992480Y-64711652D01*
X149938060Y-64677812D01*
X149907324Y-64621580D01*
X149908223Y-64557502D01*
X149940521Y-64502159D01*
X151397278Y-63045402D01*
X151438153Y-63018091D01*
X151486371Y-63008500D01*
X156927413Y-63008500D01*
X156966348Y-63014667D01*
X157001472Y-63032563D01*
X157007902Y-63037234D01*
X157013248Y-63041118D01*
X157187712Y-63118794D01*
X157374513Y-63158500D01*
X157558884Y-63158500D01*
X157565487Y-63158500D01*
X157752288Y-63118794D01*
X157926752Y-63041118D01*
X158081253Y-62928866D01*
X158209040Y-62786944D01*
X158304527Y-62621556D01*
X158363542Y-62439928D01*
X158383504Y-62250000D01*
X158363542Y-62060072D01*
X158304527Y-61878444D01*
X158209040Y-61713056D01*
X158081253Y-61571134D01*
X158075911Y-61567253D01*
X158075908Y-61567250D01*
X157975594Y-61494368D01*
X157926752Y-61458882D01*
X157752288Y-61381206D01*
X157745835Y-61379834D01*
X157745831Y-61379833D01*
X157571943Y-61342872D01*
X157571940Y-61342871D01*
X157565487Y-61341500D01*
X157374513Y-61341500D01*
X157368060Y-61342871D01*
X157368056Y-61342872D01*
X157194168Y-61379833D01*
X157194161Y-61379835D01*
X157187712Y-61381206D01*
X157181682Y-61383890D01*
X157181681Y-61383891D01*
X157019278Y-61456197D01*
X157019275Y-61456198D01*
X157013248Y-61458882D01*
X157007909Y-61462760D01*
X157007902Y-61462765D01*
X157001472Y-61467437D01*
X156966348Y-61485333D01*
X156927413Y-61491500D01*
X154597876Y-61491500D01*
X154531023Y-61472302D01*
X154484542Y-61420559D01*
X154472597Y-61352038D01*
X154472658Y-61351467D01*
X154473500Y-61343638D01*
X154473500Y-59546362D01*
X154466989Y-59485799D01*
X154415889Y-59348796D01*
X154365786Y-59281867D01*
X154333659Y-59238950D01*
X154328261Y-59231739D01*
X154284713Y-59199139D01*
X154218417Y-59149510D01*
X154218414Y-59149508D01*
X154211204Y-59144111D01*
X154202766Y-59140964D01*
X154202763Y-59140962D01*
X154081580Y-59095763D01*
X154081578Y-59095762D01*
X154074201Y-59093011D01*
X154066373Y-59092169D01*
X154066367Y-59092168D01*
X154016988Y-59086860D01*
X154016985Y-59086859D01*
X154013638Y-59086500D01*
X152216362Y-59086500D01*
X152213015Y-59086859D01*
X152213011Y-59086860D01*
X152163632Y-59092168D01*
X152163625Y-59092169D01*
X152155799Y-59093011D01*
X152148423Y-59095761D01*
X152148419Y-59095763D01*
X152027236Y-59140962D01*
X152027230Y-59140965D01*
X152018796Y-59144111D01*
X152011588Y-59149506D01*
X152011582Y-59149510D01*
X151908950Y-59226340D01*
X151908946Y-59226343D01*
X151901739Y-59231739D01*
X151896343Y-59238946D01*
X151896340Y-59238950D01*
X151819510Y-59341582D01*
X151819506Y-59341588D01*
X151814111Y-59348796D01*
X151810964Y-59357231D01*
X151810960Y-59357240D01*
X151770000Y-59467057D01*
X151733468Y-59519095D01*
X151676178Y-59546671D01*
X151612717Y-59542761D01*
X151559244Y-59508361D01*
X151521220Y-59467057D01*
X151498240Y-59442094D01*
X151320576Y-59303811D01*
X151315997Y-59301333D01*
X151315994Y-59301331D01*
X151127159Y-59199139D01*
X151127156Y-59199137D01*
X151122574Y-59196658D01*
X151117650Y-59194967D01*
X151117642Y-59194964D01*
X150914565Y-59125248D01*
X150914559Y-59125246D01*
X150909635Y-59123556D01*
X150904498Y-59122698D01*
X150904495Y-59122698D01*
X150692706Y-59087357D01*
X150692703Y-59087356D01*
X150687569Y-59086500D01*
X150462431Y-59086500D01*
X150457297Y-59087356D01*
X150457293Y-59087357D01*
X150245504Y-59122698D01*
X150245498Y-59122699D01*
X150240365Y-59123556D01*
X150235443Y-59125245D01*
X150235434Y-59125248D01*
X150032357Y-59194964D01*
X150032344Y-59194969D01*
X150027426Y-59196658D01*
X150022847Y-59199135D01*
X150022840Y-59199139D01*
X149834005Y-59301331D01*
X149833997Y-59301336D01*
X149829424Y-59303811D01*
X149825313Y-59307010D01*
X149825311Y-59307012D01*
X149655878Y-59438888D01*
X149655872Y-59438893D01*
X149651760Y-59442094D01*
X149648237Y-59445919D01*
X149648227Y-59445930D01*
X149502806Y-59603899D01*
X149502802Y-59603902D01*
X149499278Y-59607732D01*
X149496430Y-59612090D01*
X149496427Y-59612095D01*
X149383384Y-59785121D01*
X149376140Y-59796209D01*
X149374048Y-59800978D01*
X149374046Y-59800982D01*
X149287799Y-59997606D01*
X149287796Y-59997614D01*
X149285704Y-60002384D01*
X149284423Y-60007440D01*
X149284422Y-60007445D01*
X149236826Y-60195399D01*
X149230436Y-60220632D01*
X149230006Y-60225820D01*
X149230005Y-60225827D01*
X149212909Y-60432147D01*
X149211844Y-60445000D01*
X149212274Y-60450189D01*
X149229270Y-60655303D01*
X149230436Y-60669368D01*
X149285704Y-60887616D01*
X149287797Y-60892389D01*
X149287799Y-60892393D01*
X149350440Y-61035201D01*
X149376140Y-61093791D01*
X149499278Y-61282268D01*
X149502806Y-61286100D01*
X149648227Y-61444069D01*
X149648231Y-61444073D01*
X149651760Y-61447906D01*
X149829424Y-61586189D01*
X150027426Y-61693342D01*
X150032355Y-61695034D01*
X150032357Y-61695035D01*
X150039264Y-61697406D01*
X150240365Y-61766444D01*
X150245501Y-61767301D01*
X150245505Y-61767302D01*
X150247885Y-61767699D01*
X150248834Y-61768144D01*
X150250560Y-61768582D01*
X150250475Y-61768915D01*
X150309570Y-61796679D01*
X150347140Y-61853540D01*
X150349605Y-61921648D01*
X150316242Y-61981076D01*
X140754529Y-71542788D01*
X140701216Y-71574506D01*
X140639229Y-71576938D01*
X140583594Y-71549496D01*
X140547797Y-71498831D01*
X140540515Y-71437225D01*
X140560296Y-71387669D01*
X140559040Y-71386944D01*
X140559040Y-71386943D01*
X140654527Y-71221556D01*
X140713542Y-71039928D01*
X140733504Y-70850000D01*
X140713542Y-70660072D01*
X140671916Y-70531962D01*
X140656569Y-70484728D01*
X140656568Y-70484726D01*
X140654527Y-70478444D01*
X140559040Y-70313056D01*
X140431253Y-70171134D01*
X140425911Y-70167253D01*
X140425908Y-70167250D01*
X140330099Y-70097641D01*
X140276752Y-70058882D01*
X140102288Y-69981206D01*
X140095835Y-69979834D01*
X140095831Y-69979833D01*
X139921943Y-69942872D01*
X139921940Y-69942871D01*
X139915487Y-69941500D01*
X139724513Y-69941500D01*
X139718060Y-69942871D01*
X139718056Y-69942872D01*
X139544168Y-69979833D01*
X139544161Y-69979835D01*
X139537712Y-69981206D01*
X139531682Y-69983890D01*
X139531681Y-69983891D01*
X139369278Y-70056197D01*
X139369275Y-70056198D01*
X139363248Y-70058882D01*
X139357909Y-70062760D01*
X139357902Y-70062765D01*
X139351472Y-70067437D01*
X139316348Y-70085333D01*
X139277413Y-70091500D01*
X139186371Y-70091500D01*
X139138153Y-70081909D01*
X139097276Y-70054595D01*
X138881951Y-69839270D01*
X138850102Y-69785509D01*
X138847999Y-69723057D01*
X138876159Y-69667275D01*
X138927657Y-69631881D01*
X138989823Y-69625582D01*
X139208219Y-69658500D01*
X139467065Y-69658500D01*
X139471781Y-69658500D01*
X139732400Y-69619218D01*
X139984254Y-69541532D01*
X140221715Y-69427176D01*
X140439481Y-69278706D01*
X140632686Y-69099438D01*
X140797015Y-68893376D01*
X140928796Y-68665124D01*
X141025087Y-68419780D01*
X141083735Y-68162826D01*
X141098500Y-67965800D01*
X141098500Y-66334200D01*
X141083735Y-66137174D01*
X141025087Y-65880220D01*
X140954890Y-65701362D01*
X140930520Y-65639268D01*
X140930518Y-65639265D01*
X140928796Y-65634876D01*
X140923671Y-65626000D01*
X140799370Y-65410703D01*
X140797015Y-65406624D01*
X140640465Y-65210317D01*
X140635620Y-65204241D01*
X140635619Y-65204240D01*
X140632686Y-65200562D01*
X140534012Y-65109006D01*
X140442936Y-65024499D01*
X140442930Y-65024494D01*
X140439481Y-65021294D01*
X140435588Y-65018639D01*
X140435582Y-65018635D01*
X140225612Y-64875480D01*
X140225609Y-64875478D01*
X140221716Y-64872824D01*
X140217475Y-64870781D01*
X140217467Y-64870777D01*
X139988503Y-64760514D01*
X139988500Y-64760513D01*
X139984254Y-64758468D01*
X139979756Y-64757080D01*
X139979747Y-64757077D01*
X139736901Y-64682170D01*
X139736896Y-64682168D01*
X139732400Y-64680782D01*
X139727746Y-64680080D01*
X139727744Y-64680080D01*
X139476442Y-64642202D01*
X139476434Y-64642201D01*
X139471781Y-64641500D01*
X139208219Y-64641500D01*
X139203566Y-64642201D01*
X139203557Y-64642202D01*
X138952255Y-64680080D01*
X138952250Y-64680081D01*
X138947600Y-64680782D01*
X138943106Y-64682168D01*
X138943098Y-64682170D01*
X138700254Y-64757077D01*
X138700248Y-64757079D01*
X138695746Y-64758468D01*
X138691510Y-64760507D01*
X138691497Y-64760513D01*
X138462536Y-64870776D01*
X138462527Y-64870780D01*
X138458285Y-64872824D01*
X138454386Y-64875482D01*
X138454383Y-64875484D01*
X138244417Y-65018636D01*
X138244413Y-65018638D01*
X138240519Y-65021294D01*
X138237076Y-65024488D01*
X138237063Y-65024499D01*
X138050763Y-65197361D01*
X138050757Y-65197366D01*
X138047314Y-65200562D01*
X138044386Y-65204232D01*
X138044379Y-65204241D01*
X137885920Y-65402943D01*
X137885917Y-65402947D01*
X137882985Y-65406624D01*
X137880635Y-65410693D01*
X137880629Y-65410703D01*
X137753563Y-65630788D01*
X137753556Y-65630800D01*
X137751204Y-65634876D01*
X137749485Y-65639253D01*
X137749479Y-65639268D01*
X137656637Y-65875826D01*
X137656635Y-65875832D01*
X137654913Y-65880220D01*
X137653864Y-65884815D01*
X137653863Y-65884819D01*
X137604295Y-66101994D01*
X137596265Y-66137174D01*
X137595912Y-66141873D01*
X137595912Y-66141879D01*
X137581675Y-66331857D01*
X137581674Y-66331872D01*
X137581500Y-66334200D01*
X137581500Y-67965800D01*
X137581674Y-67968128D01*
X137581675Y-67968142D01*
X137595912Y-68158120D01*
X137596265Y-68162826D01*
X137597313Y-68167419D01*
X137597315Y-68167430D01*
X137614509Y-68242760D01*
X137612345Y-68307035D01*
X137578742Y-68361869D01*
X137522455Y-68392978D01*
X137458147Y-68392256D01*
X137402573Y-68359892D01*
X135001909Y-65959228D01*
X134989936Y-65945374D01*
X134979850Y-65931826D01*
X134979847Y-65931823D01*
X134975469Y-65925942D01*
X134969849Y-65921226D01*
X134969846Y-65921223D01*
X134937128Y-65893769D01*
X134929024Y-65886343D01*
X134927694Y-65885013D01*
X134927693Y-65885012D01*
X134925101Y-65882420D01*
X134922235Y-65880153D01*
X134922224Y-65880144D01*
X134900530Y-65862991D01*
X134897708Y-65860692D01*
X134839640Y-65811968D01*
X134833082Y-65808674D01*
X134830260Y-65806818D01*
X134829915Y-65806568D01*
X134829537Y-65806358D01*
X134826664Y-65804586D01*
X134820906Y-65800033D01*
X134752201Y-65767994D01*
X134748909Y-65766401D01*
X134734548Y-65759189D01*
X134681188Y-65732391D01*
X134674054Y-65730700D01*
X134670886Y-65729547D01*
X134670484Y-65729380D01*
X134670080Y-65729266D01*
X134666854Y-65728197D01*
X134660206Y-65725097D01*
X134615560Y-65715878D01*
X134585942Y-65709762D01*
X134582366Y-65708969D01*
X134515794Y-65693191D01*
X134515787Y-65693190D01*
X134508656Y-65691500D01*
X134501321Y-65691500D01*
X134497983Y-65691110D01*
X134497536Y-65691038D01*
X134497124Y-65691020D01*
X134493738Y-65690723D01*
X134486558Y-65689241D01*
X134479230Y-65689454D01*
X134479228Y-65689454D01*
X134410742Y-65691447D01*
X134407077Y-65691500D01*
X117099441Y-65691500D01*
X117035423Y-65674025D01*
X116989163Y-65626448D01*
X116973491Y-65561966D01*
X116992754Y-65498464D01*
X117053043Y-65402515D01*
X117074742Y-65340498D01*
X117115111Y-65283602D01*
X117179562Y-65256904D01*
X117301047Y-65243217D01*
X117473015Y-65183043D01*
X117627281Y-65086111D01*
X117756111Y-64957281D01*
X117853043Y-64803015D01*
X117913217Y-64631047D01*
X117933616Y-64450000D01*
X117931554Y-64431702D01*
X117940358Y-64369365D01*
X117970498Y-64329328D01*
X117968781Y-64327611D01*
X118028204Y-64268188D01*
X118097611Y-64198781D01*
X118194543Y-64044515D01*
X118254717Y-63872547D01*
X118275116Y-63691500D01*
X118254717Y-63510453D01*
X118194543Y-63338485D01*
X118141793Y-63254535D01*
X118122531Y-63191034D01*
X118138203Y-63126552D01*
X118184463Y-63078975D01*
X118248481Y-63061500D01*
X122168864Y-63061500D01*
X122185307Y-63062577D01*
X122217000Y-63066750D01*
X122256880Y-63061500D01*
X122256885Y-63061500D01*
X122363013Y-63047528D01*
X122375851Y-63045838D01*
X122523876Y-62984524D01*
X122619072Y-62911477D01*
X122619074Y-62911474D01*
X122650987Y-62886987D01*
X122670457Y-62861611D01*
X122681309Y-62849238D01*
X124862404Y-60668144D01*
X124912564Y-60637406D01*
X124971211Y-60632790D01*
X125025561Y-60655303D01*
X125063767Y-60700036D01*
X125077500Y-60757239D01*
X125077500Y-62238638D01*
X125077859Y-62241985D01*
X125077860Y-62241988D01*
X125083168Y-62291367D01*
X125083169Y-62291373D01*
X125084011Y-62299201D01*
X125086762Y-62306578D01*
X125086763Y-62306580D01*
X125131962Y-62427763D01*
X125131964Y-62427766D01*
X125135111Y-62436204D01*
X125140508Y-62443414D01*
X125140510Y-62443417D01*
X125217340Y-62546049D01*
X125222739Y-62553261D01*
X125229950Y-62558659D01*
X125327969Y-62632036D01*
X125339796Y-62640889D01*
X125476799Y-62691989D01*
X125537362Y-62698500D01*
X127231269Y-62698500D01*
X127234638Y-62698500D01*
X127295201Y-62691989D01*
X127432204Y-62640889D01*
X127549261Y-62553261D01*
X127636889Y-62436204D01*
X127687989Y-62299201D01*
X127694500Y-62238638D01*
X127694500Y-60415595D01*
X127704091Y-60367377D01*
X127731404Y-60326500D01*
X127866911Y-60190993D01*
X128284887Y-59773016D01*
X128340144Y-59740742D01*
X128404132Y-59739775D01*
X128460342Y-59770368D01*
X128494273Y-59824627D01*
X128506364Y-59863429D01*
X128512574Y-59877225D01*
X128593637Y-60011320D01*
X128602973Y-60023236D01*
X128713763Y-60134026D01*
X128725679Y-60143362D01*
X128859774Y-60224425D01*
X128873565Y-60230632D01*
X129024081Y-60277535D01*
X129037078Y-60280121D01*
X129098925Y-60285741D01*
X129104637Y-60286000D01*
X129163410Y-60286000D01*
X129176493Y-60282493D01*
X129180000Y-60269410D01*
X129180000Y-60269409D01*
X129688000Y-60269409D01*
X129691506Y-60282492D01*
X129704590Y-60285999D01*
X129763361Y-60285999D01*
X129769077Y-60285739D01*
X129830912Y-60280121D01*
X129843926Y-60277533D01*
X129994434Y-60230632D01*
X130008225Y-60224425D01*
X130131339Y-60150000D01*
X140406835Y-60150000D01*
X140407223Y-60154930D01*
X140425076Y-60381777D01*
X140425077Y-60381785D01*
X140425465Y-60386711D01*
X140426619Y-60391519D01*
X140426620Y-60391523D01*
X140479739Y-60612781D01*
X140479740Y-60612786D01*
X140480895Y-60617594D01*
X140482788Y-60622164D01*
X140482789Y-60622167D01*
X140489207Y-60637662D01*
X140571760Y-60836963D01*
X140695824Y-61039416D01*
X140699031Y-61043171D01*
X140699034Y-61043175D01*
X140799356Y-61160636D01*
X140850031Y-61219969D01*
X140879417Y-61245067D01*
X141026586Y-61370762D01*
X141030584Y-61374176D01*
X141233037Y-61498240D01*
X141452406Y-61589105D01*
X141683289Y-61644535D01*
X141920000Y-61663165D01*
X142156711Y-61644535D01*
X142387594Y-61589105D01*
X142606963Y-61498240D01*
X142809416Y-61374176D01*
X142989969Y-61219969D01*
X143144176Y-61039416D01*
X143268240Y-60836963D01*
X143359105Y-60617594D01*
X143414535Y-60386711D01*
X143433165Y-60150000D01*
X145406835Y-60150000D01*
X145407223Y-60154930D01*
X145425076Y-60381777D01*
X145425077Y-60381785D01*
X145425465Y-60386711D01*
X145426619Y-60391519D01*
X145426620Y-60391523D01*
X145479739Y-60612781D01*
X145479740Y-60612786D01*
X145480895Y-60617594D01*
X145482788Y-60622164D01*
X145482789Y-60622167D01*
X145489207Y-60637662D01*
X145571760Y-60836963D01*
X145695824Y-61039416D01*
X145699031Y-61043171D01*
X145699034Y-61043175D01*
X145799356Y-61160636D01*
X145850031Y-61219969D01*
X145879417Y-61245067D01*
X146026586Y-61370762D01*
X146030584Y-61374176D01*
X146233037Y-61498240D01*
X146452406Y-61589105D01*
X146683289Y-61644535D01*
X146920000Y-61663165D01*
X147156711Y-61644535D01*
X147387594Y-61589105D01*
X147606963Y-61498240D01*
X147809416Y-61374176D01*
X147989969Y-61219969D01*
X148144176Y-61039416D01*
X148268240Y-60836963D01*
X148359105Y-60617594D01*
X148414535Y-60386711D01*
X148433165Y-60150000D01*
X148414535Y-59913289D01*
X148359105Y-59682406D01*
X148268240Y-59463037D01*
X148144176Y-59260584D01*
X148135136Y-59250000D01*
X147996226Y-59087357D01*
X147989969Y-59080031D01*
X147962494Y-59056565D01*
X147813175Y-58929034D01*
X147813171Y-58929031D01*
X147809416Y-58925824D01*
X147606963Y-58801760D01*
X147497772Y-58756532D01*
X147392167Y-58712789D01*
X147392164Y-58712788D01*
X147387594Y-58710895D01*
X147382786Y-58709740D01*
X147382781Y-58709739D01*
X147161523Y-58656620D01*
X147161519Y-58656619D01*
X147156711Y-58655465D01*
X147151785Y-58655077D01*
X147151777Y-58655076D01*
X146924930Y-58637223D01*
X146920000Y-58636835D01*
X146915070Y-58637223D01*
X146688222Y-58655076D01*
X146688212Y-58655077D01*
X146683289Y-58655465D01*
X146678482Y-58656619D01*
X146678476Y-58656620D01*
X146457218Y-58709739D01*
X146457209Y-58709741D01*
X146452406Y-58710895D01*
X146447838Y-58712786D01*
X146447832Y-58712789D01*
X146237611Y-58799865D01*
X146237606Y-58799867D01*
X146233037Y-58801760D01*
X146228817Y-58804345D01*
X146228817Y-58804346D01*
X146034798Y-58923241D01*
X146034792Y-58923245D01*
X146030584Y-58925824D01*
X146026834Y-58929026D01*
X146026824Y-58929034D01*
X145853786Y-59076823D01*
X145853779Y-59076829D01*
X145850031Y-59080031D01*
X145846829Y-59083779D01*
X145846823Y-59083786D01*
X145699034Y-59256824D01*
X145699026Y-59256834D01*
X145695824Y-59260584D01*
X145693245Y-59264792D01*
X145693241Y-59264798D01*
X145586559Y-59438888D01*
X145571760Y-59463037D01*
X145569867Y-59467606D01*
X145569865Y-59467611D01*
X145482789Y-59677832D01*
X145482786Y-59677838D01*
X145480895Y-59682406D01*
X145479741Y-59687209D01*
X145479739Y-59687218D01*
X145435703Y-59870643D01*
X145425465Y-59913289D01*
X145425077Y-59918212D01*
X145425076Y-59918222D01*
X145410101Y-60108500D01*
X145406835Y-60150000D01*
X143433165Y-60150000D01*
X143414535Y-59913289D01*
X143359105Y-59682406D01*
X143268240Y-59463037D01*
X143144176Y-59260584D01*
X143135136Y-59250000D01*
X142996226Y-59087357D01*
X142989969Y-59080031D01*
X142962494Y-59056565D01*
X142813175Y-58929034D01*
X142813171Y-58929031D01*
X142809416Y-58925824D01*
X142606963Y-58801760D01*
X142497772Y-58756532D01*
X142392167Y-58712789D01*
X142392164Y-58712788D01*
X142387594Y-58710895D01*
X142382786Y-58709740D01*
X142382781Y-58709739D01*
X142161523Y-58656620D01*
X142161519Y-58656619D01*
X142156711Y-58655465D01*
X142151785Y-58655077D01*
X142151777Y-58655076D01*
X141924930Y-58637223D01*
X141920000Y-58636835D01*
X141915070Y-58637223D01*
X141688222Y-58655076D01*
X141688212Y-58655077D01*
X141683289Y-58655465D01*
X141678482Y-58656619D01*
X141678476Y-58656620D01*
X141457218Y-58709739D01*
X141457209Y-58709741D01*
X141452406Y-58710895D01*
X141447838Y-58712786D01*
X141447832Y-58712789D01*
X141237611Y-58799865D01*
X141237606Y-58799867D01*
X141233037Y-58801760D01*
X141228817Y-58804345D01*
X141228817Y-58804346D01*
X141034798Y-58923241D01*
X141034792Y-58923245D01*
X141030584Y-58925824D01*
X141026834Y-58929026D01*
X141026824Y-58929034D01*
X140853786Y-59076823D01*
X140853779Y-59076829D01*
X140850031Y-59080031D01*
X140846829Y-59083779D01*
X140846823Y-59083786D01*
X140699034Y-59256824D01*
X140699026Y-59256834D01*
X140695824Y-59260584D01*
X140693245Y-59264792D01*
X140693241Y-59264798D01*
X140586559Y-59438888D01*
X140571760Y-59463037D01*
X140569867Y-59467606D01*
X140569865Y-59467611D01*
X140482789Y-59677832D01*
X140482786Y-59677838D01*
X140480895Y-59682406D01*
X140479741Y-59687209D01*
X140479739Y-59687218D01*
X140435703Y-59870643D01*
X140425465Y-59913289D01*
X140425077Y-59918212D01*
X140425076Y-59918222D01*
X140410101Y-60108500D01*
X140406835Y-60150000D01*
X130131339Y-60150000D01*
X130142320Y-60143362D01*
X130154236Y-60134026D01*
X130265026Y-60023236D01*
X130274362Y-60011320D01*
X130355425Y-59877225D01*
X130361632Y-59863434D01*
X130408535Y-59712918D01*
X130411121Y-59699921D01*
X130416093Y-59645205D01*
X130413493Y-59635506D01*
X130400410Y-59632000D01*
X129704590Y-59632000D01*
X129691506Y-59635506D01*
X129688000Y-59648590D01*
X129688000Y-60269409D01*
X129180000Y-60269409D01*
X129180000Y-59250000D01*
X129196881Y-59187000D01*
X129243000Y-59140881D01*
X129306000Y-59124000D01*
X130400409Y-59124000D01*
X130413492Y-59120493D01*
X130416092Y-59110794D01*
X130411121Y-59056087D01*
X130408533Y-59043073D01*
X130361632Y-58892565D01*
X130355425Y-58878774D01*
X130274362Y-58744679D01*
X130265026Y-58732763D01*
X130174712Y-58642449D01*
X130142100Y-58585965D01*
X130142100Y-58520743D01*
X130174712Y-58464259D01*
X130207020Y-58431951D01*
X130270816Y-58368155D01*
X130359827Y-58220913D01*
X130411013Y-58056649D01*
X130417500Y-57985265D01*
X130417499Y-57470736D01*
X130411013Y-57399351D01*
X130359827Y-57235087D01*
X130270816Y-57087845D01*
X130265423Y-57082452D01*
X130260727Y-57076458D01*
X130261943Y-57075504D01*
X130235966Y-57032461D01*
X130232450Y-56972072D01*
X130257483Y-56917003D01*
X130258091Y-56916233D01*
X130263285Y-56911040D01*
X130353302Y-56765101D01*
X130407236Y-56602336D01*
X130417500Y-56501872D01*
X130417500Y-55954128D01*
X130407236Y-55853664D01*
X130353302Y-55690899D01*
X130263285Y-55544960D01*
X130258091Y-55539766D01*
X130253546Y-55534018D01*
X130255063Y-55532817D01*
X130227808Y-55485611D01*
X130227808Y-55420389D01*
X130255063Y-55373182D01*
X130253546Y-55371982D01*
X130258090Y-55366234D01*
X130263285Y-55361040D01*
X130353302Y-55215101D01*
X130407236Y-55052336D01*
X130417500Y-54951872D01*
X130417500Y-54900000D01*
X149706384Y-54900000D01*
X149707176Y-54907029D01*
X149721639Y-55035397D01*
X149726783Y-55081047D01*
X149729118Y-55087720D01*
X149729119Y-55087724D01*
X149784619Y-55246335D01*
X149784621Y-55246339D01*
X149786957Y-55253015D01*
X149790719Y-55259003D01*
X149790721Y-55259006D01*
X149862463Y-55373183D01*
X149883889Y-55407281D01*
X150012719Y-55536111D01*
X150018713Y-55539877D01*
X150018714Y-55539878D01*
X150086125Y-55582235D01*
X150166985Y-55633043D01*
X150338953Y-55693217D01*
X150520000Y-55713616D01*
X150701047Y-55693217D01*
X150873015Y-55633043D01*
X151000699Y-55552813D01*
X151067736Y-55533500D01*
X151357500Y-55533500D01*
X151420500Y-55550381D01*
X151466619Y-55596500D01*
X151483500Y-55659500D01*
X151483500Y-56616502D01*
X151483692Y-56618950D01*
X151483693Y-56618958D01*
X151485637Y-56643664D01*
X151486438Y-56653831D01*
X151488231Y-56660004D01*
X151488232Y-56660007D01*
X151530643Y-56805988D01*
X151532855Y-56813601D01*
X151617547Y-56956807D01*
X151735193Y-57074453D01*
X151878399Y-57159145D01*
X152038169Y-57205562D01*
X152075498Y-57208500D01*
X152506033Y-57208500D01*
X152508502Y-57208500D01*
X152545831Y-57205562D01*
X152705601Y-57159145D01*
X152712430Y-57155106D01*
X152716958Y-57153147D01*
X152767000Y-57142784D01*
X152817042Y-57153147D01*
X152821570Y-57155106D01*
X152828399Y-57159145D01*
X152988169Y-57205562D01*
X153025498Y-57208500D01*
X153456033Y-57208500D01*
X153458502Y-57208500D01*
X153495831Y-57205562D01*
X153655601Y-57159145D01*
X153662430Y-57155106D01*
X153666958Y-57153147D01*
X153717000Y-57142784D01*
X153767042Y-57153147D01*
X153771570Y-57155106D01*
X153778399Y-57159145D01*
X153927807Y-57202551D01*
X153979318Y-57232085D01*
X154011583Y-57281932D01*
X154030619Y-57336335D01*
X154032957Y-57343015D01*
X154036719Y-57349003D01*
X154036721Y-57349006D01*
X154122808Y-57486013D01*
X154129889Y-57497281D01*
X154258719Y-57626111D01*
X154264713Y-57629877D01*
X154264714Y-57629878D01*
X154280043Y-57639510D01*
X154412985Y-57723043D01*
X154584953Y-57783217D01*
X154766000Y-57803616D01*
X154947047Y-57783217D01*
X155119015Y-57723043D01*
X155273281Y-57626111D01*
X155402111Y-57497281D01*
X155499043Y-57343015D01*
X155559217Y-57171047D01*
X155579616Y-56990000D01*
X155559217Y-56808953D01*
X155499043Y-56636985D01*
X155481371Y-56608861D01*
X155418813Y-56509300D01*
X155399500Y-56442264D01*
X155399500Y-56102767D01*
X155400027Y-56091583D01*
X155401702Y-56084091D01*
X155399562Y-56016014D01*
X155399500Y-56012055D01*
X155399500Y-55988108D01*
X155399500Y-55984144D01*
X155398994Y-55980147D01*
X155398061Y-55968297D01*
X155396673Y-55924110D01*
X155391020Y-55904656D01*
X155387012Y-55885297D01*
X155386504Y-55881278D01*
X155384474Y-55865203D01*
X155368197Y-55824093D01*
X155364351Y-55812860D01*
X155362794Y-55807500D01*
X155352018Y-55770407D01*
X155341707Y-55752973D01*
X155333008Y-55735215D01*
X155328469Y-55723751D01*
X155326099Y-55717765D01*
X159315788Y-55717765D01*
X159316290Y-55722332D01*
X159316291Y-55722344D01*
X159344910Y-55982444D01*
X159344911Y-55982453D01*
X159345414Y-55987018D01*
X159346576Y-55991463D01*
X159346577Y-55991468D01*
X159384556Y-56136739D01*
X159413928Y-56249088D01*
X159415725Y-56253318D01*
X159415728Y-56253325D01*
X159482648Y-56410799D01*
X159519870Y-56498390D01*
X159522265Y-56502315D01*
X159522266Y-56502316D01*
X159614734Y-56653831D01*
X159660982Y-56729610D01*
X159663917Y-56733137D01*
X159663918Y-56733138D01*
X159811968Y-56911040D01*
X159834255Y-56937820D01*
X159929177Y-57022870D01*
X160032561Y-57115503D01*
X160032565Y-57115506D01*
X160035998Y-57118582D01*
X160261910Y-57268044D01*
X160507176Y-57383020D01*
X160766569Y-57461060D01*
X161034561Y-57500500D01*
X161235330Y-57500500D01*
X161237631Y-57500500D01*
X161440156Y-57485677D01*
X161704553Y-57426780D01*
X161957558Y-57330014D01*
X162193777Y-57197441D01*
X162408177Y-57031888D01*
X162596186Y-56836881D01*
X162753799Y-56616579D01*
X162877656Y-56375675D01*
X162965118Y-56119305D01*
X163014319Y-55852933D01*
X163022121Y-55639460D01*
X163024044Y-55586837D01*
X163024043Y-55586834D01*
X163024212Y-55582235D01*
X162994586Y-55312982D01*
X162926072Y-55050912D01*
X162820130Y-54801610D01*
X162679018Y-54570390D01*
X162505745Y-54362180D01*
X162409635Y-54276065D01*
X162307438Y-54184496D01*
X162307432Y-54184491D01*
X162304002Y-54181418D01*
X162189051Y-54105367D01*
X162081925Y-54034493D01*
X162081922Y-54034491D01*
X162078090Y-54031956D01*
X162012496Y-54001207D01*
X161906101Y-53951331D01*
X161832824Y-53916980D01*
X161798256Y-53906580D01*
X161577843Y-53840267D01*
X161577838Y-53840265D01*
X161573431Y-53838940D01*
X161568874Y-53838269D01*
X161568868Y-53838268D01*
X161310000Y-53800171D01*
X161309996Y-53800170D01*
X161305439Y-53799500D01*
X161102369Y-53799500D01*
X161100098Y-53799666D01*
X161100076Y-53799667D01*
X160904438Y-53813986D01*
X160904427Y-53813987D01*
X160899844Y-53814323D01*
X160895353Y-53815323D01*
X160895349Y-53815324D01*
X160639939Y-53872219D01*
X160639934Y-53872220D01*
X160635447Y-53873220D01*
X160631149Y-53874863D01*
X160631145Y-53874865D01*
X160386746Y-53968339D01*
X160386735Y-53968343D01*
X160382442Y-53969986D01*
X160378434Y-53972235D01*
X160378422Y-53972241D01*
X160150232Y-54100308D01*
X160150221Y-54100314D01*
X160146223Y-54102559D01*
X160142589Y-54105364D01*
X160142586Y-54105367D01*
X159935466Y-54265298D01*
X159935458Y-54265305D01*
X159931823Y-54268112D01*
X159928632Y-54271421D01*
X159928625Y-54271428D01*
X159747011Y-54459802D01*
X159747004Y-54459809D01*
X159743814Y-54463119D01*
X159741136Y-54466861D01*
X159741131Y-54466868D01*
X159588885Y-54679668D01*
X159588878Y-54679677D01*
X159586201Y-54683421D01*
X159584097Y-54687512D01*
X159584091Y-54687523D01*
X159464453Y-54920222D01*
X159462344Y-54924325D01*
X159460856Y-54928684D01*
X159460854Y-54928691D01*
X159376371Y-55176327D01*
X159376367Y-55176341D01*
X159374882Y-55180695D01*
X159374044Y-55185228D01*
X159374044Y-55185231D01*
X159326517Y-55442537D01*
X159326515Y-55442546D01*
X159325681Y-55447067D01*
X159325513Y-55451656D01*
X159325512Y-55451668D01*
X159315956Y-55713161D01*
X159315788Y-55717765D01*
X155326099Y-55717765D01*
X155325552Y-55716383D01*
X155299561Y-55680610D01*
X155293050Y-55670698D01*
X155270542Y-55632637D01*
X155256218Y-55618313D01*
X155243376Y-55603277D01*
X155236134Y-55593309D01*
X155236131Y-55593306D01*
X155231472Y-55586893D01*
X155214927Y-55573206D01*
X155197405Y-55558710D01*
X155188626Y-55550721D01*
X155014576Y-55376671D01*
X155014576Y-55376670D01*
X155011770Y-55373865D01*
X155008035Y-55370967D01*
X155007685Y-55370596D01*
X155005667Y-55368816D01*
X155005835Y-55368625D01*
X154981050Y-55342232D01*
X154964266Y-55306565D01*
X154951145Y-55261399D01*
X154866453Y-55118193D01*
X154748807Y-55000547D01*
X154744772Y-54998160D01*
X154709984Y-54955427D01*
X154697138Y-54899994D01*
X154709989Y-54844562D01*
X154744774Y-54801837D01*
X154748807Y-54799453D01*
X154866453Y-54681807D01*
X154870491Y-54674978D01*
X154875348Y-54668718D01*
X154878177Y-54670912D01*
X154917641Y-54633663D01*
X154987103Y-54620465D01*
X155052737Y-54646757D01*
X155093876Y-54704262D01*
X155123119Y-54787835D01*
X155123121Y-54787839D01*
X155125457Y-54794515D01*
X155129219Y-54800503D01*
X155129221Y-54800506D01*
X155209765Y-54928691D01*
X155222389Y-54948781D01*
X155351219Y-55077611D01*
X155505485Y-55174543D01*
X155677453Y-55234717D01*
X155858500Y-55255116D01*
X156039547Y-55234717D01*
X156211515Y-55174543D01*
X156365781Y-55077611D01*
X156494611Y-54948781D01*
X156591543Y-54794515D01*
X156651717Y-54622547D01*
X156672116Y-54441500D01*
X156651717Y-54260453D01*
X156591543Y-54088485D01*
X156579434Y-54069214D01*
X156498378Y-53940214D01*
X156498377Y-53940213D01*
X156494611Y-53934219D01*
X156365781Y-53805389D01*
X156359787Y-53801623D01*
X156359785Y-53801621D01*
X156217506Y-53712221D01*
X156217503Y-53712219D01*
X156211515Y-53708457D01*
X156204839Y-53706121D01*
X156204835Y-53706119D01*
X156046227Y-53650620D01*
X156046223Y-53650619D01*
X156039547Y-53648283D01*
X156032523Y-53647491D01*
X156032508Y-53647488D01*
X155995045Y-53643267D01*
X155954484Y-53631582D01*
X155920060Y-53607155D01*
X155870652Y-53557747D01*
X155863111Y-53549461D01*
X155859000Y-53542982D01*
X155840875Y-53525962D01*
X155809347Y-53496355D01*
X155806505Y-53493600D01*
X155789574Y-53476669D01*
X155789574Y-53476668D01*
X155786770Y-53473865D01*
X155783575Y-53471386D01*
X155774554Y-53463682D01*
X155768443Y-53457944D01*
X155742321Y-53433414D01*
X155735377Y-53429596D01*
X155735371Y-53429592D01*
X155724566Y-53423652D01*
X155708047Y-53412801D01*
X155692041Y-53400386D01*
X155684766Y-53397238D01*
X155684763Y-53397236D01*
X155651466Y-53382828D01*
X155640804Y-53377605D01*
X155609007Y-53360124D01*
X155609005Y-53360123D01*
X155602060Y-53356305D01*
X155594383Y-53354334D01*
X155594381Y-53354333D01*
X155582438Y-53351267D01*
X155563734Y-53344863D01*
X155552420Y-53339967D01*
X155552418Y-53339966D01*
X155545145Y-53336819D01*
X155537319Y-53335579D01*
X155537318Y-53335579D01*
X155501475Y-53329902D01*
X155489859Y-53327496D01*
X155447030Y-53316500D01*
X155439101Y-53316500D01*
X155426776Y-53316500D01*
X155407065Y-53314949D01*
X155394885Y-53313019D01*
X155394878Y-53313018D01*
X155387057Y-53311780D01*
X155379173Y-53312525D01*
X155379165Y-53312525D01*
X155343039Y-53315941D01*
X155331181Y-53316500D01*
X155126500Y-53316500D01*
X155063500Y-53299619D01*
X155017381Y-53253500D01*
X155000500Y-53190500D01*
X155000500Y-53185968D01*
X155000500Y-53183498D01*
X154997562Y-53146169D01*
X154951145Y-52986399D01*
X154866453Y-52843193D01*
X154748807Y-52725547D01*
X154715542Y-52705874D01*
X154612426Y-52644891D01*
X154612424Y-52644890D01*
X154605601Y-52640855D01*
X154597989Y-52638643D01*
X154597988Y-52638643D01*
X154452007Y-52596232D01*
X154452004Y-52596231D01*
X154445831Y-52594438D01*
X154439424Y-52593933D01*
X154439420Y-52593933D01*
X154410958Y-52591693D01*
X154410950Y-52591692D01*
X154408502Y-52591500D01*
X153975498Y-52591500D01*
X153973050Y-52591692D01*
X153973041Y-52591693D01*
X153944579Y-52593933D01*
X153944574Y-52593933D01*
X153938169Y-52594438D01*
X153931997Y-52596231D01*
X153931992Y-52596232D01*
X153786011Y-52638643D01*
X153786007Y-52638644D01*
X153778399Y-52640855D01*
X153771578Y-52644888D01*
X153771573Y-52644891D01*
X153642020Y-52721509D01*
X153642017Y-52721511D01*
X153635193Y-52725547D01*
X153629588Y-52731151D01*
X153629584Y-52731155D01*
X153523155Y-52837584D01*
X153523151Y-52837588D01*
X153517547Y-52843193D01*
X153513511Y-52850017D01*
X153513509Y-52850020D01*
X153436891Y-52979573D01*
X153436888Y-52979578D01*
X153432855Y-52986399D01*
X153430644Y-52994007D01*
X153430643Y-52994011D01*
X153388232Y-53139992D01*
X153388231Y-53139997D01*
X153386438Y-53146169D01*
X153383500Y-53183498D01*
X153383500Y-54341502D01*
X153383692Y-54343950D01*
X153383693Y-54343958D01*
X153385405Y-54365714D01*
X153386438Y-54378831D01*
X153388231Y-54385004D01*
X153388232Y-54385007D01*
X153422705Y-54503664D01*
X153432855Y-54538601D01*
X153514327Y-54676363D01*
X153531869Y-54739510D01*
X153515321Y-54802928D01*
X153469158Y-54849454D01*
X153405873Y-54866500D01*
X153078127Y-54866500D01*
X153014842Y-54849454D01*
X152968679Y-54802928D01*
X152952131Y-54739510D01*
X152969672Y-54676363D01*
X153051145Y-54538601D01*
X153097562Y-54378831D01*
X153100500Y-54341502D01*
X153100500Y-53183498D01*
X153097562Y-53146169D01*
X153051145Y-52986399D01*
X152966453Y-52843193D01*
X152848807Y-52725547D01*
X152824107Y-52710939D01*
X152712428Y-52644892D01*
X152712424Y-52644890D01*
X152705601Y-52640855D01*
X152697988Y-52638643D01*
X152690711Y-52635494D01*
X152691401Y-52633898D01*
X152656650Y-52615250D01*
X152625950Y-52575577D01*
X152625043Y-52572985D01*
X152528111Y-52418719D01*
X152399281Y-52289889D01*
X152393287Y-52286123D01*
X152393285Y-52286121D01*
X152251006Y-52196721D01*
X152251003Y-52196719D01*
X152245015Y-52192957D01*
X152238339Y-52190621D01*
X152238335Y-52190619D01*
X152079724Y-52135119D01*
X152079720Y-52135118D01*
X152073047Y-52132783D01*
X151892000Y-52112384D01*
X151884971Y-52113176D01*
X151717981Y-52131991D01*
X151717979Y-52131991D01*
X151710953Y-52132783D01*
X151704280Y-52135117D01*
X151704275Y-52135119D01*
X151545664Y-52190619D01*
X151545656Y-52190622D01*
X151538985Y-52192957D01*
X151533000Y-52196717D01*
X151532993Y-52196721D01*
X151390714Y-52286121D01*
X151390707Y-52286126D01*
X151384719Y-52289889D01*
X151379714Y-52294893D01*
X151379710Y-52294897D01*
X151260897Y-52413710D01*
X151260893Y-52413714D01*
X151255889Y-52418719D01*
X151252126Y-52424707D01*
X151252121Y-52424714D01*
X151162721Y-52566993D01*
X151162717Y-52567000D01*
X151158957Y-52572985D01*
X151156622Y-52579656D01*
X151156619Y-52579664D01*
X151101119Y-52738275D01*
X151101117Y-52738280D01*
X151098783Y-52744953D01*
X151097991Y-52751979D01*
X151097991Y-52751981D01*
X151095548Y-52773664D01*
X151078384Y-52926000D01*
X151098783Y-53107047D01*
X151101118Y-53113720D01*
X151101119Y-53113724D01*
X151156619Y-53272335D01*
X151156621Y-53272339D01*
X151158957Y-53279015D01*
X151162719Y-53285003D01*
X151162721Y-53285006D01*
X151239187Y-53406700D01*
X151258500Y-53473736D01*
X151258500Y-53989856D01*
X151258995Y-53993777D01*
X151258996Y-53993787D01*
X151270904Y-54088042D01*
X151273526Y-54108797D01*
X151274708Y-54111784D01*
X151275987Y-54166053D01*
X151252164Y-54217727D01*
X151208037Y-54253652D01*
X151152605Y-54266500D01*
X151067736Y-54266500D01*
X151000700Y-54247187D01*
X150879006Y-54170721D01*
X150879003Y-54170719D01*
X150873015Y-54166957D01*
X150866339Y-54164621D01*
X150866335Y-54164619D01*
X150707724Y-54109119D01*
X150707720Y-54109118D01*
X150701047Y-54106783D01*
X150693902Y-54105978D01*
X150527029Y-54087176D01*
X150520000Y-54086384D01*
X150512971Y-54087176D01*
X150345981Y-54105991D01*
X150345979Y-54105991D01*
X150338953Y-54106783D01*
X150332280Y-54109117D01*
X150332275Y-54109119D01*
X150173664Y-54164619D01*
X150173656Y-54164622D01*
X150166985Y-54166957D01*
X150161000Y-54170717D01*
X150160993Y-54170721D01*
X150018714Y-54260121D01*
X150018707Y-54260126D01*
X150012719Y-54263889D01*
X150007714Y-54268893D01*
X150007710Y-54268897D01*
X149888897Y-54387710D01*
X149888893Y-54387714D01*
X149883889Y-54392719D01*
X149880126Y-54398707D01*
X149880121Y-54398714D01*
X149790721Y-54540993D01*
X149790717Y-54541000D01*
X149786957Y-54546985D01*
X149784622Y-54553656D01*
X149784619Y-54553664D01*
X149729119Y-54712275D01*
X149729117Y-54712280D01*
X149726783Y-54718953D01*
X149706384Y-54900000D01*
X130417500Y-54900000D01*
X130417500Y-54404128D01*
X130407236Y-54303664D01*
X130353302Y-54140899D01*
X130263285Y-53994960D01*
X130142040Y-53873715D01*
X130085661Y-53838940D01*
X130002343Y-53787548D01*
X130002342Y-53787547D01*
X129996101Y-53783698D01*
X129989139Y-53781391D01*
X129989137Y-53781390D01*
X129839861Y-53731926D01*
X129839859Y-53731925D01*
X129833336Y-53729764D01*
X129826499Y-53729065D01*
X129826497Y-53729065D01*
X129736056Y-53719825D01*
X129736050Y-53719824D01*
X129732872Y-53719500D01*
X129135128Y-53719500D01*
X129131950Y-53719824D01*
X129131943Y-53719825D01*
X129041502Y-53729065D01*
X129041498Y-53729065D01*
X129034664Y-53729764D01*
X129028141Y-53731925D01*
X129028138Y-53731926D01*
X128878862Y-53781390D01*
X128878856Y-53781392D01*
X128871899Y-53783698D01*
X128865656Y-53787548D01*
X128865653Y-53787550D01*
X128829096Y-53810098D01*
X128776363Y-53828140D01*
X128721006Y-53821669D01*
X128673856Y-53791951D01*
X127731405Y-52849500D01*
X127704091Y-52808623D01*
X127694500Y-52760405D01*
X127694500Y-51744731D01*
X127694500Y-51741362D01*
X127687989Y-51680799D01*
X127636889Y-51543796D01*
X127549261Y-51426739D01*
X127542049Y-51421340D01*
X127439417Y-51344510D01*
X127439414Y-51344508D01*
X127432204Y-51339111D01*
X127423766Y-51335964D01*
X127423763Y-51335962D01*
X127302580Y-51290763D01*
X127302578Y-51290762D01*
X127295201Y-51288011D01*
X127287373Y-51287169D01*
X127287367Y-51287168D01*
X127237988Y-51281860D01*
X127237985Y-51281859D01*
X127234638Y-51281500D01*
X125537362Y-51281500D01*
X125534015Y-51281859D01*
X125534011Y-51281860D01*
X125484632Y-51287168D01*
X125484625Y-51287169D01*
X125476799Y-51288011D01*
X125469423Y-51290761D01*
X125469419Y-51290763D01*
X125348236Y-51335962D01*
X125348230Y-51335965D01*
X125339796Y-51339111D01*
X125332588Y-51344506D01*
X125332582Y-51344510D01*
X125229950Y-51421340D01*
X125229946Y-51421343D01*
X125222739Y-51426739D01*
X125217341Y-51433949D01*
X125210967Y-51440324D01*
X125209404Y-51438761D01*
X125162740Y-51473775D01*
X125092236Y-51479069D01*
X124921943Y-51442872D01*
X124921940Y-51442871D01*
X124915487Y-51441500D01*
X124724513Y-51441500D01*
X124718060Y-51442871D01*
X124718056Y-51442872D01*
X124544168Y-51479833D01*
X124544161Y-51479835D01*
X124537712Y-51481206D01*
X124531682Y-51483890D01*
X124531681Y-51483891D01*
X124369278Y-51556197D01*
X124369275Y-51556198D01*
X124363248Y-51558882D01*
X124357907Y-51562762D01*
X124357906Y-51562763D01*
X124214091Y-51667250D01*
X124214083Y-51667256D01*
X124208747Y-51671134D01*
X124204330Y-51676039D01*
X124204325Y-51676044D01*
X124138935Y-51748668D01*
X124080960Y-51813056D01*
X124077661Y-51818769D01*
X124077658Y-51818774D01*
X124044088Y-51876920D01*
X123985473Y-51978444D01*
X123983434Y-51984718D01*
X123983430Y-51984728D01*
X123928497Y-52153794D01*
X123928495Y-52153801D01*
X123926458Y-52160072D01*
X123906496Y-52350000D01*
X123926458Y-52539928D01*
X123928495Y-52546200D01*
X123928497Y-52546205D01*
X123983430Y-52715271D01*
X123983433Y-52715278D01*
X123985473Y-52721556D01*
X124080960Y-52886944D01*
X124208747Y-53028866D01*
X124363248Y-53141118D01*
X124537712Y-53218794D01*
X124724513Y-53258500D01*
X124908884Y-53258500D01*
X124915487Y-53258500D01*
X124923236Y-53256852D01*
X124925309Y-53256413D01*
X124928362Y-53256453D01*
X124928515Y-53256437D01*
X124928516Y-53256455D01*
X124980918Y-53257143D01*
X125030797Y-53281742D01*
X125065226Y-53325418D01*
X125077500Y-53379661D01*
X125077500Y-53838638D01*
X125077859Y-53841985D01*
X125077860Y-53841988D01*
X125083168Y-53891367D01*
X125083169Y-53891373D01*
X125084011Y-53899201D01*
X125086762Y-53906578D01*
X125086763Y-53906580D01*
X125131962Y-54027763D01*
X125131964Y-54027766D01*
X125135111Y-54036204D01*
X125140508Y-54043414D01*
X125140510Y-54043417D01*
X125201847Y-54125353D01*
X125222739Y-54153261D01*
X125239827Y-54166053D01*
X125324079Y-54229124D01*
X125339796Y-54240889D01*
X125476799Y-54291989D01*
X125537362Y-54298500D01*
X127231269Y-54298500D01*
X127234638Y-54298500D01*
X127295201Y-54291989D01*
X127298456Y-54290774D01*
X127359667Y-54292138D01*
X127414348Y-54324252D01*
X128160342Y-55070246D01*
X128167884Y-55078533D01*
X128172000Y-55085018D01*
X128177779Y-55090444D01*
X128177780Y-55090446D01*
X128221667Y-55131658D01*
X128224509Y-55134413D01*
X128244230Y-55154134D01*
X128247414Y-55156604D01*
X128256437Y-55164309D01*
X128288679Y-55194586D01*
X128298222Y-55199832D01*
X128306429Y-55204344D01*
X128322959Y-55215202D01*
X128332694Y-55222754D01*
X128332697Y-55222756D01*
X128338959Y-55227613D01*
X128379536Y-55245172D01*
X128390171Y-55250381D01*
X128428940Y-55271695D01*
X128448566Y-55276734D01*
X128467259Y-55283134D01*
X128485855Y-55291181D01*
X128512673Y-55295428D01*
X128562810Y-55315007D01*
X128595949Y-55349321D01*
X128596310Y-55349036D01*
X128599185Y-55352672D01*
X128600202Y-55353725D01*
X128600855Y-55354784D01*
X128600860Y-55354790D01*
X128604715Y-55361040D01*
X128609909Y-55366234D01*
X128614455Y-55371983D01*
X128612937Y-55373183D01*
X128640192Y-55420389D01*
X128640192Y-55485611D01*
X128612936Y-55532817D01*
X128614454Y-55534018D01*
X128609907Y-55539767D01*
X128604715Y-55544960D01*
X128600861Y-55551206D01*
X128600857Y-55551213D01*
X128595783Y-55559439D01*
X128563294Y-55594722D01*
X128519974Y-55615307D01*
X128472100Y-55618212D01*
X128450191Y-55615328D01*
X128450188Y-55615328D01*
X128442000Y-55614250D01*
X128433812Y-55615328D01*
X128433811Y-55615328D01*
X128402128Y-55619499D01*
X128402102Y-55619501D01*
X128291338Y-55634083D01*
X128291330Y-55634085D01*
X128283150Y-55635162D01*
X128275523Y-55638321D01*
X128275520Y-55638322D01*
X128147608Y-55691304D01*
X128147605Y-55691306D01*
X128135125Y-55696476D01*
X128135123Y-55696477D01*
X128135124Y-55696477D01*
X128127930Y-55701996D01*
X128127926Y-55701999D01*
X128039928Y-55769523D01*
X128039925Y-55769525D01*
X128014559Y-55788989D01*
X128014555Y-55788992D01*
X128008013Y-55794013D01*
X128002992Y-55800555D01*
X128002989Y-55800559D01*
X127988545Y-55819382D01*
X127977681Y-55831768D01*
X123068595Y-60740856D01*
X123018436Y-60771594D01*
X122959789Y-60776210D01*
X122905439Y-60753697D01*
X122867233Y-60708964D01*
X122853500Y-60651761D01*
X122853500Y-60554334D01*
X122853500Y-60551128D01*
X122843236Y-60450664D01*
X122834895Y-60425492D01*
X122828500Y-60385860D01*
X122828500Y-60234500D01*
X122845381Y-60171500D01*
X122891500Y-60125381D01*
X122954500Y-60108500D01*
X122965269Y-60108500D01*
X122968638Y-60108500D01*
X123029201Y-60101989D01*
X123166204Y-60050889D01*
X123283261Y-59963261D01*
X123370889Y-59846204D01*
X123421989Y-59709201D01*
X123428500Y-59648638D01*
X123428500Y-58351362D01*
X123421989Y-58290799D01*
X123370889Y-58153796D01*
X123349713Y-58125508D01*
X123327460Y-58076783D01*
X123327461Y-58023215D01*
X123349714Y-57974489D01*
X123370889Y-57946204D01*
X123421989Y-57809201D01*
X123428500Y-57748638D01*
X123428500Y-56451362D01*
X123421989Y-56390799D01*
X123370889Y-56253796D01*
X123363795Y-56244320D01*
X123288659Y-56143950D01*
X123283261Y-56136739D01*
X123256670Y-56116833D01*
X123173417Y-56054510D01*
X123173414Y-56054508D01*
X123166204Y-56049111D01*
X123157766Y-56045964D01*
X123157763Y-56045962D01*
X123036580Y-56000763D01*
X123036578Y-56000762D01*
X123029201Y-55998011D01*
X123021373Y-55997169D01*
X123021367Y-55997168D01*
X122968638Y-55991500D01*
X122968731Y-55990631D01*
X122912637Y-55972878D01*
X122869271Y-55927120D01*
X122853500Y-55866082D01*
X122853500Y-55753768D01*
X122854027Y-55742584D01*
X122855702Y-55735092D01*
X122853561Y-55667001D01*
X122853500Y-55663044D01*
X122853500Y-55639109D01*
X122853500Y-55635144D01*
X122852995Y-55631152D01*
X122852062Y-55619305D01*
X122851937Y-55615328D01*
X122850674Y-55575111D01*
X122845019Y-55555647D01*
X122841013Y-55536301D01*
X122838474Y-55516203D01*
X122822199Y-55475098D01*
X122818353Y-55463865D01*
X122808229Y-55429018D01*
X122806018Y-55421407D01*
X122795708Y-55403973D01*
X122787007Y-55386213D01*
X122782470Y-55374753D01*
X122782469Y-55374752D01*
X122779552Y-55367383D01*
X122774892Y-55360970D01*
X122771073Y-55354022D01*
X122771915Y-55353558D01*
X122759668Y-55329524D01*
X122753500Y-55290585D01*
X122753500Y-54954334D01*
X122753500Y-54951128D01*
X122743236Y-54850664D01*
X122689302Y-54687899D01*
X122599285Y-54541960D01*
X122478040Y-54420715D01*
X122399742Y-54372420D01*
X122338343Y-54334548D01*
X122338342Y-54334547D01*
X122332101Y-54330698D01*
X122325139Y-54328391D01*
X122325137Y-54328390D01*
X122175861Y-54278926D01*
X122175859Y-54278925D01*
X122169336Y-54276764D01*
X122162499Y-54276065D01*
X122162497Y-54276065D01*
X122072056Y-54266825D01*
X122072050Y-54266824D01*
X122068872Y-54266500D01*
X121521128Y-54266500D01*
X121517950Y-54266824D01*
X121517943Y-54266825D01*
X121427502Y-54276065D01*
X121427498Y-54276065D01*
X121420664Y-54276764D01*
X121414141Y-54278925D01*
X121414138Y-54278926D01*
X121264862Y-54328390D01*
X121264856Y-54328392D01*
X121257899Y-54330698D01*
X121251661Y-54334545D01*
X121251656Y-54334548D01*
X121118207Y-54416861D01*
X121118202Y-54416864D01*
X121111960Y-54420715D01*
X121106768Y-54425906D01*
X121101018Y-54430454D01*
X121099817Y-54428936D01*
X121052611Y-54456192D01*
X120987389Y-54456192D01*
X120940182Y-54428936D01*
X120938982Y-54430454D01*
X120933232Y-54425907D01*
X120928040Y-54420715D01*
X120849742Y-54372420D01*
X120788343Y-54334548D01*
X120788342Y-54334547D01*
X120782101Y-54330698D01*
X120775139Y-54328391D01*
X120775137Y-54328390D01*
X120625861Y-54278926D01*
X120625859Y-54278925D01*
X120619336Y-54276764D01*
X120612499Y-54276065D01*
X120612497Y-54276065D01*
X120522056Y-54266825D01*
X120522050Y-54266824D01*
X120518872Y-54266500D01*
X119971128Y-54266500D01*
X119967950Y-54266824D01*
X119967943Y-54266825D01*
X119877502Y-54276065D01*
X119877498Y-54276065D01*
X119870664Y-54276764D01*
X119864141Y-54278925D01*
X119864138Y-54278926D01*
X119714862Y-54328390D01*
X119714856Y-54328392D01*
X119707899Y-54330698D01*
X119701661Y-54334545D01*
X119701656Y-54334548D01*
X119568207Y-54416861D01*
X119568202Y-54416864D01*
X119561960Y-54420715D01*
X119556770Y-54425904D01*
X119556766Y-54425908D01*
X119445908Y-54536766D01*
X119445904Y-54536770D01*
X119440715Y-54541960D01*
X119436864Y-54548202D01*
X119436861Y-54548207D01*
X119354548Y-54681656D01*
X119354545Y-54681661D01*
X119350698Y-54687899D01*
X119348392Y-54694856D01*
X119348390Y-54694862D01*
X119311615Y-54805845D01*
X119296764Y-54850664D01*
X119296065Y-54857498D01*
X119296065Y-54857502D01*
X119289658Y-54920222D01*
X119286500Y-54951128D01*
X119286500Y-54954334D01*
X119286500Y-55347831D01*
X119276909Y-55396049D01*
X119230319Y-55508525D01*
X119230317Y-55508528D01*
X119229714Y-55509987D01*
X119227162Y-55516150D01*
X119226085Y-55524327D01*
X119226084Y-55524333D01*
X119212268Y-55629278D01*
X119211500Y-55635115D01*
X119211500Y-55635120D01*
X119206250Y-55675000D01*
X119207328Y-55683188D01*
X119210422Y-55706690D01*
X119211500Y-55723136D01*
X119211500Y-55865500D01*
X119194619Y-55928500D01*
X119148500Y-55974619D01*
X119085500Y-55991500D01*
X119071362Y-55991500D01*
X119068015Y-55991859D01*
X119068011Y-55991860D01*
X119018632Y-55997168D01*
X119018625Y-55997169D01*
X119010799Y-55998011D01*
X119003423Y-56000761D01*
X119003419Y-56000763D01*
X118882236Y-56045962D01*
X118882230Y-56045965D01*
X118873796Y-56049111D01*
X118866588Y-56054506D01*
X118866582Y-56054510D01*
X118763950Y-56131340D01*
X118763946Y-56131343D01*
X118756739Y-56136739D01*
X118751343Y-56143946D01*
X118751340Y-56143950D01*
X118674510Y-56246582D01*
X118674506Y-56246588D01*
X118669111Y-56253796D01*
X118665965Y-56262230D01*
X118665962Y-56262236D01*
X118620763Y-56383419D01*
X118620761Y-56383423D01*
X118618011Y-56390799D01*
X118617169Y-56398625D01*
X118617168Y-56398632D01*
X118612478Y-56442264D01*
X118611500Y-56451362D01*
X118611500Y-56454731D01*
X118611500Y-57545761D01*
X118601909Y-57593979D01*
X118574595Y-57634856D01*
X117992595Y-58216856D01*
X117942436Y-58247594D01*
X117883789Y-58252210D01*
X117829439Y-58229697D01*
X117791233Y-58184964D01*
X117777500Y-58127761D01*
X117777500Y-57964041D01*
X117777500Y-57960274D01*
X117766722Y-57870524D01*
X117769297Y-57870215D01*
X117769297Y-57837785D01*
X117766722Y-57837476D01*
X117769231Y-57816580D01*
X117777500Y-57747726D01*
X117777500Y-57560274D01*
X117766722Y-57470524D01*
X117710399Y-57327700D01*
X117617632Y-57205368D01*
X117607179Y-57197441D01*
X117502163Y-57117805D01*
X117502161Y-57117803D01*
X117495300Y-57112601D01*
X117487286Y-57109440D01*
X117487285Y-57109440D01*
X117359993Y-57059242D01*
X117359990Y-57059241D01*
X117352476Y-57056278D01*
X117344453Y-57055314D01*
X117344451Y-57055314D01*
X117266467Y-57045949D01*
X117266462Y-57045948D01*
X117262726Y-57045500D01*
X117258959Y-57045500D01*
X116728500Y-57045500D01*
X116665500Y-57028619D01*
X116619381Y-56982500D01*
X116602500Y-56919500D01*
X116602500Y-55634154D01*
X116618222Y-55573206D01*
X116661463Y-55527467D01*
X116664961Y-55525269D01*
X116727281Y-55486111D01*
X116856111Y-55357281D01*
X116953043Y-55203015D01*
X117013217Y-55031047D01*
X117033616Y-54850000D01*
X117013217Y-54668953D01*
X116953043Y-54496985D01*
X116878802Y-54378831D01*
X116859878Y-54348714D01*
X116859877Y-54348713D01*
X116856111Y-54342719D01*
X116841065Y-54327673D01*
X116808454Y-54271190D01*
X116808453Y-54205968D01*
X116841061Y-54149486D01*
X116869895Y-54120652D01*
X116926376Y-54088043D01*
X116991600Y-54088042D01*
X117058537Y-54105978D01*
X117280000Y-54125353D01*
X117501463Y-54105978D01*
X117716196Y-54048440D01*
X117917677Y-53954488D01*
X118099781Y-53826977D01*
X118256977Y-53669781D01*
X118384488Y-53487677D01*
X118478440Y-53286196D01*
X118535978Y-53071463D01*
X118555353Y-52850000D01*
X118535978Y-52628537D01*
X118478440Y-52413804D01*
X118384488Y-52212324D01*
X118256977Y-52030219D01*
X118099781Y-51873023D01*
X118007130Y-51808148D01*
X117922185Y-51748668D01*
X117922180Y-51748665D01*
X117917677Y-51745512D01*
X117901591Y-51738011D01*
X117721178Y-51653883D01*
X117721176Y-51653882D01*
X117716196Y-51651560D01*
X117685291Y-51643279D01*
X117506776Y-51595445D01*
X117506769Y-51595443D01*
X117501463Y-51594022D01*
X117495989Y-51593543D01*
X117495983Y-51593542D01*
X117285475Y-51575126D01*
X117280000Y-51574647D01*
X117274525Y-51575126D01*
X117064016Y-51593542D01*
X117064008Y-51593543D01*
X117058537Y-51594022D01*
X117053232Y-51595443D01*
X117053223Y-51595445D01*
X116849114Y-51650137D01*
X116849112Y-51650137D01*
X116843804Y-51651560D01*
X116838827Y-51653880D01*
X116838821Y-51653883D01*
X116647311Y-51743186D01*
X116647306Y-51743188D01*
X116642324Y-51745512D01*
X116637824Y-51748662D01*
X116637815Y-51748668D01*
X116464730Y-51869864D01*
X116464727Y-51869866D01*
X116460219Y-51873023D01*
X116456327Y-51876914D01*
X116456321Y-51876920D01*
X116306920Y-52026321D01*
X116306914Y-52026327D01*
X116303023Y-52030219D01*
X116299866Y-52034727D01*
X116299864Y-52034730D01*
X116178668Y-52207815D01*
X116178662Y-52207824D01*
X116175512Y-52212324D01*
X116173188Y-52217306D01*
X116173186Y-52217311D01*
X116124195Y-52322373D01*
X116077700Y-52375390D01*
X116010000Y-52395123D01*
X115942300Y-52375390D01*
X115895805Y-52322373D01*
X115846813Y-52217311D01*
X115844488Y-52212324D01*
X115716977Y-52030219D01*
X115559781Y-51873023D01*
X115467130Y-51808148D01*
X115382185Y-51748668D01*
X115382180Y-51748665D01*
X115377677Y-51745512D01*
X115361591Y-51738011D01*
X115181178Y-51653883D01*
X115181176Y-51653882D01*
X115176196Y-51651560D01*
X115145291Y-51643279D01*
X114966776Y-51595445D01*
X114966769Y-51595443D01*
X114961463Y-51594022D01*
X114955989Y-51593543D01*
X114955983Y-51593542D01*
X114745475Y-51575126D01*
X114740000Y-51574647D01*
X114734525Y-51575126D01*
X114524016Y-51593542D01*
X114524008Y-51593543D01*
X114518537Y-51594022D01*
X114513232Y-51595443D01*
X114513223Y-51595445D01*
X114309114Y-51650137D01*
X114309112Y-51650137D01*
X114303804Y-51651560D01*
X114298827Y-51653880D01*
X114298821Y-51653883D01*
X114107311Y-51743186D01*
X114107306Y-51743188D01*
X114102324Y-51745512D01*
X114097824Y-51748662D01*
X114097815Y-51748668D01*
X113924730Y-51869864D01*
X113924727Y-51869866D01*
X113920219Y-51873023D01*
X113916327Y-51876914D01*
X113916321Y-51876920D01*
X113766920Y-52026321D01*
X113766914Y-52026327D01*
X113763023Y-52030219D01*
X113759866Y-52034727D01*
X113759864Y-52034730D01*
X113638668Y-52207815D01*
X113638662Y-52207824D01*
X113635512Y-52212324D01*
X113633188Y-52217306D01*
X113633186Y-52217311D01*
X113584195Y-52322373D01*
X113537700Y-52375390D01*
X113470000Y-52395123D01*
X113402300Y-52375390D01*
X113355805Y-52322373D01*
X113306813Y-52217311D01*
X113304488Y-52212324D01*
X113176977Y-52030219D01*
X113019781Y-51873023D01*
X112927130Y-51808148D01*
X112842185Y-51748668D01*
X112842180Y-51748665D01*
X112837677Y-51745512D01*
X112821591Y-51738011D01*
X112641178Y-51653883D01*
X112641176Y-51653882D01*
X112636196Y-51651560D01*
X112605291Y-51643279D01*
X112426776Y-51595445D01*
X112426769Y-51595443D01*
X112421463Y-51594022D01*
X112415989Y-51593543D01*
X112415983Y-51593542D01*
X112205475Y-51575126D01*
X112200000Y-51574647D01*
X112194525Y-51575126D01*
X111984016Y-51593542D01*
X111984008Y-51593543D01*
X111978537Y-51594022D01*
X111973232Y-51595443D01*
X111973223Y-51595445D01*
X111769114Y-51650137D01*
X111769112Y-51650137D01*
X111763804Y-51651560D01*
X111758827Y-51653880D01*
X111758821Y-51653883D01*
X111567311Y-51743186D01*
X111567306Y-51743188D01*
X111562324Y-51745512D01*
X111557824Y-51748662D01*
X111557815Y-51748668D01*
X111384730Y-51869864D01*
X111384727Y-51869866D01*
X111380219Y-51873023D01*
X111376327Y-51876914D01*
X111376321Y-51876920D01*
X111226920Y-52026321D01*
X111226914Y-52026327D01*
X111223023Y-52030219D01*
X111219866Y-52034727D01*
X111219864Y-52034730D01*
X111098668Y-52207815D01*
X111098662Y-52207824D01*
X111095512Y-52212324D01*
X111093188Y-52217306D01*
X111093186Y-52217311D01*
X111044195Y-52322373D01*
X110997700Y-52375390D01*
X110930000Y-52395123D01*
X110862300Y-52375390D01*
X110815805Y-52322373D01*
X110766813Y-52217311D01*
X110764488Y-52212324D01*
X110636977Y-52030219D01*
X110479781Y-51873023D01*
X110387130Y-51808148D01*
X110302185Y-51748668D01*
X110302180Y-51748665D01*
X110297677Y-51745512D01*
X110281591Y-51738011D01*
X110101178Y-51653883D01*
X110101176Y-51653882D01*
X110096196Y-51651560D01*
X110065291Y-51643279D01*
X109886776Y-51595445D01*
X109886769Y-51595443D01*
X109881463Y-51594022D01*
X109875989Y-51593543D01*
X109875983Y-51593542D01*
X109665475Y-51575126D01*
X109660000Y-51574647D01*
X109654525Y-51575126D01*
X109444016Y-51593542D01*
X109444008Y-51593543D01*
X109438537Y-51594022D01*
X109433232Y-51595443D01*
X109433223Y-51595445D01*
X109229114Y-51650137D01*
X109229112Y-51650137D01*
X109223804Y-51651560D01*
X109218827Y-51653880D01*
X109218821Y-51653883D01*
X109027311Y-51743186D01*
X109027306Y-51743188D01*
X109022324Y-51745512D01*
X109017824Y-51748662D01*
X109017815Y-51748668D01*
X108844730Y-51869864D01*
X108844727Y-51869866D01*
X108840219Y-51873023D01*
X108836327Y-51876914D01*
X108836321Y-51876920D01*
X108686920Y-52026321D01*
X108686914Y-52026327D01*
X108683023Y-52030219D01*
X108679866Y-52034727D01*
X108679864Y-52034730D01*
X108558668Y-52207815D01*
X108558662Y-52207824D01*
X108555512Y-52212324D01*
X108553188Y-52217306D01*
X108553186Y-52217311D01*
X108463883Y-52408821D01*
X108463880Y-52408827D01*
X108461560Y-52413804D01*
X108460137Y-52419112D01*
X108460137Y-52419114D01*
X108405445Y-52623223D01*
X108405443Y-52623232D01*
X108404022Y-52628537D01*
X108403543Y-52634008D01*
X108403542Y-52634016D01*
X108391325Y-52773664D01*
X108384647Y-52850000D01*
X108385126Y-52855475D01*
X108403542Y-53065983D01*
X108403543Y-53065989D01*
X108404022Y-53071463D01*
X108405443Y-53076769D01*
X108405445Y-53076776D01*
X108443867Y-53220166D01*
X108461560Y-53286196D01*
X108463882Y-53291176D01*
X108463883Y-53291178D01*
X108548136Y-53471860D01*
X108555512Y-53487677D01*
X108558665Y-53492180D01*
X108558668Y-53492185D01*
X108632794Y-53598046D01*
X108683023Y-53669781D01*
X108840219Y-53826977D01*
X108906261Y-53873220D01*
X109001937Y-53940214D01*
X109022323Y-53954488D01*
X109223804Y-54048440D01*
X109438537Y-54105978D01*
X109660000Y-54125353D01*
X109881463Y-54105978D01*
X110096196Y-54048440D01*
X110297677Y-53954488D01*
X110479781Y-53826977D01*
X110636977Y-53669781D01*
X110764488Y-53487677D01*
X110815805Y-53377626D01*
X110862300Y-53324610D01*
X110930000Y-53304877D01*
X110997700Y-53324610D01*
X111044194Y-53377626D01*
X111095512Y-53487677D01*
X111098665Y-53492180D01*
X111098668Y-53492185D01*
X111172794Y-53598046D01*
X111223023Y-53669781D01*
X111380219Y-53826977D01*
X111446261Y-53873220D01*
X111541937Y-53940214D01*
X111562323Y-53954488D01*
X111763804Y-54048440D01*
X111978537Y-54105978D01*
X112200000Y-54125353D01*
X112421463Y-54105978D01*
X112636196Y-54048440D01*
X112837677Y-53954488D01*
X113019781Y-53826977D01*
X113176977Y-53669781D01*
X113304488Y-53487677D01*
X113355805Y-53377626D01*
X113402300Y-53324610D01*
X113470000Y-53304877D01*
X113537700Y-53324610D01*
X113584194Y-53377626D01*
X113635512Y-53487677D01*
X113638665Y-53492180D01*
X113638668Y-53492185D01*
X113712794Y-53598046D01*
X113763023Y-53669781D01*
X113920219Y-53826977D01*
X113986261Y-53873220D01*
X114081937Y-53940214D01*
X114102323Y-53954488D01*
X114303804Y-54048440D01*
X114518537Y-54105978D01*
X114740000Y-54125353D01*
X114912351Y-54110274D01*
X114975331Y-54121026D01*
X115024942Y-54161289D01*
X115048424Y-54220711D01*
X115039739Y-54284012D01*
X115007362Y-54362179D01*
X115007362Y-54362180D01*
X115004322Y-54369518D01*
X115004320Y-54369524D01*
X115001162Y-54377150D01*
X115000084Y-54385334D01*
X115000083Y-54385340D01*
X114989844Y-54463119D01*
X114985500Y-54496115D01*
X114985500Y-54496120D01*
X114980250Y-54536000D01*
X114981328Y-54544188D01*
X114984422Y-54567690D01*
X114985500Y-54584136D01*
X114985500Y-55744500D01*
X114968619Y-55807500D01*
X114922500Y-55853619D01*
X114859500Y-55870500D01*
X114700274Y-55870500D01*
X114696538Y-55870948D01*
X114696532Y-55870949D01*
X114610524Y-55881278D01*
X114610249Y-55878992D01*
X114577688Y-55879009D01*
X114577357Y-55881769D01*
X114491423Y-55871449D01*
X114483916Y-55871000D01*
X114304085Y-55871000D01*
X114296574Y-55871450D01*
X114210643Y-55881769D01*
X114210308Y-55878980D01*
X114177752Y-55878976D01*
X114177476Y-55881278D01*
X114091467Y-55870949D01*
X114091462Y-55870948D01*
X114087726Y-55870500D01*
X113900274Y-55870500D01*
X113896538Y-55870948D01*
X113896532Y-55870949D01*
X113810524Y-55881278D01*
X113810217Y-55878724D01*
X113777783Y-55878719D01*
X113777476Y-55881278D01*
X113691467Y-55870949D01*
X113691462Y-55870948D01*
X113687726Y-55870500D01*
X113500274Y-55870500D01*
X113496538Y-55870948D01*
X113496532Y-55870949D01*
X113410524Y-55881278D01*
X113410217Y-55878724D01*
X113377783Y-55878719D01*
X113377476Y-55881278D01*
X113291467Y-55870949D01*
X113291462Y-55870948D01*
X113287726Y-55870500D01*
X113100274Y-55870500D01*
X113096538Y-55870948D01*
X113096532Y-55870949D01*
X113010524Y-55881278D01*
X113010217Y-55878724D01*
X112977783Y-55878719D01*
X112977476Y-55881278D01*
X112891467Y-55870949D01*
X112891462Y-55870948D01*
X112887726Y-55870500D01*
X112700274Y-55870500D01*
X112696538Y-55870948D01*
X112696532Y-55870949D01*
X112610524Y-55881278D01*
X112610217Y-55878724D01*
X112577783Y-55878719D01*
X112577476Y-55881278D01*
X112491467Y-55870949D01*
X112491462Y-55870948D01*
X112487726Y-55870500D01*
X112300274Y-55870500D01*
X112296538Y-55870948D01*
X112296532Y-55870949D01*
X112210524Y-55881278D01*
X112210217Y-55878724D01*
X112177783Y-55878719D01*
X112177476Y-55881278D01*
X112091467Y-55870949D01*
X112091462Y-55870948D01*
X112087726Y-55870500D01*
X111900274Y-55870500D01*
X111896538Y-55870948D01*
X111896532Y-55870949D01*
X111810524Y-55881278D01*
X111810217Y-55878724D01*
X111777783Y-55878719D01*
X111777476Y-55881278D01*
X111691467Y-55870949D01*
X111691462Y-55870948D01*
X111687726Y-55870500D01*
X111500274Y-55870500D01*
X111496538Y-55870948D01*
X111496532Y-55870949D01*
X111410524Y-55881278D01*
X111410217Y-55878724D01*
X111377783Y-55878719D01*
X111377476Y-55881278D01*
X111291467Y-55870949D01*
X111291462Y-55870948D01*
X111287726Y-55870500D01*
X111100274Y-55870500D01*
X111096538Y-55870948D01*
X111096532Y-55870949D01*
X111010524Y-55881278D01*
X111010249Y-55878992D01*
X110977688Y-55879009D01*
X110977357Y-55881769D01*
X110891423Y-55871449D01*
X110883916Y-55871000D01*
X110704085Y-55871000D01*
X110696574Y-55871450D01*
X110618666Y-55880805D01*
X110603126Y-55884733D01*
X110475967Y-55934878D01*
X110461077Y-55943250D01*
X110382205Y-56003061D01*
X110327480Y-56026831D01*
X110267955Y-56022759D01*
X110216976Y-55991758D01*
X109900218Y-55675000D01*
X109465479Y-55240260D01*
X109454612Y-55227868D01*
X109441186Y-55210370D01*
X109441183Y-55210367D01*
X109436158Y-55203818D01*
X109406023Y-55180695D01*
X109365695Y-55149750D01*
X109365695Y-55149749D01*
X109320822Y-55115317D01*
X109320820Y-55115315D01*
X109314269Y-55110289D01*
X109306642Y-55107129D01*
X109306639Y-55107128D01*
X109179955Y-55054654D01*
X109179954Y-55054653D01*
X109172326Y-55051494D01*
X109164143Y-55050416D01*
X109164137Y-55050415D01*
X109028189Y-55032518D01*
X109020001Y-55031440D01*
X109011813Y-55032518D01*
X108989945Y-55035397D01*
X108973498Y-55036475D01*
X107626551Y-55036475D01*
X107610105Y-55035397D01*
X107580050Y-55031440D01*
X107571862Y-55032518D01*
X107541807Y-55036475D01*
X107541806Y-55036475D01*
X107435914Y-55050415D01*
X107435906Y-55050417D01*
X107427726Y-55051494D01*
X107420099Y-55054653D01*
X107420096Y-55054654D01*
X107359583Y-55079720D01*
X107293411Y-55107128D01*
X107293404Y-55107131D01*
X107285782Y-55110289D01*
X107279233Y-55115313D01*
X107279228Y-55115317D01*
X107234356Y-55149750D01*
X107170438Y-55198795D01*
X107170434Y-55198798D01*
X107163893Y-55203818D01*
X107158872Y-55210360D01*
X107158866Y-55210367D01*
X107145429Y-55227878D01*
X107134565Y-55240265D01*
X106340286Y-56034544D01*
X106327902Y-56045405D01*
X106303843Y-56063868D01*
X106298820Y-56070413D01*
X106298816Y-56070418D01*
X106221699Y-56170921D01*
X106215339Y-56179208D01*
X106215335Y-56179213D01*
X106210314Y-56185758D01*
X106210157Y-56186136D01*
X106181868Y-56218596D01*
X106138669Y-56240403D01*
X106090437Y-56244320D01*
X106027029Y-56237176D01*
X106020000Y-56236384D01*
X106012971Y-56237176D01*
X105845981Y-56255991D01*
X105845979Y-56255991D01*
X105838953Y-56256783D01*
X105832280Y-56259117D01*
X105832275Y-56259119D01*
X105673664Y-56314619D01*
X105673656Y-56314622D01*
X105666985Y-56316957D01*
X105661000Y-56320717D01*
X105660993Y-56320721D01*
X105518714Y-56410121D01*
X105518707Y-56410126D01*
X105512719Y-56413889D01*
X105507715Y-56418893D01*
X105460938Y-56465670D01*
X105403547Y-56498520D01*
X105337423Y-56497782D01*
X105280781Y-56463658D01*
X105252023Y-56410709D01*
X105251495Y-56410906D01*
X105250102Y-56407173D01*
X105249220Y-56405548D01*
X105248741Y-56403524D01*
X105203594Y-56282480D01*
X105195045Y-56266824D01*
X105118302Y-56164307D01*
X105105692Y-56151697D01*
X105037792Y-56100868D01*
X105000629Y-56056400D01*
X104987301Y-56000000D01*
X105000629Y-55943600D01*
X105037792Y-55899132D01*
X105105692Y-55848302D01*
X105118302Y-55835692D01*
X105195045Y-55733175D01*
X105203594Y-55717519D01*
X105248740Y-55596478D01*
X105252337Y-55581257D01*
X105257640Y-55531938D01*
X105258000Y-55525223D01*
X105258000Y-55000590D01*
X105254493Y-54987506D01*
X105241410Y-54984000D01*
X104520590Y-54984000D01*
X104507506Y-54987506D01*
X104504000Y-55000590D01*
X104504000Y-55988000D01*
X104502923Y-55988000D01*
X104502923Y-56012000D01*
X104504000Y-56012000D01*
X104504000Y-58511410D01*
X104507506Y-58524493D01*
X104520590Y-58528000D01*
X104795223Y-58528000D01*
X104801938Y-58527640D01*
X104851257Y-58522337D01*
X104866478Y-58518740D01*
X104987519Y-58473594D01*
X105003175Y-58465045D01*
X105105692Y-58388302D01*
X105118302Y-58375692D01*
X105195045Y-58273175D01*
X105203594Y-58257519D01*
X105248740Y-58136478D01*
X105252337Y-58121257D01*
X105257640Y-58071938D01*
X105258000Y-58065223D01*
X105258000Y-57735582D01*
X105271733Y-57678379D01*
X105309939Y-57633646D01*
X105364289Y-57611133D01*
X105422936Y-57615749D01*
X105473095Y-57646487D01*
X105512719Y-57686111D01*
X105518713Y-57689877D01*
X105518714Y-57689878D01*
X105632777Y-57761549D01*
X105666985Y-57783043D01*
X105714050Y-57799511D01*
X105729715Y-57804993D01*
X105777195Y-57834827D01*
X105807030Y-57882306D01*
X105813309Y-57938028D01*
X105807988Y-57985265D01*
X105806384Y-57999502D01*
X105807176Y-58006531D01*
X105822874Y-58145860D01*
X105826783Y-58180549D01*
X105829118Y-58187222D01*
X105829119Y-58187226D01*
X105884619Y-58345837D01*
X105884621Y-58345841D01*
X105886957Y-58352517D01*
X105890719Y-58358505D01*
X105890721Y-58358508D01*
X105973227Y-58489816D01*
X105983889Y-58506783D01*
X105988897Y-58511791D01*
X106112719Y-58635613D01*
X106111711Y-58636620D01*
X106130669Y-58657756D01*
X106141966Y-58684590D01*
X106143011Y-58684201D01*
X106182180Y-58789216D01*
X106188907Y-58850718D01*
X106165549Y-58908008D01*
X106117738Y-58947273D01*
X106057000Y-58959047D01*
X105997979Y-58940491D01*
X105988346Y-58934550D01*
X105982101Y-58930698D01*
X105975139Y-58928391D01*
X105975137Y-58928390D01*
X105825861Y-58878926D01*
X105825859Y-58878925D01*
X105819336Y-58876764D01*
X105812499Y-58876065D01*
X105812497Y-58876065D01*
X105722056Y-58866825D01*
X105722050Y-58866824D01*
X105718872Y-58866500D01*
X105171128Y-58866500D01*
X105167950Y-58866824D01*
X105167943Y-58866825D01*
X105077502Y-58876065D01*
X105077498Y-58876065D01*
X105070664Y-58876764D01*
X105064141Y-58878925D01*
X105064138Y-58878926D01*
X104914862Y-58928390D01*
X104914856Y-58928392D01*
X104907899Y-58930698D01*
X104901661Y-58934545D01*
X104901656Y-58934548D01*
X104768207Y-59016861D01*
X104768202Y-59016864D01*
X104761960Y-59020715D01*
X104756768Y-59025906D01*
X104751018Y-59030454D01*
X104749898Y-59029038D01*
X104702258Y-59056545D01*
X104637036Y-59056545D01*
X104589879Y-59029318D01*
X104588670Y-59030848D01*
X104571480Y-59017255D01*
X104438132Y-58935005D01*
X104424920Y-58928845D01*
X104275762Y-58879418D01*
X104262398Y-58876557D01*
X104172028Y-58867325D01*
X104165639Y-58867000D01*
X104165590Y-58867000D01*
X104152506Y-58870506D01*
X104149000Y-58883590D01*
X104149000Y-59978000D01*
X104132119Y-60041000D01*
X104086000Y-60087119D01*
X104023000Y-60104000D01*
X102953590Y-60104000D01*
X102940506Y-60107506D01*
X102937000Y-60120590D01*
X102937000Y-60145639D01*
X102937325Y-60152028D01*
X102946557Y-60242398D01*
X102949418Y-60255762D01*
X102998845Y-60404920D01*
X103005005Y-60418132D01*
X103085943Y-60549353D01*
X103104672Y-60612752D01*
X103088726Y-60676907D01*
X103042494Y-60724158D01*
X102978702Y-60741500D01*
X102380115Y-60741500D01*
X102379983Y-60741517D01*
X102379719Y-60741526D01*
X102341492Y-60741526D01*
X102335426Y-60742732D01*
X102335419Y-60742733D01*
X102272296Y-60755287D01*
X102272287Y-60755289D01*
X102266255Y-60756489D01*
X102266137Y-60756504D01*
X102265389Y-60756496D01*
X102262207Y-60757022D01*
X102261182Y-60757157D01*
X102261089Y-60756449D01*
X102259277Y-60756429D01*
X102259555Y-60757822D01*
X102228067Y-60764085D01*
X102187493Y-60772155D01*
X102181784Y-60774519D01*
X102181779Y-60774521D01*
X102048145Y-60829868D01*
X102048138Y-60829871D01*
X102042427Y-60832237D01*
X102037285Y-60835672D01*
X102037280Y-60835675D01*
X102001362Y-60859672D01*
X101955952Y-60878480D01*
X101906801Y-60878484D01*
X101861389Y-60859683D01*
X101825314Y-60835590D01*
X101825315Y-60835590D01*
X101820162Y-60832149D01*
X101779496Y-60815315D01*
X101680770Y-60774447D01*
X101680767Y-60774446D01*
X101675056Y-60772082D01*
X101668995Y-60770878D01*
X101668989Y-60770876D01*
X101602929Y-60757753D01*
X101603202Y-60756375D01*
X101601599Y-60756393D01*
X101601498Y-60757161D01*
X101600966Y-60757091D01*
X101597038Y-60756443D01*
X101596922Y-60756444D01*
X101596901Y-60756555D01*
X101596374Y-60756450D01*
X101596371Y-60756450D01*
X101589862Y-60755157D01*
X101589859Y-60755156D01*
X101527088Y-60742686D01*
X101527083Y-60742685D01*
X101521020Y-60741481D01*
X101514838Y-60741482D01*
X101514833Y-60741482D01*
X101442497Y-60741500D01*
X101259885Y-60741500D01*
X100738136Y-60741500D01*
X100721690Y-60740422D01*
X100698188Y-60737328D01*
X100690000Y-60736250D01*
X100681812Y-60737328D01*
X100681811Y-60737328D01*
X100650128Y-60741499D01*
X100650102Y-60741501D01*
X100539338Y-60756083D01*
X100539330Y-60756085D01*
X100531150Y-60757162D01*
X100523522Y-60760321D01*
X100523520Y-60760322D01*
X100444438Y-60793079D01*
X100390753Y-60815315D01*
X100390747Y-60815318D01*
X100383124Y-60818476D01*
X100376576Y-60823500D01*
X100376575Y-60823501D01*
X100360821Y-60835590D01*
X100287928Y-60891523D01*
X100287925Y-60891525D01*
X100287886Y-60891554D01*
X100287858Y-60891576D01*
X100262559Y-60910989D01*
X100262555Y-60910992D01*
X100256013Y-60916013D01*
X100250992Y-60922555D01*
X100250989Y-60922559D01*
X100236545Y-60941382D01*
X100225681Y-60953768D01*
X97991628Y-63187821D01*
X97939476Y-63219189D01*
X97878704Y-63222452D01*
X97823492Y-63196851D01*
X97786720Y-63148357D01*
X97778284Y-63096405D01*
X97776726Y-63096405D01*
X97776726Y-63091189D01*
X97777156Y-63086000D01*
X97758564Y-62861632D01*
X97731238Y-62753724D01*
X97730817Y-62752062D01*
X97731482Y-62687682D01*
X97763864Y-62632038D01*
X100816493Y-59579410D01*
X102937000Y-59579410D01*
X102940506Y-59592493D01*
X102953590Y-59596000D01*
X103624410Y-59596000D01*
X103637493Y-59592493D01*
X103641000Y-59579410D01*
X103641000Y-58883590D01*
X103637493Y-58870506D01*
X103624410Y-58867000D01*
X103624361Y-58867000D01*
X103617971Y-58867325D01*
X103527601Y-58876557D01*
X103514237Y-58879418D01*
X103365079Y-58928845D01*
X103351867Y-58935005D01*
X103218519Y-59017255D01*
X103207078Y-59026302D01*
X103096302Y-59137078D01*
X103087255Y-59148519D01*
X103005005Y-59281867D01*
X102998845Y-59295079D01*
X102949418Y-59444237D01*
X102946557Y-59457601D01*
X102937325Y-59547971D01*
X102937000Y-59554362D01*
X102937000Y-59579410D01*
X100816493Y-59579410D01*
X101830498Y-58565405D01*
X101871376Y-58538091D01*
X101919594Y-58528500D01*
X102195269Y-58528500D01*
X102198638Y-58528500D01*
X102259201Y-58521989D01*
X102266589Y-58519233D01*
X102271021Y-58518186D01*
X102328979Y-58518186D01*
X102333411Y-58519233D01*
X102340799Y-58521989D01*
X102401362Y-58528500D01*
X103495269Y-58528500D01*
X103498638Y-58528500D01*
X103559201Y-58521989D01*
X103566594Y-58519231D01*
X103572119Y-58517926D01*
X103630081Y-58517926D01*
X103648749Y-58522338D01*
X103698061Y-58527640D01*
X103704777Y-58528000D01*
X103979410Y-58528000D01*
X103992493Y-58524493D01*
X103996000Y-58511410D01*
X103996000Y-56012000D01*
X103997079Y-56012000D01*
X103997079Y-55988000D01*
X103996000Y-55988000D01*
X103996000Y-54459410D01*
X104504000Y-54459410D01*
X104507506Y-54472493D01*
X104520590Y-54476000D01*
X105241410Y-54476000D01*
X105254493Y-54472493D01*
X105258000Y-54459410D01*
X105258000Y-53934777D01*
X105257640Y-53928061D01*
X105252337Y-53878742D01*
X105248740Y-53863521D01*
X105203594Y-53742480D01*
X105195045Y-53726824D01*
X105118302Y-53624307D01*
X105105692Y-53611697D01*
X105003175Y-53534954D01*
X104987519Y-53526405D01*
X104866478Y-53481259D01*
X104851257Y-53477662D01*
X104801938Y-53472359D01*
X104795223Y-53472000D01*
X104520590Y-53472000D01*
X104507506Y-53475506D01*
X104504000Y-53488590D01*
X104504000Y-54459410D01*
X103996000Y-54459410D01*
X103996000Y-53488590D01*
X103992493Y-53475506D01*
X103979410Y-53472000D01*
X103860978Y-53472000D01*
X103803146Y-53457944D01*
X103758217Y-53418913D01*
X103736215Y-53363614D01*
X103741002Y-53315009D01*
X103739306Y-53314622D01*
X103740879Y-53307727D01*
X103743217Y-53301047D01*
X103763616Y-53120000D01*
X103743217Y-52938953D01*
X103683043Y-52766985D01*
X103665003Y-52738275D01*
X103589878Y-52618714D01*
X103589877Y-52618713D01*
X103586111Y-52612719D01*
X103457281Y-52483889D01*
X103451287Y-52480123D01*
X103451285Y-52480121D01*
X103309006Y-52390721D01*
X103309003Y-52390719D01*
X103303015Y-52386957D01*
X103296339Y-52384621D01*
X103296335Y-52384619D01*
X103137724Y-52329119D01*
X103137720Y-52329118D01*
X103131047Y-52326783D01*
X102950000Y-52306384D01*
X102942971Y-52307176D01*
X102775981Y-52325991D01*
X102775979Y-52325991D01*
X102768953Y-52326783D01*
X102762280Y-52329117D01*
X102762275Y-52329119D01*
X102603664Y-52384619D01*
X102603656Y-52384622D01*
X102596985Y-52386957D01*
X102591000Y-52390717D01*
X102590993Y-52390721D01*
X102448714Y-52480121D01*
X102448707Y-52480126D01*
X102442719Y-52483889D01*
X102437714Y-52488893D01*
X102437710Y-52488897D01*
X102318897Y-52607710D01*
X102318893Y-52607714D01*
X102313889Y-52612719D01*
X102310126Y-52618707D01*
X102310121Y-52618714D01*
X102220721Y-52760993D01*
X102220717Y-52761000D01*
X102216957Y-52766985D01*
X102214622Y-52773656D01*
X102214619Y-52773664D01*
X102159119Y-52932275D01*
X102159117Y-52932280D01*
X102156783Y-52938953D01*
X102136384Y-53120000D01*
X102156783Y-53301047D01*
X102159119Y-53307724D01*
X102160694Y-53314622D01*
X102158875Y-53315037D01*
X102163610Y-53363115D01*
X102141607Y-53418414D01*
X102096678Y-53457444D01*
X102038847Y-53471500D01*
X101101362Y-53471500D01*
X101098015Y-53471859D01*
X101098011Y-53471860D01*
X101048632Y-53477168D01*
X101048625Y-53477169D01*
X101040799Y-53478011D01*
X101033423Y-53480761D01*
X101033419Y-53480763D01*
X100912236Y-53525962D01*
X100912230Y-53525965D01*
X100903796Y-53529111D01*
X100896588Y-53534506D01*
X100896582Y-53534510D01*
X100793950Y-53611340D01*
X100793946Y-53611343D01*
X100786739Y-53616739D01*
X100781343Y-53623946D01*
X100781340Y-53623950D01*
X100704510Y-53726582D01*
X100704506Y-53726588D01*
X100699111Y-53733796D01*
X100695965Y-53742230D01*
X100695962Y-53742236D01*
X100650763Y-53863419D01*
X100650761Y-53863423D01*
X100648011Y-53870799D01*
X100647169Y-53878625D01*
X100647168Y-53878632D01*
X100643046Y-53916980D01*
X100641500Y-53931362D01*
X100641500Y-55528638D01*
X100641859Y-55531985D01*
X100641860Y-55531988D01*
X100647168Y-55581367D01*
X100647169Y-55581373D01*
X100648011Y-55589201D01*
X100650762Y-55596578D01*
X100650763Y-55596580D01*
X100695962Y-55717763D01*
X100695963Y-55717765D01*
X100699111Y-55726204D01*
X100704508Y-55733414D01*
X100704510Y-55733417D01*
X100768863Y-55819382D01*
X100786739Y-55843261D01*
X100846228Y-55887794D01*
X100861374Y-55899132D01*
X100898537Y-55943601D01*
X100911864Y-56000000D01*
X100898537Y-56056399D01*
X100861374Y-56100867D01*
X100786739Y-56156739D01*
X100781343Y-56163946D01*
X100781340Y-56163950D01*
X100704510Y-56266582D01*
X100704506Y-56266588D01*
X100699111Y-56273796D01*
X100695965Y-56282230D01*
X100695962Y-56282236D01*
X100650763Y-56403419D01*
X100650761Y-56403423D01*
X100648011Y-56410799D01*
X100647169Y-56418625D01*
X100647168Y-56418632D01*
X100644628Y-56442264D01*
X100641500Y-56471362D01*
X100641500Y-56474731D01*
X100641500Y-57910405D01*
X100631909Y-57958623D01*
X100604595Y-57999500D01*
X98212536Y-60391557D01*
X98158322Y-60423538D01*
X98095403Y-60425303D01*
X98039481Y-60396413D01*
X98004513Y-60344078D01*
X97953043Y-60196985D01*
X97922091Y-60147726D01*
X97859878Y-60048714D01*
X97859877Y-60048713D01*
X97856111Y-60042719D01*
X97727281Y-59913889D01*
X97721287Y-59910123D01*
X97721285Y-59910121D01*
X97579006Y-59820721D01*
X97579003Y-59820719D01*
X97573015Y-59816957D01*
X97566339Y-59814621D01*
X97566335Y-59814619D01*
X97407724Y-59759119D01*
X97407720Y-59759118D01*
X97401047Y-59756783D01*
X97220000Y-59736384D01*
X97212971Y-59737176D01*
X97045981Y-59755991D01*
X97045979Y-59755991D01*
X97038953Y-59756783D01*
X97032281Y-59759117D01*
X97032279Y-59759118D01*
X96957966Y-59785121D01*
X96888314Y-59789032D01*
X96827257Y-59755286D01*
X96790547Y-59718576D01*
X96785155Y-59713184D01*
X96778566Y-59709201D01*
X96644436Y-59628116D01*
X96644434Y-59628115D01*
X96637913Y-59624173D01*
X96585151Y-59607732D01*
X96480013Y-59574970D01*
X96480012Y-59574969D01*
X96473649Y-59572987D01*
X96467016Y-59572384D01*
X96467010Y-59572383D01*
X96405114Y-59566758D01*
X96405094Y-59566757D01*
X96402265Y-59566500D01*
X96399403Y-59566500D01*
X95890599Y-59566500D01*
X95890577Y-59566500D01*
X95887736Y-59566501D01*
X95884887Y-59566759D01*
X95884883Y-59566760D01*
X95822988Y-59572383D01*
X95822979Y-59572384D01*
X95816351Y-59572987D01*
X95809993Y-59574968D01*
X95809989Y-59574969D01*
X95659364Y-59621905D01*
X95659360Y-59621906D01*
X95652087Y-59624173D01*
X95645568Y-59628113D01*
X95645563Y-59628116D01*
X95511368Y-59709240D01*
X95511364Y-59709243D01*
X95504845Y-59713184D01*
X95499456Y-59718572D01*
X95499452Y-59718576D01*
X95409095Y-59808934D01*
X95352611Y-59841546D01*
X95287389Y-59841546D01*
X95230905Y-59808934D01*
X95140547Y-59718576D01*
X95135155Y-59713184D01*
X95128566Y-59709201D01*
X94994436Y-59628116D01*
X94994434Y-59628115D01*
X94987913Y-59624173D01*
X94935151Y-59607732D01*
X94830013Y-59574970D01*
X94830012Y-59574969D01*
X94823649Y-59572987D01*
X94817016Y-59572384D01*
X94817010Y-59572383D01*
X94755114Y-59566758D01*
X94755094Y-59566757D01*
X94752265Y-59566500D01*
X94749403Y-59566500D01*
X94240599Y-59566500D01*
X94240577Y-59566500D01*
X94237736Y-59566501D01*
X94234887Y-59566759D01*
X94234883Y-59566760D01*
X94172988Y-59572383D01*
X94172979Y-59572384D01*
X94166351Y-59572987D01*
X94159993Y-59574968D01*
X94159989Y-59574969D01*
X94009364Y-59621905D01*
X94009360Y-59621906D01*
X94002087Y-59624173D01*
X93995568Y-59628113D01*
X93995563Y-59628116D01*
X93861368Y-59709240D01*
X93861364Y-59709243D01*
X93854845Y-59713184D01*
X93849456Y-59718572D01*
X93849452Y-59718576D01*
X93738576Y-59829452D01*
X93738572Y-59829456D01*
X93733184Y-59834845D01*
X93729243Y-59841364D01*
X93729240Y-59841368D01*
X93648116Y-59975563D01*
X93648113Y-59975568D01*
X93644173Y-59982087D01*
X93641906Y-59989360D01*
X93641905Y-59989364D01*
X93594970Y-60139986D01*
X93592987Y-60146351D01*
X93592384Y-60152981D01*
X93592383Y-60152989D01*
X93586758Y-60214885D01*
X93586757Y-60214906D01*
X93586500Y-60217735D01*
X93586500Y-60220595D01*
X93586500Y-60220596D01*
X93586500Y-60879400D01*
X93586500Y-60879421D01*
X93586501Y-60882264D01*
X93586759Y-60885113D01*
X93586760Y-60885116D01*
X93592383Y-60947011D01*
X93592384Y-60947019D01*
X93592987Y-60953649D01*
X93594968Y-60960008D01*
X93594969Y-60960010D01*
X93641905Y-61110635D01*
X93644173Y-61117913D01*
X93733184Y-61265155D01*
X93736484Y-61268455D01*
X93761029Y-61324274D01*
X93755649Y-61386458D01*
X93754184Y-61390646D01*
X93726783Y-61468953D01*
X93725991Y-61475979D01*
X93725991Y-61475981D01*
X93713574Y-61586189D01*
X93706384Y-61650000D01*
X93726783Y-61831047D01*
X93729118Y-61837720D01*
X93729119Y-61837724D01*
X93784619Y-61996335D01*
X93784621Y-61996339D01*
X93786957Y-62003015D01*
X93790719Y-62009003D01*
X93790721Y-62009006D01*
X93870406Y-62135824D01*
X93883889Y-62157281D01*
X93888897Y-62162289D01*
X93911527Y-62184919D01*
X93943639Y-62239594D01*
X93945056Y-62302986D01*
X93915418Y-62359041D01*
X93873756Y-62386082D01*
X93874874Y-62388478D01*
X93868225Y-62391578D01*
X93861261Y-62393886D01*
X93855018Y-62397736D01*
X93851950Y-62399167D01*
X93851555Y-62399330D01*
X93851185Y-62399537D01*
X93848158Y-62401057D01*
X93841268Y-62403565D01*
X93835145Y-62407591D01*
X93835139Y-62407595D01*
X93783875Y-62441312D01*
X93740837Y-62459285D01*
X93644174Y-62479832D01*
X93644170Y-62479833D01*
X93637712Y-62481206D01*
X93631681Y-62483890D01*
X93631675Y-62483893D01*
X93572685Y-62510157D01*
X93507173Y-62520240D01*
X93445608Y-62495678D01*
X93405912Y-62444409D01*
X93405241Y-62442196D01*
X93311595Y-62266996D01*
X93185568Y-62113432D01*
X93170736Y-62101260D01*
X93036788Y-61991331D01*
X93036787Y-61991330D01*
X93032004Y-61987405D01*
X93018711Y-61980300D01*
X92879683Y-61905988D01*
X92856804Y-61893759D01*
X92780601Y-61870643D01*
X92672623Y-61837888D01*
X92672619Y-61837887D01*
X92666701Y-61836092D01*
X92660547Y-61835485D01*
X92660538Y-61835484D01*
X92521627Y-61821803D01*
X92521619Y-61821802D01*
X92518547Y-61821500D01*
X91319453Y-61821500D01*
X91316381Y-61821802D01*
X91316372Y-61821803D01*
X91177461Y-61835484D01*
X91177450Y-61835486D01*
X91171299Y-61836092D01*
X91165382Y-61837886D01*
X91165376Y-61837888D01*
X90987119Y-61891962D01*
X90987116Y-61891963D01*
X90981196Y-61893759D01*
X90975738Y-61896676D01*
X90975734Y-61896678D01*
X90811454Y-61984487D01*
X90811449Y-61984490D01*
X90805996Y-61987405D01*
X90801217Y-61991326D01*
X90801211Y-61991331D01*
X90657211Y-62109509D01*
X90657205Y-62109514D01*
X90652432Y-62113432D01*
X90648514Y-62118205D01*
X90648509Y-62118211D01*
X90530331Y-62262211D01*
X90530326Y-62262217D01*
X90526405Y-62266996D01*
X90523490Y-62272449D01*
X90523487Y-62272454D01*
X90435678Y-62436734D01*
X90432759Y-62442196D01*
X90430963Y-62448116D01*
X90430962Y-62448119D01*
X90376888Y-62626376D01*
X90376886Y-62626382D01*
X90375092Y-62632299D01*
X90374486Y-62638450D01*
X90374484Y-62638461D01*
X90359377Y-62791851D01*
X90355620Y-62830000D01*
X90356227Y-62836163D01*
X90374484Y-63021538D01*
X90374485Y-63021547D01*
X90375092Y-63027701D01*
X90376887Y-63033619D01*
X90376888Y-63033623D01*
X90414353Y-63157127D01*
X90432759Y-63217804D01*
X90526405Y-63393004D01*
X90530330Y-63397787D01*
X90530331Y-63397788D01*
X90617312Y-63503775D01*
X90652432Y-63546568D01*
X90805996Y-63672595D01*
X90876637Y-63710353D01*
X90900769Y-63723252D01*
X90941959Y-63758490D01*
X90964533Y-63807773D01*
X90964312Y-63861980D01*
X90941336Y-63911077D01*
X90901330Y-63963214D01*
X90896302Y-63969767D01*
X90893144Y-63977390D01*
X90893141Y-63977396D01*
X90845625Y-64092111D01*
X90838313Y-64109764D01*
X90837236Y-64117944D01*
X90837234Y-64117952D01*
X90820809Y-64242719D01*
X90818534Y-64260000D01*
X90819612Y-64268188D01*
X90837234Y-64402047D01*
X90837235Y-64402053D01*
X90838313Y-64410236D01*
X90841472Y-64417864D01*
X90841473Y-64417865D01*
X90893141Y-64542603D01*
X90893142Y-64542606D01*
X90896302Y-64550233D01*
X90901329Y-64556784D01*
X90901330Y-64556786D01*
X90983522Y-64663900D01*
X90988549Y-64670451D01*
X90995099Y-64675477D01*
X91101441Y-64757077D01*
X91108767Y-64762698D01*
X91248764Y-64820687D01*
X91280085Y-64824810D01*
X91280947Y-64824924D01*
X91336771Y-64846633D01*
X91376263Y-64891666D01*
X91390500Y-64949846D01*
X91390500Y-65098638D01*
X91390859Y-65101980D01*
X91390860Y-65101994D01*
X91394573Y-65136534D01*
X91394573Y-65163460D01*
X91390500Y-65201362D01*
X91390500Y-65598638D01*
X91390859Y-65601980D01*
X91390860Y-65601994D01*
X91394573Y-65636535D01*
X91394573Y-65663465D01*
X91390860Y-65698005D01*
X91390859Y-65698020D01*
X91390500Y-65701362D01*
X91390500Y-66098638D01*
X91390859Y-66101980D01*
X91390860Y-66101994D01*
X91394573Y-66136534D01*
X91394573Y-66163460D01*
X91390500Y-66201362D01*
X91390500Y-66204732D01*
X91390500Y-66313950D01*
X91377506Y-66369679D01*
X91341205Y-66413911D01*
X91307892Y-66439474D01*
X91307942Y-66439435D01*
X91307873Y-66439488D01*
X91307825Y-66439525D01*
X91282459Y-66458989D01*
X91282455Y-66458992D01*
X91275913Y-66464013D01*
X91270892Y-66470555D01*
X91270889Y-66470559D01*
X91256445Y-66489382D01*
X91245581Y-66501768D01*
X91191767Y-66555582D01*
X91179380Y-66566446D01*
X91160562Y-66580886D01*
X91160555Y-66580892D01*
X91154013Y-66585913D01*
X91148992Y-66592455D01*
X91148989Y-66592459D01*
X91129576Y-66617758D01*
X91129525Y-66617825D01*
X91129523Y-66617828D01*
X91110032Y-66643229D01*
X91065564Y-66701181D01*
X91056476Y-66713024D01*
X91053318Y-66720647D01*
X91053315Y-66720653D01*
X91000407Y-66848386D01*
X90998322Y-66853418D01*
X90998320Y-66853424D01*
X90995162Y-66861050D01*
X90994084Y-66869234D01*
X90994083Y-66869240D01*
X90980900Y-66969382D01*
X90979500Y-66980015D01*
X90979500Y-66980020D01*
X90974250Y-67019900D01*
X90975328Y-67028088D01*
X90978422Y-67051590D01*
X90979500Y-67068036D01*
X90979500Y-67727964D01*
X90978422Y-67744407D01*
X90974250Y-67776100D01*
X90975328Y-67784289D01*
X90979500Y-67815980D01*
X90979500Y-67815985D01*
X90988179Y-67881910D01*
X90994083Y-67926762D01*
X90994084Y-67926768D01*
X90995162Y-67934951D01*
X90998321Y-67942579D01*
X90998322Y-67942580D01*
X91053315Y-68075346D01*
X91053316Y-68075349D01*
X91056476Y-68082976D01*
X91061502Y-68089527D01*
X91061504Y-68089529D01*
X91129523Y-68178172D01*
X91127813Y-68179484D01*
X91127814Y-68179486D01*
X91129525Y-68178174D01*
X91154013Y-68210087D01*
X91160558Y-68215109D01*
X91160562Y-68215113D01*
X91179379Y-68229552D01*
X91191770Y-68240419D01*
X91245581Y-68294230D01*
X91256448Y-68306620D01*
X91256766Y-68307035D01*
X91275914Y-68331988D01*
X91307826Y-68356475D01*
X91307829Y-68356478D01*
X91341205Y-68382089D01*
X91377506Y-68426322D01*
X91390500Y-68482050D01*
X91390500Y-68598638D01*
X91390859Y-68601980D01*
X91390860Y-68601994D01*
X91394573Y-68636534D01*
X91394573Y-68663460D01*
X91390500Y-68701362D01*
X91390500Y-69098638D01*
X91390859Y-69101980D01*
X91390860Y-69101994D01*
X91394573Y-69136534D01*
X91394573Y-69163461D01*
X91390500Y-69201362D01*
X91390500Y-69204732D01*
X91390500Y-69350154D01*
X91376263Y-69408334D01*
X91336771Y-69453367D01*
X91280947Y-69475076D01*
X91256951Y-69478235D01*
X91256949Y-69478235D01*
X91248764Y-69479313D01*
X91241137Y-69482472D01*
X91241134Y-69482473D01*
X91116396Y-69534141D01*
X91116390Y-69534144D01*
X91108767Y-69537302D01*
X91102218Y-69542326D01*
X91102213Y-69542330D01*
X90995099Y-69624522D01*
X90995094Y-69624526D01*
X90988549Y-69629549D01*
X90983526Y-69636094D01*
X90983522Y-69636099D01*
X90901330Y-69743213D01*
X90901326Y-69743218D01*
X90896302Y-69749767D01*
X90893144Y-69757390D01*
X90893141Y-69757396D01*
X90841473Y-69882134D01*
X90838313Y-69889764D01*
X90837236Y-69897944D01*
X90837234Y-69897952D01*
X90825089Y-69990208D01*
X90818534Y-70040000D01*
X90819612Y-70048188D01*
X90837234Y-70182047D01*
X90837235Y-70182053D01*
X90838313Y-70190236D01*
X90841472Y-70197864D01*
X90841473Y-70197865D01*
X90893141Y-70322603D01*
X90893142Y-70322606D01*
X90896302Y-70330233D01*
X90901329Y-70336784D01*
X90901330Y-70336786D01*
X90941335Y-70388921D01*
X90964311Y-70438018D01*
X90964533Y-70492225D01*
X90941960Y-70541508D01*
X90900770Y-70576747D01*
X90811455Y-70624487D01*
X90805996Y-70627405D01*
X90801217Y-70631326D01*
X90801211Y-70631331D01*
X90657211Y-70749509D01*
X90657205Y-70749514D01*
X90652432Y-70753432D01*
X90648514Y-70758205D01*
X90648509Y-70758211D01*
X90530331Y-70902211D01*
X90530326Y-70902217D01*
X90526405Y-70906996D01*
X90523490Y-70912449D01*
X90523487Y-70912454D01*
X90435678Y-71076734D01*
X90432759Y-71082196D01*
X90430963Y-71088116D01*
X90430962Y-71088119D01*
X90376888Y-71266376D01*
X90376886Y-71266382D01*
X90375092Y-71272299D01*
X90374486Y-71278450D01*
X90374484Y-71278461D01*
X90357950Y-71446342D01*
X90355620Y-71470000D01*
X89132380Y-71470000D01*
X89124200Y-71386944D01*
X89113515Y-71278461D01*
X89113514Y-71278460D01*
X89112908Y-71272299D01*
X89055241Y-71082196D01*
X88961595Y-70906996D01*
X88835568Y-70753432D01*
X88682004Y-70627405D01*
X88506804Y-70533759D01*
X88491845Y-70529221D01*
X88322623Y-70477888D01*
X88322619Y-70477887D01*
X88316701Y-70476092D01*
X88310547Y-70475485D01*
X88310538Y-70475484D01*
X88171627Y-70461803D01*
X88171619Y-70461802D01*
X88168547Y-70461500D01*
X87269453Y-70461500D01*
X87266381Y-70461802D01*
X87266372Y-70461803D01*
X87127461Y-70475484D01*
X87127450Y-70475486D01*
X87121299Y-70476092D01*
X87115382Y-70477886D01*
X87115376Y-70477888D01*
X86937119Y-70531962D01*
X86937116Y-70531963D01*
X86931196Y-70533759D01*
X86925738Y-70536676D01*
X86925734Y-70536678D01*
X86761454Y-70624487D01*
X86761451Y-70624489D01*
X86755996Y-70627405D01*
X86751217Y-70631326D01*
X86751211Y-70631331D01*
X86607211Y-70749509D01*
X86607205Y-70749514D01*
X86602432Y-70753432D01*
X86598514Y-70758205D01*
X86598509Y-70758211D01*
X86480331Y-70902211D01*
X86480326Y-70902217D01*
X86476405Y-70906996D01*
X86473490Y-70912449D01*
X86473487Y-70912454D01*
X86385678Y-71076734D01*
X86382759Y-71082196D01*
X86380963Y-71088116D01*
X86380962Y-71088119D01*
X86326888Y-71266376D01*
X86326886Y-71266382D01*
X86325092Y-71272299D01*
X86324486Y-71278450D01*
X86324484Y-71278461D01*
X86307950Y-71446342D01*
X86305620Y-71470000D01*
X85424000Y-71470000D01*
X85424000Y-62830000D01*
X86305620Y-62830000D01*
X86306227Y-62836163D01*
X86324484Y-63021538D01*
X86324485Y-63021547D01*
X86325092Y-63027701D01*
X86326887Y-63033619D01*
X86326888Y-63033623D01*
X86364353Y-63157127D01*
X86382759Y-63217804D01*
X86476405Y-63393004D01*
X86480330Y-63397787D01*
X86480331Y-63397788D01*
X86567312Y-63503775D01*
X86602432Y-63546568D01*
X86755996Y-63672595D01*
X86931196Y-63766241D01*
X87121299Y-63823908D01*
X87127460Y-63824514D01*
X87127461Y-63824515D01*
X87147427Y-63826481D01*
X87269453Y-63838500D01*
X88165455Y-63838500D01*
X88168547Y-63838500D01*
X88316701Y-63823908D01*
X88506804Y-63766241D01*
X88682004Y-63672595D01*
X88835568Y-63546568D01*
X88961595Y-63393004D01*
X89055241Y-63217804D01*
X89112908Y-63027701D01*
X89128753Y-62866827D01*
X89131773Y-62836163D01*
X89132380Y-62830000D01*
X89125119Y-62756278D01*
X89113515Y-62638461D01*
X89113514Y-62638460D01*
X89112908Y-62632299D01*
X89055241Y-62442196D01*
X88961595Y-62266996D01*
X88835568Y-62113432D01*
X88820736Y-62101260D01*
X88686788Y-61991331D01*
X88686787Y-61991330D01*
X88682004Y-61987405D01*
X88668711Y-61980300D01*
X88529683Y-61905988D01*
X88506804Y-61893759D01*
X88430601Y-61870643D01*
X88322623Y-61837888D01*
X88322619Y-61837887D01*
X88316701Y-61836092D01*
X88310547Y-61835485D01*
X88310538Y-61835484D01*
X88171627Y-61821803D01*
X88171619Y-61821802D01*
X88168547Y-61821500D01*
X87269453Y-61821500D01*
X87266381Y-61821802D01*
X87266372Y-61821803D01*
X87127461Y-61835484D01*
X87127450Y-61835486D01*
X87121299Y-61836092D01*
X87115382Y-61837886D01*
X87115376Y-61837888D01*
X86937119Y-61891962D01*
X86937116Y-61891963D01*
X86931196Y-61893759D01*
X86925738Y-61896676D01*
X86925734Y-61896678D01*
X86761454Y-61984487D01*
X86761449Y-61984490D01*
X86755996Y-61987405D01*
X86751217Y-61991326D01*
X86751211Y-61991331D01*
X86607211Y-62109509D01*
X86607205Y-62109514D01*
X86602432Y-62113432D01*
X86598514Y-62118205D01*
X86598509Y-62118211D01*
X86480331Y-62262211D01*
X86480326Y-62262217D01*
X86476405Y-62266996D01*
X86473490Y-62272449D01*
X86473487Y-62272454D01*
X86385678Y-62436734D01*
X86382759Y-62442196D01*
X86380963Y-62448116D01*
X86380962Y-62448119D01*
X86326888Y-62626376D01*
X86326886Y-62626382D01*
X86325092Y-62632299D01*
X86324486Y-62638450D01*
X86324484Y-62638461D01*
X86309377Y-62791851D01*
X86305620Y-62830000D01*
X85424000Y-62830000D01*
X85424000Y-55717765D01*
X87315788Y-55717765D01*
X87316290Y-55722332D01*
X87316291Y-55722344D01*
X87344910Y-55982444D01*
X87344911Y-55982453D01*
X87345414Y-55987018D01*
X87346576Y-55991463D01*
X87346577Y-55991468D01*
X87384556Y-56136739D01*
X87413928Y-56249088D01*
X87415725Y-56253318D01*
X87415728Y-56253325D01*
X87482648Y-56410799D01*
X87519870Y-56498390D01*
X87522265Y-56502315D01*
X87522266Y-56502316D01*
X87614734Y-56653831D01*
X87660982Y-56729610D01*
X87663917Y-56733137D01*
X87663918Y-56733138D01*
X87811968Y-56911040D01*
X87834255Y-56937820D01*
X87929177Y-57022870D01*
X88032561Y-57115503D01*
X88032565Y-57115506D01*
X88035998Y-57118582D01*
X88261910Y-57268044D01*
X88507176Y-57383020D01*
X88766569Y-57461060D01*
X89034561Y-57500500D01*
X89235330Y-57500500D01*
X89237631Y-57500500D01*
X89440156Y-57485677D01*
X89704553Y-57426780D01*
X89957558Y-57330014D01*
X90193777Y-57197441D01*
X90408177Y-57031888D01*
X90596186Y-56836881D01*
X90753799Y-56616579D01*
X90877656Y-56375675D01*
X90965118Y-56119305D01*
X91014319Y-55852933D01*
X91022121Y-55639460D01*
X91024044Y-55586837D01*
X91024043Y-55586834D01*
X91024212Y-55582235D01*
X90994586Y-55312982D01*
X90926072Y-55050912D01*
X90820130Y-54801610D01*
X90679018Y-54570390D01*
X90505745Y-54362180D01*
X90409635Y-54276065D01*
X90307438Y-54184496D01*
X90307432Y-54184491D01*
X90304002Y-54181418D01*
X90189051Y-54105367D01*
X90081925Y-54034493D01*
X90081922Y-54034491D01*
X90078090Y-54031956D01*
X90012496Y-54001207D01*
X89906101Y-53951331D01*
X89832824Y-53916980D01*
X89798256Y-53906580D01*
X89577843Y-53840267D01*
X89577838Y-53840265D01*
X89573431Y-53838940D01*
X89568874Y-53838269D01*
X89568868Y-53838268D01*
X89310000Y-53800171D01*
X89309996Y-53800170D01*
X89305439Y-53799500D01*
X89102369Y-53799500D01*
X89100098Y-53799666D01*
X89100076Y-53799667D01*
X88904438Y-53813986D01*
X88904427Y-53813987D01*
X88899844Y-53814323D01*
X88895353Y-53815323D01*
X88895349Y-53815324D01*
X88639939Y-53872219D01*
X88639934Y-53872220D01*
X88635447Y-53873220D01*
X88631149Y-53874863D01*
X88631145Y-53874865D01*
X88386746Y-53968339D01*
X88386735Y-53968343D01*
X88382442Y-53969986D01*
X88378434Y-53972235D01*
X88378422Y-53972241D01*
X88150232Y-54100308D01*
X88150221Y-54100314D01*
X88146223Y-54102559D01*
X88142589Y-54105364D01*
X88142586Y-54105367D01*
X87935466Y-54265298D01*
X87935458Y-54265305D01*
X87931823Y-54268112D01*
X87928632Y-54271421D01*
X87928625Y-54271428D01*
X87747011Y-54459802D01*
X87747004Y-54459809D01*
X87743814Y-54463119D01*
X87741136Y-54466861D01*
X87741131Y-54466868D01*
X87588885Y-54679668D01*
X87588878Y-54679677D01*
X87586201Y-54683421D01*
X87584097Y-54687512D01*
X87584091Y-54687523D01*
X87464453Y-54920222D01*
X87462344Y-54924325D01*
X87460856Y-54928684D01*
X87460854Y-54928691D01*
X87376371Y-55176327D01*
X87376367Y-55176341D01*
X87374882Y-55180695D01*
X87374044Y-55185228D01*
X87374044Y-55185231D01*
X87326517Y-55442537D01*
X87326515Y-55442546D01*
X87325681Y-55447067D01*
X87325513Y-55451656D01*
X87325512Y-55451668D01*
X87315956Y-55713161D01*
X87315788Y-55717765D01*
X85424000Y-55717765D01*
X85424000Y-50026000D01*
X85440881Y-49963000D01*
X85487000Y-49916881D01*
X85550000Y-49900000D01*
X164794000Y-49900000D01*
X164857000Y-49916881D01*
G37*
G04 #@! TD.AperFunction*
M02*
